<?xml version="1.0" encoding="utf-8"?>
<!-- Generator: Adobe Illustrator 22.1.0, SVG Export Plug-In . SVG Version: 6.00 Build 0)  -->
<svg version="1.1" id="Layer_1" xmlns="http://www.w3.org/2000/svg" xmlns:xlink="http://www.w3.org/1999/xlink" x="0px" y="0px"
	 viewBox="0 0 256 256" style="enable-background:new 0 0 256 256;" xml:space="preserve">
<style type="text/css">
	.st0{fill:#F5B31F;}
	.st1{fill:#464646;}
	.st2{opacity:0.15;}
	.st3{fill:#AC6535;}
	.st4{fill:#EB573B;}
	.st5{fill:#90C056;}
	.st6{opacity:0.35;}
	.st7{fill:#FFFFFF;}
	.st8{opacity:0.2;}
	.st9{fill:#F6D67A;}
	.st10{opacity:0.3;}
	.st11{fill:#FFA755;}
	.st12{fill:#8FAE3C;}
	.st13{fill:#BE6BB2;}
	.st14{fill:#B7C536;}
	.st15{opacity:0.1;}
	.st16{fill:#9D5A96;}
	.st17{fill:#EA615D;}
	.st18{opacity:0.4;}
	.st19{fill:#F79932;}
	.st20{fill:#FFEC97;}
	.st21{fill:#FFD11D;}
	.st22{fill:#F7F2D5;}
	.st23{fill:#F6AF72;}
	.st24{fill:#BA6C45;}
	.st25{opacity:0.5;}
	.st26{fill:#E4C074;}
	.st27{fill:#656566;}
	.st28{fill:#FACD1F;}
	.st29{fill:#FFDF66;}
	.st30{fill:#6D6E71;}
	.st31{fill:#E77CAE;}
	.st32{fill:#FFE5C4;}
	.st33{fill:#F68455;}
	.st34{opacity:0.7;}
	.st35{fill:#ADEDFF;}
	.st36{fill:#EC754B;}
	.st37{fill:#4AA5BA;}
	.st38{opacity:0.8;}
	.st39{fill:#92A5AC;}
	.st40{fill:#D06E3C;}
	.st41{fill:#DA4F4B;}
	.st42{fill:#BDF3FF;}
	.st43{fill:#F18BB4;}
	.st44{fill:#F9D97A;}
	.st45{fill:none;}
	.st46{fill:#AF6535;}
	.st47{fill:#B93226;}
	.st48{fill:#FF6050;}
	.st49{fill:#EA7CB1;}
	.st50{fill:#00B0E0;}
	.st51{fill:#EA7DAE;}
	.st52{fill:#BC7532;}
	.st53{fill:#876C6C;}
	.st54{fill:#F9F6CD;}
	.st55{fill:#FFE37B;}
	.st56{fill:#1DDCFF;}
	.st57{fill:#60ACF7;}
	.st58{fill:#C3755A;}
	.st59{fill:#96557A;}
	.st60{fill:#66625D;}
	.st61{fill:#D68032;}
	.st62{fill:#F2A355;}
	.st63{fill:#7E9E6A;}
	.st64{fill:#965A85;}
	.st65{fill:#90CAD3;}
	.st66{fill:#94B57F;}
	.st67{fill:#B2E2E7;}
	.st68{fill:#FFDF8F;}
	.st69{fill:#FFFAEB;}
	.st70{fill:#F88916;}
	.st71{fill:#FFC86E;}
	.st72{fill:#AFA51D;}
	.st73{fill:#968A1C;}
	.st74{fill:#C3556D;}
</style>
<g>
	<g>
		<g>
			<path class="st4" d="M64.1,123.8c-6.9-2-27.9-21.1-43-9.9S3.4,140.6,6.7,162.4S26,199,37.9,202.4c11.9,3.5,43.2-4.8,56.9-22.2
				s13.1-32.9,7.4-45.5C96.5,122.1,71,125.8,64.1,123.8z"/>
		</g>
	</g>
	<g class="st15">
		<g>
			<path d="M102.2,134.7c5.7,12.6,6.3,28-7.4,45.5s-45,25.7-56.9,22.2C26,199,10,184.2,6.7,162.4C41.7,203.1,85.8,188.8,102.2,134.7
				z"/>
		</g>
	</g>
	<g>
		<g>
			<path class="st4" d="M157.7,169.2c-7.2,0.1-32.7-12.2-44.1,2.8c-11.3,15.1-9.3,30.6,0.1,50.5s29,29.5,41.3,29.5
				c12.4-0.1,40-16.9,48.1-37.6c8.1-20.7,3.1-35.3-5.9-45.7C188.3,158.2,164.9,169.1,157.7,169.2z"/>
		</g>
	</g>
	<g class="st15">
		<g>
			<path d="M197.3,168.7c9.1,10.5,14,25.1,5.9,45.7c-8.1,20.7-35.8,37.5-48.1,37.6c-12.4,0.1-31.9-9.6-41.3-29.5
				C155.1,252,195.8,230.2,197.3,168.7z"/>
		</g>
	</g>
	<g>
		<g>
			<path class="st12" d="M83.7,22.6c0,0,57.2-19.4,81.9-18.6c58,4.9,84.9,56.9,84.9,56.9S239,56.6,225,55.4c-14-1.2-23.1,6.4-43.5,2
				s-40.9-22.9-53.6-27.2C115.2,25.9,83.7,22.6,83.7,22.6z"/>
		</g>
	</g>
	<g class="st10">
		<g>
			<path class="st7" d="M165.6,4c-24.7-0.8-81.9,18.6-81.9,18.6s31.5,3.3,44.2,7.6c0,0-6.4-3-3.2-11.7C127.8,9.8,165.6,4,165.6,4z"
				/>
		</g>
	</g>
	<g>
		<g>
			<path class="st1" d="M44.5,207.2c-3,0-5.6-0.3-7.7-0.9c-13.9-4.1-30.6-20.6-34-43.3c-4.9-32.1,5.3-44.4,15.9-52.3
				c13.6-10,30.2-0.1,40.1,5.8c2.6,1.5,5.2,3.1,6.4,3.5c1.4,0.4,4.8,0.5,8,0.6c10.9,0.4,27.4,1,32.6,12.4
				c7.5,16.6,4.8,33.3-7.9,49.6C85.6,198.4,60.3,207.2,44.5,207.2z M31.9,114.5c-3,0-5.9,0.8-8.5,2.7c-12.6,9.3-16.2,21.9-12.8,44.6
				c1.9,12.4,11.9,32,28.3,36.8c9.8,2.9,39.5-4.1,52.6-20.9c10.9-13.9,13.2-27.5,6.9-41.4c-3.1-6.9-16.6-7.4-25.6-7.7
				c-4.2-0.2-7.6-0.3-9.9-0.9c0,0,0,0,0,0c-2.2-0.6-4.9-2.2-8.3-4.3C48.4,119.6,39.7,114.5,31.9,114.5z"/>
		</g>
	</g>
	<g>
		<g>
			<path class="st1" d="M155,256c-14.5,0-35-11.1-44.8-31.8c-13.8-29.4-7.6-44.1,0.3-54.6c10.1-13.5,28.9-8.7,40.1-5.9
				c2.9,0.7,5.9,1.5,7.1,1.5c1.5,0,4.7-0.9,7.9-1.7c10.6-2.7,26.6-6.9,34.8,2.6c11.9,13.8,14.2,30.5,6.6,49.8
				c-8.6,22-37.6,40-51.8,40.1C155.1,256,155,256,155,256z M131,168.5c-5.6,0-10.8,1.4-14.2,5.9c-9.4,12.6-9.3,25.6,0.5,46.4
				c5.3,11.3,20.5,27.2,37.5,27.2c0.1,0,0.1,0,0.2,0c10.3-0.1,36.7-15.3,44.4-35.1c6.5-16.5,4.8-30.1-5.2-41.6
				c-5-5.7-18.1-2.3-26.7-0.1c-4.1,1.1-7.4,1.9-9.8,1.9c0,0,0,0,0,0c0,0-0.1,0-0.1,0c-2.3,0-5.3-0.8-9.1-1.7
				C143.5,170.1,137,168.5,131,168.5z M157.7,169.2L157.7,169.2L157.7,169.2z"/>
		</g>
	</g>
	<g>
		<g>
			<path class="st1" d="M157.7,173.2c-0.1,0-0.3,0-0.4,0c-2.2-0.2-3.8-2.2-3.5-4.4c5.7-51.5-13-92.3-62.4-134.6
				c7.5,31.6-0.6,62.6-24.1,92.2c-1.4,1.7-3.9,2-5.6,0.6c-1.7-1.4-2-3.9-0.6-5.6C86.2,89.6,92.4,57.8,80,24c-0.6-1.7,0-3.6,1.4-4.6
				c1.5-1,3.4-1,4.8,0.1c59.4,47.3,82,92.2,75.5,150.1C161.5,171.6,159.8,173.2,157.7,173.2z"/>
		</g>
	</g>
	<g>
		<g>
			<path class="st1" d="M250.5,64.9c-0.5,0-0.9-0.1-1.4-0.2c-0.1,0-11.2-4.1-24.5-5.2c-5.1-0.4-9.5,0.4-14.6,1.5
				c-7.7,1.5-16.5,3.3-29.5,0.4c-13-2.8-25.5-10.7-36.5-17.6c-6.6-4.2-12.9-8.1-17.5-9.7c-12.1-4.1-43-7.4-43.3-7.4
				c-1.9-0.2-3.3-1.7-3.6-3.5s0.9-3.6,2.7-4.2C84.8,18,140.6-0.8,165.8,0c0.1,0,0.1,0,0.2,0c17.2,1.5,42.7,8.1,66.7,31.4
				c14.3,13.9,21.2,27.1,21.5,27.6c0.8,1.5,0.5,3.3-0.6,4.5C252.8,64.4,251.7,64.9,250.5,64.9z M102.3,20.9
				c9.5,1.4,20.4,3.3,26.9,5.5c5.5,1.9,11.9,5.9,19.2,10.5c10.5,6.6,22.3,14,33.9,16.6c11.4,2.5,18.9,1,26.2-0.5
				c5.2-1,10.5-2.1,16.8-1.6c6.1,0.5,11.7,1.6,16.2,2.6C231.1,39.6,206.1,11.5,165.4,8C150,7.5,120.9,15.3,102.3,20.9z"/>
		</g>
	</g>
	<g>
		<g>
			<path class="st1" d="M32.3,182.7c-1.2,0-2.5-0.6-3.2-1.7c-7.3-10.2-11.2-21.2-11.4-32.8c0-2.2,1.7-4,3.9-4.1
				c2.2-0.1,4,1.7,4.1,3.9c0.2,10.1,3.4,19.3,9.9,28.3c1.3,1.8,0.9,4.3-0.9,5.6C34,182.4,33.1,182.7,32.3,182.7z"/>
		</g>
	</g>
</g>
</svg>
