<?xml version="1.0" encoding="utf-8"?>
<!-- Generator: Adobe Illustrator 22.1.0, SVG Export Plug-In . SVG Version: 6.00 Build 0)  -->
<svg version="1.1" id="Layer_1" xmlns="http://www.w3.org/2000/svg" xmlns:xlink="http://www.w3.org/1999/xlink" x="0px" y="0px"
	 viewBox="0 0 256 256" style="enable-background:new 0 0 256 256;" xml:space="preserve">
<style type="text/css">
	.st0{fill:#F5B31F;}
	.st1{fill:#464646;}
	.st2{opacity:0.15;}
	.st3{fill:#AC6535;}
	.st4{fill:#EB573B;}
	.st5{fill:#90C056;}
	.st6{opacity:0.35;}
	.st7{fill:#FFFFFF;}
	.st8{opacity:0.2;}
	.st9{fill:#F6D67A;}
	.st10{opacity:0.3;}
	.st11{fill:#FFA755;}
	.st12{fill:#8FAE3C;}
	.st13{fill:#BE6BB2;}
	.st14{fill:#B7C536;}
	.st15{opacity:0.1;}
	.st16{fill:#9D5A96;}
	.st17{fill:#EA615D;}
	.st18{opacity:0.4;}
	.st19{fill:#F79932;}
	.st20{fill:#FFEC97;}
	.st21{fill:#FFD11D;}
	.st22{fill:#F7F2D5;}
	.st23{fill:#F6AF72;}
	.st24{fill:#BA6C45;}
	.st25{opacity:0.5;}
	.st26{fill:#E4C074;}
	.st27{fill:#656566;}
	.st28{fill:#FACD1F;}
	.st29{fill:#FFDF66;}
	.st30{fill:#6D6E71;}
	.st31{fill:#E77CAE;}
	.st32{fill:#FFE5C4;}
	.st33{fill:#F68455;}
	.st34{opacity:0.7;}
	.st35{fill:#ADEDFF;}
	.st36{fill:#EC754B;}
	.st37{fill:#4AA5BA;}
	.st38{opacity:0.8;}
	.st39{fill:#92A5AC;}
	.st40{fill:#D06E3C;}
	.st41{fill:#DA4F4B;}
	.st42{fill:#BDF3FF;}
	.st43{fill:#F18BB4;}
	.st44{fill:#F9D97A;}
	.st45{fill:none;}
	.st46{fill:#AF6535;}
	.st47{fill:#B93226;}
	.st48{fill:#FF6050;}
	.st49{fill:#EA7CB1;}
	.st50{fill:#00B0E0;}
	.st51{fill:#EA7DAE;}
	.st52{fill:#BC7532;}
	.st53{fill:#876C6C;}
	.st54{fill:#F9F6CD;}
	.st55{fill:#FFE37B;}
	.st56{fill:#1DDCFF;}
	.st57{fill:#60ACF7;}
	.st58{fill:#C3755A;}
	.st59{fill:#96557A;}
	.st60{fill:#66625D;}
	.st61{fill:#D68032;}
	.st62{fill:#F2A355;}
	.st63{fill:#7E9E6A;}
	.st64{fill:#965A85;}
	.st65{fill:#90CAD3;}
	.st66{fill:#94B57F;}
	.st67{fill:#B2E2E7;}
	.st68{fill:#FFDF8F;}
	.st69{fill:#FFFAEB;}
	.st70{fill:#F88916;}
	.st71{fill:#FFC86E;}
	.st72{fill:#AFA51D;}
	.st73{fill:#968A1C;}
	.st74{fill:#C3556D;}
</style>
<g>
	<g>
		<g>
			<path class="st4" d="M19.3,238.6C-8.3,211,8.7,89.2,52.9,53.6c21.3-17.1,44-20.3,65.6-15.2c7.2,18.1,30.6,29.9,62.4,38.5
				c12.4,27.2,24.6,56.6,39,64.9c4.3,20.9,0.7,42.7-15.8,63.2C168.5,249.2,46.9,266.2,19.3,238.6z"/>
		</g>
	</g>
	<g class="st8">
		<g>
			<path class="st7" d="M118.6,38.3c-21.6-5.1-44.3-1.9-65.6,15.2C25.3,75.8,8.3,131.8,6.2,177.3c0,0,21.6-76.9,51.4-104.2
				S118.6,38.3,118.6,38.3z"/>
		</g>
	</g>
	<g class="st15">
		<g>
			<path d="M131.4,226.4c64.2-19.3,87.3-71.3,88.5-84.7c4.3,20.9,0.7,42.7-15.8,63.2c-35.6,44.3-157.2,61.2-184.8,33.7
				c-3.6-3.6-6.4-8.7-8.5-15C21.8,235.3,67.2,245.7,131.4,226.4z"/>
		</g>
	</g>
	<g>
		<g>
			<path class="st1" d="M71.1,255.9c-25.6,0-45.2-5.1-54.6-14.6c-10.7-10.7-15.9-34.8-14.2-66c1.3-23.7,6.4-48.9,14.3-70.9
				c8.9-24.6,20.6-43.3,33.9-54.1c20.6-16.5,43.8-21.9,69-16c1.3,0.3,2.3,1.2,2.8,2.4c6,15,25.6,26.9,59.7,36.1
				c1.1,0.3,2.1,1.1,2.6,2.2c1.2,2.7,2.4,5.4,3.7,8.1c10.7,23.7,21.8,48.2,33.6,55.1c1,0.6,1.7,1.5,1.9,2.7
				c5,24.3-0.6,46.6-16.6,66.5c-10.7,13.3-29.4,25.1-54,34c-22,7.9-47.1,13-70.8,14.3C78.5,255.8,74.7,255.9,71.1,255.9z
				 M100.2,40.1c-16.1,0-31,5.5-44.7,16.5c-26.6,21.4-42.9,76.1-45.2,119.2c-1.5,28.5,2.9,50.9,11.9,59.9c9,9,31.3,13.4,59.8,11.9
				c43-2.3,97.7-18.6,119.1-45.2c14-17.4,19.1-37,15.3-58.2c-13.3-9-24-32.7-35.3-57.7c-1-2.1-1.9-4.2-2.9-6.4
				c-34.7-9.6-54.6-21.9-62.3-38.4C110.4,40.7,105.2,40.1,100.2,40.1z"/>
		</g>
	</g>
	<g>
		<g>
			<g>
				<path class="st1" d="M111.7,77.1c-1,0-2-0.4-2.8-1.2c-1.6-1.6-1.6-4.1,0-5.7l5-5c1.6-1.6,4.1-1.6,5.7,0c1.6,1.6,1.6,4.1,0,5.7
					l-5,5C113.8,76.7,112.7,77.1,111.7,77.1z"/>
			</g>
		</g>
		<g>
			<g>
				<path class="st1" d="M177.3,142.8c-1,0-2-0.4-2.8-1.2c-1.6-1.6-1.6-4.1,0-5.7l5-5c1.6-1.6,4.1-1.6,5.7,0c1.6,1.6,1.6,4.1,0,5.7
					l-5,5C179.4,142.4,178.3,142.8,177.3,142.8z"/>
			</g>
		</g>
		<g>
			<g>
				<path class="st1" d="M68.2,87.8c-1,0-2-0.4-2.8-1.2c-1.6-1.6-1.6-4.1,0-5.7l5-5c1.6-1.6,4.1-1.6,5.7,0c1.6,1.6,1.6,4.1,0,5.7
					l-5,5C70.3,87.4,69.3,87.8,68.2,87.8z"/>
			</g>
		</g>
		<g>
			<g>
				<path class="st1" d="M101,120.6c-1,0-2-0.4-2.8-1.2c-1.6-1.6-1.6-4.1,0-5.7l5-5c1.6-1.6,4.1-1.6,5.7,0c1.6,1.6,1.6,4.1,0,5.7
					l-5,5C103.1,120.2,102.1,120.6,101,120.6z"/>
			</g>
		</g>
		<g>
			<g>
				<path class="st1" d="M166.6,186.3c-1,0-2-0.4-2.8-1.2c-1.6-1.6-1.6-4.1,0-5.7l5-5c1.6-1.6,4.1-1.6,5.7,0c1.6,1.6,1.6,4.1,0,5.7
					l-5,5C168.7,185.9,167.6,186.3,166.6,186.3z"/>
			</g>
		</g>
		<g>
			<g>
				<path class="st1" d="M133.8,153.5c-1,0-2-0.4-2.8-1.2c-1.6-1.6-1.6-4.1,0-5.7l5-5c1.6-1.6,4.1-1.6,5.7,0c1.6,1.6,1.6,4.1,0,5.7
					l-5,5C135.9,153.1,134.8,153.5,133.8,153.5z"/>
			</g>
		</g>
		<g>
			<g>
				<path class="st1" d="M57.5,131.3c-1,0-2-0.4-2.8-1.2c-1.6-1.6-1.6-4.1,0-5.7l5-5c1.6-1.6,4.1-1.6,5.7,0c1.6,1.6,1.6,4.1,0,5.7
					l-5,5C59.6,130.9,58.6,131.3,57.5,131.3z"/>
			</g>
		</g>
		<g>
			<g>
				<path class="st1" d="M90.3,164.1c-1,0-2-0.4-2.8-1.2c-1.6-1.6-1.6-4.1,0-5.7l5-5c1.6-1.6,4.1-1.6,5.7,0c1.6,1.6,1.6,4.1,0,5.7
					l-5,5C92.4,163.8,91.4,164.1,90.3,164.1z"/>
			</g>
		</g>
		<g>
			<g>
				<path class="st1" d="M123.1,197c-1,0-2-0.4-2.8-1.2c-1.6-1.6-1.6-4.1,0-5.7l5-5c1.6-1.6,4.1-1.6,5.7,0c1.6,1.6,1.6,4.1,0,5.7
					l-5,5C125.2,196.6,124.2,197,123.1,197z"/>
			</g>
		</g>
		<g>
			<g>
				<path class="st1" d="M46.9,174.8c-1,0-2-0.4-2.8-1.2c-1.6-1.6-1.6-4.1,0-5.7l5-5c1.6-1.6,4.1-1.6,5.7,0c1.6,1.6,1.6,4.1,0,5.7
					l-5,5C48.9,174.4,47.9,174.8,46.9,174.8z"/>
			</g>
		</g>
		<g>
			<g>
				<path class="st1" d="M79.7,207.7c-1,0-2-0.4-2.8-1.2c-1.6-1.6-1.6-4.1,0-5.7l5-5c1.6-1.6,4.1-1.6,5.7,0c1.6,1.6,1.6,4.1,0,5.7
					l-5,5C81.7,207.3,80.7,207.7,79.7,207.7z"/>
			</g>
		</g>
		<g>
			<g>
				<path class="st1" d="M36.2,218.4c-1,0-2-0.4-2.8-1.2c-1.6-1.6-1.6-4.1,0-5.7l5-5c1.6-1.6,4.1-1.6,5.7,0c1.6,1.6,1.6,4.1,0,5.7
					l-5,5C38.2,218,37.2,218.4,36.2,218.4z"/>
			</g>
		</g>
		<g>
			<g>
				<path class="st1" d="M144.5,109.9c-1,0-2-0.4-2.8-1.2c-1.6-1.6-1.6-4.1,0-5.7l5-5c1.6-1.6,4.1-1.6,5.7,0c1.6,1.6,1.6,4.1,0,5.7
					l-5,5C146.6,109.5,145.5,109.9,144.5,109.9z"/>
			</g>
		</g>
	</g>
	<g class="st15">
		<g>
			<path d="M199.5,94.5c16.6,27.4,22.1,47.2,16.6,61.1c0,0-1.4,0-1.4,0c-15.5-8.9-28.6-40.7-42-70.1c-34.2-9.3-59.5-22-67.3-41.5
				c-0.9-2.3-1.6-4.6-2-7c17.3-6.3,37.1,4,58,21.7L199.5,94.5z"/>
		</g>
	</g>
	<g>
		<g>
			<path class="st12" d="M219.9,141.8C219.9,141.8,219.9,141.8,219.9,141.8c-14.4-8.3-26.6-37.8-39-65
				c-31.7-8.6-55.1-20.4-62.4-38.5c-0.8-2.1-1.5-4.3-1.9-6.5c16.1-5.9,34.4,3.7,53.7,20.1c-4.8-15.3-0.4-31.4,9.9-48
				c22.1,20.3,21,40,13.8,59.6c0,0,60.5-2.9,55.7,18.2c-11.7,8.1-44.1,3.3-44.1,3.3C221.1,110.5,225,128.9,219.9,141.8z"/>
		</g>
	</g>
	<g class="st10">
		<g>
			<path class="st7" d="M195.2,23.7c-2.9-6.5-7.6-13.1-14.8-19.7c-10.4,16.6-14.8,32.7-9.9,48c0,0,1.5-22.5,9.4-29.6
				C187.7,15.3,195.2,23.7,195.2,23.7z"/>
		</g>
	</g>
	<g class="st10">
		<g>
			<path class="st7" d="M147.9,36.1c-11-5.8-21.5-7.9-31.2-4.3c0.4,2.3,1,4.4,1.9,6.5C122,46.9,129,54,138.8,60.1
				c0,0-11.7-12.4-7.9-18.7C134.8,35.2,147.9,36.1,147.9,36.1z"/>
		</g>
	</g>
	<g>
		<g>
			<path class="st1" d="M219.9,145.8c-0.6,0-1.3-0.2-1.8-0.4c-0.1,0-0.1-0.1-0.2-0.1h0c-14.1-8.1-25.2-32.7-36.9-58.7
				c-1-2.1-1.9-4.2-2.9-6.4c-36.1-10-56.2-22.9-63.2-40.3c-1-2.4-1.7-4.8-2.1-7.3c-0.3-1.9,0.8-3.8,2.6-4.4
				c13.9-5.1,29.7-0.6,49.2,14.1c-0.8-12.4,3.3-25.7,12.4-40.3c0.6-1,1.7-1.7,2.9-1.8c1.2-0.2,2.4,0.2,3.2,1
				c22.8,21,21.8,41.7,16.7,58.4c12.9-0.1,42.1,0.8,51.2,11.8c2.7,3.3,3.7,7.2,2.7,11.5c-0.2,1-0.8,1.8-1.6,2.4
				c-9.2,6.4-28,5.9-38.9,4.9c12.3,22.4,15.7,39.8,10.5,53.3c-0.5,1.3-1.6,2.2-3,2.5C220.4,145.7,220.1,145.8,219.9,145.8z
				 M121.5,34.6c0.2,0.8,0.5,1.5,0.8,2.2c6,15.1,25.6,26.9,59.7,36.1c1.1,0.3,2.1,1.1,2.6,2.2c1.2,2.7,2.4,5.4,3.7,8.1
				c9.4,20.8,19.1,42.3,29.4,51.8c1.9-11.8-3.2-27.9-15.3-47.9c-0.8-1.3-0.8-3,0.1-4.3c0.9-1.3,2.4-2,3.9-1.7
				c8.1,1.2,30.3,3.1,39.8-1.8c0-1.1-0.4-2.1-1.2-3c-6.5-7.8-34.5-9.5-50.5-8.7c-1.3,0.1-2.6-0.5-3.4-1.6c-0.8-1.1-1-2.5-0.5-3.8
				c5.9-15.9,8.7-33.2-9.2-51.8c-8.5,15.1-10.8,28.3-7,40.4c0.5,1.7-0.1,3.6-1.6,4.5c-1.5,1-3.4,0.9-4.8-0.3
				C148.6,38.6,133.7,32.1,121.5,34.6z"/>
		</g>
	</g>
	<g>
		<g>
			<path class="st1" d="M189.1,72.6c-1.1,0-2.2-0.4-2.9-1.3c-1.5-1.6-1.4-4.2,0.2-5.7c22.1-20.4,41.3-27.6,58.8-22.1
				c2.1,0.7,3.3,2.9,2.6,5c-0.7,2.1-2.9,3.3-5,2.6c-14.7-4.6-30.8,1.8-50.9,20.4C191,72.3,190.1,72.6,189.1,72.6z"/>
		</g>
	</g>
</g>
</svg>
