<?xml version="1.0" encoding="utf-8"?>
<!-- Generator: Adobe Illustrator 22.1.0, SVG Export Plug-In . SVG Version: 6.00 Build 0)  -->
<svg version="1.1" id="Layer_1" xmlns="http://www.w3.org/2000/svg" xmlns:xlink="http://www.w3.org/1999/xlink" x="0px" y="0px"
	 viewBox="0 0 256 256" style="enable-background:new 0 0 256 256;" xml:space="preserve">
<style type="text/css">
	.st0{fill:#F5B31F;}
	.st1{fill:#464646;}
	.st2{opacity:0.15;}
	.st3{fill:#AC6535;}
	.st4{fill:#EB573B;}
	.st5{fill:#90C056;}
	.st6{opacity:0.35;}
	.st7{fill:#FFFFFF;}
	.st8{opacity:0.2;}
	.st9{fill:#F6D67A;}
	.st10{opacity:0.3;}
	.st11{fill:#FFA755;}
	.st12{fill:#8FAE3C;}
	.st13{fill:#BE6BB2;}
	.st14{fill:#B7C536;}
	.st15{opacity:0.1;}
	.st16{fill:#9D5A96;}
	.st17{fill:#EA615D;}
	.st18{opacity:0.4;}
	.st19{fill:#F79932;}
	.st20{fill:#FFEC97;}
	.st21{fill:#FFD11D;}
	.st22{fill:#F7F2D5;}
	.st23{fill:#F6AF72;}
	.st24{fill:#BA6C45;}
	.st25{opacity:0.5;}
	.st26{fill:#E4C074;}
	.st27{fill:#656566;}
	.st28{fill:#FACD1F;}
	.st29{fill:#FFDF66;}
	.st30{fill:#6D6E71;}
	.st31{fill:#E77CAE;}
	.st32{fill:#FFE5C4;}
	.st33{fill:#F68455;}
	.st34{opacity:0.7;}
	.st35{fill:#ADEDFF;}
	.st36{fill:#EC754B;}
	.st37{fill:#4AA5BA;}
	.st38{opacity:0.8;}
	.st39{fill:#92A5AC;}
	.st40{fill:#D06E3C;}
	.st41{fill:#DA4F4B;}
	.st42{fill:#BDF3FF;}
	.st43{fill:#F18BB4;}
	.st44{fill:#F9D97A;}
	.st45{fill:none;}
	.st46{fill:#AF6535;}
	.st47{fill:#B93226;}
	.st48{fill:#FF6050;}
	.st49{fill:#EA7CB1;}
	.st50{fill:#00B0E0;}
	.st51{fill:#EA7DAE;}
	.st52{fill:#BC7532;}
	.st53{fill:#876C6C;}
	.st54{fill:#F9F6CD;}
	.st55{fill:#FFE37B;}
	.st56{fill:#1DDCFF;}
	.st57{fill:#60ACF7;}
	.st58{fill:#C3755A;}
	.st59{fill:#96557A;}
	.st60{fill:#66625D;}
	.st61{fill:#D68032;}
	.st62{fill:#F2A355;}
	.st63{fill:#7E9E6A;}
	.st64{fill:#965A85;}
	.st65{fill:#90CAD3;}
	.st66{fill:#94B57F;}
	.st67{fill:#B2E2E7;}
	.st68{fill:#FFDF8F;}
	.st69{fill:#FFFAEB;}
	.st70{fill:#F88916;}
	.st71{fill:#FFC86E;}
	.st72{fill:#AFA51D;}
	.st73{fill:#968A1C;}
	.st74{fill:#C3556D;}
</style>
<g>
	<g>
		<g>
			<path class="st4" d="M191.7,3.9l0.7,19.3c-2.8,0.4-6,1.4-9.5,3.1c-2.1,0.9-4,2.1-5.6,3.5c-6.3-3.4-15.7-8.5-15.7-8.5L191.7,3.9z"
				/>
		</g>
	</g>
	<g class="st15">
		<g>
			<path d="M192.2,16.4l0.2,6.8c-2.8,0.4-6,1.4-9.5,3.1c-2.1,0.9-4,2.1-5.6,3.5c-1.8-0.9-3.7-2-5.7-3.1
				C177.1,21.2,183.8,17.5,192.2,16.4z"/>
		</g>
	</g>
	<g>
		<g>
			<path class="st1" d="M177.4,33.7c-0.6,0-1.3-0.2-1.9-0.5c-6.2-3.3-15.7-8.5-15.8-8.5c-1.3-0.7-2.1-2-2.1-3.5c0-1.4,0.7-2.8,2-3.5
				l30-17.4c1.2-0.7,2.7-0.7,3.9,0c1.2,0.7,2,2,2.1,3.4l0.7,19.2c0.1,2-1.4,3.8-3.4,4.1c-2.5,0.4-5.3,1.3-8.3,2.7c0,0-0.1,0-0.1,0.1
				c-1.7,0.7-3.2,1.7-4.6,2.9C179.3,33.4,178.4,33.7,177.4,33.7z M169.9,21.1c2.2,1.2,4.8,2.6,7.1,3.9c1.3-0.9,2.8-1.7,4.3-2.4
				c2.4-1.2,4.7-2.1,7-2.7l-0.3-9.2L169.9,21.1z"/>
		</g>
	</g>
	<g>
		<g>
			<path class="st4" d="M216.3,43.6c18.9,88.7-30.8,182-134.2,207c-14.4,3.1-29.8-0.2-32.2-17.5c-0.2-1.7-0.4-3.5-0.3-5.4
				c0.1-2.6,0.5-5,1-7.1c2.7-11.7,10.4-16.9,21.1-20c72.4-17.3,102.4-59.2,95.4-137.9c0,0-3.2-22.4,9.4-33.3
				c1.6-1.4,3.4-2.6,5.6-3.5c3.5-1.7,6.6-2.7,9.5-3.1C209.8,20.2,215.6,41.1,216.3,43.6z"/>
		</g>
	</g>
	<g class="st15">
		<g>
			<path d="M176.4,29.5c1.6-1.4,3.4-2.6,5.6-3.5c3.5-1.7,6.6-2.7,9.5-3.1c18.4-2.7,24.3,18.2,24.9,20.7c6.5,30.3,4.9,61.2-4.1,89.7
				c0,0,10.8-65.4-4.4-86.9S176.4,29.5,176.4,29.5z"/>
		</g>
	</g>
	<g class="st8">
		<g>
			<path class="st7" d="M99.4,192.6c-8.2,3.2-17.1,6-26.9,8.3c-10.7,3.1-18.4,8.3-21.1,20c-0.5,2.1-0.8,4.5-1,7.1
				c0,1.9,0.1,3.7,0.3,5.4c2.4,17.3,17.8,20.6,32.2,17.5c0,0-22.3-9.4-19-26.7S99.4,192.6,99.4,192.6z"/>
		</g>
	</g>
	<g>
		<g>
			<path class="st1" d="M73.8,255.9c-6.7,0-12.5-1.6-17.1-4.8c-5.5-3.8-8.8-9.6-9.8-17.2c-0.3-1.9-0.4-4-0.4-6c0-0.1,0-0.1,0-0.2
				c0.1-2.8,0.5-5.4,1.1-7.8c3.5-15.2,14.6-20.2,23.8-22.9c0.1,0,0.1,0,0.2,0c35.7-8.5,60.3-23,75.1-44.3
				c15-21.5,20.7-50.7,17.3-89.2c-0.3-2.1-3-24.9,10.8-36.8c1.9-1.7,4.1-3.1,6.5-4.1c3.7-1.8,7.2-2.9,10.6-3.4
				c16.4-2.4,26.1,11.3,29.4,23.7c0,0.1,0,0.1,0,0.2c9.7,45.4,1.9,91.6-21.8,130.3c-24.8,40.5-65.8,69.4-115.5,81.4c0,0-0.1,0-0.1,0
				C80.4,255.5,77,255.9,73.8,255.9z M54.6,228.1c0,1.6,0.1,3.2,0.3,4.7c0.7,5.3,2.9,9.3,6.5,11.8c4.8,3.4,12.3,4.2,20.9,2.4
				c47.6-11.5,86.8-39.1,110.5-77.8c22.6-36.9,30-81,20.8-124.3c-1-3.5-6.1-19.8-20.5-17.7c-2.6,0.4-5.3,1.3-8.3,2.7
				c0,0-0.1,0-0.1,0.1c-1.7,0.7-3.2,1.7-4.6,2.9c-10.8,9.4-8.1,29.5-8.1,29.7c0,0.1,0,0.1,0,0.2c3.6,40.5-2.5,71.4-18.7,94.6
				c-16,23-42.1,38.5-79.7,47.5c-10.9,3.2-16.1,8.1-18.2,17C55,223.7,54.7,225.8,54.6,228.1z"/>
		</g>
	</g>
	<g>
		<g>
			<path class="st4" d="M36.4,210.1l15.1,10.7l0,0c-0.5,2.1-0.8,4.5-1,7.1c0,1.9,0.1,3.7,0.3,5.4l-16.2,8.4L36.4,210.1z"/>
		</g>
	</g>
	<g class="st15">
		<g>
			<path d="M46.2,217.1l5.3,3.8l0,0c-0.5,2.1-0.8,4.5-1,7.1c0,1.9,0.1,3.7,0.3,5.4l-6.1,3.2C42.5,229.7,43.1,223.2,46.2,217.1z"/>
		</g>
	</g>
	<g>
		<g>
			<path class="st1" d="M34.7,245.8c-0.8,0-1.5-0.2-2.2-0.6c-1.2-0.8-1.9-2.1-1.8-3.6l1.7-31.7c0.1-1.5,0.9-2.8,2.3-3.4
				c1.3-0.6,2.9-0.5,4.1,0.3l15,10.7c1.3,0.9,2,2.6,1.7,4.2c-0.4,1.9-0.7,4.1-0.9,6.3c0,1.6,0.1,3.2,0.3,4.7
				c0.2,1.7-0.6,3.3-2.1,4.1l-16.2,8.4C36,245.6,35.3,245.8,34.7,245.8z M40,217.6L39.1,235l7.6-3.9c-0.1-1-0.1-2.1-0.1-3.2
				c0-0.1,0-0.1,0-0.2c0.1-1.8,0.3-3.5,0.5-5.1L40,217.6z"/>
		</g>
	</g>
	<g>
		<g>
			<path class="st1" d="M122.4,203.1c-0.4,0-0.8-0.1-1.1-0.2c-10-3-10.6-16.6-10.7-17.2c-0.1-2.2,1.6-4.1,3.9-4.1
				c2.2-0.1,4.1,1.6,4.1,3.8c0.1,2.2,1.2,8.7,4.9,9.8c2.1,0.6,3.3,2.9,2.7,5C125.7,201.9,124.1,203.1,122.4,203.1z"/>
		</g>
	</g>
	<g>
		<g>
			<path class="st1" d="M146.5,183.9c-0.4,0-0.8-0.1-1.2-0.2c-10-3.1-11-12.3-10.1-16.7c0.4-2.2,2.5-3.6,4.7-3.1
				c2.2,0.4,3.6,2.5,3.1,4.7c-0.2,1.4-0.6,5.9,4.6,7.5c2.1,0.6,3.3,2.9,2.7,5C149.8,182.7,148.3,183.9,146.5,183.9z"/>
		</g>
	</g>
	<g>
		<g>
			<path class="st1" d="M166.6,159.4c-8.9,0-13.7-7.6-15-11.8c-0.7-2.1,0.5-4.4,2.6-5c2.1-0.7,4.3,0.5,5,2.6
				c0.2,0.7,2.5,6.8,8.3,6.2c2.2-0.2,4.2,1.4,4.4,3.6c0.2,2.2-1.4,4.2-3.6,4.4C167.7,159.4,167.1,159.4,166.6,159.4z"/>
		</g>
	</g>
	<g>
		<g>
			<path class="st1" d="M173.8,123c-5.7,0-9.7-2.2-10-2.3c-1.9-1.1-2.6-3.5-1.5-5.4c1.1-1.9,3.5-2.6,5.4-1.5c0.3,0.2,6,3.1,12.9-0.3
				c2-1,4.4-0.2,5.4,1.8c1,2,0.2,4.4-1.8,5.4C180.4,122.4,176.9,123,173.8,123z"/>
		</g>
	</g>
	<g>
		<g>
			<path class="st1" d="M172.5,83.5c-2.7,0-4.5-0.5-4.7-0.6c-2.1-0.6-3.3-2.8-2.7-5c0.6-2.1,2.8-3.3,4.9-2.7
				c0.3,0.1,6.4,1.6,11.3-3.7c1.5-1.6,4-1.7,5.7-0.2c1.6,1.5,1.7,4,0.2,5.7C182.2,82.4,176.4,83.5,172.5,83.5z"/>
		</g>
	</g>
	<g>
		<g>
			<path class="st1" d="M96.6,219.4c-0.9,0-1.8-0.3-2.5-0.9c-11.4-9.2-6.7-23.7-6.5-24.3c0.7-2.1,3-3.2,5.1-2.5
				c2.1,0.7,3.2,3,2.5,5.1c-0.1,0.4-3.1,9.9,3.9,15.5c1.7,1.4,2,3.9,0.6,5.6C99,218.9,97.8,219.4,96.6,219.4z"/>
		</g>
	</g>
</g>
</svg>
