<?xml version="1.0" encoding="utf-8"?>
<!-- Generator: Adobe Illustrator 22.1.0, SVG Export Plug-In . SVG Version: 6.00 Build 0)  -->
<svg version="1.1" id="Layer_1" xmlns="http://www.w3.org/2000/svg" xmlns:xlink="http://www.w3.org/1999/xlink" x="0px" y="0px"
	 viewBox="0 0 256 256" style="enable-background:new 0 0 256 256;" xml:space="preserve">
<style type="text/css">
	.st0{fill:#F5B31F;}
	.st1{fill:#464646;}
	.st2{opacity:0.15;}
	.st3{fill:#AC6535;}
	.st4{fill:#EB573B;}
	.st5{fill:#90C056;}
	.st6{opacity:0.35;}
	.st7{fill:#FFFFFF;}
	.st8{opacity:0.2;}
	.st9{fill:#F6D67A;}
	.st10{opacity:0.3;}
	.st11{fill:#FFA755;}
	.st12{fill:#8FAE3C;}
	.st13{fill:#BE6BB2;}
	.st14{fill:#B7C536;}
	.st15{opacity:0.1;}
	.st16{fill:#9D5A96;}
	.st17{fill:#EA615D;}
	.st18{opacity:0.4;}
	.st19{fill:#F79932;}
	.st20{fill:#FFEC97;}
	.st21{fill:#FFD11D;}
	.st22{fill:#F7F2D5;}
	.st23{fill:#F6AF72;}
	.st24{fill:#BA6C45;}
	.st25{opacity:0.5;}
	.st26{fill:#E4C074;}
	.st27{fill:#656566;}
	.st28{fill:#FACD1F;}
	.st29{fill:#FFDF66;}
	.st30{fill:#6D6E71;}
	.st31{fill:#E77CAE;}
	.st32{fill:#FFE5C4;}
	.st33{fill:#F68455;}
	.st34{opacity:0.7;}
	.st35{fill:#ADEDFF;}
	.st36{fill:#EC754B;}
	.st37{fill:#4AA5BA;}
	.st38{opacity:0.8;}
	.st39{fill:#92A5AC;}
	.st40{fill:#D06E3C;}
	.st41{fill:#DA4F4B;}
	.st42{fill:#BDF3FF;}
	.st43{fill:#F18BB4;}
	.st44{fill:#F9D97A;}
	.st45{fill:none;}
	.st46{fill:#AF6535;}
	.st47{fill:#B93226;}
	.st48{fill:#FF6050;}
	.st49{fill:#EA7CB1;}
	.st50{fill:#00B0E0;}
	.st51{fill:#EA7DAE;}
	.st52{fill:#BC7532;}
	.st53{fill:#876C6C;}
	.st54{fill:#F9F6CD;}
	.st55{fill:#FFE37B;}
	.st56{fill:#1DDCFF;}
	.st57{fill:#60ACF7;}
	.st58{fill:#C3755A;}
	.st59{fill:#96557A;}
	.st60{fill:#66625D;}
	.st61{fill:#D68032;}
	.st62{fill:#F2A355;}
	.st63{fill:#7E9E6A;}
	.st64{fill:#965A85;}
	.st65{fill:#90CAD3;}
	.st66{fill:#94B57F;}
	.st67{fill:#B2E2E7;}
	.st68{fill:#FFDF8F;}
	.st69{fill:#FFFAEB;}
	.st70{fill:#F88916;}
	.st71{fill:#FFC86E;}
	.st72{fill:#AFA51D;}
	.st73{fill:#968A1C;}
	.st74{fill:#C3556D;}
</style>
<g>
	<g>
		<g>
			<path class="st9" d="M252,192.3c0,12.5-4.1,15.4-13.4,15.4l-31.8,0c8.6,0,12.7-2.5,13.3-12.6c20.1-4,17.8-24.9,6.5-52.5
				c1.8-3.1,2.8-5.7,1.8-7.2c-3.4-5.1-15.3-7.6-19.3-13.6c-2.1-3.2-0.5-9.1,0.7-14.6C241.2,137.7,252,184.1,252,192.3z"/>
		</g>
	</g>
	<g class="st2">
		<g>
			<path class="st1" d="M223.5,200.7c0.1-0.9,0-4.5,0-5.6c0-4.2-1.1-15.2-8.4-31.7c0,0,10.3-16.9,16-25.1
				C247.3,168.3,253.1,200,223.5,200.7z"/>
		</g>
	</g>
	<g>
		<g>
			<path class="st3" d="M220.1,195.1c0.1-0.9,0.1-1.8,0.1-2.8c0-3.9-2.5-16.6-8.5-32c0,0,10.3-10.1,14.9-17.7
				C237.9,170.2,240.2,191.2,220.1,195.1z"/>
		</g>
	</g>
	<g>
		<g>
			<path class="st1" d="M238.6,211.8C238.6,211.8,238.6,211.8,238.6,211.8l-31.8,0c-2.2,0-4-1.8-4-4s1.8-4,4-4
				c6.8,0,8.9-1.2,9.4-8.9c0.1-1.8,1.4-3.3,3.2-3.7c4.9-1,8.2-3.1,10-6.4c3.8-7.1,1.7-20.8-6.4-40.7c-0.5-1.2-0.4-2.5,0.3-3.6
				c1.1-1.8,1.5-2.8,1.6-3.3c-1.3-1.5-4.4-3.1-7.1-4.5c-4.5-2.3-9.2-4.7-11.8-8.7c-2.8-4.3-1.5-10.2-0.2-16c0.1-0.6,0.2-1.1,0.4-1.7
				c0.3-1.4,1.4-2.6,2.8-3c1.4-0.4,2.9-0.1,3.9,1c32,31.2,43.3,78.7,43.3,88l0,0c0,7.4-1.3,12-4.3,15.2
				C248,211.3,242.8,211.8,238.6,211.8z M222.3,203.8l16.3,0c0,0,0,0,0,0c3.9,0,6.1-0.6,7.3-1.8c1.4-1.5,2.1-4.7,2.1-9.7
				c0-5-4.7-26.8-16.9-49.5c0,0,0,0.1,0,0.1c8.7,21.8,10.3,36.4,5.3,45.7c-2.6,4.7-6.8,8-12.6,9.7
				C223.5,200.4,223,202.2,222.3,203.8z M252,192.3L252,192.3L252,192.3z M212.3,115.5c-0.2,1.8-0.3,3.4,0.2,4.1
				c1.3,1.9,4.3,3.6,7.4,5.3C217.5,121.7,215,118.6,212.3,115.5z"/>
		</g>
	</g>
	<g>
		<g>
			<path class="st1" d="M220.1,199.1c-1,0-1.9-0.3-2.6-1c-0.9-0.8-1.4-2-1.4-3.2c0.1-0.9,0.1-1.7,0.1-2.6c0-3-2.1-14.8-8.2-30.6
				c-0.6-1.5-0.2-3.2,0.9-4.3c0.1-0.1,10-9.8,14.3-16.9c0.8-1.3,2.2-2,3.7-1.9c1.5,0.1,2.8,1.1,3.4,2.5c9.3,22.8,11.2,37.9,6,47.5
				c-3,5.5-8.2,9-15.5,10.5C220.6,199.1,220.4,199.1,220.1,199.1z M216.4,161.3c4.7,12.7,7,23,7.6,28.4c2.4-1.1,4.1-2.8,5.3-4.9
				c3.4-6.3,2.1-17.6-3.7-33.8C222.3,155.1,218.5,159.1,216.4,161.3z"/>
		</g>
	</g>
	<g>
		<g>
			<path class="st5" d="M226.6,142.6c-4.6,7.6-14.9,17.7-14.9,17.7c-11.7-30.2-37-71.2-83.6-79c-5-0.8-10.4-1.3-15.9-1.3
				c-50.3,0-79.3,36.5-94.3,68.1c-0.5-0.4-16-14.7-13.7-19.8c2.4-5.2,13.8-4.7,17.6-8.2c3.8-3.5-0.2-24,4.8-28
				c5-4,17.2,0.4,23.4-3.4c6.2-3.8,1.4-22.9,7.6-26.3s17.6,7.5,25.5,7.1c7.9-0.4,8.6-22.4,17.2-21.5s12.2,15.1,20,16.7
				c7.7,1.6,15-14.1,22.7-13.3c7.7,0.8,6.5,16.4,13.8,19.8c7.2,3.4,18.4-10.2,24.4-7.6c5.9,2.5,0.7,21,6.2,27.1h0
				c0.1,0.1,0.2,0.2,0.3,0.3c1.3,1.2,2.8,2,4.3,2.4c5.8,1.5,12.9-1.2,17,2.5c2.4,2.2,1.7,6.6,0.7,11.4c-1.2,5.5-2.8,11.4-0.7,14.6
				c4,5.9,15.8,8.5,19.3,13.6C229.4,136.9,228.5,139.5,226.6,142.6z"/>
		</g>
	</g>
	<g>
		<g>
			<path class="st1" d="M211.7,164.3c-0.3,0-0.6,0-0.8-0.1c-1.3-0.3-2.4-1.2-2.9-2.5c-9.8-25.2-33.2-68.6-80.5-76.5
				c-4.9-0.8-10.1-1.2-15.3-1.2c0,0,0,0,0,0c-27.1,0-64.8,11.4-90.7,65.8c-0.5,1.1-1.6,2-2.8,2.2c-1.2,0.2-2.5-0.1-3.5-1
				c-8.3-7.6-17.6-18-14.6-24.5c2.2-4.7,7.7-6.1,12.5-7.4c2.2-0.5,4.8-1.2,5.8-2c0.7-1.4,0.8-6.5,0.8-9.8c0.1-7.8,0.2-15.2,4.4-18.5
				c3.7-2.9,8.9-2.8,13.9-2.6c3.7,0.1,7.8,0.2,9.9-1.1c1.3-0.8,1.7-7.1,1.9-10.1c0.4-6.6,0.8-13.5,5.9-16.3C61,56,67,59,72.9,61.9
				c3.5,1.7,7.5,3.7,10,3.6c1.3-0.1,3.6-5.7,4.6-8.2c2.6-6.3,5.8-14.1,13.2-13.3c6.2,0.6,10.1,5.7,13.5,10.2c2.3,3,4.6,6.1,6.8,6.6
				c1.9,0.4,5.3-2.9,8-5.6c4.1-3.9,8.7-8.4,14.4-7.8c6.6,0.7,8.8,7.1,10.7,12.3c1.2,3.3,2.5,7,4.4,7.9c1.9,0.9,6.4-1.8,9.7-3.8
				c4.9-2.9,9.9-5.9,14.6-3.9c5.4,2.3,5.6,9.3,5.7,16.2c0.1,4.4,0.2,9.9,1.8,11.9c0,0,0.1,0.1,0.1,0.1c0,0,0.1,0.1,0.1,0.1
				c0.7,0.7,1.5,1.1,2.6,1.4c1.8,0.5,3.9,0.4,6.2,0.3c4.2-0.1,8.9-0.3,12.5,3c4.3,3.9,2.9,10.7,1.9,15.2c-0.1,0.6-0.3,1.2-0.4,1.7
				c-0.7,3.3-1.9,8.4-0.9,9.8c1.5,2.2,5.2,4.2,8.8,6c4.2,2.2,8.2,4.3,10.5,7.5c2.5,3.7,0.2,8.3-1.7,11.5c0,0,0,0,0,0
				c-4.8,7.9-15.1,18-15.5,18.5C213.8,163.9,212.8,164.3,211.7,164.3z M112.2,76C112.2,76,112.2,76,112.2,76
				c5.6,0,11.2,0.5,16.6,1.3c21.8,3.6,41,14.5,57.2,32.3c13,14.3,21.7,30.7,27.1,43.4c3.2-3.5,7.6-8.5,10.1-12.6
				c1.1-1.8,1.5-2.8,1.6-3.3c-1.3-1.5-4.4-3.1-7.1-4.5c-4.5-2.3-9.2-4.7-11.8-8.7c-2.8-4.3-1.5-10.2-0.2-16c0.1-0.6,0.2-1.1,0.4-1.7
				c1.3-6.1,0.8-7.4,0.5-7.6c-1.3-1.1-4-1.1-6.9-1c-2.6,0.1-5.5,0.2-8.4-0.6c-2.3-0.6-4.4-1.7-6.1-3.3c-0.1-0.1-0.2-0.2-0.3-0.3
				c-0.1-0.1-0.1-0.1-0.2-0.2c-3.7-4.1-3.9-10.8-4-17.2c-0.1-2.9-0.2-7.7-1-9c-1.3-0.1-5.2,2.2-7.3,3.5c-5.4,3.2-11.4,6.8-17.2,4.1
				c-4.9-2.3-6.8-7.7-8.5-12.4c-1.1-3.2-2.4-6.8-4-7c-1.9-0.2-5.3,3-7.9,5.6c-4.3,4.2-9.2,8.9-15.2,7.7c-5.2-1-8.6-5.6-11.6-9.6
				c-2.7-3.5-5.2-6.8-7.9-7.1c-1.5-0.1-3.9,5.6-5,8.4c-2.5,6-5.3,12.8-11.6,13.1c-4.6,0.2-9.4-2.1-14-4.4c-3.3-1.6-8.2-4-9.8-3.2
				c-1.2,0.8-1.5,6.8-1.7,9.8c-0.4,6.6-0.8,13.5-5.7,16.5c-4.1,2.5-9.5,2.4-14.3,2.2c-3.3-0.1-7.4-0.2-8.7,0.9
				c-1.2,1.3-1.3,8.5-1.4,12.4c-0.1,7.1-0.2,12.6-3.2,15.4c-2.4,2.2-6,3.1-9.5,4c-2.5,0.6-6.1,1.6-7.1,2.7c0.3,2,4,6.8,8.7,11.7
				c8.9-17.3,19.8-31.5,32.5-42.3C67.3,83.8,88.5,76,112.2,76z M226.6,142.6L226.6,142.6L226.6,142.6z M8,129.6"/>
		</g>
	</g>
	<g class="st2">
		<g>
			<path class="st1" d="M232.1,188l-11.5-35.3c-12.8-30.2-40.2-71.2-91-79c-5.5-0.8-11.3-1.3-17.3-1.3c-54.8,0-86.3,36.5-102.6,68.1
				l10.2,6.7l199.1,47.9L232.1,188z"/>
		</g>
	</g>
	<g>
		<g>
			<path class="st9" d="M220.2,192.3c0,1,0,1.9-0.1,2.8c-0.6,10.2-4.8,12.6-13.3,12.6l-189.1,0c-9.3,0-13.4-2.9-13.4-15.5
				c0-4.9,3.9-23.5,13.7-44.1c15-31.6,44-68.1,94.3-68.1c5.6,0,10.9,0.5,15.9,1.3c46.6,7.7,71.9,48.7,83.6,79
				C217.7,175.7,220.2,188.4,220.2,192.3z"/>
		</g>
	</g>
	<g class="st6">
		<g>
			<path class="st7" d="M153.1,89.3c-7.5-3.7-15.8-6.5-24.9-8c-5-0.8-10.4-1.3-15.9-1.3c-50.3,0-79.3,36.5-94.3,68.1
				c-9.8,20.6-13.7,39.2-13.7,44.1c0,12.5,4.1,15.4,13.4,15.5C18.7,143.9,66.7,83.9,153.1,89.3z"/>
		</g>
	</g>
	<g class="st2">
		<g>
			<path class="st1" d="M211.7,160.3c6,15.5,8.5,28.1,8.5,32c0,1,0,1.9-0.1,2.8c-0.6,10.2-4.8,12.6-13.3,12.6l-189.1,0
				c0,0,170.4-5,183.9-16.9C215.1,179,211.7,160.3,211.7,160.3z"/>
		</g>
	</g>
	<g>
		<g>
			<path class="st9" d="M17.9,148.2C17.9,148.2,17.9,148.2,17.9,148.2"/>
		</g>
	</g>
	<g>
		<g>
			<path class="st1" d="M206.8,211.8l-189.1,0c-12.4,0-17.4-5.6-17.4-19.5c0-5.7,4.1-25,14.1-45.9c9.3-19.6,21.1-35.5,34.9-47.3
				C67.3,83.8,88.5,76,112.2,76c0,0,0,0,0,0c5.6,0,11.2,0.5,16.6,1.3c21.8,3.6,41,14.5,57.2,32.3c15,16.6,24.3,35.9,29.5,49.2
				c6.4,16.4,8.7,29.2,8.7,33.5c0,1,0,2-0.1,3C223.4,206.9,218.2,211.8,206.8,211.8z M112.2,84c-27.1,0-64.8,11.4-90.7,65.8
				c-10,21.1-13.3,38.7-13.3,42.4c0,11,3.1,11.5,9.4,11.5l189.1,0c6.8,0,8.9-1.2,9.4-8.9c0.1-0.8,0.1-1.7,0.1-2.6
				c0-3-2.1-14.8-8.2-30.6c-9.8-25.2-33.2-68.6-80.5-76.5C122.6,84.5,117.4,84,112.2,84C112.2,84,112.2,84,112.2,84z"/>
		</g>
	</g>
	<g>
		<g>
			<path class="st1" d="M17.9,152.2c-0.9,0-1.8-0.3-2.6-1l0,0c-1.7-1.4-1.9-4-0.4-5.6c1.4-1.7,4-1.9,5.6-0.4s1.9,4,0.4,5.6
				C20.2,151.7,19,152.2,17.9,152.2z"/>
		</g>
	</g>
	<g>
		<g>
			<path class="st1" d="M44.1,180.5c-5.4,0-9.7-4.4-9.7-9.7c0-5.4,4.4-9.7,9.7-9.7c2.6,0,5,1,6.9,2.9c1.8,1.8,2.8,4.3,2.9,6.9
				c0,2.6-1,5.1-2.8,6.9C49.2,179.5,46.7,180.5,44.1,180.5z M44.1,169c-1,0-1.7,0.8-1.7,1.7c0,1,0.8,1.7,1.7,1.7
				c0.6,0,1-0.3,1.2-0.5s0.5-0.6,0.5-1.2c0,0,0,0,0,0c0-0.6-0.3-1-0.5-1.2C45.2,169.4,44.7,169,44.1,169z M53.9,170.8L53.9,170.8
				L53.9,170.8z"/>
		</g>
	</g>
	<g>
		<g>
			<path class="st1" d="M89.5,180.6c-5.4,0-9.7-4.4-9.7-9.7c0-2.6,1-5.1,2.9-6.9c1.8-1.8,4.3-2.8,6.9-2.8c0,0,0,0,0,0
				c5.3,0,9.7,4.4,9.7,9.7c0,0,0,0,0,0C99.3,176.2,94.9,180.6,89.5,180.6z M89.5,169.1c-0.6,0-1,0.3-1.2,0.5
				c-0.2,0.2-0.5,0.6-0.5,1.2c0,1,0.8,1.8,1.7,1.8c1,0,1.7-0.8,1.7-1.7C91.3,169.9,90.5,169.1,89.5,169.1
				C89.5,169.1,89.5,169.1,89.5,169.1z"/>
		</g>
	</g>
	<g>
		<g>
			<path class="st1" d="M134.9,180.6C134.9,180.6,134.9,180.6,134.9,180.6c-5.4,0-9.8-4.4-9.8-9.7c0-1.9,0.5-3.7,1.5-5.3
				c0.1-0.1,0.1-0.2,0.2-0.3c1.8-2.7,4.8-4.2,8-4.2c4.3,0,8.1,2.9,9.3,7c0.3,0.9,0.4,1.9,0.4,2.8c0,2.6-1,5.1-2.9,6.9
				C140,179.6,137.5,180.6,134.9,180.6z M133.4,170c-0.1,0.2-0.2,0.5-0.2,0.8c0,1,0.8,1.7,1.7,1.7c0,0,0,0,0,0c0.6,0,1-0.3,1.2-0.5
				c0.2-0.2,0.5-0.6,0.5-1.2c0-0.2,0-0.3-0.1-0.5c-0.2-0.7-0.9-1.2-1.7-1.2c-0.6,0-1.1,0.3-1.5,0.8C133.4,169.9,133.4,170,133.4,170
				z"/>
		</g>
	</g>
	<g>
		<g>
			<path class="st1" d="M180.3,180.6c-3.2,0-6.2-1.6-8.1-4.3c-1.1-1.6-1.7-3.5-1.7-5.5c0-2.6,1-5,2.8-6.9c1.8-1.8,4.3-2.9,6.9-2.9
				c5.4,0,9.7,4.4,9.7,9.7l0,0c0,0,0,0,0,0c0,2.9-1.2,5.6-3.4,7.4c-0.1,0.1-0.2,0.1-0.2,0.2C184.7,179.9,182.5,180.6,180.3,180.6z
				 M180.3,169.1c-0.6,0-1,0.3-1.2,0.5s-0.5,0.6-0.5,1.2c0,0.4,0.1,0.7,0.3,1c0.6,0.8,1.8,1,2.5,0.3c0,0,0.1-0.1,0.1-0.1
				c0.2-0.2,0.5-0.6,0.5-1.2c0,0,0,0,0,0C182.1,169.9,181.3,169.1,180.3,169.1z"/>
		</g>
	</g>
	<g>
		<g>
			<path class="st1" d="M157.6,144.6C157.6,144.6,157.6,144.6,157.6,144.6c-5.4,0-9.8-4.4-9.8-9.7c0-5.4,4.4-9.7,9.7-9.7
				c2.6,0,5,1,6.9,2.9c1.8,1.8,2.8,4.3,2.8,6.9c0,2.6-1,5.1-2.8,6.9C162.7,143.6,160.2,144.6,157.6,144.6z M157.6,133.1
				c-1,0-1.7,0.8-1.7,1.7c0,1,0.8,1.7,1.7,1.7c0,0,0,0,0,0c0.6,0,1-0.3,1.2-0.5c0.2-0.2,0.5-0.6,0.5-1.2c0,0,0,0,0,0
				c0-0.6-0.3-1.1-0.5-1.2C158.6,133.4,158.2,133.1,157.6,133.1z M167.3,134.9L167.3,134.9L167.3,134.9z"/>
		</g>
	</g>
	<g>
		<g>
			<path class="st1" d="M112.2,145.6C112.2,145.6,112.2,145.6,112.2,145.6c-5.4,0-9.7-4.4-9.7-9.8c0-2.6,1-5.1,2.9-6.9
				c1.8-1.8,4.3-2.8,6.9-2.8c0,0,0,0,0,0c2.6,0,5,1,6.9,2.9c1.8,1.8,2.9,4.3,2.9,6.9l0,0c0,0,0,0,0,0c0,2.6-1,5-2.8,6.9
				C117.3,144.6,114.8,145.6,112.2,145.6z M112.2,134.1c-0.6,0-1,0.3-1.2,0.5c-0.2,0.2-0.5,0.6-0.5,1.2c0,1,0.8,1.8,1.7,1.8h0
				c0.6,0,1-0.3,1.2-0.5c0.2-0.2,0.5-0.6,0.5-1.2c0,0,0,0,0,0c0-0.6-0.3-1-0.5-1.2C113.2,134.5,112.8,134.1,112.2,134.1
				C112.2,134.1,112.2,134.1,112.2,134.1z"/>
		</g>
	</g>
	<g>
		<g>
			<path class="st1" d="M66.8,144.6c-2.6,0-5-1-6.9-2.9c-1.8-1.8-2.9-4.3-2.9-6.9c0-5.4,4.4-9.7,9.7-9.7c5.4,0,9.7,4.4,9.7,9.7l0,0
				c0,0,0,0,0,0C76.5,140.2,72.2,144.6,66.8,144.6z M66.8,133.1c-1,0-1.7,0.8-1.7,1.7c0,0.6,0.3,1,0.5,1.2c0.2,0.2,0.6,0.5,1.2,0.5
				c1,0,1.7-0.8,1.7-1.7c0,0,0,0,0,0C68.5,133.9,67.8,133.1,66.8,133.1z"/>
		</g>
	</g>
</g>
</svg>
