<?xml version="1.0" encoding="utf-8"?>
<!-- Generator: Adobe Illustrator 22.1.0, SVG Export Plug-In . SVG Version: 6.00 Build 0)  -->
<svg version="1.1" id="Layer_1" xmlns="http://www.w3.org/2000/svg" xmlns:xlink="http://www.w3.org/1999/xlink" x="0px" y="0px"
	 viewBox="0 0 256 256" style="enable-background:new 0 0 256 256;" xml:space="preserve">
<style type="text/css">
	.st0{fill:#F5B31F;}
	.st1{fill:#464646;}
	.st2{opacity:0.15;}
	.st3{fill:#AC6535;}
	.st4{fill:#EB573B;}
	.st5{fill:#90C056;}
	.st6{opacity:0.35;}
	.st7{fill:#FFFFFF;}
	.st8{opacity:0.2;}
	.st9{fill:#F6D67A;}
	.st10{opacity:0.3;}
	.st11{fill:#FFA755;}
	.st12{fill:#8FAE3C;}
	.st13{fill:#BE6BB2;}
	.st14{fill:#B7C536;}
	.st15{opacity:0.1;}
	.st16{fill:#9D5A96;}
	.st17{fill:#EA615D;}
	.st18{opacity:0.4;}
	.st19{fill:#F79932;}
	.st20{fill:#FFEC97;}
	.st21{fill:#FFD11D;}
	.st22{fill:#F7F2D5;}
	.st23{fill:#F6AF72;}
	.st24{fill:#BA6C45;}
	.st25{opacity:0.5;}
	.st26{fill:#E4C074;}
	.st27{fill:#656566;}
	.st28{fill:#FACD1F;}
	.st29{fill:#FFDF66;}
	.st30{fill:#6D6E71;}
	.st31{fill:#E77CAE;}
	.st32{fill:#FFE5C4;}
	.st33{fill:#F68455;}
	.st34{opacity:0.7;}
	.st35{fill:#ADEDFF;}
	.st36{fill:#EC754B;}
	.st37{fill:#4AA5BA;}
	.st38{opacity:0.8;}
	.st39{fill:#92A5AC;}
	.st40{fill:#D06E3C;}
	.st41{fill:#DA4F4B;}
	.st42{fill:#BDF3FF;}
	.st43{fill:#F18BB4;}
	.st44{fill:#F9D97A;}
	.st45{fill:none;}
	.st46{fill:#AF6535;}
	.st47{fill:#B93226;}
	.st48{fill:#FF6050;}
	.st49{fill:#EA7CB1;}
	.st50{fill:#00B0E0;}
	.st51{fill:#EA7DAE;}
	.st52{fill:#BC7532;}
	.st53{fill:#876C6C;}
	.st54{fill:#F9F6CD;}
	.st55{fill:#FFE37B;}
	.st56{fill:#1DDCFF;}
	.st57{fill:#60ACF7;}
	.st58{fill:#C3755A;}
	.st59{fill:#96557A;}
	.st60{fill:#66625D;}
	.st61{fill:#D68032;}
	.st62{fill:#F2A355;}
	.st63{fill:#7E9E6A;}
	.st64{fill:#965A85;}
	.st65{fill:#90CAD3;}
	.st66{fill:#94B57F;}
	.st67{fill:#B2E2E7;}
	.st68{fill:#FFDF8F;}
	.st69{fill:#FFFAEB;}
	.st70{fill:#F88916;}
	.st71{fill:#FFC86E;}
	.st72{fill:#AFA51D;}
	.st73{fill:#968A1C;}
	.st74{fill:#C3556D;}
</style>
<g>
	<g>
		<g>
			<rect x="29.1" y="87.4" class="st7" width="161.2" height="117.4"/>
		</g>
	</g>
	<g>
		<g>
			
				<rect x="67.1" y="123" transform="matrix(-1 -6.372119e-05 6.372119e-05 -1 219.4998 296.8582)" class="st56" width="85.3" height="50.9"/>
		</g>
	</g>
	<g>
		<g>
			<rect x="29.1" y="204.8" class="st42" width="161.2" height="47.1"/>
		</g>
	</g>
	<g class="st15">
		<g>
			<path d="M190.4,87.4l0,164.5l-161.2,0c0,0,116.8,1.3,137.4-20.6S190.4,87.4,190.4,87.4z"/>
		</g>
	</g>
	<g>
		<g>
			<polygon class="st42" points="29.1,87.4 190.4,87.4 197.8,56.4 204.6,28.3 51.8,28.3 			"/>
		</g>
	</g>
	<g class="st34">
		<g>
			<path class="st7" d="M204.6,28.3l-152.8,0L29.1,87.4c0,0,16.5-32.9,38-46S204.6,28.3,204.6,28.3z"/>
		</g>
	</g>
	<g>
		<g>
			<rect x="51.8" y="3.9" class="st42" width="152.8" height="24.4"/>
		</g>
	</g>
	<g class="st15">
		<g>
			<path d="M204.6,3.9l0,24.4l-152.8,0c0,0,119.5-4.6,133.5-8.4S204.6,3.9,204.6,3.9z"/>
		</g>
	</g>
	<g>
		<g>
			<polygon class="st7" points="190.4,87.4 190.4,204.8 227.1,175.9 227.1,76.1 			"/>
		</g>
	</g>
	<g>
		<g>
			<polygon class="st65" points="197.8,56.4 227.1,76.1 204.6,28.3 			"/>
		</g>
	</g>
	<g>
		<g>
			<polygon class="st42" points="190.4,87.4 227.1,76.1 197.8,56.4 			"/>
		</g>
	</g>
	<g>
		<g>
			<polygon class="st65" points="190.4,87.4 227.1,76.1 197.8,56.4 			"/>
		</g>
	</g>
	<g>
		<g>
			<polygon class="st42" points="190.4,204.8 190.4,251.9 227.1,223.5 227.1,175.9 			"/>
		</g>
	</g>
	<g class="st15">
		<g>
			<polygon points="190.4,87.4 190.4,204.8 227.1,175.9 227.1,76.1 			"/>
		</g>
	</g>
	<g class="st15">
		<g>
			<polygon points="190.4,204.8 190.4,251.9 227.1,223.5 227.1,175.9 			"/>
		</g>
	</g>
	<g>
		<g>
			<path class="st1" d="M190.4,255.9C190.4,255.9,190.4,255.9,190.4,255.9l-161.2,0c-2.2,0-4-1.8-4-4l0-47.1c0-1.1,0.4-2.1,1.2-2.8
				c0.8-0.8,1.8-1.2,2.8-1.2c0,0,0,0,0,0l161.2,0c2.2,0,4,1.8,4,4l0,47.1c0,1.1-0.4,2.1-1.2,2.8
				C192.4,255.5,191.4,255.9,190.4,255.9z M33.1,247.9l153.2,0l0-39.1l-153.2,0L33.1,247.9z"/>
		</g>
	</g>
	<g>
		<g>
			<path class="st1" d="M190.4,208.8C190.4,208.8,190.4,208.8,190.4,208.8l-161.2,0c-1.1,0-2.1-0.4-2.8-1.2
				c-0.8-0.8-1.2-1.8-1.2-2.8l0-117.4c0-2.2,1.8-4,4-4c0,0,0,0,0,0l161.2,0c2.2,0,4,1.8,4,4l0,117.4c0,1.1-0.4,2.1-1.2,2.8
				C192.4,208.4,191.4,208.8,190.4,208.8z M33.1,200.8l153.2,0l0-109.4l-153.2,0L33.1,200.8z"/>
		</g>
	</g>
	<g>
		<g>
			<path class="st1" d="M190.4,91.4C190.4,91.4,190.4,91.4,190.4,91.4l-161.2,0c-1.3,0-2.5-0.6-3.3-1.7c-0.7-1.1-0.9-2.5-0.4-3.7
				L48,26.9c0.6-1.5,2.1-2.6,3.7-2.6c0,0,0,0,0,0l152.8,0c1.2,0,2.4,0.6,3.1,1.5c0.8,1,1,2.2,0.7,3.4l-14.2,59.1
				C193.8,90.1,192.2,91.4,190.4,91.4z M35,83.4l152.3,0l12.3-51.1l-145,0L35,83.4z"/>
		</g>
	</g>
	<g>
		<g>
			<path class="st1" d="M204.6,32.3C204.6,32.3,204.6,32.3,204.6,32.3l-152.8,0c-2.2,0-4-1.8-4-4l0-24.4c0-1.1,0.4-2.1,1.2-2.8
				c0.8-0.8,1.8-1.2,2.8-1.2l0,0l152.8,0c2.2,0,4,1.8,4,4l0,24.4c0,1.1-0.4,2.1-1.2,2.8C206.7,31.9,205.6,32.3,204.6,32.3z
				 M55.8,24.3l144.8,0l0-16.4l-144.8,0L55.8,24.3z"/>
		</g>
	</g>
	<g>
		<g>
			<path class="st1" d="M190.4,208.8c-0.6,0-1.2-0.1-1.7-0.4c-1.4-0.7-2.3-2.1-2.3-3.6l0-117.4c0-1.8,1.1-3.3,2.8-3.8l36.7-11.3
				c1.2-0.4,2.5-0.1,3.6,0.6c1,0.8,1.6,1.9,1.6,3.2l0,99.9c0,1.2-0.6,2.4-1.5,3.1l-36.7,28.8C192.1,208.5,191.2,208.8,190.4,208.8z
				 M194.4,90.3l0,106.2l28.7-22.6l0-92.5L194.4,90.3z"/>
		</g>
	</g>
	<g>
		<g>
			<path class="st1" d="M227.1,80.1c-0.8,0-1.6-0.2-2.2-0.7l-29.3-19.6c-1.4-0.9-2.1-2.6-1.7-4.3l6.8-28.1c0.4-1.7,1.8-2.9,3.5-3
				c1.7-0.2,3.3,0.7,4,2.3l22.5,47.8c0.8,1.6,0.4,3.6-1,4.7C229,79.8,228,80.1,227.1,80.1z M202.4,54.7l15,10l-11.5-24.4L202.4,54.7
				z"/>
		</g>
	</g>
	<g>
		<g>
			<path class="st1" d="M190.4,91.4c-1,0-2-0.4-2.7-1.1c-1-1-1.5-2.5-1.2-3.9l7.4-31c0.3-1.3,1.2-2.3,2.4-2.8
				c1.2-0.5,2.6-0.3,3.7,0.4l29.3,19.6c1.3,0.9,2,2.4,1.7,3.9c-0.2,1.5-1.3,2.8-2.8,3.2l-36.7,11.3
				C191.2,91.3,190.8,91.4,190.4,91.4z M200.4,63l-4.5,18.5l22-6.8L200.4,63z"/>
		</g>
	</g>
	<g>
		<g>
			<path class="st1" d="M190.4,255.9c-0.6,0-1.2-0.1-1.8-0.4c-1.4-0.7-2.2-2.1-2.2-3.6l0-47.1c0-1.2,0.6-2.4,1.5-3.1l36.7-28.8
				c1.2-0.9,2.8-1.1,4.2-0.5c1.4,0.7,2.3,2.1,2.3,3.6l0,47.5c0,1.2-0.6,2.4-1.6,3.2L192.8,255C192.1,255.6,191.2,255.9,190.4,255.9z
				 M194.4,206.7l0,37l28.7-22.2l0-37.3L194.4,206.7z"/>
		</g>
	</g>
	<g>
		<g>
			<path class="st1" d="M152.4,177.9C152.4,177.9,152.4,177.9,152.4,177.9l-85.3,0c-2.2,0-4-1.8-4-4l0-50.9c0-1.1,0.4-2.1,1.2-2.8
				c0.8-0.8,1.8-1.2,2.8-1.2c0,0,0,0,0,0l85.3,0c2.2,0,4,1.8,4,4l0,50.9c0,1.1-0.4,2.1-1.2,2.8C154.5,177.5,153.5,177.9,152.4,177.9
				z M71.1,169.9l77.3,0l0-42.9l-77.3,0L71.1,169.9z"/>
		</g>
	</g>
</g>
</svg>
