<?xml version="1.0" encoding="utf-8"?>
<!-- Generator: Adobe Illustrator 22.1.0, SVG Export Plug-In . SVG Version: 6.00 Build 0)  -->
<svg version="1.1" id="Layer_1" xmlns="http://www.w3.org/2000/svg" xmlns:xlink="http://www.w3.org/1999/xlink" x="0px" y="0px"
	 viewBox="0 0 256 256" style="enable-background:new 0 0 256 256;" xml:space="preserve">
<style type="text/css">
	.st0{fill:#F5B31F;}
	.st1{fill:#464646;}
	.st2{opacity:0.15;}
	.st3{fill:#AC6535;}
	.st4{fill:#EB573B;}
	.st5{fill:#90C056;}
	.st6{opacity:0.35;}
	.st7{fill:#FFFFFF;}
	.st8{opacity:0.2;}
	.st9{fill:#F6D67A;}
	.st10{opacity:0.3;}
	.st11{fill:#FFA755;}
	.st12{fill:#8FAE3C;}
	.st13{fill:#BE6BB2;}
	.st14{fill:#B7C536;}
	.st15{opacity:0.1;}
	.st16{fill:#9D5A96;}
	.st17{fill:#EA615D;}
	.st18{opacity:0.4;}
	.st19{fill:#F79932;}
	.st20{fill:#FFEC97;}
	.st21{fill:#FFD11D;}
	.st22{fill:#F7F2D5;}
	.st23{fill:#F6AF72;}
	.st24{fill:#BA6C45;}
	.st25{opacity:0.5;}
	.st26{fill:#E4C074;}
	.st27{fill:#656566;}
	.st28{fill:#FACD1F;}
	.st29{fill:#FFDF66;}
	.st30{fill:#6D6E71;}
	.st31{fill:#E77CAE;}
	.st32{fill:#FFE5C4;}
	.st33{fill:#F68455;}
	.st34{opacity:0.7;}
	.st35{fill:#ADEDFF;}
	.st36{fill:#EC754B;}
	.st37{fill:#4AA5BA;}
	.st38{opacity:0.8;}
	.st39{fill:#92A5AC;}
	.st40{fill:#D06E3C;}
	.st41{fill:#DA4F4B;}
	.st42{fill:#BDF3FF;}
	.st43{fill:#F18BB4;}
	.st44{fill:#F9D97A;}
	.st45{fill:none;}
	.st46{fill:#AF6535;}
	.st47{fill:#B93226;}
	.st48{fill:#FF6050;}
	.st49{fill:#EA7CB1;}
	.st50{fill:#00B0E0;}
	.st51{fill:#EA7DAE;}
	.st52{fill:#BC7532;}
	.st53{fill:#876C6C;}
	.st54{fill:#F9F6CD;}
	.st55{fill:#FFE37B;}
	.st56{fill:#1DDCFF;}
	.st57{fill:#60ACF7;}
	.st58{fill:#C3755A;}
	.st59{fill:#96557A;}
	.st60{fill:#66625D;}
	.st61{fill:#D68032;}
	.st62{fill:#F2A355;}
	.st63{fill:#7E9E6A;}
	.st64{fill:#965A85;}
	.st65{fill:#90CAD3;}
	.st66{fill:#94B57F;}
	.st67{fill:#B2E2E7;}
	.st68{fill:#FFDF8F;}
	.st69{fill:#FFFAEB;}
	.st70{fill:#F88916;}
	.st71{fill:#FFC86E;}
	.st72{fill:#AFA51D;}
	.st73{fill:#968A1C;}
	.st74{fill:#C3556D;}
</style>
<g>
	<g>
		<g>
			<path class="st0" d="M197,219.7c-29,14.7-50.5,19.1-69.1,28.9l-0.1,0c-18.6-9.8-40.1-14.2-69.1-28.9
				C-14.3,174.7-19.4,50.8,74,29.3c19.1-1.6,37.6,1.4,53.9,8.4c16.3-7,34.7-10,53.9-8.4C275.2,50.9,270.1,174.8,197,219.7z"/>
		</g>
	</g>
	<g class="st25">
		<g>
			<path class="st7" d="M172.2,32.3C80.9,34.9,40,105.1,100.8,205C68.4,116.2,87.4,56,172.2,32.3z"/>
		</g>
	</g>
	<g class="st25">
		<g>
			<path class="st7" d="M127.9,37.7c-16.3-7-34.7-10-53.9-8.4C3.9,45.5-10.7,119.3,17.2,174.1C8.2,87,44.2,40.8,127.9,37.7z"/>
		</g>
	</g>
	<g class="st15">
		<g>
			<path d="M214.7,176.4c34.9-48,12.4-122.4,12.4-122.4c43.1,44.4,27.9,130-30.1,165.6c-29,14.7-50.5,19.1-69.1,28.9l-0.1,0
				c-10.6-5.6-22.1-9.4-35.3-14.4C92.5,234.2,179.9,224.4,214.7,176.4z"/>
		</g>
	</g>
	<g>
		<g>
			<path class="st1" d="M127.9,252.6c-0.7,0-1.4-0.2-2-0.5c-8.4-4.4-17.3-7.7-27.7-11.5c-12-4.4-25.6-9.4-41.3-17.4
				c-0.1,0-0.2-0.1-0.3-0.2c-40.2-24.7-63-74.8-55.3-121.8c6.4-39.2,32.6-66.8,71.8-75.8c0.2,0,0.4-0.1,0.6-0.1
				c18.8-1.6,37.5,1.2,54.2,8c16.7-6.9,35.4-9.6,54.2-8c0.2,0,0.4,0,0.6,0.1c39.2,9,65.4,36.7,71.8,75.8c7.7,47-15,97.1-55.3,121.8
				c-0.1,0.1-0.2,0.1-0.3,0.2c-15.8,8-29.4,13-41.4,17.4c-10.4,3.8-19.3,7.1-27.7,11.5C129.2,252.4,128.6,252.6,127.9,252.6z
				 M60.7,216.2c15.3,7.7,28.6,12.6,40.3,16.9c9.5,3.5,18.5,6.8,26.9,11c8.4-4.2,17.4-7.5,26.9-11c11.8-4.3,25.1-9.2,40.3-16.9
				c18.8-11.6,33.7-29,43-50.3c8.8-20.3,11.9-42.7,8.5-63.3c-5.8-35.7-29.7-60.9-65.4-69.3c-18-1.5-35.9,1.3-51.7,8.1
				c-1,0.4-2.1,0.4-3.2,0c-15.8-6.8-33.7-9.6-51.7-8.1c-35.7,8.3-59.6,33.5-65.4,69.2c-3.4,20.5-0.4,43,8.5,63.3
				C27,187.2,41.9,204.6,60.7,216.2z M197,219.7L197,219.7L197,219.7z"/>
		</g>
	</g>
	<g>
		<g>
			<path class="st1" d="M100.8,209c-1.3,0-2.6-0.6-3.4-1.8C68.4,162.6,58.4,124,68,92.4c7.6-25,27.7-45.2,58.3-58.3
				c2-0.9,4.4,0.1,5.3,2.1c0.9,2-0.1,4.4-2.1,5.3c-28.3,12.2-47,30.6-53.8,53.3c-8.8,29.2,0.8,65.5,28.5,108
				c1.2,1.8,0.7,4.3-1.2,5.5C102.3,208.7,101.6,209,100.8,209z"/>
		</g>
	</g>
	<g>
		<g>
			<path class="st1" d="M123.1,39.8c-2,0-3.7-1.5-4-3.6c-1.5-13.3,3-24.1,13.4-32c1.8-1.3,4.3-1,5.6,0.8c1.3,1.8,1,4.3-0.8,5.6
				c-8.1,6.2-11.4,14.3-10.3,24.8c0.2,2.2-1.3,4.2-3.5,4.4C123.4,39.8,123.3,39.8,123.1,39.8z"/>
		</g>
	</g>
</g>
</svg>
