<?xml version="1.0" encoding="utf-8"?>
<!-- Generator: Adobe Illustrator 22.1.0, SVG Export Plug-In . SVG Version: 6.00 Build 0)  -->
<svg version="1.1" id="Layer_1" xmlns="http://www.w3.org/2000/svg" xmlns:xlink="http://www.w3.org/1999/xlink" x="0px" y="0px"
	 viewBox="0 0 256 256" style="enable-background:new 0 0 256 256;" xml:space="preserve">
<style type="text/css">
	.st0{fill:#F5B31F;}
	.st1{fill:#464646;}
	.st2{opacity:0.15;}
	.st3{fill:#AC6535;}
	.st4{fill:#EB573B;}
	.st5{fill:#90C056;}
	.st6{opacity:0.35;}
	.st7{fill:#FFFFFF;}
	.st8{opacity:0.2;}
	.st9{fill:#F6D67A;}
	.st10{opacity:0.3;}
	.st11{fill:#FFA755;}
	.st12{fill:#8FAE3C;}
	.st13{fill:#BE6BB2;}
	.st14{fill:#B7C536;}
	.st15{opacity:0.1;}
	.st16{fill:#9D5A96;}
	.st17{fill:#EA615D;}
	.st18{opacity:0.4;}
	.st19{fill:#F79932;}
	.st20{fill:#FFEC97;}
	.st21{fill:#FFD11D;}
	.st22{fill:#F7F2D5;}
	.st23{fill:#F6AF72;}
	.st24{fill:#BA6C45;}
	.st25{opacity:0.5;}
	.st26{fill:#E4C074;}
	.st27{fill:#656566;}
	.st28{fill:#FACD1F;}
	.st29{fill:#FFDF66;}
	.st30{fill:#6D6E71;}
	.st31{fill:#E77CAE;}
	.st32{fill:#FFE5C4;}
	.st33{fill:#F68455;}
	.st34{opacity:0.7;}
	.st35{fill:#ADEDFF;}
	.st36{fill:#EC754B;}
	.st37{fill:#4AA5BA;}
	.st38{opacity:0.8;}
	.st39{fill:#92A5AC;}
	.st40{fill:#D06E3C;}
	.st41{fill:#DA4F4B;}
	.st42{fill:#BDF3FF;}
	.st43{fill:#F18BB4;}
	.st44{fill:#F9D97A;}
	.st45{fill:none;}
	.st46{fill:#AF6535;}
	.st47{fill:#B93226;}
	.st48{fill:#FF6050;}
	.st49{fill:#EA7CB1;}
	.st50{fill:#00B0E0;}
	.st51{fill:#EA7DAE;}
	.st52{fill:#BC7532;}
	.st53{fill:#876C6C;}
	.st54{fill:#F9F6CD;}
	.st55{fill:#FFE37B;}
	.st56{fill:#1DDCFF;}
	.st57{fill:#60ACF7;}
	.st58{fill:#C3755A;}
	.st59{fill:#96557A;}
	.st60{fill:#66625D;}
	.st61{fill:#D68032;}
	.st62{fill:#F2A355;}
	.st63{fill:#7E9E6A;}
	.st64{fill:#965A85;}
	.st65{fill:#90CAD3;}
	.st66{fill:#94B57F;}
	.st67{fill:#B2E2E7;}
	.st68{fill:#FFDF8F;}
	.st69{fill:#FFFAEB;}
	.st70{fill:#F88916;}
	.st71{fill:#FFC86E;}
	.st72{fill:#AFA51D;}
	.st73{fill:#968A1C;}
	.st74{fill:#C3556D;}
</style>
<g>
	<g>
		<g>
			<path class="st7" d="M4,115c0.3,12,3.2,23.3,8,33.5C7,137,4.3,125.5,4,115z M165.2,138.5c-0.6,1.8-1.3,3.6-2,5.3
				c-0.1,0.1-0.1,0.3-0.2,0.4c-0.3,0.7-0.6,1.4-0.9,2.1c-0.3,0.6-0.5,1.1-0.8,1.7c-0.2,0.4-0.4,0.9-0.6,1.3
				c-0.4,0.9-0.9,1.7-1.3,2.5c-0.2,0.4-0.5,0.8-0.7,1.2c-0.5,0.8-1,1.6-1.5,2.5c-0.4,0.7-0.9,1.4-1.3,2.1c-0.1,0.1-0.1,0.2-0.2,0.3
				c0.1,0,0.1,0.1,0.2,0.1c4.2-6.4,7.5-13.4,9.8-20.8C165.5,137.6,165.3,138.1,165.2,138.5z"/>
		</g>
		<g>
			<path class="st1" d="M155.9,162c-0.6,0-1.2-0.1-1.8-0.4c-0.2-0.1-0.4-0.2-0.7-0.4c-1.8-1.3-2.3-3.8-1-5.6
				c0.1-0.1,0.1-0.2,0.2-0.3c0.4-0.6,0.8-1.3,1.2-1.9c0.5-0.8,1-1.6,1.4-2.4l0.7-1.2c0.4-0.8,0.8-1.6,1.2-2.4l0.6-1.3
				c0.2-0.5,0.5-1,0.7-1.5c0.3-0.7,0.6-1.3,0.8-1.9c0,0,0.1-0.2,0.1-0.2l0.1-0.2c0.7-1.7,1.3-3.4,1.9-5c0,0,0,0,0-0.1
				c0.1-0.4,0.3-0.9,0.4-1.3c0.7-2.1,2.9-3.3,5-2.6c2.1,0.7,3.3,2.9,2.6,5c-2.4,7.7-5.8,15.1-10.3,21.9
				C158.5,161.3,157.2,162,155.9,162z M12,152.5c-1.5,0-2.9-0.8-3.6-2.3c-5.3-11-8.1-22.9-8.4-35.1c-0.1-2.2,1.7-4,3.9-4.1
				c2.2-0.1,4,1.7,4.1,3.9c0.3,10.1,3,21.1,7.7,32c0.9,2,0,4.3-2,5.2C13.1,152.4,12.6,152.5,12,152.5z"/>
		</g>
	</g>
	<g>
		<g>
			<path class="st7" d="M100.2,157.9c-0.1,0-0.1,0.1-0.2,0.1c4,6.2,8.9,11.8,14.3,16.6C109,169.5,104.3,164,100.2,157.9z"/>
		</g>
		<g>
			<path class="st1" d="M114.3,178.6c-0.9,0-1.9-0.3-2.7-1c-5.8-5.1-10.8-11-15-17.4c-0.6-1-0.8-2.1-0.5-3.2c0.3-1,0.9-1.8,1.8-2.4
				c0,0,0,0,0,0c0.9-0.6,2-0.8,3-0.6c1,0.2,2,0.8,2.5,1.7c3.7,5.6,8.3,11,13.6,16.1c1.6,1.5,1.7,4,0.2,5.6
				C116.5,178.2,115.4,178.6,114.3,178.6z M98.2,154.4C98.2,154.4,98.2,154.4,98.2,154.4C98.2,154.4,98.2,154.4,98.2,154.4z"/>
		</g>
	</g>
	<g>
		<g>
			<path class="st0" d="M127.9,185.9c-17.2,12.4-36.9,21-53.4,26.6c-15,5.2-27.4,7.9-32.7,9.1c-19.1,4.1-33.7-28.4-12.5-33.9
				c2-0.5,4.7-1.3,7.7-2.2c16-3.5,29.9-8.7,41.6-15.6c0.7-0.3,1.3-0.6,2-0.9c0.7-0.3,1.3-0.6,1.9-1c0.7-0.3,1.3-0.6,1.9-1
				c0.8-0.4,1.6-0.8,2.4-1.2c0.8-0.4,1.6-0.8,2.4-1.3c1.6-0.9,3.3-1.8,4.9-2.8c0.5-0.3,1-0.6,1.5-0.9c0.7-0.4,1.4-0.8,2-1.3
				c0.8-0.5,1.6-1,2.4-1.5c4,6.2,8.9,11.8,14.3,16.6C118.6,178.7,123.1,182.4,127.9,185.9C127.9,185.9,127.9,185.9,127.9,185.9z"/>
		</g>
	</g>
	<g class="st10">
		<g>
			<path class="st7" d="M37,185.5c-3.1,0.9-5.7,1.6-7.7,2.2c-21.2,5.5-6.6,38,12.5,33.9c0,0-8.1-6.8-9.8-15.8S37,185.5,37,185.5z"/>
		</g>
	</g>
	<g>
		<g>
			<path class="st0" d="M169.3,112.9c0,0.7,0,1.4,0,2.1c0,0.7,0,1.4-0.1,2.1l0,0.1c0,0.7-0.1,1.4-0.1,2c-0.1,0.8-0.1,1.6-0.2,2.4
				c-0.2,1.8-0.4,3.6-0.7,5.3c-0.1,0.6-0.2,1.2-0.3,1.7c-0.1,0.4-0.2,0.9-0.3,1.3c-0.1,0.5-0.2,1-0.3,1.5c-0.2,0.7-0.3,1.3-0.5,2
				c-0.3,1.2-0.7,2.4-1,3.6c-0.1,0.5-0.3,0.9-0.5,1.4c-0.6,1.8-1.3,3.6-2,5.3c-0.1,0.1-0.1,0.3-0.2,0.4c-0.3,0.7-0.6,1.4-0.9,2.1
				c-0.3,0.6-0.5,1.1-0.8,1.7c-0.2,0.4-0.4,0.9-0.6,1.3c-0.4,0.9-0.9,1.7-1.3,2.5c-0.2,0.4-0.5,0.8-0.7,1.2c-0.5,0.8-1,1.6-1.5,2.5
				c-0.4,0.7-0.9,1.4-1.3,2.1c-0.1,0.1-0.1,0.2-0.2,0.3c-0.5-0.3-1-0.6-1.4-1c-0.5-0.3-0.9-0.6-1.4-1c-0.5-0.4-1-0.7-1.6-1.1
				c-1.2-0.9-2.4-1.8-3.5-2.7c-0.7-0.5-1.3-1-1.9-1.5c-0.4-0.4-0.9-0.7-1.3-1.1c-1.6-1.3-3.1-2.7-4.5-4.1c-0.9-0.9-1.7-1.7-2.5-2.6
				c-0.1-0.1-0.2-0.2-0.3-0.4c-0.4-0.4-0.8-0.9-1.1-1.3c0,0-0.1-0.1-0.1-0.1c-0.3-0.4-0.7-0.8-1-1.2c-0.5-0.6-0.9-1.2-1.4-1.7
				c-0.4-0.5-0.7-1-1.1-1.5c0-0.1-0.1-0.1-0.1-0.2c-0.3-0.5-0.7-1-1-1.5c-0.6-0.9-1.2-1.9-1.7-2.8c-0.2-0.3-0.3-0.6-0.5-0.9
				c-0.2-0.4-0.4-0.8-0.6-1.2c-0.2-0.5-0.5-1-0.7-1.4c0,0,0-0.1,0-0.1c0.1-0.3,0.3-0.6,0.4-0.9c0.1-0.3,0.2-0.5,0.3-0.8
				c0.3-0.6,0.5-1.2,0.7-1.9c0.1-0.3,0.2-0.5,0.3-0.8c0.4-1.2,0.7-2.3,1-3.5c0.1-0.4,0.2-0.7,0.2-1.1c0,0,0-0.1,0-0.1
				c0.1-0.4,0.2-0.9,0.2-1.4c0.1-0.5,0.1-1,0.2-1.6c0.1-0.4,0.1-0.8,0.1-1.2c0-0.5,0.1-0.9,0.1-1.4c0-0.4,0-0.8,0-1.2
				c0-1.3-0.1-2.5-0.2-3.8c0-0.3,0-0.5-0.1-0.8c0-0.5-0.1-1-0.2-1.4c-0.1-0.6-0.2-1.2-0.3-1.8c-0.6-3.3-1.5-6.4-2.8-9.4
				c-0.4-0.8-0.7-1.6-1.1-2.4c-0.2-0.3-0.3-0.7-0.5-1c-0.2-0.4-0.4-0.7-0.6-1.1c-0.2-0.3-0.3-0.6-0.5-0.9c-0.7-1.2-1.4-2.3-2.2-3.3
				c-0.2-0.3-0.5-0.7-0.7-1c-2.3-3-5-5.8-8-8.1c-0.5-0.4-1.1-0.8-1.6-1.2c-0.6-0.4-1.2-0.9-1.9-1.3c-0.3-0.2-0.5-0.4-0.8-0.5
				c-0.2-0.1-0.5-0.3-0.7-0.4c-0.4-0.2-0.7-0.4-1.1-0.6c-2.9-1.6-6.1-2.9-9.4-3.8c-1-0.3-1.9-0.5-2.9-0.7c-0.4-0.1-0.7-0.1-1.1-0.2
				c-0.2,0-0.5-0.1-0.7-0.1c-0.4-0.1-0.7-0.1-1.1-0.2c-0.3,0-0.5-0.1-0.8-0.1c-0.5-0.1-1.1-0.1-1.6-0.2c-0.3,0-0.5,0-0.8-0.1
				c-1-0.1-2.1-0.1-3.1-0.1c-24.7,0-44.8,20-44.8,44.7c0,0.4,0,0.8,0,1.2c0.4,19.8,10.1,43,36.8,55.8C66.9,176.8,53,182,37,185.5
				c-11-11.4-19.4-24.2-25-37c-5-11.5-7.7-23-8-33.5c0-0.7,0-1.4,0-2.1c0-45.6,37-82.6,82.7-82.6c15.1,0,29.2,4,41.3,11.1
				c11.9,6.9,22,16.7,29.2,28.4C164.8,82.4,169.3,97.1,169.3,112.9z"/>
		</g>
	</g>
	<g class="st10">
		<g>
			<path class="st7" d="M86.6,30.3c-45.7,0-82.7,37-82.7,82.6c0,0.7,0,1.4,0,2.1c0.3,10.5,3,22,8,33.5c5.6,12.8,14,25.6,25,37
				c0,0-27.4-38.5-14.7-91.8S86.6,30.3,86.6,30.3z"/>
		</g>
	</g>
	<g class="st8">
		<g>
			<path class="st1" d="M128.7,130.1l4.9-8.5c10,10.5,17.4,20.1,26,24.2l-2.9,10.6L128.7,130.1z"/>
		</g>
	</g>
	<g>
		<g>
			<path class="st7" d="M169.2,115c0,0.7,0,1.4-0.1,2.1"/>
		</g>
		<g>
			<path class="st1" d="M169.2,121.1c-0.1,0-0.2,0-0.2,0c-2.2-0.1-3.9-2-3.8-4.2c0-0.6,0.1-1.3,0.1-1.9c0-2.2,1.8-3.9,4-3.9
				c0,0,0,0,0.1,0c2.2,0,4,1.9,3.9,4.1c0,0.8,0,1.5-0.1,2.3C173,119.5,171.3,121.1,169.2,121.1z"/>
		</g>
	</g>
	<g>
		<g>
			<path class="st7" d="M169.2,117.2c0,0.7-0.1,1.4-0.1,2"/>
		</g>
		<g>
			<path class="st1" d="M169,123.3c-0.1,0-0.2,0-0.4,0c-2.2-0.2-3.8-2.2-3.6-4.4c0.1-0.6,0.1-1.2,0.1-1.9c0.1-2.2,2-3.9,4.2-3.8
				c2.2,0.1,3.9,2,3.8,4.2c0,0.7-0.1,1.5-0.2,2.2C172.8,121.7,171.1,123.3,169,123.3z"/>
		</g>
	</g>
	<g>
		<g>
			<path class="st7" d="M168.8,121.7c-0.2,1.8-0.4,3.6-0.7,5.3"/>
		</g>
		<g>
			<path class="st1" d="M168.1,131c-0.2,0-0.5,0-0.7-0.1c-2.2-0.4-3.6-2.5-3.2-4.6c0.3-1.6,0.5-3.3,0.7-5c0.2-2.2,2.2-3.8,4.4-3.6
				c2.2,0.2,3.8,2.2,3.6,4.4c-0.2,1.9-0.5,3.8-0.8,5.6C171.7,129.6,170,131,168.1,131z"/>
		</g>
	</g>
	<g>
		<g>
			<path class="st7" d="M167.2,131.5c-0.1,0.7-0.3,1.3-0.5,2"/>
		</g>
		<g>
			<path class="st1" d="M166.7,137.5c-0.3,0-0.7,0-1.1-0.1c-2.1-0.6-3.4-2.8-2.8-4.9c0.2-0.6,0.3-1.2,0.4-1.8c0.5-2.2,2.6-3.5,4.8-3
				c2.2,0.5,3.5,2.6,3,4.8c-0.2,0.7-0.3,1.5-0.5,2.2C170,136.4,168.4,137.5,166.7,137.5z"/>
		</g>
	</g>
	<g>
		<g>
			<path class="st0" d="M181.3,212.5c-15.5,7.4-33.3,12.2-53.4,13.2l0,0c-20.1-1-37.9-5.8-53.4-13.2c16.5-5.7,36.2-14.2,53.4-26.6
				C145.1,198.3,164.8,206.8,181.3,212.5z"/>
		</g>
	</g>
	<g class="st8">
		<g>
			<path class="st1" d="M136,191.3c-2.7-1.7-5.4-3.6-8.1-5.5c-17.2,12.4-36.9,21-53.4,26.6c4.7,2.2,9.6,4.2,14.7,6
				C107.4,210.4,123,201.4,136,191.3z"/>
		</g>
	</g>
	<g>
		<g>
			<path class="st7" d="M243.9,148.5c4.9-10.2,7.7-21.5,8-33.5C251.6,125.6,248.9,137,243.9,148.5z M100.2,157.9
				c-0.1-0.1-0.1-0.2-0.2-0.3c-0.4-0.7-0.9-1.4-1.3-2.1c-0.5-0.8-1-1.6-1.5-2.5c-0.2-0.4-0.5-0.8-0.7-1.2c-0.5-0.8-0.9-1.7-1.3-2.5
				c-0.2-0.4-0.4-0.9-0.6-1.3c-0.3-0.5-0.5-1.1-0.8-1.7c-0.3-0.7-0.6-1.4-0.9-2.1c-0.1-0.1-0.1-0.2-0.2-0.4c-0.7-1.7-1.4-3.5-2-5.3
				c-0.2-0.5-0.3-0.9-0.5-1.4c2.3,7.5,5.6,14.5,9.8,20.8c4,6.2,8.9,11.8,14.3,16.6C109,169.5,104.3,164,100.2,157.9z"/>
		</g>
		<g>
			<path class="st1" d="M114.3,178.6c-0.9,0-1.9-0.3-2.7-1c-5.8-5.1-10.8-11-15-17.4c-4.4-6.8-7.9-14.1-10.3-21.9
				c-0.6-2.1,0.5-4.3,2.6-5c2.1-0.7,4.3,0.5,5,2.6c0.1,0.4,0.3,0.9,0.4,1.3c0.6,1.7,1.2,3.4,1.9,5.1l0.1,0.3
				c0.3,0.7,0.6,1.4,0.9,2.1c0.3,0.6,0.5,1.1,0.7,1.6l0.6,1.3c0.4,0.8,0.8,1.6,1.3,2.4l0.7,1.2c0.4,0.8,0.9,1.5,1.4,2.3
				c0.4,0.7,0.8,1.3,1.2,1.9c0,0.1,0.1,0.1,0.1,0.2c0,0,0.1,0.1,0.1,0.1c3.7,5.6,8.3,11,13.6,16.1c1.6,1.5,1.7,4,0.2,5.6
				C116.5,178.2,115.4,178.6,114.3,178.6z M243.9,152.5c-0.6,0-1.1-0.1-1.7-0.4c-2-0.9-2.9-3.2-2-5.2c4.7-10.9,7.4-22,7.7-32
				c0.1-2.2,1.9-3.9,4.1-3.9c2.2,0.1,3.9,1.9,3.9,4.1c-0.3,12.3-3.1,24.1-8.4,35.1C246.8,151.7,245.4,152.5,243.9,152.5z"/>
		</g>
	</g>
	<g>
		<g>
			<path class="st0" d="M251.9,112.9c0,0.7,0,1.4,0,2.1c-0.3,10.5-3.1,22-8,33.5c-5.6,12.8-14,25.6-25,37
				c-16-3.5-29.9-8.7-41.6-15.6c26.7-12.8,36.4-36,36.8-55.8c0-0.4,0-0.8,0-1.2c0-24.7-20.1-44.7-44.8-44.7c-1,0-2.1,0-3.1,0.1
				c-0.3,0-0.5,0-0.8,0.1c-0.5,0-1.1,0.1-1.6,0.2c-0.3,0-0.5,0.1-0.8,0.1c-0.4,0.1-0.7,0.1-1.1,0.2c-0.2,0-0.5,0.1-0.7,0.1
				c-0.4,0.1-0.7,0.1-1.1,0.2c-1,0.2-2,0.4-2.9,0.7c-7.2-11.7-17.2-21.5-29.2-28.4c12.2-7,26.3-11.1,41.3-11.1
				C214.9,30.3,251.9,67.3,251.9,112.9z"/>
		</g>
	</g>
	<g class="st8">
		<g>
			<path class="st1" d="M133.1,41l8.5-2.5c10.1,7.4,17.7,16.9,24,27.4l-7.1,2.3L133.1,41z"/>
		</g>
	</g>
	<g class="st8">
		<g>
			<path class="st1" d="M181.3,169.2l8.6-4.8c8.5,5.7,21.7,9.2,37.8,11.4l-7.7,10.1L181.3,169.2z"/>
		</g>
	</g>
	<g>
		<g>
			<path class="st0" d="M214.1,221.6c-5.4-1.2-17.7-3.9-32.7-9.1c-16.5-5.7-36.2-14.2-53.4-26.6c0,0,0,0,0,0
				c-4.8-3.5-9.3-7.2-13.6-11.3c-5.3-5.1-10.1-10.6-14.1-16.7c-0.1-0.1-0.1-0.2-0.2-0.3c-0.4-0.7-0.9-1.4-1.3-2.1
				c-0.5-0.8-1-1.6-1.5-2.5c-0.2-0.4-0.5-0.8-0.7-1.2c-0.5-0.8-0.9-1.7-1.3-2.5c-0.2-0.4-0.4-0.9-0.6-1.3c-0.3-0.5-0.5-1.1-0.8-1.7
				c-0.3-0.7-0.6-1.4-0.9-2.1c-0.1-0.1-0.1-0.2-0.2-0.4c-0.7-1.7-1.4-3.5-2-5.3c-0.2-0.5-0.3-0.9-0.5-1.4c-0.4-1.2-0.7-2.4-1-3.6
				c-0.2-0.7-0.3-1.3-0.5-2c-0.1-0.5-0.2-1-0.3-1.5c-0.1-0.4-0.2-0.9-0.3-1.3c-0.1-0.6-0.2-1.2-0.3-1.7c-0.3-1.7-0.5-3.5-0.7-5.3
				c-0.1-0.8-0.1-1.6-0.2-2.4c-0.1-0.7-0.1-1.4-0.1-2l0-0.1c0-0.7-0.1-1.4-0.1-2.1c0-0.7,0-1.4,0-2.1c0-15.8,4.4-30.5,12.1-43.1
				c3.3,0.9,6.5,2.2,9.4,3.8c0.4,0.2,0.7,0.4,1.1,0.6c0.2,0.1,0.5,0.3,0.7,0.4c0.3,0.2,0.6,0.3,0.8,0.5c0.6,0.4,1.3,0.8,1.9,1.3
				c0.6,0.4,1.1,0.8,1.6,1.2c3,2.4,5.7,5.1,8,8.1c0.3,0.3,0.5,0.7,0.7,1c0.8,1.1,1.5,2.2,2.2,3.3c0.2,0.3,0.3,0.6,0.5,0.9
				c0.2,0.4,0.4,0.7,0.6,1.1c0.2,0.3,0.3,0.7,0.5,1c0.4,0.8,0.8,1.6,1.1,2.4c-1.3,3-2.2,6.1-2.8,9.4c-0.1,0.6-0.2,1.2-0.3,1.8
				c-0.1,0.5-0.1,1-0.2,1.4c0,0.3-0.1,0.5-0.1,0.8c-0.1,1.2-0.2,2.5-0.2,3.8c0,0.4,0,0.8,0,1.2c0,0.5,0,0.9,0.1,1.4
				c0,0.4,0.1,0.8,0.1,1.2c0,0.5,0.1,1.1,0.2,1.6c0.1,0.5,0.1,0.9,0.2,1.4c0,0,0,0.1,0,0.1c0.1,0.4,0.1,0.7,0.2,1.1
				c0.3,1.2,0.6,2.4,1,3.5c0.1,0.3,0.2,0.5,0.3,0.8c0.2,0.6,0.4,1.2,0.7,1.9c0.1,0.3,0.2,0.5,0.3,0.8c0.1,0.3,0.2,0.6,0.4,0.9
				c0,0,0,0.1,0,0.1c0.2,0.5,0.4,1,0.7,1.4c0.2,0.4,0.4,0.8,0.6,1.2c0.1,0.3,0.3,0.6,0.5,0.9c0.5,0.9,1.1,1.9,1.7,2.8
				c0.3,0.5,0.7,1,1,1.5c0,0.1,0.1,0.1,0.1,0.2c0.3,0.5,0.7,1,1.1,1.5c0.4,0.6,0.9,1.2,1.4,1.7c0.3,0.4,0.6,0.8,1,1.2
				c0,0,0.1,0.1,0.1,0.1c0.4,0.4,0.7,0.9,1.1,1.3c0.1,0.1,0.2,0.3,0.3,0.4c0.8,0.9,1.7,1.8,2.5,2.6c1.4,1.4,2.9,2.8,4.5,4.1
				c0.4,0.4,0.8,0.7,1.3,1.1c0.6,0.5,1.3,1,1.9,1.5c1.2,0.9,2.3,1.8,3.5,2.7c0.5,0.4,1,0.7,1.6,1.1c0.5,0.3,0.9,0.6,1.4,1
				c0.5,0.3,0.9,0.6,1.4,1c0.1,0,0.1,0.1,0.2,0.1c0.8,0.5,1.6,1,2.4,1.5c0.7,0.4,1.4,0.9,2,1.3c0.5,0.3,1,0.6,1.5,0.9
				c1.6,1,3.2,1.9,4.9,2.8c0.8,0.4,1.6,0.9,2.4,1.3c0.8,0.4,1.6,0.8,2.4,1.2c0.6,0.3,1.3,0.7,1.9,1c0.6,0.3,1.3,0.6,1.9,1
				c0.7,0.3,1.3,0.6,2,0.9c11.7,6.9,25.6,12.1,41.6,15.6c3.1,0.9,5.7,1.6,7.7,2.2C247.8,193.2,233.2,225.7,214.1,221.6z"/>
		</g>
	</g>
	<g class="st10">
		<g>
			<path class="st7" d="M102.4,73.7c-21.6,27.4-16.9,59.8,7.2,96.1C95.9,134.5,91.7,102,102.4,73.7z"/>
		</g>
	</g>
	<g>
		<g>
			<path class="st1" d="M38.5,225.9c-4.8,0-9.5-1.8-13.6-5.1c-4.6-3.8-8-9.2-9.4-14.9c-2.5-10.7,2.5-19.4,12.8-22.1
				c2.6-0.7,5.1-1.4,7.6-2.1c0.1,0,0.2,0,0.3-0.1c15.6-3.4,29.2-8.5,40.4-15.2c0.1-0.1,0.2-0.1,0.3-0.2c0.6-0.3,1.3-0.6,1.9-0.9
				c0.7-0.3,1.3-0.6,1.9-0.9c0.7-0.3,1.3-0.7,1.9-1c0.8-0.4,1.6-0.8,2.3-1.2c0.8-0.4,1.6-0.8,2.3-1.3c1.7-0.9,3.2-1.8,4.7-2.7
				c0.6-0.3,1-0.6,1.5-0.9c0.7-0.4,1.4-0.8,2-1.3c0.8-0.5,1.5-1,2.3-1.5c0.9-0.6,2-0.8,3-0.6c1,0.2,2,0.8,2.5,1.7
				c3.8,5.8,8.4,11.1,13.6,15.8c0,0,0.1,0.1,0.1,0.1c3.9,3.7,8.3,7.4,13,10.8c0.7,0.5,1.3,1.2,1.6,2.1c0.5,1.7-0.1,3.5-1.5,4.5
				c-14.8,10.7-33.1,19.9-54.5,27.2c-10.7,3.7-21.9,6.8-33.2,9.2C41.3,225.8,39.9,225.9,38.5,225.9z M38,189.4
				c-2.5,0.7-5.1,1.4-7.7,2.1c-8.2,2.1-7.9,8.7-7,12.5c2.4,9.9,11,15.1,17.7,13.6c11-2.4,21.8-5.4,32.3-9c18.5-6.3,34.5-14,47.9-23
				c-3.4-2.7-6.6-5.4-9.5-8.2c-4.8-4.2-9-9-12.7-14.1c-0.4,0.3-0.8,0.5-1.2,0.8c-0.5,0.3-1.1,0.6-1.6,1c-1.5,0.9-3.1,1.8-4.9,2.8
				c-0.8,0.4-1.6,0.9-2.5,1.3c-0.8,0.4-1.6,0.8-2.4,1.3c-0.6,0.3-1.3,0.7-2,1c-0.6,0.3-1.3,0.7-2,1c-0.6,0.3-1.2,0.6-1.8,0.9
				C68.5,180.4,54.2,185.8,38,189.4z"/>
		</g>
	</g>
	<g>
		<g>
			<path class="st1" d="M37,189.5c-1.1,0-2.1-0.4-2.9-1.2C23.2,177,14.3,163.8,8.3,150.1c-5.1-11.8-8-23.9-8.4-35c0-0.8,0-1.5,0-2.3
				c0-47.7,38.9-86.6,86.7-86.6c0,0,0,0,0,0c15.3,0,30.2,4,43.3,11.6c12.5,7.2,23.1,17.5,30.6,29.8c8.3,13.6,12.7,29.2,12.7,45.2v0
				c0,0.8,0,1.5,0,2.3c0,0.7,0,1.4-0.1,2.1c0,0.1,0,0.2,0,0.2c0,0.7-0.1,1.4-0.1,2.1c-0.1,0.9-0.1,1.7-0.2,2.5
				c-0.2,1.9-0.5,3.7-0.8,5.6c-0.1,0.6-0.2,1.2-0.3,1.9c-0.1,0.4-0.2,0.9-0.3,1.3c-0.1,0.5-0.2,1.1-0.4,1.6
				c-0.2,0.7-0.3,1.4-0.5,2.1c-0.3,1.1-0.6,2.3-1.1,3.8c-0.2,0.5-0.3,1.1-0.5,1.5c-0.6,1.8-1.3,3.6-2.1,5.5
				c-0.1,0.2-0.1,0.3-0.2,0.5c-0.3,0.8-0.6,1.5-0.9,2.2c-0.3,0.6-0.5,1.2-0.8,1.7l-0.7,1.3c-0.5,0.9-0.9,1.8-1.4,2.7l-0.7,1.3
				c-0.5,0.9-1,1.7-1.5,2.6c-0.4,0.7-0.9,1.4-1.4,2.2c0,0,0,0.1-0.1,0.1c-0.1,0.1-0.2,0.2-0.2,0.3c-1.2,1.8-3.7,2.2-5.5,1.1
				c-0.5-0.3-1.1-0.7-1.6-1l-0.2-0.1c-0.4-0.3-0.8-0.6-1.2-0.9c-0.4-0.3-0.8-0.6-1.2-0.9l-0.3-0.2c-1.4-1-2.6-1.9-3.7-2.8
				c-0.7-0.5-1.3-1.1-2-1.6c-0.4-0.3-0.9-0.7-1.4-1.1c-1.7-1.4-3.2-2.9-4.7-4.3c-0.9-0.9-1.8-1.8-2.6-2.7c-0.1-0.1-0.3-0.3-0.4-0.5
				c-0.4-0.4-0.7-0.8-1.1-1.2c-0.1-0.1-0.2-0.2-0.2-0.3c-0.3-0.4-0.7-0.8-1-1.2c-0.5-0.6-1-1.2-1.5-1.9c-0.4-0.5-0.7-1-1.1-1.5
				c-0.1-0.1-0.1-0.2-0.2-0.3c-0.4-0.5-0.7-1-1-1.5c-0.6-1-1.3-2-1.9-3c-0.2-0.3-0.4-0.7-0.6-1l-0.1-0.2c-0.2-0.3-0.4-0.7-0.5-1
				c-0.2-0.5-0.5-1-0.7-1.5c-0.1-0.3-0.2-0.5-0.3-0.6c-0.3-0.9-0.3-2,0.1-2.9c0.1-0.2,0.2-0.5,0.3-0.7c0-0.1,0-0.1,0.1-0.2
				c0.1-0.2,0.1-0.3,0.2-0.5c0,0,0-0.1,0.1-0.1c0.2-0.5,0.4-1.1,0.6-1.6c0.1-0.3,0.2-0.5,0.2-0.7c0.3-1,0.6-2.1,0.9-3.2l0.1-0.3
				c0-0.2,0.1-0.4,0.1-0.7c0,0,0,0,0,0c0,0,0-0.1,0-0.1c0.1-0.4,0.1-0.8,0.2-1.2c0.1-0.5,0.1-0.9,0.2-1.3c0-0.1,0-0.1,0-0.2
				c0-0.3,0.1-0.6,0.1-0.9c0-0.5,0.1-0.9,0.1-1.3l0-1.1c0-1.1,0-2.3-0.1-3.4c0-0.3,0-0.5-0.1-0.7c0,0,0-0.1,0-0.1
				c0-0.4-0.1-0.8-0.2-1.3c-0.1-0.6-0.2-1.1-0.3-1.6c-0.5-3-1.4-5.9-2.5-8.6c-0.4-0.8-0.7-1.6-1-2.2l-0.1-0.3
				c-0.1-0.2-0.2-0.4-0.3-0.6c0,0,0-0.1,0-0.1c-0.2-0.3-0.4-0.7-0.5-1c-0.2-0.3-0.3-0.6-0.5-0.9c-0.6-1-1.3-2-2-3
				c-0.2-0.3-0.4-0.6-0.7-0.9c-2.1-2.8-4.6-5.3-7.3-7.4c-0.5-0.4-1-0.7-1.5-1.1c-0.6-0.4-1.1-0.8-1.7-1.2c0,0-0.1,0-0.1-0.1
				c-0.2-0.1-0.4-0.2-0.6-0.4c-0.1,0-0.1-0.1-0.2-0.1c-0.2-0.1-0.4-0.2-0.5-0.3c-0.4-0.2-0.7-0.4-1-0.6c-2.7-1.5-5.6-2.7-8.6-3.5
				c-1-0.3-1.8-0.5-2.7-0.6c0,0-0.1,0-0.1,0c-0.3-0.1-0.5-0.1-0.8-0.2c0,0-0.1,0-0.1,0l-0.7-0.1c-0.3-0.1-0.6-0.1-0.9-0.1l-0.8-0.1
				c-0.5-0.1-1-0.1-1.5-0.2l-0.8-0.1c-0.9-0.1-1.8-0.1-2.8-0.1c-22.5,0-40.8,18.3-40.8,40.7c0,0.3,0,0.7,0,1
				c0.2,10.9,4,37.7,34.5,52.3c1.3,0.6,2.2,2,2.3,3.4c0.1,1.5-0.7,2.9-2,3.6c-12,7.1-26.4,12.5-42.8,16.1
				C37.6,189.5,37.3,189.5,37,189.5z M86.6,34.3c-43.4,0-78.7,35.2-78.7,78.6c0,0.7,0,1.3,0,2c0.3,10.1,3,21.1,7.7,32
				c5.3,12.2,13.1,24,22.7,34.2c11.8-2.8,22.5-6.5,31.9-11.2c-28.5-17.1-32.2-44.3-32.4-55.8c0-0.4,0-0.8,0-1.2
				c0-26.9,21.9-48.7,48.8-48.7c0,0,0,0,0,0c1.2,0,2.3,0,3.4,0.1l0.8,0.1c0.6,0,1.2,0.1,1.8,0.2l0.9,0.1c0.4,0.1,0.7,0.1,1.1,0.2
				l0.7,0.1l-0.6,4l0.7-3.9c0.4,0.1,0.8,0.1,1.2,0.2c1,0.2,2,0.5,3.2,0.8c3.6,1,7,2.4,10.3,4.2c0.4,0.2,0.7,0.4,1.1,0.6
				c0.3,0.1,0.5,0.3,0.8,0.5c0.3,0.2,0.6,0.4,0.9,0.6c0.7,0.4,1.4,0.9,2,1.4c0.6,0.4,1.2,0.8,1.7,1.3c3.3,2.6,6.2,5.6,8.7,8.9
				c0.3,0.3,0.5,0.7,0.8,1.1c0.8,1.1,1.6,2.4,2.4,3.6c0.2,0.4,0.4,0.7,0.6,1c0.2,0.4,0.4,0.8,0.6,1.2c0.1,0.3,0.3,0.5,0.4,0.8
				l0.1,0.3c0.4,0.9,0.8,1.7,1.2,2.7c1.4,3.3,2.4,6.8,3,10.3c0.1,0.6,0.2,1.3,0.3,2.1c0.1,0.5,0.1,1,0.2,1.5c0,0.3,0.1,0.6,0.1,0.9
				c0.1,1.3,0.2,2.7,0.2,4.1l0,1.2c0,0.6,0,1.2-0.1,1.7c0,0.4-0.1,0.9-0.1,1.3c0,0.6-0.1,1.1-0.2,1.7c-0.1,0.5-0.1,0.9-0.2,1.4
				c0,0.1,0,0.2-0.1,0.3c-0.1,0.3-0.1,0.6-0.2,0.8l-0.1,0.3c-0.3,1.4-0.7,2.7-1.1,3.9c-0.1,0.3-0.2,0.6-0.3,0.9
				c-0.2,0.7-0.5,1.3-0.7,2c0,0,0,0.1,0,0.1c0.1,0.2,0.2,0.5,0.4,0.7l0.1,0.3c0.1,0.3,0.3,0.5,0.4,0.7c0.5,1,1.1,1.8,1.6,2.7
				c0.3,0.5,0.6,0.9,0.9,1.3c0,0,0.1,0.1,0.1,0.1c0,0,0,0.1,0.1,0.1c0.3,0.4,0.6,0.9,1,1.3c0.4,0.6,0.8,1.1,1.3,1.6
				c0.3,0.4,0.6,0.8,0.9,1.1c0,0.1,0.1,0.1,0.1,0.2c0.3,0.4,0.6,0.8,1,1.1c0.1,0.1,0.1,0.1,0.2,0.2l0.1,0.1c0,0,0.1,0.1,0.1,0.1
				c0.8,0.8,1.6,1.7,2.4,2.5c1.3,1.3,2.7,2.6,4.3,3.9c0.4,0.4,0.8,0.7,1.2,1c0.6,0.5,1.3,1,1.9,1.5c1,0.8,2.2,1.7,3.4,2.6l0.3,0.2
				c0.2,0.1,0.4,0.3,0.6,0.4c0.2-0.4,0.5-0.8,0.7-1.2l0.7-1.2c0.4-0.8,0.8-1.6,1.3-2.4l0.6-1.2c0.2-0.5,0.5-1,0.7-1.5
				c0.3-0.7,0.6-1.3,0.8-1.9c0,0,0.1-0.2,0.1-0.2l0.1-0.2c0.7-1.7,1.3-3.4,1.9-5c0.2-0.5,0.3-0.9,0.4-1.4c0.4-1.3,0.7-2.4,1-3.4
				c0.2-0.6,0.3-1.3,0.5-1.9c0.1-0.4,0.2-0.9,0.3-1.3c0,0,0-0.1,0-0.1c0.1-0.4,0.2-0.8,0.2-1.2c0.1-0.6,0.2-1.1,0.3-1.6
				c0.3-1.7,0.5-3.4,0.7-5.1c0.1-0.8,0.1-1.5,0.2-2.3c0-0.6,0.1-1.2,0.1-1.9c0,0,0-0.1,0-0.1c0-0.7,0.1-1.3,0.1-2c0-0.7,0-1.4,0-2.1
				l0,0c0-14.5-4-28.7-11.5-41c-6.8-11.2-16.5-20.5-27.8-27.1C114.1,38,100.5,34.3,86.6,34.3z M139.1,138.5c0,0,0.1,0.1,0.1,0.1
				C139.2,138.6,139.1,138.6,139.1,138.5z M131.3,126.5C131.3,126.5,131.3,126.5,131.3,126.5C131.3,126.5,131.3,126.5,131.3,126.5z
				 M131.3,126.5C131.3,126.5,131.3,126.5,131.3,126.5C131.3,126.5,131.3,126.5,131.3,126.5z M126.8,119.6
				C126.8,119.6,126.8,119.6,126.8,119.6C126.8,119.6,126.8,119.6,126.8,119.6z M126.8,119.6L126.8,119.6L126.8,119.6z M169.2,117.2
				L169.2,117.2L169.2,117.2z"/>
		</g>
	</g>
	<g>
		<g>
			<path class="st1" d="M128,229.7c-0.1,0-0.2,0-0.2,0c-19.6-0.9-38.1-5.5-54.9-13.6c-1.5-0.7-2.4-2.2-2.3-3.8
				c0.1-1.6,1.2-3,2.7-3.6c20.6-7,38.2-15.8,52.4-26.1c1.4-1,3.3-1,4.7,0c14.2,10.3,31.8,19,52.4,26.1c1.5,0.5,2.6,1.9,2.7,3.6
				c0.1,1.6-0.8,3.1-2.3,3.8c-16.8,8.1-35.3,12.6-54.9,13.6C128.1,229.7,128,229.7,128,229.7z M85.4,212.8
				c13.3,5.1,27.6,8.1,42.6,8.8c15-0.7,29.3-3.7,42.6-8.8c-16.2-6.3-30.5-13.6-42.6-22C115.9,199.2,101.6,206.6,85.4,212.8z"/>
		</g>
	</g>
	<g>
		<g>
			<path class="st1" d="M218.9,189.5c-0.3,0-0.6,0-0.9-0.1c-16.4-3.6-30.8-9-42.8-16.1c-1.3-0.8-2-2.1-2-3.6
				c0.1-1.5,0.9-2.8,2.3-3.4c30.6-14.6,34.3-41.4,34.5-52.3c0-0.4,0-0.7,0-1.1c0-10.9-4.2-21.1-11.9-28.8
				c-7.7-7.7-18-11.9-28.9-11.9c0,0,0,0,0,0c-1,0-1.9,0-2.8,0.1l-0.8,0.1c-0.5,0-0.9,0.1-1.4,0.1l-0.8,0.1c-0.3,0-0.6,0.1-0.9,0.1
				l-0.7,0.1c0,0-0.1,0-0.1,0c-0.3,0-0.5,0.1-0.8,0.2c0,0-0.1,0-0.1,0c-0.8,0.2-1.7,0.4-2.7,0.6c-1.7,0.5-3.5-0.2-4.5-1.8
				c-6.8-11.2-16.4-20.5-27.8-27.1c-1.2-0.7-2-2-2-3.5s0.8-2.7,2-3.5c13.1-7.6,28.1-11.6,43.3-11.6c0,0,0,0,0,0
				c23.1,0,44.9,9,61.3,25.4c16.4,16.4,25.4,38.1,25.4,61.2l0,0l0,0l0,0c0,0.7,0,1.5,0,2.3c-0.3,11.1-3.2,23.2-8.4,35
				c-6,13.7-14.9,26.9-25.8,38.2C221,189.1,219.9,189.5,218.9,189.5z M185.7,169.9c9.3,4.7,20,8.4,31.9,11.2
				c9.5-10.2,17.4-22,22.7-34.2c4.7-10.9,7.4-22,7.7-32c0-0.7,0-1.3,0-2c0,0,0,0,0,0c0-21-8.2-40.7-23-55.5
				c-14.9-14.8-34.6-23-55.6-23c0,0,0,0,0,0c-11.6,0-23,2.5-33.3,7.4C145,48,152.9,56,159,65.3c0.1,0,0.2,0,0.2-0.1
				c0.4-0.1,0.8-0.2,1.2-0.2l0.8-0.1c0.3-0.1,0.7-0.1,1.1-0.2l1-0.1c0.6-0.1,1.2-0.1,1.8-0.2l0.8-0.1c1.1-0.1,2.2-0.1,3.4-0.1
				c13,0,25.3,5.1,34.5,14.3c9.2,9.2,14.3,21.4,14.3,34.5c0,0.4,0,0.8,0,1.3C217.9,125.6,214.1,152.9,185.7,169.9z"/>
		</g>
	</g>
	<g>
		<g>
			<path class="st1" d="M217.4,225.9c-1.4,0-2.8-0.1-4.1-0.4c0,0,0,0,0,0c-11.3-2.4-22.5-5.5-33.2-9.2
				c-21.2-7.3-39.5-16.4-54.3-27.1c0,0-0.1-0.1-0.1-0.1c-5.1-3.7-9.8-7.6-14-11.6c-5.7-5.5-10.7-11.3-14.7-17.4c0,0-0.1-0.1-0.1-0.2
				c0,0-0.1-0.1-0.1-0.1c-0.5-0.7-0.9-1.5-1.4-2.2c-0.5-0.8-1-1.7-1.5-2.5l-0.7-1.3c-0.5-0.9-1-1.8-1.4-2.7l-0.7-1.3
				c-0.3-0.6-0.6-1.2-0.8-1.8c-0.3-0.7-0.6-1.4-1-2.2c0-0.1-0.1-0.2-0.2-0.4c-0.8-1.9-1.5-3.7-2.1-5.5c-0.2-0.4-0.3-0.9-0.5-1.4
				c-0.5-1.5-0.8-2.7-1.1-3.8c-0.2-0.7-0.3-1.4-0.5-2.1c-0.1-0.6-0.3-1.1-0.4-1.6c-0.1-0.5-0.2-0.9-0.3-1.4
				c-0.1-0.6-0.2-1.2-0.3-1.8c-0.3-1.8-0.6-3.7-0.8-5.5c-0.1-0.8-0.2-1.6-0.2-2.4c0,0,0-0.1,0-0.1c-0.1-0.7-0.1-1.4-0.1-2.1
				c0-0.1,0-0.2,0-0.2c0-0.7-0.1-1.4-0.1-2.1c0-0.7,0-1.4,0-2.2c0-16,4.4-31.6,12.7-45.2c0.9-1.5,2.8-2.2,4.5-1.8
				c3.5,1,7,2.4,10.2,4.2c0.4,0.2,0.7,0.4,1.1,0.6c0.3,0.1,0.5,0.3,0.8,0.5c0.3,0.2,0.6,0.4,0.9,0.6c0.7,0.4,1.4,0.9,2,1.4
				c0.6,0.4,1.2,0.8,1.7,1.3c3.3,2.6,6.2,5.6,8.7,8.9c0.3,0.3,0.5,0.7,0.8,1.1c0.8,1.1,1.6,2.4,2.4,3.6c0.2,0.4,0.4,0.7,0.6,1
				c0.2,0.4,0.4,0.8,0.6,1.2c0.1,0.3,0.3,0.5,0.4,0.8l0.1,0.3c0.4,0.9,0.8,1.7,1.2,2.7c0.4,1,0.4,2.1,0,3.1c-1.2,2.7-2,5.6-2.5,8.6
				c-0.1,0.6-0.2,1.1-0.3,1.6c0,0,0,0.1,0,0.1c-0.1,0.4-0.1,0.8-0.1,1.2c0,0,0,0.1,0,0.1c0,0.2,0,0.4-0.1,0.6
				c-0.1,1.2-0.1,2.3-0.1,3.5l0,1.2c0,0.3,0,0.7,0.1,1.1c0,0.4,0,0.7,0.1,1c0,0.1,0,0.1,0,0.2c0,0.4,0.1,0.9,0.2,1.3
				c0.1,0.4,0.1,0.8,0.2,1.2c0,0,0,0.1,0,0.1c0,0,0,0,0,0c0,0.2,0.1,0.4,0.1,0.6l0.1,0.3c0.2,1,0.5,2.1,0.8,3.1
				c0.1,0.3,0.2,0.5,0.2,0.7c0.2,0.6,0.4,1.1,0.6,1.7c0,0,0,0.1,0.1,0.1c0.1,0.2,0.1,0.3,0.2,0.5c0,0.1,0,0.1,0.1,0.2
				c0.1,0.2,0.2,0.5,0.3,0.7c0,0,0,0,0,0c0,0,0,0.1,0,0.1c0.2,0.4,0.4,0.9,0.6,1.3c0.1,0.3,0.3,0.5,0.4,0.8l0.1,0.3
				c0.1,0.3,0.3,0.5,0.4,0.7c0.5,1,1.1,1.8,1.6,2.7c0.3,0.5,0.6,0.9,0.9,1.3c0,0,0.1,0.1,0.1,0.1c0,0,0,0.1,0.1,0.1
				c0.3,0.4,0.6,0.9,1,1.3c0.4,0.6,0.8,1.1,1.3,1.6c0.3,0.4,0.6,0.7,0.9,1.1c0,0,0,0,0,0c0.1,0.1,0.1,0.1,0.1,0.2
				c0.3,0.4,0.6,0.8,1,1.1c0.1,0.1,0.1,0.1,0.2,0.2l0.1,0.1c0,0,0.1,0.1,0.1,0.1c0.8,0.8,1.6,1.7,2.4,2.5c1.3,1.3,2.7,2.6,4.3,3.9
				c0.4,0.4,0.8,0.7,1.2,1c0.6,0.5,1.3,1,1.9,1.5c1,0.8,2.2,1.7,3.4,2.6l0.3,0.2c0.4,0.3,0.8,0.6,1.2,0.8c0.4,0.3,0.8,0.5,1.1,0.8
				l0.2,0.2c0.5,0.3,0.9,0.6,1.4,0.9c0,0,0,0,0.1,0c0,0,0.1,0.1,0.1,0.1c0.8,0.5,1.5,1,2.3,1.5c0.7,0.4,1.3,0.8,2,1.2
				c0.5,0.3,1,0.6,1.5,0.9c1.6,0.9,3.1,1.8,4.8,2.8c0.8,0.4,1.5,0.8,2.3,1.2c0.8,0.4,1.6,0.8,2.4,1.2c0.6,0.3,1.3,0.6,1.9,1
				c0.7,0.3,1.3,0.6,1.9,0.9c0.7,0.3,1.3,0.6,2,0.9c0.1,0.1,0.2,0.1,0.3,0.2c11.3,6.6,24.9,11.7,40.4,15.2c0.1,0,0.2,0,0.3,0.1
				c2.5,0.7,5,1.4,7.6,2.1c10.3,2.7,15.3,11.4,12.8,22.1c-1.4,5.7-4.8,11.2-9.4,14.9C226.9,224.2,222.2,225.9,217.4,225.9z
				 M214.9,217.7c6.6,1.4,15.3-3.7,17.7-13.6c0.9-3.7,1.2-10.3-7-12.5c-2.6-0.7-5.2-1.4-7.7-2.1c-16.2-3.6-30.5-9-42.5-16
				c-0.6-0.3-1.2-0.6-1.8-0.9c-0.6-0.3-1.3-0.6-2-1c-0.6-0.3-1.3-0.6-1.9-1c-0.8-0.4-1.6-0.8-2.5-1.3c-0.8-0.4-1.6-0.8-2.4-1.3
				c-1.8-1-3.4-1.9-5-2.9c-0.5-0.3-1-0.6-1.6-1c-0.7-0.4-1.4-0.8-2.1-1.3c-0.8-0.5-1.5-1-2.3-1.5c-0.1-0.1-0.2-0.1-0.3-0.2
				c-0.5-0.3-1-0.6-1.5-1l-0.2-0.1c-0.4-0.3-0.8-0.6-1.2-0.9c-0.4-0.3-0.8-0.6-1.2-0.9l-0.3-0.2c-1.4-1-2.6-1.9-3.7-2.8
				c-0.7-0.5-1.3-1.1-2-1.6c-0.4-0.3-0.9-0.7-1.4-1.1c-1.7-1.4-3.2-2.9-4.7-4.3c-0.9-0.9-1.8-1.8-2.6-2.7c-0.1-0.1-0.3-0.3-0.4-0.5
				c-0.4-0.4-0.7-0.8-1.1-1.2c-0.1-0.1-0.1-0.2-0.2-0.2c-0.4-0.4-0.7-0.8-1-1.2c-0.5-0.6-1-1.2-1.5-1.9c-0.4-0.5-0.7-1-1.1-1.5
				c-0.1-0.1-0.1-0.2-0.2-0.3c-0.4-0.5-0.7-1-1-1.5c-0.6-1-1.3-2-1.9-3c-0.2-0.3-0.4-0.7-0.6-1l-0.1-0.2c-0.2-0.3-0.4-0.7-0.5-1
				c-0.3-0.5-0.5-1-0.7-1.5c-0.1-0.1-0.1-0.2-0.1-0.3c-0.1-0.3-0.2-0.5-0.3-0.8c-0.1-0.3-0.3-0.6-0.4-0.9c-0.3-0.6-0.5-1.3-0.8-2
				c-0.1-0.2-0.2-0.5-0.3-0.8c-0.4-1.3-0.8-2.6-1.1-3.9l-0.1-0.4c-0.1-0.3-0.1-0.5-0.2-0.8c0-0.1,0-0.2-0.1-0.3
				c-0.1-0.5-0.2-0.9-0.2-1.4c-0.1-0.6-0.2-1.1-0.2-1.7c-0.1-0.5-0.1-0.9-0.1-1.4c0-0.5-0.1-1-0.1-1.5l0-1.2c0-1.4,0.1-2.8,0.2-4.1
				c0-0.3,0-0.6,0.1-0.9c0-0.5,0.1-1,0.2-1.5c0.1-0.7,0.2-1.5,0.3-2.1c0.5-2.9,1.3-5.8,2.4-8.6c-0.1-0.3-0.2-0.5-0.4-0.7l-0.1-0.3
				c-0.1-0.2-0.2-0.4-0.3-0.6c0,0,0-0.1,0-0.1c-0.2-0.3-0.4-0.7-0.5-1c-0.2-0.3-0.3-0.6-0.5-0.9c-0.6-1-1.3-2-2-3
				c-0.2-0.3-0.4-0.6-0.7-0.9c-2.1-2.8-4.6-5.3-7.3-7.4c-0.5-0.4-1-0.7-1.5-1.1c-0.6-0.4-1.1-0.8-1.7-1.2c0,0-0.1,0-0.1-0.1
				c-0.2-0.1-0.4-0.2-0.6-0.4c-0.1,0-0.1-0.1-0.2-0.1c-0.2-0.1-0.4-0.2-0.5-0.3c-0.4-0.2-0.7-0.4-1-0.6c-1.8-1-3.7-1.9-5.7-2.6
				c-6.5,11.7-10,24.8-10,38.3c0,0.7,0,1.3,0,2c0,0.7,0,1.3,0.1,2c0,0,0,0.1,0,0.2c0,0.6,0.1,1.2,0.1,1.9c0.1,0.8,0.1,1.6,0.2,2.3
				c0.2,1.7,0.4,3.4,0.7,5.1c0.1,0.6,0.2,1.1,0.3,1.6c0.1,0.5,0.2,0.9,0.3,1.3c0,0,0,0.1,0,0.1c0.1,0.4,0.2,0.9,0.3,1.3
				c0.2,0.6,0.3,1.3,0.5,1.9c0.3,1,0.6,2.1,1,3.4c0.1,0.4,0.3,0.8,0.4,1.3c0.6,1.7,1.2,3.4,1.9,5.1l0.1,0.3c0.3,0.7,0.6,1.4,0.9,2.1
				c0.3,0.6,0.5,1.1,0.7,1.6l0.6,1.3c0.4,0.8,0.8,1.6,1.3,2.4l0.7,1.2c0.4,0.8,0.9,1.5,1.4,2.3c0.4,0.7,0.8,1.3,1.2,2
				c0,0.1,0.1,0.1,0.1,0.2c0,0,0.1,0.1,0.1,0.1c3.7,5.6,8.3,11,13.6,16.1c3.9,3.7,8.3,7.4,13,10.8c0,0,0.1,0.1,0.1,0.1
				c14.2,10.3,31.8,19,52.4,26.1C193.1,212.3,203.9,215.3,214.9,217.7L214.9,217.7z M157.6,154.4c0,0,0.1,0,0.1,0.1
				C157.7,154.4,157.7,154.4,157.6,154.4z M139.1,138.5c0,0,0.1,0.1,0.1,0.1C139.2,138.6,139.1,138.6,139.1,138.5z M138.9,138.3
				L138.9,138.3L138.9,138.3z M138.9,138.3C138.9,138.3,138.9,138.3,138.9,138.3C138.9,138.3,138.9,138.3,138.9,138.3z M135.7,134.2
				C135.7,134.2,135.7,134.2,135.7,134.2C135.7,134.2,135.7,134.2,135.7,134.2z M131.3,126.5C131.3,126.5,131.3,126.5,131.3,126.5
				C131.3,126.5,131.3,126.5,131.3,126.5z M131.3,126.5C131.3,126.5,131.3,126.5,131.3,126.5C131.3,126.5,131.3,126.5,131.3,126.5z
				 M129.1,119.6C129.1,119.6,129.1,119.6,129.1,119.6C129.1,119.6,129.1,119.6,129.1,119.6z M129.1,119.6L129.1,119.6L129.1,119.6z
				 M129,118.7C129,118.7,129,118.7,129,118.7C129,118.7,129,118.7,129,118.7z"/>
		</g>
	</g>
	<g>
		<g>
			<path class="st7" d="M86.7,117.1c0-0.7-0.1-1.4-0.1-2.1"/>
		</g>
		<g>
			<path class="st1" d="M86.7,121.1c-2.1,0-3.9-1.6-4-3.8c0-0.8-0.1-1.5-0.1-2.3c0-2.2,1.7-4,3.9-4.1c2.2-0.1,4,1.7,4.1,3.9
				c0,0.6,0,1.3,0.1,1.9c0.1,2.2-1.5,4.1-3.7,4.2C86.9,121.1,86.8,121.1,86.7,121.1z"/>
		</g>
	</g>
	<g>
		<g>
			<path class="st7" d="M86.9,119.2c-0.1-0.7-0.1-1.4-0.1-2"/>
		</g>
		<g>
			<path class="st1" d="M86.8,123.2c-2,0-3.8-1.6-4-3.6c-0.1-0.7-0.1-1.5-0.2-2.2c-0.1-2.2,1.6-4.1,3.8-4.2c2.2-0.1,4.1,1.6,4.2,3.8
				c0,0.6,0.1,1.2,0.1,1.9c0.2,2.2-1.4,4.1-3.6,4.4C87.1,123.2,87,123.2,86.8,123.2z"/>
		</g>
	</g>
	<g>
		<g>
			<path class="st7" d="M87.8,127c-0.3-1.7-0.6-3.5-0.7-5.3"/>
		</g>
		<g>
			<path class="st1" d="M87.8,131c-1.9,0-3.6-1.4-3.9-3.3c-0.3-1.8-0.6-3.7-0.8-5.6c-0.2-2.2,1.4-4.2,3.6-4.4
				c2.2-0.2,4.2,1.4,4.4,3.6c0.2,1.7,0.4,3.4,0.7,5c0.4,2.2-1.1,4.3-3.2,4.6C88.3,131,88,131,87.8,131z"/>
		</g>
	</g>
	<g>
		<g>
			<path class="st7" d="M89.2,133.5c-0.2-0.7-0.3-1.3-0.5-2"/>
		</g>
		<g>
			<path class="st1" d="M89.2,137.5c-1.8,0-3.4-1.2-3.9-2.9c-0.2-0.7-0.4-1.4-0.5-2.2c-0.5-2.2,0.9-4.3,3-4.8c2.1-0.5,4.3,0.9,4.8,3
				c0.1,0.6,0.3,1.2,0.4,1.8c0.6,2.1-0.7,4.3-2.8,4.9C89.9,137.5,89.6,137.5,89.2,137.5z"/>
		</g>
	</g>
</g>
</svg>
