<?xml version="1.0" encoding="utf-8"?>
<!-- Generator: Adobe Illustrator 22.1.0, SVG Export Plug-In . SVG Version: 6.00 Build 0)  -->
<svg version="1.1" id="Layer_1" xmlns="http://www.w3.org/2000/svg" xmlns:xlink="http://www.w3.org/1999/xlink" x="0px" y="0px"
	 viewBox="0 0 256 256" style="enable-background:new 0 0 256 256;" xml:space="preserve">
<style type="text/css">
	.st0{fill:#F5B31F;}
	.st1{fill:#464646;}
	.st2{opacity:0.15;}
	.st3{fill:#AC6535;}
	.st4{fill:#EB573B;}
	.st5{fill:#90C056;}
	.st6{opacity:0.35;}
	.st7{fill:#FFFFFF;}
	.st8{opacity:0.2;}
	.st9{fill:#F6D67A;}
	.st10{opacity:0.3;}
	.st11{fill:#FFA755;}
	.st12{fill:#8FAE3C;}
	.st13{fill:#BE6BB2;}
	.st14{fill:#B7C536;}
	.st15{opacity:0.1;}
	.st16{fill:#9D5A96;}
	.st17{fill:#EA615D;}
	.st18{opacity:0.4;}
	.st19{fill:#F79932;}
	.st20{fill:#FFEC97;}
	.st21{fill:#FFD11D;}
	.st22{fill:#F7F2D5;}
	.st23{fill:#F6AF72;}
	.st24{fill:#BA6C45;}
	.st25{opacity:0.5;}
	.st26{fill:#E4C074;}
	.st27{fill:#656566;}
	.st28{fill:#FACD1F;}
	.st29{fill:#FFDF66;}
	.st30{fill:#6D6E71;}
	.st31{fill:#E77CAE;}
	.st32{fill:#FFE5C4;}
	.st33{fill:#F68455;}
	.st34{opacity:0.7;}
	.st35{fill:#ADEDFF;}
	.st36{fill:#EC754B;}
	.st37{fill:#4AA5BA;}
	.st38{opacity:0.8;}
	.st39{fill:#92A5AC;}
	.st40{fill:#D06E3C;}
	.st41{fill:#DA4F4B;}
	.st42{fill:#BDF3FF;}
	.st43{fill:#F18BB4;}
	.st44{fill:#F9D97A;}
	.st45{fill:none;}
	.st46{fill:#AF6535;}
	.st47{fill:#B93226;}
	.st48{fill:#FF6050;}
	.st49{fill:#EA7CB1;}
	.st50{fill:#00B0E0;}
	.st51{fill:#EA7DAE;}
	.st52{fill:#BC7532;}
	.st53{fill:#876C6C;}
	.st54{fill:#F9F6CD;}
	.st55{fill:#FFE37B;}
	.st56{fill:#1DDCFF;}
	.st57{fill:#60ACF7;}
	.st58{fill:#C3755A;}
	.st59{fill:#96557A;}
	.st60{fill:#66625D;}
	.st61{fill:#D68032;}
	.st62{fill:#F2A355;}
	.st63{fill:#7E9E6A;}
	.st64{fill:#965A85;}
	.st65{fill:#90CAD3;}
	.st66{fill:#94B57F;}
	.st67{fill:#B2E2E7;}
	.st68{fill:#FFDF8F;}
	.st69{fill:#FFFAEB;}
	.st70{fill:#F88916;}
	.st71{fill:#FFC86E;}
	.st72{fill:#AFA51D;}
	.st73{fill:#968A1C;}
	.st74{fill:#C3556D;}
</style>
<g>
	<g>
		<g>
			<path class="st0" d="M230.6,133.5c29.4,29.4-65,123.9-94.4,94.5l-44.5-99.4c-5.2-22.8,17.8-43.8,36-36l0.2,0.1l100.9,40.1
				L230.6,133.5z"/>
		</g>
	</g>
	<g class="st8">
		<g>
			<path class="st1" d="M218.2,128.6l10.6,4.2l1.8,0.7c29.4,29.4-65,123.9-94.4,94.5l-6.3-14C154.5,239,242.3,153.1,218.2,128.6z"/>
		</g>
	</g>
	<g class="st6">
		<g>
			<path class="st7" d="M137.7,96.6l-10.1-4c-18.2-7.8-41.2,13.2-36,36l13.7,30.7c0,0-5.5-28.7,4.8-44.2S137.7,96.6,137.7,96.6z"/>
		</g>
	</g>
	<g>
		<g>
			<path class="st1" d="M150.8,237.6c-8.4,0-13.9-3.3-17.4-6.8c-0.3-0.3-0.6-0.7-0.8-1.2l-44.5-99.4c-0.1-0.2-0.2-0.5-0.2-0.7
				c-2.9-12.8,1.8-26.2,12.3-35c8.9-7.4,19.7-9.5,29-5.6l0.1,0.1l102.8,40.8c0.5,0.2,1,0.5,1.4,0.9c5.6,5.6,10.6,16.4,2.6,35.7
				c-5.2,12.6-15.1,26.6-27.9,39.4c-12.7,12.7-26.6,22.6-39.2,27.7C161.8,236.4,155.8,237.6,150.8,237.6z M139.5,225.6
				c7.1,6.4,18.2,3.9,26.4,0.5c11.6-4.8,24.6-14,36.6-26c11.9-11.8,21.4-25.2,26.2-36.7c3.4-8.2,6-19.4-0.4-26.5l-1-0.4L126.3,96.3
				c-0.1,0-0.1,0-0.2-0.1c-6.5-2.8-14.3-1.2-20.9,4.3c-8,6.7-11.7,17.1-9.7,26.7L139.5,225.6z"/>
		</g>
	</g>
	<g>
		<g>
			<path class="st0" d="M91.7,128.5l44.5,99.4c0,0-17.6,18-33.6,22.4s-25.1-1.2-28.2-4.3c-2.5-2.5-20.1-53-24-74.6
				c-0.9-4.7-1-8-0.2-9.2C54.6,156,91.7,128.5,91.7,128.5z"/>
		</g>
	</g>
	<g class="st8">
		<g>
			<path class="st1" d="M129.8,213.7l6.4,14.2c0,0-17.6,18-33.6,22.4s-25.1-1.2-28.2-4.3c-0.9-0.9-0.8,0.1-4.1-9.1
				C97.9,242.4,117.8,234.8,129.8,213.7z"/>
		</g>
	</g>
	<g class="st6">
		<g>
			<path class="st7" d="M91.7,128.5c0,0-37.1,27.5-41.5,33.7c-0.8,1.1-0.6,4.4,0.2,9.2c1.3,7.1,4,17.3,7.2,27.8
				c0,0,0.2-16.8,8.5-32.1S91.7,128.5,91.7,128.5z"/>
		</g>
	</g>
	<g>
		<g>
			<path class="st1" d="M91.2,255.8c-6.5,0-14.1-1.5-19.6-7c-4.2-4.2-21.7-57.9-25.1-76.7c-1.4-7.6-0.8-10.3,0.4-12.1
				c4.5-6.5,36.1-30,42.4-34.7c1-0.7,2.2-1,3.4-0.7s2.1,1.1,2.6,2.2l44.5,99.4c0.7,1.5,0.4,3.3-0.8,4.4
				c-0.7,0.8-18.5,18.8-35.4,23.5C102,254.6,97,255.8,91.2,255.8z M77.4,243.4c1.7,1.6,9,7.2,24.1,3.1c11.8-3.2,25-14.9,29.9-19.4
				l-41.3-92.3c-13.8,10.4-32.9,25.2-36.3,29.5c-0.1,0.6-0.1,2.3,0.7,6.5C58,191.2,74.4,238.3,77.4,243.4z"/>
		</g>
	</g>
	<g>
		<g>
			<path class="st0" d="M50.4,171.3l0,0.1c3.8,21.5,21.4,72.1,24,74.6c0,0-50.1,3.7-56.7,1.1c-6.6-2.6-15.2-19.7-9.3-36.1
				C14.4,194.7,50.4,171.3,50.4,171.3z"/>
		</g>
	</g>
	<g class="st8">
		<g>
			<path class="st1" d="M67.3,228.6c3.4,9.5,6.2,16.5,7.1,17.4c0,0-50.1,3.7-56.7,1.1c-2.1-0.8-4.3-3-6.3-6.2
				C40.3,241.9,62.2,239.4,67.3,228.6z"/>
		</g>
	</g>
	<g class="st6">
		<g>
			<path class="st7" d="M50.5,171.4l0-0.1c0,0-36,23.4-42,39.8c-5.9,16.4,2.7,33.5,9.3,36.1c0,0-6.2-17,4.8-33.7
				S50.5,171.4,50.5,171.4z"/>
		</g>
	</g>
	<g>
		<g>
			<path class="st1" d="M30.9,252c-6.9,0-12.4-0.3-14.6-1.2c-9.2-3.5-18.1-23.4-11.6-41.2c6.3-17.4,42-40.8,43.6-41.8
				c1-0.7,2.3-0.8,3.5-0.4c1.2,0.4,2.1,1.3,2.5,2.5l0,0.1c0.1,0.2,0.1,0.4,0.1,0.6c3.7,20.6,20.2,68,23.1,72.7
				c0.9,1.1,1.2,2.6,0.7,4c-0.5,1.5-1.9,2.5-3.5,2.6C66.6,250.6,45.6,252,30.9,252z M47.7,177.9c-11.7,8.2-31.7,23.8-35.5,34.5
				c-5.4,14.8,3,29.5,7,31c3.5,1.3,26.7,0.5,49.1-1C62.4,228.4,51.9,195.8,47.7,177.9z M77.5,243.5L77.5,243.5L77.5,243.5z
				 M77.3,243.2C77.3,243.2,77.3,243.2,77.3,243.2C77.3,243.2,77.3,243.2,77.3,243.2z"/>
		</g>
	</g>
	<g>
		<g>
			<path class="st0" d="M248.7,98.5c-3.1,14.5-16.9,30.9-19.8,34.3L127.9,92.6c5.3-8,24.8-37.3,29.9-41.4c1.1-0.9,4.4-0.9,9.1-0.3
				c21.7,2.6,73.1,17.3,75.8,19.6C246,73.5,252.1,82.2,248.7,98.5z"/>
		</g>
	</g>
	<g class="st8">
		<g>
			<path class="st1" d="M248.7,98.5c-1.7,8.2-7.8,18-12.7,25l0.7,0.3c-2.7,3.7-5.1,6.4-6.1,7.6l-0.4-0.1c-0.8,1-1.3,1.6-1.3,1.6
				l-9.6-3.8c0.5-0.1,1.2-0.6,1.9-1.3l-91.6-36.4c1.1-1.7,2.9-4.4,5-7.6l91.8,36.1c7.4-13.7,15.6-39.2,6.4-52.9
				c5.5,1.7,9.2,3.1,9.9,3.7C246,73.5,252.1,82.2,248.7,98.5z"/>
		</g>
	</g>
	<g>
		<g>
			<path class="st1" d="M228.8,136.8c-0.5,0-1-0.1-1.5-0.3L126.4,96.4c-1.1-0.4-2-1.4-2.3-2.5c-0.4-1.1-0.2-2.4,0.5-3.4
				c9.3-14,25.6-38.2,30.8-42.3c1.7-1.4,4.4-2.1,12.1-1.1c18.9,2.2,73.5,16.7,77.9,20.6c2,1.7,11.5,11.4,7.2,31.7c0,0,0,0,0,0
				c-3.2,15.1-16.7,31.4-20.7,36.1C231.1,136.3,229.9,136.8,228.8,136.8z M133.9,90.7l93.7,37.2c4.6-5.5,14.7-18.7,17.1-30.3l0,0
				c3.3-15.5-3.1-22.6-4.5-23.9c-5.3-2.7-53.1-16.4-73.8-18.8c-4.2-0.5-5.9-0.4-6.5-0.3C156.8,57.6,146.8,71.4,133.9,90.7z
				 M248.7,98.5L248.7,98.5L248.7,98.5z M240.1,73.6C240.1,73.6,240.1,73.6,240.1,73.6C240.1,73.6,240.1,73.6,240.1,73.6z
				 M159.8,54.7L159.8,54.7L159.8,54.7z"/>
		</g>
	</g>
	<g>
		<g>
			<path class="st0" d="M240.6,13.9c2.9,6.5,2.2,56.7,2.2,56.7c-2.6-2.4-54.1-17-75.8-19.6l-0.1,0c0,0,21.2-37.4,37.2-44.3
				C220-0.2,237.6,7.4,240.6,13.9z"/>
		</g>
	</g>
	<g class="st8">
		<g>
			<path class="st1" d="M242.8,59.7c0,1.8,0,3.5,0,4.9c0,0.9,0,1.7,0,2.5c0,0.3,0,0.6,0,0.8l0,0.3c0,0.3,0,0.6,0,0.9
				c0,1,0,1.5,0,1.5c-0.2-0.1-0.6-0.4-1.1-0.6c-0.2-0.1-0.3-0.1-0.5-0.2c-0.1-0.1-0.2-0.1-0.3-0.1c-0.2-0.1-0.4-0.2-0.5-0.2
				c-0.2-0.1-0.4-0.2-0.6-0.2c-0.2-0.1-0.4-0.2-0.6-0.2c-1.8-0.6-4.1-1.4-6.8-2.3C215.4,61.4,183,52.9,167,51l-0.2,0
				c0,0,1.6-2.7,4.1-6.9c21.2,3.6,41,7.8,59.4,12.4c1.1-16.5-0.1-33.6-3.2-51.2c6.8,1.9,11.9,5.4,13.4,8.6
				C242.6,18.4,242.9,44.5,242.8,59.7L242.8,59.7z"/>
		</g>
	</g>
	<g>
		<g>
			<path class="st1" d="M242.7,74.6c-0.9,0-1.7-0.3-2.4-0.8c-4.3-2.3-52.1-16.3-73.8-18.8c-0.3,0-0.5-0.1-0.8-0.2l-0.1,0
				c-1.1-0.4-2-1.2-2.5-2.4c-0.4-1.1-0.3-2.4,0.3-3.4c0.9-1.6,22.1-38.6,39.1-46c17.4-7.5,37.7,0.2,41.7,9.2l0,0
				c3.1,6.8,2.7,46.4,2.5,58.4c0,1.6-1,3-2.4,3.6C243.8,74.5,243.3,74.6,242.7,74.6z M240.1,73.6C240.1,73.6,240.1,73.6,240.1,73.6
				C240.1,73.6,240.1,73.6,240.1,73.6z M173.3,47.9c18,3.1,51.2,11.7,65.5,16.8c0.2-22.4-0.4-45.7-1.9-49.1l3.6-1.6l-3.6,1.6
				c-1.8-3.9-16.8-11.4-31.3-5.2C195.2,14.8,180.7,35.7,173.3,47.9z"/>
		</g>
	</g>
</g>
</svg>
