<?xml version="1.0" encoding="utf-8"?>
<!-- Generator: Adobe Illustrator 22.1.0, SVG Export Plug-In . SVG Version: 6.00 Build 0)  -->
<svg version="1.1" id="Layer_1" xmlns="http://www.w3.org/2000/svg" xmlns:xlink="http://www.w3.org/1999/xlink" x="0px" y="0px"
	 viewBox="0 0 256 256" style="enable-background:new 0 0 256 256;" xml:space="preserve">
<style type="text/css">
	.st0{fill:#F5B31F;}
	.st1{fill:#464646;}
	.st2{opacity:0.15;}
	.st3{fill:#AC6535;}
	.st4{fill:#EB573B;}
	.st5{fill:#90C056;}
	.st6{opacity:0.35;}
	.st7{fill:#FFFFFF;}
	.st8{opacity:0.2;}
	.st9{fill:#F6D67A;}
	.st10{opacity:0.3;}
	.st11{fill:#FFA755;}
	.st12{fill:#8FAE3C;}
	.st13{fill:#BE6BB2;}
	.st14{fill:#B7C536;}
	.st15{opacity:0.1;}
	.st16{fill:#9D5A96;}
	.st17{fill:#EA615D;}
	.st18{opacity:0.4;}
	.st19{fill:#F79932;}
	.st20{fill:#FFEC97;}
	.st21{fill:#FFD11D;}
	.st22{fill:#F7F2D5;}
	.st23{fill:#F6AF72;}
	.st24{fill:#BA6C45;}
	.st25{opacity:0.5;}
	.st26{fill:#E4C074;}
	.st27{fill:#656566;}
	.st28{fill:#FACD1F;}
	.st29{fill:#FFDF66;}
	.st30{fill:#6D6E71;}
	.st31{fill:#E77CAE;}
	.st32{fill:#FFE5C4;}
	.st33{fill:#F68455;}
	.st34{opacity:0.7;}
	.st35{fill:#ADEDFF;}
	.st36{fill:#EC754B;}
	.st37{fill:#4AA5BA;}
	.st38{opacity:0.8;}
	.st39{fill:#92A5AC;}
	.st40{fill:#D06E3C;}
	.st41{fill:#DA4F4B;}
	.st42{fill:#BDF3FF;}
	.st43{fill:#F18BB4;}
	.st44{fill:#F9D97A;}
	.st45{fill:none;}
	.st46{fill:#AF6535;}
	.st47{fill:#B93226;}
	.st48{fill:#FF6050;}
	.st49{fill:#EA7CB1;}
	.st50{fill:#00B0E0;}
	.st51{fill:#EA7DAE;}
	.st52{fill:#BC7532;}
	.st53{fill:#876C6C;}
	.st54{fill:#F9F6CD;}
	.st55{fill:#FFE37B;}
	.st56{fill:#1DDCFF;}
	.st57{fill:#60ACF7;}
	.st58{fill:#C3755A;}
	.st59{fill:#96557A;}
	.st60{fill:#66625D;}
	.st61{fill:#D68032;}
	.st62{fill:#F2A355;}
	.st63{fill:#7E9E6A;}
	.st64{fill:#965A85;}
	.st65{fill:#90CAD3;}
	.st66{fill:#94B57F;}
	.st67{fill:#B2E2E7;}
	.st68{fill:#FFDF8F;}
	.st69{fill:#FFFAEB;}
	.st70{fill:#F88916;}
	.st71{fill:#FFC86E;}
	.st72{fill:#AFA51D;}
	.st73{fill:#968A1C;}
	.st74{fill:#C3556D;}
</style>
<g>
	<g>
		<g>
			<polygon class="st32" points="214.4,103.3 212.4,120.6 134.6,120.6 120.6,103.3 			"/>
		</g>
	</g>
	<g>
		<g>
			<polygon class="st32" points="208.4,154.6 197.1,252 143.3,198.3 170.8,165.5 168,162.1 162,154.6 			"/>
		</g>
	</g>
	<g>
		<g>
			<polygon class="st32" points="197.1,252 98.4,252 143.3,198.3 			"/>
		</g>
	</g>
	<g>
		<g>
			<path class="st1" d="M212.4,124.6L212.4,124.6l-77.8,0c-1.2,0-2.4-0.5-3.1-1.5l-14-17.3c-1-1.2-1.2-2.8-0.5-4.2
				c0.7-1.4,2.1-2.3,3.6-2.3l0,0l93.8,0c1.1,0,2.2,0.5,3,1.3c0.8,0.9,1.1,2,1,3.1l-2,17.3C216.1,123.1,214.4,124.6,212.4,124.6z
				 M136.5,116.6l72.3,0l1.1-9.3l-80.9,0L136.5,116.6z"/>
		</g>
	</g>
	<g>
		<g>
			<path class="st1" d="M197.1,256c-1,0-2.1-0.4-2.8-1.2l-53.8-53.7c-1.5-1.5-1.6-3.8-0.2-5.4l25.4-30.3l-6.8-8.4
				c-1-1.2-1.2-2.8-0.5-4.2c0.7-1.4,2.1-2.3,3.6-2.3l0,0l46.5,0c1.1,0,2.2,0.5,3,1.3c0.8,0.9,1.1,2,1,3.1l-11.3,97.5
				c-0.2,1.5-1.2,2.8-2.7,3.3C198,256,197.6,256,197.1,256z M148.7,198.1l45.3,45.3l9.9-84.8l-33.6,0l3.6,4.4c1.2,1.5,1.2,3.6,0,5.1
				L148.7,198.1z"/>
		</g>
	</g>
	<g>
		<g>
			<path class="st1" d="M197.1,256L197.1,256l-98.7,0c-1.6,0-3-0.9-3.6-2.3c-0.7-1.4-0.4-3.1,0.6-4.3l44.9-53.7
				c0.7-0.9,1.8-1.4,2.9-1.4c1.1,0,2.2,0.4,3,1.2l53.8,53.7c1.1,1.1,1.5,2.9,0.9,4.4C200.2,255.1,198.7,256,197.1,256z M107,248
				l80.5,0l-43.9-43.8L107,248z"/>
		</g>
	</g>
	<g>
		<g>
			<polygon class="st4" points="212.4,120.6 208.4,154.6 162,154.6 140.7,128.2 134.6,120.6 			"/>
		</g>
	</g>
	<g>
		<g>
			<path class="st1" d="M208.4,158.6L208.4,158.6l-46.5,0c-1.2,0-2.4-0.5-3.1-1.5l-27.4-33.9c-1-1.2-1.2-2.8-0.5-4.2
				c0.7-1.4,2.1-2.3,3.6-2.3l0,0l77.8,0c1.1,0,2.2,0.5,3,1.3c0.8,0.9,1.1,2,1,3.1l-3.9,33.9C212.2,157.1,210.5,158.6,208.4,158.6z
				 M163.9,150.6l41,0l3-25.9l-64.9,0L163.9,150.6z"/>
		</g>
	</g>
	<g>
		<g>
			<polygon class="st3" points="99.7,66.9 77.8,10.6 92.9,4 110.3,54.3 			"/>
		</g>
		<g>
			<path class="st1" d="M99.7,70.9c-0.2,0-0.4,0-0.7-0.1c-1.4-0.2-2.6-1.2-3.1-2.5L74.1,12.1c-0.8-2,0.2-4.2,2.1-5.1l15-6.6
				c1-0.4,2.2-0.4,3.2,0c1,0.4,1.8,1.3,2.2,2.4L114.1,53c0.5,1.3,0.2,2.8-0.7,3.9l-10.7,12.6C102,70.4,100.8,70.9,99.7,70.9z
				 M83,12.7l18,46.4l4.8-5.7l-15.3-44L83,12.7z"/>
		</g>
	</g>
	<g>
		<g>
			<polygon class="st32" points="214.4,103.3 80.7,103.3 106.2,54.3 187.7,54.3 			"/>
		</g>
	</g>
	<g class="st6">
		<g>
			<path class="st7" d="M187.7,54.3l-81.5,0l-25.5,49c0,0,20.1-31.9,34.3-38.2S187.7,54.3,187.7,54.3z"/>
		</g>
	</g>
	<g>
		<g>
			<path class="st1" d="M214.4,107.3L214.4,107.3l-133.7,0c-1.4,0-2.7-0.7-3.4-1.9c-0.7-1.2-0.8-2.7-0.1-3.9l25.5-49
				c0.7-1.3,2.1-2.2,3.5-2.2l0,0l81.5,0c1.5,0,2.8,0.8,3.5,2.1l26.7,49c0.7,1.2,0.6,2.7-0.1,4S215.8,107.3,214.4,107.3z M87.3,99.3
				l120.4,0l-22.4-41l-76.6,0L87.3,99.3z"/>
		</g>
	</g>
	<g class="st2">
		<g>
			<polygon class="st1" points="100.9,249.1 113.6,249.1 183.7,165.1 135.9,104.4 124.1,103.3 			"/>
		</g>
	</g>
	<g>
		<g>
			<polygon class="st32" points="170.8,165.5 143.3,198.3 98.4,252 87.7,162.1 168,162.1 			"/>
		</g>
	</g>
	<g class="st6">
		<g>
			<polygon class="st7" points="110.1,238 98.4,252 87.7,162.1 100.9,162.1 			"/>
		</g>
	</g>
	<g>
		<g>
			<polygon class="st32" points="140.7,128.2 83.7,128.2 80.7,103.3 120.6,103.3 134.6,120.6 			"/>
		</g>
	</g>
	<g class="st6">
		<g>
			<polygon class="st7" points="95.9,128.2 83.7,128.2 80.7,103.3 91.9,103.3 			"/>
		</g>
	</g>
	<g>
		<g>
			<polygon class="st7" points="168,162.1 162,154.6 168,162.1 			"/>
		</g>
		<g>
			<path class="st1" d="M168,166.1c-1.2,0-2.4-0.5-3.1-1.5l-6-7.5c-1.4-1.7-1.1-4.2,0.6-5.6c1.7-1.4,4.2-1.1,5.6,0.6l0,0l6,7.5
				c1,1.2,1.2,2.8,0.5,4.2C171,165.2,169.6,166.1,168,166.1z"/>
		</g>
	</g>
	<g>
		<g>
			<path class="st1" d="M98.4,256c-0.4,0-0.8-0.1-1.1-0.2c-1.5-0.5-2.6-1.8-2.8-3.4l-10.7-90c-0.1-1.1,0.2-2.3,1-3.1
				c0.8-0.9,1.8-1.3,3-1.3l0,0l80.3,0c1.2,0,2.4,0.5,3.1,1.5l2.8,3.5c1.2,1.5,1.2,3.6,0,5.1l-72.4,86.5
				C100.7,255.5,99.6,256,98.4,256z M92.2,166.1l9.1,76.3l63.9-76.3L92.2,166.1z"/>
		</g>
	</g>
	<g>
		<g>
			<path class="st1" d="M140.7,132.2L140.7,132.2l-57,0c-2,0-3.7-1.5-4-3.5l-3-24.9c-0.1-1.1,0.2-2.3,1-3.1c0.8-0.9,1.8-1.3,3-1.3
				l0,0l39.9,0c1.2,0,2.4,0.5,3.1,1.5l20.1,24.9c1,1.2,1.2,2.8,0.5,4.2C143.6,131.3,142.2,132.2,140.7,132.2z M87.2,124.2l45.1,0
				l-13.6-16.9l-33.5,0L87.2,124.2z"/>
		</g>
	</g>
	<g>
		<g>
			<polygon class="st47" points="168,162.1 168,162.1 162,154.6 			"/>
		</g>
	</g>
	<g>
		<g>
			<polygon class="st4" points="168,162.1 87.7,162.1 83.7,128.2 140.7,128.2 162,154.6 			"/>
		</g>
	</g>
	<g class="st8">
		<g>
			<polygon class="st7" points="100.9,162.1 88.6,162.1 84.6,128.2 95.9,128.2 			"/>
		</g>
	</g>
	<g>
		<g>
			<path class="st1" d="M168,166.1L168,166.1l-80.3,0c-2,0-3.7-1.5-4-3.5l-4-33.9c-0.1-1.1,0.2-2.3,1-3.1c0.8-0.9,1.8-1.3,3-1.3l0,0
				l57,0c1.2,0,2.4,0.5,3.1,1.5l27.3,33.9c1,1.2,1.2,2.8,0.5,4.2C170.9,165.2,169.5,166.1,168,166.1z M91.2,158.1l68.4,0l-20.9-25.9
				l-50.6,0L91.2,158.1z"/>
		</g>
	</g>
	<g>
		<g>
			<path class="st1" d="M168,166.1L168,166.1c-1.2,0-2.4-0.5-3.1-1.5l-6-7.5c-1.4-1.7-1.1-4.2,0.6-5.6c1.7-1.4,4.2-1.1,5.6,0.6l0,0
				l6,7.5c1,1.2,1.2,2.8,0.5,4.2C171,165.2,169.6,166.1,168,166.1z"/>
		</g>
	</g>
	<g>
		<g>
			<polygon class="st3" points="89.4,86.6 41.6,33.9 52.1,24.8 95.4,75 			"/>
		</g>
		<g>
			<path class="st1" d="M89.4,90.6c-1.1,0-2.2-0.5-3-1.3L38.7,36.6c-0.7-0.8-1.1-1.9-1-2.9c0.1-1.1,0.6-2.1,1.4-2.8l10.5-9.1
				c0.8-0.7,1.9-1,2.9-1c1.1,0.1,2,0.6,2.7,1.4l43.3,50.2c1.1,1.2,1.3,3,0.5,4.5l-6,11.5c-0.6,1.2-1.7,2-3,2.1
				C89.8,90.5,89.6,90.6,89.4,90.6z M47.4,34.2l41.2,45.4l2.1-4L51.7,30.5L47.4,34.2z"/>
		</g>
	</g>
</g>
</svg>
