<?xml version="1.0" encoding="utf-8"?>
<!-- Generator: Adobe Illustrator 22.1.0, SVG Export Plug-In . SVG Version: 6.00 Build 0)  -->
<svg version="1.1" id="Layer_1" xmlns="http://www.w3.org/2000/svg" xmlns:xlink="http://www.w3.org/1999/xlink" x="0px" y="0px"
	 viewBox="0 0 256 256" style="enable-background:new 0 0 256 256;" xml:space="preserve">
<style type="text/css">
	.st0{fill:#F5B31F;}
	.st1{fill:#464646;}
	.st2{opacity:0.15;}
	.st3{fill:#AC6535;}
	.st4{fill:#EB573B;}
	.st5{fill:#90C056;}
	.st6{opacity:0.35;}
	.st7{fill:#FFFFFF;}
	.st8{opacity:0.2;}
	.st9{fill:#F6D67A;}
	.st10{opacity:0.3;}
	.st11{fill:#FFA755;}
	.st12{fill:#8FAE3C;}
	.st13{fill:#BE6BB2;}
	.st14{fill:#B7C536;}
	.st15{opacity:0.1;}
	.st16{fill:#9D5A96;}
	.st17{fill:#EA615D;}
	.st18{opacity:0.4;}
	.st19{fill:#F79932;}
	.st20{fill:#FFEC97;}
	.st21{fill:#FFD11D;}
	.st22{fill:#F7F2D5;}
	.st23{fill:#F6AF72;}
	.st24{fill:#BA6C45;}
	.st25{opacity:0.5;}
	.st26{fill:#E4C074;}
	.st27{fill:#656566;}
	.st28{fill:#FACD1F;}
	.st29{fill:#FFDF66;}
	.st30{fill:#6D6E71;}
	.st31{fill:#E77CAE;}
	.st32{fill:#FFE5C4;}
	.st33{fill:#F68455;}
	.st34{opacity:0.7;}
	.st35{fill:#ADEDFF;}
	.st36{fill:#EC754B;}
	.st37{fill:#4AA5BA;}
	.st38{opacity:0.8;}
	.st39{fill:#92A5AC;}
	.st40{fill:#D06E3C;}
	.st41{fill:#DA4F4B;}
	.st42{fill:#BDF3FF;}
	.st43{fill:#F18BB4;}
	.st44{fill:#F9D97A;}
	.st45{fill:none;}
	.st46{fill:#AF6535;}
	.st47{fill:#B93226;}
	.st48{fill:#FF6050;}
	.st49{fill:#EA7CB1;}
	.st50{fill:#00B0E0;}
	.st51{fill:#EA7DAE;}
	.st52{fill:#BC7532;}
	.st53{fill:#876C6C;}
	.st54{fill:#F9F6CD;}
	.st55{fill:#FFE37B;}
	.st56{fill:#1DDCFF;}
	.st57{fill:#60ACF7;}
	.st58{fill:#C3755A;}
	.st59{fill:#96557A;}
	.st60{fill:#66625D;}
	.st61{fill:#D68032;}
	.st62{fill:#F2A355;}
	.st63{fill:#7E9E6A;}
	.st64{fill:#965A85;}
	.st65{fill:#90CAD3;}
	.st66{fill:#94B57F;}
	.st67{fill:#B2E2E7;}
	.st68{fill:#FFDF8F;}
	.st69{fill:#FFFAEB;}
	.st70{fill:#F88916;}
	.st71{fill:#FFC86E;}
	.st72{fill:#AFA51D;}
	.st73{fill:#968A1C;}
	.st74{fill:#C3556D;}
</style>
<g>
	<g>
		<g>
			<g>
				<path class="st7" d="M53.3,177.3c0.3,4.7,3.9,8.5,8.5,9.3l0,0.1c0,5.5,4.5,10,10.1,10c2.6,0,5-1,6.8-2.6
					c1.8,1.6,4.2,2.6,6.8,2.6c2.8,0,5.3-1.1,7.1-2.9c1.8,1.8,4.3,2.9,7.1,2.9c2.4,0,4.7-0.8,6.4-2.3c1.7,1.4,4,2.3,6.4,2.3
					c2.3,0,4.4-0.8,6.1-2c1.7,1.3,3.8,2,6.1,2c2.6,0,5-1,6.8-2.6c1.8,1.6,4.2,2.6,6.8,2.6c2.8,0,5.3-1.1,7.1-2.9
					c1.8,1.8,4.3,2.9,7.1,2.9c2.4,0,4.7-0.8,6.4-2.3c1.7,1.4,4,2.3,6.4,2.3c2.6,0,5-1,6.7-2.6c1.8,1.6,4.2,2.6,6.8,2.6
					c2.6,0,4.9-0.9,6.7-2.5c1.8,1.6,4.1,2.5,6.7,2.5c2.6,0,4.9-1,6.7-2.5c1.8,1.6,4.2,2.5,6.7,2.5c2.9,0,5.6-1.2,7.4-3.2
					c1.6,1.1,3.6,1.8,5.8,1.8c5.6,0,10.1-4.5,10.1-10c0-1.6-0.4-3-1-4.3c2.4-1.8,3.9-4.7,3.9-7.9c0-0.9-0.1-1.8-0.4-2.7
					c2-1.8,3.3-4.5,3.3-7.4c0-1.6-0.4-3-1-4.4c2.4-1.8,3.9-4.7,3.9-7.9c0-2.1-0.7-4.1-1.8-5.8c2-1.8,3.3-4.4,3.3-7.4
					c0-2.5-0.9-4.8-2.4-6.5c1.5-1.7,2.4-4,2.4-6.5c0-3.3-1.7-6.3-4.2-8.1c-3.5-0.3-7.1-0.6-10.7-0.7c-0.9,0-1.8-0.1-2.6-0.1
					c-56.2,1.5-116.1,22.4-161,55.9c-1.9,1.4-3.7,2.8-5.5,4.3C54.5,176.3,53.9,176.8,53.3,177.3z"/>
			</g>
		</g>
	</g>
	<g>
		<g>
			<g>
				<path class="st1" d="M205.7,200.7C205.7,200.7,205.7,200.7,205.7,200.7c-2.4,0-4.7-0.6-6.7-1.7c-2.1,1.1-4.4,1.7-6.7,1.7
					c0,0,0,0,0,0c-2.4,0-4.6-0.6-6.7-1.7c-2,1.1-4.3,1.7-6.7,1.7c-2.4,0-4.7-0.6-6.8-1.7c-2,1.1-4.4,1.7-6.7,1.7
					c-2.2,0-4.4-0.5-6.4-1.5c-2,1-4.2,1.5-6.4,1.5c0,0,0,0,0,0c-2.5,0-5-0.7-7.1-1.9c-2.1,1.2-4.6,1.9-7.1,1.9c0,0,0,0,0,0
					c-2.4,0-4.7-0.6-6.8-1.7c-3.9,2.1-8.9,2.3-12.9,0.3c-3.9,1.9-8.7,1.8-12.5-0.1c-2,1-4.2,1.5-6.4,1.5c0,0,0,0,0,0
					c-2.5,0-5-0.7-7.1-1.9c-2.1,1.2-4.6,1.9-7.1,1.9c0,0,0,0,0,0c-2.4,0-4.7-0.6-6.8-1.7c-2.1,1.1-4.4,1.7-6.8,1.7
					c-3.8,0-7.3-1.5-10-4.1c-2-1.9-3.3-4.3-3.8-7c-5-2-8.4-6.6-8.8-12.1c-0.1-1.3,0.5-2.5,1.5-3.4c0.6-0.5,1.2-1,1.9-1.5
					c1.8-1.4,3.7-2.9,5.6-4.3c45.6-34,106.6-55.2,163.3-56.7c0.1,0,0.1,0,0.2,0c0.9,0,1.8,0.1,2.7,0.1c3.6,0.1,7.3,0.4,10.9,0.7
					c0.7,0.1,1.4,0.3,1.9,0.7c3.7,2.6,5.9,6.9,5.9,11.4c0,2.3-0.6,4.5-1.6,6.5c1,2,1.6,4.2,1.6,6.5c0,2.8-0.9,5.6-2.4,7.9
					c0.7,1.7,1,3.4,1,5.2c0,3.4-1.2,6.5-3.3,9c0.3,1.1,0.4,2.1,0.4,3.3c0,3.1-1.1,6.1-3,8.6c0,0.5,0.1,1,0.1,1.4
					c0,3.3-1.2,6.5-3.3,9c0.3,1.1,0.4,2.1,0.4,3.3c0,7.7-6.3,14-14.1,14c-1.8,0-3.6-0.4-5.3-1C211.3,199.8,208.5,200.7,205.7,200.7z
					 M199,190.1c0.9,0,1.9,0.3,2.7,1c1.1,1,2.6,1.5,4.1,1.5h0c1.7,0,3.3-0.7,4.5-1.9c1.4-1.4,3.6-1.7,5.2-0.5c1,0.7,2.2,1.1,3.5,1.1
					c3.4,0,6.1-2.7,6.1-6c0-0.9-0.2-1.8-0.6-2.6c-0.8-1.7-0.3-3.8,1.2-4.9c1.5-1.1,2.3-2.9,2.3-4.7c0-0.6-0.1-1.1-0.2-1.6
					c-0.4-1.5,0-3,1.1-4c1.3-1.2,2-2.7,2-4.4c0-0.9-0.2-1.8-0.6-2.6c-0.8-1.7-0.3-3.8,1.2-4.9c1.5-1.2,2.4-2.9,2.4-4.8
					c0-1.2-0.4-2.4-1.1-3.4c-1.2-1.6-0.9-3.9,0.6-5.3c1.3-1.1,2-2.7,2-4.4c0-1.4-0.5-2.8-1.4-3.9c-1.3-1.5-1.3-3.7,0-5.2
					c0.9-1.1,1.4-2.5,1.4-3.9c0-1.6-0.7-3.1-1.8-4.3c-3.1-0.3-6.2-0.5-9.3-0.6c-0.8,0-1.7-0.1-2.5-0.1
					c-55.1,1.5-114.3,22.1-158.6,55.1c-1.8,1.3-3.6,2.7-5.3,4.1c0.8,1.9,2.5,3.4,4.7,3.7c1.9,0.3,3.4,2,3.4,4v0.1
					c0,1.6,0.6,3.1,1.8,4.2c1.2,1.1,2.7,1.8,4.3,1.8c1.5,0,3-0.6,4.1-1.6c1.5-1.4,3.8-1.4,5.4,0c1.1,1,2.6,1.6,4.1,1.6h0
					c1.6,0,3.2-0.6,4.3-1.7c1.6-1.5,4-1.5,5.6,0c1.1,1.1,2.7,1.7,4.3,1.7h0c1.4,0,2.8-0.5,3.9-1.4c1.5-1.2,3.6-1.2,5,0
					c1.1,0.9,2.4,1.4,3.9,1.4c1.4,0,2.7-0.4,3.7-1.2c1.4-1.1,3.4-1.1,4.8,0c1.1,0.8,2.4,1.2,3.7,1.2c1.5,0,3-0.6,4.1-1.6
					c1.5-1.4,3.8-1.4,5.4,0c1.1,1,2.6,1.6,4.1,1.6h0c1.6,0,3.2-0.6,4.3-1.7c1.6-1.5,4-1.5,5.6,0c1.1,1.1,2.7,1.7,4.3,1.7h0
					c1.4,0,2.8-0.5,3.9-1.4c1.5-1.2,3.6-1.2,5,0c1.1,0.9,2.4,1.4,3.9,1.4c1.5,0,3-0.5,4.1-1.5c1.5-1.4,3.8-1.4,5.3,0
					c1.1,1,2.6,1.5,4.1,1.5c1.9,0,3.3-0.8,4.1-1.5c1.5-1.3,3.8-1.3,5.3,0c0.8,0.7,2.1,1.5,4.1,1.5h0c1.5,0,3-0.5,4.1-1.5
					C197.1,190.5,198,190.1,199,190.1z"/>
			</g>
		</g>
	</g>
	<g class="st15">
		<g>
			<g>
				<path d="M56.2,183.6c-1.6-1.7-2.7-3.9-2.9-6.4c0.6-0.5,1.2-1,1.8-1.4c1.8-1.4,3.6-2.9,5.5-4.3c44.9-33.5,104.8-54.4,161-55.9
					c0.9,0,1.8,0.1,2.6,0.1c3.6,0.1,7.2,0.4,10.7,0.7c2.5,1.8,4.2,4.8,4.2,8.1C175.5,123.6,114.7,144.7,56.2,183.6z"/>
			</g>
		</g>
	</g>
	<g>
		<g>
			<g>
				<path class="st33" d="M4,176.2c0,11.7,39.2,8.3,45.1,4.6c1.4-1.2,2.9-2.4,4.3-3.6c0.6-0.5,1.2-1,1.8-1.4
					c1.8-1.4,3.6-2.9,5.5-4.3c44.9-33.5,104.8-54.4,161-55.9c5.3-0.1,10.6-0.1,15.8,0.1c3.9,0.1,7.7,0.4,11.5,0.8c1,0.1,2,0.2,3,0.3
					c0,0-20.7-31.7-23.7-31.1c-2.9,0.6,2.4,14.8,2.6,15.5c-8.8-18.6-20.7-32.6-39.3-36.1c7.3,10.3,12.7,20.1,15.7,29.4
					c-18.3-24.6-35.8-39.3-58.4-33.7c17.9,11.1,27.1,23,31.9,35.3c-21.4-20.9-39-36.7-57.3-31.5l-14.9,4.2
					c21.3,7.4,34.2,18.3,40.2,32.2c-20.9-15-44.7-30.4-59.3-23c-14.6,7.5-21.5,10.8-21.5,10.8c27.7,4.9,42,13.5,51.9,23.4
					c-22-10.7-55.7-18.8-64.8-10.7l-18.8,15.3c25.1-0.9,44.9,4.7,61.1,14.9c-28.9-6.5-64.1-14.9-72.1,1l-10.9,19.8
					c23.9-6.2,44.3-7.4,59,0C28.4,151.1,4.9,167.2,4,176.2z"/>
			</g>
		</g>
	</g>
	<g class="st25">
		<g class="st25">
			<g>
				<g>
					<path class="st7" d="M14.6,152.6c7.8-2,15.2-3.5,22.2-4.4c3.9-8.7,8.8-17,14.4-24.5c-12.3-0.5-22,1.6-25.7,9.1L14.6,152.6z"/>
				</g>
			</g>
		</g>
		<g class="st25">
			<g>
				<g>
					<path class="st7" d="M229.8,98.3c7.2,5.4,13.8,11.6,19.7,18.3c0.8,0.1,1.7,0.2,2.5,0.3c0,0-20.7-31.7-23.7-31.1
						C226.1,86.2,228.3,93.9,229.8,98.3z"/>
				</g>
			</g>
		</g>
		<g class="st25">
			<g>
				<g>
					<path class="st7" d="M191.5,65.2c4.2,5.9,7.7,11.6,10.6,17.2c9.7,4,18.7,9.2,27,15.3C220.5,80.9,209,68.5,191.5,65.2z"/>
				</g>
			</g>
		</g>
		<g class="st25">
			<g>
				<g>
					<path class="st7" d="M148.8,60.9c6.5,4,11.8,8.1,16.2,12.4c10.4,1,20.4,3.1,29.9,6.4C180.8,64.5,166.4,56.6,148.8,60.9z"/>
				</g>
			</g>
		</g>
		<g class="st25">
			<g>
				<g>
					<path class="st7" d="M108.6,68.9c6,2.1,11.3,4.4,16,7.1c9.2-2.1,18.8-3.2,28.6-3.2c0.3,0,0.6,0,0.9,0
						c-10.5-7.4-20.5-11-30.7-8.1L108.6,68.9z"/>
				</g>
			</g>
		</g>
		<g class="st25">
			<g>
				<g>
					<path class="st7" d="M68.1,88.9c6.2,1.1,11.7,2.4,16.7,3.8c8.6-5.5,18-10,27.9-13.3c-8.7-3.4-16.7-4.5-23-1.2
						C74.9,85.6,68.1,88.9,68.1,88.9z"/>
				</g>
			</g>
		</g>
		<g class="st25">
			<g>
				<g>
					<path class="st7" d="M36.4,116.8c7-0.3,13.5,0,19.7,0.7c5.9-6.9,12.6-13.2,19.8-18.8c-9.4-1.1-17.1-0.5-20.8,2.8L36.4,116.8z"
						/>
				</g>
			</g>
		</g>
		<g class="st25">
			<g>
				<g>
					<path class="st7" d="M4,176.2c0,6.3,11.4,8.2,22.8,8.1c1.2-9.6,3.4-18.9,6.6-27.7C14.4,161.7,4.5,170.4,4,176.2z"/>
				</g>
			</g>
		</g>
	</g>
	<g>
		<g>
			<g>
				<path class="st1" d="M25.9,188.3c-7.9,0-15.6-1-20.2-3.5c-4.9-2.7-5.7-6.5-5.7-8.6c0-0.1,0-0.3,0-0.4
					c0.8-7.8,11.5-17.2,30.8-22.7c-4.8,0.8-9.8,1.9-15.2,3.3c-1.5,0.4-3.2-0.2-4.2-1.4c-1-1.3-1.1-3-0.3-4.4L22,130.9
					c2.8-5.5,7.8-8.6,14.3-10.1c-1.6-0.1-3-1.1-3.6-2.6c-0.6-1.6-0.1-3.4,1.2-4.5l18.7-15.2c5.1-4.5,14.7-5,25.6-3.4
					c-3.3-0.8-7-1.6-10.9-2.3c-1.7-0.3-3-1.7-3.3-3.4s0.7-3.4,2.2-4.2c0.1,0,7-3.4,21.4-10.7c10.2-5.2,23.4-1.2,37.1,6.2
					c-5.1-3.1-10.9-5.8-17.6-8.1c-1.6-0.6-2.7-2.1-2.7-3.9c0-1.7,1.2-3.3,2.9-3.7l14.9-4.2c7.9-2.2,15.4-1.2,23.1,2.2
					c-0.5-0.8-0.7-1.8-0.6-2.8c0.3-1.6,1.4-2.9,3-3.3c16-3.9,29.4,1.7,41,11.3c-0.2-0.3-0.4-0.5-0.6-0.8c-0.9-1.3-1-3.1-0.1-4.5
					c0.9-1.4,2.5-2.1,4.1-1.8c13,2.4,23.7,9.5,32.7,21.9c0.7-0.7,1.5-1.1,2.5-1.3c2.8-0.6,5.7-1.2,27.9,32.8c0.8,1.3,0.9,3,0.1,4.3
					c-0.8,1.3-2.3,2-3.8,1.9c-1-0.1-2-0.2-2.9-0.3c-3.8-0.4-7.6-0.6-11.3-0.7c-5.1-0.2-10.3-0.2-15.5-0.1
					c-55.1,1.4-114.4,22-158.7,55.1c-1.8,1.4-3.7,2.8-5.4,4.2c-0.6,0.5-1.2,0.9-1.8,1.4c-1.4,1.1-2.8,2.3-4.2,3.5
					c-0.1,0.1-0.3,0.2-0.4,0.3C47.7,186.4,36.7,188.3,25.9,188.3z M8,176.4c0.1,0.5,0.9,1,1.5,1.4c8.4,4.6,33,2.1,37.2-0.2
					c1.4-1.2,2.8-2.3,4.1-3.4c0.6-0.5,1.2-1,1.8-1.5c1.8-1.4,3.7-2.9,5.6-4.3c45.6-34,106.6-55.2,163.3-56.7
					c5.4-0.1,10.8-0.1,16.1,0.1c2.1,0.1,4.3,0.2,6.4,0.3c-3.5-5.2-7.2-10.4-10.2-14.4c0.2,0.7,0.5,1.4,0.8,2.2
					c0.8,2-0.2,4.3-2.2,5.1c-2,0.8-4.3,0-5.2-2c-7.3-15.4-15.7-25.3-26-30.4c4.6,7.5,7.8,14.4,9.8,20.9c0.6,1.9-0.3,3.9-2,4.8
					c-1.7,0.9-3.9,0.4-5-1.2c-16.4-22.1-29.8-32.4-43.9-33.2c11.7,8.9,19.7,19.1,24.4,30.9c0.7,1.8,0.1,3.8-1.5,4.8
					c-1.6,1-3.7,0.9-5-0.5c-21.2-20.7-37.5-35.1-53.4-30.5l-3.7,1c15.6,7.3,26.2,17.4,31.6,29.9c0.7,1.7,0.2,3.6-1.2,4.7
					c-1.4,1.1-3.4,1.2-4.8,0.1c-13.4-9.6-41.3-29.7-55.1-22.7c-4.4,2.2-8.1,4.1-11.2,5.6c18.6,4.6,32,11.6,42.6,22.1
					c1.4,1.4,1.6,3.6,0.4,5.2c-1.1,1.6-3.3,2.1-5,1.3c-23.4-11.4-53.9-17.1-60.3-11.3c-0.1,0-0.1,0.1-0.2,0.1l-10.1,8.2
					c19.7,0.8,36.8,5.9,52,15.5c1.7,1,2.3,3.1,1.6,4.9c-0.7,1.8-2.7,2.8-4.6,2.4l-2-0.5c-25-5.6-59.2-13.4-65.6-0.6
					c0,0,0,0.1-0.1,0.1l-6.5,11.9c22.7-4.9,40.1-4.1,52.9,2.4c1.7,0.8,2.5,2.7,2.1,4.6c-0.5,1.8-2.1,3.1-4,3
					c-24.5-0.8-40.6,3.6-49.7,7.5C13.1,168.7,8.5,173.9,8,176.4z"/>
			</g>
		</g>
	</g>
</g>
</svg>
