<?xml version="1.0" encoding="utf-8"?>
<!-- Generator: Adobe Illustrator 22.1.0, SVG Export Plug-In . SVG Version: 6.00 Build 0)  -->
<svg version="1.1" id="Layer_1" xmlns="http://www.w3.org/2000/svg" xmlns:xlink="http://www.w3.org/1999/xlink" x="0px" y="0px"
	 viewBox="0 0 256 256" style="enable-background:new 0 0 256 256;" xml:space="preserve">
<style type="text/css">
	.st0{fill:#F5B31F;}
	.st1{fill:#464646;}
	.st2{opacity:0.15;}
	.st3{fill:#AC6535;}
	.st4{fill:#EB573B;}
	.st5{fill:#90C056;}
	.st6{opacity:0.35;}
	.st7{fill:#FFFFFF;}
	.st8{opacity:0.2;}
	.st9{fill:#F6D67A;}
	.st10{opacity:0.3;}
	.st11{fill:#FFA755;}
	.st12{fill:#8FAE3C;}
	.st13{fill:#BE6BB2;}
	.st14{fill:#B7C536;}
	.st15{opacity:0.1;}
	.st16{fill:#9D5A96;}
	.st17{fill:#EA615D;}
	.st18{opacity:0.4;}
	.st19{fill:#F79932;}
	.st20{fill:#FFEC97;}
	.st21{fill:#FFD11D;}
	.st22{fill:#F7F2D5;}
	.st23{fill:#F6AF72;}
	.st24{fill:#BA6C45;}
	.st25{opacity:0.5;}
	.st26{fill:#E4C074;}
	.st27{fill:#656566;}
	.st28{fill:#FACD1F;}
	.st29{fill:#FFDF66;}
	.st30{fill:#6D6E71;}
	.st31{fill:#E77CAE;}
	.st32{fill:#FFE5C4;}
	.st33{fill:#F68455;}
	.st34{opacity:0.7;}
	.st35{fill:#ADEDFF;}
	.st36{fill:#EC754B;}
	.st37{fill:#4AA5BA;}
	.st38{opacity:0.8;}
	.st39{fill:#92A5AC;}
	.st40{fill:#D06E3C;}
	.st41{fill:#DA4F4B;}
	.st42{fill:#BDF3FF;}
	.st43{fill:#F18BB4;}
	.st44{fill:#F9D97A;}
	.st45{fill:none;}
	.st46{fill:#AF6535;}
	.st47{fill:#B93226;}
	.st48{fill:#FF6050;}
	.st49{fill:#EA7CB1;}
	.st50{fill:#00B0E0;}
	.st51{fill:#EA7DAE;}
	.st52{fill:#BC7532;}
	.st53{fill:#876C6C;}
	.st54{fill:#F9F6CD;}
	.st55{fill:#FFE37B;}
	.st56{fill:#1DDCFF;}
	.st57{fill:#60ACF7;}
	.st58{fill:#C3755A;}
	.st59{fill:#96557A;}
	.st60{fill:#66625D;}
	.st61{fill:#D68032;}
	.st62{fill:#F2A355;}
	.st63{fill:#7E9E6A;}
	.st64{fill:#965A85;}
	.st65{fill:#90CAD3;}
	.st66{fill:#94B57F;}
	.st67{fill:#B2E2E7;}
	.st68{fill:#FFDF8F;}
	.st69{fill:#FFFAEB;}
	.st70{fill:#F88916;}
	.st71{fill:#FFC86E;}
	.st72{fill:#AFA51D;}
	.st73{fill:#968A1C;}
	.st74{fill:#C3556D;}
</style>
<g>
	<g>
		<g>
			<g>
				<g>
					<path class="st36" d="M12.2,224.1c9-7.6,19.1-6.3,30.3,3.1c-1.3-9.8,7.5-26.5,5.9-27.7c-1.6-1.2-3.7,1.8-4.1,0.9
						c-0.4-0.9,5.5-20.3,4.3-23.7c-0.5-1.5-3.7-0.2-7.2,1.7c-3.1,6.3-6.4,11.7-8.7,12.9c-5.2,2.8-22.1,14.1-24.6,12.9
						c-0.8-0.4-1.4-1.3-2-2.7C5,209.2,6.3,216.8,12.2,224.1z"/>
				</g>
			</g>
		</g>
		<g class="st15">
			<g>
				<g>
					<path d="M6.5,212.9c-0.9-3.8-0.9-7.6-0.4-11.4c0.5,1.4,1.2,2.3,2,2.7c2.5,1.2,19.4-10.1,24.6-12.9c2.3-1.2,5.7-6.6,8.7-12.9
						c3.5-1.9,6.7-3.2,7.2-1.7c0.6,1.6-0.4,6.6-1.6,11.6C33.4,200,19.8,208.6,6.5,212.9z"/>
				</g>
			</g>
		</g>
		<g>
			<g>
				<g>
					<path class="st36" d="M6.2,201.4c0.5,1.4,1.2,2.3,2,2.7c2.5,1.2,19.4-10.1,24.6-12.9c2.3-1.2,5.7-6.6,8.7-12.9
						c3.7-7.7,7.1-16.8,7.8-21.4c0.4-3,0-8.1-0.7-13.3c-1.2,5.1-1.9,9.1-1.9,9.1s-25-16.3-29.6-22.6c-2-2.8-4.2-10.5-5.8-18.5
						C6.3,131.1,0.8,188,6.2,201.4z"/>
				</g>
			</g>
		</g>
		<g class="st15">
			<g>
				<g>
					<path d="M7.5,132.5c1.1-7.5,2.5-16.4,3.7-20.9c1.6,8,3.8,15.7,5.8,18.5c4.6,6.3,29.6,22.6,29.6,22.6s0.7-4,1.9-9.1
						c0.7,5.3-0.1,15.6-0.6,18.6C32.7,155.2,19.4,144.5,7.5,132.5z"/>
				</g>
			</g>
		</g>
		<g>
			<g>
				<g>
					<path class="st36" d="M11.2,111.6c1.6,8,3.8,15.7,5.8,18.5c4.6,6.3,29.6,22.6,29.6,22.6s0.7-4,1.9-9.1c1.5-6.2,3.7-14,6.3-17.7
						c2.2-3.1,5.1-10,7.7-16.6c-0.4,0.7-0.9,1.1-1.7,0.9c-3.4-0.7-6.8-14.5-9.2-18.6c-2.4-4.1-11.4-12.5-15.3-16.2
						c-0.9-0.9-1.6-2.3-2-4.1c-5.2,3.5-11.6,7.5-12.8,7.8c-2.1,0.5-5-7.5-7.6-6.5c-2.7,1,2.9,13.4,2.1,15.4c-0.8,2-6.1-0.8-7.5,1.6
						C7.8,90.9,9.1,101.5,11.2,111.6z"/>
				</g>
			</g>
		</g>
		<g class="st15">
			<g>
				<g>
					<path d="M26.7,76.2c2.1-1.3,5.6-3.6,7.7-5c0.4,1.8,1.1,3.3,2,4.1c3.9,3.7,12.9,12.1,15.3,16.2c2.4,4.1,5.8,17.9,9.2,18.6
						c0.8,0.2,1.3-0.2,1.7-0.9c-1,2.5-4.5,10.8-4.5,10.8C46.5,108.5,46.8,90.7,26.7,76.2z"/>
				</g>
			</g>
		</g>
		<g>
			<g>
				<g>
					<path class="st36" d="M140.4,111.7c0.4,2.7,4.9,2.4,4.9,6.1c0,0.3,0,0.9,0,0.9c39.8,24.5,81.5,24.9,105.3-6.6
						c0,0-69.3,9.4-75.5-11.1l-8.2-4.1l-3.7-6.1l-10.2,3.7c0,0-8.6,5.2-8.9,7.3c-0.3,2.1,1.3,3.1,1.3,3.1S140,109.1,140.4,111.7z"/>
				</g>
			</g>
		</g>
		<g class="st15">
			<g>
				<g>
					<path d="M145.2,118.7c0,0,0-0.6,0-0.9c0-3.7-4.4-3.4-4.9-6.1c-0.4-2.7,5-6.9,5-6.9s-1.7-1-1.3-3.1c0.3-2.1,8.9-7.3,8.9-7.3
						l10.2-3.7l3.7,6.1C157.4,102.7,149.9,109.8,145.2,118.7z"/>
				</g>
			</g>
		</g>
		<g>
			<g>
				<g>
					<path class="st36" d="M34.4,71.2c0.4,1.8,1.1,3.3,2,4.1c3.9,3.7,12.9,12.1,15.3,16.2c2.4,4.1,5.8,17.9,9.2,18.6
						c0.8,0.2,1.3-0.2,1.7-0.9c0.1-0.3,0.2-0.6,0.4-0.9c0.7-2.6,0.2-6.9,0.2-6.9c0.5,0.7,1.1,1.4,1.6,2
						c18.9,22.6,46.7,27.7,77.3,27.7c0,0,2.8-8.3,3.2-12.4c0,0,0-0.6,0-0.9c0-3.7-4.4-3.4-4.9-6.1c-0.4-2.7,5-6.9,5-6.9
						s-1.7-1-1.3-3.1c0.3-2.1,8.9-7.3,8.9-7.3l10.2-3.7l3-1.1l4.6,3.3c0,0,3.8-6,6.2-6.4c2.5-0.3,1.1,4.8,4.5,5.2
						c3.4,0.4,3.9-4,7.4-4c3.5,0,10.5,2.9,12.6,1.9c2.1-1,1.6-7.6,3.9-8.6c2.3-1,9.4,1.5,10.8,2.5c1.4,0.9,1.7,4.7,3.5,4.9
						c1.7,0.2,8.3,0.9,10.5,1.5c2.2,0.6,2.5-2.9,5.6-2.8c3.1,0.1,16.1,8.5,16.1,8.5c-1.1-75.8-116.3-79.9-215.3-47.6
						C34.1,55.2,33,65.2,34.4,71.2z"/>
				</g>
			</g>
		</g>
		<g class="st15">
			<g>
				<g>
					<path d="M34.4,71.2c0.4,1.8,1.1,3.3,2,4.1c3.9,3.7,12.9,12.1,15.3,16.2c2.4,4.1,5.8,17.9,9.2,18.6c0.8,0.2,1.3-0.2,1.7-0.9
						c0.1-0.3,0.2-0.6,0.4-0.9c0.7-2.6,0.2-6.9,0.2-6.9c0.5,0.7,1.1,1.4,1.6,2c18.9,22.6,46.7,27.7,77.3,27.7c0,0,2.8-8.3,3.2-12.4
						c0,0,0-0.6,0-0.9c0,0-25.9,6.3-47.4-2.9S52.1,84.6,34.4,71.2z"/>
				</g>
			</g>
		</g>
		<g class="st2">
			<g>
				<g>
					<path class="st7" d="M161.1,29.3c51.6,2.8,90.2,22.6,90.9,66.3c0,0-13-8.4-16.1-8.5C235.2,59.2,206.4,41.3,161.1,29.3z"/>
				</g>
			</g>
		</g>
		<g>
			<g>
				<g>
					<path class="st1" d="M42.6,231.2c-0.9,0-1.8-0.3-2.6-0.9c-13-10.9-20.6-7-25.2-3.1c-0.8,0.7-1.9,1-2.9,0.9
						c-1.1-0.1-2.1-0.6-2.7-1.4c-6.1-7.4-8.4-15.9-7-25.8c0.3-1.8,1.7-3.2,3.5-3.4c1.7-0.2,3.4,0.7,4.1,2.3
						c3.4-1.4,10.8-5.9,14.6-8.2c2.7-1.6,5-3,6.5-3.8c0.6-0.4,3.1-3.2,7-11.1c0.4-0.7,0.9-1.4,1.7-1.8c4.9-2.7,7.7-3.4,10-2.5
						c1.4,0.5,2.4,1.6,2.9,3c1,2.8,0,8.1-2.8,19.4c-0.1,0.2-0.1,0.5-0.2,0.7c0.5,0.2,0.9,0.4,1.4,0.8c3,2.2,1.9,5.4-0.3,11.7
						c-1.9,5.4-4.7,13.7-4,18.6c0.2,1.6-0.6,3.2-2,4C43.9,231,43.2,231.2,42.6,231.2z M24.6,215.2c4.2,0,9,1.3,14.4,4.5
						c0.9-5,2.6-10.1,4.1-14.3c0.1-0.3,0.2-0.7,0.3-1c-1.1-0.3-2-1.2-2.6-2.2c-0.8-1.6-0.6-2.5,1.1-9.3c0.7-2.7,1.9-7.9,2.6-11.6
						c-5.6,11.2-8.8,12.9-9.9,13.5c-1.3,0.7-3.5,2-6.1,3.6c-10.2,6.2-15.4,9.1-18.7,9.7c0.2,3.8,1.3,7.2,3.3,10.4
						C16.3,216.6,20.2,215.2,24.6,215.2z M44.8,177.7L44.8,177.7L44.8,177.7z"/>
				</g>
			</g>
		</g>
		<g>
			<g>
				<g>
					<path class="st1" d="M8.6,208.2c-0.8,0-1.5-0.2-2.2-0.5c-1.7-0.8-3-2.4-4-4.8c0,0,0,0,0,0c-5.8-14.7-0.1-72.3,4.9-92.3
						c0.5-1.8,2.1-3,4-3c1.9,0,3.5,1.4,3.8,3.2c2.1,10.2,4.1,15.5,5.2,17c2.6,3.5,14.3,12.1,23.6,18.3c0.2-1.1,0.5-2.2,0.8-3.4
						c0.4-1.9,2.2-3.2,4.1-3.1c1.9,0.1,3.5,1.5,3.8,3.4c0.9,6.7,1.1,11.4,0.7,14.5c-0.8,5.8-4.8,15.8-8.1,22.6
						c-6,12.3-9.3,14.1-10.4,14.7c-1.3,0.7-3.5,2-6.1,3.6C17,205.4,11.9,208.2,8.6,208.2z M8.5,200.2L8.5,200.2L8.5,200.2z
						 M12,129.1c-3.6,24.8-5.8,61.1-2.2,70.7c3.4-1.4,10.8-5.9,14.6-8.2c2.7-1.6,5-3,6.5-3.8c0.6-0.4,3.1-3.2,7-11.1
						c3.6-7.4,6.8-16,7.4-20.1c-0.3-0.1-0.6-0.2-0.9-0.4c-2.6-1.7-25.7-16.9-30.6-23.6C13.2,131.6,12.6,130.5,12,129.1z"/>
				</g>
			</g>
		</g>
		<g>
			<g>
				<g>
					<path class="st1" d="M46.6,156.7c-0.8,0-1.5-0.2-2.2-0.7c-2.6-1.7-25.7-16.9-30.6-23.6c-2.8-3.8-5.1-13-6.5-20.1c0,0,0,0,0,0
						c-1.6-7.9-4-21.5-2.1-24.9c1.5-2.7,4.3-3.1,6.4-3.1c-0.2-0.6-0.3-1.1-0.4-1.6c-1.7-6-3.5-12.2,1.6-14.1c4.3-1.6,7.2,2.5,9,4.9
						c0.1,0.2,0.3,0.4,0.5,0.6c1.6-0.9,4.5-2.8,10.1-6.5c1.1-0.7,2.5-0.9,3.7-0.4c1.2,0.5,2.1,1.5,2.4,2.8c0.4,1.7,0.9,2.2,0.9,2.2
						l1.4,1.4c6.1,5.9,12.3,11.9,14.5,15.7c1,1.8,2,4.4,3.2,7.6c0.8,2.3,2.3,6.2,3.4,8.3c0.8-0.2,1.7-0.1,2.5,0.3
						c1.9,0.9,2.8,3.1,2.1,5.1c-3.4,8.8-6.1,14.5-8.1,17.4c-1.8,2.6-3.8,8.4-5.7,16.4c-1.2,4.9-1.9,8.8-1.9,8.9
						c-0.2,1.3-1.1,2.4-2.4,3C47.7,156.6,47.2,156.7,46.6,156.7z M15.1,110.8c2.1,10.2,4.1,15.5,5.2,17c2.6,3.5,14.3,12.1,23.6,18.3
						c0.2-1.1,0.5-2.2,0.8-3.4c2.2-9.2,4.5-15.6,6.9-19.1c0.8-1.1,2.4-4,5.4-11.2c-2.3-2.3-4-6.6-6.2-12.6c-0.9-2.5-1.9-5.1-2.6-6.3
						c-1.9-3.2-9.5-10.5-13.2-14l-1.4-1.4c-0.3-0.3-0.7-0.7-1-1.1c-8.2,5.3-9.3,5.6-10.1,5.8c-1.2,0.3-2.3,0.1-3.3-0.4
						c0.9,3.3,1.2,5.2,0.5,6.9c-1.5,3.6-5.6,3.3-7.3,3.1c0,0-0.1,0-0.1,0C12.6,95.9,13.5,102.8,15.1,110.8L15.1,110.8z"/>
				</g>
			</g>
		</g>
		<g>
			<g>
				<g>
					<path class="st1" d="M200.8,140.5c-18.2,0-38.1-6.3-57.6-18.4c-1.3-0.8-2-2.2-1.9-3.7c0,0,0-0.2,0-0.4
						c-0.2-0.1-0.5-0.3-0.7-0.4c-1.3-0.8-3.6-2.2-4.1-5.2c-0.5-3.1,1.5-6.1,3.8-8.3c-0.2-0.9-0.3-1.9-0.1-2.9
						c0.2-1.2,0.6-3.9,10.8-10.1c0.2-0.1,0.5-0.2,0.7-0.3l10.2-3.7c1.8-0.6,3.8,0.1,4.8,1.7l3.1,5.1l7.2,3.6c1,0.5,1.7,1.4,2,2.4
						c3.6,11.9,43.8,12,71.2,8.3c1.6-0.2,3.2,0.5,4,1.9c0.8,1.4,0.7,3.1-0.3,4.4c-12.1,16.1-29.3,25-49.7,25.9
						C203,140.4,201.9,140.5,200.8,140.5z M149.2,116.4c35.7,21.3,69.7,21.4,91.5,0.7c-6.7,0.6-16,1.2-25.6,1.1
						c-24.9-0.3-39-5-43.3-14.4l-6.8-3.4c-0.7-0.3-1.2-0.9-1.6-1.5l-2-3.3l-6.7,2.4c-2.4,1.5-4.8,3.2-6.1,4.3
						c0.5,0.6,0.8,1.4,0.8,2.2c0.1,1.3-0.5,2.6-1.5,3.4c-1.1,0.9-2.2,2-2.9,2.9C146.3,111.7,148.6,113.3,149.2,116.4z M144.4,111.1
						L144.4,111.1L144.4,111.1z M147.7,103.3L147.7,103.3L147.7,103.3z"/>
				</g>
			</g>
		</g>
		<g>
			<g>
				<g>
					<path class="st1" d="M141.9,135.1c-43.5,0-63.7-12-75.7-24.1c0,0,0,0.1-0.1,0.1c-1.3,2.4-3.6,3.5-6.1,3
						c-4.1-0.9-6.2-6-9.2-14.2c-0.9-2.5-1.9-5.1-2.6-6.3c-1.9-3.2-9.5-10.5-13.2-14l-1.4-1.4c-1.4-1.4-2.5-3.4-3.1-6.1c0,0,0,0,0,0
						C29,65.4,30,54.8,32.9,46.7c0.4-1.2,1.3-2.1,2.5-2.4C72,32.3,110.7,25.5,144.2,25c36.9-0.5,66.5,6.5,85.7,20.2
						c17,12.1,25.7,29.1,26.1,50.4c0,1.5-0.8,2.8-2.1,3.6c-1.3,0.7-2.9,0.7-4.1-0.1c-5.2-3.4-11.8-7.1-14-7.8
						c-0.1,0.1-0.2,0.2-0.3,0.3c-0.8,0.9-2.9,3.1-6.3,2.2c-1.4-0.4-5.5-0.9-7.8-1.1c-1-0.1-1.8-0.2-2.2-0.3c-3.2-0.5-4.5-3.4-5.2-5
						c-0.1-0.2-0.2-0.5-0.3-0.8c-1.3-0.6-4.3-1.6-6.1-1.8c-0.1,0.5-0.3,1.1-0.4,1.5c-0.5,2.5-1.2,5.5-4,6.9
						c-2.5,1.2-5.8,0.4-9.6-0.5c-1.7-0.4-3.6-0.9-4.7-0.9c-0.2,0.2-0.6,0.6-0.8,0.8c-1.2,1.3-3.3,3.6-7.1,3.2
						c-2.6-0.3-4.1-1.8-5-3.3c-0.7,0.8-1.4,1.8-1.9,2.7c-0.6,0.9-1.5,1.6-2.6,1.8c-1.1,0.2-2.2,0-3.1-0.7l-2.9-2.1l-10.9,3.9
						c-2.4,1.5-4.8,3.2-6.1,4.3c0.5,0.6,0.8,1.4,0.8,2.2c0.1,1.3-0.5,2.6-1.5,3.4c-1.1,0.9-2.2,2-2.9,2.9c1.5,1,4.4,2.9,4.4,7
						c0,0.4-0.1,1.1-0.1,1.1c-0.5,4.6-3.1,12.5-3.4,13.4c-0.5,1.6-2.1,2.7-3.8,2.7C142,135.1,141.9,135.1,141.9,135.1z M63.1,97.4
						c1.2,0,2.4,0.6,3.2,1.6c0.5,0.6,1,1.3,1.5,1.9c18.7,22.4,47.5,26,71.3,26.2c0.9-2.8,1.9-6.6,2.1-8.8c0,0,0-0.1,0-0.3
						c-0.2-0.1-0.5-0.3-0.7-0.4c-1.3-0.8-3.6-2.2-4.1-5.2c-0.5-3.1,1.5-6.1,3.8-8.3c-0.2-0.9-0.3-1.9-0.1-2.9
						c0.2-1.2,0.6-3.9,10.8-10.1c0.2-0.1,0.5-0.2,0.7-0.3l13.2-4.8c1.2-0.4,2.6-0.3,3.7,0.5l1.4,1c1.9-2.4,4.2-4.4,6.6-4.7
						c2-0.3,4.6,0.3,6,4.3c1.2-1.3,3.2-3.2,6.5-3.2c1.9,0,4.2,0.6,6.6,1.2c1,0.3,2.5,0.6,3.6,0.8c0.1-0.4,0.2-0.8,0.3-1.1
						c0.6-2.7,1.3-6,4.4-7.3c4.6-1.9,13.5,2,14.6,2.8c1.6,1.1,2.3,2.7,2.9,4.1c0,0.1,0.1,0.2,0.2,0.4c0.3,0,0.5,0.1,0.8,0.1
						c3,0.4,5.7,0.7,7.6,1c1-1.1,2.9-2.7,6.1-2.6c2.3,0.1,6.8,2.3,11.4,5c-2-15.1-9.4-27.3-22.2-36.4c-34.7-24.8-109.1-25-185.5-0.5
						c-1.9,6.3-2.6,14.4-1.5,19l0,0c0.4,1.7,0.9,2.2,0.9,2.2l1.4,1.4c6.1,5.9,12.3,11.9,14.5,15.7c1,1.8,2,4.4,3.2,7.6
						c0.3,0.8,0.7,1.9,1.1,3c0.4-1,1.2-1.9,2.2-2.3C62.1,97.5,62.6,97.4,63.1,97.4z M200.3,85.9L200.3,85.9L200.3,85.9z M206.7,84.8
						L206.7,84.8L206.7,84.8z"/>
				</g>
			</g>
		</g>
	</g>
	<g>
		<g>
			<path class="st1" d="M111.5,110c-0.3,0-0.7,0-1-0.1c-19.9-5.2-33.9-12.2-42.7-21.5c-1.5-1.6-1.4-4.1,0.2-5.7
				c1.6-1.5,4.1-1.4,5.7,0.2c7.6,8.1,20.7,14.6,38.9,19.3c2.1,0.6,3.4,2.7,2.9,4.9C114.9,108.8,113.3,110,111.5,110z"/>
		</g>
	</g>
</g>
</svg>
