<?xml version="1.0" encoding="utf-8"?>
<!-- Generator: Adobe Illustrator 22.1.0, SVG Export Plug-In . SVG Version: 6.00 Build 0)  -->
<svg version="1.1" id="Layer_1" xmlns="http://www.w3.org/2000/svg" xmlns:xlink="http://www.w3.org/1999/xlink" x="0px" y="0px"
	 viewBox="0 0 256 256" style="enable-background:new 0 0 256 256;" xml:space="preserve">
<style type="text/css">
	.st0{fill:#F5B31F;}
	.st1{fill:#464646;}
	.st2{opacity:0.15;}
	.st3{fill:#AC6535;}
	.st4{fill:#EB573B;}
	.st5{fill:#90C056;}
	.st6{opacity:0.35;}
	.st7{fill:#FFFFFF;}
	.st8{opacity:0.2;}
	.st9{fill:#F6D67A;}
	.st10{opacity:0.3;}
	.st11{fill:#FFA755;}
	.st12{fill:#8FAE3C;}
	.st13{fill:#BE6BB2;}
	.st14{fill:#B7C536;}
	.st15{opacity:0.1;}
	.st16{fill:#9D5A96;}
	.st17{fill:#EA615D;}
	.st18{opacity:0.4;}
	.st19{fill:#F79932;}
	.st20{fill:#FFEC97;}
	.st21{fill:#FFD11D;}
	.st22{fill:#F7F2D5;}
	.st23{fill:#F6AF72;}
	.st24{fill:#BA6C45;}
	.st25{opacity:0.5;}
	.st26{fill:#E4C074;}
	.st27{fill:#656566;}
	.st28{fill:#FACD1F;}
	.st29{fill:#FFDF66;}
	.st30{fill:#6D6E71;}
	.st31{fill:#E77CAE;}
	.st32{fill:#FFE5C4;}
	.st33{fill:#F68455;}
	.st34{opacity:0.7;}
	.st35{fill:#ADEDFF;}
	.st36{fill:#EC754B;}
	.st37{fill:#4AA5BA;}
	.st38{opacity:0.8;}
	.st39{fill:#92A5AC;}
	.st40{fill:#D06E3C;}
	.st41{fill:#DA4F4B;}
	.st42{fill:#BDF3FF;}
	.st43{fill:#F18BB4;}
	.st44{fill:#F9D97A;}
	.st45{fill:none;}
	.st46{fill:#AF6535;}
	.st47{fill:#B93226;}
	.st48{fill:#FF6050;}
	.st49{fill:#EA7CB1;}
	.st50{fill:#00B0E0;}
	.st51{fill:#EA7DAE;}
	.st52{fill:#BC7532;}
	.st53{fill:#876C6C;}
	.st54{fill:#F9F6CD;}
	.st55{fill:#FFE37B;}
	.st56{fill:#1DDCFF;}
	.st57{fill:#60ACF7;}
	.st58{fill:#C3755A;}
	.st59{fill:#96557A;}
	.st60{fill:#66625D;}
	.st61{fill:#D68032;}
	.st62{fill:#F2A355;}
	.st63{fill:#7E9E6A;}
	.st64{fill:#965A85;}
	.st65{fill:#90CAD3;}
	.st66{fill:#94B57F;}
	.st67{fill:#B2E2E7;}
	.st68{fill:#FFDF8F;}
	.st69{fill:#FFFAEB;}
	.st70{fill:#F88916;}
	.st71{fill:#FFC86E;}
	.st72{fill:#AFA51D;}
	.st73{fill:#968A1C;}
	.st74{fill:#C3556D;}
</style>
<g>
	<g>
		<g>
			<g>
				<path class="st32" d="M220.8,62.1L186.9,96c-2.3-6.3-5.7-11.8-10.3-16.5c-4.6-4.6-10.2-8.1-16.6-10.5l-0.3-0.3L194.3,34
					c-21.7-43.9,47.4-36.4,26.5,0C256.3,15.4,266.6,77.1,220.8,62.1z"/>
			</g>
		</g>
	</g>
	<g class="st15">
		<g>
			<g>
				<path d="M195.5,87.4l-8.6,8.6c-2.3-6.3-5.7-11.8-10.3-16.5c-4.6-4.6-10.2-8.1-16.6-10.5l-0.3-0.3l8.4-8.4
					C182,66.1,191.3,75.1,195.5,87.4z"/>
			</g>
		</g>
	</g>
	<g>
		<g>
			<g>
				<path class="st41" d="M8.5,140c-26.1,26.1,81.6,133.9,107.7,107.8C140.6,223.3,32.9,115.5,8.5,140z M76.1,210.3
					c-2.6,2.6-11.5-2-19.8-10.3c-8.3-8.3-12.9-17.2-10.3-19.8c2.6-2.6,11.5,2,19.8,10.3C74.1,198.8,78.7,207.7,76.1,210.3z"/>
			</g>
		</g>
	</g>
	<g class="st10">
		<g>
			<g>
				<path class="st7" d="M30.5,139.1c-9.4-3.6-17.3-3.8-22,0.9c-13.4,13.4,8.6,48.6,36.8,75.9c0,0-26.4-37.2-30.8-54.4
					S30.5,139.1,30.5,139.1z M76.1,210.3c-2.6,2.6-11.5-2-19.8-10.3c-8.3-8.3-12.9-17.2-10.3-19.8c2.6-2.6,11.5,2,19.8,10.3
					C74.1,198.8,78.7,207.7,76.1,210.3z"/>
			</g>
		</g>
	</g>
	<g>
		<g>
			<g>
				<path class="st4" d="M116.1,247.8C140.6,223.3,32.9,115.5,8.5,140c52.5-62.2,115-84.6,151.5-71c6.4,2.4,12,5.9,16.6,10.5
					c4.6,4.7,8.1,10.2,10.3,16.5C199.6,131.3,174.8,190.1,116.1,247.8z"/>
			</g>
		</g>
	</g>
	<g class="st10">
		<g>
			<g>
				<path class="st7" d="M159.9,69C123.5,55.4,61,77.8,8.5,140c4.6-4.6,12.2-4.5,21.3-1.2C56.1,100.7,99.8,77.7,159.9,69z"/>
			</g>
		</g>
	</g>
	<g>
		<g>
			<g>
				<path class="st1" d="M105.2,255.8c-2.6,0-5.6-0.4-9-1.3c-32.7-8.7-85.6-61.7-94.4-94.5c-3.3-12.4,0.3-19.3,3.9-22.9l0,0
					c3.3-3.3,9.6-6.6,21-3.5c32.5,8.7,87.1,63.4,95.8,95.9c3.1,11.4-0.2,17.8-3.5,21.1C116.4,253.2,112.1,255.8,105.2,255.8z
					 M18.2,140.4c-3,0-5.3,0.8-6.9,2.4c0,0,0,0,0,0c-3.1,3.1-3.7,8.2-1.8,15.1c8.1,30.2,58.7,80.8,88.8,88.8c6.9,1.9,12,1.2,15-1.8
					c2.6-2.6,3.1-7.1,1.5-13.4c-3.7-13.7-17.9-34.1-37-53.3c-19.1-19.1-39.5-33.3-53.2-37C22.2,140.7,20.1,140.4,18.2,140.4z
					 M8.5,140L8.5,140L8.5,140z M74,215c-6.1,0-14.6-6.3-20.5-12.2c-8.3-8.2-15.9-19.9-10.3-25.5c5.6-5.6,17.2,2.1,25.5,10.3
					c8.3,8.3,15.9,19.9,10.3,25.5C78,214,76.5,215,74,215C74,215,74,215,74,215z M73.2,207.5C73.2,207.5,73.2,207.5,73.2,207.5
					C73.2,207.5,73.2,207.5,73.2,207.5z M49.5,183.7c0.9,2.6,3.8,7.7,9.6,13.4c5.8,5.8,10.8,8.7,13.4,9.6c-0.9-2.6-3.8-7.7-9.6-13.4
					C57.2,187.5,52.1,184.6,49.5,183.7z"/>
			</g>
		</g>
	</g>
	<g>
		<g>
			<g>
				<path class="st1" d="M116.1,251.8c-1,0-2.1-0.4-2.8-1.2c-1.6-1.6-1.5-4.1,0-5.6c8.7-8.7-6.9-38.1-35.7-66.8
					c-28.5-28.5-57.7-44-66.4-35.3c-1.5,1.5-4,1.6-5.5,0.1c-1.6-1.5-1.7-3.9-0.3-5.5c25.1-29.7,53.9-52.2,83.2-65
					c27.3-11.9,53.1-14.5,72.7-7.2c7,2.6,13.1,6.5,18.1,11.4c5,5,8.8,11.1,11.3,17.9c13.8,38.3-14.4,99.6-71.7,156
					C118.2,251.4,117.1,251.8,116.1,251.8z M20.4,132.5c6.9,0.6,14.3,3.7,20.4,7c13,7,28.1,18.7,42.5,33
					c14.4,14.4,26.2,29.6,33.3,42.7c3.1,5.9,6.1,12.8,6.9,19.4c22.9-24.2,40.4-49.2,51.1-72.8c11.6-25.5,14.5-47.8,8.5-64.5
					c-2.1-5.8-5.2-10.8-9.4-15c-4.2-4.1-9.3-7.4-15.2-9.6c-17.6-6.6-41.3-4.1-66.7,7C67,90.6,42.5,108.7,20.4,132.5z"/>
			</g>
		</g>
	</g>
	<g>
		<g>
			<g>
				<path class="st1" d="M186.9,100c-0.3,0-0.6,0-0.9-0.1c-1.3-0.3-2.4-1.3-2.9-2.5c-2.1-5.8-5.2-10.8-9.4-15
					c-4.2-4.1-9.3-7.4-15.2-9.6c-0.5-0.2-1-0.5-1.4-0.9l-0.3-0.3c-1.6-1.6-1.6-4.1,0-5.7l32.7-32.7c-7.9-18-0.4-26.4,3.3-29.3
					c7.9-6.1,20.9-5.2,29.1,1.9c6.1,5.3,8.2,13,6.1,21.3c8.4-1.8,16.1,0.3,21.5,6.3c6.6,7.3,7.9,18.5,2.9,26.3
					c-2.6,4.1-10.7,12.6-30.4,7l-32.2,32.2C189,99.6,188,100,186.9,100z M166.5,67.5c4.9,2.4,9.2,5.5,12.9,9.2
					c3.6,3.6,6.6,7.7,8.9,12.3L218,59.3c1.1-1.1,2.6-1.4,4.1-1c11.3,3.7,19.9,2.6,23.6-3c3-4.7,2.1-11.9-2.1-16.5
					c-4.8-5.2-12.4-5.7-20.9-1.2c-1.6,0.8-3.5,0.5-4.7-0.8c-1.2-1.3-1.5-3.2-0.6-4.8c4.8-8.4,4.6-15.6-0.7-20.2
					c-5.2-4.6-14.1-5.3-18.9-1.6c-4.9,3.8-4.8,11.8,0.2,22c0.8,1.5,0.5,3.4-0.8,4.6L166.5,67.5z"/>
			</g>
		</g>
	</g>
	<g>
		<g>
			<g>
				<path class="st32" d="M76.1,210.3c-2.6,2.6-11.5-2-19.8-10.3c-8.3-8.3-12.9-17.2-10.3-19.8c2.6-2.6,11.5,2,19.8,10.3
					C74.1,198.8,78.7,207.7,76.1,210.3z"/>
			</g>
		</g>
	</g>
	<g>
		<g>
			<g>
				<path class="st1" d="M74,215c-1.9,0-4.4-0.6-7.5-2.2c-4.1-2.1-8.7-5.7-13-10c-8.2-8.3-15.9-19.9-10.3-25.5
					c1.8-1.8,5.5-3.3,12.4,0.3c4.1,2.1,8.7,5.7,13,10c8.2,8.3,15.9,19.9,10.3,25.5l0,0C77.9,214.1,76.3,215,74,215z M76.1,210.3
					L76.1,210.3L76.1,210.3z M49.5,183.7c0.9,2.6,3.8,7.7,9.6,13.4c5.8,5.8,10.8,8.7,13.4,9.6c-0.9-2.6-3.8-7.7-9.6-13.4
					C57.2,187.5,52.1,184.6,49.5,183.7z"/>
			</g>
		</g>
	</g>
	<g>
		<g>
			<g>
				<path class="st1" d="M125.5,188.8c-1.2,0-2.4-0.6-3.2-1.6c-15-20.5-33.3-38.7-54.2-54.2c-1.8-1.3-2.2-3.8-0.8-5.6
					s3.8-2.2,5.6-0.8c21.5,15.9,40.3,34.7,55.8,55.9c1.3,1.8,0.9,4.3-0.9,5.6C127.1,188.5,126.3,188.8,125.5,188.8z"/>
			</g>
		</g>
	</g>
	<g>
		<g>
			<g>
				<path class="st1" d="M162.8,195.5c-1.4,0-2.7-0.7-3.5-2c-9.2-15.6-19.9-30.4-32-43.9c-1.5-1.6-1.3-4.2,0.3-5.6
					c1.6-1.5,4.2-1.3,5.6,0.3c12.4,13.9,23.5,29.1,32.9,45.2c1.1,1.9,0.5,4.4-1.4,5.5C164.2,195.3,163.5,195.5,162.8,195.5z"/>
			</g>
		</g>
	</g>
	<g>
		<g>
			<g>
				<path class="st1" d="M93,116.2c-0.9,0-1.7-0.3-2.5-0.8c-9.4-7.3-19.5-14.3-30-20.8c-1.9-1.2-2.5-3.6-1.3-5.5
					c1.2-1.9,3.6-2.5,5.5-1.3c10.8,6.6,21.2,13.8,30.8,21.3c1.7,1.4,2,3.9,0.7,5.6C95.4,115.7,94.2,116.2,93,116.2z"/>
			</g>
		</g>
	</g>
	<g>
		<g>
			<g>
				<path class="st1" d="M164.3,149.2c-1.2,0-2.4-0.5-3.2-1.6c-19.5-25.3-44.1-48-73.2-67.7c-1.8-1.2-2.3-3.7-1.1-5.6
					c1.2-1.8,3.7-2.3,5.6-1.1c29.8,20.2,55.1,43.5,75.1,69.5c1.3,1.7,1,4.3-0.7,5.6C166,148.9,165.2,149.2,164.3,149.2z"/>
			</g>
		</g>
	</g>
	<g>
		<g>
			<g>
				<path class="st1" d="M188.4,136.8c-1.3,0-2.6-0.6-3.3-1.8c-9.5-14.3-21.1-27.9-34.5-40.4c-1.6-1.5-1.7-4-0.2-5.7
					c1.5-1.6,4-1.7,5.7-0.2c13.8,12.9,25.8,27,35.7,41.8c1.2,1.8,0.7,4.3-1.1,5.5C190,136.6,189.2,136.8,188.4,136.8z"/>
			</g>
		</g>
	</g>
	<g>
		<g>
			<g>
				<path class="st1" d="M194.7,75.3c-1,0-2-0.4-2.8-1.2c-1.6-1.6-1.6-4.1,0-5.7l10.8-10.8c1.6-1.6,4.1-1.6,5.7,0
					c1.6,1.6,1.6,4.1,0,5.7l-10.8,10.8C196.8,74.9,195.7,75.3,194.7,75.3z"/>
			</g>
		</g>
	</g>
</g>
</svg>
