<?xml version="1.0" encoding="utf-8"?>
<!-- Generator: Adobe Illustrator 22.1.0, SVG Export Plug-In . SVG Version: 6.00 Build 0)  -->
<svg version="1.1" id="Layer_1" xmlns="http://www.w3.org/2000/svg" xmlns:xlink="http://www.w3.org/1999/xlink" x="0px" y="0px"
	 viewBox="0 0 256 256" style="enable-background:new 0 0 256 256;" xml:space="preserve">
<style type="text/css">
	.st0{fill:#F5B31F;}
	.st1{fill:#464646;}
	.st2{opacity:0.15;}
	.st3{fill:#AC6535;}
	.st4{fill:#EB573B;}
	.st5{fill:#90C056;}
	.st6{opacity:0.35;}
	.st7{fill:#FFFFFF;}
	.st8{opacity:0.2;}
	.st9{fill:#F6D67A;}
	.st10{opacity:0.3;}
	.st11{fill:#FFA755;}
	.st12{fill:#8FAE3C;}
	.st13{fill:#BE6BB2;}
	.st14{fill:#B7C536;}
	.st15{opacity:0.1;}
	.st16{fill:#9D5A96;}
	.st17{fill:#EA615D;}
	.st18{opacity:0.4;}
	.st19{fill:#F79932;}
	.st20{fill:#FFEC97;}
	.st21{fill:#FFD11D;}
	.st22{fill:#F7F2D5;}
	.st23{fill:#F6AF72;}
	.st24{fill:#BA6C45;}
	.st25{opacity:0.5;}
	.st26{fill:#E4C074;}
	.st27{fill:#656566;}
	.st28{fill:#FACD1F;}
	.st29{fill:#FFDF66;}
	.st30{fill:#6D6E71;}
	.st31{fill:#E77CAE;}
	.st32{fill:#FFE5C4;}
	.st33{fill:#F68455;}
	.st34{opacity:0.7;}
	.st35{fill:#ADEDFF;}
	.st36{fill:#EC754B;}
	.st37{fill:#4AA5BA;}
	.st38{opacity:0.8;}
	.st39{fill:#92A5AC;}
	.st40{fill:#D06E3C;}
	.st41{fill:#DA4F4B;}
	.st42{fill:#BDF3FF;}
	.st43{fill:#F18BB4;}
	.st44{fill:#F9D97A;}
	.st45{fill:none;}
	.st46{fill:#AF6535;}
	.st47{fill:#B93226;}
	.st48{fill:#FF6050;}
	.st49{fill:#EA7CB1;}
	.st50{fill:#00B0E0;}
	.st51{fill:#EA7DAE;}
	.st52{fill:#BC7532;}
	.st53{fill:#876C6C;}
	.st54{fill:#F9F6CD;}
	.st55{fill:#FFE37B;}
	.st56{fill:#1DDCFF;}
	.st57{fill:#60ACF7;}
	.st58{fill:#C3755A;}
	.st59{fill:#96557A;}
	.st60{fill:#66625D;}
	.st61{fill:#D68032;}
	.st62{fill:#F2A355;}
	.st63{fill:#7E9E6A;}
	.st64{fill:#965A85;}
	.st65{fill:#90CAD3;}
	.st66{fill:#94B57F;}
	.st67{fill:#B2E2E7;}
	.st68{fill:#FFDF8F;}
	.st69{fill:#FFFAEB;}
	.st70{fill:#F88916;}
	.st71{fill:#FFC86E;}
	.st72{fill:#AFA51D;}
	.st73{fill:#968A1C;}
	.st74{fill:#C3556D;}
</style>
<g>
	<g>
		<g>
			<g>
				<path class="st21" d="M81.4,134.6c0,5.9,0,38.5,0,38.5l-49.2,0c0,0,0-32.6,0-38.5c0-5.9,10.6-20.5,13.2-20.5
					c2.6,0,11.4,0,11.4,0s8.8,0,11.4,0C70.8,114.1,81.4,128.8,81.4,134.6z"/>
			</g>
		</g>
	</g>
	<g class="st25">
		<g>
			<g>
				<path class="st7" d="M68.2,114.1c-2.6,0-11.4,0-11.4,0s-8.8,0-11.4,0c-2.6,0-13.2,14.6-13.2,20.5c0,5.9,0,38.5,0,38.5
					s3.4-34.3,13.5-44.6S68.2,114.1,68.2,114.1z"/>
			</g>
		</g>
	</g>
	<g>
		<g>
			<g>
				<path class="st54" d="M4,59.5c0,0,0,44,0,65.9c0,22,19.1,70.9,44.6,70.9l107.3,0c18.6,0,32.4-17.4,40.6-36.2
					c2.4-5.5,4.3-11.2,5.7-16.5c0.4-1.4,0.7-2.7,0.9-4c1-4.5,1.6-8.6,1.7-12.3c0-0.8,0.1-1.6,0.1-2.4l0-54.9c0-6.3,0-10.4,0-10.4
					L4,59.5z M81.4,173.1l-49.2,0c0,0,0-32.6,0-38.5c0-5.9,10.6-20.5,13.2-20.5c2.6,0,11.4,0,11.4,0s8.8,0,11.4,0
					c2.6,0,13.2,14.6,13.2,20.5C81.4,140.5,81.4,173.1,81.4,173.1z"/>
			</g>
		</g>
	</g>
	<g class="st15">
		<g>
			<g>
				<path d="M140.4,197.4c37.6,0.8,48-18.5,56.1-37.3c2.4-5.5,4.3-11.2,5.7-16.5c0.4-1.4,0.7-2.7,0.9-4c1-4.5,1.6-8.6,1.7-12.3
					c0-0.8,0.1-1.6,0.1-2.4l0-54.9c0-6.3,0-10.4,0-10.4l-13.4,0c0,0,5.2,70.8-9.4,98.5C160.4,198.2,140.4,197.4,140.4,197.4z"/>
			</g>
		</g>
	</g>
	<g class="st15">
		<g>
			<g>
				<path d="M67.6,110.6c0,0,10,1.5,13.8,4.9s8.3,10.3,8.5,15.9c0.1,5.5,3,45.2-1.8,48.8s-32.9,1.4-36.7,1.4s-20.9-5.8-20.9-5.8
					l51-2.7l-1.7-44.1L67.6,110.6z"/>
			</g>
		</g>
	</g>
	<g class="st25">
		<g>
			<g>
				<path class="st7" d="M19.1,59.5l-14.2,0c0,0,0,44,0,65.9s19.1,70.9,44.6,70.9l57.2,0c0,0-63.7-3.9-76.4-26.9
					S19.1,59.5,19.1,59.5z"/>
			</g>
		</g>
	</g>
	<g>
		<g>
			<g>
				<path class="st1" d="M155.9,200.3C155.9,200.3,155.9,200.3,155.9,200.3H48.6c-12.8,0-25.3-10.4-35.4-29.3
					C5.3,156.2,0,137.9,0,125.5V59.5c0-1.1,0.4-2.1,1.2-2.8c0.8-0.8,1.8-1.2,2.8-1.2c0,0,0,0,0,0l200.9,0c2.2,0,4,1.8,4,4v65.4
					c0,0.9,0,1.8-0.1,2.7c-0.2,3.8-0.8,8.2-1.8,12.9c-0.2,1.2-0.6,2.5-1,4.1c-1.5,5.8-3.5,11.6-5.9,17.1
					C189.5,186.3,173.4,200.3,155.9,200.3z M8,63.5v61.9c0,11,5,28.2,12.3,41.8c5,9.4,15.3,25.1,28.3,25.1h107.3c0,0,0,0,0,0
					c20.1,0,32.5-23.6,36.9-33.8c2.2-5.1,4.1-10.5,5.5-15.9c0.4-1.5,0.7-2.7,0.9-3.8c0.9-4.3,1.5-8.2,1.7-11.7
					c0-0.8,0.1-1.5,0.1-2.2V63.5L8,63.5z M81.4,177.1C81.4,177.1,81.4,177.1,81.4,177.1l-49.2,0c-2.2,0-4-1.8-4-4v-38.5
					c0-4.7,4-11.2,6.3-14.7c6.7-9.8,9.7-9.8,10.9-9.8h22.7c1.2,0,4.2,0,10.9,9.8c2.4,3.5,6.3,10,6.3,14.7v38.5
					c0,1.1-0.4,2.1-1.2,2.8C83.5,176.7,82.5,177.1,81.4,177.1z M36.2,169.1l41.1,0v-34.5c0-3.5-7.2-14.2-10.1-16.5h-21
					c-2.9,2.3-10.1,13-10.1,16.5V169.1z"/>
			</g>
		</g>
	</g>
	<g>
		<g>
			<g>
				<path class="st54" d="M232.3,143.6l-30.1,0c0.4-1.4,0.7-2.7,0.9-4c1-4.5,1.6-8.6,1.7-12.3l21.7,0c9.9,0,9.9-33.5,0-33.5l-21.6,0
					l0-16.3l27.4,0C258.6,77.6,258.6,143.6,232.3,143.6z"/>
			</g>
		</g>
	</g>
	<g class="st15">
		<g>
			<g>
				<rect x="203.6" y="77.6" width="12" height="16.3"/>
			</g>
		</g>
	</g>
	<g class="st15">
		<g>
			<g>
				<path d="M215.6,127.3l-12,0c-0.1,3.6-0.4,7.8-1,12.3c-0.2,1.3-0.3,2.6-0.5,4l13.5,0L215.6,127.3z"/>
			</g>
		</g>
	</g>
	<g>
		<g>
			<g>
				<path class="st1" d="M56.8,118.1C56.8,118.1,56.8,118.1,56.8,118.1c-2.2,0-4-1.8-4-4l0-54.6c0-2.2,1.8-4,4-4c0,0,0,0,0,0
					c2.2,0,4,1.8,4,4l0,54.6C60.8,116.3,59,118.1,56.8,118.1z"/>
			</g>
		</g>
	</g>
	<g>
		<g>
			<g>
				<path class="st1" d="M232.3,147.6C232.3,147.6,232.3,147.6,232.3,147.6L232.3,147.6l-30.1,0c-1.2,0-2.4-0.6-3.2-1.6
					c-0.8-1-1-2.3-0.7-3.5c0.4-1.4,0.7-2.7,0.9-3.8c0.9-4.3,1.5-8.2,1.6-11.7c0.1-2.1,1.9-3.8,4-3.8c0,0,0,0,0,0l21.7,0
					c0.1,0,0.6-0.3,1.2-1.3c3-5.1,3-17.8,0-22.9c-0.6-1-1-1.3-1.2-1.3l-21.6,0c-2.2,0-4-1.8-4-4l0-16.3c0-2.2,1.8-4,4-4l0,0l27.4,0
					c16.3,0,23.7,19.2,23.7,37C256,128.4,248.6,147.6,232.3,147.6z M232.3,139.6c10.3,0,15.7-14.6,15.7-29c0-14.4-5.4-29-15.7-29
					l-23.4,0l0,8.3l17.6,0c6.9,0,11.4,8.1,11.4,20.8c0,4.9-0.8,9.5-2.1,13c-2.7,6.8-6.9,7.8-9.3,7.8l0,0l-18,0
					c-0.3,2.6-0.7,5.4-1.3,8.3L232.3,139.6L232.3,139.6z"/>
			</g>
		</g>
	</g>
	<g>
		<g>
			<g>
				<path class="st27" d="M226.5,131.3L226.5,131.3L226.5,131.3l-21.7,0c-1.1,0-2.1-0.5-2.9-1.2c-0.8-0.8-1.2-1.9-1.1-3
					c0-0.8,0.1-1.5,0.1-2.2l0-31.1c0-1.1,0.4-2.1,1.2-2.8c0.8-0.8,1.8-1.2,2.8-1.2c0,0,0,0,0,0l21.6,0c2.3,0,6.6,1,9.3,7.8
					c1.4,3.5,2.1,8.1,2.1,13c0,4.9-0.8,9.5-2.1,13C233.1,130.3,228.8,131.3,226.5,131.3z M208.9,123.3l17.6,0c0.1,0,0.6-0.3,1.2-1.3
					c3-5.1,3-17.8,0-22.9c-0.6-1-1-1.3-1.2-1.3l-17.6,0L208.9,123.3z"/>
			</g>
		</g>
	</g>
	<g>
		<g>
			<g>
				<path class="st1" d="M226.5,131.3L226.5,131.3L226.5,131.3l-21.7,0c-1.1,0-2.1-0.5-2.9-1.2c-0.8-0.8-1.2-1.9-1.1-3
					c0-0.8,0.1-1.5,0.1-2.2l0-31.1c0-1.1,0.4-2.1,1.2-2.8c0.8-0.8,1.8-1.2,2.8-1.2c0,0,0,0,0,0l21.6,0c2.3,0,6.6,1,9.3,7.8
					c1.4,3.5,2.1,8.1,2.1,13c0,4.9-0.8,9.5-2.1,13C233.1,130.3,228.8,131.3,226.5,131.3z M208.9,123.3l17.6,0c0.1,0,0.6-0.3,1.2-1.3
					c3-5.1,3-17.8,0-22.9c-0.6-1-1-1.3-1.2-1.3l-17.6,0L208.9,123.3z"/>
			</g>
		</g>
	</g>
</g>
</svg>
