<?xml version="1.0" encoding="utf-8"?>
<!-- Generator: Adobe Illustrator 22.1.0, SVG Export Plug-In . SVG Version: 6.00 Build 0)  -->
<svg version="1.1" id="Layer_1" xmlns="http://www.w3.org/2000/svg" xmlns:xlink="http://www.w3.org/1999/xlink" x="0px" y="0px"
	 viewBox="0 0 256 256" style="enable-background:new 0 0 256 256;" xml:space="preserve">
<style type="text/css">
	.st0{fill:#F5B31F;}
	.st1{fill:#464646;}
	.st2{opacity:0.15;}
	.st3{fill:#AC6535;}
	.st4{fill:#EB573B;}
	.st5{fill:#90C056;}
	.st6{opacity:0.35;}
	.st7{fill:#FFFFFF;}
	.st8{opacity:0.2;}
	.st9{fill:#F6D67A;}
	.st10{opacity:0.3;}
	.st11{fill:#FFA755;}
	.st12{fill:#8FAE3C;}
	.st13{fill:#BE6BB2;}
	.st14{fill:#B7C536;}
	.st15{opacity:0.1;}
	.st16{fill:#9D5A96;}
	.st17{fill:#EA615D;}
	.st18{opacity:0.4;}
	.st19{fill:#F79932;}
	.st20{fill:#FFEC97;}
	.st21{fill:#FFD11D;}
	.st22{fill:#F7F2D5;}
	.st23{fill:#F6AF72;}
	.st24{fill:#BA6C45;}
	.st25{opacity:0.5;}
	.st26{fill:#E4C074;}
	.st27{fill:#656566;}
	.st28{fill:#FACD1F;}
	.st29{fill:#FFDF66;}
	.st30{fill:#6D6E71;}
	.st31{fill:#E77CAE;}
	.st32{fill:#FFE5C4;}
	.st33{fill:#F68455;}
	.st34{opacity:0.7;}
	.st35{fill:#ADEDFF;}
	.st36{fill:#EC754B;}
	.st37{fill:#4AA5BA;}
	.st38{opacity:0.8;}
	.st39{fill:#92A5AC;}
	.st40{fill:#D06E3C;}
	.st41{fill:#DA4F4B;}
	.st42{fill:#BDF3FF;}
	.st43{fill:#F18BB4;}
	.st44{fill:#F9D97A;}
	.st45{fill:none;}
	.st46{fill:#AF6535;}
	.st47{fill:#B93226;}
	.st48{fill:#FF6050;}
	.st49{fill:#EA7CB1;}
	.st50{fill:#00B0E0;}
	.st51{fill:#EA7DAE;}
	.st52{fill:#BC7532;}
	.st53{fill:#876C6C;}
	.st54{fill:#F9F6CD;}
	.st55{fill:#FFE37B;}
	.st56{fill:#1DDCFF;}
	.st57{fill:#60ACF7;}
	.st58{fill:#C3755A;}
	.st59{fill:#96557A;}
	.st60{fill:#66625D;}
	.st61{fill:#D68032;}
	.st62{fill:#F2A355;}
	.st63{fill:#7E9E6A;}
	.st64{fill:#965A85;}
	.st65{fill:#90CAD3;}
	.st66{fill:#94B57F;}
	.st67{fill:#B2E2E7;}
	.st68{fill:#FFDF8F;}
	.st69{fill:#FFFAEB;}
	.st70{fill:#F88916;}
	.st71{fill:#FFC86E;}
	.st72{fill:#AFA51D;}
	.st73{fill:#968A1C;}
	.st74{fill:#C3556D;}
</style>
<g>
	<g>
		<g>
			<rect x="116.8" y="36.7" class="st7" width="22.7" height="31.9"/>
		</g>
	</g>
	<g class="st15">
		<g>
			<rect x="132.5" y="36.7" width="7" height="31.9"/>
		</g>
	</g>
	<g>
		<g>
			<path class="st58" d="M139.5,25.5c0,0,0,4.7,0,11.2l-22.7,0c0-6.4,0-11.2,0-11.2c-4.3,0-4.3-12.2,0-12.2l22.7,0
				C143.8,13.3,143.8,25.5,139.5,25.5z"/>
		</g>
	</g>
	<g>
		<g>
			<polygon class="st58" points="139.5,4 139.5,13.3 116.8,13.3 116.8,4 			"/>
		</g>
	</g>
	<g>
		<g>
			<rect x="91.1" y="129.3" class="st4" width="74.1" height="58.2"/>
		</g>
	</g>
	<g class="st15">
		<g>
			<rect x="155.7" y="129.3" width="10.1" height="58.2"/>
		</g>
	</g>
	<g class="st10">
		<g>
			<rect x="90.5" y="129.3" class="st7" width="11.4" height="58.2"/>
		</g>
	</g>
	<g>
		<g>
			<path class="st59" d="M165.2,187.5l0,55.6c0,5.6-4.4,8.9-8.9,8.9c-4.5,0-28.1,0-28.1,0s-23.6,0-28.1,0s-8.9-3.4-8.9-8.9l0-55.6
				L165.2,187.5z"/>
		</g>
	</g>
	<g class="st10">
		<g>
			<path class="st7" d="M101.9,187.5c0,0,0,32.7,0,48.4c0,15.6,26.3,16.1,26.3,16.1l-32,0c0,0-3.6,0-4.3,0c-0.7,0-1.4-3.3-1.4-8.9
				l0-55.6L101.9,187.5z"/>
		</g>
	</g>
	<g>
		<g>
			<path class="st59" d="M165.2,122.2l0,7.1l-74.1,0l0-7.1c0-9.7,4.6-24.4,11.1-31.5c6.5-7.1,14.6-11.6,14.6-20l0-2.1l22.7,0l0,2.1
				c0,8.4,8.1,12.9,14.6,20C160.6,97.8,165.2,112.5,165.2,122.2z"/>
		</g>
	</g>
	<g class="st10">
		<g>
			<path class="st7" d="M123,68.6l-7.6,0l-0.4,2.1c0,8.4-8.7,12.9-14.5,20c-5.8,7.1-9.9,21.9-9.9,31.5l0,7.1l10.7,0
				c0,0,0.4-27.9,9.4-36.8C123,83.2,123,68.6,123,68.6z"/>
		</g>
	</g>
	<g class="st15">
		<g>
			<path d="M155.7,187.5l0,55.6l0,8.9l5.7,0c0,0,3.6,0,4.3,0c0.7,0,1.4-3.3,1.4-8.9l0-55.6L155.7,187.5z"/>
		</g>
	</g>
	<g class="st15">
		<g>
			<path d="M134.1,68.6l5.7,0l0.5,2.6c0,8.4,10.4,12.4,16.2,19.5c5.8,7.1,9.9,21.9,9.9,31.5l0,7.1l-10.7,0c0,0,0.6-28.9-9.4-36.8
				C134.1,82.7,134.1,68.6,134.1,68.6z"/>
		</g>
	</g>
	<g>
		<g>
			<path class="st1" d="M139.5,40.7C139.5,40.7,139.5,40.7,139.5,40.7l-22.7,0c-2.2,0-4-1.8-4-4l0-8.7c-0.6-0.5-1.2-1.2-1.7-2
				c-2.1-3.6-2.1-9.6,0-13.2c1.3-2.2,3.3-3.5,5.7-3.5c0,0,0,0,0,0l22.7,0c2.6,0,4.8,1.5,6,4.2c0.8,1.6,1.2,3.7,1.2,5.9
				c0,2.2-0.4,4.3-1.2,5.9c-0.5,1.1-1.2,2-2,2.7l0,8.6C143.5,38.9,141.8,40.7,139.5,40.7z M120.8,32.7l14.7,0l0-7.2
				c0-1.1,0.4-2.1,1.2-2.8c0.5-0.5,1.1-0.8,1.7-1c0.4-1.1,0.4-3.2,0.1-4.3l-20.6,0c-0.4,1.1-0.3,3.3,0.1,4.3c0.6,0.2,1.2,0.5,1.7,1
				c0.8,0.8,1.2,1.8,1.2,2.8L120.8,32.7z M116.8,17.3C116.8,17.3,116.8,17.3,116.8,17.3L116.8,17.3L116.8,17.3z"/>
		</g>
	</g>
	<g>
		<g>
			<path class="st1" d="M139.5,72.6C139.5,72.6,139.5,72.6,139.5,72.6l-22.7,0c-1.1,0-2.1-0.4-2.8-1.2c-0.8-0.8-1.2-1.8-1.2-2.8
				l0-31.9c0-2.2,1.8-4,4-4c0,0,0,0,0,0l22.7,0c2.2,0,4,1.8,4,4l0,31.9c0,1.1-0.4,2.1-1.2,2.8C141.6,72.2,140.6,72.6,139.5,72.6z
				 M120.8,64.6l14.7,0l0-23.9l-14.7,0L120.8,64.6z"/>
		</g>
	</g>
	<g>
		<g>
			<path class="st1" d="M165.2,133.3C165.2,133.3,165.2,133.3,165.2,133.3l-74.1,0c-1.1,0-2.1-0.4-2.8-1.2c-0.8-0.8-1.2-1.8-1.2-2.8
				l0-7.1c0-10.1,4.6-26,12.1-34.2c1.8-2,3.8-3.8,5.6-5.5c4.9-4.6,8-7.6,8-11.8v-2.1c0-1.1,0.4-2.1,1.2-2.8c0.8-0.8,1.8-1.2,2.8-1.2
				c0,0,0,0,0,0l22.7,0c2.2,0,4,1.8,4,4v2.1c0,4.2,3,7.2,8,11.8c1.8,1.7,3.8,3.5,5.6,5.5c7.5,8.2,12.1,24.2,12.1,34.2l0,0l0,0l0,7.1
				C169.2,131.5,167.4,133.3,165.2,133.3z M95.1,125.3l66.1,0v-3.1l0,0c0-8.4-4.1-22.3-10-28.8c-1.6-1.8-3.4-3.4-5.1-5
				c-4.8-4.4-9.7-8.9-10.4-15.8l-14.9,0C120,79.4,115,84,110.3,88.4c-1.7,1.6-3.5,3.2-5.1,5c-5.9,6.5-10,20.4-10,28.8V125.3z"/>
		</g>
	</g>
	<g>
		<g>
			<path class="st1" d="M156.3,256C156.3,256,156.3,256,156.3,256l-56.3,0c-6.3,0-12.9-4.8-12.9-12.9l0-55.6c0-2.2,1.8-4,4-4
				c0,0,0,0,0,0l74.1,0c2.2,0,4,1.8,4,4l0,55.6c0,3.7-1.4,7.1-4,9.5C162.8,254.8,159.6,256,156.3,256z M95.1,191.5l0,51.6
				c0,3.6,2.9,4.9,4.9,4.9l56.2,0h0c1.3,0,2.5-0.5,3.4-1.3c1-0.9,1.5-2.1,1.5-3.6l0-51.6L95.1,191.5z"/>
		</g>
	</g>
	<g>
		<g>
			<path class="st1" d="M165.2,191.5C165.2,191.5,165.2,191.5,165.2,191.5l-74.1,0c-2.2,0-4-1.8-4-4l0-58.2c0-1.1,0.4-2.1,1.2-2.8
				c0.8-0.8,1.8-1.2,2.8-1.2c0,0,0,0,0,0l74.1,0c2.2,0,4,1.8,4,4l0,58.2c0,1.1-0.4,2.1-1.2,2.8C167.3,191,166.3,191.5,165.2,191.5z
				 M95.1,183.5l66.1,0l0-50.2l-66.1,0L95.1,183.5z"/>
		</g>
	</g>
	<g>
		<g>
			<path class="st1" d="M116.8,17.3c-1.1,0-2.1-0.4-2.8-1.2c-0.8-0.8-1.2-1.8-1.2-2.8l0-9.4c0-1.1,0.4-2.1,1.2-2.8
				c0.8-0.8,1.8-1.2,2.8-1.2c0,0,0,0,0,0l22.7,0c2.2,0,4,1.8,4,4l0,9.4c0,2.2-1.8,4-4,4L116.8,17.3
				C116.8,17.3,116.8,17.3,116.8,17.3z M120.8,8l0,1.4l14.7,0l0-1.4L120.8,8z"/>
		</g>
	</g>
</g>
</svg>
