<?xml version="1.0" encoding="utf-8"?>
<!-- Generator: Adobe Illustrator 22.1.0, SVG Export Plug-In . SVG Version: 6.00 Build 0)  -->
<svg version="1.1" id="Layer_1" xmlns="http://www.w3.org/2000/svg" xmlns:xlink="http://www.w3.org/1999/xlink" x="0px" y="0px"
	 viewBox="0 0 256 256" style="enable-background:new 0 0 256 256;" xml:space="preserve">
<style type="text/css">
	.st0{fill:#F5B31F;}
	.st1{fill:#464646;}
	.st2{opacity:0.15;}
	.st3{fill:#AC6535;}
	.st4{fill:#EB573B;}
	.st5{fill:#90C056;}
	.st6{opacity:0.35;}
	.st7{fill:#FFFFFF;}
	.st8{opacity:0.2;}
	.st9{fill:#F6D67A;}
	.st10{opacity:0.3;}
	.st11{fill:#FFA755;}
	.st12{fill:#8FAE3C;}
	.st13{fill:#BE6BB2;}
	.st14{fill:#B7C536;}
	.st15{opacity:0.1;}
	.st16{fill:#9D5A96;}
	.st17{fill:#EA615D;}
	.st18{opacity:0.4;}
	.st19{fill:#F79932;}
	.st20{fill:#FFEC97;}
	.st21{fill:#FFD11D;}
	.st22{fill:#F7F2D5;}
	.st23{fill:#F6AF72;}
	.st24{fill:#BA6C45;}
	.st25{opacity:0.5;}
	.st26{fill:#E4C074;}
	.st27{fill:#656566;}
	.st28{fill:#FACD1F;}
	.st29{fill:#FFDF66;}
	.st30{fill:#6D6E71;}
	.st31{fill:#E77CAE;}
	.st32{fill:#FFE5C4;}
	.st33{fill:#F68455;}
	.st34{opacity:0.7;}
	.st35{fill:#ADEDFF;}
	.st36{fill:#EC754B;}
	.st37{fill:#4AA5BA;}
	.st38{opacity:0.8;}
	.st39{fill:#92A5AC;}
	.st40{fill:#D06E3C;}
	.st41{fill:#DA4F4B;}
	.st42{fill:#BDF3FF;}
	.st43{fill:#F18BB4;}
	.st44{fill:#F9D97A;}
	.st45{fill:none;}
	.st46{fill:#AF6535;}
	.st47{fill:#B93226;}
	.st48{fill:#FF6050;}
	.st49{fill:#EA7CB1;}
	.st50{fill:#00B0E0;}
	.st51{fill:#EA7DAE;}
	.st52{fill:#BC7532;}
	.st53{fill:#876C6C;}
	.st54{fill:#F9F6CD;}
	.st55{fill:#FFE37B;}
	.st56{fill:#1DDCFF;}
	.st57{fill:#60ACF7;}
	.st58{fill:#C3755A;}
	.st59{fill:#96557A;}
	.st60{fill:#66625D;}
	.st61{fill:#D68032;}
	.st62{fill:#F2A355;}
	.st63{fill:#7E9E6A;}
	.st64{fill:#965A85;}
	.st65{fill:#90CAD3;}
	.st66{fill:#94B57F;}
	.st67{fill:#B2E2E7;}
	.st68{fill:#FFDF8F;}
	.st69{fill:#FFFAEB;}
	.st70{fill:#F88916;}
	.st71{fill:#FFC86E;}
	.st72{fill:#AFA51D;}
	.st73{fill:#968A1C;}
	.st74{fill:#C3556D;}
</style>
<g>
	<g>
		<g>
			<path class="st54" d="M140.4,208.9c-3.2,1.9-6.5,3.5-10,4.9c-23.3,9-52.2,4.9-78.4-18.6c-37.4-33.5-63.3-98-37.4-126.8
				c20.3-22.6,65.8-16,102.5,4c3.9,2.1,7.7,4.4,11.4,6.9c-9.7,20.2-15.5,44.3-15.5,66.1C113,174.4,124,195.9,140.4,208.9z"/>
		</g>
	</g>
	<g class="st25">
		<g>
			<path class="st7" d="M117.1,72.4c-36.7-20-82.2-26.6-102.5-4c-25.9,28.8,0,93.3,37.4,126.8c0,0-53.4-67.2-25.5-108.3
				S117.1,72.4,117.1,72.4z"/>
		</g>
	</g>
	<g>
		<g>
			<path class="st1" d="M106.6,222.3c-19.6,0-39.6-8.2-57.3-24.1c-27.2-24.4-47.4-63.1-49.1-94.3C-0.6,88.2,3.3,75,11.6,65.7
				C22,54.2,38.7,48.9,60,50.5c18.7,1.3,39.6,7.9,59,18.5c4,2.2,8,4.6,11.7,7c1.7,1.1,2.3,3.3,1.4,5.1c-9.6,20-15.1,43.4-15.1,64.3
				c0,25.7,9.2,47.2,25.9,60.4c1,0.8,1.6,2.1,1.5,3.4c-0.1,1.3-0.8,2.5-1.9,3.2c-3.4,2-6.9,3.7-10.6,5.2
				C123.6,220.7,115.1,222.3,106.6,222.3z M52.9,58.2c-14.5,0-27.2,3.8-35.3,12.9c-6.9,7.7-10.1,18.6-9.3,32.4
				c1.6,29.2,20.7,65.7,46.4,88.8c23.1,20.7,50.2,27.2,74.3,17.8c1.5-0.6,3-1.2,4.5-1.9c-15.8-14.9-24.4-37-24.4-62.8
				c0-20.9,5.2-44.3,14.4-64.6c-2.7-1.7-5.4-3.3-8.3-4.8C95.6,65.3,72.5,58.2,52.9,58.2z"/>
		</g>
	</g>
	<g>
		<g>
			<path class="st54" d="M252.1,145.4c0,50.2-32.9,78-69.6,78c-1.1,0-2.2,0-3.3-0.1c-14.2-0.7-27.8-5.6-38.9-14.4
				c-16.4-13-27.4-34.6-27.4-63.6c0-21.8,5.8-45.8,15.5-66.1c10.7-22.3,26.2-40.1,44-45c3.3-0.9,6.6-1.4,10-1.4
				C221.4,32.9,252.1,95.2,252.1,145.4z"/>
		</g>
	</g>
	<g class="st25">
		<g>
			<path class="st7" d="M233.1,72.4c-12.6-23-30.5-39.6-50.5-39.6c-3.4,0-6.7,0.5-10,1.4c-17.8,4.9-33.3,22.7-44,45
				c-9.7,20.2-15.5,44.3-15.5,66.1c0,6.8,0.6,13.2,1.7,19.2c0,0,9.5-87.8,50.5-110.3S233.1,72.4,233.1,72.4z"/>
		</g>
	</g>
	<g class="st15">
		<g>
			<path class="st1" d="M243.1,94.9c5.8,16.4,9,34.1,9,50.4c0,50.2-32.9,78-69.6,78c-1.1,0-2.2,0-3.3-0.1
				c-14.2-0.7-27.8-5.6-38.9-14.4c0,0,54.9,20.9,80.8-15.6S243.1,94.9,243.1,94.9z"/>
		</g>
	</g>
	<g class="st15">
		<g>
			<path class="st1" d="M140.4,208.9c-3.2,1.9-6.5,3.5-10,4.9c-1.9-1.2-3.7-2.5-5.5-3.9c-16.4-13-27.4-34.6-27.4-63.6
				c0-21.8,5.8-45.8,15.5-66.1c1.3-2.7,2.6-5.3,4.1-7.8c3.9,2.1,7.7,4.4,11.4,6.9c-9.7,20.2-15.5,44.3-15.5,66.1
				C113,174.4,124,195.9,140.4,208.9z"/>
		</g>
	</g>
	<g>
		<g>
			<path class="st1" d="M182.6,227.4C182.6,227.4,182.6,227.4,182.6,227.4c-1.1,0-2.3,0-3.5-0.1c-15.3-0.7-29.5-6-41.2-15.2
				c-18.6-14.8-28.9-38.5-28.9-66.7c0-22,5.8-46.7,15.9-67.8c12.2-25.4,28.7-42.2,46.6-47.1c3.7-1,7.4-1.5,11.1-1.5c0,0,0,0,0,0
				c19.5,0,38.2,14,52.8,39.4c13,22.6,20.8,51.4,20.8,77c0,0,0,0,0,0c0,24.7-7.7,45.6-22.2,60.6
				C220.6,219.8,202.3,227.4,182.6,227.4z M182.6,36.9c-3,0-6,0.4-8.9,1.2C158.3,42.4,143.2,58,132.1,81
				c-9.6,20-15.1,43.5-15.1,64.3c0,25.7,9.2,47.2,25.9,60.4c10.3,8.2,23,12.9,36.5,13.5c1.1,0,2.2,0.1,3.1,0.1
				c31.6,0,65.6-23.2,65.6-74c0-24.3-7.4-51.6-19.7-73.1C215.3,49.5,199,36.9,182.6,36.9C182.6,36.9,182.6,36.9,182.6,36.9z
				 M252.1,145.4L252.1,145.4L252.1,145.4z"/>
		</g>
	</g>
	<g>
		<g>
			<path class="st1" d="M179,207.3c-0.4,0-0.7,0-1.1-0.1c-25.2-6.9-41.1-22.1-47.3-44.9c-0.6-2.1,0.7-4.3,2.8-4.9
				c2.1-0.6,4.3,0.7,4.9,2.8c5.5,20.2,19.1,33.1,41.7,39.3c2.1,0.6,3.4,2.8,2.8,4.9C182.4,206.2,180.8,207.3,179,207.3z"/>
		</g>
	</g>
</g>
</svg>
