<?xml version="1.0" encoding="utf-8"?>
<!-- Generator: Adobe Illustrator 22.1.0, SVG Export Plug-In . SVG Version: 6.00 Build 0)  -->
<svg version="1.1" id="Layer_1" xmlns="http://www.w3.org/2000/svg" xmlns:xlink="http://www.w3.org/1999/xlink" x="0px" y="0px"
	 viewBox="0 0 256 256" style="enable-background:new 0 0 256 256;" xml:space="preserve">
<style type="text/css">
	.st0{fill:#F5B31F;}
	.st1{fill:#464646;}
	.st2{opacity:0.15;}
	.st3{fill:#AC6535;}
	.st4{fill:#EB573B;}
	.st5{fill:#90C056;}
	.st6{opacity:0.35;}
	.st7{fill:#FFFFFF;}
	.st8{opacity:0.2;}
	.st9{fill:#F6D67A;}
	.st10{opacity:0.3;}
	.st11{fill:#FFA755;}
	.st12{fill:#8FAE3C;}
	.st13{fill:#BE6BB2;}
	.st14{fill:#B7C536;}
	.st15{opacity:0.1;}
	.st16{fill:#9D5A96;}
	.st17{fill:#EA615D;}
	.st18{opacity:0.4;}
	.st19{fill:#F79932;}
	.st20{fill:#FFEC97;}
	.st21{fill:#FFD11D;}
	.st22{fill:#F7F2D5;}
	.st23{fill:#F6AF72;}
	.st24{fill:#BA6C45;}
	.st25{opacity:0.5;}
	.st26{fill:#E4C074;}
	.st27{fill:#656566;}
	.st28{fill:#FACD1F;}
	.st29{fill:#FFDF66;}
	.st30{fill:#6D6E71;}
	.st31{fill:#E77CAE;}
	.st32{fill:#FFE5C4;}
	.st33{fill:#F68455;}
	.st34{opacity:0.7;}
	.st35{fill:#ADEDFF;}
	.st36{fill:#EC754B;}
	.st37{fill:#4AA5BA;}
	.st38{opacity:0.8;}
	.st39{fill:#92A5AC;}
	.st40{fill:#D06E3C;}
	.st41{fill:#DA4F4B;}
	.st42{fill:#BDF3FF;}
	.st43{fill:#F18BB4;}
	.st44{fill:#F9D97A;}
	.st45{fill:none;}
	.st46{fill:#AF6535;}
	.st47{fill:#B93226;}
	.st48{fill:#FF6050;}
	.st49{fill:#EA7CB1;}
	.st50{fill:#00B0E0;}
	.st51{fill:#EA7DAE;}
	.st52{fill:#BC7532;}
	.st53{fill:#876C6C;}
	.st54{fill:#F9F6CD;}
	.st55{fill:#FFE37B;}
	.st56{fill:#1DDCFF;}
	.st57{fill:#60ACF7;}
	.st58{fill:#C3755A;}
	.st59{fill:#96557A;}
	.st60{fill:#66625D;}
	.st61{fill:#D68032;}
	.st62{fill:#F2A355;}
	.st63{fill:#7E9E6A;}
	.st64{fill:#965A85;}
	.st65{fill:#90CAD3;}
	.st66{fill:#94B57F;}
	.st67{fill:#B2E2E7;}
	.st68{fill:#FFDF8F;}
	.st69{fill:#FFFAEB;}
	.st70{fill:#F88916;}
	.st71{fill:#FFC86E;}
	.st72{fill:#AFA51D;}
	.st73{fill:#968A1C;}
	.st74{fill:#C3556D;}
</style>
<g>
	<g>
		<g>
			<path class="st7" d="M172.9,105.1l-91.4,0c4-5.6,8.1-10.9,10.6-15.3c1.6-2.8,2.7-5.2,2.7-7c0-9.1,0-18.3,0-18.3l64.8,0
				c0,0,0,9.2,0,18.3c0,1.8,1,4.2,2.7,7C164.8,94.2,168.9,99.5,172.9,105.1z"/>
		</g>
	</g>
	<g class="st15">
		<g>
			<path d="M163.1,105.1l9.8,0c-4-5.6-8.1-10.9-10.6-15.3c-1.6-2.8-2.7-5.2-2.7-7c0-9.1,0-18.3,0-18.3l-11.4,0
				C148.1,83.6,150.6,94.9,163.1,105.1z"/>
		</g>
	</g>
	<g>
		<g>
			<path class="st69" d="M185.3,130.3l0,106.4c0,10.5-7.2,15.2-13.4,15.2c-6.2,0-44.8,0-44.8,0s-38.5,0-44.8,0
				c-6.2,0-13.4-4.7-13.4-15.2l0-106.4c0-7.1,6.2-16.5,12.5-25.3l91.4,0C179.2,113.9,185.3,123.2,185.3,130.3z"/>
		</g>
	</g>
	<g class="st15">
		<g>
			<path d="M143.3,251.9c6.2,0,42.1,5.7,42.1-15.2l0-106.4c0-7.1-6.2-16.5-12.5-25.3l-9.8,0c0,0,9.8,11.9,9.8,34.6
				c0,16.1-0.5,66.1-0.8,93.6C172,244.5,143.3,251.9,143.3,251.9z"/>
		</g>
	</g>
	<g class="st34">
		<g>
			<path class="st7" d="M171.9,251.9c-6.2,0-44.8,0-44.8,0s-38.5,0-44.8,0c-6.2,0-13.4-4.7-13.4-15.2l0-106.4
				c0-7.1,6.2-16.5,12.5-25.3l13.5,0c-17.4,11.2-11.2,108-11.2,121.2S171.9,251.9,171.9,251.9z"/>
		</g>
	</g>
	<g>
		<g>
			<path class="st69" d="M166.4,64.5l-76.3,0c-8.4,0-8.4-16.7,0-16.7l76.3,0C173.8,47.7,173.8,64.5,166.4,64.5z"/>
		</g>
	</g>
	<g class="st15">
		<g>
			<path d="M157.3,71.4l-58.4,0c-6.5,0-6.5-8.4,0-8.4l58.4,0C163,63,163,71.4,157.3,71.4z"/>
		</g>
	</g>
	<g>
		<g>
			<path class="st58" d="M171.9,16.6c0,6.3-1.8,12.7-5.5,12.7l-76.3,0c-4.2,0-6.3-6.3-6.3-12.7c0-6.3,2.1-12.7,6.3-12.7l76.3,0
				C170.1,3.9,171.9,10.3,171.9,16.6z"/>
		</g>
	</g>
	<g class="st10">
		<g>
			<path class="st7" d="M166.4,3.9l-76.3,0c-4.2,0-6.3,6.3-6.3,12.7c0,6.3,2.1,12.7,6.3,12.7c0,0-3.3-15.5,4-18.8
				S166.4,3.9,166.4,3.9z"/>
		</g>
	</g>
	<g class="st15">
		<g>
			<path d="M166.4,3.9c3.7,0,5.5,6.3,5.5,12.7c0,6.3-1.8,12.7-5.5,12.7l-76.3,0c0,0,72.2-0.9,75.5-9C168.8,12.1,166.4,3.9,166.4,3.9
				z"/>
		</g>
	</g>
	<g>
		<g>
			<path class="st1" d="M172.9,109.1C172.9,109.1,172.9,109.1,172.9,109.1l-91.4,0c-1.5,0-2.9-0.8-3.6-2.2c-0.7-1.3-0.6-2.9,0.3-4.2
				c0.9-1.3,1.8-2.5,2.7-3.7c3-4.1,5.8-8,7.7-11.3c2-3.4,2.1-4.7,2.1-5l0-18.3c0-1.1,0.4-2.1,1.2-2.8c0.8-0.8,1.8-1.2,2.8-1.2l0,0
				l64.8,0c2.2,0,4,1.8,4,4l0,18.3c0,0.3,0.2,1.6,2.1,5c1.9,3.2,4.7,7.1,7.7,11.2c0.9,1.2,1.8,2.5,2.7,3.8c0.9,1.2,1,2.8,0.3,4.2
				C175.7,108.2,174.4,109.1,172.9,109.1z M89.3,101.1l75.7,0c-2.4-3.3-4.6-6.4-6.2-9.3c-2.2-3.8-3.2-6.6-3.2-9.1l0-14.3l-56.8,0
				l0,14.3c0,2.5-1,5.2-3.2,9.1C93.9,94.6,91.7,97.8,89.3,101.1z"/>
		</g>
	</g>
	<g>
		<g>
			<path class="st1" d="M171.9,255.9C171.9,255.9,171.9,255.9,171.9,255.9l-89.5,0c-8.7,0-17.4-6.6-17.4-19.2l0-106.4
				c0-8.4,6.8-18.7,13.2-27.6c0.8-1,2-1.7,3.2-1.7c0,0,0,0,0,0l91.4,0c1.3,0,2.5,0.6,3.2,1.7c6.4,8.9,13.2,19.1,13.2,27.6l0,0l0,0
				l0,106.4c0,7.4-3,11.9-5.6,14.4C180.6,254.2,176.3,255.9,171.9,255.9z M83.5,109.1C77.9,117,73,124.9,73,130.3l0,106.4
				c0,4.2,2,11.2,9.4,11.2l89.5,0h0c2.3,0,4.6-0.9,6.3-2.5c2.1-2,3.2-5,3.2-8.7l0-106.4l0,0c0-5.4-4.9-13.3-10.5-21.3L83.5,109.1z"
				/>
		</g>
	</g>
	<g>
		<g>
			<path class="st1" d="M166.4,68.5C166.4,68.5,166.4,68.5,166.4,68.5l-76.3,0c-3.3,0-6.2-1.6-8.1-4.4c-1.5-2.2-2.3-5-2.3-8
				c0-3,0.8-5.8,2.3-8c1.9-2.8,4.8-4.4,8.1-4.4c0,0,0,0,0,0l76.3,0c5.5,0,9.5,5.2,9.5,12.4c0,2.9-0.7,5.7-1.9,7.8
				C172.3,66.8,169.5,68.5,166.4,68.5z M90.1,51.7c-0.4,0-0.9,0.1-1.4,0.8c-0.6,0.8-0.9,2.2-0.9,3.5c0,1.4,0.3,2.7,0.9,3.5
				c0.5,0.8,1,0.8,1.4,0.8l76.3,0c0.6,0,1.5-1.9,1.5-4.4c0-2.5-0.9-4.4-1.5-4.4L90.1,51.7L90.1,51.7z"/>
		</g>
	</g>
	<g>
		<g>
			<path class="st1" d="M166.4,33.3l-76.3,0c-6.2,0-10.3-6.7-10.3-16.7c0-3.9,0.7-7.5,1.9-10.3c2.4-5.5,6.3-6.3,8.4-6.3c0,0,0,0,0,0
				l76.3,0c2,0,5.7,0.8,7.9,6.5c1.1,2.7,1.7,6.4,1.7,10.2C175.9,26.7,172.2,33.3,166.4,33.3z M90.1,7.9c-0.7,0.3-2.3,3.2-2.3,8.7
				c0,5.4,1.7,8.4,2.3,8.7l76,0c0.7-0.8,1.9-3.9,1.9-8.7c0-4.8-1.2-7.9-1.9-8.7L90.1,7.9z"/>
		</g>
	</g>
	<g>
		<g>
			<path class="st1" d="M185.3,93.8C185.3,93.8,185.3,93.8,185.3,93.8C185.3,93.8,185.3,93.8,185.3,93.8l-23.1,0
				c-1.4,0-2.7-0.8-3.5-2c-2.2-3.8-3.2-6.6-3.2-9.1l0-14.3l-56.8,0l0,14.3c0,2.5-1,5.2-3.2,9.1c-0.7,1.2-2,2-3.5,2c0,0,0,0,0,0
				l-23.1,0c-4,0-9.7-1.7-14.2-9.6c-8.9-15.4-8.9-46.6,0-62c4.6-7.9,10.3-9.6,14.2-9.6c0,0,0,0,0,0l14.8,0c1.1,0,2.1,0.4,2.8,1.2
				c0.8,0.8,1.2,1.8,1.2,2.8c0,5.4,1.7,8.4,2.3,8.7l76,0c0.7-0.8,1.9-3.9,1.9-8.7c0-2.2,1.8-4,4-4c0,0,0,0,0,0l13.4,0
				c7.3,0,13.6,4.9,17.6,13.8c3.2,7.1,5,16.7,5,26.8c0,10.1-1.8,19.7-5,26.8C198.9,88.9,192.7,93.8,185.3,93.8z M185.3,85.8
				c5.1,0,8.4-4.9,10.3-9.1c2.7-6,4.3-14.6,4.3-23.5c0-15.8-5.1-32.6-14.5-32.6l-9.6,0c-0.9,7.8-4.3,12.7-9.3,12.7l-76.3,0
				c-5.3,0-9.1-4.9-10.1-12.7l-11,0c-4.4,0-7.3,4.9-8.9,9c-2.5,6.1-3.9,14.7-3.9,23.6c0,8.9,1.4,17.6,3.9,23.6c1.7,4.1,4.6,9,8.9,9
				l20.7,0c1-1.9,1.1-2.8,1.1-3l0-18.3c0-1.1,0.4-2.1,1.2-2.8c0.8-0.8,1.8-1.2,2.8-1.2l0,0l64.8,0c2.2,0,4,1.8,4,4l0,18.3
				c0,0.3,0.1,1.1,1,3L185.3,85.8z"/>
		</g>
	</g>
</g>
</svg>
