<?xml version="1.0" encoding="utf-8"?>
<!-- Generator: Adobe Illustrator 22.1.0, SVG Export Plug-In . SVG Version: 6.00 Build 0)  -->
<svg version="1.1" id="Layer_1" xmlns="http://www.w3.org/2000/svg" xmlns:xlink="http://www.w3.org/1999/xlink" x="0px" y="0px"
	 viewBox="0 0 256 256" style="enable-background:new 0 0 256 256;" xml:space="preserve">
<style type="text/css">
	.st0{fill:#F5B31F;}
	.st1{fill:#464646;}
	.st2{opacity:0.15;}
	.st3{fill:#AC6535;}
	.st4{fill:#EB573B;}
	.st5{fill:#90C056;}
	.st6{opacity:0.35;}
	.st7{fill:#FFFFFF;}
	.st8{opacity:0.2;}
	.st9{fill:#F6D67A;}
	.st10{opacity:0.3;}
	.st11{fill:#FFA755;}
	.st12{fill:#8FAE3C;}
	.st13{fill:#BE6BB2;}
	.st14{fill:#B7C536;}
	.st15{opacity:0.1;}
	.st16{fill:#9D5A96;}
	.st17{fill:#EA615D;}
	.st18{opacity:0.4;}
	.st19{fill:#F79932;}
	.st20{fill:#FFEC97;}
	.st21{fill:#FFD11D;}
	.st22{fill:#F7F2D5;}
	.st23{fill:#F6AF72;}
	.st24{fill:#BA6C45;}
	.st25{opacity:0.5;}
	.st26{fill:#E4C074;}
	.st27{fill:#656566;}
	.st28{fill:#FACD1F;}
	.st29{fill:#FFDF66;}
	.st30{fill:#6D6E71;}
	.st31{fill:#E77CAE;}
	.st32{fill:#FFE5C4;}
	.st33{fill:#F68455;}
	.st34{opacity:0.7;}
	.st35{fill:#ADEDFF;}
	.st36{fill:#EC754B;}
	.st37{fill:#4AA5BA;}
	.st38{opacity:0.8;}
	.st39{fill:#92A5AC;}
	.st40{fill:#D06E3C;}
	.st41{fill:#DA4F4B;}
	.st42{fill:#BDF3FF;}
	.st43{fill:#F18BB4;}
	.st44{fill:#F9D97A;}
	.st45{fill:none;}
	.st46{fill:#AF6535;}
	.st47{fill:#B93226;}
	.st48{fill:#FF6050;}
	.st49{fill:#EA7CB1;}
	.st50{fill:#00B0E0;}
	.st51{fill:#EA7DAE;}
	.st52{fill:#BC7532;}
	.st53{fill:#876C6C;}
	.st54{fill:#F9F6CD;}
	.st55{fill:#FFE37B;}
	.st56{fill:#1DDCFF;}
	.st57{fill:#60ACF7;}
	.st58{fill:#C3755A;}
	.st59{fill:#96557A;}
	.st60{fill:#66625D;}
	.st61{fill:#D68032;}
	.st62{fill:#F2A355;}
	.st63{fill:#7E9E6A;}
	.st64{fill:#965A85;}
	.st65{fill:#90CAD3;}
	.st66{fill:#94B57F;}
	.st67{fill:#B2E2E7;}
	.st68{fill:#FFDF8F;}
	.st69{fill:#FFFAEB;}
	.st70{fill:#F88916;}
	.st71{fill:#FFC86E;}
	.st72{fill:#AFA51D;}
	.st73{fill:#968A1C;}
	.st74{fill:#C3556D;}
</style>
<g>
	<g>
		<g>
			<path class="st32" d="M167.6,173.7c-69.7-5.1-40.5,48.1-84.8,65.1S0.5,218.3,4.1,160.1c3.4-55.2,21.9-87.9,64.1-120.6
				c43.6-33.7,104.6-40.2,159.3,9.9C282.1,99.6,237.3,178.8,167.6,173.7z"/>
		</g>
	</g>
	<g>
		<g>
			<path class="st41" d="M129.4,158.1c10.8-11-68.2-57.1-85.6-52.4C18.6,112.6,12.1,225,56,225.4c43.9,0.4,38.3-26.6,45.1-39.6
				C107.9,172.8,118.6,169.1,129.4,158.1z"/>
		</g>
	</g>
	<g>
		<g>
			<path class="st1" d="M61.7,246.9c-11.6,0-22.6-3.6-32.2-10.6C9,221.3-2,192.7,0.1,159.9C3.5,105,21.8,70.3,65.7,36.4
				C88.8,18.5,115.1,9,141.9,9c0.6,0,1.2,0,1.8,0c30.3,0.5,60.2,13.4,86.5,37.5c24.9,22.9,32.3,53.9,19.8,83
				c-13.6,31.4-46.8,50.8-82.6,48.2c-37.7-2.8-43.7,11.4-51.2,29.3c-5.5,13.1-11.7,27.8-31.8,35.6C76.7,245.5,69,246.9,61.7,246.9z
				 M141.9,17c-25,0-49.6,8.9-71.3,25.7C28.3,75.5,11.3,107.4,8.1,160.4c-1.9,30.1,7.9,56.1,26.2,69.5c13.5,9.9,30.2,11.7,47.2,5.2
				c16.9-6.5,21.9-18.5,27.3-31.2c7.7-18.4,15.7-37.3,59.2-34.2c2,0.1,3.9,0.2,5.9,0.2c30.1,0,57.3-17,68.8-43.6
				c11.2-25.8,4.5-53.5-17.8-73.9c-25.1-23-52.4-34.9-81.2-35.4C143,17.1,142.4,17,141.9,17z"/>
		</g>
	</g>
	<g>
		<g>
			<path class="st1" d="M62.1,216.3c-4.4,0-8.9-0.6-13.1-1.3c-2.2-0.4-3.6-2.5-3.2-4.6c0.4-2.2,2.5-3.6,4.6-3.2
				c20.7,3.7,27.8-1.6,32-10.6c0.9-2,3.3-2.9,5.3-1.9c2,0.9,2.9,3.3,1.9,5.3C83.7,212.9,73,216.3,62.1,216.3z"/>
		</g>
	</g>
	<g>
		<g>
			<path class="st1" d="M57,229.4c-0.3,0-0.7,0-1,0c-18.4-0.2-31.1-17.3-34.9-47c-2.1-16.2-1.2-35,2.4-50.3c2.3-10,8-27.2,19.3-30.4
				c11.4-3.1,37.1,9.9,47.6,15.6c16.6,9,36.3,22.2,42.2,32.2c3.5,5.9,1.3,9.6-0.3,11.2l0,0c-4.2,4.3-8.3,7.4-12.2,10.5
				c-6.2,4.8-11.6,8.9-15.4,16.3c-1.3,2.5-2.1,5.8-3,9.3C98.2,210.7,93.5,229.4,57,229.4z M47,109.3c-0.8,0-1.5,0.1-2.1,0.2
				c-5.2,1.4-10.5,10.8-13.7,24.5c-3.4,14.4-4.2,32.1-2.2,47.4c1.5,12,7.3,39.8,27.1,40c0.3,0,0.7,0,1,0c30.2,0,33.5-13.4,36.8-26.4
				c1-4,2-7.8,3.7-11.1c4.7-9,11-13.8,17.6-19c3.7-2.8,7.5-5.8,11.2-9.6c-0.1-0.7-1.3-4.3-10.7-11.9C95.5,127.1,59.3,109.3,47,109.3
				z M126.6,155.3l2.9,2.8L126.6,155.3C126.6,155.3,126.6,155.3,126.6,155.3C126.6,155.3,126.6,155.3,126.6,155.3z"/>
		</g>
	</g>
	<g>
		<g>
			<path class="st41" d="M56.4,83.8c-4.1-6.6,43.6-53.7,88-53.7c34.4,0,76.3,33.8,88.8,60.9c9.4,20.4-12.9,30.5-28.4,27.1
				s-47.9-6.3-70.1-3.8S60.8,90.9,56.4,83.8z"/>
		</g>
	</g>
	<g>
		<g>
			<path class="st41" d="M139.8,130.2c4.5-7.4,68.1-2,68.1,5.1c0,7.1-16.6,24.8-36.6,20.4S135.3,137.7,139.8,130.2z"/>
		</g>
	</g>
	<g>
		<g>
			<path class="st1" d="M177.5,160.5c-2.4,0-4.8-0.2-7.1-0.8c-15.7-3.4-30.4-12.8-34.3-21.9c-1.9-4.4-0.9-7.7,0.3-9.7l0,0
				c1.1-1.8,3.7-6.2,29-5.4c13.6,0.4,27.9,2.2,36.4,4.6c5,1.4,10.2,3.4,10.2,8c0,4.7-4.1,11.1-10.5,16.3
				C194.3,157.4,185.9,160.5,177.5,160.5z M143.1,132.5c-0.2,0.5-0.1,1.2,0.3,2.1c2.5,5.8,14.2,14.1,28.7,17.2
				c11.6,2.5,20.8-3.7,24.2-6.5c4.3-3.5,6.6-7,7.3-8.9c-3.2-1.6-13.7-4.1-29.8-5.3C156.1,129.9,145.4,131.2,143.1,132.5z M143,132.7
				L143,132.7L143,132.7z M139.8,130.2L139.8,130.2L139.8,130.2z"/>
		</g>
	</g>
	<g>
		<g>
			<path class="st1" d="M211,122.7c-2.5,0-4.8-0.2-7-0.7c-14.6-3.2-46.6-6.2-68.9-3.8c-14.1,1.6-36-6.8-47.8-12
				C73,100.1,56.3,91.1,53,85.9l0,0c-2.1-3.3,0.2-7.4,0.9-8.7c8.2-14.8,50.1-51.1,90.5-51.1c0,0,0,0,0,0c35.7,0,79,34,92.4,63.3
				c4,8.6,3.3,16.9-1.8,23.2C229.4,119.6,219.7,122.7,211,122.7z M153.4,109.4c19.7,0,41,2.4,52.2,4.8c8.5,1.9,18.7-1.1,23.2-6.7
				c3.2-4,3.4-9,0.7-14.8c-12.2-26.5-52.9-58.6-85.2-58.6c-23.2,0-45.7,13.5-57.1,21.6c-17.1,12.2-25.7,23.2-27,26.6
				c6.3,6.3,53.1,30.4,73.9,28C140.1,109.6,146.7,109.4,153.4,109.4z"/>
		</g>
	</g>
</g>
</svg>
