<?xml version="1.0" encoding="utf-8"?>
<!-- Generator: Adobe Illustrator 22.1.0, SVG Export Plug-In . SVG Version: 6.00 Build 0)  -->
<svg version="1.1" id="Layer_1" xmlns="http://www.w3.org/2000/svg" xmlns:xlink="http://www.w3.org/1999/xlink" x="0px" y="0px"
	 viewBox="0 0 256 256" style="enable-background:new 0 0 256 256;" xml:space="preserve">
<style type="text/css">
	.st0{fill:#F5B31F;}
	.st1{fill:#464646;}
	.st2{opacity:0.15;}
	.st3{fill:#AC6535;}
	.st4{fill:#EB573B;}
	.st5{fill:#90C056;}
	.st6{opacity:0.35;}
	.st7{fill:#FFFFFF;}
	.st8{opacity:0.2;}
	.st9{fill:#F6D67A;}
	.st10{opacity:0.3;}
	.st11{fill:#FFA755;}
	.st12{fill:#8FAE3C;}
	.st13{fill:#BE6BB2;}
	.st14{fill:#B7C536;}
	.st15{opacity:0.1;}
	.st16{fill:#9D5A96;}
	.st17{fill:#EA615D;}
	.st18{opacity:0.4;}
	.st19{fill:#F79932;}
	.st20{fill:#FFEC97;}
	.st21{fill:#FFD11D;}
	.st22{fill:#F7F2D5;}
	.st23{fill:#F6AF72;}
	.st24{fill:#BA6C45;}
	.st25{opacity:0.5;}
	.st26{fill:#E4C074;}
	.st27{fill:#656566;}
	.st28{fill:#FACD1F;}
	.st29{fill:#FFDF66;}
	.st30{fill:#6D6E71;}
	.st31{fill:#E77CAE;}
	.st32{fill:#FFE5C4;}
	.st33{fill:#F68455;}
	.st34{opacity:0.7;}
	.st35{fill:#ADEDFF;}
	.st36{fill:#EC754B;}
	.st37{fill:#4AA5BA;}
	.st38{opacity:0.8;}
	.st39{fill:#92A5AC;}
	.st40{fill:#D06E3C;}
	.st41{fill:#DA4F4B;}
	.st42{fill:#BDF3FF;}
	.st43{fill:#F18BB4;}
	.st44{fill:#F9D97A;}
	.st45{fill:none;}
	.st46{fill:#AF6535;}
	.st47{fill:#B93226;}
	.st48{fill:#FF6050;}
	.st49{fill:#EA7CB1;}
	.st50{fill:#00B0E0;}
	.st51{fill:#EA7DAE;}
	.st52{fill:#BC7532;}
	.st53{fill:#876C6C;}
	.st54{fill:#F9F6CD;}
	.st55{fill:#FFE37B;}
	.st56{fill:#1DDCFF;}
	.st57{fill:#60ACF7;}
	.st58{fill:#C3755A;}
	.st59{fill:#96557A;}
	.st60{fill:#66625D;}
	.st61{fill:#D68032;}
	.st62{fill:#F2A355;}
	.st63{fill:#7E9E6A;}
	.st64{fill:#965A85;}
	.st65{fill:#90CAD3;}
	.st66{fill:#94B57F;}
	.st67{fill:#B2E2E7;}
	.st68{fill:#FFDF8F;}
	.st69{fill:#FFFAEB;}
	.st70{fill:#F88916;}
	.st71{fill:#FFC86E;}
	.st72{fill:#AFA51D;}
	.st73{fill:#968A1C;}
	.st74{fill:#C3556D;}
</style>
<g>
	<g>
		<g>
			<path class="st59" d="M197.7,69.4c0,38.7-23.2,93-69.6,93c-46.4,0-69.6-54.4-69.5-93.1c0,0,28.6-13.5,56.7-5.4
				c4.3,1.2,8.7,3,12.9,5.4C159.6,87.3,197.7,69.4,197.7,69.4z"/>
		</g>
	</g>
	<g class="st10">
		<g>
			<path class="st7" d="M70,65.3c-7,2-11.4,4.1-11.4,4.1c0,26.7,11,60.8,33.1,79.4C76.9,117.8,67.7,89.1,70,65.3z"/>
		</g>
	</g>
	<g class="st15">
		<g>
			<path d="M181.8,74.7c9.6-2.3,15.9-5.3,15.9-5.3c0,38.7-23.2,93-69.6,93c0,0,27.2-16.5,41.2-42.6S181.8,74.7,181.8,74.7z"/>
		</g>
	</g>
	<g>
		<g>
			<path class="st64" d="M197.7,69.4c0,0-38.2,18-69.6,0c-4.2-2.4-8.5-4.2-12.9-5.4c25.9-8.1,59.9-7.5,82.4,2.6
				C197.7,67.5,197.7,68.4,197.7,69.4z"/>
		</g>
	</g>
	<g class="st15">
		<g>
			<path d="M182.3,74.4l15-5.1c0-1,0-1.9,0-2.8c-4.9-2.2-15.4-5.1-15.4-5.1L182.3,74.4z"/>
		</g>
	</g>
	<g>
		<g>
			<path class="st7" d="M197.7,66.5c-22.5-10.1-56.5-10.7-82.4-2.6c-28.1-8.1-56.7,5.4-56.7,5.4c0-38.7,12-65.4,12-65.4l115.1,0
				C185.7,4,197.1,29.4,197.7,66.5z"/>
		</g>
	</g>
	<g class="st15">
		<g>
			<path d="M171.5,4l14.2,0c0,0,11.4,25.4,12,62.6c-4.7-2.1-9.8-3.8-15.3-5.1C180.8,41.4,177.4,22.1,171.5,4z"/>
		</g>
	</g>
	<g>
		<g>
			<path class="st1" d="M128.2,166.4C128.2,166.4,128.2,166.4,128.2,166.4c-28.3,0-45.8-18.4-55.6-33.9c-11.3-17.9-18-41.5-18-63.2
				c0-1.5,0.9-3,2.3-3.6c1.2-0.6,30.3-14,59.5-5.6c4.8,1.4,9.5,3.3,13.7,5.8c29.3,16.7,65.5,0,65.9-0.1c1.2-0.6,2.7-0.5,3.8,0.2
				c1.2,0.7,1.9,2,1.9,3.4c0,21.6-6.7,45.2-18,63.2C174,148,156.5,166.4,128.2,166.4z M62.6,72c0.5,19.5,6.7,40.3,16.7,56.3
				c8.6,13.8,24.1,30.1,48.8,30.1s40.1-16.4,48.8-30.1c9.5-15.1,15.5-34.4,16.6-52.9c-12.3,4.4-41.7,12.2-67.4-2.5
				c-3.7-2.1-7.8-3.8-12-5C92.3,61.5,69.8,69.2,62.6,72z"/>
		</g>
	</g>
	<g>
		<g>
			<path class="st1" d="M160.2,81.4c-10.9,0-22.8-2.1-34.1-8.6c-3.7-2.1-7.8-3.8-12-5c-1.7-0.5-2.9-2-2.9-3.8s1.1-3.3,2.8-3.9
				c27.5-8.6,62.5-7.4,85.2,2.7c1.4,0.6,2.3,2,2.4,3.6c0,1,0,1.9,0,2.9c0,1.5-0.9,3-2.3,3.6C198.3,73.5,181.2,81.4,160.2,81.4z
				 M128.2,64.8c0.7,0.3,1.3,0.7,2,1.1c22.4,12.8,48.9,6,60.3,2.1C172.8,61.8,149.2,60.7,128.2,64.8z M197.7,69.4L197.7,69.4
				L197.7,69.4z"/>
		</g>
	</g>
	<g>
		<g>
			<path class="st1" d="M58.6,73.4c-0.7,0-1.5-0.2-2.1-0.6c-1.2-0.7-1.9-2-1.9-3.4c0-39.1,11.9-65.9,12.4-67C67.6,0.9,69,0,70.6,0
				c0,0,0,0,0,0l115.1,0c1.6,0,3,0.9,3.6,2.4c0.5,1.1,11.8,26.6,12.3,64.1c0,1.4-0.7,2.7-1.8,3.4c-1.1,0.8-2.6,0.9-3.8,0.3
				c-21.1-9.5-53.8-10.5-79.6-2.4c-0.7,0.2-1.5,0.2-2.3,0c-26.3-7.6-53.6,5.1-53.9,5.2C59.8,73.2,59.2,73.4,58.6,73.4z M73.3,8
				c-2.6,6.8-9.7,27.6-10.6,55.4c9.9-3.6,31.1-9.4,52.5-3.6c25-7.5,56-7.1,78.3,0.8c-1.3-26.4-8-46.1-10.5-52.6L73.3,8z"/>
		</g>
	</g>
	<g>
		<g>
			<path class="st1" d="M128.1,256L128.1,256c-2.2,0-4-1.8-4-4l0-89.6c0-2.2,1.8-4,4-4c0,0,0,0,0,0c2.2,0,4,1.8,4,4l0,89.6
				C132.1,254.2,130.4,256,128.1,256z"/>
		</g>
	</g>
	<g>
		<g>
			<path class="st1" d="M168.5,256C168.5,256,168.5,256,168.5,256l-80.6,0c-2.2,0-4-1.8-4-4c0-2.2,1.8-4,4-4c0,0,0,0,0,0l80.6,0
				c2.2,0,4,1.8,4,4C172.5,254.2,170.7,256,168.5,256z"/>
		</g>
	</g>
</g>
</svg>
