<?xml version="1.0" encoding="utf-8"?>
<!-- Generator: Adobe Illustrator 22.1.0, SVG Export Plug-In . SVG Version: 6.00 Build 0)  -->
<svg version="1.1" id="Layer_1" xmlns="http://www.w3.org/2000/svg" xmlns:xlink="http://www.w3.org/1999/xlink" x="0px" y="0px"
	 viewBox="0 0 256 256" style="enable-background:new 0 0 256 256;" xml:space="preserve">
<style type="text/css">
	.st0{fill:#F5B31F;}
	.st1{fill:#464646;}
	.st2{opacity:0.15;}
	.st3{fill:#AC6535;}
	.st4{fill:#EB573B;}
	.st5{fill:#90C056;}
	.st6{opacity:0.35;}
	.st7{fill:#FFFFFF;}
	.st8{opacity:0.2;}
	.st9{fill:#F6D67A;}
	.st10{opacity:0.3;}
	.st11{fill:#FFA755;}
	.st12{fill:#8FAE3C;}
	.st13{fill:#BE6BB2;}
	.st14{fill:#B7C536;}
	.st15{opacity:0.1;}
	.st16{fill:#9D5A96;}
	.st17{fill:#EA615D;}
	.st18{opacity:0.4;}
	.st19{fill:#F79932;}
	.st20{fill:#FFEC97;}
	.st21{fill:#FFD11D;}
	.st22{fill:#F7F2D5;}
	.st23{fill:#F6AF72;}
	.st24{fill:#BA6C45;}
	.st25{opacity:0.5;}
	.st26{fill:#E4C074;}
	.st27{fill:#656566;}
	.st28{fill:#FACD1F;}
	.st29{fill:#FFDF66;}
	.st30{fill:#6D6E71;}
	.st31{fill:#E77CAE;}
	.st32{fill:#FFE5C4;}
	.st33{fill:#F68455;}
	.st34{opacity:0.7;}
	.st35{fill:#ADEDFF;}
	.st36{fill:#EC754B;}
	.st37{fill:#4AA5BA;}
	.st38{opacity:0.8;}
	.st39{fill:#92A5AC;}
	.st40{fill:#D06E3C;}
	.st41{fill:#DA4F4B;}
	.st42{fill:#BDF3FF;}
	.st43{fill:#F18BB4;}
	.st44{fill:#F9D97A;}
	.st45{fill:none;}
	.st46{fill:#AF6535;}
	.st47{fill:#B93226;}
	.st48{fill:#FF6050;}
	.st49{fill:#EA7CB1;}
	.st50{fill:#00B0E0;}
	.st51{fill:#EA7DAE;}
	.st52{fill:#BC7532;}
	.st53{fill:#876C6C;}
	.st54{fill:#F9F6CD;}
	.st55{fill:#FFE37B;}
	.st56{fill:#1DDCFF;}
	.st57{fill:#60ACF7;}
	.st58{fill:#C3755A;}
	.st59{fill:#96557A;}
	.st60{fill:#66625D;}
	.st61{fill:#D68032;}
	.st62{fill:#F2A355;}
	.st63{fill:#7E9E6A;}
	.st64{fill:#965A85;}
	.st65{fill:#90CAD3;}
	.st66{fill:#94B57F;}
	.st67{fill:#B2E2E7;}
	.st68{fill:#FFDF8F;}
	.st69{fill:#FFFAEB;}
	.st70{fill:#F88916;}
	.st71{fill:#FFC86E;}
	.st72{fill:#AFA51D;}
	.st73{fill:#968A1C;}
	.st74{fill:#C3556D;}
</style>
<g>
	<g>
		<g>
			<path class="st9" d="M70.3,149.1C66.8,169.1,54.1,179,41.4,179c-13.6,0-27.2-11.5-29.4-34.3c2.4-1.6,5.1-2.9,7.4-2.9
				c5.8,0,9.8,8.7,14.8,8.7c5,0,12.2-8.3,16.6-8.3c4.4,0,11.6,8.3,15.7,8.3C67.5,150.5,68.8,149.9,70.3,149.1z"/>
		</g>
	</g>
	<g>
		<g>
			<path class="st0" d="M241.5,144.5c-2.2,23-15.8,34.5-29.4,34.5l-170.7,0c12.7,0,25.4-10,28.8-29.9c4.2-2.3,9.5-6.9,12.1-6.9
				c3.5,0,11,8.3,15.9,8.3c4.9,0,9.7-7.9,14.6-7.9c4.9,0,9.3,7.9,14.2,7.9c4.9,0,9.8-7.9,14.6-7.9c4.8,0,11.9,7.9,17.7,7.9
				s8.4-7.4,13.3-7.4c4.9,0,13.2,7.4,17.7,7.4c4.5,0,9.1-8.7,13.9-8.7c4.8,0,11.5,8.7,16.3,8.7s10-8.7,14.8-8.7
				C236.9,141.8,239.2,143,241.5,144.5z"/>
		</g>
	</g>
	<g>
		<g>
			<path class="st3" d="M51.9,124c0,3.5-2.8,6.6-7.3,8.9c-4.3,2.2-10.2,3.5-16.7,3.5c-13.2,0-24-5.5-24-12.3c0-3.6,3-6.8,7.8-9.1
				c0,0.9-0.1,1.9-0.1,2.9l37,0C50.8,119.6,51.9,121.7,51.9,124z"/>
		</g>
		<g>
			<path class="st1" d="M28,140.3c-15.9,0-28-7-28-16.3c0-5.1,3.7-9.7,10.1-12.7c1.3-0.6,2.8-0.5,3.9,0.3c0.8,0.5,1.4,1.3,1.6,2.2
				l33.1,0c1,0,1.9,0.4,2.6,1c3,2.7,4.6,5.8,4.6,9.2c0,0,0,0,0,0c0,5-3.4,9.4-9.5,12.4C41.4,139,34.9,140.3,28,140.3z M9.5,121.1
				c-1,1-1.5,2-1.5,2.9c0,3.4,7.8,8.3,20,8.3c5.6,0,11-1.1,14.9-3c3.1-1.6,5.1-3.6,5.1-5.3c0-0.8-0.4-1.6-0.9-2.2l-35.3,0
				C10.9,121.8,10.2,121.6,9.5,121.1z M51.9,124L51.9,124L51.9,124z"/>
		</g>
	</g>
	<g>
		<g>
			<path class="st4" d="M85.3,124c0,3.5-2.8,6.6-7.3,8.9c-4.3,2.2-10.2,3.5-16.7,3.5c-6.5,0-12.4-1.3-16.7-3.5
				c4.5-2.2,7.3-5.4,7.3-8.9c0-2.3-1.2-4.4-3.2-6.2l33.3,0C84.1,119.6,85.3,121.7,85.3,124z"/>
		</g>
		<g>
			<path class="st1" d="M61.3,140.3c-6.9,0-13.4-1.4-18.5-3.9l-7.2-3.6l7.2-3.6c3.1-1.6,5.1-3.6,5.1-5.3c0-1.3-1-2.4-1.9-3.2l-7.9-7
				l45.4,0l1.1,1c3,2.7,4.6,5.8,4.6,9.2v0c0,4.9-3.5,9.4-9.5,12.4C74.8,139,68.2,140.3,61.3,140.3z M53,131.5
				c2.6,0.5,5.4,0.8,8.3,0.8c5.7,0,10.9-1.1,14.9-3c3.2-1.6,5.1-3.6,5.1-5.3c0-0.8-0.4-1.6-0.9-2.2l-24.7,0c0.2,0.7,0.2,1.5,0.2,2.2
				C55.9,126.7,54.9,129.3,53,131.5z"/>
		</g>
	</g>
	<g>
		<g>
			<path class="st3" d="M118.6,124c0,3.5-2.8,6.6-7.3,8.9c-4.3,2.2-10.2,3.5-16.7,3.5c-6.5,0-12.4-1.3-16.7-3.5
				c4.5-2.2,7.3-5.4,7.3-8.9c0-2.3-1.2-4.4-3.2-6.2l33.3,0C117.5,119.6,118.6,121.7,118.6,124z"/>
		</g>
		<g>
			<path class="st1" d="M94.7,140.3C94.7,140.3,94.7,140.3,94.7,140.3c-6.9,0-13.4-1.4-18.5-3.9c-1.4-0.7-2.2-2.1-2.2-3.6
				s0.9-2.9,2.2-3.6c3.1-1.6,5.1-3.6,5.1-5.3c0-1.3-1-2.4-1.9-3.2c-1.2-1.1-1.7-2.9-1.1-4.4s2.1-2.6,3.7-2.6l0,0l33.3,0
				c1,0,1.9,0.4,2.6,1c3,2.7,4.6,5.8,4.6,9.2l0,0c0,0,0,0,0,0c0,4.9-3.5,9.4-9.5,12.4C108.1,139,101.5,140.3,94.7,140.3z
				 M86.3,131.5c2.6,0.5,5.4,0.8,8.3,0.8c0,0,0,0,0,0c5.7,0,10.9-1.1,14.9-3.1c3.1-1.6,5.1-3.6,5.1-5.3v0c0-0.8-0.4-1.6-0.9-2.2
				l-24.6,0c0.2,0.7,0.2,1.5,0.2,2.2C89.3,126.7,88.3,129.2,86.3,131.5z"/>
		</g>
	</g>
	<g>
		<g>
			<path class="st4" d="M152,124c0,3.5-2.8,6.6-7.3,8.9c-4.3,2.2-10.2,3.5-16.7,3.5c-6.5,0-12.4-1.3-16.7-3.5
				c4.5-2.2,7.3-5.4,7.3-8.9c0-2.3-1.2-4.4-3.2-6.2l33.3,0C150.8,119.6,152,121.7,152,124z"/>
		</g>
		<g>
			<path class="st1" d="M128,140.3C128,140.3,128,140.3,128,140.3c-6.9,0-13.5-1.4-18.5-3.9l-7.2-3.6l7.2-3.6
				c3.1-1.6,5.1-3.6,5.1-5.3c0-1.3-1-2.4-1.9-3.2l-7.9-7l45.4,0l1.1,1c3,2.7,4.6,5.8,4.6,9.2l0,0c0,0,0,0,0,0
				c0,4.9-3.5,9.4-9.5,12.4C141.4,139,134.9,140.3,128,140.3z M119.7,131.5c2.6,0.5,5.4,0.8,8.3,0.8c0,0,0,0,0,0
				c5.7,0,10.9-1.1,14.9-3.1c3.1-1.6,5.1-3.6,5.1-5.3v0c0-0.8-0.4-1.6-0.9-2.2l-24.7,0c0.2,0.7,0.2,1.5,0.2,2.2
				C122.6,126.7,121.6,129.2,119.7,131.5z"/>
		</g>
	</g>
	<g>
		<g>
			<path class="st3" d="M185.3,124c0,3.5-2.8,6.6-7.3,8.9c-4.3,2.2-10.2,3.5-16.7,3.5c-6.5,0-12.4-1.3-16.7-3.5
				c4.5-2.2,7.3-5.4,7.3-8.9c0-2.3-1.2-4.4-3.2-6.2l33.3,0C184.1,119.6,185.3,121.7,185.3,124z"/>
		</g>
		<g>
			<path class="st1" d="M161.3,140.3c-6.9,0-13.4-1.4-18.5-3.9c-1.4-0.7-2.2-2.1-2.2-3.6c0-1.5,0.9-2.9,2.2-3.6
				c3.1-1.6,5.1-3.6,5.1-5.3c0-1.3-1-2.4-1.9-3.2c-1.2-1.1-1.7-2.9-1.1-4.4c0.6-1.6,2.1-2.6,3.7-2.6l0,0l33.3,0c1,0,1.9,0.4,2.6,1
				c3,2.7,4.6,5.8,4.6,9.2c0,0,0,0,0,0c0,5-3.4,9.4-9.5,12.4C174.8,139,168.2,140.3,161.3,140.3z M153,131.5
				c2.6,0.5,5.4,0.8,8.3,0.8c5.7,0,11-1.1,14.9-3.1c3.1-1.6,5.1-3.6,5.1-5.3c0-0.8-0.4-1.6-0.9-2.2l-24.6,0c0.2,0.7,0.2,1.5,0.2,2.2
				C156,126.7,154.9,129.2,153,131.5z M185.3,124L185.3,124L185.3,124z"/>
		</g>
	</g>
	<g>
		<g>
			<path class="st4" d="M218.7,124c0,3.5-2.8,6.6-7.3,8.9c-4.3,2.2-10.2,3.5-16.7,3.5s-12.4-1.3-16.7-3.5c4.5-2.2,7.3-5.4,7.3-8.9
				c0-2.3-1.2-4.4-3.3-6.2l33.3,0C217.5,119.6,218.7,121.8,218.7,124z"/>
		</g>
		<g>
			<path class="st1" d="M194.7,140.3c-6.9,0-13.4-1.4-18.5-3.9l-7.1-3.6l7.2-3.6c3.1-1.6,5.1-3.6,5.1-5.3c0-1.3-1-2.4-1.9-3.2l-8-7
				l45.5,0l1.1,1c3,2.7,4.6,5.8,4.6,9.2c0,5-3.4,9.4-9.5,12.4C208.1,139,201.6,140.3,194.7,140.3z M186.4,131.5
				c2.6,0.5,5.4,0.8,8.3,0.8c5.6,0,11-1.1,14.9-3.1c3.1-1.6,5.1-3.6,5.1-5.3c0-0.8-0.4-1.6-0.9-2.2l-24.6,0c0.2,0.7,0.2,1.5,0.2,2.2
				C189.3,126.7,188.3,129.3,186.4,131.5z"/>
		</g>
	</g>
	<g>
		<g>
			<path class="st3" d="M252,124c0,6.8-10.7,12.3-24,12.3c-6.5,0-12.4-1.3-16.7-3.5c4.5-2.2,7.3-5.4,7.3-8.9c0-2.3-1.2-4.4-3.2-6.2
				l26.4,0c0-1.3,0-2.6-0.1-3.9C247.9,116.1,252,119.8,252,124z"/>
		</g>
		<g>
			<path class="st1" d="M228,140.4C228,140.4,228,140.4,228,140.4c-6.9,0-13.4-1.4-18.5-3.9c-1.4-0.7-2.2-2.1-2.2-3.6
				s0.9-2.9,2.2-3.6c3.1-1.6,5.1-3.6,5.1-5.3c0-1.3-1-2.4-1.9-3.2c-1.2-1.1-1.7-2.9-1.1-4.4s2.1-2.6,3.7-2.6l0,0l22.3,0
				c0-1.2,0.6-2.4,1.6-3.1c1.1-0.8,2.5-1,3.7-0.6c8.1,2.9,12.9,8.1,12.9,13.9l0,0l0,0c0,4.9-3.3,9.2-9.2,12.3
				C241.7,138.9,235.1,140.4,228,140.4z M219.7,131.5c2.6,0.5,5.4,0.8,8.3,0.8c0,0,0,0,0,0c5.7,0,11.2-1.2,15.1-3.2
				c3-1.6,4.9-3.5,4.9-5.2l0,0c0-1.3-1.1-2.7-2.9-4c-0.1,0.2-0.3,0.4-0.5,0.6c-0.8,0.8-1.8,1.2-2.8,1.2l0,0l-19.4,0
				c0.2,0.7,0.2,1.5,0.2,2.2C222.7,126.7,221.6,129.3,219.7,131.5z"/>
		</g>
	</g>
	<g class="st2">
		<g>
			<path class="st1" d="M252,132.9c0,2.2-1.1,4.3-3.1,6L252,132.9z"/>
		</g>
	</g>
	<g class="st2">
		<g>
			<path class="st1" d="M240.1,143.6c3.7-1.1,6.7-2.7,8.8-4.6l-7.4,14.5c-0.4-0.3-0.9-0.6-1.3-0.8c-4.2,17.6-16.2,26.4-28.1,26.4
				l-170.7,0c0,0,166.9-8.6,177.2-12.6c5.1-2,9.3-8.1,12.2-13.8c-3.5,2.5-7,6.7-10.3,6.7c-4.7,0-11.5-8.7-16.3-8.7
				c-4.8,0-9.4,8.7-13.9,8.7s-12.9-7.5-17.7-7.5c-4.9,0-7.5,7.4-13.3,7.4c-5.8,0-12.9-7.9-17.7-7.9c-4.8,0-9.7,7.9-14.6,7.9
				c-4.9,0-9.3-7.9-14.2-7.9c-4.9,0-9.7,7.9-14.6,7.9c-4.9,0-12.4-8.3-15.9-8.3c-2.6,0-7.9,4.6-12.1,6.9c-1.5,0.8-2.8,1.4-3.8,1.4
				c-4.1,0-11.3-8.3-15.7-8.3c-4.4,0-11.6,8.3-16.6,8.3c-5,0-9-8.7-14.8-8.7c-2.2,0-4.9,1.3-7.4,2.9l-6.2-16
				c3.6,4.5,12.2,7.6,22.1,7.6c6.5,0,12.4-1.3,16.7-3.5c4.3,2.2,10.2,3.5,16.7,3.5s12.4-1.3,16.7-3.5c4.3,2.2,10.2,3.5,16.7,3.5
				c6.5,0,12.4-1.3,16.7-3.5c4.3,2.2,10.2,3.5,16.7,3.5c6.5,0,12.4-1.3,16.7-3.5c4.3,2.2,10.2,3.5,16.7,3.5c6.5,0,12.4-1.3,16.7-3.5
				c4.3,2.2,10.2,3.5,16.7,3.5c6.5,0,12.4-1.3,16.7-3.5c4.3,2.2,10.2,3.5,16.7,3.5c2.1,0,4.2-0.1,6.2-0.4c0.7-1.9,1.1-3.1,1.1-3.1
				C236.6,141.8,238.3,142.5,240.1,143.6z"/>
		</g>
	</g>
	<g class="st2">
		<g>
			<path class="st1" d="M4,132.9l1.8,4.7C4.6,136.2,4,134.6,4,132.9z"/>
		</g>
	</g>
	<g>
		<g>
			<path class="st5" d="M252,124l-1.3,28.1c0,0-4.6-4.5-9.2-7.6c-2.3-1.6-4.6-2.7-6.2-2.7c-4.8,0-10.1,8.7-14.8,8.7
				s-11.5-8.7-16.3-8.7c-4.8,0-9.4,8.7-13.9,8.7c-4.5,0-12.9-7.4-17.7-7.4c-4.9,0-7.5,7.4-13.3,7.4s-12.9-7.9-17.7-7.9
				c-4.8,0-9.7,7.9-14.6,7.9c-4.9,0-9.3-7.9-14.2-7.9c-4.9,0-9.7,7.9-14.6,7.9c-4.9,0-12.4-8.3-15.9-8.3c-2.6,0-7.9,4.6-12.1,6.9
				c-1.5,0.8-2.8,1.4-3.8,1.4c-4.1,0-11.3-8.3-15.7-8.3c-4.4,0-11.6,8.3-16.6,8.3c-5,0-9-8.7-14.8-8.7c-2.2,0-4.9,1.3-7.4,2.9
				c-3.9,2.5-7.1,5.8-7.1,5.8L4,124c0,6.8,10.7,12.3,24,12.3c6.5,0,12.4-1.3,16.7-3.5c4.3,2.2,10.2,3.5,16.7,3.5
				c6.5,0,12.4-1.3,16.7-3.5c4.3,2.2,10.2,3.5,16.7,3.5c6.5,0,12.4-1.3,16.7-3.5c4.3,2.2,10.2,3.5,16.7,3.5c6.5,0,12.4-1.3,16.7-3.5
				c4.3,2.2,10.2,3.5,16.7,3.5c6.5,0,12.4-1.3,16.7-3.5c4.3,2.2,10.2,3.5,16.7,3.5s12.4-1.3,16.7-3.5c4.3,2.2,10.2,3.5,16.7,3.5
				C241.3,136.4,252,130.8,252,124z"/>
		</g>
	</g>
	<g>
		<g>
			<path class="st1" d="M41.4,183C41.4,183,41.4,183,41.4,183c-14.8,0-30.9-11.7-33.4-38c-0.1-1.5,0.5-2.9,1.8-3.7
				c3.7-2.4,6.8-3.6,9.6-3.6c4.6,0,8,3.1,10.7,5.7c1.2,1.1,3.3,3,4.1,3c1.3,0,4.4-2.2,6.5-3.6c3.4-2.4,6.7-4.7,10.1-4.7c0,0,0,0,0,0
				c3.5,0,6.9,2.4,10.4,5c1.6,1.1,4.2,3,5.2,3.3c0.2,0,0.7-0.2,1.9-0.8c1.3-0.8,3-0.7,4.3,0.2c1.3,0.9,1.9,2.4,1.6,3.9
				c-1.8,10.2-5.9,18.7-12.1,24.6C56.3,180,49,183,41.4,183z M16.3,146.8C19,166.3,30.7,175,41.4,175c8.4,0,18.9-5.5,23.5-20.7
				c-2.8-0.6-5.5-2.5-8.4-4.6c-1.8-1.3-4.7-3.4-5.8-3.5c-1,0.1-3.8,2.1-5.5,3.2c-3.6,2.5-7.3,5.1-11.1,5.1c-3.9,0-6.9-2.7-9.5-5.2
				c-1.8-1.7-3.8-3.5-5.3-3.5C19.1,145.8,18.1,145.9,16.3,146.8z"/>
		</g>
	</g>
	<g>
		<g>
			<path class="st1" d="M212.1,183C212.1,183,212.1,183,212.1,183l-170.7,0l0,0c-2.2,0-4-1.8-4-4s1.8-4,4-4c0,0,0,0,0,0l0,0
				c9.4,0,21.5-7,24.9-26.6c0.2-1.2,0.9-2.2,2-2.8c1.3-0.7,2.9-1.8,4.3-2.8c3.6-2.5,6.8-4.6,9.7-4.6c0,0,0,0,0,0
				c2.9,0,5.8,2,9.1,4.4c2,1.5,5.5,3.9,6.8,3.9c1,0,3.2-1.8,4.8-3c2.8-2.3,5.9-4.8,9.8-4.8c0,0,0,0,0,0c3.9,0,7,2.6,9.7,4.9
				c1.5,1.3,3.5,3,4.5,3c1,0,3.3-1.8,4.8-3.1c2.8-2.2,5.9-4.8,9.7-4.8c0,0,0,0,0,0c3.5,0,6.7,2.1,10.2,4.3c2.5,1.6,5.6,3.6,7.5,3.6
				c1.3,0,2.6-1.1,4.5-2.9c2.2-2,4.9-4.6,8.8-4.6c3.5,0,7.4,2.2,11.2,4.4c2,1.2,5.4,3.1,6.6,3.1c0.8-0.1,2.8-2,4-3.2
				c2.8-2.6,5.9-5.5,9.9-5.5c3.8,0,7.2,2.6,10.6,5.2c1.7,1.3,4.6,3.5,5.7,3.5c0.9,0,3.4-2.2,4.7-3.3c2.9-2.5,6.2-5.3,10.1-5.3
				c2.3,0,5,1.1,8.4,3.4c1.2,0.8,1.9,2.2,1.7,3.7C243,171.3,226.9,183,212.1,183z M61.5,175l150.6,0c10.8,0,22.5-8.8,25.2-28.4
				c-1.4-0.8-1.9-0.8-2-0.8c-0.9,0-3.4,2.2-4.8,3.4c-3,2.6-6.1,5.3-10,5.3c-3.7,0-7.1-2.6-10.5-5.1c-1.6-1.2-4.7-3.6-5.8-3.6
				c-0.9,0-3.2,2.2-4.4,3.4c-2.7,2.5-5.7,5.3-9.5,5.3c-3.3,0-6.8-2-10.5-4.1c-2.3-1.3-5.8-3.3-7.2-3.3c-0.8,0-2.1,1.3-3.3,2.4
				c-2.3,2.1-5.4,5-10,5c-4.2,0-8.2-2.6-11.8-4.8c-1.9-1.2-4.8-3-5.9-3c-1,0-3.2,1.8-4.7,3c-2.8,2.3-6,4.8-9.9,4.8
				c-3.9,0-7-2.6-9.7-4.9c-1.5-1.3-3.5-3-4.5-3l0,0c-1,0-3.2,1.8-4.8,3c-2.8,2.3-5.9,4.8-9.8,4.8c-3.9,0-7.8-2.7-11.5-5.4
				c-1.4-1-3.5-2.5-4.5-2.9c-1.1,0.4-3.7,2.1-5.2,3.2c-1.1,0.7-2.2,1.5-3.3,2.2c-1.9,9.4-6,17.2-11.8,22.8
				C61.9,174.6,61.7,174.8,61.5,175z"/>
		</g>
	</g>
	<g>
		<g>
			<path class="st1" d="M28,140.3c-15.9,0-28-7-28-16.3c0-5.1,3.7-9.7,10.1-12.7c1.3-0.6,2.8-0.5,3.9,0.3c0.8,0.5,1.4,1.3,1.6,2.2
				l33.1,0c1,0,1.9,0.4,2.6,1c3,2.7,4.6,5.8,4.6,9.2c0,0,0,0,0,0c0,5-3.4,9.4-9.5,12.4C41.4,139,34.9,140.3,28,140.3z M9.5,121.1
				c-1,1-1.5,2-1.5,2.9c0,3.4,7.8,8.3,20,8.3c5.6,0,11-1.1,14.9-3c3.1-1.6,5.1-3.6,5.1-5.3c0-0.8-0.4-1.6-0.9-2.2l-35.3,0
				C10.9,121.8,10.2,121.6,9.5,121.1z M51.9,124L51.9,124L51.9,124z"/>
		</g>
	</g>
	<g>
		<g>
			<path class="st1" d="M61.3,140.3c-6.9,0-13.4-1.4-18.5-3.9c-1.4-0.7-2.2-2.1-2.2-3.6s0.9-2.9,2.2-3.6c3.1-1.6,5.1-3.6,5.1-5.3
				c0-1.3-1-2.4-1.9-3.2c-1.2-1.1-1.7-2.9-1.1-4.4c0.6-1.6,2.1-2.6,3.7-2.6l0,0l33.3,0c1,0,1.9,0.4,2.6,1c3,2.7,4.6,5.8,4.6,9.2
				c0,0,0,0,0,0c0,4.9-3.5,9.4-9.5,12.4C74.8,139,68.2,140.3,61.3,140.3z M53,131.5c2.6,0.5,5.4,0.8,8.3,0.8c5.7,0,10.9-1.1,14.9-3
				c3.2-1.6,5.1-3.6,5.1-5.3c0-0.8-0.4-1.6-0.9-2.2l-24.7,0c0.2,0.7,0.2,1.5,0.2,2.2C55.9,126.7,54.9,129.3,53,131.5z M85.3,124
				L85.3,124L85.3,124z"/>
		</g>
	</g>
	<g>
		<g>
			<path class="st1" d="M94.7,140.3C94.7,140.3,94.7,140.3,94.7,140.3c-6.9,0-13.4-1.4-18.5-3.9c-1.4-0.7-2.2-2.1-2.2-3.6
				s0.9-2.9,2.2-3.6c3.1-1.6,5.1-3.6,5.1-5.3c0-1.3-1-2.4-1.9-3.2c-1.2-1.1-1.7-2.9-1.1-4.4s2.1-2.6,3.7-2.6l0,0l33.3,0
				c1,0,1.9,0.4,2.6,1c3,2.7,4.6,5.8,4.6,9.2l0,0c0,0,0,0,0,0c0,4.9-3.5,9.4-9.5,12.4C108.1,139,101.5,140.3,94.7,140.3z
				 M86.3,131.5c2.6,0.5,5.4,0.8,8.3,0.8c0,0,0,0,0,0c5.7,0,10.9-1.1,14.9-3.1c3.1-1.6,5.1-3.6,5.1-5.3v0c0-0.8-0.4-1.6-0.9-2.2
				l-24.6,0c0.2,0.7,0.2,1.5,0.2,2.2C89.3,126.7,88.3,129.2,86.3,131.5z"/>
		</g>
	</g>
	<g>
		<g>
			<path class="st1" d="M128,140.3C128,140.3,128,140.3,128,140.3c-6.9,0-13.5-1.4-18.5-3.9c-1.4-0.7-2.2-2.1-2.2-3.6
				c0-1.5,0.9-2.9,2.2-3.6c3.1-1.6,5.1-3.6,5.1-5.3c0-1.3-1-2.4-1.9-3.2c-1.2-1.1-1.7-2.9-1.1-4.4s2.1-2.6,3.7-2.6l0,0l33.3,0
				c1,0,1.9,0.4,2.6,1c3,2.7,4.6,5.8,4.6,9.2l0,0c0,0,0,0,0,0c0,4.9-3.5,9.4-9.5,12.4C141.4,139,134.9,140.3,128,140.3z
				 M119.7,131.5c2.6,0.5,5.4,0.8,8.3,0.8c0,0,0,0,0,0c5.7,0,10.9-1.1,14.9-3.1c3.1-1.6,5.1-3.6,5.1-5.3v0c0-0.8-0.4-1.6-0.9-2.2
				l-24.7,0c0.2,0.7,0.2,1.5,0.2,2.2C122.6,126.7,121.6,129.2,119.7,131.5z"/>
		</g>
	</g>
	<g>
		<g>
			<path class="st1" d="M161.3,140.3c-6.9,0-13.4-1.4-18.5-3.9c-1.4-0.7-2.2-2.1-2.2-3.6c0-1.5,0.9-2.9,2.2-3.6
				c3.1-1.6,5.1-3.6,5.1-5.3c0-1.3-1-2.4-1.9-3.2c-1.2-1.1-1.7-2.9-1.1-4.4c0.6-1.6,2.1-2.6,3.7-2.6l0,0l33.3,0c1,0,1.9,0.4,2.6,1
				c3,2.7,4.6,5.8,4.6,9.2c0,0,0,0,0,0c0,5-3.4,9.4-9.5,12.4C174.8,139,168.2,140.3,161.3,140.3z M153,131.5
				c2.6,0.5,5.4,0.8,8.3,0.8c5.7,0,11-1.1,14.9-3.1c3.1-1.6,5.1-3.6,5.1-5.3c0-0.8-0.4-1.6-0.9-2.2l-24.6,0c0.2,0.7,0.2,1.5,0.2,2.2
				C156,126.7,154.9,129.2,153,131.5z M185.3,124L185.3,124L185.3,124z"/>
		</g>
	</g>
	<g>
		<g>
			<path class="st1" d="M194.7,140.3c-6.9,0-13.4-1.4-18.5-3.9c-1.4-0.7-2.2-2.1-2.2-3.6s0.9-2.9,2.2-3.6c3.1-1.6,5.1-3.6,5.1-5.3
				c0-1.3-1-2.4-1.9-3.2c-1.3-1.1-1.7-2.9-1.1-4.4s2.1-2.6,3.7-2.6c0,0,0,0,0,0l33.3,0c1,0,1.9,0.4,2.6,1c3,2.7,4.6,5.8,4.6,9.2
				c0,5-3.4,9.4-9.5,12.4C208.1,139,201.6,140.3,194.7,140.3z M186.4,131.5c2.6,0.5,5.4,0.8,8.3,0.8c5.6,0,11-1.1,14.9-3.1
				c3.1-1.6,5.1-3.6,5.1-5.3c0-0.8-0.4-1.6-0.9-2.2l-24.6,0c0.2,0.7,0.2,1.5,0.2,2.2C189.3,126.7,188.3,129.3,186.4,131.5z"/>
		</g>
	</g>
	<g>
		<g>
			<path class="st1" d="M228,140.4C228,140.4,228,140.4,228,140.4c-6.9,0-13.4-1.4-18.5-3.9c-1.4-0.7-2.2-2.1-2.2-3.6
				s0.9-2.9,2.2-3.6c3.1-1.6,5.1-3.6,5.1-5.3c0-1.3-1-2.4-1.9-3.2c-1.2-1.1-1.7-2.9-1.1-4.4s2.1-2.6,3.7-2.6l0,0l22.3,0
				c0-1.2,0.6-2.4,1.6-3.1c1.1-0.8,2.5-1,3.7-0.6c8.1,2.9,12.9,8.1,12.9,13.9l0,0l0,0c0,4.9-3.3,9.2-9.2,12.3
				C241.7,138.9,235.1,140.4,228,140.4z M219.7,131.5c2.6,0.5,5.4,0.8,8.3,0.8c0,0,0,0,0,0c5.7,0,11.2-1.2,15.1-3.2
				c3-1.6,4.9-3.5,4.9-5.2l0,0c0-1.3-1.1-2.7-2.9-4c-0.1,0.2-0.3,0.4-0.5,0.6c-0.8,0.8-1.8,1.2-2.8,1.2l0,0l-19.4,0
				c0.2,0.7,0.2,1.5,0.2,2.2C222.7,126.7,221.6,129.3,219.7,131.5z"/>
		</g>
	</g>
	<g>
		<g>
			<path class="st1" d="M250.7,156.1c-1,0-2-0.4-2.8-1.1c0,0-4.4-4.3-8.6-7.2c-2.9-1.9-3.9-2-4-2c-0.9,0-3.4,2.2-4.8,3.4
				c-3,2.6-6.1,5.3-10,5.3c-3.7,0-7.1-2.6-10.5-5.1c-1.6-1.2-4.7-3.6-5.8-3.6c-0.9,0-3.2,2.2-4.4,3.4c-2.7,2.5-5.7,5.3-9.5,5.3
				c-3.3,0-6.8-2-10.5-4.1c-2.3-1.3-5.8-3.3-7.2-3.3c-0.8,0-2.1,1.3-3.3,2.4c-2.3,2.1-5.4,5-10,5c-4.2,0-8.2-2.6-11.8-4.8
				c-1.9-1.2-4.8-3-5.9-3c-1,0-3.2,1.8-4.7,3c-2.8,2.3-6,4.8-9.9,4.8c-3.9,0-7-2.6-9.7-4.9c-1.5-1.3-3.5-3-4.5-3c-1,0-3.2,1.8-4.8,3
				c-2.8,2.3-5.9,4.8-9.8,4.8c-3.9,0-7.8-2.7-11.5-5.4c-1.4-1-3.5-2.5-4.5-2.9c-1.1,0.4-3.7,2.1-5.2,3.2c-1.6,1.1-3.3,2.3-5,3.2
				c-2.3,1.3-4.1,1.9-5.8,1.9c-3.3,0-6.5-2.3-9.9-4.8c-1.8-1.3-4.7-3.4-5.8-3.5c-1,0.1-3.8,2.1-5.5,3.2c-3.6,2.5-7.3,5.1-11.1,5.1
				c-3.9,0-6.9-2.7-9.5-5.2c-1.8-1.7-3.8-3.5-5.3-3.5c-0.4,0-2,0.2-5.2,2.3c-3.5,2.3-6.5,5.2-6.5,5.3c-1.1,1.1-2.8,1.5-4.3,0.9
				c-1.5-0.6-2.5-2-2.5-3.6l-0.9-26c0-0.2,0-0.4,0-0.6c0-2.2,1.8-4,3.9-4c2.2-0.1,4,1.7,4.1,3.9l0,0.3c0.3,3.4,8,8.1,20,8.1
				c5.6,0,11-1.1,14.9-3c1.1-0.6,2.5-0.6,3.6,0c3.9,2,9.2,3.1,14.9,3.1c5.7,0,10.9-1.1,14.9-3c1.1-0.6,2.5-0.6,3.6,0
				c3.9,2,9.2,3.1,14.9,3.1c0,0,0,0,0,0c5.7,0,10.9-1.1,14.9-3.1c1.1-0.6,2.5-0.6,3.6,0c3.9,2,9.2,3.1,14.9,3.1c0,0,0,0,0,0
				c5.7,0,10.9-1.1,14.9-3.1c1.1-0.6,2.5-0.6,3.6,0c3.9,2,9.2,3.1,14.9,3.1c5.7,0,11-1.1,14.9-3.1c1.1-0.6,2.5-0.6,3.6,0
				c3.9,2,9.2,3.1,14.9,3.1c5.6,0,11-1.1,14.9-3.1c1.1-0.6,2.5-0.6,3.6,0c3.9,2,9.2,3.1,14.9,3.1c0,0,0,0,0,0
				c5.7,0,11.2-1.2,15.1-3.2c2.9-1.5,4.6-3.3,4.8-4.9l0-0.5c0.1-2.1,1.9-3.8,4-3.8c0,0,0.1,0,0.1,0c2.2,0.1,3.9,1.8,3.9,4
				c0,0.3,0,0.6,0,0.9l-1.3,27.4c-0.1,1.6-1.1,3-2.5,3.5C251.7,156.1,251.2,156.1,250.7,156.1z M207.8,138.5c2.4,1,4.8,2.7,7,4.4
				c1.7,1.3,4.6,3.5,5.7,3.5c0.9,0,3.4-2.2,4.7-3.3c1.1-0.9,2.2-1.9,3.4-2.8c-0.2,0-0.4,0-0.6,0c-6.1,0-11.9-1.1-16.7-3.1
				C210.2,137.7,209,138.2,207.8,138.5z M172.6,139c3.5,0,7.4,2.2,11.2,4.4c2,1.2,5.4,3.1,6.6,3.1c0.8-0.1,2.8-2,4-3.2
				c1.1-1,2.3-2.1,3.5-3.1c-1.1,0.1-2.1,0.1-3.2,0.1c-6.1,0-11.9-1.1-16.7-3.1C176.3,138,174.5,138.6,172.6,139
				C172.6,139,172.6,139,172.6,139z M141.6,138.6C141.6,138.6,141.6,138.6,141.6,138.6c3.5,0,6.7,2.1,10.2,4.3
				c2.5,1.6,5.6,3.6,7.5,3.6c1.3,0,2.6-1.1,4.5-2.9c1.5-1.4,3.2-3,5.4-3.9c-2.5,0.4-5.1,0.6-7.8,0.6c-6.1,0-11.9-1.1-16.7-3.1
				c-1.3,0.5-2.7,1-4.1,1.4C140.9,138.7,141.3,138.6,141.6,138.6z M112.9,138.6C112.9,138.6,112.9,138.6,112.9,138.6
				c3.9,0,7,2.6,9.7,4.9c1.5,1.3,3.5,3,4.5,3c1,0,3.3-1.8,4.8-3.1c1.9-1.6,4.1-3.3,6.4-4.2c-3.2,0.7-6.7,1.1-10.3,1.1c0,0,0,0,0,0
				c-6.1,0-11.9-1.1-16.7-3.1c-4.7,2-10.6,3.1-16.7,3.1c0,0,0,0,0,0c-2.5,0-5-0.2-7.4-0.5c1.3,0.8,2.7,1.7,4.2,2.8
				c2,1.5,5.5,3.9,6.8,3.9c1,0,3.2-1.8,4.8-3C105.8,141.2,109,138.6,112.9,138.6z M26.4,140.3c1.4,1,2.6,2.1,3.7,3.1
				c1.2,1.1,3.3,3,4.1,3c1.3,0,4.4-2.2,6.5-3.6c2.6-1.8,5.1-3.6,7.6-4.3c-1.3-0.4-2.5-0.8-3.7-1.3c-4.7,2-10.6,3.1-16.7,3.1
				C27.4,140.3,26.9,140.3,26.4,140.3z M56.6,140.1c1.5,0.9,3,2,4.6,3.1c1.6,1.1,4.2,3,5.2,3.3c0.2,0,0.7-0.2,1.9-0.8
				c1.3-0.7,2.9-1.8,4.3-2.8c3.1-2.1,5.8-3.9,8.3-4.5c-1-0.3-2-0.7-3-1.1c-4.7,2-10.6,3.1-16.7,3.1
				C59.7,140.3,58.2,140.3,56.6,140.1z M239.8,138.9c1.2,0.6,2.5,1.3,4,2.3c1.1,0.8,2.3,1.6,3.3,2.5l0.4-7.7
				c-0.2,0.1-0.4,0.2-0.6,0.3C244.7,137.4,242.3,138.3,239.8,138.9z M8.4,135.9l0.2,6.3c0.4-0.3,0.8-0.6,1.2-0.8
				c1.9-1.2,3.6-2.1,5.2-2.7C12.6,137.9,10.4,137,8.4,135.9z"/>
		</g>
	</g>
	<g class="st2">
		<g>
			<path class="st1" d="M13.1,126c2.1,0,225.6,0,228.7,0s3.9-3.9,3.8-5.2C244.3,96.2,226.2,85,212.1,85L41.4,85
				C27.1,85,10.3,97.6,9.3,123C9.3,123,11,126,13.1,126z"/>
		</g>
	</g>
	<g>
		<g>
			<path class="st9" d="M71.2,117.8l-59.4,0c0-1,0-1.9,0.1-2.9l0,0c1-25.4,15.3-38.1,29.7-38.1c13.9,0,27.8,12,29.5,35.9
				C71.1,114.3,71.2,116,71.2,117.8z"/>
		</g>
	</g>
	<g>
		<g>
			<path class="st0" d="M241.8,117.8l-170.7,0c0-1.8-0.1-3.5-0.2-5.1c-1.7-23.9-15.6-35.9-29.5-35.9l170.7,0
				c14.1,0,28.3,12.4,29.6,37C241.8,115.2,241.8,116.5,241.8,117.8z"/>
		</g>
	</g>
	<g class="st2">
		<g>
			<path class="st1" d="M212.1,76.8c14.1,0,28.3,12.4,29.6,37c0.1,1.3,0.1,2.6,0.1,3.9l-170.7,0c0-1.8-0.1-3.5-0.2-5.1
				c0,0,144.7-2,152.9-5.2C232,104.2,212.1,76.8,212.1,76.8z"/>
		</g>
	</g>
	<g>
		<g>
			<path class="st1" d="M71.2,121.8C71.2,121.8,71.2,121.8,71.2,121.8l-59.4,0c-2.2,0-4-1.8-4-4c0-1.1,0-2.1,0.1-3c0,0,0,0,0,0
				C8.9,85.9,26,72.8,41.4,72.8c0,0,0,0,0,0c8.4,0,16.3,3.7,22.3,10.3c6.5,7.1,10.4,17.3,11.2,29.3c0.1,1.8,0.2,3.6,0.2,5.4
				c0,1.1-0.4,2.1-1.2,2.8C73.2,121.4,72.2,121.8,71.2,121.8z M15.8,113.8l51.2,0c0-0.3,0-0.5-0.1-0.8c-1.6-22.2-14-32.2-25.6-32.2
				C25.2,80.8,16.9,97.7,15.8,113.8z"/>
		</g>
	</g>
	<g>
		<g>
			<path class="st1" d="M241.8,121.8C241.8,121.8,241.8,121.8,241.8,121.8l-170.7,0c-2.2,0-4-1.8-4-4c0-1.6-0.1-3.2-0.2-4.8
				c-1.6-22.2-14-32.2-25.6-32.2c-2.2,0-4-1.8-4-4s1.8-4,4-4l0,0l170.7,0c8.5,0,16.5,3.8,22.6,10.6c6.5,7.4,10.3,17.8,11,30.2
				c0.1,1.3,0.1,2.7,0.1,4.1c0,1.1-0.4,2.1-1.2,2.8C243.9,121.4,242.9,121.8,241.8,121.8z M75.1,113.8l162.6,0
				c-1.4-22.8-13.8-33-25.6-33l-150.6,0c0.8,0.7,1.5,1.5,2.3,2.3c6.5,7.1,10.4,17.3,11.2,29.3C75,112.9,75,113.3,75.1,113.8z"/>
		</g>
	</g>
	<g>
		<g>
			<path class="st1" d="M116.8,103.6c-1.8,0-3.5-1.2-3.9-3.1c-2.4-10.1-11.7-16.6-28.3-19.8c-2.2-0.4-3.6-2.5-3.2-4.7
				c0.4-2.2,2.5-3.6,4.7-3.2c19.9,3.7,31.5,12.4,34.7,25.8c0.5,2.2-0.8,4.3-3,4.8C117.4,103.6,117.1,103.6,116.8,103.6z"/>
		</g>
	</g>
	<g>
		<g>
			<path class="st1" d="M163.1,103.6c-1.8,0-3.5-1.2-3.9-3.1c-2.4-10.1-11.7-16.6-28.3-19.8c-2.2-0.4-3.6-2.5-3.2-4.7
				c0.4-2.2,2.5-3.6,4.7-3.2c19.9,3.7,31.5,12.4,34.7,25.8c0.5,2.2-0.8,4.3-3,4.8C163.8,103.6,163.5,103.6,163.1,103.6z"/>
		</g>
	</g>
	<g>
		<g>
			<path class="st1" d="M206.1,103.6c-1.8,0-3.5-1.2-3.9-3.1c-2.4-10.1-11.7-16.6-28.3-19.8c-2.2-0.4-3.6-2.5-3.2-4.7
				c0.4-2.2,2.5-3.6,4.7-3.2c19.9,3.7,31.5,12.4,34.7,25.8c0.5,2.2-0.8,4.3-3,4.8C206.7,103.6,206.4,103.6,206.1,103.6z"/>
		</g>
	</g>
</g>
</svg>
