<?xml version="1.0" encoding="utf-8"?>
<!-- Generator: Adobe Illustrator 22.1.0, SVG Export Plug-In . SVG Version: 6.00 Build 0)  -->
<svg version="1.1" id="Layer_1" xmlns="http://www.w3.org/2000/svg" xmlns:xlink="http://www.w3.org/1999/xlink" x="0px" y="0px"
	 viewBox="0 0 256 256" style="enable-background:new 0 0 256 256;" xml:space="preserve">
<style type="text/css">
	.st0{fill:#F5B31F;}
	.st1{fill:#464646;}
	.st2{opacity:0.15;}
	.st3{fill:#AC6535;}
	.st4{fill:#EB573B;}
	.st5{fill:#90C056;}
	.st6{opacity:0.35;}
	.st7{fill:#FFFFFF;}
	.st8{opacity:0.2;}
	.st9{fill:#F6D67A;}
	.st10{opacity:0.3;}
	.st11{fill:#FFA755;}
	.st12{fill:#8FAE3C;}
	.st13{fill:#BE6BB2;}
	.st14{fill:#B7C536;}
	.st15{opacity:0.1;}
	.st16{fill:#9D5A96;}
	.st17{fill:#EA615D;}
	.st18{opacity:0.4;}
	.st19{fill:#F79932;}
	.st20{fill:#FFEC97;}
	.st21{fill:#FFD11D;}
	.st22{fill:#F7F2D5;}
	.st23{fill:#F6AF72;}
	.st24{fill:#BA6C45;}
	.st25{opacity:0.5;}
	.st26{fill:#E4C074;}
	.st27{fill:#656566;}
	.st28{fill:#FACD1F;}
	.st29{fill:#FFDF66;}
	.st30{fill:#6D6E71;}
	.st31{fill:#E77CAE;}
	.st32{fill:#FFE5C4;}
	.st33{fill:#F68455;}
	.st34{opacity:0.7;}
	.st35{fill:#ADEDFF;}
	.st36{fill:#EC754B;}
	.st37{fill:#4AA5BA;}
	.st38{opacity:0.8;}
	.st39{fill:#92A5AC;}
	.st40{fill:#D06E3C;}
	.st41{fill:#DA4F4B;}
	.st42{fill:#BDF3FF;}
	.st43{fill:#F18BB4;}
	.st44{fill:#F9D97A;}
	.st45{fill:none;}
	.st46{fill:#AF6535;}
	.st47{fill:#B93226;}
	.st48{fill:#FF6050;}
	.st49{fill:#EA7CB1;}
	.st50{fill:#00B0E0;}
	.st51{fill:#EA7DAE;}
	.st52{fill:#BC7532;}
	.st53{fill:#876C6C;}
	.st54{fill:#F9F6CD;}
	.st55{fill:#FFE37B;}
	.st56{fill:#1DDCFF;}
	.st57{fill:#60ACF7;}
	.st58{fill:#C3755A;}
	.st59{fill:#96557A;}
	.st60{fill:#66625D;}
	.st61{fill:#D68032;}
	.st62{fill:#F2A355;}
	.st63{fill:#7E9E6A;}
	.st64{fill:#965A85;}
	.st65{fill:#90CAD3;}
	.st66{fill:#94B57F;}
	.st67{fill:#B2E2E7;}
	.st68{fill:#FFDF8F;}
	.st69{fill:#FFFAEB;}
	.st70{fill:#F88916;}
	.st71{fill:#FFC86E;}
	.st72{fill:#AFA51D;}
	.st73{fill:#968A1C;}
	.st74{fill:#C3556D;}
</style>
<g>
	<g>
		<g>
			<g>
				<g>
					<path class="st13" d="M54.4,66.8c4.3,0.8,8.4-2.1,9.2-6.4c0.8-4.3-2.1-8.4-6.4-9.2c-4.3-0.8-8.4,2.1-9.2,6.4
						C47.2,61.9,50,66,54.4,66.8z"/>
				</g>
			</g>
		</g>
	</g>
	<g>
		<g>
			<g>
				<g>
					<path class="st13" d="M8.5,94.1c2.6,12.2,8.4,23.3,16.7,32.3c24.5-23.4,63.1-25.4,90-3.8c0.4,0.3,0.7,0.6,1.1,0.9
						c2.3,1.9,4.5,4,6.5,6.1c10.2-9.6,17.5-22.5,20.2-37.4c1.1-5.9,1.4-11.8,0.9-17.6c-0.6-8.2-2.7-16-6-23.2
						c-4.6-10.1-11.7-19-20.5-25.8C109,19.2,99,14.6,87.9,12.6c-37.2-6.8-73,17.9-79.8,55.1C6.5,76.7,6.7,85.6,8.5,94.1z M27.3,51
						c11.8,0.2,19.2-5.6,21.4-18.4c7.7,8,16.2,9.4,25.4,4.6C71,49.7,74,58.8,82.7,65c-10.3,1.7-17.1,9.1-20.9,22
						C54.4,77.2,44.3,73.7,33.5,77C37.4,66.6,36.1,57,27.3,51z"/>
				</g>
			</g>
		</g>
	</g>
	<g>
		<g>
			<g>
				<g>
					<path class="st16" d="M33.5,77c10.7-3.4,20.8,0.2,28.3,10.1c3.7-12.9,10.6-20.4,20.9-22C74,58.8,71,49.7,74.1,37.3
						c-9.2,4.8-17.7,3.4-25.4-4.6C46.5,45.4,39.1,51.2,27.3,51C36.1,57,37.4,66.6,33.5,77z M48,57.6c0.8-4.3,4.9-7.2,9.2-6.4
						c4.3,0.8,7.2,4.9,6.4,9.2c-0.8,4.3-4.9,7.2-9.2,6.4C50,66,47.2,61.9,48,57.6z"/>
				</g>
			</g>
		</g>
	</g>
	<g>
		<g>
			<g>
				<g>
					<path class="st13" d="M54.4,66.8c4.3,0.8,8.4-2.1,9.2-6.4c0.8-4.3-2.1-8.4-6.4-9.2c-4.3-0.8-8.4,2.1-9.2,6.4
						C47.2,61.9,50,66,54.4,66.8z"/>
				</g>
			</g>
		</g>
	</g>
	<g>
		<g>
			<g>
				<g>
					<path class="st13" d="M54.4,66.8c4.3,0.8,8.4-2.1,9.2-6.4c0.8-4.3-2.1-8.4-6.4-9.2c-4.3-0.8-8.4,2.1-9.2,6.4
						C47.2,61.9,50,66,54.4,66.8z"/>
				</g>
			</g>
		</g>
	</g>
	<g>
		<g>
			<g>
				<g>
					<g>
						<path class="st1" d="M55.8,70.9c-0.7,0-1.4-0.1-2.1-0.2c-3.1-0.6-5.9-2.3-7.7-4.9S43.5,60,44,56.9s2.3-5.9,5-7.7
							c2.6-1.8,5.8-2.5,8.9-1.9c6.5,1.2,10.8,7.4,9.6,13.9C66.5,66.9,61.4,70.9,55.8,70.9z M55.8,55.1c-0.8,0-1.6,0.2-2.2,0.7
							c-0.9,0.6-1.4,1.5-1.6,2.5c-0.2,1,0,2.1,0.6,2.9c0.6,0.9,1.5,1.4,2.5,1.6l0,0c2.1,0.4,4.2-1,4.6-3.1c0.4-2.1-1-4.2-3.2-4.6
							C56.2,55.1,56,55.1,55.8,55.1z"/>
					</g>
				</g>
			</g>
		</g>
		<g>
			<g>
				<g>
					<g>
						<path class="st1" d="M122.8,133.6c0,0-0.1,0-0.1,0c-1.1,0-2.1-0.5-2.8-1.3c-1.9-2-3.9-4-6.1-5.8c-0.3-0.3-0.7-0.5-1-0.8
							c-25.1-20.1-61.6-18.5-84.8,3.6c-0.8,0.7-1.8,1.1-2.9,1.1c-1.1,0-2.1-0.5-2.8-1.3c-8.9-9.6-15-21.5-17.7-34.2
							c-1.9-9.2-2.1-18.6-0.4-28c7.2-39.3,45-65.5,84.4-58.3c11.5,2.1,22,6.8,31.2,13.9c9.3,7.2,16.8,16.6,21.7,27.3
							c3.6,7.8,5.7,16.1,6.4,24.6c0,0,0,0,0,0c0.5,6.2,0.1,12.4-1,18.6c-2.8,15.2-10.2,28.9-21.4,39.5
							C124.8,133.2,123.8,133.6,122.8,133.6z M72.4,103.6c16,0,32,5.2,45.3,15.8c0.4,0.3,0.8,0.6,1.2,0.9c1.4,1.1,2.7,2.3,3.9,3.5
							c8.4-9,14-20.1,16.3-32.4c1-5.5,1.3-11,0.9-16.5l0,0c-0.6-7.6-2.5-14.9-5.7-21.9c-4.4-9.5-11.1-17.9-19.4-24.3
							c-8.2-6.3-17.5-10.5-27.8-12.3c-35-6.4-68.7,16.9-75.1,51.9c-1.5,8.3-1.4,16.7,0.3,24.9c2.1,10.1,6.7,19.5,13.2,27.5
							C38.9,109.4,55.7,103.6,72.4,103.6z M61.9,91.1c-1.2,0-2.4-0.6-3.2-1.6C52.2,81,43.9,78,34.7,80.8c-1.5,0.5-3,0-4.1-1.1
							c-1-1.1-1.4-2.7-0.9-4.1c3.5-9.6,1.9-16.7-4.7-21.3c-1.5-1-2.1-2.8-1.5-4.5c0.5-1.7,2.1-2.8,3.9-2.8c0.2,0,0.3,0,0.5,0
							c9.9,0,15.1-4.7,16.9-15.1c0.3-1.5,1.3-2.7,2.8-3.1c1.4-0.4,3,0,4.1,1c6.4,6.6,13,7.9,20.7,3.9c1.4-0.7,3.1-0.6,4.3,0.4
							c1.2,1,1.8,2.6,1.4,4.1c-2.7,10.7-0.4,18.2,7.1,23.6c1.3,0.9,1.9,2.6,1.6,4.2c-0.4,1.6-1.7,2.8-3.3,3
							c-8.6,1.4-14.3,7.7-17.7,19.2c-0.4,1.5-1.6,2.5-3.1,2.8C62.3,91.1,62.1,91.1,61.9,91.1z M41.3,71.8c6.9,0,13.5,2.6,19,7.7
							c3.4-7.8,8.3-13.3,14.6-16.2c-4.5-5.4-6.5-12-5.9-19.9c-6.3,1.4-12.5,0.2-18.1-3.6c-2.8,7.5-7.9,12.3-15,14.3
							c3.3,4.9,4.4,11.1,3.2,17.9C39.8,71.8,40.6,71.8,41.3,71.8z"/>
					</g>
				</g>
			</g>
		</g>
		<g>
			<g>
				<g>
					<g>
						<path class="st1" d="M55.8,70.9c-0.7,0-1.4-0.1-2.1-0.2c-3.1-0.6-5.9-2.3-7.7-4.9S43.5,60,44,56.9s2.3-5.9,5-7.7
							c2.6-1.8,5.8-2.5,8.9-1.9c6.5,1.2,10.8,7.4,9.6,13.9C66.5,66.9,61.4,70.9,55.8,70.9z M55.8,55.1c-0.8,0-1.6,0.2-2.2,0.7
							c-0.9,0.6-1.4,1.5-1.6,2.5c-0.2,1,0,2.1,0.6,2.9c0.6,0.9,1.5,1.4,2.5,1.6l0,0c2.1,0.4,4.2-1,4.6-3.1c0.4-2.1-1-4.2-3.2-4.6
							C56.2,55.1,56,55.1,55.8,55.1z"/>
					</g>
				</g>
			</g>
		</g>
		<g>
			<g>
				<g>
					<g>
						<path class="st1" d="M55.8,70.9c-0.7,0-1.4-0.1-2.1-0.2c-3.1-0.6-5.9-2.3-7.7-4.9S43.5,60,44,56.9s2.3-5.9,5-7.7
							c2.6-1.8,5.8-2.5,8.9-1.9c6.5,1.2,10.8,7.4,9.6,13.9C66.5,66.9,61.4,70.9,55.8,70.9z M55.8,55.1c-0.8,0-1.6,0.2-2.2,0.7
							c-0.9,0.6-1.4,1.5-1.6,2.5c-0.2,1,0,2.1,0.6,2.9c0.6,0.9,1.5,1.4,2.5,1.6l0,0c2.1,0.4,4.2-1,4.6-3.1c0.4-2.1-1-4.2-3.2-4.6
							C56.2,55.1,56,55.1,55.8,55.1z"/>
					</g>
				</g>
			</g>
		</g>
	</g>
	<g class="st15">
		<g>
			<g>
				<g>
					<g>
						<path d="M135,112.5c-2.1,3.8-4.6,7.5-7.5,10.9c-1.7,2-3.4,3.9-5.3,5.6c0.2,0.2,0.3,0.3,0.5,0.5c5.1-4.8,9.5-10.4,12.9-16.7
							C135.5,112.8,135.2,112.7,135,112.5z"/>
					</g>
				</g>
			</g>
		</g>
		<g>
			<g>
				<g>
					<g>
						<path d="M143,87.8c-1,8.5-3.7,16.9-8,24.7c-2.1,3.8-4.6,7.5-7.5,10.9c-1.7,2-3.4,3.9-5.3,5.6c-1.9-2-3.8-3.9-6-5.6
							c-0.4-0.3-0.7-0.6-1.1-0.9c-2-1.6-4-3-6-4.3c-26.4-16.8-61.2-13.5-84,8.2c-3.4-3.7-6.4-7.8-9-12.2
							c31.9-24,66.6-24.5,103.3-9.1c9.5-18,8.8-44.5-1.8-79.1c0.4,0.3,0.7,0.6,1.1,0.9c2.3,1.9,4.5,4,6.5,6.1
							C139.3,48.2,145.3,68.3,143,87.8z"/>
					</g>
				</g>
			</g>
		</g>
	</g>
	<g>
		<g>
			<g>
				<g>
					<path class="st13" d="M140.5,184.3c11.7,9.4,26.6,15,42.8,15c37.9,0,68.6-30.7,68.6-68.5s-30.7-68.5-68.6-68.5
						c-14.6,0-28.2,4.6-39.4,12.4c0.4,5.7,0.1,11.6-0.9,17.6c-2.7,14.9-10,27.7-20.2,37.4C136.8,144.7,142.8,164.8,140.5,184.3z
						 M173.8,118.6c8.4-9.1,10.1-19.7,4.8-29.6c10.9,1.9,20.1-1.1,24.5-10.8c1.9,11.6,9,17.8,22,17.7c-6.5,9-6.4,17.6,0,25.8
						c-12.8-0.8-21.3,3.8-25.8,13.5C195.8,125.3,187.2,119.9,173.8,118.6z"/>
				</g>
			</g>
		</g>
	</g>
	<g>
		<g>
			<g>
				<g>
					<path class="st16" d="M173.8,118.6c13.4,1.3,22,6.8,25.4,16.5c4.6-9.6,13-14.3,25.8-13.5c-6.4-8.2-6.5-16.8,0-25.8
						c-13,0.1-20-6.1-22-17.7c-4.3,9.7-13.6,12.7-24.5,10.8C183.9,98.9,182.2,109.5,173.8,118.6z M192.5,107.6
						c0-4.4,3.6-7.9,7.9-7.9c4.4,0,7.9,3.6,7.9,7.9s-3.5,7.9-7.9,7.9S192.5,111.9,192.5,107.6z"/>
				</g>
			</g>
		</g>
	</g>
	<g>
		<g>
			<g>
				<g>
					<path class="st13" d="M192.5,107.6c0,4.4,3.6,7.9,7.9,7.9s7.9-3.5,7.9-7.9s-3.5-7.9-7.9-7.9C196,99.7,192.5,103.2,192.5,107.6z
						"/>
				</g>
			</g>
		</g>
	</g>
	<g>
		<g>
			<g>
				<g>
					<path class="st13" d="M28.5,228.7c29.1,24.2,72.3,20.3,96.6-8.8c8.8-10.5,13.9-23,15.4-35.6c2.3-19.5-3.7-39.6-17.7-54.7
						c-2-2.2-4.2-4.2-6.5-6.1c-0.4-0.3-0.7-0.6-1.1-0.9c-27-21.6-65.5-19.5-90,3.8c-1.9,1.8-3.7,3.7-5.4,5.8c-1.8,2.2-3.5,4.5-5,6.8
						c-5.1,7.9-8.4,16.6-9.9,25.6C0.9,187.9,9.1,212.5,28.5,228.7z M52.6,214c8.8-9.3,10.7-18.8,6.2-28.4c9.8,3.6,19.4,0.5,29-8.9
						c1.6,12.3,8.7,20.3,19.7,22.7c-8.5,7.2-12.1,16.2-7.4,25.7c-10.2-5.9-19.5-4.5-27.7,5.5C69.7,219.7,63,214.3,52.6,214z"/>
				</g>
			</g>
		</g>
	</g>
	<g class="st15">
		<g>
			<g>
				<g>
					<path d="M28.5,228.7c29.1,24.2,72.3,20.3,96.6-8.8c8.8-10.5,13.9-23,15.4-35.6c2.3-19.5-3.7-39.6-17.7-54.7
						c-2-2.2-4.2-4.2-6.5-6.1c-0.4-0.3-0.7-0.6-1.1-0.9C139.5,201.8,111.9,238.3,28.5,228.7z"/>
				</g>
			</g>
		</g>
	</g>
	<g class="st15">
		<g>
			<g>
				<g>
					<g>
						<path d="M250.3,139c-1.5,12.7-6.6,25.1-15.4,35.6c-24.2,29.1-67.5,33-96.6,8.8c0.8,0.1,1.5,0.2,2.3,0.3
							c2.1-19.3-3.9-39.1-17.8-54c10.2-9.6,17.5-22.5,20.2-37.4c1.1-5.9,1.4-11.8,0.9-17.5c4.5-3.2,9.4-5.8,14.6-7.8
							C155.7,90,144,119,142.7,130.8c-1.2,10.5,8.1,32.6,10,53.8c72.1,3.9,95.1-32.8,72.3-107.3c0.4,0.3,0.7,0.6,1.1,0.9
							c2.3,1.9,4.5,4,6.5,6.1C246.6,99.4,252.6,119.5,250.3,139z"/>
					</g>
				</g>
			</g>
		</g>
	</g>
	<g>
		<g>
			<g>
				<g>
					<path class="st16" d="M52.6,214c10.4,0.4,17.1,5.8,19.8,16.5c8.2-10,17.5-11.4,27.7-5.5c-4.7-9.5-1.1-18.5,7.4-25.7
						c-11-2.4-18.1-10.4-19.7-22.7c-9.6,9.4-19.2,12.5-29,8.9C63.3,195.2,61.5,204.7,52.6,214z M73.2,199c2.8-3.4,7.8-3.8,11.2-1
						c3.4,2.8,3.8,7.8,1,11.2c-2.8,3.4-7.8,3.8-11.2,1C70.9,207.3,70.4,202.3,73.2,199z"/>
				</g>
			</g>
		</g>
	</g>
	<g>
		<g>
			<g>
				<g>
					<path class="st13" d="M74.2,210.1c3.4,2.8,8.4,2.3,11.2-1c2.8-3.4,2.4-8.4-1-11.2c-3.4-2.8-8.4-2.3-11.2,1
						C70.4,202.3,70.9,207.3,74.2,210.1z"/>
				</g>
			</g>
		</g>
	</g>
	<g>
		<g>
			<g>
				<g>
					<g>
						<path class="st1" d="M183.3,203.3C183.3,203.3,183.3,203.3,183.3,203.3c-16.4,0-32.5-5.6-45.3-15.9c-1.1-0.9-1.6-2.2-1.5-3.6
							c2.3-18.9-3.8-37.6-16.7-51.5c-1.5-1.6-1.4-4.1,0.2-5.6c10-9.4,16.6-21.6,19-35.2c1-5.5,1.3-11,0.9-16.5
							c-0.1-1.4,0.5-2.8,1.7-3.6c12.2-8.6,26.6-13.1,41.7-13.1h0c40,0,72.6,32.5,72.6,72.5C255.8,170.8,223.3,203.3,183.3,203.3z
							 M144.7,182.5c11.2,8.4,24.5,12.8,38.6,12.8c0,0,0,0,0,0c35.6,0,64.5-28.9,64.6-64.5c0-35.6-29-64.5-64.6-64.5
							c-12.6,0-24.8,3.6-35.2,10.4c0.2,5.4-0.1,10.9-1.1,16.2c-2.6,14-9,26.6-18.7,36.8C140.5,144.4,146.4,163.3,144.7,182.5z
							 M199.3,139.1c-0.1,0-0.1,0-0.2,0c-1.6-0.1-3-1.1-3.6-2.7c-2.9-8.2-10.1-12.7-22.1-13.9c-1.5-0.2-2.8-1.1-3.3-2.6
							c-0.5-1.4-0.2-3,0.8-4.1c7.2-7.9,8.7-16.5,4.2-25.1c-0.7-1.3-0.6-3,0.3-4.2c0.9-1.2,2.4-1.8,3.9-1.6
							c10.1,1.7,16.8-1.1,20.1-8.5c0.7-1.6,2.4-2.6,4.2-2.3c1.7,0.2,3.1,1.6,3.4,3.3c1.7,9.9,7.1,14.4,17.7,14.4c0.1,0,0.2,0,0.3,0
							c1.5,0,2.9,0.8,3.6,2.2c0.7,1.3,0.6,2.9-0.3,4.2c-5.4,7.5-5.4,14.2-0.1,21c1,1.2,1.1,2.9,0.4,4.3s-2.2,2.2-3.8,2.1
							c-10.9-0.7-18.1,2.9-22,11.2C202.2,138.3,200.8,139.1,199.3,139.1z M181,115.7c8.3,1.9,14.5,5.7,18.6,11.4
							c5.2-6.2,12-8.6,18.5-9.3c-2.6-6-2.5-12.2,0.3-18.4c-7.9-1.4-13.5-5.5-16.7-12.2c-4.3,4.1-10.1,6.3-17,6.4
							C186.7,101,185.4,108.7,181,115.7z"/>
					</g>
				</g>
			</g>
		</g>
		<g>
			<g>
				<g>
					<g>
						<path class="st1" d="M200.4,119.5c-3.2,0-6.2-1.2-8.4-3.5c-2.3-2.3-3.5-5.2-3.5-8.4l0,0v0c0-3.2,1.2-6.2,3.5-8.4
							c2.3-2.3,5.2-3.5,8.4-3.5c0,0,0,0,0,0c6.6,0,11.9,5.3,11.9,11.9C212.3,114.1,207,119.5,200.4,119.5z M200.4,103.7
							c-1,0-2,0.4-2.8,1.2s-1.2,1.7-1.2,2.8v0c0,1,0.4,2,1.1,2.8c0.7,0.7,1.7,1.2,2.8,1.2c2.2,0,3.9-1.8,3.9-3.9
							C204.3,105.4,202.6,103.7,200.4,103.7L200.4,103.7z M192.5,107.6L192.5,107.6L192.5,107.6z"/>
					</g>
				</g>
			</g>
		</g>
	</g>
	<g>
		<g>
			<g>
				<g>
					<g>
						<path class="st1" d="M72.4,248.5c-16.4,0-32.9-5.5-46.4-16.8C6.2,215.3-3.4,189.3,0.9,164c1.6-9.7,5.2-18.8,10.5-27.1
							c1.6-2.5,3.4-5,5.3-7.2c1.8-2.2,3.8-4.3,5.8-6.1c26.1-24.9,67.1-26.6,95.3-4.1c0.4,0.3,0.8,0.6,1.2,0.9c2.4,2,4.7,4.2,6.8,6.5
							c14.5,15.6,21.3,36.7,18.7,57.9c-1.7,13.9-7.3,26.9-16.3,37.7C113.8,239.7,93.2,248.5,72.4,248.5z M72.4,111.6
							c-16.1,0-32.1,5.9-44.5,17.7c-1.8,1.7-3.5,3.5-5.1,5.5c-1.7,2-3.3,4.2-4.7,6.4c-4.7,7.3-7.9,15.4-9.3,24.1
							c-3.8,22.6,4.7,45.7,22.3,60.3c27.4,22.8,68.1,19.1,90.9-8.2c8-9.6,13-21.2,14.5-33.6c2.3-18.9-3.8-37.6-16.7-51.5
							c0,0,0,0,0,0c-1.9-2-3.9-4-6.1-5.8c-0.3-0.3-0.7-0.5-1-0.8C101,116.3,86.7,111.6,72.4,111.6z M72.5,234.5
							c-0.3,0-0.6,0-0.9-0.1c-1.5-0.3-2.6-1.4-3-2.9c-2.3-8.9-7.4-13.2-16.1-13.5c-1.6-0.1-3-1-3.6-2.5c-0.6-1.5-0.3-3.1,0.8-4.3
							c7.5-7.9,9.3-15.7,5.5-24c-0.7-1.5-0.4-3.2,0.7-4.4c1.1-1.2,2.8-1.6,4.3-1c8.1,3,16.2,0.4,24.8-8c1.1-1.1,2.7-1.4,4.1-0.9
							c1.4,0.5,2.5,1.7,2.7,3.2c1.4,10.6,7.2,17.3,16.6,19.3c1.5,0.3,2.7,1.5,3,2.9c0.4,1.5-0.1,3-1.3,4c-9.7,8.2-8.8,15.9-6.4,20.9
							c0.8,1.6,0.4,3.5-0.9,4.7c-1.3,1.2-3.2,1.4-4.7,0.5c-8.8-5.1-15.8-3.7-22.6,4.6C74.8,234,73.7,234.5,72.5,234.5z M60.1,211.1
							c6.2,1.9,11,5.9,14,12.1c6.1-5.1,12.9-6.8,20.1-5c-0.4-5.9,1.6-11.8,6-17.1c-7-3.3-12.2-9.2-14.8-17
							c-6.8,5.2-13.7,7.5-20.7,6.9C65.8,196.7,65.1,203.7,60.1,211.1z"/>
					</g>
				</g>
			</g>
		</g>
		<g>
			<g>
				<g>
					<g>
						<path class="st1" d="M79.3,216c-2.7,0-5.4-0.9-7.6-2.8c0,0,0,0,0,0c-5-4.2-5.7-11.7-1.5-16.8c2-2.4,4.9-4,8.1-4.2
							c3.2-0.3,6.3,0.7,8.7,2.7c2.5,2,4,4.9,4.2,8.1c0.3,3.2-0.7,6.3-2.7,8.7C86.1,214.5,82.7,216,79.3,216z M76.8,207.1
							c1.7,1.4,4.2,1.2,5.5-0.5c0.7-0.8,1-1.8,0.9-2.9c-0.1-1-0.6-2-1.4-2.7c-0.8-0.7-1.8-1-2.9-0.9c-1,0.1-2,0.6-2.7,1.4
							C74.9,203.2,75.1,205.7,76.8,207.1z"/>
					</g>
				</g>
			</g>
		</g>
	</g>
</g>
</svg>
