<?xml version="1.0" encoding="utf-8"?>
<!-- Generator: Adobe Illustrator 22.1.0, SVG Export Plug-In . SVG Version: 6.00 Build 0)  -->
<svg version="1.1" id="Layer_1" xmlns="http://www.w3.org/2000/svg" xmlns:xlink="http://www.w3.org/1999/xlink" x="0px" y="0px"
	 viewBox="0 0 256 256" style="enable-background:new 0 0 256 256;" xml:space="preserve">
<style type="text/css">
	.st0{fill:#F5B31F;}
	.st1{fill:#464646;}
	.st2{opacity:0.15;}
	.st3{fill:#AC6535;}
	.st4{fill:#EB573B;}
	.st5{fill:#90C056;}
	.st6{opacity:0.35;}
	.st7{fill:#FFFFFF;}
	.st8{opacity:0.2;}
	.st9{fill:#F6D67A;}
	.st10{opacity:0.3;}
	.st11{fill:#FFA755;}
	.st12{fill:#8FAE3C;}
	.st13{fill:#BE6BB2;}
	.st14{fill:#B7C536;}
	.st15{opacity:0.1;}
	.st16{fill:#9D5A96;}
	.st17{fill:#EA615D;}
	.st18{opacity:0.4;}
	.st19{fill:#F79932;}
	.st20{fill:#FFEC97;}
	.st21{fill:#FFD11D;}
	.st22{fill:#F7F2D5;}
	.st23{fill:#F6AF72;}
	.st24{fill:#BA6C45;}
	.st25{opacity:0.5;}
	.st26{fill:#E4C074;}
	.st27{fill:#656566;}
	.st28{fill:#FACD1F;}
	.st29{fill:#FFDF66;}
	.st30{fill:#6D6E71;}
	.st31{fill:#E77CAE;}
	.st32{fill:#FFE5C4;}
	.st33{fill:#F68455;}
	.st34{opacity:0.7;}
	.st35{fill:#ADEDFF;}
	.st36{fill:#EC754B;}
	.st37{fill:#4AA5BA;}
	.st38{opacity:0.8;}
	.st39{fill:#92A5AC;}
	.st40{fill:#D06E3C;}
	.st41{fill:#DA4F4B;}
	.st42{fill:#BDF3FF;}
	.st43{fill:#F18BB4;}
	.st44{fill:#F9D97A;}
	.st45{fill:none;}
	.st46{fill:#AF6535;}
	.st47{fill:#B93226;}
	.st48{fill:#FF6050;}
	.st49{fill:#EA7CB1;}
	.st50{fill:#00B0E0;}
	.st51{fill:#EA7DAE;}
	.st52{fill:#BC7532;}
	.st53{fill:#876C6C;}
	.st54{fill:#F9F6CD;}
	.st55{fill:#FFE37B;}
	.st56{fill:#1DDCFF;}
	.st57{fill:#60ACF7;}
	.st58{fill:#C3755A;}
	.st59{fill:#96557A;}
	.st60{fill:#66625D;}
	.st61{fill:#D68032;}
	.st62{fill:#F2A355;}
	.st63{fill:#7E9E6A;}
	.st64{fill:#965A85;}
	.st65{fill:#90CAD3;}
	.st66{fill:#94B57F;}
	.st67{fill:#B2E2E7;}
	.st68{fill:#FFDF8F;}
	.st69{fill:#FFFAEB;}
	.st70{fill:#F88916;}
	.st71{fill:#FFC86E;}
	.st72{fill:#AFA51D;}
	.st73{fill:#968A1C;}
	.st74{fill:#C3556D;}
</style>
<g>
	<g>
		<g>
			<path class="st0" d="M219.8,130.5l0,21.2l-72.9-24.3c0.1-4.8,0.1-8.1,0.1-8.1l-5.1-15.2L219.8,130.5z"/>
		</g>
	</g>
	<g>
		<g>
			<path class="st0" d="M219.8,174.7l0,21.2l-75.3-26.1c1.3-2,2-4.6,2-7.5c0-2,0.1-6.9,0.1-12.7L219.8,174.7z"/>
		</g>
	</g>
	<g>
		<g>
			<polygon class="st9" points="219.8,106.2 219.8,130.5 141.9,104.1 133,77.4 			"/>
		</g>
	</g>
	<g>
		<g>
			<path class="st9" d="M219.8,151.7l0,23l-73.2-25.1c0.1-7.3,0.2-16.1,0.3-22.3L219.8,151.7z"/>
		</g>
	</g>
	<g>
		<g>
			<path class="st9" d="M219.8,196l0,24.1l-78.7-27.5l0-19.4c1.3-0.7,2.5-1.9,3.4-3.3L219.8,196z"/>
		</g>
	</g>
	<g>
		<g>
			<path class="st3" d="M232,94.6l0,66.6c-5.3,0.3-9.6-1.7-12.2-7.9l0-47.2L133,77.4l-5-15.1L232,94.6z"/>
		</g>
	</g>
	<g>
		<g>
			<path class="st1" d="M219.8,155.7c-0.4,0-0.9-0.1-1.3-0.2l-72.9-24.3c-1.7-0.6-2.8-2.1-2.7-3.8l0.1-7.4l-4.9-14.6
				c-0.5-1.4-0.1-3,1-4.1c1.1-1.1,2.7-1.4,4.1-1l77.9,26.5c1.6,0.6,2.7,2.1,2.7,3.8l0,21.2c0,1.3-0.6,2.5-1.7,3.2
				C221.4,155.4,220.6,155.7,219.8,155.7z M150.9,124.5l64.9,21.7l0-12.7l-67.5-22.9l2.5,7.6c0.1,0.4,0.2,0.9,0.2,1.3L150.9,124.5z"
				/>
		</g>
	</g>
	<g>
		<g>
			<path class="st1" d="M230.9,165.3c-6.9,0-12-3.6-14.8-10.3c-0.2-0.5-0.3-1-0.3-1.5l0-44.3l-84-27.9c-1.2-0.4-2.1-1.3-2.5-2.5
				l-5-15.1c-0.5-1.4-0.1-3,0.9-4.1c1-1.1,2.6-1.5,4-1l104,32.3c1.7,0.5,2.8,2.1,2.8,3.8l0,66.6c0,2.1-1.6,3.9-3.8,4
				C231.8,165.3,231.3,165.3,230.9,165.3z M223.8,152.5c1.1,2.2,2.4,3.6,4.2,4.3l0-59.2l-93.7-29.1l1.9,5.8l84.9,28.1
				c1.6,0.5,2.7,2.1,2.7,3.8L223.8,152.5z"/>
		</g>
	</g>
	<g>
		<g>
			<path class="st1" d="M219.8,134.5c-0.4,0-0.9-0.1-1.3-0.2l-77.9-26.5c-1.2-0.4-2.1-1.3-2.5-2.5l-8.9-26.7c-0.5-1.4-0.1-3,1-4.1
				s2.7-1.4,4.1-1l86.8,28.8c1.6,0.5,2.7,2.1,2.7,3.8l0,24.3c0,1.3-0.6,2.5-1.7,3.3C221.4,134.3,220.6,134.5,219.8,134.5z
				 M145,100.9l70.7,24l0-15.9l-76.5-25.3L145,100.9z"/>
		</g>
	</g>
	<g>
		<g>
			<path class="st1" d="M219.8,178.7c-0.4,0-0.9-0.1-1.3-0.2l-73.2-25.1c-1.6-0.6-2.7-2.1-2.7-3.8c0.1-7.3,0.2-16.1,0.3-22.3
				c0-1.3,0.6-2.5,1.7-3.2c1-0.7,2.4-0.9,3.6-0.5l72.9,24.3c1.6,0.5,2.7,2.1,2.7,3.8l0,23c0,1.3-0.6,2.5-1.7,3.3
				C221.4,178.5,220.6,178.7,219.8,178.7z M150.6,146.8l65.2,22.3l0-14.6l-65-21.7C150.7,137.3,150.7,142.2,150.6,146.8z"/>
		</g>
	</g>
	<g>
		<g>
			<path class="st1" d="M219.8,200c-0.4,0-0.9-0.1-1.3-0.2l-75.3-26.1c-1.1-0.4-2-1.3-2.5-2.4c-0.4-1.1-0.3-2.4,0.4-3.4
				c0.9-1.5,1.4-3.4,1.4-5.4c0-2.1,0.1-7.7,0.1-12.8c0-1.3,0.6-2.5,1.7-3.2c1-0.7,2.4-0.9,3.6-0.5l73.2,25.1
				c1.6,0.6,2.7,2.1,2.7,3.8l0,21.2c0,1.3-0.6,2.5-1.7,3.3C221.4,199.7,220.6,200,219.8,200z M149.8,167.4l66,22.9l0-12.7
				l-65.3-22.4c0,3.1-0.1,5.8-0.1,7.2C150.5,164.1,150.2,165.8,149.8,167.4z"/>
		</g>
	</g>
	<g>
		<g>
			<path class="st1" d="M219.8,224.1c-0.4,0-0.9-0.1-1.3-0.2l-78.7-27.5c-1.6-0.6-2.7-2.1-2.7-3.8l0-19.4c0-1.5,0.8-2.8,2.1-3.5
				c0.7-0.4,1.4-1,1.9-1.9c1-1.6,2.9-2.3,4.7-1.7l75.3,26.1c1.6,0.6,2.7,2.1,2.7,3.8l0,24.1c0,1.3-0.6,2.5-1.7,3.3
				C221.4,223.8,220.6,224.1,219.8,224.1z M145.1,189.8l70.7,24.7l0-15.6l-69.9-24.3c-0.2,0.2-0.5,0.5-0.7,0.7L145.1,189.8z"/>
		</g>
	</g>
	<g class="st8">
		<g>
			<g>
				<path class="st1" d="M155,197.5l0-21.8c1.3-0.7,2.5-1.9,3.4-3.3c1.3-2,2-4.6,2-7.5c0-2,0.1-6.9,0.1-12.7
					c0.1-7.3,0.2-16.1,0.3-22.3c0.1-4.8,0.1-8.1,0.1-8.1l-5.1-15.2l-8.9-26.7l-5-15.1l-16.3,0.5l13.5,127.2L155,197.5z"/>
			</g>
		</g>
	</g>
	<g>
		<g>
			<path class="st31" d="M243,147.4l0,41c0,17.2-23.3,31.7-23.3,31.7l0-66.7c2.6,6.2,6.9,8.2,12.2,7.9c4.5-0.9,7-12.1,10.1-13.5
				C242.4,147.6,242.7,147.5,243,147.4z"/>
		</g>
	</g>
	<g class="st8">
		<g>
			<path class="st1" d="M243,171.8l0,7.3l0,9.4c0,17.2-23.3,31.7-23.3,31.7l0-8.3c0,0,11.1-11.4,14.3-17.6
				C237.3,188,243,171.8,243,171.8z"/>
		</g>
	</g>
	<g>
		<g>
			<path class="st31" d="M141.1,173.1l0,65.8c-19.6,0-130-1.3-130-49.1l0-49.2c0.4,0,0.7-0.1,1.1-0.1c6.7-0.7,10.5-11.6,21-7.9
				c10.5,3.7,17.2,28.1,27.4,29.6c10.1,1.5,29.6-23.6,40.1-18.7S133,174,137.8,174C139,174,140.1,173.7,141.1,173.1z"/>
		</g>
	</g>
	<g class="st8">
		<g>
			<path class="st1" d="M141.1,210.7l0,28.3c-19.6,0-130-1.3-130-49.1c0,0,18,29.5,70,36.2C133,232.9,141.1,210.7,141.1,210.7z"/>
		</g>
	</g>
	<g>
		<g>
			<path class="st3" d="M232,94.6L128,62.4l5,15.1l8.9,26.7l5.1,15.2C81.7,118.5,4,92.8,4,66.3c1.3-68.6,248-61.2,248-4
				C252,73.6,232,94.6,232,94.6z"/>
		</g>
	</g>
	<g class="st2">
		<g>
			<path class="st7" d="M154.7,18.3C85.5,12.8,4.7,27.2,4,66.3C4,80.3,25.5,94,55.4,104c0,0-34.7-24.9-15.6-53
				S154.7,18.3,154.7,18.3z"/>
		</g>
	</g>
	<g class="st8">
		<g>
			<path class="st1" d="M144.5,131.1c0,0,0,3.3-0.1,8.1c-0.1,6.2-0.2,15-0.3,22.3c-0.1,5.8-0.1,10.8-0.1,12.7c0,2.8-0.7,5.4-2,7.5
				c-0.9,1.5-2.1,2.6-3.4,3.3c-1,0.5-2.1,0.8-3.2,0.8c-4.9,0-26.6-25.5-37.1-30.3c-10.5-4.9-30,20.2-40.1,18.7
				c-10.1-1.5-16.9-25.8-27.4-29.6s-14.3,7.1-21,7.9c-0.4,0-1.1,0.1-1.1,0.1l-0.1-11.8l5.1-31.9C13.6,135.3,79.2,130.4,144.5,131.1z
				"/>
		</g>
	</g>
	<g>
		<g>
			<path class="st3" d="M147,119.3c0,0,0,3.3-0.1,8.1c-0.1,6.2-0.2,15-0.3,22.3c-0.1,5.8-0.1,10.8-0.1,12.7c0,2.8-0.7,5.4-2,7.5
				c-0.9,1.5-2.1,2.6-3.4,3.3c-1,0.5-2.1,0.8-3.2,0.8c-4.9,0-26.6-25.5-37.1-30.3s-30,20.2-40.1,18.7c-10.1-1.5-16.9-25.8-27.4-29.6
				c-10.5-3.7-14.3,7.1-21,7.9c-0.4,0-0.8,0.1-1.1,0.1c-5.8,0.4-7.1-1.5-7.1-6.1c0-4.9,0-68.3,0-68.3C4,92.8,81.7,118.5,147,119.3z"
				/>
		</g>
	</g>
	<g class="st2">
		<g>
			<path class="st7" d="M37.7,97.2C22.3,89.1,4,75.7,4,66.3c0,0,0,63.4,0,68.3c0,4.6,1.3,6.5,7.1,6.1c0,0-0.1-33.6,5.4-38.2
				C21.9,97.9,37.7,97.2,37.7,97.2z"/>
		</g>
	</g>
	<g>
		<g class="st8">
			<g>
				<path class="st1" d="M232,161.2c0,0,20-74.9,20-86.2c0,0-7.1,65.8-7.1,73.4c0,6.9,1.5,10.7-1.8,11.7c-0.3,0.1-0.6,0.2-0.9,0.3
					c-3.1,1.4-5.6,12.6-10.1,13.5c-5.3,0.3-9.6-1.7-12.2-7.9l1.1-7.9"/>
			</g>
		</g>
	</g>
	<g>
		<g>
			<path class="st3" d="M252,62.4c0,0,0,69.9,0,77.5c0,6.9-5.6,6.6-8.9,7.5c-0.3,0.1-0.7,0.2-0.9,0.3c-3.1,1.4-5.6,12.6-10.1,13.5
				l0-66.6C232,94.6,252,73.6,252,62.4z"/>
		</g>
	</g>
	<g>
		<g>
			<path class="st1" d="M147,123.3C146.9,123.3,146.9,123.3,147,123.3c-32-0.4-68.4-6.7-97.3-17.1C31.1,99.6,0,85.6,0,66.3
				c0.3-17.8,15-32.1,42.3-41.5c22.8-7.8,53.8-12,87.1-11.7c32.3,0.3,62.7,4.7,85.6,12.3c26.8,8.9,41,21.7,41,36.9
				c0,12.5-18.9,32.8-21.1,35c-1,1.1-2.6,1.5-4.1,1.1l-96.5-30l16.5,49.5c0.4,1.2,0.2,2.6-0.6,3.6
				C149.4,122.7,148.2,123.3,147,123.3z M126.1,21.2C69,21.2,8.5,35.2,8,66.4c0,10.1,17,22.5,44.4,32.3c26.5,9.4,59.3,15.5,89,16.5
				l-17.2-51.5c-0.5-1.4-0.1-3,0.9-4.1c1-1.1,2.6-1.5,4-1l101.6,31.5C238,82,248,68.9,248,62.4c0-15.2-22.2-24.9-35.5-29.3
				c-21.8-7.3-52.1-11.6-83.2-11.9C128.2,21.2,127.1,21.2,126.1,21.2z"/>
		</g>
	</g>
	<g>
		<g>
			<path class="st1" d="M137.8,178c-3.6,0-7.8-3.6-18.7-13.9c-6.8-6.5-15.3-14.6-20.1-16.8c-3.5-1.6-11.9,4.6-18,9.1
				c-7.6,5.6-14.7,10.9-21,10c-7-1-11.7-8.5-16.7-16.4c-3.6-5.6-7.6-12-11.4-13.4c-4.1-1.5-6.3,0.1-10.1,3.2
				c-2.5,2.1-5.3,4.4-9.1,4.8c-0.4,0-0.8,0.1-1.2,0.1c0,0-0.1,0-0.1,0c-2.5,0.2-6.2,0.2-8.7-2.2c-2.4-2.2-2.7-5.4-2.7-7.9l0-68.3
				l0,0c0-2.2,1.8-4,4-4l0,0c2.2,0,4,1.8,4,4l0,0c0,10.2,17,22.6,44.4,32.4c28.2,10,63.5,16.2,94.7,16.6c1.1,0,2.1,0.4,2.8,1.2
				c0.7,0.8,1.2,1.8,1.1,2.8l-0.1,8.1c-0.1,6.2-0.2,15-0.3,22.3c-0.1,5.1-0.1,10.6-0.1,12.7c0,3.5-0.9,6.8-2.6,9.6
				c-1.3,2.1-3,3.7-4.9,4.7C141.4,177.5,139.6,178,137.8,178z M138.4,170L138.4,170L138.4,170z M97.7,139c1.6,0,3.2,0.3,4.7,1
				c6,2.8,14.3,10.6,22.3,18.2c4.8,4.5,11.3,10.7,13.5,11.7c0.3,0,0.7-0.1,1-0.3c0.7-0.4,1.4-1,1.9-1.9c0.9-1.5,1.4-3.4,1.4-5.4
				c0-2.1,0.1-7.7,0.1-12.8c0.1-7.3,0.2-16.1,0.3-22.3l0.1-4.1c-31-0.8-65.5-7.1-93.3-17C37,101.7,18.4,93.8,8,83l0,51.6
				c0,1.2,0.1,1.8,0.2,2c0.3,0.1,1,0.2,2.7,0.1c0.3,0,0.6-0.1,1-0.1c1.4-0.2,3.1-1.6,4.9-3c3.7-3.1,9.3-7.7,17.9-4.6
				c6.4,2.3,11,9.6,15.5,16.7c3.6,5.7,7.7,12.2,11.1,12.7c3,0.4,10-4.7,15.1-8.5C83.5,144.5,91,139,97.7,139z"/>
		</g>
	</g>
	<g>
		<g>
			<path class="st1" d="M232,165.2c-0.9,0-1.8-0.3-2.5-0.9c-0.9-0.8-1.5-1.9-1.5-3.1l0-66.6c0-1,0.4-2,1.1-2.8
				c7.3-7.7,18.9-22.5,18.9-29.5c0-2.2,1.8-4,4-4l0,0c2.2,0,4,1.8,4,4l0,77.5c0,9.1-7.3,10.5-10.4,11.1c-0.6,0.1-1.1,0.2-1.5,0.3
				c-0.1,0-0.1,0-0.1,0c-0.6,0.7-1.6,2.6-2.2,4c-2.1,4.2-4.5,8.9-8.9,9.8C232.5,165.2,232.2,165.2,232,165.2z M243.7,151.4
				C243.7,151.4,243.7,151.4,243.7,151.4C243.7,151.4,243.7,151.4,243.7,151.4z M236,96.2l0,52.8c1.2-2.2,2.6-4,4.5-4.9
				c0.4-0.2,0.9-0.4,1.5-0.5c0.7-0.2,1.4-0.3,2.1-0.5c3.6-0.7,3.9-1,3.9-3.2l0-58.7C243.5,87.8,238.3,93.6,236,96.2z"/>
		</g>
	</g>
	<g>
		<g>
			<path class="st1" d="M146.9,131.4L146.9,131.4c-2.2,0-4-1.8-4-4s1.8-4,4-4s4,1.8,4,4S149.1,131.4,146.9,131.4z"/>
		</g>
	</g>
	<g>
		<g>
			<path class="st1" d="M219.8,224.1c-0.7,0-1.3-0.2-1.9-0.5c-1.3-0.7-2.1-2-2.1-3.5l0-66.7c0-1.9,1.3-3.5,3.2-3.9
				c1.9-0.4,3.7,0.6,4.5,2.4c1.6,3.9,3.9,5.5,7.7,5.4c1-0.8,2.5-3.9,3.4-5.6c1.7-3.5,3.2-6.4,5.9-7.6c0.4-0.2,0.9-0.4,1.5-0.5
				c1.2-0.3,2.5-0.1,3.5,0.7c1,0.8,1.6,1.9,1.6,3.2l0,41c0,19.2-24.1,34.4-25.1,35C221.2,223.9,220.5,224.1,219.8,224.1z
				 M223.8,163.7l0,48.5c6.3-5.2,15.2-14.2,15.3-23.8l0-28.2c-1.6,2.4-3.5,4.4-6.3,5c-0.2,0-0.4,0.1-0.6,0.1
				C229,165.4,226.2,164.9,223.8,163.7z"/>
		</g>
	</g>
	<g>
		<g>
			<path class="st1" d="M243,151.4c-2.2,0-4-1.8-4-4v-0.2c0-2.2,1.8-4,4-4s4,1.8,4,4v0.2C247,149.7,245.2,151.4,243,151.4z"/>
		</g>
	</g>
	<g>
		<g>
			<path class="st1" d="M141.1,243L141.1,243c-15.4,0-45.3-0.9-73.1-6.7c-40.4-8.5-60.8-24.1-60.8-46.4l0-49.2c0-2.1,1.6-3.8,3.7-4
				c0.4,0,0.7-0.1,1-0.1c1.4-0.2,3.1-1.6,4.9-3c3.7-3.1,9.3-7.7,17.9-4.6c6.4,2.3,11,9.6,15.5,16.7c3.6,5.7,7.7,12.2,11.1,12.7
				c3,0.4,10-4.7,15.1-8.5c9-6.7,18.3-13.6,26.2-9.9c6,2.8,14.3,10.6,22.3,18.2c4.8,4.5,11.3,10.7,13.5,11.7c0.3,0,0.7-0.1,1-0.3
				c1.2-0.7,2.7-0.6,4,0.1c1.2,0.7,2,2,2,3.4l0,65.8C145.1,241.2,143.3,243,141.1,243z M15.1,144.1l0,45.8c0,18,18.3,31,54.5,38.5
				c24.9,5.2,51.6,6.4,67.5,6.5l0-57c-3.5-0.5-7.8-4.3-17.9-13.9c-6.8-6.5-15.3-14.6-20.1-16.8c-3.5-1.6-11.9,4.6-18,9.1
				c-7.6,5.6-14.7,10.9-21,10c-7-1-11.7-8.5-16.7-16.4c-3.6-5.6-7.6-12-11.4-13.4c-4.1-1.5-6.3,0.1-10.1,3.2
				C19.8,141.4,17.7,143.1,15.1,144.1z"/>
		</g>
	</g>
	<g>
		<g>
			<path class="st1" d="M146.6,153.6L146.6,153.6c-2.2,0-4-1.8-4-4s1.8-4,4-4s4,1.8,4,4S148.8,153.6,146.6,153.6z"/>
		</g>
	</g>
</g>
</svg>
