<?xml version="1.0" encoding="utf-8"?>
<!-- Generator: Adobe Illustrator 22.1.0, SVG Export Plug-In . SVG Version: 6.00 Build 0)  -->
<svg version="1.1" id="Layer_1" xmlns="http://www.w3.org/2000/svg" xmlns:xlink="http://www.w3.org/1999/xlink" x="0px" y="0px"
	 viewBox="0 0 256 256" style="enable-background:new 0 0 256 256;" xml:space="preserve">
<style type="text/css">
	.st0{fill:#F5B31F;}
	.st1{fill:#464646;}
	.st2{opacity:0.15;}
	.st3{fill:#AC6535;}
	.st4{fill:#EB573B;}
	.st5{fill:#90C056;}
	.st6{opacity:0.35;}
	.st7{fill:#FFFFFF;}
	.st8{opacity:0.2;}
	.st9{fill:#F6D67A;}
	.st10{opacity:0.3;}
	.st11{fill:#FFA755;}
	.st12{fill:#8FAE3C;}
	.st13{fill:#BE6BB2;}
	.st14{fill:#B7C536;}
	.st15{opacity:0.1;}
	.st16{fill:#9D5A96;}
	.st17{fill:#EA615D;}
	.st18{opacity:0.4;}
	.st19{fill:#F79932;}
	.st20{fill:#FFEC97;}
	.st21{fill:#FFD11D;}
	.st22{fill:#F7F2D5;}
	.st23{fill:#F6AF72;}
	.st24{fill:#BA6C45;}
	.st25{opacity:0.5;}
	.st26{fill:#E4C074;}
	.st27{fill:#656566;}
	.st28{fill:#FACD1F;}
	.st29{fill:#FFDF66;}
	.st30{fill:#6D6E71;}
	.st31{fill:#E77CAE;}
	.st32{fill:#FFE5C4;}
	.st33{fill:#F68455;}
	.st34{opacity:0.7;}
	.st35{fill:#ADEDFF;}
	.st36{fill:#EC754B;}
	.st37{fill:#4AA5BA;}
	.st38{opacity:0.8;}
	.st39{fill:#92A5AC;}
	.st40{fill:#D06E3C;}
	.st41{fill:#DA4F4B;}
	.st42{fill:#BDF3FF;}
	.st43{fill:#F18BB4;}
	.st44{fill:#F9D97A;}
	.st45{fill:none;}
	.st46{fill:#AF6535;}
	.st47{fill:#B93226;}
	.st48{fill:#FF6050;}
	.st49{fill:#EA7CB1;}
	.st50{fill:#00B0E0;}
	.st51{fill:#EA7DAE;}
	.st52{fill:#BC7532;}
	.st53{fill:#876C6C;}
	.st54{fill:#F9F6CD;}
	.st55{fill:#FFE37B;}
	.st56{fill:#1DDCFF;}
	.st57{fill:#60ACF7;}
	.st58{fill:#C3755A;}
	.st59{fill:#96557A;}
	.st60{fill:#66625D;}
	.st61{fill:#D68032;}
	.st62{fill:#F2A355;}
	.st63{fill:#7E9E6A;}
	.st64{fill:#965A85;}
	.st65{fill:#90CAD3;}
	.st66{fill:#94B57F;}
	.st67{fill:#B2E2E7;}
	.st68{fill:#FFDF8F;}
	.st69{fill:#FFFAEB;}
	.st70{fill:#F88916;}
	.st71{fill:#FFC86E;}
	.st72{fill:#AFA51D;}
	.st73{fill:#968A1C;}
	.st74{fill:#C3556D;}
</style>
<g>
	<g>
		<g>
			<g>
				<path class="st32" d="M243.3,191.8c0,0-26.6,17.9-32,17.9l-173.4,0c-4.4,0-30.6-17.9-30.6-17.9L243.3,191.8z"/>
			</g>
		</g>
	</g>
	<g>
		<g>
			<g>
				<path class="st40" d="M219.1,94.9c-4.1,8.4-7.6,16.4-7.6,16.4c-1.2,4-7.8,25.3-19,36.4c-11.2,11.1-31.7,16.2-46.6,1.4
					c-14.9-14.9-9.8-35.4,1.3-46.5c11.2-11.1,32.5-17.7,36.5-18.9c0,0,5.2-2.8,11.6-6.3c-23-14.3-50.9-25-80-26.1
					C42.8,48.4,4,128,4,155.6c0,14.1,8.8,27,23.1,36.2l178.4,0c24.3-11,45.7-27.3,46.5-44.6C252.6,133.3,239.9,113.1,219.1,94.9z
					 M62.8,174.7c-15.7-2.5-28.1-10.1-28.1-20.2s59-42.1,59.3-36.2c0.3,5.9-21.7,29.8-21.7,29.8s28.4,8.7,28.4,16.6
					C100.7,172.5,78.5,177.2,62.8,174.7z"/>
			</g>
		</g>
	</g>
	<g class="st15">
		<g>
			<g>
				<path d="M27.1,191.8l178.4,0c24.3-11,45.7-27.3,46.5-44.6c0.6-13.9-12.1-34.1-32.9-52.3c0,0,18.7,36.4,3.6,64.8
					S27.1,191.8,27.1,191.8z"/>
			</g>
		</g>
	</g>
	<g class="st2">
		<g>
			<g>
				<path class="st7" d="M115.3,51.2C42.8,48.4,4,128,4,155.6c0,14.1,8.8,27,23.1,36.2c0,0-15.3-41.1,9.5-80.8
					S115.3,51.2,115.3,51.2z"/>
			</g>
		</g>
	</g>
	<g class="st15">
		<g>
			<g>
				<path d="M114.5,163.2c0,11.7-24.4,14.4-40.7,16.2c-15.7-2.5,7.6-47.8,7.6-57.9s26.2-9.1,26.5-3.2c0.3,5.9-19,19.6-18.5,26.2
					C89.9,151.1,114.5,151.5,114.5,163.2z"/>
			</g>
		</g>
	</g>
	<g>
		<g>
			<g>
				<path class="st40" d="M100.7,164.6c0,7.9-22.2,12.6-38,10.1c-15.7-2.5-28.1-10.1-28.1-20.2s59-42.1,59.3-36.2
					c0.3,5.9-21.7,29.8-21.7,29.8S100.7,156.7,100.7,164.6z"/>
			</g>
		</g>
	</g>
	<g class="st2">
		<g>
			<g>
				<path class="st7" d="M94,118.3c-0.3-5.9-59.3,26.1-59.3,36.2c0,6,4.3,11.1,11.1,14.7c0,0-2.7-7.8,3.1-17.2S94,118.3,94,118.3z"
					/>
			</g>
		</g>
	</g>
	<g>
		<g>
			<g>
				<path class="st1" d="M205.5,195.8C205.5,195.8,205.5,195.8,205.5,195.8l-178.4,0c-0.8,0-1.5-0.2-2.2-0.6
					C9.1,184.9,0,170.5,0,155.5c0-9.2,3.9-22.7,10.3-36.2c5.3-11.1,14.9-27.4,30.2-42.1c21.6-20.8,47.5-31.2,75-30.1
					c34.5,1.3,63.6,15.3,81.9,26.7c1.2,0.8,1.9,2.1,1.9,3.5c0,1.4-0.8,2.7-2.1,3.4c-6.4,3.5-11.6,6.3-11.7,6.4
					c-0.2,0.1-0.4,0.2-0.7,0.3l-0.3,0.1c-15.7,4.9-28,11.3-34.6,17.9c-5.9,5.9-9.4,14.2-9.4,22.1c0,7,2.8,13.5,8.1,18.8
					c9.6,9.6,27.2,12.4,41-1.4c6.6-6.6,13-18.9,17.9-34.6l0.1-0.2c0-0.1,0.1-0.3,0.1-0.4c0-0.1,3.6-8.2,7.7-16.6
					c0.5-1.1,1.6-1.9,2.8-2.2c1.2-0.2,2.5,0.1,3.4,0.9c21.8,19.1,35,40.4,34.3,55.5c-1.1,23.8-34.5,41.5-48.9,48
					C206.6,195.7,206,195.8,205.5,195.8z M28.3,187.8l176.3,0c26.6-12.2,42.8-27.4,43.4-40.8c0.5-11.7-10.2-29.2-27.7-45.6
					c-2.7,5.6-4.7,10.3-5.2,11.3l0,0c-5.4,17.1-12.3,30.2-19.9,37.8c-13.2,13.2-36.3,17.3-52.3,1.4c-6.8-6.8-10.4-15.3-10.4-24.5
					c0-10,4.4-20.4,11.8-27.7c7.6-7.6,20.6-14.4,37.8-19.8c0.7-0.4,2.6-1.4,5.2-2.8c-17.5-10.1-42.8-20.8-72.1-22
					C83.3,53.9,60,69.7,46,83.1c-16,15.3-38,49.1-38,72.5C8,167.6,15.2,179,28.3,187.8z M71.8,179.4c-3.4,0-6.7-0.2-9.7-0.7
					c0,0,0,0,0,0c-19.1-3.1-31.5-12.6-31.5-24.2c0-2.1,0-8.7,27.7-25.3c8.9-5.3,27.5-15.5,34.3-15.6c3.5-0.1,5.3,2.3,5.4,4.5
					c0.1,2.7-1.2,7-11.6,19.8c-2.5,3.1-5,6-7,8.3c2.5,0.9,5.7,2.1,8.8,3.5c11.5,5.1,16.6,9.7,16.6,14.9c0,1.9-0.7,4.6-3.8,7.3
					C95.1,176.9,82.9,179.4,71.8,179.4z M63.4,170.8c12.6,2,27.8-1,32.4-5c0.7-0.6,0.9-1,0.9-1.1c-0.9-2.9-13-8.9-25.6-12.8
					c-1.3-0.4-2.3-1.5-2.7-2.8c-0.4-1.3,0-2.7,0.9-3.8c6.9-7.5,14.2-16.4,18-22.1c-5.3,2.1-13.9,6.3-23.8,12.2
					c-17,10.1-24.3,17.1-25,19.3C38.8,161.8,48.9,168.4,63.4,170.8L63.4,170.8z"/>
			</g>
		</g>
	</g>
	<g>
		<g>
			<g>
				<path class="st1" d="M71.8,179.4c-3.4,0-6.7-0.2-9.7-0.7c-19.1-3.1-31.5-12.6-31.5-24.2c0-2.1,0-8.7,27.7-25.3
					c8.9-5.3,27.5-15.5,34.3-15.7c3.6-0.1,5.3,2.3,5.4,4.5c0.1,2.7-1.2,7-11.6,19.8c-2.5,3.1-5,6-7,8.3c2.5,0.9,5.7,2.1,8.8,3.5
					c11.5,5.1,16.6,9.7,16.6,14.9c0,1.9-0.7,4.6-3.8,7.3C95.1,176.9,82.9,179.4,71.8,179.4z M38.6,154.6
					c0.1,7.2,10.3,13.8,24.7,16.1c12.6,2,27.7-1,32.4-5c0.7-0.6,0.9-1,0.9-1.1c-0.9-2.9-13-9-25.6-12.8c-1.3-0.4-2.3-1.5-2.7-2.8
					c-0.4-1.3,0-2.7,0.9-3.8c6.9-7.5,14.2-16.5,18-22.1c-5.3,2.1-13.9,6.3-23.8,12.2C46.6,145.5,39.3,152.5,38.6,154.6z M38.6,154.7
					L38.6,154.7L38.6,154.7z"/>
			</g>
		</g>
	</g>
	<g>
		<g>
			<g>
				<path class="st1" d="M211.3,213.7l-173.4,0c-4.6,0-20.4-10.1-32.9-18.6c-1.5-1-2.1-2.8-1.6-4.5c0.5-1.7,2.1-2.8,3.8-2.8
					c0,0,0,0,0,0l236,0c1.8,0,3.3,1.2,3.8,2.8c0.5,1.7-0.1,3.5-1.6,4.5C235.2,202,217,213.7,211.3,213.7z M38.1,205.7l173.2,0
					c2.2-0.3,10-4.6,18.5-9.9l-209.1,0C28.6,200.9,35.9,205.2,38.1,205.7z M37.9,205.7C37.9,205.7,37.9,205.7,37.9,205.7L37.9,205.7
					C37.9,205.7,37.9,205.7,37.9,205.7z"/>
			</g>
		</g>
	</g>
	<g class="st15">
		<g>
			<g>
				<path d="M222.8,93.6c-6.4,3.6-29.7-4.8-29.7-4.8c-4,1.2-25.3,7.8-36.5,18.9c-11.2,11.1-16.3,31.6-1.3,46.5
					c14.9,14.9,35.4,9.8,46.6-1.4c11.2-11.1,17.7-32.5,19-36.4c0,0,3.5-8,7.6-16.4L222.8,93.6z"/>
			</g>
		</g>
	</g>
	<g>
		<g>
			<g>
				<path class="st40" d="M247.7,66.8c-7.9,8.1-12.2,5.7-17.8,10.2c-2.7,2.2-7,10.2-10.9,17.9c-4.1,8.4-7.6,16.4-7.6,16.4
					c-1.2,4-7.8,25.3-19,36.4c-11.2,11.1-31.7,16.2-46.6,1.4c-14.9-14.9-9.8-35.4,1.3-46.5c11.2-11.1,32.5-17.7,36.5-18.9
					c0,0,5.2-2.8,11.6-6.3c8.4-4.6,18.8-10.6,22.7-13.4c6.8-5.1,0.1-8.1,9-16C235.9,39.9,255.6,58.6,247.7,66.8z"/>
			</g>
		</g>
	</g>
	<g class="st2">
		<g>
			<g>
				<path class="st7" d="M195.3,77.3c-6.4,3.6-11.6,6.3-11.6,6.3c-4,1.2-25.3,7.8-36.5,18.9c-11.2,11.1-16.3,31.6-1.3,46.5
					c5.3,5.3,11.2,8,17.2,8.9c0,0-17.8-20.6-12.6-37.7C155.6,103.3,195.3,77.3,195.3,77.3z"/>
			</g>
		</g>
	</g>
	<g>
		<g>
			<g>
				<path class="st1" d="M167.5,162.3c-8.6,0-17.3-3.1-24.5-10.3c-6.8-6.8-10.4-15.3-10.4-24.5c0-10,4.4-20.4,11.8-27.7
					c7.6-7.6,20.7-14.4,37.8-19.8c1.2-0.7,5.8-3.1,11.2-6.1c11.4-6.3,19.3-11,22.2-13.1c1.8-1.4,1.9-1.9,2.1-3.8
					c0.4-3.6,1.2-7.2,6.6-12c6.6-5.9,16.7-2.1,23.2,4.6c6.7,7,7.9,15.1,3.1,20.1l0,0c-5.3,5.5-9.5,6.9-12.9,8
					c-2.1,0.7-3.6,1.2-5.3,2.5c-0.6,0.5-3.2,3.2-9.8,16.6c-3.7,7.5-6.9,14.8-7.5,16.1l0,0c-5.4,17.1-12.3,30.2-19.9,37.8
					C188.1,157.8,177.9,162.3,167.5,162.3z M232.3,49.9c-1,0-1.9,0.3-2.6,0.9c-3.6,3.2-3.8,4.9-4,7c-0.3,2.5-0.7,5.9-5.3,9.3
					c-3.3,2.4-11.1,7.1-23.1,13.7c-6.4,3.5-11.6,6.3-11.7,6.4c-0.2,0.1-0.4,0.2-0.7,0.3l-0.3,0.1c-15.7,4.9-28,11.3-34.6,17.9
					c-5.9,5.9-9.4,14.2-9.4,22.1c0,7,2.8,13.5,8.1,18.8c9.6,9.6,27.2,12.4,41-1.4c6.6-6.6,13-18.9,17.9-34.6l0.1-0.2
					c0-0.1,0.1-0.3,0.1-0.4c0-0.1,3.6-8.2,7.7-16.6c7.1-14.3,10.2-17.8,11.9-19.2c2.8-2.3,5.5-3.2,7.8-3.9c2.9-1,5.6-1.8,9.6-5.9
					c0,0,0,0,0,0c1.8-1.9-0.3-6-3.1-9C239,52.2,235.2,49.9,232.3,49.9z"/>
			</g>
		</g>
	</g>
</g>
</svg>
