<?xml version="1.0" encoding="utf-8"?>
<!-- Generator: Adobe Illustrator 22.1.0, SVG Export Plug-In . SVG Version: 6.00 Build 0)  -->
<svg version="1.1" id="Layer_1" xmlns="http://www.w3.org/2000/svg" xmlns:xlink="http://www.w3.org/1999/xlink" x="0px" y="0px"
	 viewBox="0 0 256 256" style="enable-background:new 0 0 256 256;" xml:space="preserve">
<style type="text/css">
	.st0{fill:#F5B31F;}
	.st1{fill:#464646;}
	.st2{opacity:0.15;}
	.st3{fill:#AC6535;}
	.st4{fill:#EB573B;}
	.st5{fill:#90C056;}
	.st6{opacity:0.35;}
	.st7{fill:#FFFFFF;}
	.st8{opacity:0.2;}
	.st9{fill:#F6D67A;}
	.st10{opacity:0.3;}
	.st11{fill:#FFA755;}
	.st12{fill:#8FAE3C;}
	.st13{fill:#BE6BB2;}
	.st14{fill:#B7C536;}
	.st15{opacity:0.1;}
	.st16{fill:#9D5A96;}
	.st17{fill:#EA615D;}
	.st18{opacity:0.4;}
	.st19{fill:#F79932;}
	.st20{fill:#FFEC97;}
	.st21{fill:#FFD11D;}
	.st22{fill:#F7F2D5;}
	.st23{fill:#F6AF72;}
	.st24{fill:#BA6C45;}
	.st25{opacity:0.5;}
	.st26{fill:#E4C074;}
	.st27{fill:#656566;}
	.st28{fill:#FACD1F;}
	.st29{fill:#FFDF66;}
	.st30{fill:#6D6E71;}
	.st31{fill:#E77CAE;}
	.st32{fill:#FFE5C4;}
	.st33{fill:#F68455;}
	.st34{opacity:0.7;}
	.st35{fill:#ADEDFF;}
	.st36{fill:#EC754B;}
	.st37{fill:#4AA5BA;}
	.st38{opacity:0.8;}
	.st39{fill:#92A5AC;}
	.st40{fill:#D06E3C;}
	.st41{fill:#DA4F4B;}
	.st42{fill:#BDF3FF;}
	.st43{fill:#F18BB4;}
	.st44{fill:#F9D97A;}
	.st45{fill:none;}
	.st46{fill:#AF6535;}
	.st47{fill:#B93226;}
	.st48{fill:#FF6050;}
	.st49{fill:#EA7CB1;}
	.st50{fill:#00B0E0;}
	.st51{fill:#EA7DAE;}
	.st52{fill:#BC7532;}
	.st53{fill:#876C6C;}
	.st54{fill:#F9F6CD;}
	.st55{fill:#FFE37B;}
	.st56{fill:#1DDCFF;}
	.st57{fill:#60ACF7;}
	.st58{fill:#C3755A;}
	.st59{fill:#96557A;}
	.st60{fill:#66625D;}
	.st61{fill:#D68032;}
	.st62{fill:#F2A355;}
	.st63{fill:#7E9E6A;}
	.st64{fill:#965A85;}
	.st65{fill:#90CAD3;}
	.st66{fill:#94B57F;}
	.st67{fill:#B2E2E7;}
	.st68{fill:#FFDF8F;}
	.st69{fill:#FFFAEB;}
	.st70{fill:#F88916;}
	.st71{fill:#FFC86E;}
	.st72{fill:#AFA51D;}
	.st73{fill:#968A1C;}
	.st74{fill:#C3556D;}
</style>
<g>
	<g>
		<g>
			<path class="st46" d="M164.9,41c0,2.8-0.3,5.6-0.9,8.3c-3.4-1-6.9-1.6-10.6-1.6c-9.9,0-18.9,3.9-25.5,10.3
				c-6.6-6.4-15.6-10.3-25.5-10.3c-3.6,0-7,0.5-10.3,1.5c-0.6-2.6-0.9-5.4-0.9-8.2c0-20.4,16.5-36.9,36.9-36.9
				C148.4,4.1,164.9,20.6,164.9,41z"/>
		</g>
	</g>
	<g class="st2">
		<g>
			<path class="st7" d="M144.9,8.2c-5.1-2.6-10.8-4.1-16.9-4.1c-20.4,0-36.9,16.5-36.9,36.9c0,0,6.4-16.3,20.8-24.7
				S144.9,8.2,144.9,8.2z"/>
		</g>
	</g>
	<g>
		<g>
			<path class="st1" d="M127.9,62c-1,0-2-0.4-2.8-1.1c-6.1-5.9-14.2-9.1-22.7-9.1c-3.1,0-6.2,0.4-9.2,1.3c-1.1,0.3-2.2,0.2-3.2-0.4
				c-1-0.6-1.6-1.5-1.9-2.6c-0.7-3-1-6-1-9.1c0-22.6,18.3-40.9,40.9-40.9c0,0,0,0,0,0c22.5,0,40.9,18.4,40.9,40.9l0,0l0,0
				c0,3.1-0.3,6.2-1,9.2c-0.2,1.1-0.9,2-1.9,2.6c-1,0.6-2.1,0.7-3.2,0.4c-3.1-0.9-6.2-1.4-9.5-1.4c0,0,0,0,0,0
				c-8.5,0-16.6,3.2-22.7,9.1C129.9,61.6,128.9,62,127.9,62z M102.4,43.8c9.4,0,18.3,3.2,25.5,8.9c7.2-5.8,16.1-8.9,25.5-8.9
				c0,0,0,0,0,0c2.5,0,5,0.2,7.4,0.7c0.1-1.1,0.2-2.3,0.2-3.4l0,0c0-18.2-14.7-32.9-32.9-32.9c-18.1,0-32.9,14.8-32.9,32.9
				c0,1.1,0.1,2.2,0.2,3.3C97.7,44,100,43.8,102.4,43.8z"/>
		</g>
	</g>
	<g class="st2">
		<g>
			<path class="st1" d="M161.6,50.2l2.3-10.6c0,0-6.9-1.6-10.6-1.6c-9.9,0-18.9,3.9-25.5,10.3c-6.6-6.4-15.6-10.3-25.5-10.3
				c-3.6,0-10.3,1.5-10.3,1.5l-0.2,9C115.9,54.1,139.1,54.9,161.6,50.2z"/>
		</g>
	</g>
	<g>
		<g>
			<path class="st44" d="M163.8,120.1l-38.7,132L91.2,119.9c3.5,1.1,7.3,1.7,11.2,1.7c9.5,0,18.1-3.6,24.6-9.5l1.4-0.3
				c6.6,6.1,15.3,9.8,25,9.8C157,121.6,160.5,121.1,163.8,120.1z"/>
		</g>
	</g>
	<g>
		<g>
			<path class="st1" d="M125.1,256.1C125.1,256.1,125.1,256.1,125.1,256.1c-1.9,0-3.4-1.3-3.9-3L87.3,120.9
				c-0.4-1.4,0.1-2.9,1.1-3.9c1.1-1,2.6-1.3,4-0.9c3.2,1,6.6,1.5,10,1.5c0,0,0,0,0,0c8.1,0,15.9-3,21.9-8.4c0.5-0.5,1.2-0.8,1.8-0.9
				l1.4-0.3c1.3-0.3,2.6,0.1,3.6,1c6.1,5.6,14,8.7,22.2,8.7c0,0,0,0,0,0c3.2,0,6.3-0.5,9.3-1.3c1.4-0.4,2.9,0,4,1c1,1,1.4,2.6,1,4
				l-38.7,132C128.4,254.9,126.9,256.1,125.1,256.1z M96.7,125.2L125.4,237l32.7-111.7c-1.6,0.2-3.1,0.3-4.7,0.3c0,0,0,0,0,0
				c-9.3,0-18.3-3.2-25.5-8.9c-7.2,5.8-16.2,8.9-25.5,8.9c0,0,0,0,0,0C100.5,125.6,98.6,125.5,96.7,125.2z"/>
		</g>
	</g>
	<g class="st2">
		<g>
			<path class="st1" d="M167.4,112.6l-3.6,18.5c-1.1,0.3-2.3,0.6-3.5,0.8l-35.2,120.2l-5.4-21.1l29.7-98.6
				c-8.1-0.9-15.4-4.3-21.1-9.6c-0.2-0.2-0.4-0.3-0.5-0.5c-0.3,0.3-0.6,0.5-0.9,0.8c-6.5,5.9-15.2,9.5-24.6,9.5
				c-3.9,0-7.7-0.6-11.2-1.7v0l-3.4-20.9L167.4,112.6z"/>
		</g>
	</g>
	<g>
		<g>
			<path class="st7" d="M190.2,84.7c0,16.8-11.2,30.9-26.4,35.4c-3.3,1-6.8,1.5-10.4,1.5c-9.6,0-18.4-3.7-25-9.8
				c-0.2-0.2-0.4-0.3-0.5-0.5c7-6.7,11.4-16.2,11.4-26.7c0-2.8-0.3-5.5-0.9-8.2c-1.6-7.2-5.3-13.6-10.5-18.5
				c6.6-6.4,15.6-10.3,25.5-10.3c3.7,0,7.3,0.5,10.6,1.6C179.2,53.9,190.2,68,190.2,84.7z"/>
		</g>
	</g>
	<g class="st2">
		<g>
			<path class="st1" d="M184,64.1c3.9,5.9,6.3,13,6.3,20.6c0,16.8-11.2,30.9-26.4,35.4c-3.3,1-6.8,1.5-10.4,1.5
				c-9.6,0-18.4-3.7-25-9.8c-0.2-0.2-0.4-0.3-0.5-0.5c0,0,22.4,11.1,42-5S184,64.1,184,64.1z"/>
		</g>
	</g>
	<g>
		<g>
			<path class="st1" d="M153.4,125.6C153.4,125.6,153.4,125.6,153.4,125.6c-10.3,0-20.1-3.8-27.6-10.8c-0.2-0.2-0.5-0.4-0.7-0.6
				c-0.8-0.8-1.2-1.8-1.2-2.9c0-1.1,0.5-2.1,1.2-2.8c6.5-6.3,10.1-14.7,10.1-23.8c0-2.5-0.3-4.9-0.8-7.3c-1.4-6.3-4.7-12-9.3-16.5
				c-0.8-0.8-1.2-1.8-1.2-2.9c0-1.1,0.4-2.1,1.2-2.9c7.6-7.3,17.7-11.4,28.2-11.4c0,0,0,0,0,0c4,0,8,0.6,11.8,1.7
				c17.1,5.2,29.1,21.3,29.1,39.2h-4h4c0,18-12.1,34.2-29.3,39.3C161.2,125.1,157.3,125.6,153.4,125.6z M133.7,111
				c5.7,4.3,12.5,6.6,19.7,6.6c0,0,0,0,0,0c3.2,0,6.3-0.5,9.3-1.3c13.9-4.1,23.6-17.1,23.6-31.6c0-14.4-9.6-27.4-23.4-31.5
				c-3.1-0.9-6.2-1.4-9.5-1.4c0,0,0,0,0,0c-7.2,0-14,2.3-19.7,6.6c4.2,5,7.2,10.9,8.6,17.3c0.7,3,1,6,1,9.1
				C143.3,94.5,139.9,103.7,133.7,111z"/>
		</g>
	</g>
	<g>
		<g>
			<path class="st49" d="M139.3,84.7c0,10.5-4.4,20-11.4,26.7c-0.3,0.3-0.6,0.5-0.8,0.8c-6.5,5.9-15.2,9.5-24.6,9.5
				c-3.9,0-7.7-0.6-11.2-1.7v0c-14.9-4.7-25.7-18.7-25.7-35.2c0-16.8,11.2-31,26.6-35.5c3.3-1,6.7-1.5,10.3-1.5
				c9.9,0,18.9,3.9,25.5,10.3c5.1,4.9,8.9,11.3,10.5,18.5C138.9,79.1,139.3,81.9,139.3,84.7z"/>
		</g>
	</g>
	<g class="st15">
		<g>
			<path class="st7" d="M118,51.2c-4.7-2.2-10-3.4-15.6-3.4c-3.6,0-7,0.5-10.3,1.5c-15.3,4.5-26.6,18.6-26.6,35.5
				c0,11.4,5.2,21.7,13.3,28.4c0,0-12.6-16.7-2.6-40.8S118,51.2,118,51.2z"/>
		</g>
	</g>
	<g class="st2">
		<g>
			<path class="st1" d="M127.9,58c5.1,4.9,8.9,11.3,10.5,18.5c0.6,2.6,0.9,5.4,0.9,8.2c0,10.5-4.4,20-11.4,26.7
				c-0.3,0.3-0.6,0.5-0.8,0.8c-6.5,5.9-15.2,9.5-24.6,9.5c-3.9,0-7.7-0.6-11.2-1.7v0c-4.5-1.5-8.7-3.8-12.3-6.8
				c0,0,28.7,9.5,43.8-8.5S127.9,58,127.9,58z"/>
		</g>
	</g>
	<g class="st2">
		<g>
			<path class="st1" d="M129.7,59.9l4-4.1c0,0,1.5,0.1,3.6,2.3c4.6,4.9,8,11.3,9.5,18.5c0.5,2.6,0.8,5.4,0.8,8.2
				c0,10.5-3.9,20-10.3,26.7c-0.2,0.3-0.5,0.5-0.8,0.8c-0.7,0.7-1.7,1.6-1.7,1.6l-5.7-3.8C141,92.8,141.7,76.1,129.7,59.9z"/>
		</g>
	</g>
	<g>
		<g>
			<path class="st1" d="M102.4,125.6C102.4,125.6,102.4,125.6,102.4,125.6c-4.2,0-8.4-0.6-12.4-1.9c-0.1,0-0.2-0.1-0.3-0.1
				c-16.9-5.5-28.2-21.1-28.2-38.9c0-18.1,12.1-34.3,29.4-39.3c3.7-1.1,7.5-1.6,11.4-1.6c10.6,0,20.6,4,28.2,11.4
				c5.8,5.6,9.8,12.6,11.6,20.5c0.7,3,1,6,1,9.1l0,0c0,11.3-4.5,21.8-12.6,29.6c-0.3,0.3-0.6,0.6-1,0.9
				C122.2,121.9,112.5,125.6,102.4,125.6z M92.7,116.1c3.1,1,6.4,1.5,9.7,1.5c0,0,0,0,0,0c8.1,0,15.9-3,21.9-8.4
				c0,0,0.1-0.1,0.1-0.1c0.2-0.2,0.4-0.4,0.6-0.6c6.6-6.3,10.2-14.7,10.2-23.8c0-2.5-0.3-4.9-0.8-7.3c-1.4-6.3-4.7-12-9.3-16.5
				c-6.1-5.9-14.2-9.2-22.7-9.2c-3.1,0-6.2,0.4-9.2,1.3c-13.9,4.1-23.7,17.1-23.7,31.6c0,14.4,9.2,27,22.9,31.4
				C92.5,116.1,92.6,116.1,92.7,116.1z M139.3,84.7L139.3,84.7L139.3,84.7z"/>
		</g>
	</g>
</g>
</svg>
