<?xml version="1.0" encoding="utf-8"?>
<!-- Generator: Adobe Illustrator 22.1.0, SVG Export Plug-In . SVG Version: 6.00 Build 0)  -->
<svg version="1.1" id="Layer_1" xmlns="http://www.w3.org/2000/svg" xmlns:xlink="http://www.w3.org/1999/xlink" x="0px" y="0px"
	 viewBox="0 0 256 256" style="enable-background:new 0 0 256 256;" xml:space="preserve">
<style type="text/css">
	.st0{fill:#F5B31F;}
	.st1{fill:#464646;}
	.st2{opacity:0.15;}
	.st3{fill:#AC6535;}
	.st4{fill:#EB573B;}
	.st5{fill:#90C056;}
	.st6{opacity:0.35;}
	.st7{fill:#FFFFFF;}
	.st8{opacity:0.2;}
	.st9{fill:#F6D67A;}
	.st10{opacity:0.3;}
	.st11{fill:#FFA755;}
	.st12{fill:#8FAE3C;}
	.st13{fill:#BE6BB2;}
	.st14{fill:#B7C536;}
	.st15{opacity:0.1;}
	.st16{fill:#9D5A96;}
	.st17{fill:#EA615D;}
	.st18{opacity:0.4;}
	.st19{fill:#F79932;}
	.st20{fill:#FFEC97;}
	.st21{fill:#FFD11D;}
	.st22{fill:#F7F2D5;}
	.st23{fill:#F6AF72;}
	.st24{fill:#BA6C45;}
	.st25{opacity:0.5;}
	.st26{fill:#E4C074;}
	.st27{fill:#656566;}
	.st28{fill:#FACD1F;}
	.st29{fill:#FFDF66;}
	.st30{fill:#6D6E71;}
	.st31{fill:#E77CAE;}
	.st32{fill:#FFE5C4;}
	.st33{fill:#F68455;}
	.st34{opacity:0.7;}
	.st35{fill:#ADEDFF;}
	.st36{fill:#EC754B;}
	.st37{fill:#4AA5BA;}
	.st38{opacity:0.8;}
	.st39{fill:#92A5AC;}
	.st40{fill:#D06E3C;}
	.st41{fill:#DA4F4B;}
	.st42{fill:#BDF3FF;}
	.st43{fill:#F18BB4;}
	.st44{fill:#F9D97A;}
	.st45{fill:none;}
	.st46{fill:#AF6535;}
	.st47{fill:#B93226;}
	.st48{fill:#FF6050;}
	.st49{fill:#EA7CB1;}
	.st50{fill:#00B0E0;}
	.st51{fill:#EA7DAE;}
	.st52{fill:#BC7532;}
	.st53{fill:#876C6C;}
	.st54{fill:#F9F6CD;}
	.st55{fill:#FFE37B;}
	.st56{fill:#1DDCFF;}
	.st57{fill:#60ACF7;}
	.st58{fill:#C3755A;}
	.st59{fill:#96557A;}
	.st60{fill:#66625D;}
	.st61{fill:#D68032;}
	.st62{fill:#F2A355;}
	.st63{fill:#7E9E6A;}
	.st64{fill:#965A85;}
	.st65{fill:#90CAD3;}
	.st66{fill:#94B57F;}
	.st67{fill:#B2E2E7;}
	.st68{fill:#FFDF8F;}
	.st69{fill:#FFFAEB;}
	.st70{fill:#F88916;}
	.st71{fill:#FFC86E;}
	.st72{fill:#AFA51D;}
	.st73{fill:#968A1C;}
	.st74{fill:#C3556D;}
</style>
<g>
	<g>
		<g>
			<path class="st7" d="M141.1,34.3l0,22.1c-44.9,0-92.2,0-92.2,0L24.6,34.3L141.1,34.3z"/>
		</g>
	</g>
	<g class="st15">
		<g>
			<path d="M126,56.4c4.8,0,10.2,0,15.1,0l0-22.1l-15.1,0L126,56.4z"/>
		</g>
	</g>
	<g>
		<g>
			<path class="st58" d="M171.9,202.3c-4.4,7.1-9.7,13.5-15.8,19.2l-123,0c-6.1-5.6-11.4-12.1-15.8-19.2L171.9,202.3z"/>
		</g>
	</g>
	<g>
		<g>
			<path class="st58" d="M185.2,156.3c-0.1,6.6-0.9,13-2.3,19.2l-176.5,0c-1.5-6.5-2.3-13.3-2.3-20.3l0-0.2c0-6.2,0.6-12.2,1.8-18
				c0,0,42.2,0,57.3,0c15.1,0,68.7,19.4,82.5,19.4L185.2,156.3z"/>
		</g>
	</g>
	<g class="st15">
		<g>
			<path d="M164.4,175.4l18.5,0c1.4-6.2,2.2-12.6,2.3-19.2l-18.9,0L164.4,175.4z"/>
		</g>
	</g>
	<g>
		<g>
			<path class="st7" d="M185.3,155.1c0,0.4,0,0.8,0,1.1l-39.5,0c-13.8,0-67.3-19.4-82.5-19.4c-15.1,0-57.3,0-57.3,0
				c5.2-25.4,21.1-47,42.8-59.8l0,4.8l99.1,0C170.6,98.4,185.3,125.1,185.3,155.1z"/>
		</g>
	</g>
	<g>
		<g>
			<path class="st1" d="M141.1,60.4C141.1,60.4,141.1,60.4,141.1,60.4l-92.2,0c-1,0-2-0.4-2.7-1L21.9,37.3c-1.2-1.1-1.6-2.9-1-4.4
				c0.6-1.5,2.1-2.6,3.7-2.6c0,0,0,0,0,0l116.5,0c1.1,0,2.1,0.4,2.8,1.2c0.8,0.8,1.2,1.8,1.2,2.8l0,22.1
				C145.1,58.6,143.3,60.4,141.1,60.4z M50.4,52.4l86.7,0l0-14.1l-102.1,0L50.4,52.4z"/>
		</g>
	</g>
	<g>
		<g>
			<path class="st1" d="M156.2,225.5C156.2,225.5,156.2,225.5,156.2,225.5l-123,0c-1,0-2-0.4-2.7-1.1c-6.4-5.9-11.9-12.6-16.4-20
				c-0.8-1.2-0.8-2.8-0.1-4c0.7-1.3,2-2,3.5-2c0,0,0,0,0,0l154.5,0c1.4,0,2.8,0.8,3.5,2c0.7,1.3,0.7,2.8-0.1,4
				c-4.5,7.4-10.1,14.1-16.5,20C158.2,225.1,157.2,225.5,156.2,225.5z M34.8,217.5l119.8,0c3.6-3.4,6.9-7.2,9.8-11.2l-139.5,0
				C27.9,210.3,31.2,214.1,34.8,217.5z"/>
		</g>
	</g>
	<g>
		<g>
			<path class="st1" d="M182.9,179.4C182.9,179.4,182.9,179.4,182.9,179.4l-176.5,0c-1.9,0-3.5-1.3-3.9-3.1
				c-1.6-6.9-2.4-14.1-2.4-21.2v-0.2c0-6.3,0.7-12.7,1.9-18.8c0.4-1.9,2-3.2,3.9-3.2l0,0l57.3,0c8.3,0,25.7,4.9,44,10.2
				c15.9,4.5,32.3,9.2,38.5,9.2l39.5,0c1.1,0,2.1,0.4,2.8,1.2c0.8,0.8,1.2,1.8,1.2,2.9c-0.1,6.8-0.9,13.5-2.4,20
				C186.4,178.2,184.8,179.4,182.9,179.4z M9.7,171.4l170,0c0.7-3.7,1.2-7.4,1.4-11.2l-35.3,0c-7.3,0-23.5-4.6-40.6-9.5
				c-16.2-4.6-34.6-9.9-41.8-9.9l-54,0c-0.8,4.6-1.2,9.3-1.2,14v0.2C8.1,160.6,8.7,166.1,9.7,171.4z"/>
		</g>
	</g>
	<g>
		<g>
			<path class="st1" d="M185.2,160.3C185.2,160.3,185.2,160.3,185.2,160.3l-39.5,0c-7.3,0-23.5-4.6-40.6-9.5
				c-16.2-4.6-34.6-9.9-41.8-9.9l-57.3,0c-1.2,0-2.3-0.5-3.1-1.5c-0.8-0.9-1.1-2.2-0.8-3.3C7.4,110,23.7,87.2,46.8,73.7
				c1.2-0.7,2.8-0.7,4,0s2,2,2,3.5V78l95.1,0c0.8,0,1.7,0.3,2.4,0.8c24.4,17.7,38.9,46.3,38.9,76.4v0l0,0c0,0,0,0,0,0
				c0,0.5,0,0.9,0,1.4C189.1,158.6,187.4,160.3,185.2,160.3z M11,132.9l52.3,0c8.3,0,25.7,4.9,44,10.2c15.9,4.5,32.3,9.2,38.5,9.2
				l35.4,0c-0.9-26.1-13.6-50.6-34.6-66.3l-97.8,0c-1.1,0-2.1-0.4-2.8-1.2c-0.2-0.2-0.4-0.5-0.6-0.7C28.5,95.8,16.3,113.1,11,132.9z
				"/>
		</g>
	</g>
	<g>
		<g>
			<path class="st1" d="M185.3,160.3L185.3,160.3c-2.2,0-4-1.8-4-4s1.8-4,4-4s4,1.8,4,4S187.5,160.3,185.3,160.3z"/>
		</g>
	</g>
	<g>
		<g>
			<path class="st1" d="M52.5,122.4C52.5,122.4,52.5,122.4,52.5,122.4l-40.6,0c-2.2,0-4-1.8-4-4c0-2.2,1.8-4,4-4l0,0l40.6,0
				c2.2,0,4,1.8,4,4C56.5,120.6,54.7,122.4,52.5,122.4z"/>
		</g>
	</g>
	<g>
		<g>
			<path class="st1" d="M40.9,158.9C40.9,158.9,40.9,158.9,40.9,158.9l-36.8,0c-2.2,0-4-1.8-4-4c0-2.2,1.8-4,4-4c0,0,0,0,0,0l36.8,0
				c2.2,0,4,1.8,4,4C44.9,157.1,43.1,158.9,40.9,158.9z"/>
		</g>
	</g>
	<g class="st15">
		<g>
			<path d="M185.3,155.1c0,0.4,0,0.8,0,1.2l-19,0c-0.1-19.6-9-41.2-24.7-64.4c-29,0.5-93.2,1.5-95-0.3c-2.4-2.4,0-25.5,0-25.5
				s47.4,0,92.2,0l11.8,17.9C171.7,100.5,185.3,126.2,185.3,155.1z"/>
		</g>
	</g>
	<g class="st15">
		<g>
			<path d="M160.9,211.3l-132.1,0.6c-3.8-6.1-15.4-12.7-17.6-19.7c-0.8-2.4-1.4-4.8-2-7.2l167.9,0
				C171.9,195.5,166.5,205.1,160.9,211.3z"/>
		</g>
	</g>
	<g>
		<g>
			<path class="st53" d="M219.8,202.3l-202.4,0c-3.8-6.1-6.8-12.7-9-19.7c-0.8-2.4-1.4-4.8-2-7.2l183.1,0c35.9,0,35.9-93.5,0-93.5
				L48.8,82l0-25.5c0,0,47.4,0,92.2,0l78.8,0C262.9,56.4,262.9,202.3,219.8,202.3z"/>
		</g>
	</g>
	<g class="st15">
		<g>
			<path d="M185.2,56.4l34.6,0c43.1,0,43.1,145.9,0,145.9l-124.2,0c0,0,91.1-5.4,113.1-17.3c22-11.9,32-57.8,22.5-81.3
				C221.1,78.4,185.2,56.4,185.2,56.4z"/>
		</g>
	</g>
	<g>
		<g>
			<path class="st1" d="M219.8,206.3C219.8,206.3,219.8,206.3,219.8,206.3C219.8,206.3,219.8,206.3,219.8,206.3l-202.4,0
				c-1.4,0-2.7-0.7-3.4-1.9c-4-6.5-7.1-13.4-9.4-20.5c-0.8-2.4-1.5-5-2.1-7.5c-0.3-1.2,0-2.4,0.8-3.4c0.8-1,1.9-1.5,3.1-1.5
				c0,0,0,0,0,0l183.1,0c15.1,0,22.9-21.5,22.9-42.7c0-21.2-7.9-42.7-22.9-42.7L48.8,86c-2.2,0-4-1.8-4-4l0-25.5
				c0-1.1,0.4-2.1,1.2-2.8c0.8-0.8,1.8-1.2,2.8-1.2c0,0,0,0,0,0l171,0c8.2,0,19.7,4.4,28,25.3c5.4,13.7,8.4,32,8.4,51.6
				c0,19.6-3,37.9-8.4,51.6C239.5,201.9,228,206.3,219.8,206.3z M219.8,198.3c18.4,0,28.3-35.5,28.3-69c0-33.4-9.9-69-28.3-69
				l-167,0l0,17.5l136.7,0c21.3,0,30.9,26.3,30.9,50.7c0,24.4-9.7,50.7-30.9,50.7c0,0,0,0,0,0l-177.9,0c0.2,0.7,0.4,1.4,0.6,2
				c1.9,5.9,4.4,11.5,7.5,16.9L219.8,198.3L219.8,198.3z"/>
		</g>
	</g>
</g>
</svg>
