<?xml version="1.0" encoding="utf-8"?>
<!-- Generator: Adobe Illustrator 22.1.0, SVG Export Plug-In . SVG Version: 6.00 Build 0)  -->
<svg version="1.1" id="Layer_1" xmlns="http://www.w3.org/2000/svg" xmlns:xlink="http://www.w3.org/1999/xlink" x="0px" y="0px"
	 viewBox="0 0 256 256" style="enable-background:new 0 0 256 256;" xml:space="preserve">
<style type="text/css">
	.st0{fill:#F5B31F;}
	.st1{fill:#464646;}
	.st2{opacity:0.15;}
	.st3{fill:#AC6535;}
	.st4{fill:#EB573B;}
	.st5{fill:#90C056;}
	.st6{opacity:0.35;}
	.st7{fill:#FFFFFF;}
	.st8{opacity:0.2;}
	.st9{fill:#F6D67A;}
	.st10{opacity:0.3;}
	.st11{fill:#FFA755;}
	.st12{fill:#8FAE3C;}
	.st13{fill:#BE6BB2;}
	.st14{fill:#B7C536;}
	.st15{opacity:0.1;}
	.st16{fill:#9D5A96;}
	.st17{fill:#EA615D;}
	.st18{opacity:0.4;}
	.st19{fill:#F79932;}
	.st20{fill:#FFEC97;}
	.st21{fill:#FFD11D;}
	.st22{fill:#F7F2D5;}
	.st23{fill:#F6AF72;}
	.st24{fill:#BA6C45;}
	.st25{opacity:0.5;}
	.st26{fill:#E4C074;}
	.st27{fill:#656566;}
	.st28{fill:#FACD1F;}
	.st29{fill:#FFDF66;}
	.st30{fill:#6D6E71;}
	.st31{fill:#E77CAE;}
	.st32{fill:#FFE5C4;}
	.st33{fill:#F68455;}
	.st34{opacity:0.7;}
	.st35{fill:#ADEDFF;}
	.st36{fill:#EC754B;}
	.st37{fill:#4AA5BA;}
	.st38{opacity:0.8;}
	.st39{fill:#92A5AC;}
	.st40{fill:#D06E3C;}
	.st41{fill:#DA4F4B;}
	.st42{fill:#BDF3FF;}
	.st43{fill:#F18BB4;}
	.st44{fill:#F9D97A;}
	.st45{fill:none;}
	.st46{fill:#AF6535;}
	.st47{fill:#B93226;}
	.st48{fill:#FF6050;}
	.st49{fill:#EA7CB1;}
	.st50{fill:#00B0E0;}
	.st51{fill:#EA7DAE;}
	.st52{fill:#BC7532;}
	.st53{fill:#876C6C;}
	.st54{fill:#F9F6CD;}
	.st55{fill:#FFE37B;}
	.st56{fill:#1DDCFF;}
	.st57{fill:#60ACF7;}
	.st58{fill:#C3755A;}
	.st59{fill:#96557A;}
	.st60{fill:#66625D;}
	.st61{fill:#D68032;}
	.st62{fill:#F2A355;}
	.st63{fill:#7E9E6A;}
	.st64{fill:#965A85;}
	.st65{fill:#90CAD3;}
	.st66{fill:#94B57F;}
	.st67{fill:#B2E2E7;}
	.st68{fill:#FFDF8F;}
	.st69{fill:#FFFAEB;}
	.st70{fill:#F88916;}
	.st71{fill:#FFC86E;}
	.st72{fill:#AFA51D;}
	.st73{fill:#968A1C;}
	.st74{fill:#C3556D;}
</style>
<g>
	<g>
		<g>
			<path class="st0" d="M243.6,188.4l0,17.7c0,6-4.6,16.4-16.7,16.4c-12.1,0-12,0-98.9,0c0,0-86.9,0-98.9,0
				c-12.1,0-16.7-10.5-16.7-16.4l0-18c1.6,0.7,3.4,1.2,5.5,1.2l221.4,0C240.9,189.2,242.3,188.9,243.6,188.4z"/>
		</g>
	</g>
	<g>
		<g>
			<path class="st1" d="M226.9,226.5C226.9,226.5,226.9,226.5,226.9,226.5l-197.9,0c-8.3,0-13.3-4.1-16-7.5
				c-2.9-3.7-4.7-8.5-4.7-12.9l0-18c0-1.4,0.7-2.6,1.9-3.4c1.2-0.7,2.6-0.8,3.8-0.2c1.1,0.5,2.4,0.8,3.8,0.8l221.4,0
				c1,0,2-0.2,2.8-0.5c1.2-0.5,2.7-0.4,3.8,0.3c1.1,0.7,1.8,2,1.8,3.3l0,17.7c0,4.4-1.8,9.2-4.7,12.9
				C240.2,222.4,235.2,226.5,226.9,226.5z M16.4,193.2l0,12.9c0,2,0.8,5.2,3,8c2.4,3,5.6,4.5,9.7,4.5l197.9,0
				c9.6,0,12.7-8.4,12.7-12.4l0-12.9c-0.1,0-0.3,0-0.4,0l-221.4,0C17.4,193.2,16.9,193.2,16.4,193.2z"/>
		</g>
	</g>
	<g>
		<g>
			<path class="st4" d="M238.7,145.4l0,18.5l-221.4,0l0-24.3c11.9,1.1,26.4,6.3,43.8,6.3c19.5,0,29.2-8,48.1-8c18.8,0,29.5,8,47.2,8
				c17.7,0,28.1-8.4,45.8-8.4c17.7,0,7.5,8.4,31.7,8.4C235.6,145.9,237.2,145.8,238.7,145.4z"/>
		</g>
	</g>
	<g class="st2">
		<g>
			<path class="st1" d="M243.6,197.7c0,0-2.7,0.9-4.4,0.9l-221.4,0c-2.1,0-5.5-1.2-5.5-1.2l5.5-24.1l221.4,0L243.6,197.7z"/>
		</g>
	</g>
	<g>
		<g>
			<path class="st3" d="M243.6,188.4c-1.3,0.6-2.7,0.9-4.4,0.9l-221.4,0c-2.1,0-3.9-0.4-5.5-1.2c-10.5-5-8.7-24.1,5.5-24.1l221.4,0
				C252.4,163.9,253.9,183.9,243.6,188.4z"/>
		</g>
	</g>
	<g class="st2">
		<g>
			<path class="st7" d="M22.1,173.7c9-4.6,75.3-9.8,75.3-9.8l-79.5,0c-14.2,0-16.1,19.2-5.5,24.1C12.4,188.1,13.1,178.3,22.1,173.7z
				"/>
		</g>
	</g>
	<g>
		<g>
			<path class="st1" d="M238.7,167.9C238.7,167.9,238.7,167.9,238.7,167.9l-221.4,0c-1.1,0-2.1-0.4-2.8-1.2s-1.2-1.8-1.2-2.8l0-24.3
				c0-1.1,0.5-2.2,1.3-3c0.8-0.8,1.9-1.1,3.1-1c4.7,0.4,9.8,1.5,15.1,2.6c8.4,1.7,17.9,3.7,28.3,3.7c0,0,0,0,0,0
				c9.3,0,16.1-1.9,23.4-3.9c7.3-2,14.8-4.1,24.6-4.1c0,0,0,0,0,0c10.1,0,17.9,2.1,25.4,4.2c7,1.9,13.6,3.7,21.7,3.7c0,0,0,0,0,0
				c8.3,0,14.8-2,21.7-4c7.2-2.2,14.6-4.4,24-4.4c0,0,0,0,0,0c8.8,0,12,2,15.3,4.6c2.4,1.9,4.8,3.8,16.4,3.8c1.4,0,2.8-0.1,4-0.4
				c1.2-0.2,2.4,0.1,3.3,0.8c0.9,0.8,1.5,1.9,1.5,3.1l0,18.5c0,1.1-0.4,2.1-1.2,2.8C240.8,167.5,239.7,167.9,238.7,167.9z
				 M21.3,159.9l213.4,0l0-10c-0.3,0-0.5,0-0.8,0c-13.4,0-17.5-2.4-21.4-5.6c-2.1-1.7-3.6-2.8-10.3-2.8c0,0,0,0,0,0
				c-8.3,0-14.8,2-21.7,4c-7.2,2.2-14.6,4.4-24,4.4c0,0,0,0,0,0c-9.2,0-16.7-2-23.9-4c-7.3-2-14.3-3.9-23.3-3.9c0,0,0,0,0,0
				c-8.8,0-15.4,1.8-22.5,3.8c-7.5,2.1-15.2,4.2-25.5,4.2c0,0,0,0,0,0c-11.2,0-21.1-2.1-29.9-3.9c-3.5-0.7-6.8-1.4-9.9-1.9
				L21.3,159.9z"/>
		</g>
	</g>
	<g>
		<g>
			<path class="st1" d="M239.2,193.2l-221.4,0c-2.6,0-5-0.5-7.2-1.5c-6.8-3.2-10.4-11.2-8.6-19.2c1.7-7.7,7.9-12.6,15.8-12.6
				c0,0,0,0,0,0l221.4,0c7.3,0,13.1,5,14.7,12.6c1.5,7.2-1,16.1-8.7,19.5C243.4,192.8,241.4,193.2,239.2,193.2z M17.9,167.9
				c-5.9,0-7.6,4.4-8,6.4c-0.8,3.7,0.3,8.4,4.2,10.2c1.1,0.5,2.4,0.8,3.8,0.8l221.4,0c1,0,2-0.2,2.8-0.5c0,0,0,0,0,0
				c3.6-1.5,4.9-6.6,4.1-10.5c-0.4-1.9-1.8-6.2-6.9-6.2L17.9,167.9z"/>
		</g>
	</g>
	<g class="st2">
		<g>
			<path class="st1" d="M17.3,148.9c11.9,1.1,26.4,6.3,43.8,6.3c19.5,0,29.2-8,48.1-8c18.8,0,29.5,8,47.2,8
				c17.7,0,28.1-8.4,45.8-8.4s7.5,8.4,31.7,8.4c1.7,0,4.8-0.5,4.8-0.5l-4.8-30.2l-220.8,0L17.3,148.9z"/>
		</g>
	</g>
	<g>
		<g>
			<path class="st5" d="M238.7,145.4c-0.5,0.1-1,0.2-1.5,0.2c-1.1,0.2-2.2,0.2-3.4,0.2c-24.2,0-14-8.4-31.7-8.4s-28.1,8.4-45.8,8.4
				s-28.3-8-47.2-8c-18.8,0-28.6,8-48.1,7.9c-17.4,0-31.9-5.2-43.8-6.3c-0.6-0.1-1.1-0.1-1.7-0.1c-0.9-0.1-1.7-0.1-2.6-0.1
				c-12.7,0-11.5-24.1,0-24.1l6.9,0c6.3,4.7,14.1,6.1,19.6,6.1l176.8,0c5.5,0,13.2-1.4,19.5-6C256.4,116.8,257.3,141.8,238.7,145.4z
				"/>
		</g>
	</g>
	<g class="st10">
		<g>
			<path class="st7" d="M39.6,121.3c-5.5,0-13.3-1.4-19.6-6.1l-6.9,0c-11.5,0-12.7,24.1,0,24.1c0.8,0,1.7,0,2.6,0.1
				c0.5,0,1.1,0.1,1.7,0.1c0,0-9.9-5.7-4-14.1S39.6,121.3,39.6,121.3z"/>
		</g>
	</g>
	<g class="st2">
		<g>
			<path class="st1" d="M238.7,100.2c0,12.6,3.4,19.8-2.8,24.3c-6.3,4.6-14,6-19.5,6l-176.8,0c-5.5,0-13.3-1.4-19.6-6.1
				c-6.2-4.6-5.9-12.7-5.9-25.2c0-25.3,16.7-56.8,113.9-56.8C225.2,42.4,238.7,74.9,238.7,100.2z"/>
		</g>
	</g>
	<g>
		<g>
			<path class="st0" d="M247,90.4c0,12.6-4.9,20.3-11.1,24.9c-6.3,4.6-14,6-19.5,6l-176.8,0c-5.5,0-13.3-1.4-19.6-6.1
				c-6.2-4.6-11-12.3-11-24.8c0-25.3,21.8-57.3,119-57.2C225.2,33.2,247,65.1,247,90.4z"/>
		</g>
	</g>
	<g class="st2">
		<g>
			<path class="st1" d="M231.7,58.1C243.2,68.1,247,79.9,247,90.4c0,12.6-4.9,20.3-11.1,24.9c-6.3,4.6-14,6-19.5,6l-176.8,0
				c0,0,157.1-2.6,183.3-17.1S231.7,58.1,231.7,58.1z"/>
		</g>
	</g>
	<g class="st10">
		<g>
			<path class="st7" d="M128,33.2C30.8,33.2,9,65.1,9,90.4c0,12.5,4.8,20.2,11,24.8c6.3,4.7,14.1,6.1,19.6,6.1c0,0-22.8-14.4-8.9-50
				S128,33.2,128,33.2z"/>
		</g>
	</g>
	<g>
		<g>
			<path class="st1" d="M233.9,149.9c-13.4,0-17.5-2.4-21.4-5.6c-2.1-1.7-3.6-2.8-10.3-2.8c0,0,0,0,0,0c-8.3,0-14.8,2-21.7,4
				c-7.2,2.2-14.6,4.4-24,4.4c0,0,0,0,0,0c-9.2,0-16.7-2-23.9-4c-7.3-2-14.3-3.9-23.3-3.9c0,0,0,0,0,0c-8.8,0-15.5,1.8-22.5,3.8
				c-7.5,2.1-15.2,4.2-25.5,4.2c0,0,0,0,0,0c-11.2,0-21.1-2.1-29.9-3.9c-5.1-1.1-10-2.1-14.3-2.5c-0.5-0.1-1-0.1-1.5-0.1
				c-0.8-0.1-1.6-0.1-2.4-0.1c-4.6,0-8.4-2.2-10.8-6.3c-3.2-5.5-3.1-13.6,0.2-19.3c2.4-4.1,6.2-6.5,10.5-6.5c0,0,0,0,0,0H20
				c0.9,0,1.7,0.3,2.4,0.8c6.5,4.8,14.2,5.3,17.2,5.3l176.8,0c0,0,0,0,0,0c3,0,10.6-0.5,17.1-5.3c0.8-0.6,1.7-0.8,2.7-0.8
				c13,1,19.3,9.8,19.8,18.2c0.5,7.9-4.5,17.5-16.5,19.9c-0.6,0.1-1.2,0.2-1.7,0.3C236.5,149.8,235.3,149.9,233.9,149.9z
				 M202.1,133.5C202.1,133.5,202.1,133.5,202.1,133.5c8.9,0,12,2,15.3,4.6c2.4,1.9,4.8,3.8,16.4,3.8c1,0,1.9-0.1,2.8-0.2
				c0,0,0.1,0,0.1,0c0.4,0,0.8-0.1,1.1-0.2c0,0,0,0,0,0c7.3-1.4,10.4-6.8,10.1-11.6c-0.3-4.3-3.3-9.4-11-10.5
				c-8.1,5.3-17,5.9-20.5,5.9c0,0,0,0,0,0l-176.8,0c-3.6,0-12.7-0.6-20.9-6.1h-5.6c0,0,0,0,0,0c-0.5,0-2.2,0-3.6,2.5
				c-1.9,3.2-2,8.3-0.2,11.3c1.2,2.1,2.8,2.3,3.8,2.3c0.9,0,1.9,0,2.8,0.1c0.6,0,1.2,0.1,1.8,0.1c4.7,0.4,9.8,1.5,15.1,2.6
				c8.4,1.7,17.9,3.7,28.3,3.7c0,0,0,0,0,0c9.3,0,16.1-1.9,23.4-3.9c7.3-2,14.8-4.1,24.6-4.1c0,0,0,0,0,0c10.1,0,17.9,2.1,25.4,4.2
				c7,1.9,13.6,3.7,21.7,3.7c0,0,0,0,0,0c8.3,0,14.8-2,21.7-4C185.3,135.7,192.7,133.5,202.1,133.5z"/>
		</g>
	</g>
	<g>
		<g>
			<path class="st1" d="M216.4,125.4C216.4,125.4,216.4,125.4,216.4,125.4l-176.8,0c-3.8,0-13.6-0.7-22-6.9
				C11.9,114.2,5,105.8,5,90.4C5,78.7,9.3,62,29.9,48.9C50.6,35.8,83.6,29.2,128,29.2c0,0,0,0,0,0c44.4,0,77.4,6.7,98.1,19.8
				C246.7,62,251,78.7,251,90.4l0,0l0,0c0,15.5-6.9,23.8-12.7,28.1C229.9,124.7,220.2,125.4,216.4,125.4z M128,37.2
				c-42.9,0-74.4,6.2-93.8,18.5C24.5,61.8,13,72.8,13,90.4c0,9.7,3.2,17,9.4,21.6c6.5,4.8,14.2,5.3,17.2,5.3l176.8,0c0,0,0,0,0,0
				c3,0,10.6-0.5,17.1-5.3c6.3-4.6,9.5-11.9,9.5-21.6l0,0c0-9.7-3.7-23.6-21.2-34.7C202.4,43.4,170.9,37.2,128,37.2
				C128,37.2,128,37.2,128,37.2z"/>
		</g>
	</g>
	<g>
		<g>
			<path class="st1" d="M66.3,94.9c-2.4,0-4.8-2-4.8-5.9c0-3.8,2.4-5.9,4.8-5.9c2.4,0,4.8,2,4.8,5.9C71.1,92.9,68.7,94.9,66.3,94.9z
				 M63.1,89.1c0.1,0.6,1.2,2.1,3.2,2.1c2.1,0,3.2-1.6,3.2-2.2c-0.1-0.5-1.2-2.1-3.2-2.1C64.3,86.9,63.2,88.4,63.1,89.1z"/>
		</g>
	</g>
	<g>
		<g>
			<path class="st1" d="M96.7,71.3c-2.4,0-4.8-2-4.8-5.9c0-1.1,0.2-3.1,1.7-4.5c0.8-0.8,2-1.3,3.1-1.3c0,0,0,0,0,0
				c2.4,0,4.8,2,4.8,5.9S99.1,71.3,96.7,71.3z M93.5,65.5c0.1,0.6,1.2,2.1,3.2,2.1c0,0,0,0,0,0c2,0,3.1-1.6,3.2-2.2
				c-0.1-0.5-1.2-2.1-3.2-2.1C94.7,63.3,93.6,64.9,93.5,65.5z"/>
		</g>
	</g>
	<g>
		<g>
			<path class="st1" d="M126.9,94.7c-1.8,0-3.5-1.2-4.2-3c-0.3-0.8-0.5-1.8-0.5-2.8c0-3.8,2.4-5.8,4.8-5.8s4.8,2,4.8,5.9
				c0,0,0,0,0,0C131.7,92.7,129.3,94.7,126.9,94.7z M123.7,88.9c0.1,0.6,1.2,2.1,3.2,2.1c2.1,0,3.2-1.6,3.2-2.2
				c-0.1-0.5-1.2-2.1-3.2-2.1C124.9,86.7,123.8,88.2,123.7,88.9L123.7,88.9L123.7,88.9C123.7,88.8,123.7,88.8,123.7,88.9L123.7,88.9
				z"/>
		</g>
	</g>
	<g>
		<g>
			<path class="st1" d="M157.3,71.1c-2.4,0-4.8-2-4.8-5.9c0-3.8,2.4-5.8,4.8-5.8s4.8,2,4.8,5.9c0,0,0,0,0,0
				C162.1,69.1,159.7,71.1,157.3,71.1z M154.1,65.3c0.1,0.6,1.2,2.1,3.2,2.1c2.1,0,3.2-1.6,3.2-2.2c-0.1-0.5-1.2-2.1-3.2-2.1
				C155.3,63.1,154.2,64.6,154.1,65.3L154.1,65.3L154.1,65.3C154.1,65.3,154.1,65.3,154.1,65.3L154.1,65.3z"/>
		</g>
	</g>
	<g>
		<g>
			<path class="st1" d="M187.4,94.4c-2.4,0-4.8-2-4.8-5.9c0-3.8,2.4-5.9,4.8-5.9s4.8,2,4.8,5.9C192.2,92.4,189.8,94.4,187.4,94.4z
				 M184.2,88.5c0.1,0.6,1.2,2.1,3.2,2.1c2.1,0,3.2-1.6,3.2-2.2c-0.1-0.5-1.2-2.1-3.2-2.1C185.4,86.4,184.3,87.9,184.2,88.5z"/>
		</g>
	</g>
</g>
</svg>
