<?xml version="1.0" encoding="utf-8"?>
<!-- Generator: Adobe Illustrator 22.1.0, SVG Export Plug-In . SVG Version: 6.00 Build 0)  -->
<svg version="1.1" id="Layer_1" xmlns="http://www.w3.org/2000/svg" xmlns:xlink="http://www.w3.org/1999/xlink" x="0px" y="0px"
	 viewBox="0 0 256 256" style="enable-background:new 0 0 256 256;" xml:space="preserve">
<style type="text/css">
	.st0{fill:#F5B31F;}
	.st1{fill:#464646;}
	.st2{opacity:0.15;}
	.st3{fill:#AC6535;}
	.st4{fill:#EB573B;}
	.st5{fill:#90C056;}
	.st6{opacity:0.35;}
	.st7{fill:#FFFFFF;}
	.st8{opacity:0.2;}
	.st9{fill:#F6D67A;}
	.st10{opacity:0.3;}
	.st11{fill:#FFA755;}
	.st12{fill:#8FAE3C;}
	.st13{fill:#BE6BB2;}
	.st14{fill:#B7C536;}
	.st15{opacity:0.1;}
	.st16{fill:#9D5A96;}
	.st17{fill:#EA615D;}
	.st18{opacity:0.4;}
	.st19{fill:#F79932;}
	.st20{fill:#FFEC97;}
	.st21{fill:#FFD11D;}
	.st22{fill:#F7F2D5;}
	.st23{fill:#F6AF72;}
	.st24{fill:#BA6C45;}
	.st25{opacity:0.5;}
	.st26{fill:#E4C074;}
	.st27{fill:#656566;}
	.st28{fill:#FACD1F;}
	.st29{fill:#FFDF66;}
	.st30{fill:#6D6E71;}
	.st31{fill:#E77CAE;}
	.st32{fill:#FFE5C4;}
	.st33{fill:#F68455;}
	.st34{opacity:0.7;}
	.st35{fill:#ADEDFF;}
	.st36{fill:#EC754B;}
	.st37{fill:#4AA5BA;}
	.st38{opacity:0.8;}
	.st39{fill:#92A5AC;}
	.st40{fill:#D06E3C;}
	.st41{fill:#DA4F4B;}
	.st42{fill:#BDF3FF;}
	.st43{fill:#F18BB4;}
	.st44{fill:#F9D97A;}
	.st45{fill:none;}
	.st46{fill:#AF6535;}
	.st47{fill:#B93226;}
	.st48{fill:#FF6050;}
	.st49{fill:#EA7CB1;}
	.st50{fill:#00B0E0;}
	.st51{fill:#EA7DAE;}
	.st52{fill:#BC7532;}
	.st53{fill:#876C6C;}
	.st54{fill:#F9F6CD;}
	.st55{fill:#FFE37B;}
	.st56{fill:#1DDCFF;}
	.st57{fill:#60ACF7;}
	.st58{fill:#C3755A;}
	.st59{fill:#96557A;}
	.st60{fill:#66625D;}
	.st61{fill:#D68032;}
	.st62{fill:#F2A355;}
	.st63{fill:#7E9E6A;}
	.st64{fill:#965A85;}
	.st65{fill:#90CAD3;}
	.st66{fill:#94B57F;}
	.st67{fill:#B2E2E7;}
	.st68{fill:#FFDF8F;}
	.st69{fill:#FFFAEB;}
	.st70{fill:#F88916;}
	.st71{fill:#FFC86E;}
	.st72{fill:#AFA51D;}
	.st73{fill:#968A1C;}
	.st74{fill:#C3556D;}
</style>
<g>
	<g>
		<g>
			<path class="st7" d="M144.4,37.3l-32.5,0c0.3-3.8,0.4-7.7,0.4-11.6l31.7,0C144,29.7,144.1,33.6,144.4,37.3z"/>
		</g>
	</g>
	<g class="st15">
		<g>
			<path d="M144.4,37.3l-8.1,0c0.1-3.8,0.1-7.7,0.1-11.6l7.9,0C144.3,29.7,144.3,33.6,144.4,37.3z"/>
		</g>
	</g>
	<g>
		<g>
			<path class="st42" d="M168.4,88.5l0,34.6l-80.5,0l0-34.6c0-11.7,0.2-18.4,12.1-27.2l56.4,0C168.2,70.1,168.4,76.7,168.4,88.5z"/>
		</g>
	</g>
	<g class="st25">
		<g>
			<path class="st7" d="M111.9,61.3l-11.9,0c-11.9,8.8-12.1,15.4-12.1,27.2l0,34.6l14.6,0C102.5,99.3,100,76.2,111.9,61.3z"/>
		</g>
	</g>
	<g>
		<g>
			<path class="st7" d="M156.4,61.3l-56.4,0c8.5-6.2,11.1-14.7,11.9-24l32.5,0C145.2,46.6,147.9,55.1,156.4,61.3z"/>
		</g>
	</g>
	<g class="st15">
		<g>
			<path d="M145.6,61.3l10.8,0c-8.5-6.2-11.1-14.7-12-24l-8.2,0C136.8,45.8,139.2,53,145.6,61.3z"/>
		</g>
	</g>
	<g>
		<g>
			<path class="st42" d="M168.4,188.2l0,41.3c0,19-6.2,22.5-22.4,22.5l-17.8,0c0,0-1.6,0-17.9,0c-16.3,0-22.4-3.5-22.4-22.5l0-41.3
				L168.4,188.2z"/>
		</g>
	</g>
	<g class="st25">
		<g>
			<path class="st7" d="M102.3,188.2c0,0-0.3,31.2-0.3,47c0,15.8,14.1,16.8,14.1,16.8l-18.4-1.7l-5.2-3.2c0,0-4.7,1.4-4.7-17.7
				l0-41.3L102.3,188.2z"/>
		</g>
	</g>
	<g>
		<g>
			<line class="st50" x1="150.1" y1="37.3" x2="144.4" y2="37.3"/>
		</g>
	</g>
	<g>
		<g>
			<line class="st50" x1="111.9" y1="37.3" x2="106.2" y2="37.3"/>
		</g>
	</g>
	<g>
		<g>
			<path class="st56" d="M150.1,9.6l0,16.2l-44,0l0-16.2C106.2,2.1,150.1,2.1,150.1,9.6z"/>
		</g>
	</g>
	<g class="st15">
		<g>
			<path d="M145.6,25.8l0,4.2l-34.9,0l0-4.2C110.7,23.8,145.6,23.8,145.6,25.8z"/>
		</g>
	</g>
	<g class="st15">
		<g>
			<path d="M150.1,9.6l0,16.2l-44,0c0,0,30.6-2.8,35.9-6.1C147.3,16.2,150.1,9.6,150.1,9.6z"/>
		</g>
	</g>
	<g>
		<g>
			<rect x="87.9" y="123.1" class="st56" width="80.5" height="65.2"/>
		</g>
	</g>
	<g class="st25">
		<g>
			<rect x="87.9" y="123.1" class="st7" width="14.6" height="65.2"/>
		</g>
	</g>
	<g class="st15">
		<g>
			<path d="M145.6,61.3l11.9,0c11.9,8.8,12.1,15.4,12.1,27.2l0,34.6l-14.6,0C155,99.3,157.5,76.2,145.6,61.3z"/>
		</g>
	</g>
	<g class="st15">
		<g>
			<path d="M155,188.2c0,0,0.3,31.2,0.3,47s0,16.8,0,16.8l4.3-1.7l5.3-3.2c0,0,4.8,1.4,4.8-17.7l0-41.3L155,188.2z"/>
		</g>
	</g>
	<g class="st15">
		<g>
			<rect x="155" y="123.1" width="14.6" height="65.2"/>
		</g>
	</g>
	<g>
		<g>
			<path class="st1" d="M144.4,41.3C144.4,41.3,144.4,41.3,144.4,41.3l-32.5,0c-1.1,0-2.2-0.5-2.9-1.3c-0.8-0.8-1.1-1.9-1-3.1
				c0.3-3.7,0.4-7.6,0.4-11.3c0-2.2,1.8-4,4-4l0,0l31.7,0c2.2,0,4,1.8,4,4c0,3.7,0,7.6,0.3,11.3c0.1,1.1-0.3,2.2-1,3.1
				C146.6,40.9,145.5,41.3,144.4,41.3z M116.2,33.3l24,0c0-1.2-0.1-2.4-0.1-3.6l-23.8,0C116.3,30.9,116.2,32.1,116.2,33.3z"/>
		</g>
	</g>
	<g>
		<g>
			<path class="st1" d="M168.4,127.1C168.4,127.1,168.4,127.1,168.4,127.1l-80.5,0c-2.2,0-4-1.8-4-4l0-34.6c0-11.8,0-20.3,13.7-30.4
				c0.7-0.5,1.5-0.8,2.4-0.8c0,0,0,0,0,0l56.4,0c0.9,0,1.7,0.3,2.4,0.8c13.7,10.1,13.7,18.6,13.7,30.4v0l0,34.6
				C172.4,125.3,170.6,127.1,168.4,127.1z M91.9,119.1l72.5,0l0-30.6c0-10.8,0-15.9-9.4-23.2l-53.7,0c-9.4,7.3-9.4,12.4-9.4,23.2
				L91.9,119.1z M168.4,88.5L168.4,88.5L168.4,88.5z"/>
		</g>
	</g>
	<g>
		<g>
			<path class="st1" d="M156.4,65.3C156.4,65.3,156.4,65.3,156.4,65.3l-56.4,0c-1.7,0-3.3-1.1-3.8-2.8c-0.5-1.6,0-3.4,1.4-4.5
				c6.4-4.7,9.4-11,10.3-21.1c0.2-2.1,1.9-3.6,4-3.6c0,0,0,0,0,0l32.5,0c2.1,0,3.8,1.6,4,3.6c0.9,10.1,4,16.4,10.3,21.1
				c1.4,1,2,2.8,1.4,4.5C159.6,64.2,158.1,65.3,156.4,65.3z M109.5,57.3l37.3,0c-3.7-5.2-5.2-10.8-6-16l-25.3,0
				C114.8,46.5,113.2,52.1,109.5,57.3z"/>
		</g>
	</g>
	<g>
		<g>
			<path class="st1" d="M146,256C146,256,146,256,146,256l-35.7,0c-8.6,0-15.3-0.9-20-5.1c-4.5-4.1-6.4-10.5-6.4-21.3l0-41.3
				c0-1.1,0.4-2.1,1.2-2.8c0.8-0.8,1.8-1.2,2.8-1.2c0,0,0,0,0,0l80.5,0c1.1,0,2.1,0.4,2.8,1.2c0.8,0.8,1.2,1.8,1.2,2.8l0,41.3
				c0,10.9-1.9,17.2-6.4,21.3C161.3,255.1,154.6,256,146,256z M91.9,192.2l0,37.3c0,8.2,1.2,13.1,3.8,15.4c2.4,2.2,6.6,3.1,14.6,3.1
				l35.7,0c0,0,0,0,0,0c8,0,12.2-0.9,14.6-3.1c2.6-2.4,3.8-7.3,3.8-15.4l0-37.3L91.9,192.2z"/>
		</g>
	</g>
	<g>
		<g>
			<path class="st1" d="M150.1,41.3C150.1,41.3,150.1,41.3,150.1,41.3l-5.7,0c-2.2,0-4-1.8-4-4c0-2.2,1.8-4,4-4c0,0,0,0,0,0l5.7,0
				c2.2,0,4,1.8,4,4C154.1,39.6,152.3,41.3,150.1,41.3z"/>
		</g>
	</g>
	<g>
		<g>
			<path class="st1" d="M111.9,41.3C111.9,41.3,111.9,41.3,111.9,41.3l-5.8,0c-2.2,0-4-1.8-4-4c0-2.2,1.8-4,4-4c0,0,0,0,0,0l5.8,0
				c2.2,0,4,1.8,4,4C115.9,39.6,114.2,41.3,111.9,41.3z"/>
		</g>
	</g>
	<g>
		<g>
			<path class="st1" d="M150.1,29.7C150.1,29.7,150.1,29.7,150.1,29.7l-44,0c-2.2,0-4-1.8-4-4l0-16.2c0-7.9,14.1-9.6,26-9.6
				c0,0,0,0,0,0c6,0,11.7,0.5,16,1.5c6.6,1.5,10,4.2,10,8.1v0c0,0,0,0,0,0l0,16.2c0,1.1-0.4,2.1-1.2,2.8
				C152.2,29.3,151.2,29.7,150.1,29.7z M110.2,21.7l36,0l0-11.2c-1.9-1.1-8.4-2.5-18-2.5c0,0,0,0,0,0c-9.6,0-16,1.4-18,2.5
				L110.2,21.7z"/>
		</g>
	</g>
	<g>
		<g>
			<path class="st1" d="M168.4,192.2C168.4,192.2,168.4,192.2,168.4,192.2l-80.5,0c-1.1,0-2.1-0.4-2.8-1.2c-0.8-0.8-1.2-1.8-1.2-2.8
				l0-65.2c0-2.2,1.8-4,4-4c0,0,0,0,0,0l80.5,0c2.2,0,4,1.8,4,4l0,65.2c0,1.1-0.4,2.1-1.2,2.8C170.5,191.8,169.5,192.2,168.4,192.2z
				 M91.9,184.2l72.5,0l0-57.2l-72.5,0L91.9,184.2z"/>
		</g>
	</g>
</g>
</svg>
