<?xml version="1.0" encoding="utf-8"?>
<!-- Generator: Adobe Illustrator 22.1.0, SVG Export Plug-In . SVG Version: 6.00 Build 0)  -->
<svg version="1.1" id="Layer_1" xmlns="http://www.w3.org/2000/svg" xmlns:xlink="http://www.w3.org/1999/xlink" x="0px" y="0px"
	 viewBox="0 0 256 256" style="enable-background:new 0 0 256 256;" xml:space="preserve">
<style type="text/css">
	.st0{fill:#F5B31F;}
	.st1{fill:#464646;}
	.st2{opacity:0.15;}
	.st3{fill:#AC6535;}
	.st4{fill:#EB573B;}
	.st5{fill:#90C056;}
	.st6{opacity:0.35;}
	.st7{fill:#FFFFFF;}
	.st8{opacity:0.2;}
	.st9{fill:#F6D67A;}
	.st10{opacity:0.3;}
	.st11{fill:#FFA755;}
	.st12{fill:#8FAE3C;}
	.st13{fill:#BE6BB2;}
	.st14{fill:#B7C536;}
	.st15{opacity:0.1;}
	.st16{fill:#9D5A96;}
	.st17{fill:#EA615D;}
	.st18{opacity:0.4;}
	.st19{fill:#F79932;}
	.st20{fill:#FFEC97;}
	.st21{fill:#FFD11D;}
	.st22{fill:#F7F2D5;}
	.st23{fill:#F6AF72;}
	.st24{fill:#BA6C45;}
	.st25{opacity:0.5;}
	.st26{fill:#E4C074;}
	.st27{fill:#656566;}
	.st28{fill:#FACD1F;}
	.st29{fill:#FFDF66;}
	.st30{fill:#6D6E71;}
	.st31{fill:#E77CAE;}
	.st32{fill:#FFE5C4;}
	.st33{fill:#F68455;}
	.st34{opacity:0.7;}
	.st35{fill:#ADEDFF;}
	.st36{fill:#EC754B;}
	.st37{fill:#4AA5BA;}
	.st38{opacity:0.8;}
	.st39{fill:#92A5AC;}
	.st40{fill:#D06E3C;}
	.st41{fill:#DA4F4B;}
	.st42{fill:#BDF3FF;}
	.st43{fill:#F18BB4;}
	.st44{fill:#F9D97A;}
	.st45{fill:none;}
	.st46{fill:#AF6535;}
	.st47{fill:#B93226;}
	.st48{fill:#FF6050;}
	.st49{fill:#EA7CB1;}
	.st50{fill:#00B0E0;}
	.st51{fill:#EA7DAE;}
	.st52{fill:#BC7532;}
	.st53{fill:#876C6C;}
	.st54{fill:#F9F6CD;}
	.st55{fill:#FFE37B;}
	.st56{fill:#1DDCFF;}
	.st57{fill:#60ACF7;}
	.st58{fill:#C3755A;}
	.st59{fill:#96557A;}
	.st60{fill:#66625D;}
	.st61{fill:#D68032;}
	.st62{fill:#F2A355;}
	.st63{fill:#7E9E6A;}
	.st64{fill:#965A85;}
	.st65{fill:#90CAD3;}
	.st66{fill:#94B57F;}
	.st67{fill:#B2E2E7;}
	.st68{fill:#FFDF8F;}
	.st69{fill:#FFFAEB;}
	.st70{fill:#F88916;}
	.st71{fill:#FFC86E;}
	.st72{fill:#AFA51D;}
	.st73{fill:#968A1C;}
	.st74{fill:#C3556D;}
</style>
<g>
	<g>
		<g>
			<path class="st19" d="M221.3,145.4c0,59.5-48.2,107.7-107.6,107.7c-59.4,0-107.6-48.2-107.6-107.7C6.1,97.5,37.2,57,80.3,43
				c4.6-1.5,9.3-2.7,14.1-3.6c23.7,15,47.7,19.4,72,12C199.1,69.8,221.3,105,221.3,145.4z"/>
		</g>
	</g>
	<g class="st15">
		<g>
			<path d="M221.3,145.4c0,57.4-44.8,104.3-101.4,107.5c-2.1,0.1-4.2,0.2-6.3,0.2c-41.2,0-77-23.2-95.1-57.3
				c22.8,18.3,47,27.2,69.9,28.7c-10.4-15-16.5-33.2-16.5-52.8c0-51.2,41.4-92.6,92.6-92.6c6.2,0,12.2,0.6,18,1.8
				c-4.1-9.6-9.4-19.5-16.2-29.4c15.8,8.9,29.1,21.6,38.7,37C215.3,104.9,221.3,124.4,221.3,145.4z"/>
		</g>
	</g>
	<g class="st15">
		<g>
			<path d="M182.9,41.4c-21.3,24.7,5.3,16.3-15.7,22.7c-24.3,7.4-48.3,3-72-12c-6.3-4-6.7-15.6-6.7-15.6l-4.6-5.2l50.5-13
				C134.5,18.3,136,47.6,182.9,41.4z"/>
		</g>
	</g>
	<g>
		<g>
			<path class="st12" d="M230.6,5.1c-21.3,24.7-42.4,39.9-63.3,46.3c-24.3,7.4-48.3,3-72-12c-6.3-4-12.7-8.8-19-14.4
				c-0.5-1-1-2-1.5-3c15.5-9,31.5-18.5,59.6-16.5C163.2,7.7,183.6,11.3,230.6,5.1z"/>
		</g>
	</g>
	<g class="st10">
		<g>
			<path class="st7" d="M134.5,5.6C106.4,3.5,90.4,13,74.8,22.1c0.5,1,1,2,1.5,3c6.3,5.5,12.6,10.3,19,14.4
				C91.9,25,108,14.3,134.5,5.6z"/>
		</g>
	</g>
	<g>
		<g>
			<g>
				<path class="st1" d="M169.4,236L169.4,236c-17.1,0-33.3-6.7-45.4-18.8c-12.1-12.1-18.8-28.3-18.8-45.5
					c0-17.2,6.7-33.3,18.8-45.5c12.1-12.1,28.3-18.8,45.4-18.8c0,0,0,0,0,0l0,0c17.2,0,33.3,6.7,45.4,18.8c1.6,1.6,1.6,4.1,0,5.7
					l-41.4,41.5l0,58.6C173.4,234.2,171.6,236,169.4,236z M169.4,115.4c-15,0-29.1,5.9-39.8,16.5c-10.6,10.6-16.5,24.8-16.5,39.8
					c0,15,5.8,29.2,16.5,39.8c9.7,9.7,22.3,15.4,35.8,16.3l0-56.2c0-1.2,0.5-2.3,1.3-3l39.5-39.6C196,120.3,183,115.4,169.4,115.4
					C169.4,115.4,169.4,115.4,169.4,115.4z"/>
			</g>
		</g>
		<g>
			<g>
				<path class="st1" d="M113.7,256.1C52.1,256.1,2.1,206,2.1,144.4C2.1,95.9,33,53.2,79,38.2c4.8-1.6,9.7-2.8,14.6-3.7
					c1-0.2,2,0,2.9,0.6c23,14.6,46.1,18.5,68.6,11.5c1-0.3,2.2-0.2,3.1,0.3c22.3,12.5,39.8,32.5,49.2,56.3c0.6,1.6,0.2,3.5-1.2,4.6
					c-1.4,1.1-3.3,1.2-4.7,0.2c-12.5-8.3-27.1-12.7-42.2-12.7c0,0,0,0,0,0c-20.4,0-39.5,7.9-54,22.4C101,132.1,93,151.3,93,171.7
					c0,32.8,20.8,61.9,51.8,72.4c1.7,0.6,2.8,2.1,2.7,3.9s-1.2,3.3-2.9,3.8C134.7,254.7,124.2,256.1,113.7,256.1z M93.5,42.7
					c-4.1,0.8-8.1,1.8-12,3.1c-42.7,13.9-71.4,53.6-71.4,98.6c0,57.2,46.5,103.7,103.6,103.7c5.7,0,11.4-0.5,17-1.4
					c-27.7-14.3-45.6-43.1-45.6-75c0-22.5,8.8-43.7,24.7-59.7c15.9-15.9,37.1-24.7,59.6-24.7c0,0,0,0,0,0c12.4,0,24.5,2.7,35.5,7.8
					c-9-16.7-22.6-30.8-39.1-40.4C141.9,61.6,117.6,57.5,93.5,42.7z"/>
			</g>
		</g>
		<g>
			<g>
				<path class="st1" d="M73.9,25.1c-1.4,0-2.8-0.8-3.5-2.1c-2-3.8-4.7-7.9-8.8-13.3c-1.3-1.8-1-4.3,0.8-5.6c1.8-1.3,4.3-1,5.6,0.8
					c4.3,5.7,7.2,10.1,9.4,14.3c1,1.9,0.3,4.4-1.6,5.4C75.2,25,74.5,25.1,73.9,25.1z"/>
			</g>
		</g>
		<g>
			<g>
				<path class="st1" d="M80.6,63.5c-0.1,0-0.1,0-0.2,0c-2.2-0.1-3.9-2-3.8-4.2c0.3-6.9,0.2-12.2-0.3-16.9
					c-0.7-6.3-2.1-11.4-4.6-16.6c-0.9-2-0.1-4.4,1.9-5.3c2-0.9,4.4-0.1,5.3,1.9c2.8,6,4.5,12.1,5.3,19.2c0.5,5.1,0.7,10.8,0.3,18.1
					C84.5,61.8,82.7,63.5,80.6,63.5z"/>
			</g>
		</g>
		<g>
			<g>
				<path class="st1" d="M143.2,58c-17,0-34.1-5.4-51-16.1c-6.5-4.1-13-9.1-19.5-14.7c-0.4-0.4-0.8-0.8-1-1.3
					c-0.5-1-0.9-1.9-1.4-2.7c-1-1.9-0.4-4.3,1.5-5.4l0.5-0.3c15.9-9.3,32.4-18.9,61.4-16.7c4.4,0.3,8.6,0.7,12.7,1
					c23.2,2,43.2,3.7,82.6-1.5c1.6-0.2,3.3,0.6,4,2.1c0.8,1.5,0.6,3.3-0.5,4.5c-21.4,24.8-43.3,40.8-65.2,47.5
					C159.4,56.7,151.3,58,143.2,58z M79.6,22.4c5.6,4.8,11.3,9.1,16.9,12.6c23,14.6,46,18.5,68.6,11.5c18-5.5,36.3-18,54.4-37.2
					c-33.6,3.7-53.1,2-73.7,0.3c-4.1-0.3-8.3-0.7-12.6-1C108.5,6.8,93.5,14.4,79.6,22.4z"/>
			</g>
		</g>
		<g>
			<g>
				<path class="st1" d="M62.3,214.9c-0.8,0-1.5-0.2-2.2-0.7c-19.8-13-30.7-36.6-32.7-54.2c-0.3-2.2,1.3-4.2,3.5-4.4
					s4.2,1.3,4.4,3.5c1.8,15.8,11.6,36.9,29.2,48.5c1.8,1.2,2.4,3.7,1.1,5.5C64.9,214.2,63.6,214.9,62.3,214.9z"/>
			</g>
		</g>
	</g>
	<g>
		<g>
			<g>
				<path class="st11" d="M169.4,111.4l0,60.3h0l42.6-42.6C201.1,118.2,186,111.4,169.4,111.4z"/>
			</g>
			<g>
				<path class="st1" d="M169.4,175.7c-1.1,0-2.1-0.4-2.8-1.2c-0.8-0.8-1.2-1.8-1.2-2.8l0-60.3c0-2.2,1.8-4,4-4l0,0
					c17.2,0,33.3,6.7,45.4,18.8c1.6,1.6,1.6,4.1,0,5.7l-42.6,42.6C171.5,175.3,170.4,175.7,169.4,175.7z M173.4,115.6l0,46.5
					l32.8-32.9C197,121.2,185.6,116.4,173.4,115.6z"/>
			</g>
		</g>
		<g>
			<g>
				<path class="st1" d="M169.4,256.1C169.4,256.1,169.4,256.1,169.4,256.1c-9.3,0-18.4-1.5-27.1-4.4c-34.3-11.6-57.3-43.7-57.3-80
					c0-22.5,8.8-43.7,24.7-59.7c15.9-15.9,37.1-24.7,59.6-24.7c0,0,0,0,0,0c16.7,0,32.8,4.9,46.6,14c0,0,0,0,0,0
					c23.6,15.7,37.7,42,37.7,70.4c0,22.5-8.8,43.7-24.7,59.7C213.1,247.3,191.9,256.1,169.4,256.1z M169.4,95.3
					c-20.4,0-39.5,7.9-54,22.4C101,132.1,93,151.3,93,171.7c0,32.8,20.8,61.9,51.8,72.4c7.9,2.7,16.1,4,24.5,4c0,0,0,0,0,0
					c20.4,0,39.5-7.9,54-22.4c14.4-14.4,22.4-33.6,22.4-54c0-25.7-12.8-49.5-34.2-63.7l0,0C199,99.7,184.4,95.3,169.4,95.3
					C169.4,95.3,169.4,95.3,169.4,95.3z M169.4,236c-17.1,0-33.3-6.7-45.4-18.8c-12.1-12.1-18.8-28.3-18.8-45.5
					c0-17.2,6.7-33.3,18.8-45.5c12.1-12.1,28.3-18.8,45.4-18.8c0,0,0,0,0,0c17.2,0,33.3,6.7,45.4,18.8c3.8,3.9,7.2,8.1,9.9,12.8
					c5.8,9.9,8.9,21.2,8.9,32.7c0,17.2-6.7,33.3-18.8,45.5c0,0,0,0,0,0c-10.1,10.1-23.3,16.6-37.4,18.3
					C174.8,235.9,172.1,236,169.4,236z M169.4,115.4c-15,0-29.1,5.9-39.8,16.5c-10.6,10.6-16.5,24.8-16.5,39.8
					c0,15,5.8,29.2,16.5,39.8c10.6,10.6,24.7,16.5,39.8,16.5c2.4,0,4.8-0.1,7-0.4c12.3-1.5,23.9-7.2,32.7-16
					c10.6-10.6,16.5-24.8,16.5-39.8c0-10.1-2.7-20-7.8-28.7c-2.4-4-5.3-7.8-8.7-11.2C198.5,121.3,184.4,115.4,169.4,115.4
					C169.4,115.4,169.4,115.4,169.4,115.4z M212,214.4L212,214.4L212,214.4z"/>
			</g>
		</g>
		<g>
			<g>
				<path class="st21" d="M213.7,104.7c-12.7-8.4-28-13.4-44.4-13.4c-44.4,0-80.3,36-80.3,80.4c0,35.4,22.8,65.4,54.5,76.2
					c8.1,2.7,16.8,4.2,25.8,4.2c44.4,0,80.3-36,80.3-80.4C249.7,143.7,235.4,119.1,213.7,104.7z M212,214.4
					c-9.2,9.2-21.4,15.5-35.1,17.2c-2.5,0.3-5,0.5-7.5,0.5c-16.6,0-31.7-6.8-42.6-17.7c-10.9-10.9-17.6-26-17.6-42.6
					s6.7-31.7,17.6-42.6c10.9-10.9,26-17.7,42.6-17.7c16.6,0,31.7,6.8,42.6,17.7c3.6,3.6,6.7,7.6,9.3,12c5.3,9,8.4,19.5,8.4,30.7
					C229.6,188.4,222.9,203.5,212,214.4z"/>
			</g>
			<g>
				<path class="st1" d="M169.4,256.1C169.4,256.1,169.4,256.1,169.4,256.1c-9.3,0-18.4-1.5-27.1-4.4c-34.3-11.6-57.3-43.7-57.3-80
					c0-22.5,8.8-43.7,24.7-59.7c15.9-15.9,37.1-24.7,59.6-24.7c0,0,0,0,0,0c16.7,0,32.8,4.9,46.6,14c0,0,0,0,0,0
					c23.6,15.7,37.7,42,37.7,70.4c0,22.5-8.8,43.7-24.7,59.7C213.1,247.3,191.9,256.1,169.4,256.1z M169.4,95.3
					c-20.4,0-39.5,7.9-54,22.4C101,132.1,93,151.3,93,171.7c0,32.8,20.8,61.9,51.8,72.4c7.9,2.7,16.1,4,24.5,4c0,0,0,0,0,0
					c20.4,0,39.5-7.9,54-22.4c14.4-14.4,22.4-33.6,22.4-54c0-25.7-12.8-49.5-34.2-63.7l0,0C199,99.7,184.4,95.3,169.4,95.3
					C169.4,95.3,169.4,95.3,169.4,95.3z M169.4,236c-17.1,0-33.3-6.7-45.4-18.8c-12.1-12.1-18.8-28.3-18.8-45.5
					c0-17.2,6.7-33.3,18.8-45.5c12.1-12.1,28.3-18.8,45.4-18.8c0,0,0,0,0,0c17.2,0,33.3,6.7,45.4,18.8c3.8,3.9,7.2,8.1,9.9,12.8
					c5.8,9.9,8.9,21.2,8.9,32.7c0,17.2-6.7,33.3-18.8,45.5c0,0,0,0,0,0c-10.1,10.1-23.3,16.6-37.4,18.3
					C174.8,235.9,172.1,236,169.4,236z M169.4,115.4c-15,0-29.1,5.9-39.8,16.5c-10.6,10.6-16.5,24.8-16.5,39.8
					c0,15,5.8,29.2,16.5,39.8c10.6,10.6,24.7,16.5,39.8,16.5c2.4,0,4.8-0.1,7-0.4c12.3-1.5,23.9-7.2,32.7-16
					c10.6-10.6,16.5-24.8,16.5-39.8c0-10.1-2.7-20-7.8-28.7c-2.4-4-5.3-7.8-8.7-11.2C198.5,121.3,184.4,115.4,169.4,115.4
					C169.4,115.4,169.4,115.4,169.4,115.4z M212,214.4L212,214.4L212,214.4z"/>
			</g>
		</g>
		<g>
			<g>
				<path class="st11" d="M229.6,171.7c0,16.7-6.7,31.7-17.6,42.6l-9.3-9.3l-33.3-33.3L229.6,171.7z"/>
			</g>
			<g>
				<path class="st1" d="M212,218.4L212,218.4c-1.1,0-2.1-0.4-2.8-1.2l-42.6-42.6c-1.1-1.1-1.5-2.9-0.9-4.4c0.6-1.5,2.1-2.5,3.7-2.5
					l0,0l60.2,0c2.2,0,4,1.8,4,4c0,17.2-6.7,33.3-18.8,45.5C214,217.9,213,218.4,212,218.4z M179,175.7l32.8,32.9
					c8-9.2,12.8-20.7,13.6-32.9L179,175.7z"/>
			</g>
		</g>
		<g>
			<g>
				<path class="st11" d="M229.6,171.7l-60.2,0l42.6-42.6c3.6,3.6,6.7,7.6,9.3,12C226.5,150,229.6,160.5,229.6,171.7z"/>
			</g>
			<g>
				<path class="st1" d="M229.6,175.7L229.6,175.7l-60.2,0c-1.6,0-3.1-1-3.7-2.5s-0.3-3.2,0.9-4.4l42.6-42.6
					c0.8-0.8,1.8-1.2,2.8-1.2c0,0,0,0,0,0c1.1,0,2.1,0.4,2.8,1.2c3.8,3.9,7.2,8.1,9.9,12.7c5.8,9.9,8.9,21.2,8.9,32.7
					C233.6,173.9,231.8,175.7,229.6,175.7z M179,167.7l46.4,0c-0.6-8.7-3.2-17.2-7.7-24.7c-1.7-2.9-3.7-5.7-5.9-8.2L179,167.7z"/>
			</g>
		</g>
		<g>
			<g>
				<path class="st11" d="M212,214.4c-9.2,9.2-21.4,15.5-35.1,17.2c-2.5,0.3-5,0.5-7.5,0.5l0-60.3h0l33.3,33.3L212,214.4z"/>
			</g>
			<g>
				<path class="st1" d="M169.4,236c-1.1,0-2.1-0.4-2.8-1.2c-0.8-0.8-1.2-1.8-1.2-2.8l0-60.3c0-2.2,1.8-4,4-4c1.1,0,2.1,0.4,2.8,1.2
					l42.6,42.6c1.6,1.6,1.6,4.1,0,5.7c-10.1,10.1-23.3,16.6-37.4,18.3C174.8,235.9,172.1,236,169.4,236z M173.4,181.4l0,46.5
					c1-0.1,2-0.2,3-0.3c11-1.4,21.4-6.1,29.8-13.3L173.4,181.4z"/>
			</g>
		</g>
		<g>
			<g>
				<path class="st11" d="M169.4,111.4l0,60.3l-42.6-42.6C137.7,118.2,152.7,111.4,169.4,111.4z"/>
			</g>
			<g>
				<path class="st1" d="M169.4,175.7c-1,0-2.1-0.4-2.8-1.2l-42.6-42.6c-1.6-1.6-1.6-4.1,0-5.7c12.1-12.1,28.3-18.8,45.4-18.8
					c0,0,0,0,0,0c1.1,0,2.1,0.4,2.8,1.2c0.8,0.8,1.2,1.8,1.2,2.8l0,60.3c0,1.6-1,3.1-2.5,3.7C170.4,175.6,169.9,175.7,169.4,175.7z
					 M132.5,129.2l32.8,32.9l0-46.5C153.2,116.4,141.8,121.2,132.5,129.2z"/>
			</g>
		</g>
		<g>
			<g>
				<path class="st11" d="M169.4,171.7L169.4,171.7l-60.2,0c0-16.7,6.7-31.7,17.6-42.6L169.4,171.7z"/>
			</g>
			<g>
				<path class="st1" d="M169.4,175.7L169.4,175.7l-60.2,0c-2.2,0-4-1.8-4-4c0-17.2,6.7-33.3,18.8-45.5c0.8-0.8,1.8-1.2,2.8-1.2
					c1.1,0,2.1,0.4,2.8,1.2l42.6,42.6c0.7,0.8,1.2,1.8,1.2,2.8v0c0,1.1-0.4,2.1-1.2,2.8S170.4,175.7,169.4,175.7z M113.3,167.7
					l46.5,0l-32.8-32.9C118.9,144.1,114.1,155.5,113.3,167.7z"/>
			</g>
		</g>
		<g>
			<g>
				<path class="st11" d="M169.4,171.7l-42.6,42.6c-10.9-10.9-17.6-26-17.6-42.6L169.4,171.7z"/>
			</g>
			<g>
				<path class="st1" d="M126.8,218.4L126.8,218.4c-1.1,0-2.1-0.4-2.8-1.2c-12.1-12.1-18.8-28.3-18.8-45.5c0-1.1,0.4-2.1,1.2-2.8
					s1.8-1.2,2.8-1.2l0,0l60.2,0c1.6,0,3.1,1,3.7,2.5s0.3,3.2-0.9,4.4l-42.6,42.6C128.8,217.9,127.8,218.4,126.8,218.4z
					 M113.3,175.7c0.8,12.2,5.6,23.6,13.6,32.9l32.8-32.9L113.3,175.7z"/>
			</g>
		</g>
		<g>
			<g>
				<path class="st11" d="M169.4,171.7l0,60.3c-16.6,0-31.7-6.8-42.6-17.7L169.4,171.7z"/>
			</g>
			<g>
				<path class="st1" d="M169.4,236L169.4,236c-17.1,0-33.3-6.7-45.4-18.8c-1.6-1.6-1.6-4.1,0-5.7l42.6-42.6
					c1.1-1.1,2.9-1.5,4.4-0.9c1.5,0.6,2.5,2.1,2.5,3.7l0,60.3C173.4,234.2,171.6,236,169.4,236z M132.5,214.3
					c9.2,8,20.7,12.8,32.8,13.6l0-46.5L132.5,214.3z"/>
			</g>
		</g>
		<g>
			<g>
				<path class="st11" d="M212,129.1l-42.6,42.6h0l0-60.3C186,111.4,201.1,118.2,212,129.1z"/>
			</g>
			<g>
				<path class="st1" d="M169.4,175.7c-1.1,0-2.1-0.4-2.8-1.2c-0.8-0.8-1.2-1.8-1.2-2.8l0-60.3c0-2.2,1.8-4,4-4l0,0
					c17.2,0,33.3,6.7,45.4,18.8c1.6,1.6,1.6,4.1,0,5.7l-42.6,42.6C171.5,175.3,170.4,175.7,169.4,175.7z M173.4,115.6l0,46.5
					l32.8-32.9C197,121.2,185.6,116.4,173.4,115.6z"/>
			</g>
		</g>
	</g>
</g>
</svg>
