<?xml version="1.0" encoding="utf-8"?>
<!-- Generator: Adobe Illustrator 22.1.0, SVG Export Plug-In . SVG Version: 6.00 Build 0)  -->
<svg version="1.1" id="Layer_1" xmlns="http://www.w3.org/2000/svg" xmlns:xlink="http://www.w3.org/1999/xlink" x="0px" y="0px"
	 viewBox="0 0 256 256" style="enable-background:new 0 0 256 256;" xml:space="preserve">
<style type="text/css">
	.st0{fill:#F5B31F;}
	.st1{fill:#464646;}
	.st2{opacity:0.15;}
	.st3{fill:#AC6535;}
	.st4{fill:#EB573B;}
	.st5{fill:#90C056;}
	.st6{opacity:0.35;}
	.st7{fill:#FFFFFF;}
	.st8{opacity:0.2;}
	.st9{fill:#F6D67A;}
	.st10{opacity:0.3;}
	.st11{fill:#FFA755;}
	.st12{fill:#8FAE3C;}
	.st13{fill:#BE6BB2;}
	.st14{fill:#B7C536;}
	.st15{opacity:0.1;}
	.st16{fill:#9D5A96;}
	.st17{fill:#EA615D;}
	.st18{opacity:0.4;}
	.st19{fill:#F79932;}
	.st20{fill:#FFEC97;}
	.st21{fill:#FFD11D;}
	.st22{fill:#F7F2D5;}
	.st23{fill:#F6AF72;}
	.st24{fill:#BA6C45;}
	.st25{opacity:0.5;}
	.st26{fill:#E4C074;}
	.st27{fill:#656566;}
	.st28{fill:#FACD1F;}
	.st29{fill:#FFDF66;}
	.st30{fill:#6D6E71;}
	.st31{fill:#E77CAE;}
	.st32{fill:#FFE5C4;}
	.st33{fill:#F68455;}
	.st34{opacity:0.7;}
	.st35{fill:#ADEDFF;}
	.st36{fill:#EC754B;}
	.st37{fill:#4AA5BA;}
	.st38{opacity:0.8;}
	.st39{fill:#92A5AC;}
	.st40{fill:#D06E3C;}
	.st41{fill:#DA4F4B;}
	.st42{fill:#BDF3FF;}
	.st43{fill:#F18BB4;}
	.st44{fill:#F9D97A;}
	.st45{fill:none;}
	.st46{fill:#AF6535;}
	.st47{fill:#B93226;}
	.st48{fill:#FF6050;}
	.st49{fill:#EA7CB1;}
	.st50{fill:#00B0E0;}
	.st51{fill:#EA7DAE;}
	.st52{fill:#BC7532;}
	.st53{fill:#876C6C;}
	.st54{fill:#F9F6CD;}
	.st55{fill:#FFE37B;}
	.st56{fill:#1DDCFF;}
	.st57{fill:#60ACF7;}
	.st58{fill:#C3755A;}
	.st59{fill:#96557A;}
	.st60{fill:#66625D;}
	.st61{fill:#D68032;}
	.st62{fill:#F2A355;}
	.st63{fill:#7E9E6A;}
	.st64{fill:#965A85;}
	.st65{fill:#90CAD3;}
	.st66{fill:#94B57F;}
	.st67{fill:#B2E2E7;}
	.st68{fill:#FFDF8F;}
	.st69{fill:#FFFAEB;}
	.st70{fill:#F88916;}
	.st71{fill:#FFC86E;}
	.st72{fill:#AFA51D;}
	.st73{fill:#968A1C;}
	.st74{fill:#C3556D;}
</style>
<g>
	<g>
		<g>
			<path class="st3" d="M252,82l0,11.3l-248,77l0-10.6C4,149.6,116.3,41.4,128,29.1C139.7,16.8,252,66.9,252,82z"/>
		</g>
	</g>
	<g class="st2">
		<g>
			<path class="st7" d="M160.2,32.3c-16-5-28.7-6.9-32.2-3.2C116.3,41.4,4,149.6,4,159.8l0,10.6C53.7,111.1,105.7,62.5,160.2,32.3z"
				/>
		</g>
	</g>
	<g class="st8">
		<g>
			<path class="st1" d="M211.3,53.1C220.4,59,252,78.6,252,82l0,11.3l-248,77C121.3,131.8,242.3,84.6,211.3,53.1z"/>
		</g>
	</g>
	<g>
		<g>
			<path class="st1" d="M4,174.3c-0.8,0-1.7-0.3-2.4-0.8c-1-0.8-1.6-1.9-1.6-3.2l0-10.6c0-5.3,8-17.5,105.8-114.2
				c9.8-9.6,16.8-16.6,19.3-19.2c6.1-6.4,25.9-2.9,59.1,10.3c17.1,6.8,34.5,15.2,47.7,22.8C253.3,72,256,78.1,256,82v0c0,0,0,0,0,0
				l0,11.3c0,1.8-1.1,3.3-2.8,3.8l-248,77C4.8,174.3,4.4,174.3,4,174.3z M8,160.1v4.8l240-74.5l0-8.3c-0.1-0.4-2.4-6.3-28.7-20.4
				c-17.2-9.2-38-18.1-55.5-24c-23.6-7.9-31.7-6.9-32.9-5.8c-2.5,2.7-9.6,9.7-19.4,19.4c-17,16.8-42.6,42.1-64,64.1
				C14.3,149.6,8.8,158,8,160.1z M8,160.2L8,160.2L8,160.2z M252,93.3L252,93.3L252,93.3z"/>
		</g>
	</g>
	<g>
		<g>
			<polygon class="st9" points="252,93.3 252,127.7 4,206.8 4,170.3 			"/>
		</g>
	</g>
	<g>
		<g>
			<path class="st1" d="M4,210.8c-0.8,0-1.7-0.3-2.4-0.8c-1-0.8-1.6-2-1.6-3.2l0-36.4c0-1.8,1.1-3.3,2.8-3.8l248-77
				c1.2-0.4,2.5-0.2,3.6,0.6c1,0.8,1.6,1.9,1.6,3.2l0,34.4c0,1.7-1.1,3.3-2.8,3.8l-248,79.1C4.8,210.7,4.4,210.8,4,210.8z M8,173.3
				l0,28l240-76.5l0-26L8,173.3z"/>
		</g>
	</g>
	<g>
		<g>
			<path class="st9" d="M252,127.7c0,20.1,0,38.9,0,38.9s-228.8,73-236.7,75.5C7.5,244.6,4,239.9,4,236l0-29.2L252,127.7z"/>
		</g>
	</g>
	<g class="st8">
		<g>
			<path class="st1" d="M252,93.3c0,20.1,0,73.3,0,73.3s-228.8,73-236.7,75.5C7.5,244.6,4,239.9,4,236c0,0,188.4-60.8,211-88.1
				S252,93.3,252,93.3z"/>
		</g>
	</g>
	<g>
		<g>
			<path class="st1" d="M11.3,246.8c-3.1,0-5.4-1-6.9-2.1c-2.7-2-4.4-5.3-4.4-8.7l0-29.2c0-1.7,1.1-3.3,2.8-3.8l248-79.1
				c1.2-0.4,2.5-0.2,3.6,0.6c1,0.8,1.6,2,1.6,3.2l0,38.9c0,1.7-1.1,3.3-2.8,3.8c-2.3,0.7-228.9,73-236.7,75.5
				C14.6,246.5,12.8,246.8,11.3,246.8z M8,209.7L8,236c0,0.7,0.3,1.7,1.1,2.3c1,0.8,2.8,0.8,5,0.1C21.4,236,221.9,172,248,163.7
				l0-30.5L8,209.7z"/>
		</g>
	</g>
	<g class="st8">
		<g>
			<path class="st1" d="M138.7,111.7c0,0,44.2-1.9,50.2-29c6-27.1-32.4-33.8-32.4-33.8"/>
		</g>
	</g>
	<g>
		<g>
			<ellipse class="st4" cx="138.7" cy="77" rx="31" ry="31"/>
		</g>
	</g>
	<g class="st8">
		<g>
			<path class="st1" d="M162.8,57.5c4.3,5.3,6.9,12.1,6.9,19.5c0,17.1-13.9,31-31,31c-9.7,0-18.4-4.5-24.1-11.5
				c0,0,24.3,6.8,36.8-4.6C163.7,80.5,162.8,57.5,162.8,57.5z"/>
		</g>
	</g>
	<g>
		<g>
			<path class="st1" d="M138.7,112C138.7,112,138.7,112,138.7,112c-9.4,0-18.1-3.6-24.7-10.2c-6.6-6.6-10.3-15.4-10.3-24.7
				c0-19.3,15.7-35,35-35c0,0,0,0,0,0c9.3,0,18.1,3.6,24.7,10.2c6.6,6.6,10.3,15.4,10.3,24.7C173.7,96.3,158,112,138.7,112z
				 M138.7,50c-14.9,0-27,12.1-27,27c0,7.2,2.8,14,7.9,19.1c5.1,5.1,11.9,7.9,19.1,7.9c14.9,0,27-12.1,27-27c0-7.2-2.8-14-7.9-19.1
				C152.7,52.8,145.9,50,138.7,50z"/>
		</g>
	</g>
	<g>
		<g>
			<path class="st1" d="M138.7,50c-0.7,0-1.4-0.2-2.1-0.6c-1.9-1.2-2.5-3.6-1.3-5.5c11.2-18,26-29.5,45.3-34.9
				c2.1-0.6,4.3,0.6,4.9,2.8c0.6,2.1-0.6,4.3-2.8,4.9c-17.3,4.9-30.7,15.1-40.7,31.4C141.3,49.4,140,50,138.7,50z"/>
		</g>
	</g>
</g>
</svg>
