<?xml version="1.0" encoding="utf-8"?>
<!-- Generator: Adobe Illustrator 22.1.0, SVG Export Plug-In . SVG Version: 6.00 Build 0)  -->
<svg version="1.1" id="Layer_1" xmlns="http://www.w3.org/2000/svg" xmlns:xlink="http://www.w3.org/1999/xlink" x="0px" y="0px"
	 viewBox="0 0 256 256" style="enable-background:new 0 0 256 256;" xml:space="preserve">
<style type="text/css">
	.st0{fill:#F5B31F;}
	.st1{fill:#464646;}
	.st2{opacity:0.15;}
	.st3{fill:#AC6535;}
	.st4{fill:#EB573B;}
	.st5{fill:#90C056;}
	.st6{opacity:0.35;}
	.st7{fill:#FFFFFF;}
	.st8{opacity:0.2;}
	.st9{fill:#F6D67A;}
	.st10{opacity:0.3;}
	.st11{fill:#FFA755;}
	.st12{fill:#8FAE3C;}
	.st13{fill:#BE6BB2;}
	.st14{fill:#B7C536;}
	.st15{opacity:0.1;}
	.st16{fill:#9D5A96;}
	.st17{fill:#EA615D;}
	.st18{opacity:0.4;}
	.st19{fill:#F79932;}
	.st20{fill:#FFEC97;}
	.st21{fill:#FFD11D;}
	.st22{fill:#F7F2D5;}
	.st23{fill:#F6AF72;}
	.st24{fill:#BA6C45;}
	.st25{opacity:0.5;}
	.st26{fill:#E4C074;}
	.st27{fill:#656566;}
	.st28{fill:#FACD1F;}
	.st29{fill:#FFDF66;}
	.st30{fill:#6D6E71;}
	.st31{fill:#E77CAE;}
	.st32{fill:#FFE5C4;}
	.st33{fill:#F68455;}
	.st34{opacity:0.7;}
	.st35{fill:#ADEDFF;}
	.st36{fill:#EC754B;}
	.st37{fill:#4AA5BA;}
	.st38{opacity:0.8;}
	.st39{fill:#92A5AC;}
	.st40{fill:#D06E3C;}
	.st41{fill:#DA4F4B;}
	.st42{fill:#BDF3FF;}
	.st43{fill:#F18BB4;}
	.st44{fill:#F9D97A;}
	.st45{fill:none;}
	.st46{fill:#AF6535;}
	.st47{fill:#B93226;}
	.st48{fill:#FF6050;}
	.st49{fill:#EA7CB1;}
	.st50{fill:#00B0E0;}
	.st51{fill:#EA7DAE;}
	.st52{fill:#BC7532;}
	.st53{fill:#876C6C;}
	.st54{fill:#F9F6CD;}
	.st55{fill:#FFE37B;}
	.st56{fill:#1DDCFF;}
	.st57{fill:#60ACF7;}
	.st58{fill:#C3755A;}
	.st59{fill:#96557A;}
	.st60{fill:#66625D;}
	.st61{fill:#D68032;}
	.st62{fill:#F2A355;}
	.st63{fill:#7E9E6A;}
	.st64{fill:#965A85;}
	.st65{fill:#90CAD3;}
	.st66{fill:#94B57F;}
	.st67{fill:#B2E2E7;}
	.st68{fill:#FFDF8F;}
	.st69{fill:#FFFAEB;}
	.st70{fill:#F88916;}
	.st71{fill:#FFC86E;}
	.st72{fill:#AFA51D;}
	.st73{fill:#968A1C;}
	.st74{fill:#C3556D;}
</style>
<g>
	<g>
		<g>
			<g>
				<path class="st5" d="M120.4,216.7l-12.8,13.9c-5.6,9.5-23.1-0.9-17.5-10.4c-11.9,4.4-17.8-11.8-6-16.2
					c-10.1-2.6-5.1-21.8,5-19.1l20.8,4.9C111.3,199.1,115.1,209.1,120.4,216.7z"/>
			</g>
		</g>
		<g>
			<g>
				<path class="st5" d="M238.7,182.4l-18.5-2.3c-1.2-9.1-4.8-19.3-9.6-27.4l12.5-17c6-8.6,22.3,2.8,16.3,11.3
					c11.9-4.4,17.8,11.8,5.9,16.2C255.8,166.8,249.2,186,238.7,182.4z"/>
			</g>
		</g>
		<g>
			<g>
				<path class="st1" d="M100.8,238.3c-2.7,0-5.5-0.8-8.2-2.4c-4.6-2.7-7.2-6.8-7.5-11c-2.5-0.2-4.9-1.2-6.8-2.8
					c-3.4-2.9-5.1-7.4-4.3-11.8c0.4-2.4,1.5-4.6,3.2-6.4c-0.9-1.2-1.5-2.5-2-4.1c-1.5-5.3,0.2-11.8,4.1-15.7c3-3,7-4.2,10.9-3.1
					l20.7,4.9c1.6,0.4,2.8,1.7,3,3.3c1.3,8.7,4.9,18.1,9.7,25.1c1.1,1.5,0.9,3.6-0.4,5L110.7,233
					C108.5,236.5,104.8,238.3,100.8,238.3z M90.1,216.2c1.2,0,2.3,0.5,3.1,1.4c1.1,1.3,1.2,3.1,0.4,4.6c-2.2,3.6,2.9,6.7,3.1,6.8
					c0.2,0.1,5.3,3.1,7.5-0.5c0.1-0.2,0.3-0.5,0.5-0.7l10.7-11.6c-4.2-6.9-7.3-15-8.9-23.1l-18.2-4.3c-0.9-0.2-2-0.3-3.3,1
					c-1.8,1.9-2.8,5.4-2.1,8c0.5,1.8,1.6,2.2,2.3,2.4c1.7,0.4,2.9,1.9,3,3.7c0.1,1.7-1,3.3-2.6,3.9c-2.2,0.8-3.5,2.1-3.8,3.8
					c-0.3,1.6,0.3,3.3,1.6,4.3c1.3,1.1,3.2,1.3,5.4,0.5C89.2,216.3,89.6,216.2,90.1,216.2z"/>
			</g>
		</g>
		<g>
			<g>
				<path class="st1" d="M241.3,186.8c-1.1,0-2.3-0.2-3.4-0.5l-18.1-2.2c-1.8-0.2-3.2-1.6-3.5-3.4c-1.1-8.5-4.5-18.2-9.1-25.9
					c-0.8-1.4-0.7-3.1,0.2-4.4l12.5-17c2.3-3.3,6.1-5,10.3-4.6c5.5,0.5,11,4.3,13.3,9.3c0.7,1.4,1,2.9,1.1,4.4
					c2.4,0.3,4.7,1.2,6.6,2.8c3.4,2.9,5.1,7.4,4.3,11.8c-0.4,2.5-1.6,4.7-3.4,6.5c2.5,3.4,3.1,8.2,1.4,13.3
					C251.5,183,246.6,186.8,241.3,186.8z M223.7,176.5l15.5,1.9c0.3,0,0.5,0.1,0.8,0.2c4,1.4,6-4.2,6-4.4c0.1-0.2,1.9-5.8-2-7.2
					c-1.6-0.5-2.7-2-2.7-3.7s1-3.2,2.6-3.8c2.2-0.8,3.5-2.1,3.8-3.9c0.3-1.6-0.3-3.3-1.6-4.3c-1.3-1.1-3.2-1.3-5.4-0.5
					c-1.6,0.6-3.5,0.1-4.5-1.3c-1.1-1.4-1.1-3.3-0.1-4.7c0.4-0.6,1-1.7,0.2-3.3c-1.1-2.4-4.1-4.5-6.8-4.7c-1.9-0.2-2.7,0.7-3.1,1.3
					l-11,15C219.3,160.2,222.3,168.7,223.7,176.5z"/>
			</g>
		</g>
		<g>
			<g>
				<path class="st5" d="M166.5,219.9l-23.3,8.5c-8.3,3.1-16.6-2.7-22.9-11.8c-5.2-7.6-9.1-17.5-10.4-26.8c-0.9-6.2-0.7-12.1,1-16.8
					L166.5,219.9z"/>
			</g>
		</g>
		<g>
			<g>
				<path class="st7" d="M195.9,209.1l-29.4,10.8L110.9,173c1.5-4.3,4.3-7.6,8.5-9.2l16.6-6.1L195.9,209.1z"/>
			</g>
		</g>
		<g>
			<g>
				<path class="st5" d="M219.8,194.2c-1.1,4.3-3.5,7.5-7.2,8.8l-16.7,6.1L136,157.8l26.9-9.9L219.8,194.2z"/>
			</g>
		</g>
		<g>
			<g>
				<path class="st7" d="M219.8,194.2l-56.9-46.3l25.9-9.5c7.7-2.8,15.8,4.1,21.9,14.4c4.8,8.1,8.4,18.3,9.6,27.4
					C220.9,185.3,220.9,190.2,219.8,194.2z"/>
			</g>
		</g>
		<g>
			<g>
				<path class="st1" d="M138.6,233.3c-7.5,0-15.1-5-21.6-14.4c-5.6-8.1-9.6-18.5-11.1-28.5c-1-7.2-0.7-13.7,1.1-18.7
					c0.4-1.2,1.5-2.2,2.7-2.5c1.3-0.3,2.6,0,3.6,0.8l55.6,46.9c1.1,0.9,1.6,2.3,1.4,3.8c-0.2,1.4-1.2,2.6-2.6,3.1l-23.3,8.5
					C142.6,233,140.6,233.3,138.6,233.3z M113.5,180.4c-0.2,2.7-0.1,5.6,0.4,8.8c1.3,8.7,4.9,18.1,9.7,25.1
					c2.8,4.1,10.2,13.3,18.2,10.3l16.8-6.2L113.5,180.4z"/>
			</g>
		</g>
		<g>
			<g>
				<path class="st1" d="M166.5,223.9c-0.9,0-1.8-0.3-2.6-0.9l-55.6-46.9c-1.3-1.1-1.7-2.8-1.2-4.4c2-5.7,5.8-9.7,10.9-11.6
					l16.6-6.1c1.4-0.5,2.9-0.2,4,0.7l59.9,51.4c1.1,0.9,1.6,2.3,1.3,3.7c-0.3,1.4-1.2,2.6-2.6,3l-29.4,10.8
					C167.4,223.9,167,223.9,166.5,223.9z M115.8,171.9l51.5,43.5l20.8-7.6l-52.9-45.4l-14.4,5.3C118.6,168.4,117,169.8,115.8,171.9z
					"/>
			</g>
		</g>
		<g>
			<g>
				<path class="st1" d="M195.9,213.1c-0.9,0-1.9-0.3-2.6-1l-59.9-51.4c-1.1-0.9-1.6-2.3-1.3-3.7s1.2-2.6,2.6-3l26.9-9.9
					c1.3-0.5,2.8-0.2,3.9,0.7l56.9,46.3c1.2,1,1.7,2.6,1.3,4.1c-1.6,5.8-4.9,9.8-9.7,11.6l-16.7,6.1
					C196.8,213.1,196.3,213.1,195.9,213.1z M143.8,159.2l52.9,45.4l14.5-5.3c1.7-0.6,3-1.9,3.9-3.8l-52.9-43.1L143.8,159.2z"/>
			</g>
		</g>
		<g>
			<g>
				<path class="st1" d="M219.8,198.2c-0.9,0-1.8-0.3-2.5-0.9L160.4,151c-1.1-0.9-1.7-2.3-1.4-3.8s1.2-2.6,2.6-3.1l25.9-9.5
					c9-3.3,18.7,2.6,26.7,16.1c5.1,8.6,8.9,19.4,10.1,28.9c0.8,6,0.6,11.3-0.6,15.6c-0.4,1.3-1.3,2.3-2.6,2.8
					C220.6,198.1,220.2,198.2,219.8,198.2z M170.9,149.2l45.8,37.3c0-1.8-0.1-3.8-0.4-5.8c-1.1-8.5-4.5-18.2-9.1-25.9
					c-4.5-7.5-11.3-14.8-17.1-12.6L170.9,149.2z"/>
			</g>
		</g>
		<g class="st8">
			<g>
				<path class="st1" d="M104.4,184.2l-5.9,5.7c1.2,12.6,5.6,23.6,12.9,33.2l9.1-5.8L104.4,184.2z"/>
			</g>
		</g>
		<g class="st8">
			<g>
				<path class="st1" d="M224.6,184.5l6-5.6c-1-12.7-5.3-23.7-12.4-33.4l-9.2,5.7L224.6,184.5z"/>
			</g>
		</g>
	</g>
	<g>
		<g>
			<path class="st1" d="M76.1,133L76.1,133c-2.2,0-4-1.8-4-4s1.8-4,4-4s4,1.8,4,4S78.3,133,76.1,133z"/>
		</g>
	</g>
	<g>
		<g>
			<g>
				<path class="st4" d="M38.6,195.6c-2.1,12.5-19.1,9.7-17-2.8c-7.3,7.5-21.5-6.3-14.2-13.8L22,163.3c8.8,3.4,19.3,5,28.5,4.2
					l5.8,18C61.7,195.1,44.1,205.1,38.6,195.6z"/>
			</g>
		</g>
		<g>
			<g>
				<path class="st1" d="M30,207.6c-0.7,0-1.4-0.1-2.1-0.2c-4.4-0.7-8.5-3.8-9.9-8.6c-1.1,0.1-2.2,0.1-3.3-0.1c-3-0.5-6-2-8.4-4.4
					c-2.4-2.4-4.1-5.3-4.6-8.3c-0.7-3.7,0.4-7.2,3-9.9L19,160.6c1.1-1.2,2.8-1.6,4.4-1c8.2,3.2,18.2,4.7,26.7,3.9
					c1.9-0.1,3.6,1,4.2,2.8l5.7,17.6c3.2,6.1,0.5,13.3-6.4,17.3c-4.6,2.6-9.5,2.9-13.3,1.1C37.7,205.9,33.8,207.6,30,207.6z
					 M21.6,188.8c0.6,0,1.2,0.1,1.8,0.4c1.6,0.8,2.4,2.5,2.1,4.2c-0.7,4,1.6,5.8,3.7,6.1c2.1,0.4,4.8-0.7,5.5-4.6
					c0.3-1.7,1.6-3,3.2-3.3c1.7-0.3,3.3,0.5,4.2,1.9c2.1,3.7,7.3,0.8,7.5,0.6c0.2-0.1,5.3-3.1,3.2-6.7c-0.1-0.2-0.2-0.5-0.3-0.8
					l-4.8-15c-8.1,0.3-16.7-1-24.5-3.7l-12.8,13.7c-2.2,2.2,0,5.5,1.5,6.9c1.5,1.4,4.8,3.5,6.9,1.4
					C19.5,189.2,20.5,188.8,21.6,188.8z"/>
			</g>
		</g>
		<g>
			<g>
				<path class="st4" d="M79,47.7l-11.1,15c-8.5-3.5-19.2-5.4-28.6-5.2l-8.7-19.2c-4.5-9.4,13.4-18,17.9-8.5
					c2.1-12.5,19.1-9.7,17,2.8C73.8,25.3,87.3,40.4,79,47.7z"/>
			</g>
		</g>
		<g>
			<g>
				<path class="st1" d="M67.9,66.7c-0.5,0-1-0.1-1.5-0.3c-8-3.2-18.1-5-27-4.9c-1.6,0-3.1-0.9-3.7-2.4L27,39.9
					c-1.7-3.6-1.4-7.7,1-11.2c3.1-4.6,9.1-7.4,14.7-7c1.6,0.1,3,0.5,4.3,1.2c2.9-4.1,7.8-5.7,12.2-5c4.5,0.7,8.6,3.9,10,8.8
					c1.7-0.2,3.5,0,5.3,0.6c5.3,1.8,9.7,6.8,10.8,12.2c0.8,4.1-0.4,8.1-3.3,10.9L71.1,65.1C70.3,66.1,69.1,66.7,67.9,66.7z
					 M41.9,53.5c8.2,0.2,17,1.7,24.6,4.4l9.3-12.5c0.2-0.2,0.4-0.4,0.6-0.6c0.7-0.6,1.5-1.6,1.1-3.6c-0.5-2.6-3-5.4-5.5-6.2
					c-2-0.7-3.1,0.1-3.8,0.7c-1.3,1.1-3.1,1.3-4.6,0.5c-1.5-0.8-2.3-2.5-2-4.2c0.7-4-1.6-5.8-3.7-6.2c-2.1-0.4-4.8,0.7-5.5,4.7
					c-0.3,1.7-1.7,3.1-3.4,3.3c-1.7,0.2-3.4-0.7-4.2-2.2c-0.3-0.7-1-1.7-2.8-1.8c-2.6-0.2-6,1.4-7.5,3.6c-1,1.5-0.7,2.6-0.4,3.3
					L41.9,53.5z"/>
			</g>
		</g>
		<g>
			<g>
				<path class="st4" d="M84.1,80.7l-2.9,17.5L6.9,124.9l4.7-28.2L79.9,70C83.1,73.2,84.7,76.7,84.1,80.7z"/>
			</g>
		</g>
		<g>
			<g>
				<path class="st7" d="M79.9,70L11.5,96.6L16,69.5c1.3-8.1,11.3-11.7,23.3-11.9c9.4-0.2,20,1.7,28.6,5.2
					C72.8,64.7,77,67.1,79.9,70z"/>
			</g>
		</g>
		<g>
			<g>
				<path class="st7" d="M81.2,98.2L76.1,129L7.8,154.2c-3-3.5-4.5-7.5-3.8-11.9l2.9-17.4L81.2,98.2z"/>
			</g>
		</g>
		<g>
			<g>
				<path class="st4" d="M76.1,129l-4,24.5c-1.4,8.7-10.5,13.1-21.6,14c-9.2,0.8-19.7-0.8-28.5-4.2c-5.9-2.3-10.9-5.4-14.2-9.1
					L76.1,129z"/>
			</g>
		</g>
		<g class="st8">
			<g>
				<path class="st1" d="M15.2,163.3l1.6,8.1c11.3,5.8,23,8,35,7.1l0-10.8L15.2,163.3z"/>
			</g>
		</g>
		<g class="st8">
			<g>
				<path class="st1" d="M72.6,61.6l-2.1-8c-11.6-5.2-23.4-6.6-35.3-5l0.6,10.8L72.6,61.6z"/>
			</g>
		</g>
		<g>
			<g>
				<path class="st1" d="M6.9,128.9c-0.9,0-1.8-0.3-2.6-0.9c-1.1-0.9-1.6-2.3-1.4-3.7L7.6,96c0.2-1.4,1.2-2.6,2.5-3.1l68.4-26.6
					c1.5-0.6,3.1-0.2,4.3,0.9c5.4,5.3,5.9,10.6,5.3,14.1l-2.9,17.5c-0.2,1.4-1.2,2.6-2.6,3.1L8.2,128.6
					C7.8,128.8,7.3,128.9,6.9,128.9z M15.1,99.5l-3.2,19.3l65.7-23.6L80.1,80c0,0,0,0,0,0c0.3-1.8-0.2-3.5-1.4-5.2L15.1,99.5z
					 M81.2,98.2L81.2,98.2L81.2,98.2z"/>
			</g>
		</g>
		<g>
			<g>
				<path class="st1" d="M11.5,100.6c-0.9,0-1.8-0.3-2.5-0.9c-1.1-0.9-1.7-2.3-1.4-3.8l4.5-27.2c1.6-9.4,11.5-15,27.2-15.3
					c10-0.2,21.2,1.9,30.2,5.5c5.6,2.3,10.1,5,13.3,8.2c1,1,1.4,2.3,1.1,3.7c-0.3,1.3-1.2,2.4-2.5,2.9L13,100.4
					C12.5,100.5,12,100.6,11.5,100.6z M40.5,61.5c-0.4,0-0.7,0-1.1,0C30.7,61.7,21,64,20,70.1l-3.3,20.3l55.1-21.4
					c-1.6-0.9-3.4-1.7-5.3-2.5C58.8,63.3,49.2,61.5,40.5,61.5z"/>
			</g>
		</g>
		<g>
			<g>
				<path class="st1" d="M7.8,158.2c-1.1,0-2.2-0.5-3-1.4c-4-4.6-5.6-9.8-4.7-15.2l2.9-17.4c0.2-1.4,1.2-2.6,2.6-3.1l74.3-26.7
					c1.3-0.5,2.8-0.2,3.9,0.7c1.1,0.9,1.6,2.3,1.4,3.7L80,129.7c-0.2,1.4-1.2,2.6-2.6,3.1L9.2,158C8.7,158.1,8.2,158.2,7.8,158.2z
					 M10.4,127.8l-2.5,15.1c-0.4,2.3,0,4.4,1.3,6.5l63.3-23.3l3.6-21.8L10.4,127.8z"/>
			</g>
		</g>
		<g>
			<g>
				<path class="st1" d="M45.6,171.7c-8.4,0-17.3-1.6-25.1-4.7c-6.8-2.6-12.2-6.2-15.7-10.2c-0.9-1-1.2-2.3-0.9-3.6s1.3-2.3,2.5-2.8
					l68.3-25.2c1.3-0.5,2.8-0.2,3.9,0.7c1.1,0.9,1.6,2.3,1.4,3.7l-4,24.5c-1.6,9.8-10.8,16.1-25.2,17.4
					C49.1,171.7,47.3,171.7,45.6,171.7z M15.5,155.6c2.2,1.5,4.9,2.8,7.9,4c8.2,3.2,18.2,4.7,26.7,3.9c4.9-0.4,16.6-2.3,18-10.7
					l2.9-17.7L15.5,155.6z"/>
			</g>
		</g>
		<g>
			<g>
				<path class="st1" d="M6.9,128.9L6.9,128.9c-2.2,0-4-1.8-4-4s1.8-4,4-4s4,1.8,4,4S9.1,128.9,6.9,128.9z"/>
			</g>
		</g>
	</g>
</g>
</svg>
