<?xml version="1.0" encoding="utf-8"?>
<!-- Generator: Adobe Illustrator 22.1.0, SVG Export Plug-In . SVG Version: 6.00 Build 0)  -->
<svg version="1.1" id="Layer_1" xmlns="http://www.w3.org/2000/svg" xmlns:xlink="http://www.w3.org/1999/xlink" x="0px" y="0px"
	 viewBox="0 0 256 256" style="enable-background:new 0 0 256 256;" xml:space="preserve">
<style type="text/css">
	.st0{fill:#F5B31F;}
	.st1{fill:#464646;}
	.st2{opacity:0.15;}
	.st3{fill:#AC6535;}
	.st4{fill:#EB573B;}
	.st5{fill:#90C056;}
	.st6{opacity:0.35;}
	.st7{fill:#FFFFFF;}
	.st8{opacity:0.2;}
	.st9{fill:#F6D67A;}
	.st10{opacity:0.3;}
	.st11{fill:#FFA755;}
	.st12{fill:#8FAE3C;}
	.st13{fill:#BE6BB2;}
	.st14{fill:#B7C536;}
	.st15{opacity:0.1;}
	.st16{fill:#9D5A96;}
	.st17{fill:#EA615D;}
	.st18{opacity:0.4;}
	.st19{fill:#F79932;}
	.st20{fill:#FFEC97;}
	.st21{fill:#FFD11D;}
	.st22{fill:#F7F2D5;}
	.st23{fill:#F6AF72;}
	.st24{fill:#BA6C45;}
	.st25{opacity:0.5;}
	.st26{fill:#E4C074;}
	.st27{fill:#656566;}
	.st28{fill:#FACD1F;}
	.st29{fill:#FFDF66;}
	.st30{fill:#6D6E71;}
	.st31{fill:#E77CAE;}
	.st32{fill:#FFE5C4;}
	.st33{fill:#F68455;}
	.st34{opacity:0.7;}
	.st35{fill:#ADEDFF;}
	.st36{fill:#EC754B;}
	.st37{fill:#4AA5BA;}
	.st38{opacity:0.8;}
	.st39{fill:#92A5AC;}
	.st40{fill:#D06E3C;}
	.st41{fill:#DA4F4B;}
	.st42{fill:#BDF3FF;}
	.st43{fill:#F18BB4;}
	.st44{fill:#F9D97A;}
	.st45{fill:none;}
	.st46{fill:#AF6535;}
	.st47{fill:#B93226;}
	.st48{fill:#FF6050;}
	.st49{fill:#EA7CB1;}
	.st50{fill:#00B0E0;}
	.st51{fill:#EA7DAE;}
	.st52{fill:#BC7532;}
	.st53{fill:#876C6C;}
	.st54{fill:#F9F6CD;}
	.st55{fill:#FFE37B;}
	.st56{fill:#1DDCFF;}
	.st57{fill:#60ACF7;}
	.st58{fill:#C3755A;}
	.st59{fill:#96557A;}
	.st60{fill:#66625D;}
	.st61{fill:#D68032;}
	.st62{fill:#F2A355;}
	.st63{fill:#7E9E6A;}
	.st64{fill:#965A85;}
	.st65{fill:#90CAD3;}
	.st66{fill:#94B57F;}
	.st67{fill:#B2E2E7;}
	.st68{fill:#FFDF8F;}
	.st69{fill:#FFFAEB;}
	.st70{fill:#F88916;}
	.st71{fill:#FFC86E;}
	.st72{fill:#AFA51D;}
	.st73{fill:#968A1C;}
	.st74{fill:#C3556D;}
</style>
<g>
	<g>
		<g>
			<polygon class="st44" points="163.1,157.6 156.2,206.8 101.3,206.8 95.3,164.4 94.4,157.6 			"/>
		</g>
	</g>
	<g>
		<g>
			<polygon class="st44" points="156.2,206.8 149.7,252.1 107.8,252.1 101.3,206.8 			"/>
		</g>
	</g>
	<g>
		<g>
			<line class="st45" x1="112.5" y1="178.7" x2="121" y2="187.2"/>
		</g>
	</g>
	<g>
		<g>
			<line class="st45" x1="136" y1="178.7" x2="144.4" y2="187.2"/>
		</g>
	</g>
	<g>
		<g>
			<path class="st1" d="M156.2,210.8L156.2,210.8l-54.8,0c-2,0-3.7-1.5-4-3.4l-7-49.1c-0.2-1.1,0.2-2.3,0.9-3.2s1.9-1.4,3-1.4l0,0
				l68.8,0c1.2,0,2.3,0.5,3,1.4s1.1,2,0.9,3.2l-7,49.1C159.8,209.3,158.2,210.8,156.2,210.8z M104.8,202.8l47.9,0l5.8-41.1l-59.5,0
				L104.8,202.8z"/>
		</g>
	</g>
	<g>
		<g>
			<path class="st1" d="M149.7,256.1L149.7,256.1l-42,0c-2,0-3.7-1.5-4-3.4l-6.4-45.4c-0.2-1.1,0.2-2.3,0.9-3.2
				c0.8-0.9,1.9-1.4,3-1.4l0,0l54.8,0c1.2,0,2.3,0.5,3,1.4s1.1,2,0.9,3.2l-6.4,45.4C153.4,254.7,151.7,256.1,149.7,256.1z
				 M111.2,248.1l35,0l5.3-37.4l-45.6,0L111.2,248.1z"/>
		</g>
	</g>
	<g>
		<g>
			<path class="st1" d="M121,191.2c-1,0-2.1-0.4-2.8-1.2l-8.5-8.5c-1.6-1.6-1.6-4.1,0-5.7c1.6-1.6,4.1-1.6,5.7,0l8.5,8.5
				c1.6,1.6,1.6,4.1,0,5.7C123,190.8,122,191.2,121,191.2z"/>
		</g>
	</g>
	<g>
		<g>
			<path class="st1" d="M144.4,191.2c-1,0-2.1-0.4-2.8-1.2l-8.5-8.5c-1.6-1.6-1.6-4.1,0-5.7c1.6-1.6,4.1-1.6,5.7,0l8.5,8.5
				c1.6,1.6,1.6,4.1,0,5.7C146.5,190.8,145.4,191.2,144.4,191.2z"/>
		</g>
	</g>
	<g>
		<g>
			<path class="st7" d="M182.2,113c0,11-6.3,20.5-15.5,25.1l-77.8,0c-9.2-4.6-15.5-14.1-15.5-25.1c0-4.7,1.1-9.1,3.2-13
				c0.2,0.5,4.6,10.7,24.3,12.2c20.2,1.5,20.1-10.3,35.3-6.1c15.2,4.2,44.3-2.6,44.3-2.6C181.6,106.4,182.2,109.6,182.2,113z"/>
		</g>
	</g>
	<g>
		<g>
			<path class="st1" d="M166.7,142.1L166.7,142.1l-77.8,0c-0.6,0-1.2-0.1-1.8-0.4c-10.9-5.5-17.7-16.5-17.7-28.7
				c0-5.3,1.2-10.3,3.6-14.9c0.7-1.4,2.2-2.2,3.7-2.1c1.6,0.1,2.9,1,3.5,2.5c0.1,0.3,3.8,8.5,20.9,9.7c8.9,0.7,13.2-1.5,17.4-3.6
				c4.7-2.4,9.6-4.9,18.7-2.3c14,3.9,42-2.6,42.3-2.7c2-0.5,4,0.6,4.7,2.5c1.3,3.5,1.9,7.2,1.9,10.9l0,0c0,12.2-6.8,23.2-17.7,28.7
				C167.9,142,167.3,142.1,166.7,142.1z M89.9,134.1l75.8,0c7.7-4.2,12.5-12.3,12.5-21.1c0-1.6-0.2-3.3-0.5-4.9
				c-8.6,1.7-29.7,5.3-42.5,1.8c-6.1-1.7-8.7-0.4-12.9,1.8c-4.6,2.4-10.4,5.3-21.6,4.5C89,115.3,82,111.5,78,108
				c-0.3,1.6-0.5,3.3-0.5,5C77.4,121.9,82.2,129.9,89.9,134.1z M182.2,113L182.2,113L182.2,113z"/>
		</g>
	</g>
	<g>
		<g>
			<rect x="83.3" y="138.1" class="st44" width="88" height="19.5"/>
		</g>
	</g>
	<g class="st10">
		<g>
			<path class="st7" d="M171.2,138.1l-88,0l0,19.5c0,0,3.3-6,16.3-11.1S171.2,138.1,171.2,138.1z"/>
		</g>
	</g>
	<g class="st2">
		<g>
			<path class="st1" d="M163.1,157.6l-7,49.1l-6.4,45.4l-9.5,0l-17.5,0c0,0,17.9-2.6,19.4-12.9s4.7-32.5,4.7-32.5l5.5-39.8L95,167
				l0-9.7l64.5,0l0,0.3L163.1,157.6z"/>
		</g>
	</g>
	<g class="st2">
		<g>
			<path class="st1" d="M164.5,95.6c7.4,2.9,13.3,9,16,16.6c0,0-29.1,6.8-44.3,2.6c-15.2-4.2-15.1,7.6-35.3,6.1
				c-24.3-2-24.1-11.7-24.3-12.2c0,0,0,0,0,0c3-5.8,8-10.4,14-12.9"/>
		</g>
	</g>
	<g>
		<g>
			<path class="st46" d="M180.5,103.4c0,0-29.1,6.8-44.3,2.6c-15.2-4.2-15.1,7.6-35.3,6.1c-19.7-1.5-24.1-11.7-24.3-12.2
				c0,0,0,0,0,0c3-5.8,8-10.4,14-12.9c-3.5-4.7-5.6-10.5-5.6-16.9c0-15.5,12.6-28.1,28.1-28.1c16.5-9.8,14.7-24.1-9.4-23
				c0,0,15.2-22.8,35.9-12.1s7,35.5,7,35.5c13.2,2.3,23.3,13.8,23.3,27.7c0,6.2-2,12-5.5,16.7C171.9,89.8,177.8,95.9,180.5,103.4z"
				/>
		</g>
	</g>
	<g class="st2">
		<g>
			<path class="st1" d="M103.8,19.1c0,0,15.2-22.8,35.9-12.1s7,35.5,7,35.5c13.2,2.3,23.3,13.8,23.3,27.7c0,6.2-2,12-5.5,16.7
				c7.4,2.9,13.3,9,16,16.6c0,0-15,3.5-29.1,4c0,0,11.3-2.1,12.8-7.4s-9.1-7.2-10-12s4.7-18.2,1.1-24.5c-3.6-6.2-15-9.4-17.6-17
				s8.4-21.1-0.7-30C127.8,7.5,103.8,19.1,103.8,19.1z"/>
		</g>
	</g>
	<g>
		<g>
			<path class="st1" d="M171.2,161.6L171.2,161.6l-88,0c-2.2,0-4-1.8-4-4l0-19.5c0-1.1,0.4-2.1,1.2-2.8c0.8-0.8,1.8-1.2,2.8-1.2l0,0
				l88,0c2.2,0,4,1.8,4,4l0,19.5c0,1.1-0.4,2.1-1.2,2.8C173.3,161.2,172.3,161.6,171.2,161.6z M87.3,153.6l80,0l0-11.5l-80,0
				L87.3,153.6z"/>
		</g>
	</g>
	<g>
		<g>
			<path class="st1" d="M104.4,116.3c-1.2,0-2.4,0-3.7-0.1c-21.7-1.6-27.2-13.3-27.7-14.6c-0.2-0.5-0.3-1-0.3-1.5
				c0-0.6,0.2-1.3,0.5-1.9c2.7-5.2,6.8-9.6,11.8-12.6c-2.5-4.7-3.9-9.9-3.9-15.3c0-8.6,3.3-16.6,9.4-22.7c5.8-5.8,13.4-9.1,21.5-9.4
				c6.3-4,8.5-8.2,7.8-10.5c-0.8-2.6-6-5-15.9-4.5c-1.5,0.1-2.9-0.7-3.7-2c-0.7-1.3-0.7-2.9,0.2-4.2c5.9-8.9,22.1-23.2,41.1-13.4
				c6.4,3.3,10.7,8.2,12.5,14.4c2.5,8.2,0.2,16.9-1.8,22c12.8,4.3,21.7,16.4,21.7,30.4c0,5.3-1.3,10.4-3.7,15
				c6.5,3.8,11.5,9.7,14,16.8c0.4,1.1,0.3,2.3-0.2,3.3c-0.5,1-1.5,1.7-2.6,2c-1.2,0.3-30.3,7-46.3,2.6c-6.1-1.7-8.7-0.4-12.9,1.8
				C118.1,113.8,113.2,116.3,104.4,116.3z M81.3,99.9c1.9,2.5,7.2,7.3,20,8.2c8.9,0.7,13.2-1.5,17.4-3.6c4.7-2.4,9.6-4.9,18.7-2.3
				c10.5,2.9,28.8,0,37.4-1.7c-2.7-4.5-6.8-8-11.7-10c-1.2-0.5-2-1.4-2.4-2.6c-0.3-1.2-0.1-2.5,0.6-3.5c3.1-4.2,4.7-9.1,4.7-14.3
				c0-11.8-8.4-21.8-20-23.8c-1.3-0.2-2.4-1-2.9-2.2c-0.6-1.2-0.5-2.5,0.1-3.7c0.1-0.1,6-11.2,3.2-20.5c-1.3-4.1-4.1-7.2-8.5-9.6
				c-7.2-3.7-14.5-3.1-21.7,1.8c-1.4,1-2.7,2.1-3.9,3.1c6.3,0.8,13.2,3.3,15.2,9.9c2,6.7-2.7,14.5-12.3,20.2c-0.6,0.4-1.3,0.6-2,0.6
				l0,0c0,0,0,0,0,0c-6.4,0-12.5,2.5-17,7.1c-4.5,4.6-7,10.6-7,17.1c0,5.3,1.7,10.3,4.8,14.5c0.7,1,1,2.3,0.7,3.4
				c-0.3,1.2-1.2,2.2-2.3,2.6C87.7,92.6,83.9,95.9,81.3,99.9z"/>
		</g>
	</g>
</g>
</svg>
