<?xml version="1.0" encoding="utf-8"?>
<!-- Generator: Adobe Illustrator 22.1.0, SVG Export Plug-In . SVG Version: 6.00 Build 0)  -->
<svg version="1.1" id="Layer_1" xmlns="http://www.w3.org/2000/svg" xmlns:xlink="http://www.w3.org/1999/xlink" x="0px" y="0px"
	 viewBox="0 0 256 256" style="enable-background:new 0 0 256 256;" xml:space="preserve">
<style type="text/css">
	.st0{fill:#F5B31F;}
	.st1{fill:#464646;}
	.st2{opacity:0.15;}
	.st3{fill:#AC6535;}
	.st4{fill:#EB573B;}
	.st5{fill:#90C056;}
	.st6{opacity:0.35;}
	.st7{fill:#FFFFFF;}
	.st8{opacity:0.2;}
	.st9{fill:#F6D67A;}
	.st10{opacity:0.3;}
	.st11{fill:#FFA755;}
	.st12{fill:#8FAE3C;}
	.st13{fill:#BE6BB2;}
	.st14{fill:#B7C536;}
	.st15{opacity:0.1;}
	.st16{fill:#9D5A96;}
	.st17{fill:#EA615D;}
	.st18{opacity:0.4;}
	.st19{fill:#F79932;}
	.st20{fill:#FFEC97;}
	.st21{fill:#FFD11D;}
	.st22{fill:#F7F2D5;}
	.st23{fill:#F6AF72;}
	.st24{fill:#BA6C45;}
	.st25{opacity:0.5;}
	.st26{fill:#E4C074;}
	.st27{fill:#656566;}
	.st28{fill:#FACD1F;}
	.st29{fill:#FFDF66;}
	.st30{fill:#6D6E71;}
	.st31{fill:#E77CAE;}
	.st32{fill:#FFE5C4;}
	.st33{fill:#F68455;}
	.st34{opacity:0.7;}
	.st35{fill:#ADEDFF;}
	.st36{fill:#EC754B;}
	.st37{fill:#4AA5BA;}
	.st38{opacity:0.8;}
	.st39{fill:#92A5AC;}
	.st40{fill:#D06E3C;}
	.st41{fill:#DA4F4B;}
	.st42{fill:#BDF3FF;}
	.st43{fill:#F18BB4;}
	.st44{fill:#F9D97A;}
	.st45{fill:none;}
	.st46{fill:#AF6535;}
	.st47{fill:#B93226;}
	.st48{fill:#FF6050;}
	.st49{fill:#EA7CB1;}
	.st50{fill:#00B0E0;}
	.st51{fill:#EA7DAE;}
	.st52{fill:#BC7532;}
	.st53{fill:#876C6C;}
	.st54{fill:#F9F6CD;}
	.st55{fill:#FFE37B;}
	.st56{fill:#1DDCFF;}
	.st57{fill:#60ACF7;}
	.st58{fill:#C3755A;}
	.st59{fill:#96557A;}
	.st60{fill:#66625D;}
	.st61{fill:#D68032;}
	.st62{fill:#F2A355;}
	.st63{fill:#7E9E6A;}
	.st64{fill:#965A85;}
	.st65{fill:#90CAD3;}
	.st66{fill:#94B57F;}
	.st67{fill:#B2E2E7;}
	.st68{fill:#FFDF8F;}
	.st69{fill:#FFFAEB;}
	.st70{fill:#F88916;}
	.st71{fill:#FFC86E;}
	.st72{fill:#AFA51D;}
	.st73{fill:#968A1C;}
	.st74{fill:#C3556D;}
</style>
<g>
	<g>
		<g>
			<path class="st54" d="M252,131.7c0,0-15.5,84.5-51.8,84.5l-144.4,0C19.5,216.2,4,131.7,4,131.7L252,131.7z"/>
		</g>
	</g>
	<g class="st2">
		<g>
			<path class="st1" d="M239,131.7l13.1,0c0,0-15.5,84.5-51.8,84.5l-144.4,0c0,0,132.8-0.8,152.5-15.3S239,131.7,239,131.7z"/>
		</g>
	</g>
	<g>
		<g>
			<path class="st54" d="M103.3,92.9c-0.9,2.9-1.7,5.8-2.4,8.7c-3.9,15.7-5.5,30.1-5.5,30.1l-25.2,0c0,0,3.3-16.6,11.6-33.5
				c1.4-2.8,2.9-5.6,4.5-8.3L103.3,92.9z"/>
		</g>
	</g>
	<g>
		<g>
			<path class="st54" d="M181.7,131.7l-25.2,0c0,0-1-9.2-3.4-20.8c-0.6-3-1.3-6.2-2.1-9.5l22.4,4c1.4,3.4,2.6,6.7,3.7,9.8
				C180.4,124.7,181.7,131.7,181.7,131.7z"/>
		</g>
	</g>
	<g>
		<g>
			<path class="st54" d="M126,97l0,34.7l-30.6,0c0,0,2.2-20.2,7.9-38.8L126,97z"/>
		</g>
	</g>
	<g>
		<g>
			<path class="st54" d="M156.5,131.7l-30.6,0l0-34.7l25.1,4.5C155,117.2,156.5,131.7,156.5,131.7z"/>
		</g>
	</g>
	<g class="st2">
		<g>
			<path class="st1" d="M184.8,107.5l-11.3-2c1.4,3.4,2.6,6.7,3.7,9.8l-3.7-0.7l-20.3-3.6l-2.1-0.4l-25.1-4.5l-22.7-4.1l-2.4-0.4
				L86.3,99l-4.5-0.8c1.4-2.8,2.9-5.6,4.5-8.3l-12.8-2.3C92.2,28.1,181.4,41.5,185.7,100C185.5,102.4,185.2,104.9,184.8,107.5z"/>
		</g>
	</g>
	<g>
		<g>
			<path class="st19" d="M185.7,100c-0.2,2.4-0.5,4.9-0.9,7.5l-11.3-2l-22.4-4L126,97l-22.7-4.1l-16.9-3l-12.8-2.3l-2.1-0.4
				C84.4,14.6,190.6,31,185.7,100z"/>
		</g>
	</g>
	<g class="st8">
		<g>
			<path class="st7" d="M147.8,43.5C117.5,33,78.9,45.3,71.4,87.2l2.1,0.4l12.8,2.3c0,0,0.9-20.5,15.1-31.1S147.8,43.5,147.8,43.5z"
				/>
		</g>
	</g>
	<g>
		<g>
			<path class="st1" d="M200.3,220.2C200.2,220.2,200.3,220.2,200.3,220.2l-144.4,0c-39.2,0-55.1-84.2-55.7-87.8
				c-0.2-1.2,0.1-2.4,0.9-3.3c0.8-0.9,1.9-1.4,3.1-1.4l0,0l248,0c1.2,0,2.3,0.5,3.1,1.4s1.1,2.1,0.9,3.3
				C255.3,136,239.4,220.2,200.3,220.2z M8.9,135.7c5.4,25.1,21.6,76.5,46.9,76.5l144.4,0c25.3,0,41.5-51.4,46.9-76.5L8.9,135.7z"/>
		</g>
	</g>
	<g>
		<g>
			<g>
				<path class="st1" d="M95.4,135.7L95.4,135.7l-25.2,0c-1.2,0-2.3-0.5-3.1-1.5c-0.8-0.9-1.1-2.1-0.8-3.3c0.1-0.7,3.5-17.3,12-34.5
					c1.5-3,3.1-5.9,4.7-8.6c0.9-1.4,2.5-2.2,4.1-1.9l16.9,3c1.1,0.2,2.1,0.9,2.7,1.9s0.7,2.2,0.4,3.3c-0.8,2.6-1.6,5.4-2.3,8.5
					c-3.8,15.2-5.4,29.5-5.4,29.6C99.2,134.2,97.4,135.7,95.4,135.7z M75.3,127.7l16.6,0c0.7-5.3,2.3-15.8,5.1-27.1
					c0.4-1.6,0.8-3.1,1.2-4.5l-9.8-1.8c-1,1.8-2,3.7-3,5.6C80,110.8,76.8,121.7,75.3,127.7z"/>
			</g>
		</g>
		<g>
			<g>
				<path class="st1" d="M181.7,135.7L181.7,135.7l-25.2,0c-2,0-3.8-1.5-4-3.6c0-0.1-1-9.1-3.3-20.4c-0.7-3.4-1.4-6.4-2.1-9.3
					c-0.3-1.3,0-2.7,1-3.7s2.3-1.4,3.6-1.2l22.4,4c1.3,0.2,2.5,1.1,3,2.4c1.3,3.2,2.6,6.5,3.8,10c3.3,9.7,4.7,16.7,4.8,17
					c0.2,1.2-0.1,2.4-0.8,3.3C184.1,135.2,182.9,135.7,181.7,135.7z M160.1,127.7l16.6,0c-0.7-2.8-1.8-6.7-3.4-11.2
					c-0.9-2.6-1.8-5.1-2.8-7.5l-14.3-2.6c0.3,1.2,0.5,2.4,0.8,3.7C158.6,117.6,159.6,124,160.1,127.7z"/>
			</g>
		</g>
		<g>
			<g>
				<path class="st1" d="M126,135.7L126,135.7l-30.6,0c-1.1,0-2.2-0.5-3-1.3s-1.1-2-1-3.1c0.1-0.8,2.3-20.8,8-39.5
					c0.6-1.9,2.5-3.1,4.5-2.8l22.7,4.1c1.9,0.3,3.3,2,3.3,3.9l0,34.7c0,1.1-0.4,2.1-1.2,2.8S127,135.7,126,135.7z M100,127.7l22,0
					l0-27.4l-15.9-2.8C102.8,109.3,100.8,121.4,100,127.7z"/>
			</g>
		</g>
		<g>
			<g>
				<path class="st1" d="M156.5,135.7L156.5,135.7l-30.6,0c-2.2,0-4-1.8-4-4l0-34.7c0-1.2,0.5-2.3,1.4-3.1c0.9-0.8,2.1-1.1,3.3-0.9
					l25.1,4.5c1.6,0.3,2.8,1.4,3.2,3c4,15.8,5.5,30.2,5.6,30.8c0.1,1.1-0.2,2.3-1,3.1S157.7,135.7,156.5,135.7z M130,127.7l22,0
					c-0.7-5-2.1-13.6-4.2-22.8l-17.8-3.2L130,127.7z"/>
			</g>
		</g>
		<g>
			<g>
				<path class="st1" d="M184.8,111.5c-0.2,0-0.5,0-0.7-0.1L70.7,91.1c-1-0.2-2-0.8-2.6-1.6c-0.6-0.9-0.8-1.9-0.7-3
					c3.2-17.9,12-32,25.6-40.8c12-7.8,27-11.1,42.3-9.2c15.3,1.9,29.3,8.8,39.2,19.3c11.2,11.8,16.4,27.2,15.2,44.5
					c-0.2,2.5-0.5,5.2-1,7.9c-0.2,1-0.8,2-1.7,2.6C186.4,111.2,185.6,111.5,184.8,111.5z M76.1,84l105.3,18.8
					c0.1-1.1,0.2-2.1,0.3-3.1c0,0,0,0,0,0c1.7-23.6-12.4-50.9-47.4-55.3C110.3,41.4,83.6,52.6,76.1,84z"/>
			</g>
		</g>
	</g>
</g>
</svg>
