<?xml version="1.0" encoding="utf-8"?>
<!-- Generator: Adobe Illustrator 22.1.0, SVG Export Plug-In . SVG Version: 6.00 Build 0)  -->
<svg version="1.1" id="Layer_1" xmlns="http://www.w3.org/2000/svg" xmlns:xlink="http://www.w3.org/1999/xlink" x="0px" y="0px"
	 viewBox="0 0 256 256" style="enable-background:new 0 0 256 256;" xml:space="preserve">
<style type="text/css">
	.st0{fill:#F5B31F;}
	.st1{fill:#464646;}
	.st2{opacity:0.15;}
	.st3{fill:#AC6535;}
	.st4{fill:#EB573B;}
	.st5{fill:#90C056;}
	.st6{opacity:0.35;}
	.st7{fill:#FFFFFF;}
	.st8{opacity:0.2;}
	.st9{fill:#F6D67A;}
	.st10{opacity:0.3;}
	.st11{fill:#FFA755;}
	.st12{fill:#8FAE3C;}
	.st13{fill:#BE6BB2;}
	.st14{fill:#B7C536;}
	.st15{opacity:0.1;}
	.st16{fill:#9D5A96;}
	.st17{fill:#EA615D;}
	.st18{opacity:0.4;}
	.st19{fill:#F79932;}
	.st20{fill:#FFEC97;}
	.st21{fill:#FFD11D;}
	.st22{fill:#F7F2D5;}
	.st23{fill:#F6AF72;}
	.st24{fill:#BA6C45;}
	.st25{opacity:0.5;}
	.st26{fill:#E4C074;}
	.st27{fill:#656566;}
	.st28{fill:#FACD1F;}
	.st29{fill:#FFDF66;}
	.st30{fill:#6D6E71;}
	.st31{fill:#E77CAE;}
	.st32{fill:#FFE5C4;}
	.st33{fill:#F68455;}
	.st34{opacity:0.7;}
	.st35{fill:#ADEDFF;}
	.st36{fill:#EC754B;}
	.st37{fill:#4AA5BA;}
	.st38{opacity:0.8;}
	.st39{fill:#92A5AC;}
	.st40{fill:#D06E3C;}
	.st41{fill:#DA4F4B;}
	.st42{fill:#BDF3FF;}
	.st43{fill:#F18BB4;}
	.st44{fill:#F9D97A;}
	.st45{fill:none;}
	.st46{fill:#AF6535;}
	.st47{fill:#B93226;}
	.st48{fill:#FF6050;}
	.st49{fill:#EA7CB1;}
	.st50{fill:#00B0E0;}
	.st51{fill:#EA7DAE;}
	.st52{fill:#BC7532;}
	.st53{fill:#876C6C;}
	.st54{fill:#F9F6CD;}
	.st55{fill:#FFE37B;}
	.st56{fill:#1DDCFF;}
	.st57{fill:#60ACF7;}
	.st58{fill:#C3755A;}
	.st59{fill:#96557A;}
	.st60{fill:#66625D;}
	.st61{fill:#D68032;}
	.st62{fill:#F2A355;}
	.st63{fill:#7E9E6A;}
	.st64{fill:#965A85;}
	.st65{fill:#90CAD3;}
	.st66{fill:#94B57F;}
	.st67{fill:#B2E2E7;}
	.st68{fill:#FFDF8F;}
	.st69{fill:#FFFAEB;}
	.st70{fill:#F88916;}
	.st71{fill:#FFC86E;}
	.st72{fill:#AFA51D;}
	.st73{fill:#968A1C;}
	.st74{fill:#C3556D;}
</style>
<g>
	<g>
		<g>
			<path class="st7" d="M147,63.1l-37.7,0c3-8.9,5.2-16.1,5.2-20.6c0-14.2,0-24.5,0-24.5l27.4,0c0,0,0,10.4,0,24.5
				C141.9,47,144,54.2,147,63.1z"/>
		</g>
	</g>
	<g>
		<g>
			<path class="st53" d="M157.3,94c-13.7,2.7-44.5,2.7-58.2,0c3.3-11.1,7.2-21.9,10.2-30.9l37.7,0C150.1,72.2,154,82.9,157.3,94z"/>
		</g>
	</g>
	<g class="st15">
		<g>
			<path d="M147.1,95.4c3.9-0.3,7.4-0.8,10.1-1.3c-3.3-11.1-7.2-21.9-10.2-30.9l-8.8,0C141.6,74.2,145,84.9,147.1,95.4z"/>
		</g>
	</g>
	<g>
		<g>
			<path class="st4" d="M164,131.9c0,1.1,0,2.1,0,3.1v0c-0.3,7-70,7.1-71.7,0.2c0,0,0,0,0,0c0-1.1,0-2.2,0-3.4
				c0-11.8,3-25.1,6.8-37.8c13.7,2.7,44.5,2.7,58.2,0C161,106.8,164,120.1,164,131.9z"/>
		</g>
	</g>
	<g class="st15">
		<g>
			<path d="M151.7,139.2c7.3-0.9,12.3-2.3,12.4-4.1v0c0-1,0-2.1,0-3.1c0-11.8-3-25.1-6.8-37.8c-2.8,0.6-6.3,1-10.2,1.3
				C150,109.9,151.5,124.5,151.7,139.2z"/>
		</g>
	</g>
	<g>
		<g>
			<path class="st53" d="M164,233.1c0,15.1-0.7,18.9-4.6,18.9s-31.3,0-31.3,0s-27.4,0-31.3,0c-3.9,0-4.6-3.8-4.6-18.9
				c0-15.1,5.2-27.1,5.2-37.7c0-10.2-4.9-30-5.2-60.1c1.7,6.9,71.4,6.8,71.7-0.2c-0.3,30.3-5.2,50.1-5.2,60.3
				C158.8,206,164,218,164,233.1z"/>
		</g>
	</g>
	<g class="st15">
		<g>
			<path d="M149.7,252c4.6,0,8.5,0,9.8,0c3.9,0,4.6-3.8,4.6-18.9s-5.2-27.1-5.2-37.7c0-10.3,4.9-30.1,5.2-60.3
				c-0.1,1.9-5.1,3.2-12.4,4.1c0,0,0.6,5.7-0.5,16.8c-1.2,11.3-4.1,28.1-4.1,41c0,11.7,3,24.8,3.6,34.9
				C151.4,243.8,149.7,252,149.7,252z"/>
		</g>
	</g>
	<g class="st10">
		<g>
			<path class="st7" d="M109.2,95.4c-3.9-0.3-7.4-0.8-10.1-1.3c3.3-11.1,7.2-21.9,10.2-30.9l8.8,0C114.8,74.2,111.4,84.9,109.2,95.4
				z"/>
		</g>
	</g>
	<g class="st10">
		<g>
			<path class="st7" d="M104.7,139.2c-7.3-0.9-12.3-2.3-12.4-4.1l0,0c0-1,0-2.1,0-3.1c0-11.8,3-25.1,6.8-37.8
				c2.8,0.6,6.3,1,10.2,1.3C106.4,109.9,104.8,124.5,104.7,139.2z"/>
		</g>
	</g>
	<g class="st10">
		<g>
			<path class="st7" d="M136,252c-4.6,0-37.8,0-39.1,0c-3.9,0-4.6-3.8-4.6-18.9c0-15.1,5.2-27.1,5.2-37.7c0-10.3-4.9-30.1-5.2-60.3
				c0.1,1.9,5.1,3.2,12.4,4.1c0,0-0.6,5.7,0.5,16.8c1.2,11.3,4.1,28.1,4.1,41c0,11.7-3,24.8-3.6,34.9C103.5,254.3,136,252,136,252z"
				/>
		</g>
	</g>
	<g>
		<g>
			<polygon class="st4" points="146.8,18 109.3,18 113.4,4 142.7,4 			"/>
		</g>
	</g>
	<g class="st15">
		<g>
			<path d="M147,63.1l-10.1,0c0,0-4.1-11.3-4.1-17.9c0-4.2,0.3-14.2,0.5-20.8l-17.9,0l-1.9-7l29.3,0l-0.9,1.7l0,23.4
				C141.9,47,144,54.2,147,63.1z"/>
		</g>
	</g>
	<g>
		<g>
			<path class="st53" d="M92.3,135.2c0-0.1,0-0.2,0-0.2"/>
		</g>
	</g>
	<g>
		<g>
			<path class="st1" d="M128.2,100.1c-11.4,0-22.8-0.7-29.9-2.1c-1.1-0.2-2.1-0.9-2.6-1.9s-0.7-2.1-0.4-3.2
				c2.4-8.2,5.2-16.4,7.7-23.5c0.9-2.6,1.8-5.1,2.6-7.5c0.5-1.6,2.1-2.7,3.8-2.7c0,0,0,0,0,0l37.7,0c1.7,0,3.2,1.1,3.8,2.7
				c0.8,2.4,1.7,4.9,2.6,7.6c2.5,7.2,5.3,15.3,7.7,23.5c0.3,1.1,0.2,2.2-0.4,3.2c-0.6,1-1.5,1.6-2.6,1.9
				C150.9,99.4,139.6,100.1,128.2,100.1z M104.2,90.8c13,1.7,34.8,1.7,47.8,0c-2.1-6.6-4.3-13-6.3-18.8c-0.6-1.7-1.1-3.3-1.7-4.9
				l-32,0c-0.5,1.6-1.1,3.2-1.7,4.9C108.5,77.8,106.3,84.2,104.2,90.8z"/>
		</g>
	</g>
	<g>
		<g>
			<path class="st1" d="M147,67.1C147,67.1,147,67.1,147,67.1l-37.7,0c-1.3,0-2.5-0.6-3.2-1.7s-1-2.4-0.5-3.6
				c2.6-7.6,4.9-15.3,4.9-19.3l0-24.5c0-2.2,1.8-4,4-4l0,0l27.4,0c1.1,0,2.1,0.4,2.8,1.2c0.8,0.8,1.2,1.8,1.2,2.8l0,24.5
				c0,4,2.4,11.6,4.9,19.3c0.4,1.2,0.2,2.6-0.5,3.6C149.5,66.5,148.3,67.1,147,67.1z M114.9,59.1l26.6,0c-2.3-7.2-3.6-12.6-3.6-16.6
				l0-20.5l-19.4,0l0,20.5C118.5,46.5,117.1,51.9,114.9,59.1z"/>
		</g>
	</g>
	<g>
		<g>
			<path class="st1" d="M128.2,144.4c-5.1,0-10.3-0.1-15.1-0.4c-21.3-1.3-23.9-4.5-24.7-7.7c-0.1-0.3-0.1-0.6-0.1-0.9
				c0-1.1,0-2.2,0-3.4c0-10.6,2.2-23,6.9-39c0.6-2,2.6-3.2,4.6-2.8c13.2,2.7,43.4,2.7,56.6,0c2-0.4,4,0.8,4.6,2.8
				c4.7,16,6.9,28.4,6.9,39l0,0l0,0c0,1.1,0,2.1,0,3.2c0,0,0,0.1,0,0.2c-0.2,5.3-7.3,7.1-18.6,8.2
				C143.2,144,135.7,144.4,128.2,144.4z M96.3,133.4c3.4,1.3,14.4,2.9,31.8,2.9c0,0,0,0,0,0c17.5,0,28.5-1.6,31.8-2.9
				c0-0.5,0-1.1,0-1.6l0,0c0-8.9-1.8-19.8-5.6-33.3c-14.1,2-38.4,2-52.5,0c-3.8,13.4-5.6,24.4-5.6,33.3
				C96.3,132.4,96.3,132.9,96.3,133.4z M164,135L164,135L164,135z"/>
		</g>
	</g>
	<g>
		<g>
			<path class="st1" d="M157.5,256C157.5,256,157.5,256,157.5,256l-58.7,0c-2.7,0-6.3-1.1-8.4-6.3c-1.4-3.5-2.1-8.8-2.1-16.6
				c0-7.1,1.1-11.5,2.2-16.1c1.4-5.6,3-11.9,3-25.4c0-11.7-1.1-18.1-2.3-24.8c-1.3-7.3-2.7-15.6-2.9-31.5c0-2,1.5-3.8,3.5-4
				c1.6-0.2,3.1,0.6,3.9,1.9c2.6,1.4,13.8,3.1,32.4,3.1c0,0,0,0,0,0c18.3,0,29.5-1.7,32.2-3.1c0.7-1.4,2.1-2.3,3.7-2.2
				c2.2,0.1,3.9,1.9,3.9,4c-0.2,15.8-1.5,23.4-2.9,30.8c-1.2,6.8-2.3,13.1-2.3,25.7c0,14.5,1.6,20.7,3,26.1
				c1.1,4.3,2.2,8.4,2.2,15.4c0,7.8-0.7,13.1-2.1,16.6C163.8,254.9,160.2,256,157.5,256z M96.5,141.8c0.4,11,1.5,17.4,2.6,23.6
				c1.2,7.1,2.4,13.8,2.4,26.2c0,14.5-1.7,21.3-3.2,27.3c-1.1,4.3-2,8.1-2,14.2c0,6.5,0.5,11.1,1.5,13.6c0.5,1.3,0.8,1.3,1,1.3
				l58.7,0c0,0,0,0,0,0c0.2,0,0.5,0,1-1.3c1-2.5,1.5-7.1,1.5-13.6c0-6-0.9-9.3-1.9-13.4c-1.5-5.6-3.3-12.6-3.3-28.1
				c0-13.3,1.2-20,2.5-27.1c1.1-5.9,2.1-12,2.6-22.6c-2.9,0.7-6.4,1.2-10.4,1.6c-10.5,1-24.4,1.2-36.3,0.5
				C105.4,143.4,100.1,142.7,96.5,141.8z"/>
		</g>
	</g>
	<g>
		<g>
			<path class="st1" d="M146.8,22C146.8,22,146.8,22,146.8,22l-37.5,0c-1.3,0-2.4-0.6-3.2-1.6s-1-2.3-0.6-3.5l4.1-14
				c0.5-1.7,2.1-2.9,3.8-2.9c0,0,0,0,0,0l29.3,0c1.8,0,3.3,1.2,3.8,2.9l4.1,14c0.4,1.2,0.1,2.5-0.6,3.5S148.1,22,146.8,22z
				 M114.7,14l26.8,0l-1.8-6l-23.3,0L114.7,14z"/>
		</g>
	</g>
	<g>
		<g>
			<path class="st1" d="M92.3,139.2c-1.8,0-3.4-1.2-3.9-3c-0.1-0.4-0.2-0.8-0.2-1.2c0-2.2,1.8-4,4-4c2.1,0,3.8,1.6,4,3.6
				c0.3,2-0.9,4-3,4.5C93,139.2,92.7,139.2,92.3,139.2z"/>
		</g>
	</g>
</g>
</svg>
