<?xml version="1.0" encoding="utf-8"?>
<!-- Generator: Adobe Illustrator 22.1.0, SVG Export Plug-In . SVG Version: 6.00 Build 0)  -->
<svg version="1.1" id="Layer_1" xmlns="http://www.w3.org/2000/svg" xmlns:xlink="http://www.w3.org/1999/xlink" x="0px" y="0px"
	 viewBox="0 0 256 256" style="enable-background:new 0 0 256 256;" xml:space="preserve">
<style type="text/css">
	.st0{fill:#F5B31F;}
	.st1{fill:#464646;}
	.st2{opacity:0.15;}
	.st3{fill:#AC6535;}
	.st4{fill:#EB573B;}
	.st5{fill:#90C056;}
	.st6{opacity:0.35;}
	.st7{fill:#FFFFFF;}
	.st8{opacity:0.2;}
	.st9{fill:#F6D67A;}
	.st10{opacity:0.3;}
	.st11{fill:#FFA755;}
	.st12{fill:#8FAE3C;}
	.st13{fill:#BE6BB2;}
	.st14{fill:#B7C536;}
	.st15{opacity:0.1;}
	.st16{fill:#9D5A96;}
	.st17{fill:#EA615D;}
	.st18{opacity:0.4;}
	.st19{fill:#F79932;}
	.st20{fill:#FFEC97;}
	.st21{fill:#FFD11D;}
	.st22{fill:#F7F2D5;}
	.st23{fill:#F6AF72;}
	.st24{fill:#BA6C45;}
	.st25{opacity:0.5;}
	.st26{fill:#E4C074;}
	.st27{fill:#656566;}
	.st28{fill:#FACD1F;}
	.st29{fill:#FFDF66;}
	.st30{fill:#6D6E71;}
	.st31{fill:#E77CAE;}
	.st32{fill:#FFE5C4;}
	.st33{fill:#F68455;}
	.st34{opacity:0.7;}
	.st35{fill:#ADEDFF;}
	.st36{fill:#EC754B;}
	.st37{fill:#4AA5BA;}
	.st38{opacity:0.8;}
	.st39{fill:#92A5AC;}
	.st40{fill:#D06E3C;}
	.st41{fill:#DA4F4B;}
	.st42{fill:#BDF3FF;}
	.st43{fill:#F18BB4;}
	.st44{fill:#F9D97A;}
	.st45{fill:none;}
	.st46{fill:#AF6535;}
	.st47{fill:#B93226;}
	.st48{fill:#FF6050;}
	.st49{fill:#EA7CB1;}
	.st50{fill:#00B0E0;}
	.st51{fill:#EA7DAE;}
	.st52{fill:#BC7532;}
	.st53{fill:#876C6C;}
	.st54{fill:#F9F6CD;}
	.st55{fill:#FFE37B;}
	.st56{fill:#1DDCFF;}
	.st57{fill:#60ACF7;}
	.st58{fill:#C3755A;}
	.st59{fill:#96557A;}
	.st60{fill:#66625D;}
	.st61{fill:#D68032;}
	.st62{fill:#F2A355;}
	.st63{fill:#7E9E6A;}
	.st64{fill:#965A85;}
	.st65{fill:#90CAD3;}
	.st66{fill:#94B57F;}
	.st67{fill:#B2E2E7;}
	.st68{fill:#FFDF8F;}
	.st69{fill:#FFFAEB;}
	.st70{fill:#F88916;}
	.st71{fill:#FFC86E;}
	.st72{fill:#AFA51D;}
	.st73{fill:#968A1C;}
	.st74{fill:#C3556D;}
</style>
<g>
	<g>
		<g>
			<rect x="67.2" y="42.5" class="st57" width="121.6" height="68.2"/>
		</g>
	</g>
	<g class="st10">
		<g>
			<rect x="67.2" y="42.5" class="st7" width="15.5" height="68.2"/>
		</g>
	</g>
	<g>
		<g>
			<path class="st4" d="M188.8,42.5l-121.6,0c0-4.7,4.3-12.4,6-15.7c1.7-3.3,5.7-8.7,12-8.7l85.5,0c6.3,0,10.3,5.4,12,8.7
				C184.5,30.1,188.8,37.8,188.8,42.5z"/>
		</g>
	</g>
	<g class="st10">
		<g>
			<path class="st7" d="M98.1,18l-12.9,0c-6.3,0-10.3,5.4-12,8.7c-1.7,3.3-6,11.1-6,15.7l15.5,0C83.5,33.1,87.2,24.5,98.1,18z"/>
		</g>
	</g>
	<g>
		<g>
			<path class="st57" d="M188.8,176.6l0,49.6c0,8.2-5.9,15.2-15.7,15.2l-90.3,0c-9.8,0-15.6-7-15.6-15.2l0-49.6L188.8,176.6z"/>
		</g>
	</g>
	<g class="st10">
		<g>
			<path class="st7" d="M82.2,176.6c0,0,0,14.1,0,39.3c0,25.2,70.7,25.4,70.7,25.4l-70,0L71.5,237c-1.2,0-4.3-2.7-4.3-10.8l0-49.6
				L82.2,176.6z"/>
		</g>
	</g>
	<g>
		<g>
			<path class="st57" d="M182.3,11c0,1.9-0.8,3.7-2.1,4.9c-1.3,1.3-3,2.1-4.9,2.1l-94.6,0c-3.8,0-7-3.1-7-7c0-1.9,0.8-3.7,2.1-4.9
				c1.3-1.3,3-2.1,4.9-2.1l94.6,0C179.1,4,182.3,7.2,182.3,11z"/>
		</g>
	</g>
	<g class="st25">
		<g>
			<path class="st7" d="M175.3,4L80.7,4c-1.9,0-3.7,0.8-4.9,2.1c-1.3,1.3-2.1,3-2.1,4.9c0,3.8,3.1,7,7,7c0,0,3.5-4.3,9.8-7
				C96.7,8.3,175.3,4,175.3,4z"/>
		</g>
	</g>
	<g>
		<g>
			<rect x="67.2" y="110.7" class="st4" width="121.6" height="65.9"/>
		</g>
	</g>
	<g class="st10">
		<g>
			<rect x="67.2" y="110.7" class="st7" width="15" height="65.9"/>
		</g>
	</g>
	<g class="st15">
		<g>
			<rect x="173.4" y="42.5" width="15.5" height="68.2"/>
		</g>
	</g>
	<g class="st15">
		<g>
			<path d="M157.9,18l12.9,0c6.3,0,10.3,5.4,12,8.7c1.7,3.3,6,11.1,6,15.7l-15.5,0C172.5,33.1,168.8,24.5,157.9,18z"/>
		</g>
	</g>
	<g class="st15">
		<g>
			<path d="M173.1,241.3l11.3-4.3c1.2,0,4.3-2.7,4.3-10.8l0-49.6l-15,0c0,0,0,14.1,0,39.3L173.1,241.3"/>
		</g>
	</g>
	<g class="st15">
		<g>
			<rect x="173.8" y="110.7" width="15" height="65.9"/>
		</g>
	</g>
	<g>
		<g>
			<path class="st1" d="M188.8,114.7C188.8,114.7,188.8,114.7,188.8,114.7l-121.6,0c-1.1,0-2.1-0.4-2.8-1.2
				c-0.8-0.8-1.2-1.8-1.2-2.8l0-68.2c0-2.2,1.8-4,4-4c0,0,0,0,0,0l121.6,0c1.1,0,2.1,0.4,2.8,1.2c0.8,0.8,1.2,1.8,1.2,2.8l0,68.2
				C192.8,112.9,191,114.7,188.8,114.7z M71.2,106.7l113.6,0l0-60.2l-113.6,0L71.2,106.7z"/>
		</g>
	</g>
	<g>
		<g>
			<path class="st1" d="M188.8,46.5C188.8,46.5,188.8,46.5,188.8,46.5l-121.6,0c-2.2,0-4-1.8-4-4c0-4.7,3-10.9,5.8-16.4
				c0.2-0.4,0.4-0.8,0.6-1.2C71,22.3,76,14,85.3,14c0,0,0,0,0,0l85.5,0c9.3,0,14.3,8.4,15.6,10.9c0.2,0.4,0.4,0.8,0.6,1.2
				c2.8,5.4,5.8,11.6,5.8,16.4C192.8,44.7,191,46.5,188.8,46.5z M72.1,38.5l111.8,0c-1.1-3.1-3-6.8-4-8.7c-0.2-0.5-0.5-0.9-0.6-1.3
				c-0.8-1.5-3.7-6.6-8.5-6.6l-85.5,0c-4.7,0-7.7,5-8.5,6.6c-0.2,0.4-0.4,0.8-0.6,1.2C75.1,31.7,73.3,35.3,72.1,38.5z"/>
		</g>
	</g>
	<g>
		<g>
			<path class="st1" d="M173.2,245.3C173.1,245.3,173.1,245.3,173.2,245.3l-90.3,0c-5.7,0-10.8-2-14.4-5.7
				c-3.4-3.5-5.3-8.3-5.3-13.4l0-49.6c0-1.1,0.4-2.1,1.2-2.8c0.8-0.8,1.8-1.2,2.8-1.2c0,0,0,0,0,0l121.6,0c1.1,0,2.1,0.4,2.8,1.2
				c0.8,0.8,1.2,1.8,1.2,2.8l0,49.6C192.8,237.3,184.5,245.3,173.2,245.3z M71.2,180.6l0,45.6c0,3.1,1.1,5.9,3,7.9
				c2.1,2.2,5.1,3.3,8.6,3.3l90.3,0c5.6,0,11.6-3.5,11.6-11.2l0-45.6L71.2,180.6z"/>
		</g>
	</g>
	<g>
		<g>
			<path class="st48" d="M171.2,241.3c0,0,0,1,0,3.9c0,2.9-1.8,6.7-6.7,6.7c-4.9,0-69.5-0.1-73.2-0.1c-3.7,0-6.6-4.2-6.6-6.6
				c0-2.5,0-3.9,0-3.9L171.2,241.3z"/>
		</g>
	</g>
	<g class="st15">
		<g>
			<path d="M171.2,241.3c0,0,0,0.5,0,2c0,1.5-1.8,3.4-6.7,3.4c-4.9,0-69.5-0.1-73.2-0.1c-3.7,0-6.6-2.1-6.6-3.4c0-1.3,0-2,0-2
				L171.2,241.3z"/>
		</g>
	</g>
	<g>
		<g>
			<path class="st1" d="M164.5,256C164.5,256,164.5,256,164.5,256c-2.7,0-23.1,0-41.7-0.1c-15.5,0-29.8-0.1-31.5-0.1
				c-5.9,0-10.6-5.8-10.6-10.6l0-3.9c0-1.1,0.4-2.1,1.2-2.8c0.8-0.8,1.8-1.2,2.8-1.2c0,0,0,0,0,0l86.5,0c2.2,0,4,1.8,4,4v3.9
				c0,2.5-0.9,5.1-2.4,7C170.8,254.7,167.9,256,164.5,256z M88.7,245.3c0.2,0.8,1.5,2.6,2.6,2.6c1.7,0,16,0,31.5,0.1
				c18.6,0,39,0.1,41.7,0.1h0c1.3,0,1.8-0.5,2.1-0.8c0.4-0.6,0.6-1.3,0.6-1.9L88.7,245.3z"/>
		</g>
	</g>
	<g>
		<g>
			<path class="st1" d="M175.3,22l-94.6,0c-2.9,0-5.7-1.1-7.8-3.2c-2.1-2.1-3.2-4.8-3.2-7.8c0-2.9,1.1-5.7,3.2-7.8
				C75,1.1,77.8,0,80.7,0c0,0,0,0,0,0l94.6,0c6.1,0,11,4.9,11,11c0,0,0,0,0,0c0,2.9-1.1,5.7-3.2,7.8C181,20.9,178.2,22,175.3,22z
				 M80.7,8c-0.8,0-1.5,0.3-2.1,0.9c-0.6,0.6-0.9,1.3-0.9,2.1c0,0.8,0.3,1.5,0.9,2.1c0.6,0.6,1.3,0.9,2.1,0.9l94.6,0
				c0.8,0,1.5-0.3,2.1-0.9c0.6-0.6,0.9-1.3,0.9-2.1c0-1.7-1.3-3-3-3L80.7,8L80.7,8z M182.3,11L182.3,11L182.3,11z"/>
		</g>
	</g>
	<g>
		<g>
			<path class="st1" d="M188.8,180.6C188.8,180.6,188.8,180.6,188.8,180.6l-121.6,0c-1.1,0-2.1-0.4-2.8-1.2
				c-0.8-0.8-1.2-1.8-1.2-2.8l0-65.9c0-2.2,1.8-4,4-4c0,0,0,0,0,0l121.6,0c2.2,0,4,1.8,4,4l0,65.9c0,1.1-0.4,2.1-1.2,2.8
				C190.9,180.2,189.9,180.6,188.8,180.6z M71.2,172.6l113.6,0l0-57.9l-113.6,0L71.2,172.6z"/>
		</g>
	</g>
</g>
</svg>
