<?xml version="1.0" encoding="utf-8"?>
<!-- Generator: Adobe Illustrator 22.1.0, SVG Export Plug-In . SVG Version: 6.00 Build 0)  -->
<svg version="1.1" id="Layer_1" xmlns="http://www.w3.org/2000/svg" xmlns:xlink="http://www.w3.org/1999/xlink" x="0px" y="0px"
	 viewBox="0 0 256 256" style="enable-background:new 0 0 256 256;" xml:space="preserve">
<style type="text/css">
	.st0{fill:#F5B31F;}
	.st1{fill:#464646;}
	.st2{opacity:0.15;}
	.st3{fill:#AC6535;}
	.st4{fill:#EB573B;}
	.st5{fill:#90C056;}
	.st6{opacity:0.35;}
	.st7{fill:#FFFFFF;}
	.st8{opacity:0.2;}
	.st9{fill:#F6D67A;}
	.st10{opacity:0.3;}
	.st11{fill:#FFA755;}
	.st12{fill:#8FAE3C;}
	.st13{fill:#BE6BB2;}
	.st14{fill:#B7C536;}
	.st15{opacity:0.1;}
	.st16{fill:#9D5A96;}
	.st17{fill:#EA615D;}
	.st18{opacity:0.4;}
	.st19{fill:#F79932;}
	.st20{fill:#FFEC97;}
	.st21{fill:#FFD11D;}
	.st22{fill:#F7F2D5;}
	.st23{fill:#F6AF72;}
	.st24{fill:#BA6C45;}
	.st25{opacity:0.5;}
	.st26{fill:#E4C074;}
	.st27{fill:#656566;}
	.st28{fill:#FACD1F;}
	.st29{fill:#FFDF66;}
	.st30{fill:#6D6E71;}
	.st31{fill:#E77CAE;}
	.st32{fill:#FFE5C4;}
	.st33{fill:#F68455;}
	.st34{opacity:0.7;}
	.st35{fill:#ADEDFF;}
	.st36{fill:#EC754B;}
	.st37{fill:#4AA5BA;}
	.st38{opacity:0.8;}
	.st39{fill:#92A5AC;}
	.st40{fill:#D06E3C;}
	.st41{fill:#DA4F4B;}
	.st42{fill:#BDF3FF;}
	.st43{fill:#F18BB4;}
	.st44{fill:#F9D97A;}
	.st45{fill:none;}
	.st46{fill:#AF6535;}
	.st47{fill:#B93226;}
	.st48{fill:#FF6050;}
	.st49{fill:#EA7CB1;}
	.st50{fill:#00B0E0;}
	.st51{fill:#EA7DAE;}
	.st52{fill:#BC7532;}
	.st53{fill:#876C6C;}
	.st54{fill:#F9F6CD;}
	.st55{fill:#FFE37B;}
	.st56{fill:#1DDCFF;}
	.st57{fill:#60ACF7;}
	.st58{fill:#C3755A;}
	.st59{fill:#96557A;}
	.st60{fill:#66625D;}
	.st61{fill:#D68032;}
	.st62{fill:#F2A355;}
	.st63{fill:#7E9E6A;}
	.st64{fill:#965A85;}
	.st65{fill:#90CAD3;}
	.st66{fill:#94B57F;}
	.st67{fill:#B2E2E7;}
	.st68{fill:#FFDF8F;}
	.st69{fill:#FFFAEB;}
	.st70{fill:#F88916;}
	.st71{fill:#FFC86E;}
	.st72{fill:#AFA51D;}
	.st73{fill:#968A1C;}
	.st74{fill:#C3556D;}
</style>
<g>
	<g>
		<g>
			<path class="st4" d="M99.7,235.6l0,2.1c0,19.1-26,19.1-26,0l0-28.1L99.7,235.6z"/>
		</g>
	</g>
	<g>
		<g>
			<polygon class="st7" points="99.7,200 99.7,235.6 73.8,209.6 73.8,173.9 			"/>
		</g>
	</g>
	<g>
		<g>
			<polygon class="st4" points="99.7,164.3 99.7,200 73.8,173.9 73.8,138.3 			"/>
		</g>
	</g>
	<g>
		<g>
			<polygon class="st7" points="99.7,128.6 99.7,164.3 73.8,138.3 73.8,102.6 			"/>
		</g>
	</g>
	<g>
		<g>
			<polygon class="st4" points="99.7,92.9 99.7,128.6 73.8,102.6 73.8,66.9 			"/>
		</g>
	</g>
	<g>
		<g>
			<path class="st7" d="M99.7,56.1c0,0.2,0,0.4,0,0.6l0,36.2l-26-26l0-13.4c0-8.6,1.8-16,5-22.4L99.7,56.1z"/>
		</g>
	</g>
	<g>
		<g>
			<path class="st4" d="M113.4,34.7c-7.7,3.7-13.4,10.8-13.6,21.3l-20.9-25c5.6-11.1,15.3-18.8,26.6-23L113.4,34.7z"/>
		</g>
	</g>
	<g>
		<g>
			<path class="st7" d="M137.6,4.8l-1.1,28.3c-7.5-2.3-16.1-1.8-23.2,1.6l-7.9-26.7C115.5,4.3,126.8,3.2,137.6,4.8z"/>
		</g>
	</g>
	<g>
		<g>
			<path class="st4" d="M171.7,23.1l-19.1,24c-2.9-7.1-9-11.8-16-14l1.1-28.3C150.9,6.8,163.4,12.9,171.7,23.1z"/>
		</g>
	</g>
	<g>
		<g>
			<path class="st7" d="M181.8,53.5l0,5.7L154.3,78l0-21.3c0-3.6-0.6-6.8-1.8-9.6l19.1-24C178,30.9,181.8,41,181.8,53.5z"/>
		</g>
	</g>
	<g>
		<g>
			<path class="st4" d="M181.8,59.2l0,19.8c0,18.4-27.6,18.4-27.6,0l0-1L181.8,59.2z"/>
		</g>
	</g>
	<g>
		<g>
			<path class="st1" d="M86.7,256.1c-2.9,0-5.8-0.8-8.5-2.3c-5.4-3.1-8.5-9-8.5-16.1l0-28.1c0-1.6,1-3.1,2.5-3.7
				c1.5-0.6,3.2-0.3,4.4,0.9l26,26c0.7,0.8,1.2,1.8,1.2,2.8l0,2.1c0,7.1-3.1,13-8.5,16.1C92.6,255.4,89.7,256.1,86.7,256.1z
				 M77.8,219.3l0,18.5c0,4.2,1.6,7.5,4.5,9.2c2.7,1.6,6.2,1.6,8.9,0c2.9-1.7,4.5-4.9,4.5-9.2v-0.5L77.8,219.3z"/>
		</g>
	</g>
	<g>
		<g>
			<path class="st1" d="M99.7,239.6c-1,0-2.1-0.4-2.8-1.2l-26-26c-0.7-0.8-1.2-1.8-1.2-2.8l0-35.7c0-1.6,1-3.1,2.5-3.7
				c1.5-0.6,3.2-0.3,4.4,0.9l26,26c0.7,0.8,1.2,1.8,1.2,2.8l0,35.7c0,1.6-1,3.1-2.5,3.7C100.7,239.5,100.2,239.6,99.7,239.6z
				 M77.8,208l18,18l0-24.3l-18-18L77.8,208z"/>
		</g>
	</g>
	<g>
		<g>
			<path class="st1" d="M99.7,204c-1,0-2.1-0.4-2.8-1.2l-26-26c-0.7-0.8-1.2-1.8-1.2-2.8l0-35.7c0-1.6,1-3.1,2.5-3.7
				c1.5-0.6,3.2-0.3,4.4,0.9l26,26c0.7,0.8,1.2,1.8,1.2,2.8l0,35.7c0,1.6-1,3.1-2.5,3.7C100.8,203.9,100.2,204,99.7,204z
				 M77.8,172.3l18,18l0-24.4l-18-18L77.8,172.3z"/>
		</g>
	</g>
	<g>
		<g>
			<path class="st1" d="M99.7,168.3c-1,0-2.1-0.4-2.8-1.2l-26-26c-0.7-0.8-1.2-1.8-1.2-2.8l0-35.7c0-1.6,1-3.1,2.5-3.7
				c1.5-0.6,3.2-0.3,4.4,0.9l26,26c0.7,0.8,1.2,1.8,1.2,2.8l0,35.7c0,1.6-1,3.1-2.5,3.7C100.8,168.2,100.2,168.3,99.7,168.3z
				 M77.8,136.6l18,18l0-24.3l-18-18L77.8,136.6z"/>
		</g>
	</g>
	<g>
		<g>
			<path class="st1" d="M99.7,132.6c-1,0-2.1-0.4-2.8-1.2l-26-26c-0.7-0.8-1.2-1.8-1.2-2.8l0-35.7c0-1.6,1-3.1,2.5-3.7
				c1.5-0.6,3.2-0.3,4.4,0.9l26,26c0.7,0.8,1.2,1.8,1.2,2.8l0,35.7c0,1.6-1,3.1-2.5,3.7C100.8,132.5,100.2,132.6,99.7,132.6z
				 M77.8,100.9l18,18l0-24.3l-18-18L77.8,100.9z"/>
		</g>
	</g>
	<g>
		<g>
			<path class="st1" d="M99.7,96.9c-1,0-2.1-0.4-2.8-1.2l-26-26c-0.7-0.8-1.2-1.8-1.2-2.8l0-13.4c0-8.9,1.8-17,5.5-24.2
				c0.6-1.2,1.8-2,3.1-2.2c1.3-0.2,2.7,0.4,3.5,1.4l20.9,25c0.7,0.8,1,1.9,0.9,3c0,0.1,0,0.1,0,0.2l0,36.2c0,1.6-1,3.1-2.5,3.7
				C100.8,96.8,100.2,96.9,99.7,96.9z M77.8,65.2l18,18l0-25.8L80,38.7c-1.5,4.6-2.2,9.5-2.2,14.8L77.8,65.2z"/>
		</g>
	</g>
	<g>
		<g>
			<path class="st1" d="M99.7,60.1c-1.2,0-2.3-0.5-3.1-1.4l-20.9-25c-1-1.2-1.2-2.9-0.5-4.4c5.7-11.4,15.7-20,28.8-25
				c1-0.4,2.2-0.3,3.2,0.2c1,0.5,1.7,1.4,2.1,2.4l7.9,26.7c0.6,1.9-0.3,3.9-2.1,4.7c-4.2,2-11.1,7-11.4,17.8c0,1.7-1.1,3.1-2.7,3.7
				C100.6,60,100.2,60.1,99.7,60.1z M83.6,30.6l13.7,16.3c2-5.8,5.9-10.7,11.3-14.1l-5.7-19.3C94.5,17.4,87.9,23.3,83.6,30.6z"/>
		</g>
	</g>
	<g>
		<g>
			<path class="st1" d="M113.4,38.7c-0.6,0-1.1-0.1-1.6-0.3c-1.1-0.5-1.9-1.4-2.2-2.5l-7.9-26.7c-0.6-2,0.5-4.1,2.4-4.9
				c10.5-4,22.7-5.2,34.2-3.4c2,0.3,3.5,2.1,3.4,4.1l-1.1,28.3c0,1.2-0.7,2.4-1.7,3.1c-1,0.7-2.3,0.9-3.5,0.6
				c-6.6-2-14.2-1.5-20.2,1.4C114.6,38.6,114,38.7,113.4,38.7z M110.4,10.6l5.6,18.8c5.3-1.7,11.1-2.1,16.8-1.2l0.8-19.8
				C125.7,7.7,117.7,8.4,110.4,10.6z"/>
		</g>
	</g>
	<g>
		<g>
			<path class="st1" d="M152.5,51.1c-0.2,0-0.4,0-0.6,0c-1.4-0.2-2.6-1.1-3.1-2.5c-2.2-5.5-7-9.7-13.5-11.6c-1.7-0.5-2.9-2.2-2.8-4
				l1.1-28.3c0-1.1,0.6-2.2,1.4-2.9c0.9-0.7,2-1,3.1-0.9c15.1,2.3,28,9.3,36.5,19.7c1.2,1.5,1.2,3.5,0,5l-19.1,24
				C154.9,50.5,153.7,51.1,152.5,51.1z M140.6,30.4c5.2,2.1,9.5,5.4,12.5,9.6l13.3-16.7c-6.3-6.6-15-11.4-25-13.6L140.6,30.4z"/>
		</g>
	</g>
	<g>
		<g>
			<path class="st1" d="M154.3,82c-0.6,0-1.3-0.2-1.9-0.5c-1.3-0.7-2.1-2.1-2.1-3.5l0-21.3c0-2.9-0.5-5.7-1.5-8.1
				c-0.5-1.3-0.3-2.9,0.6-4l19.1-24c0.8-0.9,1.9-1.5,3.1-1.5c0,0,0,0,0,0c1.2,0,2.3,0.5,3.1,1.5c7.4,9,11.1,20.1,11.1,32.9
				c0,0,0,0,0,0l0,5.7c0,1.3-0.7,2.6-1.7,3.3l-27.6,18.8C155.9,81.8,155.1,82,154.3,82z M157,47.9c0.8,2.8,1.3,5.7,1.3,8.8l0,13.8
				l19.6-13.3l0-3.6c0-9-2.1-17-6.4-23.7L157,47.9z M181.8,53.5L181.8,53.5L181.8,53.5z"/>
		</g>
	</g>
	<g>
		<g>
			<path class="st1" d="M168.1,96.8c-3.2,0-6.5-0.8-9.3-2.5c-5.4-3.1-8.4-8.7-8.4-15.4v-1c0-1.3,0.7-2.6,1.7-3.3l27.6-18.8
				c1.2-0.8,2.8-0.9,4.1-0.2c1.3,0.7,2.1,2.1,2.1,3.5l0,19.8c0,6.7-3.1,12.3-8.4,15.4C174.6,96,171.3,96.8,168.1,96.8z M158.3,80.1
				c0.3,4.1,2.5,6.2,4.4,7.3c3.2,1.8,7.5,1.8,10.7,0c2-1.2,4.4-3.6,4.4-8.4l0-12.2L158.3,80.1z"/>
		</g>
	</g>
</g>
</svg>
