<?xml version="1.0" encoding="utf-8"?>
<!-- Generator: Adobe Illustrator 22.1.0, SVG Export Plug-In . SVG Version: 6.00 Build 0)  -->
<svg version="1.1" id="Layer_1" xmlns="http://www.w3.org/2000/svg" xmlns:xlink="http://www.w3.org/1999/xlink" x="0px" y="0px"
	 viewBox="0 0 256 256" style="enable-background:new 0 0 256 256;" xml:space="preserve">
<style type="text/css">
	.st0{fill:#F5B31F;}
	.st1{fill:#464646;}
	.st2{opacity:0.15;}
	.st3{fill:#AC6535;}
	.st4{fill:#EB573B;}
	.st5{fill:#90C056;}
	.st6{opacity:0.35;}
	.st7{fill:#FFFFFF;}
	.st8{opacity:0.2;}
	.st9{fill:#F6D67A;}
	.st10{opacity:0.3;}
	.st11{fill:#FFA755;}
	.st12{fill:#8FAE3C;}
	.st13{fill:#BE6BB2;}
	.st14{fill:#B7C536;}
	.st15{opacity:0.1;}
	.st16{fill:#9D5A96;}
	.st17{fill:#EA615D;}
	.st18{opacity:0.4;}
	.st19{fill:#F79932;}
	.st20{fill:#FFEC97;}
	.st21{fill:#FFD11D;}
	.st22{fill:#F7F2D5;}
	.st23{fill:#F6AF72;}
	.st24{fill:#BA6C45;}
	.st25{opacity:0.5;}
	.st26{fill:#E4C074;}
	.st27{fill:#656566;}
	.st28{fill:#FACD1F;}
	.st29{fill:#FFDF66;}
	.st30{fill:#6D6E71;}
	.st31{fill:#E77CAE;}
	.st32{fill:#FFE5C4;}
	.st33{fill:#F68455;}
	.st34{opacity:0.7;}
	.st35{fill:#ADEDFF;}
	.st36{fill:#EC754B;}
	.st37{fill:#4AA5BA;}
	.st38{opacity:0.8;}
	.st39{fill:#92A5AC;}
	.st40{fill:#D06E3C;}
	.st41{fill:#DA4F4B;}
	.st42{fill:#BDF3FF;}
	.st43{fill:#F18BB4;}
	.st44{fill:#F9D97A;}
	.st45{fill:none;}
	.st46{fill:#AF6535;}
	.st47{fill:#B93226;}
	.st48{fill:#FF6050;}
	.st49{fill:#EA7CB1;}
	.st50{fill:#00B0E0;}
	.st51{fill:#EA7DAE;}
	.st52{fill:#BC7532;}
	.st53{fill:#876C6C;}
	.st54{fill:#F9F6CD;}
	.st55{fill:#FFE37B;}
	.st56{fill:#1DDCFF;}
	.st57{fill:#60ACF7;}
	.st58{fill:#C3755A;}
	.st59{fill:#96557A;}
	.st60{fill:#66625D;}
	.st61{fill:#D68032;}
	.st62{fill:#F2A355;}
	.st63{fill:#7E9E6A;}
	.st64{fill:#965A85;}
	.st65{fill:#90CAD3;}
	.st66{fill:#94B57F;}
	.st67{fill:#B2E2E7;}
	.st68{fill:#FFDF8F;}
	.st69{fill:#FFFAEB;}
	.st70{fill:#F88916;}
	.st71{fill:#FFC86E;}
	.st72{fill:#AFA51D;}
	.st73{fill:#968A1C;}
	.st74{fill:#C3556D;}
</style>
<g>
	<g>
		<g>
			<path class="st32" d="M167.7,173.6c-69.7-5.1-40.5,48.1-84.8,65.1S0.6,218.2,4.2,160.1c3.4-55.2,21.9-87.9,64.1-120.6
				c43.6-33.7,104.6-40.2,159.3,9.9C282.2,99.5,237.5,178.7,167.7,173.6z"/>
		</g>
	</g>
	<g>
		<g>
			<path class="st4" d="M56.5,83.7c-4-6.7,43.6-53.7,88-53.7c34.4,0,76.3,33.8,88.8,60.9c9.4,20.4-10.1,45.2-19.3,51.6
				c-9.1,6.4-36.1,25-54.4,4.5C133.9,118,60.6,90.4,56.5,83.7z"/>
		</g>
	</g>
	<g>
		<g>
			<path class="st4" d="M129.5,158c10.8-11-68.2-57.1-85.6-52.4c-25.3,6.9-31.8,119.3,12.2,119.7c43.9,0.4,38.3-26.6,45.1-39.6
				C108,172.7,118.7,169,129.5,158z"/>
		</g>
	</g>
	<g>
		<g>
			<path class="st1" d="M61.8,246.9c-11.6,0-22.6-3.6-32.2-10.6c-20.5-15-31.5-43.6-29.4-76.4C3.6,104.9,22,70.3,65.8,36.3
				C89.4,18,116.4,8.6,143.8,9c30.3,0.5,60.2,13.4,86.5,37.5c24.9,22.9,32.3,53.9,19.8,83c-13.6,31.4-46.8,50.8-82.6,48.2
				c-37.7-2.8-43.7,11.4-51.2,29.3c-5.5,13.1-11.7,27.8-31.8,35.6C76.8,245.4,69.2,246.9,61.8,246.9z M142,17
				c-25,0-49.6,8.9-71.3,25.7C28.4,75.4,11.4,107.3,8.2,160.3c-1.9,30.1,7.9,56.1,26.2,69.5c13.5,9.9,30.2,11.7,47.2,5.2
				c16.9-6.5,21.9-18.5,27.3-31.2c7.7-18.4,15.7-37.3,59.2-34.2c2,0.1,3.9,0.2,5.9,0.2c30.1,0,57.3-17,68.8-43.6
				c11.2-25.8,4.5-53.5-17.8-73.9c-25.1-23-52.4-34.9-81.2-35.4C143.1,17,142.6,17,142,17z"/>
		</g>
	</g>
	<g>
		<g>
			<path class="st1" d="M62.3,216.3c-4.4,0-8.9-0.6-13.1-1.3c-2.2-0.4-3.6-2.5-3.2-4.6c0.4-2.2,2.5-3.6,4.6-3.2
				c20.7,3.7,27.8-1.6,32-10.6c0.9-2,3.3-2.9,5.3-1.9c2,0.9,2.9,3.3,1.9,5.3C83.8,212.8,73.1,216.3,62.3,216.3z"/>
		</g>
	</g>
	<g>
		<g>
			<path class="st1" d="M57.2,229.4c-0.3,0-0.7,0-1,0c-18.4-0.2-31.1-17.3-34.9-47c-2.1-16.2-1.2-35,2.4-50.3
				c2.3-10,8-27.2,19.3-30.4c11.4-3.1,37.1,9.9,47.6,15.6c16.6,9,36.3,22.2,42.2,32.2c3.5,5.9,1.3,9.6-0.3,11.2l0,0
				c-4.2,4.3-8.3,7.4-12.2,10.5c-6.2,4.8-11.6,8.9-15.4,16.3c-1.3,2.5-2.1,5.8-3,9.3C98.3,210.6,93.6,229.4,57.2,229.4z M47.2,109.3
				c-0.8,0-1.5,0.1-2.1,0.2c-5.2,1.4-10.5,10.8-13.7,24.5c-3.4,14.4-4.2,32.1-2.2,47.4c1.5,12,7.3,39.8,27.1,40c0.3,0,0.7,0,1,0
				c30.2,0,33.5-13.4,36.8-26.4c1-4,2-7.8,3.7-11.1c4.7-9,11-13.8,17.6-19c3.7-2.8,7.5-5.8,11.2-9.6c-0.1-0.7-1.3-4.3-10.7-11.9
				C95.6,127,59.4,109.3,47.2,109.3z M126.7,155.2l2.9,2.8L126.7,155.2C126.7,155.2,126.7,155.2,126.7,155.2
				S126.7,155.2,126.7,155.2z"/>
		</g>
	</g>
	<g>
		<g>
			<path class="st1" d="M180.1,160.4c-9.2,0-17.2-3.6-23.5-10.7c-16.3-18.3-53-36.5-77.4-48.6C61,92,55,88.8,53.1,85.8l0,0
				c-2-3.4,0.3-7.4,1-8.8c8.3-14.8,50.3-51,90.4-51c0,0,0,0,0,0c35.7,0,79,34,92.4,63.3c10.4,22.8-10.2,49.3-20.6,56.5
				c-4.6,3.2-14.1,9.8-25,12.9C187.4,159.8,183.7,160.4,180.1,160.4z M60.5,82.1c3,2.3,13.2,7.3,22.3,11.8
				c24.9,12.3,62.5,30.9,79.8,50.4c14.3,16.1,34.9,4.8,49.1-5.1c8.2-5.7,26.2-28.7,17.9-46.6C217.5,66.1,176.8,34,144.5,34
				c-23.2,0-45.7,13.5-57.1,21.6C70.6,67.6,62,78.5,60.5,82.1z"/>
		</g>
	</g>
	<g>
		<g>
			<ellipse class="st32" cx="187.6" cy="100.2" rx="18.1" ry="18.1"/>
		</g>
	</g>
	<g>
		<g>
			<path class="st1" d="M187.6,122.3C187.6,122.3,187.6,122.3,187.6,122.3c-5.9,0-11.5-2.3-15.7-6.5c-4.2-4.2-6.5-9.7-6.5-15.6
				c0-12.2,9.9-22.1,22.1-22.1c5.9,0,11.5,2.3,15.7,6.5c4.2,4.2,6.5,9.7,6.5,15.6l0,0l0,0c0,5.9-2.3,11.5-6.5,15.6
				C199.1,120,193.5,122.3,187.6,122.3z M187.6,86c-7.8,0-14.1,6.3-14.1,14.1c0,3.8,1.5,7.3,4.1,10c2.7,2.7,6.2,4.1,10,4.1
				c0,0,0,0,0,0c3.8,0,7.3-1.5,10-4.1c2.7-2.7,4.1-6.2,4.1-10l0,0c0-3.8-1.5-7.3-4.1-10C194.9,87.5,191.4,86,187.6,86z"/>
		</g>
	</g>
</g>
</svg>
