<?xml version="1.0" encoding="utf-8"?>
<!-- Generator: Adobe Illustrator 22.1.0, SVG Export Plug-In . SVG Version: 6.00 Build 0)  -->
<svg version="1.1" id="Layer_1" xmlns="http://www.w3.org/2000/svg" xmlns:xlink="http://www.w3.org/1999/xlink" x="0px" y="0px"
	 viewBox="0 0 256 256" style="enable-background:new 0 0 256 256;" xml:space="preserve">
<style type="text/css">
	.st0{fill:#F5B31F;}
	.st1{fill:#464646;}
	.st2{opacity:0.15;}
	.st3{fill:#AC6535;}
	.st4{fill:#EB573B;}
	.st5{fill:#90C056;}
	.st6{opacity:0.35;}
	.st7{fill:#FFFFFF;}
	.st8{opacity:0.2;}
	.st9{fill:#F6D67A;}
	.st10{opacity:0.3;}
	.st11{fill:#FFA755;}
	.st12{fill:#8FAE3C;}
	.st13{fill:#BE6BB2;}
	.st14{fill:#B7C536;}
	.st15{opacity:0.1;}
	.st16{fill:#9D5A96;}
	.st17{fill:#EA615D;}
	.st18{opacity:0.4;}
	.st19{fill:#F79932;}
	.st20{fill:#FFEC97;}
	.st21{fill:#FFD11D;}
	.st22{fill:#F7F2D5;}
	.st23{fill:#F6AF72;}
	.st24{fill:#BA6C45;}
	.st25{opacity:0.5;}
	.st26{fill:#E4C074;}
	.st27{fill:#656566;}
	.st28{fill:#FACD1F;}
	.st29{fill:#FFDF66;}
	.st30{fill:#6D6E71;}
	.st31{fill:#E77CAE;}
	.st32{fill:#FFE5C4;}
	.st33{fill:#F68455;}
	.st34{opacity:0.7;}
	.st35{fill:#ADEDFF;}
	.st36{fill:#EC754B;}
	.st37{fill:#4AA5BA;}
	.st38{opacity:0.8;}
	.st39{fill:#92A5AC;}
	.st40{fill:#D06E3C;}
	.st41{fill:#DA4F4B;}
	.st42{fill:#BDF3FF;}
	.st43{fill:#F18BB4;}
	.st44{fill:#F9D97A;}
	.st45{fill:none;}
	.st46{fill:#AF6535;}
	.st47{fill:#B93226;}
	.st48{fill:#FF6050;}
	.st49{fill:#EA7CB1;}
	.st50{fill:#00B0E0;}
	.st51{fill:#EA7DAE;}
	.st52{fill:#BC7532;}
	.st53{fill:#876C6C;}
	.st54{fill:#F9F6CD;}
	.st55{fill:#FFE37B;}
	.st56{fill:#1DDCFF;}
	.st57{fill:#60ACF7;}
	.st58{fill:#C3755A;}
	.st59{fill:#96557A;}
	.st60{fill:#66625D;}
	.st61{fill:#D68032;}
	.st62{fill:#F2A355;}
	.st63{fill:#7E9E6A;}
	.st64{fill:#965A85;}
	.st65{fill:#90CAD3;}
	.st66{fill:#94B57F;}
	.st67{fill:#B2E2E7;}
	.st68{fill:#FFDF8F;}
	.st69{fill:#FFFAEB;}
	.st70{fill:#F88916;}
	.st71{fill:#FFC86E;}
	.st72{fill:#AFA51D;}
	.st73{fill:#968A1C;}
	.st74{fill:#C3556D;}
</style>
<g>
	<g>
		<g>
			<path class="st21" d="M209.3,4.1c56.7,56.7,56.7,148.7,0,205.4S60.7,266.3,4,209.5L209.3,4.1z"/>
		</g>
	</g>
	<g>
		<g>
			<g>
				<path class="st11" d="M120.8,108.8l70.9,71c20.3-18.5,30.8-41.9,28.5-71.8L120.8,108.8z"/>
			</g>
		</g>
		<g>
			<g>
				<path class="st11" d="M120.4,94.3l100.3,0c1.3-27.5-7.8-51.4-30.6-70.9L120.4,94.3z"/>
			</g>
		</g>
		<g>
			<g>
				<path class="st11" d="M96.2,119.9l-70.9,71c18.5,20.4,41.9,30.8,71.7,28.5L96.2,119.9z"/>
			</g>
		</g>
		<g>
			<g>
				<path class="st11" d="M110.8,119.5l0,100.4c27.4,1.3,51.4-7.9,70.8-30.6L110.8,119.5z"/>
			</g>
		</g>
	</g>
	<g>
		<g>
			<path class="st1" d="M106.6,256.1C106.6,256.1,106.6,256.1,106.6,256.1c-39.8,0-77.3-15.5-105.5-43.7c-1.6-1.6-1.6-4.1,0-5.7
				L206.4,1.3c0.8-0.8,1.8-1.2,2.8-1.2l0,0c1.1,0,2.1,0.4,2.8,1.2c58.1,58.2,58.1,152.9,0,211.1
				C183.9,240.5,146.5,256.1,106.6,256.1z M9.7,209.5c26.3,24.9,60.6,38.6,96.9,38.6c0,0,0,0,0,0c37.7,0,73.1-14.7,99.8-41.4
				c54.1-54.1,55-141.6,2.8-196.9L9.7,209.5z"/>
		</g>
	</g>
	<g>
		<g>
			<g>
				<path class="st1" d="M191.7,183.8c-1,0-2.1-0.4-2.8-1.2l-70.9-71c-1.1-1.1-1.5-2.9-0.9-4.3c0.6-1.5,2.1-2.5,3.7-2.5l99.4-0.8
					c2.1,0,3.9,1.6,4,3.7c2.3,29.7-7.7,55-29.7,75.1C193.6,183.5,192.6,183.8,191.7,183.8z M130.3,112.8l61.4,61.5
					c17.6-17.2,25.7-37.6,24.6-62.2L130.3,112.8z"/>
			</g>
		</g>
		<g>
			<g>
				<path class="st1" d="M220.6,98.3L220.6,98.3l-100.3,0c-1.6,0-3.1-1-3.7-2.5s-0.3-3.2,0.8-4.4l69.7-70.9c1.5-1.5,3.9-1.6,5.5-0.2
					c22.7,19.4,33.4,44.3,32,74.1C224.5,96.6,222.8,98.3,220.6,98.3z M129.9,90.3l86.9,0c0.3-24.6-8.4-44.8-26.5-61.4L129.9,90.3z"
					/>
			</g>
		</g>
		<g>
			<g>
				<path class="st1" d="M89,223.7c-26.1,0-48.5-10.1-66.7-30.1c-1.4-1.6-1.4-4,0.1-5.5l70.9-71c1.1-1.1,2.9-1.5,4.3-0.9
					s2.5,2.1,2.5,3.7l0.8,99.5c0,2.1-1.6,3.9-3.7,4C94.5,223.5,91.7,223.7,89,223.7z M30.9,190.9C48,208.5,68.4,216.6,93,215.6
					l-0.7-86.1L30.9,190.9z"/>
			</g>
		</g>
		<g>
			<g>
				<path class="st1" d="M115.8,224c-1.7,0-3.4,0-5.2-0.1c-2.1-0.1-3.8-1.9-3.8-4l0-100.4c0-1.6,1-3.1,2.5-3.7s3.2-0.3,4.4,0.8
					l70.8,69.7c1.5,1.5,1.6,3.9,0.2,5.4C166.4,213.2,143.3,224,115.8,224z M114.8,216c0.4,0,0.8,0,1.2,0c24.1,0,43.8-8.7,60.2-26.6
					L114.8,129L114.8,216z"/>
			</g>
		</g>
	</g>
</g>
</svg>
