<?xml version="1.0" encoding="utf-8"?>
<!-- Generator: Adobe Illustrator 22.1.0, SVG Export Plug-In . SVG Version: 6.00 Build 0)  -->
<svg version="1.1" id="Layer_1" xmlns="http://www.w3.org/2000/svg" xmlns:xlink="http://www.w3.org/1999/xlink" x="0px" y="0px"
	 viewBox="0 0 256 256" style="enable-background:new 0 0 256 256;" xml:space="preserve">
<style type="text/css">
	.st0{fill:#F5B31F;}
	.st1{fill:#464646;}
	.st2{opacity:0.15;}
	.st3{fill:#AC6535;}
	.st4{fill:#EB573B;}
	.st5{fill:#90C056;}
	.st6{opacity:0.35;}
	.st7{fill:#FFFFFF;}
	.st8{opacity:0.2;}
	.st9{fill:#F6D67A;}
	.st10{opacity:0.3;}
	.st11{fill:#FFA755;}
	.st12{fill:#8FAE3C;}
	.st13{fill:#BE6BB2;}
	.st14{fill:#B7C536;}
	.st15{opacity:0.1;}
	.st16{fill:#9D5A96;}
	.st17{fill:#EA615D;}
	.st18{opacity:0.4;}
	.st19{fill:#F79932;}
	.st20{fill:#FFEC97;}
	.st21{fill:#FFD11D;}
	.st22{fill:#F7F2D5;}
	.st23{fill:#F6AF72;}
	.st24{fill:#BA6C45;}
	.st25{opacity:0.5;}
	.st26{fill:#E4C074;}
	.st27{fill:#656566;}
	.st28{fill:#FACD1F;}
	.st29{fill:#FFDF66;}
	.st30{fill:#6D6E71;}
	.st31{fill:#E77CAE;}
	.st32{fill:#FFE5C4;}
	.st33{fill:#F68455;}
	.st34{opacity:0.7;}
	.st35{fill:#ADEDFF;}
	.st36{fill:#EC754B;}
	.st37{fill:#4AA5BA;}
	.st38{opacity:0.8;}
	.st39{fill:#92A5AC;}
	.st40{fill:#D06E3C;}
	.st41{fill:#DA4F4B;}
	.st42{fill:#BDF3FF;}
	.st43{fill:#F18BB4;}
	.st44{fill:#F9D97A;}
	.st45{fill:none;}
	.st46{fill:#AF6535;}
	.st47{fill:#B93226;}
	.st48{fill:#FF6050;}
	.st49{fill:#EA7CB1;}
	.st50{fill:#00B0E0;}
	.st51{fill:#EA7DAE;}
	.st52{fill:#BC7532;}
	.st53{fill:#876C6C;}
	.st54{fill:#F9F6CD;}
	.st55{fill:#FFE37B;}
	.st56{fill:#1DDCFF;}
	.st57{fill:#60ACF7;}
	.st58{fill:#C3755A;}
	.st59{fill:#96557A;}
	.st60{fill:#66625D;}
	.st61{fill:#D68032;}
	.st62{fill:#F2A355;}
	.st63{fill:#7E9E6A;}
	.st64{fill:#965A85;}
	.st65{fill:#90CAD3;}
	.st66{fill:#94B57F;}
	.st67{fill:#B2E2E7;}
	.st68{fill:#FFDF8F;}
	.st69{fill:#FFFAEB;}
	.st70{fill:#F88916;}
	.st71{fill:#FFC86E;}
	.st72{fill:#AFA51D;}
	.st73{fill:#968A1C;}
	.st74{fill:#C3556D;}
</style>
<g>
	<g>
		<g>
			<path class="st0" d="M164.7,235.4c-18.3-2.9-37.7-12.9-47.4-15.8c-11.5-3.5-39.4,5.2-57.4,1.8c-4.6-0.9-8.5-2.5-11.4-5.3
				c-6.9-6.9-8.3-19.2-8.2-32.1c0.1-13.3,1.8-27.2,1-36.2c-0.2-2.4-1.1-4.5-2.3-6.5C32.2,131,13.3,125.8,6.5,116
				c-0.1,1.3-0.2,2.6-0.3,3.9l0,0.1c-0.2,2.6-0.3,5.1-0.3,7.8C5.9,194.2,59.8,248,126.2,248c18.8,0,36.6-4.3,52.5-12
				C174.2,236.5,169.5,236.2,164.7,235.4z M126.2,7.7C71.9,7.7,26,43.6,11.1,92.9c3.6-3.3,8.3-5.8,13.4-7.8
				c4.7-1.9,9.7-3.4,14.5-4.8c10.7-3.1,22-26.8,34.5-45.5c6.4-9.6,13.2-17.9,20.3-21.4l0,0c21-10.2,43,8.1,52.8,12.4
				c6.5,2.9,24.4-3,42.4-0.6C170.7,14.1,149.2,7.7,126.2,7.7z M219.1,179.7c-8,6.4-8.5,27.4-17.9,42c17.3-13.8,30.7-32.2,38.2-53.4
				C232.8,172.3,224.8,175.1,219.1,179.7z M227.3,62.8c0.1,10.5-5.7,18.5-6.9,22.9c-1,3.8-1.7,7.6-0.6,11.5c0.7,2.5,2.2,5,4.8,7.6
				c1.2,1.2,2.7,2.5,4.5,3.7c5.9,4.2,12.6,12.4,17.2,21.3c0-0.7,0-1.3,0-2C246.5,103.9,239.4,81.5,227.3,62.8z"/>
		</g>
	</g>
	<g class="st2">
		<g>
			<path class="st1" d="M57.4,221.9l14.7,9.2c0,0,30.1-4.4,41.2-3.2c11.1,1.2,49.9,12.6,49.9,12.6l4.7-15.5l-59.7-11.7L57.4,221.9z"
				/>
		</g>
	</g>
	<g class="st2">
		<g>
			<path class="st1" d="M15,85.1c0,0,20.3-12.8,23.9-15.9c3.6-3,43-50.6,43-50.6L47.1,85.1L15,85.1z"/>
		</g>
	</g>
	<g class="st2">
		<g>
			<path class="st1" d="M5.9,119.8c0,0,21.2,22.8,23.6,29.1s7.3,57.3,7.3,57.3l9.5-60.2L5.9,119.8z"/>
		</g>
	</g>
	<g>
		<g>
			<path class="st31" d="M246.4,129.8c-4.6-9-11.3-17.1-17.2-21.3c-1.8-1.2-3.3-2.5-4.5-3.7c-2.6-2.6-4.1-5.1-4.8-7.6
				c-1.1-3.9-0.5-7.7,0.6-11.5c1.2-4.4,7-12.4,6.9-22.9c-0.1-7.3-3-15.9-12.4-25.3c-7.7-7.7-16.8-11-26-12.2
				c-18-2.4-36,3.5-42.4,0.6c-9.7-4.4-31.8-22.6-52.8-12.4l0,0C86.6,17,79.9,25.2,73.5,34.8C60.9,53.5,49.6,77.2,39,80.3
				c-4.8,1.4-9.8,2.9-14.5,4.8c-5.1,2-9.8,4.5-13.4,7.8C6.8,96.8,4,101.8,4,108.5c0,2.8,0.9,5.3,2.5,7.5c6.8,9.8,25.8,15,32.5,25.3
				c1.3,2,2.1,4.1,2.3,6.5c0.8,9-0.9,22.9-1,36.2c-0.1,12.9,1.4,25.2,8.2,32.1c2.8,2.8,6.8,4.5,11.4,5.3c17.9,3.4,45.9-5.3,57.4-1.8
				c9.7,2.9,29.1,12.9,47.4,15.8c4.8,0.7,9.5,1,14,0.5c3.9-0.4,7.6-1.4,10.9-3.2c5.1-2.7,8.8-6.6,11.7-11.1
				c9.4-14.6,9.9-35.6,17.9-42c5.7-4.6,13.7-7.5,20.3-11.5c5.6-3.3,10.3-7.5,11.9-14.1C253.2,147.2,250.7,138.2,246.4,129.8z
				 M126.2,157.3c-16.3,0-29.5-13.2-29.5-29.5s13.2-29.4,29.5-29.4c16.3,0,29.5,13.2,29.5,29.5S142.5,157.3,126.2,157.3z"/>
		</g>
	</g>
	<g class="st6">
		<g>
			<path class="st7" d="M93.8,13.5C72.8,23.7,55.1,75.6,39,80.3C22.8,85,4,91,4,108.5C4,126,39.6,130,41.3,147.8
				c1.7,17.8-6.7,54.4,7.2,68.3c0,0-1.6-61.5,0-75.8c1.6-14.3-24.6-20.4-22.4-34.2s21.7-7.7,28.4-23.2S93.8,13.5,93.8,13.5z"/>
		</g>
	</g>
	<g class="st2">
		<g>
			<path class="st1" d="M237,110.8c0,0-6.7-11.8-8-15.5c-1.4-3.7-2.1-19.1-2.1-19.1l-8.4,25.5L237,110.8z"/>
		</g>
	</g>
	<g>
		<g>
			<g>
				<path class="st1" d="M112.9,43.2C112.9,43.2,112.9,43.2,112.9,43.2c-2.2,0-4-1.8-4-4l0-7.6c0-2.2,1.8-4,4-4c0,0,0,0,0,0
					c2.2,0,4,1.8,4,4l0,7.6C116.9,41.4,115.1,43.2,112.9,43.2z"/>
			</g>
		</g>
		<g>
			<g>
				<path class="st1" d="M164.5,70.8c-0.4,0-0.8-0.1-1.1-0.2l-8.1-2.4c-2.1-0.6-3.3-2.8-2.7-5c0.6-2.1,2.8-3.3,5-2.7l8.1,2.4
					c2.1,0.6,3.3,2.8,2.7,5C167.8,69.6,166.2,70.8,164.5,70.8z"/>
			</g>
		</g>
		<g>
			<g>
				<path class="st1" d="M197,64.6c-1.1,0-2.2-0.5-3-1.4l-7.1-8.1c-1.5-1.7-1.3-4.2,0.4-5.6c1.7-1.5,4.2-1.3,5.6,0.4l7.1,8.1
					c1.5,1.7,1.3,4.2-0.4,5.6C198.9,64.3,198,64.6,197,64.6z"/>
			</g>
		</g>
		<g>
			<g>
				<path class="st1" d="M186.6,105.7c-0.5,0-1.1-0.1-1.6-0.3l-7.6-3.3c-2-0.9-2.9-3.2-2.1-5.3c0.9-2,3.2-2.9,5.3-2.1l7.6,3.3
					c2,0.9,2.9,3.2,2.1,5.3C189.6,104.8,188.1,105.7,186.6,105.7z"/>
			</g>
		</g>
		<g>
			<g>
				<path class="st1" d="M215.1,138.6c-0.5,0-1.1-0.1-1.6-0.3c-2-0.9-2.9-3.3-2-5.3l3.3-7.5c0.9-2,3.3-2.9,5.3-2
					c2,0.9,2.9,3.3,2,5.3l-3.3,7.5C218.1,137.8,216.6,138.6,215.1,138.6z"/>
			</g>
		</g>
		<g>
			<g>
				<path class="st1" d="M183.9,157.2c-0.5,0-1.1-0.1-1.6-0.3c-2-0.9-2.9-3.3-2-5.3l3.8-8.5c0.9-2,3.3-2.9,5.3-2
					c2,0.9,2.9,3.3,2,5.3l-3.8,8.5C186.9,156.3,185.5,157.2,183.9,157.2z"/>
			</g>
		</g>
		<g>
			<g>
				<path class="st1" d="M183,191.9c-1.8,0-3.4-1.2-3.9-2.9c-0.6-2.1,0.7-4.3,2.8-4.9l13.8-3.8c2.1-0.6,4.3,0.7,4.9,2.8
					s-0.7,4.3-2.8,4.9l-13.8,3.8C183.7,191.8,183.3,191.9,183,191.9z"/>
			</g>
		</g>
		<g>
			<g>
				<path class="st1" d="M133.3,200.9L133.3,200.9c-2.2,0-4-1.8-4-4l0-12.8c0-2.2,1.8-4,4-4l0,0c2.2,0,4,1.8,4,4l0,12.8
					C137.3,199.1,135.5,200.9,133.3,200.9z"/>
			</g>
		</g>
		<g>
			<g>
				<path class="st1" d="M160.4,223c-1.4,0-2.7-0.7-3.4-1.9c-1.1-1.9-0.5-4.4,1.4-5.5l9.5-5.7c1.9-1.1,4.4-0.5,5.5,1.4
					c1.1,1.9,0.5,4.4-1.4,5.5l-9.5,5.7C161.8,222.8,161.1,223,160.4,223z"/>
			</g>
		</g>
		<g>
			<g>
				<path class="st1" d="M82,199c-1.2,0-2.4-0.6-3.2-1.6l-8.1-10.9c-1.3-1.8-0.9-4.3,0.8-5.6c1.8-1.3,4.3-0.9,5.6,0.8l8.1,10.9
					c1.3,1.8,0.9,4.3-0.8,5.6C83.6,198.7,82.8,199,82,199z"/>
			</g>
		</g>
		<g>
			<g>
				<path class="st1" d="M82,152.9c-0.5,0-1-0.1-1.5-0.3l-10.9-4.3c-2.1-0.8-3.1-3.1-2.3-5.2c0.8-2.1,3.1-3.1,5.2-2.3l10.9,4.3
					c2.1,0.8,3.1,3.1,2.3,5.2C85.1,151.9,83.6,152.9,82,152.9z"/>
			</g>
		</g>
		<g>
			<g>
				<path class="st1" d="M36.8,117.3L36.8,117.3c-2.2,0-4-1.8-4-4l0-9.5c0-2.2,1.8-4,4-4l0,0c2.2,0,4,1.8,4,4l0,9.5
					C40.8,115.5,39,117.3,36.8,117.3z"/>
			</g>
		</g>
		<g>
			<g>
				<path class="st1" d="M71,102.4c-1.5,0-2.9-0.8-3.6-2.2l-4.3-8.3c-1-2-0.2-4.4,1.7-5.4c2-1,4.4-0.2,5.4,1.7l4.3,8.3
					c1,2,0.2,4.4-1.7,5.4C72.3,102.2,71.7,102.4,71,102.4z"/>
			</g>
		</g>
		<g>
			<g>
				<path class="st1" d="M71,74.6c-0.7,0-1.3-0.2-1.9-0.5c-1.9-1.1-2.6-3.5-1.6-5.4l5.5-10c1.1-1.9,3.5-2.6,5.4-1.6
					c1.9,1.1,2.6,3.5,1.6,5.4l-5.5,10C73.8,73.8,72.5,74.6,71,74.6z"/>
			</g>
		</g>
		<g>
			<g>
				<path class="st1" d="M101,89.1c-0.7,0-1.4-0.2-2-0.5c-1.9-1.1-2.5-3.6-1.4-5.5l8.5-14.6c1.1-1.9,3.6-2.5,5.5-1.4
					c1.9,1.1,2.5,3.6,1.4,5.5l-8.5,14.6C103.7,88.4,102.3,89.1,101,89.1z"/>
			</g>
		</g>
	</g>
	<g class="st2">
		<g>
			<path class="st1" d="M37.6,101.5c0,0,6.3,0.9,6.3,3.8c0,3,0.9,8.3-1.6,10.2c-2.5,1.9-5.4,1.1-5.4,1.1L37.6,101.5z"/>
		</g>
	</g>
	<g class="st2">
		<g>
			<path class="st1" d="M67.4,86.8c0,0,5.2,2.2,6.8,4.4c1.6,2.2,5.2,6.9,3.8,9.2c-1.4,2.3-6.4,1.4-6.4,1.4L67.4,86.8z"/>
		</g>
	</g>
	<g class="st2">
		<g>
			<path class="st1" d="M79.5,58.5c0,0,4.2,2.3,3.3,5.4s-6.4,12.5-9,11.8c-2.5-0.7-2.8,0.1-4.9-2.1S79.5,58.5,79.5,58.5z"/>
		</g>
	</g>
	<g class="st2">
		<g>
			<path class="st1" d="M73.9,181.8c0,0,7.2-2.5,9,0s7.2,10.6,5.9,12.5c-1.3,1.9-4.2,4.7-6.9,3.9C79.3,197.4,73.9,181.8,73.9,181.8z
				"/>
		</g>
	</g>
	<g class="st2">
		<g>
			<path class="st1" d="M134.7,181.2c0,0,6.4,2,6.7,4.8c0.2,2.8,0.6,14.2-1.6,15.1c-2.2,0.9-6.7,0.7-7.6-1.6
				C131.3,197.3,134.7,181.2,134.7,181.2z"/>
		</g>
	</g>
	<g class="st2">
		<g>
			<path class="st1" d="M173.2,211.8c0,0,4.2,2.1,4.2,4.4c0,2.3-9.9,10.8-12.6,9.7c-2.7-1-6.7-1.6-6.7-4.6
				C158.1,218.3,173.2,211.8,173.2,211.8z"/>
		</g>
	</g>
	<g class="st2">
		<g>
			<path class="st1" d="M180.7,189c0,0,0.4,5.6,5.6,6.6c5.2,1,15.4-4,16.3-6.6c0.9-2.5,0.2-5.2-3.4-6.2S180.7,189,180.7,189z"/>
		</g>
	</g>
	<g class="st2">
		<g>
			<path class="st1" d="M183,156.4c0,0,6.8,3.1,8.8,0s5.3-9.8,3.9-11.2c-1.5-1.4-3.8-3.8-5.8-3C187.9,142.9,183,156.4,183,156.4z"/>
		</g>
	</g>
	<g class="st2">
		<g>
			<path class="st1" d="M213.6,138c0,0,6.7,2.1,8.1,0c1.4-2.1,4.9-9,3.8-11.3c-1.2-2.4-4.9-3.5-5.9-2.1
				C218.7,125.9,213.6,138,213.6,138z"/>
		</g>
	</g>
	<g class="st2">
		<g>
			<path class="st1" d="M99.3,88.3c0,0,5,3.4,7.2,2.4c2.2-1,12.3-15.6,11.4-18.2c-0.9-2.6-4-4.9-6.5-4.4
				C108.9,68.6,99.3,88.3,99.3,88.3z"/>
		</g>
	</g>
	<g class="st2">
		<g>
			<path class="st1" d="M112.9,28.2c0,0,5.7-0.2,7.4,1.7c1.7,2,3,11.7-0.6,12.3c-3.6,0.6-6.8,0-6.8,0L112.9,28.2z"/>
		</g>
	</g>
	<g class="st2">
		<g>
			<path class="st1" d="M189.2,50.5c0,0,7.3-3.7,9.6-0.7c2.3,3,7.4,8.5,6,10.8c-1.4,2.3-10.1,2.3-10.1,2.3L189.2,50.5z"/>
		</g>
	</g>
	<g class="st2">
		<g>
			<path class="st1" d="M83,145.3c0,0,6.3,1.8,6.5,3.6c0.2,1.7-0.7,5.7-3.3,5.7c-2.5,0-6.1-2.8-6.1-2.8L83,145.3z"/>
		</g>
	</g>
	<g class="st2">
		<g>
			<path class="st1" d="M183.9,104.8c0,0,7.7,3.9,9.5,2.3s2.4-3.7,1.5-5.4c-0.9-1.7-7.2-3.3-7.2-3.3L183.9,104.8z"/>
		</g>
	</g>
	<g class="st2">
		<g>
			<path class="st1" d="M160.9,69.8c0,0,6.5,1.9,8.6,1.3c2.1-0.6,3.4-5.1,1.8-5.9s-6.9-1.9-6.9-1.9L160.9,69.8z"/>
		</g>
	</g>
	<g>
		<g>
			<path class="st1" d="M126.2,252C126.2,252,126.2,252,126.2,252C93,252,61.8,239,38.3,215.6C14.8,192.1,1.9,161,1.9,127.8
				c0-2.6,0.1-5.2,0.3-7.9c0-0.1,0-0.2,0-0.2c0.1-1.4,0.2-2.7,0.3-4c0.2-1.7,1.3-3.1,3-3.5c1.6-0.4,3.3,0.2,4.3,1.6
				c2.8,4.1,8.8,7.6,14.6,11c6.9,4.1,14,8.3,18,14.4c1.7,2.6,2.7,5.4,3,8.3c0.5,5.6,0.1,12.8-0.3,20.5c-0.3,5.3-0.6,10.8-0.7,16.1
				c-0.1,9.5,0.6,22.8,7,29.2c2.1,2.1,5.1,3.5,9.3,4.2c8.7,1.6,20.5,0.2,30.9-1.1c11-1.4,20.5-2.5,26.9-0.6c3.3,1,7.4,2.7,12.2,4.6
				c10.1,4.1,22.6,9.2,34.6,11.1l0,0c4.8,0.7,9.1,0.9,12.9,0.5c1.9-0.2,3.7,1,4.3,2.9c0.5,1.9-0.3,3.9-2.1,4.7
				C163.4,247.8,145.2,252,126.2,252z M64.1,226c18.4,11.7,39.8,17.9,62.1,17.9c0,0,0,0,0,0c11.9,0,23.4-1.7,34.5-5.2
				c-11.8-2.3-23.4-7.1-33-10.9c-4.6-1.9-8.6-3.5-11.5-4.4c-4.8-1.4-13.9-0.3-23.6,0.9C83.3,225.5,73,226.8,64.1,226z M9.9,125
				c0,0.9,0,1.9,0,2.8c0,28.1,9.9,54.6,28.1,75.7c-1.4-6.4-1.7-13.3-1.6-19.5c0-5.6,0.4-11.1,0.7-16.5c0.4-7.3,0.8-14.3,0.3-19.3
				c-0.1-1.6-0.7-3.1-1.7-4.7c-2.9-4.5-9.3-8.2-15.4-11.9C16.7,129.5,13.1,127.4,9.9,125z M201.3,225.7c-1,0-1.9-0.3-2.7-1
				c-1.5-1.3-1.7-3.5-0.7-5.1c4.2-6.5,6.6-14.8,8.7-22c2.6-9,4.9-16.8,10-20.9c0,0,0,0,0,0c3.8-3.1,8.5-5.4,12.9-7.6
				c2.7-1.3,5.4-2.7,7.8-4.2c1.4-0.9,3.3-0.7,4.6,0.3c1.3,1.1,1.8,2.8,1.2,4.4c-7.7,21.7-21.4,40.8-39.5,55.2
				C203,225.4,202.1,225.7,201.3,225.7z M221.6,182.8c-3.2,2.6-5.2,9.5-7.3,16.9c-0.6,1.9-1.1,3.9-1.7,5.9
				c7.8-8.6,14.2-18.2,19.1-28.7C227.9,178.8,224.4,180.6,221.6,182.8z M246.4,133.8c-1.5,0-2.9-0.8-3.6-2.2
				c-4.2-8.2-10.5-16-16-19.9c-1.9-1.3-3.6-2.7-5-4.2c-2.9-2.9-4.8-5.9-5.8-9.3c-1.5-5-0.6-9.5,0.5-13.7c0.4-1.6,1.2-3.3,2.2-5.3
				c2.1-4.4,4.6-9.9,4.5-16.5c0-1.8,1.1-3.4,2.8-3.9c1.7-0.5,3.5,0.2,4.5,1.7c12.9,20,19.8,43.3,19.8,67.2c0,0.7,0,1.4,0,2.1
				c0,1.8-1.3,3.4-3.1,3.8C247,133.8,246.7,133.8,246.4,133.8z M229.5,74.4c-1.1,3.3-2.4,6.1-3.4,8.3c-0.7,1.6-1.5,3.1-1.7,4
				c-1,3.5-1.4,6.5-0.6,9.3c0.6,2,1.9,4,3.8,5.9c1.1,1.1,2.4,2.2,4,3.3c3.4,2.4,7,5.9,10.3,10C240.3,101,236.1,87.1,229.5,74.4z
				 M11.1,96.9c-0.7,0-1.5-0.2-2.1-0.6c-1.5-1-2.2-2.8-1.7-4.5c7.6-25,23.3-47.4,44.2-63.2C73.2,12.3,99,3.7,126.2,3.7c0,0,0,0,0,0
				c22.9,0,45.4,6.3,64.8,18.2c1.6,1,2.3,3,1.7,4.7c-0.6,1.8-2.4,2.9-4.3,2.6c-8.9-1.2-18.2-0.2-25.6,0.6
				c-7.7,0.8-13.8,1.5-17.9-0.3c-2.1-0.9-4.5-2.4-7.4-4c-10.7-6.3-27-15.7-41.9-8.5c0,0-0.1,0.1-0.1,0.1c-7.1,3.5-14.1,13.1-18.7,20
				c-3.2,4.8-6.4,10.1-9.5,15.2c-9.6,15.7-17.8,29.2-27.2,31.9c-4.7,1.4-9.6,2.9-14.1,4.7c-5.3,2.1-9.3,4.4-12.2,7.1
				C13,96.6,12,96.9,11.1,96.9z M77.8,22.1c-7.5,3.5-14.8,7.8-21.5,12.9C39.8,47.4,26.7,64.3,18.8,83.2c1.3-0.6,2.7-1.2,4.2-1.8
				c4.8-2,10-3.5,14.9-4.9c6.4-1.9,15-16,22.6-28.4c3.1-5.1,6.4-10.5,9.7-15.4C72.8,28.6,75.4,25.1,77.8,22.1z M128.5,11.7
				c5,2.2,9.4,4.8,13,6.9c2.6,1.5,4.9,2.9,6.6,3.6c2.1,0.9,8,0.3,13.8-0.3c3.1-0.3,6.4-0.7,10-0.9C158.2,15.2,143.5,12,128.5,11.7z"
				/>
		</g>
	</g>
	<g>
		<g>
			<path class="st1" d="M174,240.2c-3.1,0-6.4-0.3-9.9-0.8c-12.9-2-25.9-7.3-36.4-11.5c-4.6-1.9-8.6-3.5-11.5-4.4
				c-4.8-1.4-13.9-0.3-23.6,0.9c-11,1.4-23.5,2.9-33.4,1c-5.7-1.1-10.2-3.2-13.5-6.4c-8.5-8.5-9.5-23.1-9.4-35
				c0-5.6,0.4-11.1,0.7-16.5c0.4-7.3,0.8-14.3,0.3-19.3c-0.1-1.6-0.7-3.1-1.7-4.7c-2.9-4.5-9.3-8.2-15.4-11.9
				c-6.5-3.9-13.2-7.9-17.1-13.3c-2.1-3-3.2-6.3-3.2-9.8c0-7.3,2.8-13.5,8.4-18.6c3.6-3.3,8.4-6.1,14.6-8.6c4.8-2,10-3.5,14.9-4.9
				c6.4-1.9,15-16,22.6-28.4c3.1-5.1,6.4-10.5,9.7-15.4C78.4,20.3,85.1,13.3,91.8,10c0.1,0,0.1-0.1,0.2-0.1
				c18.8-9.1,38.1,2.1,49.6,8.7c2.6,1.5,4.9,2.9,6.6,3.6c2.1,0.9,8,0.3,13.8-0.3c7.9-0.8,17.6-1.9,27.5-0.6
				c11.6,1.5,20.8,5.9,28.3,13.4c8.9,8.9,13.5,18.3,13.6,28.1c0.1,8.4-3.1,15.3-5.3,19.9c-0.7,1.6-1.5,3.1-1.7,4
				c-1,3.5-1.4,6.5-0.6,9.3c0.6,2,1.9,4,3.8,5.9c1.1,1.1,2.4,2.2,4,3.3c6.6,4.6,13.6,13.4,18.5,22.8c5.3,10.3,7.2,19.9,5.3,27.2
				c-2.2,8.7-8.9,13.6-13.8,16.5c-2.7,1.6-5.6,3.1-8.4,4.5c-4.3,2.1-8.4,4.2-11.5,6.7c-3.2,2.6-5.2,9.5-7.3,16.9
				c-2.3,7.8-4.8,16.6-9.7,24.1c-3.6,5.6-7.9,9.6-13.2,12.4c-3.6,1.9-7.7,3.1-12.3,3.7C177.4,240.1,175.7,240.2,174,240.2z
				 M109.9,214.8c3.2,0,6.1,0.3,8.5,1c3.3,1,7.4,2.7,12.2,4.6c10.1,4.1,22.7,9.2,34.6,11.1c4.8,0.7,9.1,0.9,12.9,0.5
				c3.6-0.4,6.8-1.3,9.5-2.8c4-2.1,7.4-5.3,10.2-9.7c4.2-6.5,6.6-14.8,8.7-22c2.6-9,4.9-16.8,10-20.9c3.8-3.1,8.5-5.4,12.9-7.6
				c2.7-1.3,5.4-2.7,7.8-4.2c5.9-3.5,9-7,10.1-11.6c1.4-5.3-0.3-13.1-4.6-21.5c0,0,0,0,0,0c-4.2-8.2-10.5-16-16-19.9
				c-1.9-1.3-3.6-2.7-5-4.2c-2.9-2.9-4.8-5.9-5.8-9.3c-1.5-5-0.6-9.5,0.5-13.7c0.4-1.6,1.2-3.3,2.2-5.3c2.1-4.4,4.6-9.9,4.5-16.5
				c-0.1-7.7-3.8-15-11.2-22.5c-6.2-6.2-13.9-9.8-23.7-11.1c-8.9-1.2-18.2-0.2-25.6,0.6c-7.7,0.8-13.8,1.5-17.9-0.3
				c-2.1-0.9-4.5-2.4-7.4-4c-10.7-6.3-27-15.7-41.9-8.5c0,0-0.1,0.1-0.1,0.1c-7.1,3.5-14.1,13.1-18.7,20c-3.2,4.8-6.4,10.1-9.5,15.2
				c-9.6,15.7-17.8,29.2-27.2,31.9c-4.7,1.4-9.6,2.9-14.1,4.7c-5.3,2.1-9.3,4.4-12.2,7.1C9.9,99.4,8,103.5,8,108.5
				c0,1.8,0.6,3.5,1.8,5.2c2.8,4.1,8.8,7.6,14.6,11c6.9,4.1,14,8.3,18,14.4c1.7,2.6,2.7,5.4,3,8.3c0.5,5.6,0.1,12.8-0.3,20.5
				c-0.3,5.3-0.6,10.8-0.7,16.1c-0.1,9.5,0.6,22.8,7,29.2c2.1,2.1,5.1,3.5,9.3,4.2c8.7,1.6,20.5,0.2,30.9-1.1
				C98.4,215.6,104.6,214.8,109.9,214.8z M126.2,161.3C126.2,161.3,126.2,161.3,126.2,161.3c-8.9,0-17.3-3.5-23.7-9.8
				c-6.3-6.3-9.8-14.7-9.8-23.7c0-18.4,15-33.4,33.5-33.4c0,0,0,0,0,0c8.9,0,17.3,3.5,23.7,9.8c6.3,6.3,9.8,14.7,9.8,23.7
				C159.7,146.3,144.6,161.3,126.2,161.3z M126.2,153.3c14,0,25.5-11.4,25.5-25.4c0-6.8-2.6-13.2-7.5-18c-4.8-4.8-11.2-7.5-18-7.5
				c-14,0-25.5,11.4-25.5,25.4c0,6.8,2.6,13.2,7.5,18C113,150.6,119.4,153.3,126.2,153.3z"/>
		</g>
	</g>
</g>
</svg>
