<?xml version="1.0" encoding="utf-8"?>
<!-- Generator: Adobe Illustrator 22.1.0, SVG Export Plug-In . SVG Version: 6.00 Build 0)  -->
<svg version="1.1" id="Layer_1" xmlns="http://www.w3.org/2000/svg" xmlns:xlink="http://www.w3.org/1999/xlink" x="0px" y="0px"
	 viewBox="0 0 256 256" style="enable-background:new 0 0 256 256;" xml:space="preserve">
<style type="text/css">
	.st0{fill:#F5B31F;}
	.st1{fill:#464646;}
	.st2{opacity:0.15;}
	.st3{fill:#AC6535;}
	.st4{fill:#EB573B;}
	.st5{fill:#90C056;}
	.st6{opacity:0.35;}
	.st7{fill:#FFFFFF;}
	.st8{opacity:0.2;}
	.st9{fill:#F6D67A;}
	.st10{opacity:0.3;}
	.st11{fill:#FFA755;}
	.st12{fill:#8FAE3C;}
	.st13{fill:#BE6BB2;}
	.st14{fill:#B7C536;}
	.st15{opacity:0.1;}
	.st16{fill:#9D5A96;}
	.st17{fill:#EA615D;}
	.st18{opacity:0.4;}
	.st19{fill:#F79932;}
	.st20{fill:#FFEC97;}
	.st21{fill:#FFD11D;}
	.st22{fill:#F7F2D5;}
	.st23{fill:#F6AF72;}
	.st24{fill:#BA6C45;}
	.st25{opacity:0.5;}
	.st26{fill:#E4C074;}
	.st27{fill:#656566;}
	.st28{fill:#FACD1F;}
	.st29{fill:#FFDF66;}
	.st30{fill:#6D6E71;}
	.st31{fill:#E77CAE;}
	.st32{fill:#FFE5C4;}
	.st33{fill:#F68455;}
	.st34{opacity:0.7;}
	.st35{fill:#ADEDFF;}
	.st36{fill:#EC754B;}
	.st37{fill:#4AA5BA;}
	.st38{opacity:0.8;}
	.st39{fill:#92A5AC;}
	.st40{fill:#D06E3C;}
	.st41{fill:#DA4F4B;}
	.st42{fill:#BDF3FF;}
	.st43{fill:#F18BB4;}
	.st44{fill:#F9D97A;}
	.st45{fill:none;}
	.st46{fill:#AF6535;}
	.st47{fill:#B93226;}
	.st48{fill:#FF6050;}
	.st49{fill:#EA7CB1;}
	.st50{fill:#00B0E0;}
	.st51{fill:#EA7DAE;}
	.st52{fill:#BC7532;}
	.st53{fill:#876C6C;}
	.st54{fill:#F9F6CD;}
	.st55{fill:#FFE37B;}
	.st56{fill:#1DDCFF;}
	.st57{fill:#60ACF7;}
	.st58{fill:#C3755A;}
	.st59{fill:#96557A;}
	.st60{fill:#66625D;}
	.st61{fill:#D68032;}
	.st62{fill:#F2A355;}
	.st63{fill:#7E9E6A;}
	.st64{fill:#965A85;}
	.st65{fill:#90CAD3;}
	.st66{fill:#94B57F;}
	.st67{fill:#B2E2E7;}
	.st68{fill:#FFDF8F;}
	.st69{fill:#FFFAEB;}
	.st70{fill:#F88916;}
	.st71{fill:#FFC86E;}
	.st72{fill:#AFA51D;}
	.st73{fill:#968A1C;}
	.st74{fill:#C3556D;}
</style>
<g>
	<g>
		<g>
			<g>
				<path class="st24" d="M182.8,128.5c0,38.2-37.8,68.5-54.8,68.5c-17,0-54.8-30.4-54.8-68.5c0-27.6,18.5-56.5,36.1-70.4
					c6.4-5,12.7-8.1,17.9-8.4c0.3,0,0.6,0,0.8,0c0.3,0,0.6,0,0.8,0c5.2,0.3,11.5,3.3,17.9,8.4C164.3,72,182.8,100.9,182.8,128.5z"/>
			</g>
		</g>
	</g>
	<g class="st15">
		<g>
			<g>
				<path d="M146.7,58.1c17.6,13.9,36.1,42.8,36.1,70.4c0,38.2-37.8,68.5-54.8,68.5c-7.6,0-19.2-6-29.9-16.1c0,0,24.6,18.4,52-15
					S146.7,58.1,146.7,58.1z"/>
			</g>
		</g>
	</g>
	<g class="st10">
		<g>
			<g>
				<path class="st7" d="M146.7,58.1c-6.4-5-12.7-8.1-17.9-8.4c-0.3,0-0.6,0-0.8,0c-0.3,0-0.6,0-0.8,0c-5.2,0.3-11.5,3.3-17.9,8.4
					C91.7,72,73.2,100.9,73.2,128.5c0,18.2,8.6,34.7,19.5,46.9c0,0-23.6-37.7,2.5-81.7S146.7,58.1,146.7,58.1z"/>
			</g>
		</g>
	</g>
	<g>
		<g>
			<g>
				<path class="st71" d="M194.8,13.5C164,11,149.2,36.8,146.7,58.1c-6.4-5-12.7-8.1-17.9-8.4c-0.3,0-0.6,0-0.8,0
					c-0.3,0-0.6,0-0.8,0c-5.2,0.3-11.5,3.3-17.9,8.4C106.8,36.8,92,11,61.3,13.5c13-6,28.3-9.4,46.2-9.4l41,0
					C166.4,4,181.8,7.5,194.8,13.5z"/>
			</g>
		</g>
	</g>
	<g>
		<g>
			<g>
				<path class="st0" d="M148.5,252c-7.2,0-11.7-4.2-20.5-4.2c-8.8,0-13.3,4.2-20.5,4.2C1.7,252-36.3,58.8,61.2,13.5h0
					c30.8-2.4,45.5,23.3,48,44.6C91.7,72,73.2,100.9,73.2,128.5c0,38.2,37.8,68.5,54.8,68.5c17,0,54.8-30.4,54.8-68.5
					c0-27.6-18.5-56.5-36.1-70.4c2.5-21.4,17.3-47.1,48.1-44.6h0C292.3,58.8,254.3,252.1,148.5,252z"/>
			</g>
		</g>
	</g>
	<g class="st25">
		<g>
			<g>
				<path class="st7" d="M109.3,58.1C106.8,36.8,92,11,61.3,13.5h0C2.3,40.9-7.2,122.3,18,182.5C4.9,72.6,52,0.2,109.3,58.1z"/>
			</g>
		</g>
	</g>
	<g class="st15">
		<g>
			<g>
				<path d="M194.8,13.5c97.6,45.4,59.5,238.6-46.3,238.6c-7.2,0-11.7-4.2-20.5-4.2c0,0,50.5-1.1,88-81.8S194.8,13.5,194.8,13.5z"/>
			</g>
		</g>
	</g>
	<g>
		<g>
			<g>
				<path class="st1" d="M148.5,256C148.5,256,148.5,256,148.5,256C148.5,256,148.5,256,148.5,256c-4.1,0-7.4-1.1-10.5-2.2
					c-3.1-1.1-6-2.1-10-2.1c-4,0-6.9,1-10,2.1c-3.1,1.1-6.4,2.2-10.5,2.2c-25.2,0-48.5-10.6-67.2-30.7
					c-16.6-17.9-29.1-42.9-35.2-70.5c-6.4-29.1-5.4-59,2.9-84.3c9.3-28.4,27.2-49.4,51.6-60.7c0.5-0.2,1-0.3,1.5-0.4
					c31.7-2.5,49.3,23.2,52.3,48.2c0.2,1.4-0.4,2.7-1.5,3.6C95,74.5,77.2,102.5,77.2,128.5c0,21.3,12.5,37.9,20,45.8
					c11.5,12.3,24.2,18.7,30.8,18.7s19.4-6.4,30.8-18.7c7.5-8,20-24.5,20-45.8c0-26-17.8-54-34.6-67.2c-1.1-0.9-1.7-2.2-1.5-3.6
					c2.9-25,20.6-50.7,52.3-48.2c0.5,0,1,0.2,1.4,0.4c24.4,11.4,42.2,32.3,51.6,60.7c8.3,25.3,9.3,55.2,2.9,84.3
					c-6.1,27.6-18.6,52.6-35.2,70.5C197,245.4,173.7,256,148.5,256z M148.5,248C148.5,248,148.5,248,148.5,248
					c23,0,44.2-9.7,61.3-28.2c15.7-16.8,27.5-40.5,33.3-66.8c6.1-27.7,5.2-56.1-2.7-80.1c-8.5-26-24.7-45.2-46.7-55.6
					c-14.1-0.8-38,6.5-42.8,39c18.1,15.2,35.8,44.2,35.8,72.1c0,39.7-38.9,72.5-58.8,72.5c0,0,0,0,0,0c-10.1,0-24.8-8.5-36.7-21.2
					c-8.3-8.8-22.1-27.2-22.1-51.3c0-27.9,17.7-56.9,35.8-72.1c-4.8-32.5-28.6-39.8-42.8-39c-22,10.5-38.2,29.7-46.7,55.6
					c-7.9,23.9-8.8,52.3-2.7,80.1c5.8,26.2,17.6,49.9,33.3,66.8c17.2,18.4,38.4,28.2,61.3,28.2c2.8,0,5.2-0.8,7.9-1.7
					c3.4-1.2,7.3-2.5,12.6-2.5c5.3,0,9.2,1.3,12.6,2.5C143.3,247.2,145.7,248,148.5,248L148.5,248z"/>
			</g>
		</g>
	</g>
	<g>
		<g>
			<g>
				<path class="st1" d="M146.7,62.1c-0.9,0-1.8-0.3-2.5-0.9c-5.9-4.6-11.4-7.3-15.6-7.5c-0.5,0-0.8,0-1.1,0
					c-4.3,0.2-9.9,2.9-15.7,7.5c-1.1,0.9-2.7,1.1-4,0.6c-1.3-0.6-2.3-1.8-2.4-3.2C103.4,42.2,92,15.1,61.6,17.5
					c-1.9,0.2-3.7-1.1-4.2-3c-0.5-1.9,0.4-3.8,2.2-4.6C73.6,3.3,89.7,0,107.5,0c0,0,0,0,0,0l41,0c17.8,0,33.9,3.3,47.9,9.8
					c1.8,0.8,2.7,2.8,2.2,4.6s-2.3,3.1-4.2,3c-14.3-1.1-39.7,6.2-43.8,41.1c-0.2,1.4-1.1,2.7-2.4,3.2
					C147.7,62,147.2,62.1,146.7,62.1z M128,45.7c0.4,0,0.8,0,1.1,0c4.4,0.2,9.4,2.1,14.7,5.4c3.8-17.5,14.9-34.1,33.1-39.8
					C168.1,9.2,158.6,8,148.5,8l-41,0c0,0,0,0,0,0c-10.1,0-19.6,1.1-28.4,3.3c18.1,5.7,29.2,22.3,33,39.8c5.3-3.3,10.3-5.2,14.8-5.4
					C127.3,45.7,127.6,45.7,128,45.7z"/>
			</g>
		</g>
	</g>
	<g>
		<g>
			<g>
				<path class="st1" d="M128,201C128,201,128,201,128,201c-10.1,0-24.8-8.5-36.7-21.2c-8.3-8.8-22.1-27.2-22.1-51.3
					c0-28.8,18.9-58.8,37.6-73.5c7.3-5.7,14.2-8.9,20.1-9.2c0.6,0,1.4-0.1,2.2,0c5.8,0.3,12.8,3.5,20,9.2
					c18.7,14.7,37.6,44.7,37.6,73.5l0,0C186.8,168.2,147.9,201,128,201z M128,53.7c-0.2,0-0.3,0-0.5,0c-4.3,0.2-9.9,2.9-15.7,7.5
					C95,74.5,77.2,102.5,77.2,128.5c0,21.3,12.5,37.9,20,45.8c11.5,12.3,24.2,18.7,30.8,18.7s19.4-6.4,30.8-18.7
					c7.5-8,20-24.5,20-45.8c0-26-17.8-54-34.6-67.2c-5.9-4.6-11.4-7.3-15.6-7.5C128.4,53.7,128.2,53.7,128,53.7z M182.8,128.5
					L182.8,128.5L182.8,128.5z"/>
			</g>
		</g>
	</g>
	<g>
		<g>
			<g>
				<path class="st1" d="M100.9,157c-1.5,0-2.9-0.8-3.6-2.3c-9.3-19.3-8-40.5,4-63c1-1.9,3.5-2.7,5.4-1.7c2,1,2.7,3.5,1.7,5.4
					c-10.8,20.4-12.1,38.6-3.8,55.7c1,2,0.1,4.4-1.9,5.3C102.1,156.9,101.5,157,100.9,157z"/>
			</g>
		</g>
	</g>
</g>
</svg>
