<?xml version="1.0" encoding="utf-8"?>
<!-- Generator: Adobe Illustrator 22.1.0, SVG Export Plug-In . SVG Version: 6.00 Build 0)  -->
<svg version="1.1" id="Layer_1" xmlns="http://www.w3.org/2000/svg" xmlns:xlink="http://www.w3.org/1999/xlink" x="0px" y="0px"
	 viewBox="0 0 256 256" style="enable-background:new 0 0 256 256;" xml:space="preserve">
<style type="text/css">
	.st0{fill:#F5B31F;}
	.st1{fill:#464646;}
	.st2{opacity:0.15;}
	.st3{fill:#AC6535;}
	.st4{fill:#EB573B;}
	.st5{fill:#90C056;}
	.st6{opacity:0.35;}
	.st7{fill:#FFFFFF;}
	.st8{opacity:0.2;}
	.st9{fill:#F6D67A;}
	.st10{opacity:0.3;}
	.st11{fill:#FFA755;}
	.st12{fill:#8FAE3C;}
	.st13{fill:#BE6BB2;}
	.st14{fill:#B7C536;}
	.st15{opacity:0.1;}
	.st16{fill:#9D5A96;}
	.st17{fill:#EA615D;}
	.st18{opacity:0.4;}
	.st19{fill:#F79932;}
	.st20{fill:#FFEC97;}
	.st21{fill:#FFD11D;}
	.st22{fill:#F7F2D5;}
	.st23{fill:#F6AF72;}
	.st24{fill:#BA6C45;}
	.st25{opacity:0.5;}
	.st26{fill:#E4C074;}
	.st27{fill:#656566;}
	.st28{fill:#FACD1F;}
	.st29{fill:#FFDF66;}
	.st30{fill:#6D6E71;}
	.st31{fill:#E77CAE;}
	.st32{fill:#FFE5C4;}
	.st33{fill:#F68455;}
	.st34{opacity:0.7;}
	.st35{fill:#ADEDFF;}
	.st36{fill:#EC754B;}
	.st37{fill:#4AA5BA;}
	.st38{opacity:0.8;}
	.st39{fill:#92A5AC;}
	.st40{fill:#D06E3C;}
	.st41{fill:#DA4F4B;}
	.st42{fill:#BDF3FF;}
	.st43{fill:#F18BB4;}
	.st44{fill:#F9D97A;}
	.st45{fill:none;}
	.st46{fill:#AF6535;}
	.st47{fill:#B93226;}
	.st48{fill:#FF6050;}
	.st49{fill:#EA7CB1;}
	.st50{fill:#00B0E0;}
	.st51{fill:#EA7DAE;}
	.st52{fill:#BC7532;}
	.st53{fill:#876C6C;}
	.st54{fill:#F9F6CD;}
	.st55{fill:#FFE37B;}
	.st56{fill:#1DDCFF;}
	.st57{fill:#60ACF7;}
	.st58{fill:#C3755A;}
	.st59{fill:#96557A;}
	.st60{fill:#66625D;}
	.st61{fill:#D68032;}
	.st62{fill:#F2A355;}
	.st63{fill:#7E9E6A;}
	.st64{fill:#965A85;}
	.st65{fill:#90CAD3;}
	.st66{fill:#94B57F;}
	.st67{fill:#B2E2E7;}
	.st68{fill:#FFDF8F;}
	.st69{fill:#FFFAEB;}
	.st70{fill:#F88916;}
	.st71{fill:#FFC86E;}
	.st72{fill:#AFA51D;}
	.st73{fill:#968A1C;}
	.st74{fill:#C3556D;}
</style>
<g>
	<g>
		<g>
			<path class="st39" d="M203,94.6c-2.3,0-4.5,0.4-6.7,1.1c-3.1-3.6-7-6.4-11.4-7.9c10.4-21.9,34.1-67.1,49.1-57
				C247.8,40,220.4,74.8,203,94.6z"/>
		</g>
	</g>
	<g class="st8">
		<g>
			<path class="st1" d="M206.8,90.3c-2,2.4-1.9,2.2-3.8,4.3c-2.3,0-4.5,0.4-6.7,1.1c-3.1-3.6-7-6.4-11.4-7.9c1.4-2.9,3-6.3,4.8-9.8
				C197.2,80.7,202.9,84.8,206.8,90.3z"/>
		</g>
	</g>
	<g>
		<g>
			<path class="st21" d="M252,133.1c0,125.2-248,125.2-248,0L252,133.1z"/>
		</g>
	</g>
	<g class="st25">
		<g>
			<path class="st7" d="M252,133.1l-248,0c0,32.8,17,57,42.1,72.6c0,0-41.6-32.5-23.7-53.8S252,133.1,252,133.1z"/>
		</g>
	</g>
	<g class="st8">
		<g>
			<path class="st1" d="M252,133.1c0,90.2-128.6,115.4-200.6,75.7c0,0,94.1,18.7,140.2-6.4S252,133.1,252,133.1z"/>
		</g>
	</g>
	<g>
		<g>
			<path class="st54" d="M243.8,133.1l-232.3,0c0-15.3,10.2-27.9,23.5-30.3c4.4-3.3,9.7-5.4,15.5-5.5c4.7-7.6,12.5-12.8,21.4-13.4
				C80.2,72.4,93,65,107.4,65c12.1,0,23,5.2,31.2,13.6c0.8-0.1,1.6-0.1,2.5-0.1c9.5,0,18.1,4.3,24.2,11.3c3.6-2,7.7-3.2,12-3.2
				c2.7,0,5.3,0.5,7.7,1.3c4.4,1.5,8.4,4.2,11.4,7.9c2.1-0.7,4.4-1,6.7-1.1l0.4,0c12.2,0,22.5,9.2,25.4,21.6
				C235.8,119.2,241.3,125.4,243.8,133.1z"/>
		</g>
	</g>
	<g class="st8">
		<g>
			<path class="st1" d="M239.9,124.7c1.2,2,3.2,6.1,4,8.4l-232.3,0c0-2.4,0.3-5.8,0.8-8.1L239.9,124.7z"/>
		</g>
	</g>
	<g>
		<g>
			<path class="st1" d="M243.8,137.1L243.8,137.1l-232.3,0c-1.1,0-2.1-0.4-2.8-1.2c-0.8-0.8-1.2-1.8-1.2-2.8
				c0-16.7,10.8-30.9,25.8-34.1c4.5-3.2,9.6-5.1,14.9-5.6c5.3-7.4,12.9-12.2,21.4-13.3C79.1,67.9,92.8,61,107.4,61c0,0,0,0,0,0
				c12.1,0,23.7,4.8,32.7,13.5c9.7-0.3,18.8,3.4,25.9,10.4c6.4-2.7,13.6-3,20.1-0.8c4.3,1.4,8.2,3.9,11.5,7.2
				c1.7-0.4,3.5-0.6,5.3-0.6l0.5,0c13.2,0,24.8,9.3,28.8,22.8c7.1,3.7,12.7,10.3,15.4,18.5c0.4,1.2,0.2,2.6-0.6,3.6
				C246.3,136.5,245.1,137.1,243.8,137.1z M15.8,129.1l221.8,0c-2.5-4.1-6.1-7.4-10.3-9.2c-1.2-0.5-2-1.5-2.3-2.7
				c-2.6-10.9-11.4-18.5-21.5-18.5H203c-1.8,0-3.7,0.3-5.5,0.9c-1.5,0.5-3.2,0-4.2-1.2c-2.7-3.1-6-5.4-9.7-6.7
				c-2.1-0.7-4.3-1.1-6.5-1.1c-3.5,0-6.9,0.9-10,2.7c-1.6,0.9-3.7,0.6-5-0.8c-5.6-6.4-13.1-9.9-21.2-9.9c-0.7,0-1.4,0-2.1,0.1
				c-1.2,0.1-2.4-0.3-3.3-1.2C128,73.4,118,69,107.4,69c0,0,0,0,0,0C94.8,69,83,75.3,75.1,86.2c-0.7,1-1.8,1.6-3,1.6
				c-7.4,0.5-14,4.7-18.3,11.5c-0.7,1.1-2,1.9-3.3,1.9c-4.7,0.1-9.2,1.7-13.1,4.7c-0.5,0.4-1.1,0.6-1.7,0.8
				C25.2,108.6,17.3,117.7,15.8,129.1z"/>
		</g>
	</g>
	<g>
		<g>
			<path class="st1" d="M128,231C128,231,128,231,128,231c-33.3,0-64.4-8.6-87.5-24.2C14,189,0,163.5,0,133.1c0-1.1,0.4-2.1,1.2-2.8
				s1.8-1.2,2.8-1.2l0,0l248,0c2.2,0,4,1.8,4,4c0,30.4-14,55.9-40.5,73.7C192.4,222.4,161.3,231,128,231z M8.1,137.1
				C9.3,163,22,184.7,45,200.2c21.8,14.7,51.3,22.8,83,22.8c0,0,0,0,0,0c31.7,0,61.2-8.1,83-22.8c23-15.5,35.7-37.3,36.9-63.1
				L8.1,137.1z"/>
		</g>
	</g>
	<g>
		<g>
			<path class="st1" d="M196.4,99.7c-1.2,0-2.3-0.5-3-1.4c-2.7-3.1-6-5.4-9.7-6.7c-1.1-0.4-2-1.2-2.4-2.2c-0.4-1.1-0.4-2.2,0.1-3.3
				c11.9-25.2,29.3-56.1,44.4-60.2c3.8-1,7.4-0.5,10.5,1.6c3,2,4.9,5.1,5.4,8.9c1.5,11.8-10.4,32.3-35.6,60.9
				c-0.7,0.8-1.8,1.3-2.9,1.4c-1.9,0-3.7,0.3-5.6,0.9C197.2,99.6,196.8,99.7,196.4,99.7z M203,94.6L203,94.6L203,94.6z M190.4,85.8
				c2.7,1.4,5.1,3.2,7.3,5.4c1.1-0.2,2.3-0.4,3.5-0.5c21.8-25.1,33.7-44.4,32.5-53.3c-0.2-1.5-0.8-2.5-1.9-3.3
				c-1.2-0.8-2.4-0.9-3.9-0.5C219,36,205.1,55.4,190.4,85.8z"/>
		</g>
	</g>
</g>
</svg>
