<?xml version="1.0" encoding="utf-8"?>
<!-- Generator: Adobe Illustrator 22.1.0, SVG Export Plug-In . SVG Version: 6.00 Build 0)  -->
<svg version="1.1" id="Layer_1" xmlns="http://www.w3.org/2000/svg" xmlns:xlink="http://www.w3.org/1999/xlink" x="0px" y="0px"
	 viewBox="0 0 256 256" style="enable-background:new 0 0 256 256;" xml:space="preserve">
<style type="text/css">
	.st0{fill:#F5B31F;}
	.st1{fill:#464646;}
	.st2{opacity:0.15;}
	.st3{fill:#AC6535;}
	.st4{fill:#EB573B;}
	.st5{fill:#90C056;}
	.st6{opacity:0.35;}
	.st7{fill:#FFFFFF;}
	.st8{opacity:0.2;}
	.st9{fill:#F6D67A;}
	.st10{opacity:0.3;}
	.st11{fill:#FFA755;}
	.st12{fill:#8FAE3C;}
	.st13{fill:#BE6BB2;}
	.st14{fill:#B7C536;}
	.st15{opacity:0.1;}
	.st16{fill:#9D5A96;}
	.st17{fill:#EA615D;}
	.st18{opacity:0.4;}
	.st19{fill:#F79932;}
	.st20{fill:#FFEC97;}
	.st21{fill:#FFD11D;}
	.st22{fill:#F7F2D5;}
	.st23{fill:#F6AF72;}
	.st24{fill:#BA6C45;}
	.st25{opacity:0.5;}
	.st26{fill:#E4C074;}
	.st27{fill:#656566;}
	.st28{fill:#FACD1F;}
	.st29{fill:#FFDF66;}
	.st30{fill:#6D6E71;}
	.st31{fill:#E77CAE;}
	.st32{fill:#FFE5C4;}
	.st33{fill:#F68455;}
	.st34{opacity:0.7;}
	.st35{fill:#ADEDFF;}
	.st36{fill:#EC754B;}
	.st37{fill:#4AA5BA;}
	.st38{opacity:0.8;}
	.st39{fill:#92A5AC;}
	.st40{fill:#D06E3C;}
	.st41{fill:#DA4F4B;}
	.st42{fill:#BDF3FF;}
	.st43{fill:#F18BB4;}
	.st44{fill:#F9D97A;}
	.st45{fill:none;}
	.st46{fill:#AF6535;}
	.st47{fill:#B93226;}
	.st48{fill:#FF6050;}
	.st49{fill:#EA7CB1;}
	.st50{fill:#00B0E0;}
	.st51{fill:#EA7DAE;}
	.st52{fill:#BC7532;}
	.st53{fill:#876C6C;}
	.st54{fill:#F9F6CD;}
	.st55{fill:#FFE37B;}
	.st56{fill:#1DDCFF;}
	.st57{fill:#60ACF7;}
	.st58{fill:#C3755A;}
	.st59{fill:#96557A;}
	.st60{fill:#66625D;}
	.st61{fill:#D68032;}
	.st62{fill:#F2A355;}
	.st63{fill:#7E9E6A;}
	.st64{fill:#965A85;}
	.st65{fill:#90CAD3;}
	.st66{fill:#94B57F;}
	.st67{fill:#B2E2E7;}
	.st68{fill:#FFDF8F;}
	.st69{fill:#FFFAEB;}
	.st70{fill:#F88916;}
	.st71{fill:#FFC86E;}
	.st72{fill:#AFA51D;}
	.st73{fill:#968A1C;}
	.st74{fill:#C3556D;}
</style>
<g>
	<g>
		<g>
			<polygon class="st54" points="204.8,62.8 201.4,115 57.4,115 53.2,62.8 			"/>
		</g>
	</g>
	<g class="st34">
		<g>
			<polygon class="st7" points="70.7,115 57.1,115 53.2,62.8 66.3,62.8 			"/>
		</g>
	</g>
	<g>
		<g>
			<polygon class="st54" points="196.4,193.8 192.7,251.8 68.6,251.8 63.9,193.8 			"/>
		</g>
	</g>
	<g class="st34">
		<g>
			<path class="st7" d="M77,193.8l-14,0l4.3,58l70.3,0c0,0-56.7-4.5-58-22S77,193.8,77,193.8z"/>
		</g>
	</g>
	<g>
		<g>
			<polygon class="st58" points="201.4,115 196.4,193.8 63.9,193.8 57.4,115 			"/>
		</g>
	</g>
	<g class="st10">
		<g>
			<polygon class="st7" points="77,193.8 62.9,193.8 57.1,115 70.7,115 			"/>
		</g>
	</g>
	<g class="st15">
		<g>
			<polygon points="190.1,115 201.7,115 205,62.8 193.9,62.8 			"/>
		</g>
	</g>
	<g class="st15">
		<g>
			<polygon points="184.8,193.8 196.7,193.8 193,251.8 181.9,251.8 182.6,229.8 			"/>
		</g>
	</g>
	<g class="st15">
		<g>
			<polygon points="184.8,193.8 196.7,193.8 201.7,115 190.1,115 			"/>
		</g>
	</g>
	<g>
		<g>
			<polygon class="st58" points="217.8,62.8 38.2,62.8 47.9,33.8 209.1,33.8 			"/>
		</g>
	</g>
	<g class="st10">
		<g>
			<path class="st7" d="M209.1,33.8l-161.2,0l-9.7,29c0,0,8.2-8.6,28.8-15.9S209.1,33.8,209.1,33.8z"/>
		</g>
	</g>
	<g>
		<g>
			<polygon class="st58" points="196.1,33.8 69.1,33.8 69.1,19.8 184.5,3.8 			"/>
		</g>
	</g>
	<g class="st15">
		<g>
			<polygon points="196.1,34.6 69.1,34.6 69.1,25.2 192.7,24 			"/>
		</g>
	</g>
	<g>
		<g>
			<g>
				<path class="st1" d="M217.8,66.8C217.8,66.8,217.8,66.8,217.8,66.8l-179.6,0c-1.3,0-2.5-0.6-3.2-1.7c-0.8-1-1-2.4-0.6-3.6
					l9.7-29c0.5-1.6,2.1-2.7,3.8-2.7c0,0,0,0,0,0l161.2,0c1.8,0,3.3,1.2,3.8,2.9l8.7,29c0.4,1.2,0.1,2.5-0.6,3.5
					S219.1,66.8,217.8,66.8z M43.8,58.8l168.7,0l-6.3-21l-155.4,0L43.8,58.8z"/>
			</g>
		</g>
		<g>
			<g>
				<path class="st1" d="M201.4,119C201.4,119,201.4,119,201.4,119l-144,0c-2.1,0-3.8-1.6-4-3.7l-4.3-52.2c-0.1-1.1,0.3-2.2,1-3
					c0.8-0.8,1.8-1.3,2.9-1.3c0,0,0,0,0,0l151.6,0c1.1,0,2.2,0.5,2.9,1.3c0.8,0.8,1.1,1.9,1.1,3l-3.3,52.2
					C205.3,117.4,203.5,119,201.4,119z M61.1,111l136.5,0l2.8-44.2l-143,0L61.1,111z"/>
			</g>
		</g>
		<g>
			<g>
				<path class="st1" d="M192.7,255.8C192.7,255.8,192.7,255.8,192.7,255.8l-124.1,0c-2.1,0-3.8-1.6-4-3.7l-4.7-58
					c-0.1-1.1,0.3-2.2,1-3c0.8-0.8,1.8-1.3,2.9-1.3l0,0l132.5,0c1.1,0,2.2,0.5,2.9,1.3c0.8,0.8,1.1,1.9,1.1,3l-3.7,58
					C196.5,254.2,194.8,255.8,192.7,255.8z M72.3,247.8l116.6,0l3.2-50l-123.9,0L72.3,247.8z"/>
			</g>
		</g>
		<g>
			<g>
				<path class="st1" d="M196.1,37.8C196.1,37.8,196.1,37.8,196.1,37.8l-127,0c-1.1,0-2.1-0.4-2.8-1.2c-0.8-0.8-1.2-1.8-1.2-2.8
					l0-14c0-2,1.5-3.7,3.5-4L183.9-0.1c1.8-0.3,3.6,0.8,4.3,2.5l11.6,30c0.5,1.2,0.3,2.6-0.4,3.7C198.6,37.2,197.4,37.8,196.1,37.8z
					 M73.1,29.8l117.1,0l-8.3-21.6l-108.8,15L73.1,29.8z"/>
			</g>
		</g>
		<g>
			<g>
				<path class="st1" d="M196.4,197.8L196.4,197.8l-132.5,0c-2.1,0-3.8-1.6-4-3.7l-6.4-78.8c-0.1-1.1,0.3-2.2,1-3s1.8-1.3,2.9-1.3
					c0,0,0,0,0,0l144,0c1.1,0,2.2,0.5,2.9,1.3c0.8,0.8,1.1,1.9,1.1,3l-5,78.8C200.2,196.2,198.5,197.8,196.4,197.8z M67.6,189.8
					l125.1,0l4.5-70.8l-135.4,0L67.6,189.8z"/>
			</g>
		</g>
	</g>
	<g class="st15">
		<g>
			<polygon points="203.4,71.6 52.6,71.6 53.2,62.8 204.8,62.8 			"/>
		</g>
	</g>
</g>
</svg>
