<?xml version="1.0" encoding="utf-8"?>
<!-- Generator: Adobe Illustrator 22.1.0, SVG Export Plug-In . SVG Version: 6.00 Build 0)  -->
<svg version="1.1" id="Layer_1" xmlns="http://www.w3.org/2000/svg" xmlns:xlink="http://www.w3.org/1999/xlink" x="0px" y="0px"
	 viewBox="0 0 256 256" style="enable-background:new 0 0 256 256;" xml:space="preserve">
<style type="text/css">
	.st0{fill:#F5B31F;}
	.st1{fill:#464646;}
	.st2{opacity:0.15;}
	.st3{fill:#AC6535;}
	.st4{fill:#EB573B;}
	.st5{fill:#90C056;}
	.st6{opacity:0.35;}
	.st7{fill:#FFFFFF;}
	.st8{opacity:0.2;}
	.st9{fill:#F6D67A;}
	.st10{opacity:0.3;}
	.st11{fill:#FFA755;}
	.st12{fill:#8FAE3C;}
	.st13{fill:#BE6BB2;}
	.st14{fill:#B7C536;}
	.st15{opacity:0.1;}
	.st16{fill:#9D5A96;}
	.st17{fill:#EA615D;}
	.st18{opacity:0.4;}
	.st19{fill:#F79932;}
	.st20{fill:#FFEC97;}
	.st21{fill:#FFD11D;}
	.st22{fill:#F7F2D5;}
	.st23{fill:#F6AF72;}
	.st24{fill:#BA6C45;}
	.st25{opacity:0.5;}
	.st26{fill:#E4C074;}
	.st27{fill:#656566;}
	.st28{fill:#FACD1F;}
	.st29{fill:#FFDF66;}
	.st30{fill:#6D6E71;}
	.st31{fill:#E77CAE;}
	.st32{fill:#FFE5C4;}
	.st33{fill:#F68455;}
	.st34{opacity:0.7;}
	.st35{fill:#ADEDFF;}
	.st36{fill:#EC754B;}
	.st37{fill:#4AA5BA;}
	.st38{opacity:0.8;}
	.st39{fill:#92A5AC;}
	.st40{fill:#D06E3C;}
	.st41{fill:#DA4F4B;}
	.st42{fill:#BDF3FF;}
	.st43{fill:#F18BB4;}
	.st44{fill:#F9D97A;}
	.st45{fill:none;}
	.st46{fill:#AF6535;}
	.st47{fill:#B93226;}
	.st48{fill:#FF6050;}
	.st49{fill:#EA7CB1;}
	.st50{fill:#00B0E0;}
	.st51{fill:#EA7DAE;}
	.st52{fill:#BC7532;}
	.st53{fill:#876C6C;}
	.st54{fill:#F9F6CD;}
	.st55{fill:#FFE37B;}
	.st56{fill:#1DDCFF;}
	.st57{fill:#60ACF7;}
	.st58{fill:#C3755A;}
	.st59{fill:#96557A;}
	.st60{fill:#66625D;}
	.st61{fill:#D68032;}
	.st62{fill:#F2A355;}
	.st63{fill:#7E9E6A;}
	.st64{fill:#965A85;}
	.st65{fill:#90CAD3;}
	.st66{fill:#94B57F;}
	.st67{fill:#B2E2E7;}
	.st68{fill:#FFDF8F;}
	.st69{fill:#FFFAEB;}
	.st70{fill:#F88916;}
	.st71{fill:#FFC86E;}
	.st72{fill:#AFA51D;}
	.st73{fill:#968A1C;}
	.st74{fill:#C3556D;}
</style>
<g>
	<g>
		<g>
			<path class="st19" d="M231.3,144.4c0,59.5-48.2,107.7-107.6,107.7c-59.4,0-107.6-48.2-107.6-107.7c0-47.8,31.1-88.3,74.2-102.4
				c4.6-1.5,9.3-2.7,14.1-3.6c23.7,15,47.7,19.4,72,12C209.1,68.9,231.3,104.1,231.3,144.4z"/>
		</g>
	</g>
	<g class="st15">
		<g>
			<path d="M176.3,50.4c32.8,18.5,55,53.6,55,94c0,59.5-48.2,107.7-107.6,107.7c-41.2,0-77-23.2-95.1-57.3
				C129.9,276.4,259.1,171.7,176.3,50.4z"/>
		</g>
	</g>
	<g>
		<g>
			<path class="st1" d="M123.7,256.1C123.7,256.1,123.7,256.1,123.7,256.1c-29.8,0-57.8-11.6-78.9-32.7
				c-21.1-21.1-32.7-49.2-32.7-79C12.1,95.9,43,53.2,89,38.2c4.8-1.6,9.7-2.8,14.6-3.7c1-0.2,2,0,2.9,0.6c23,14.6,46,18.5,68.6,11.5
				c1-0.3,2.2-0.2,3.1,0.3c35.2,19.8,57,57.1,57,97.5l0,0l0,0c0,29.8-11.6,57.9-32.7,79C181.5,244.5,153.5,256.1,123.7,256.1z
				 M103.5,42.7c-4,0.8-8.1,1.8-12,3.1c-42.7,13.9-71.4,53.6-71.4,98.6c0,27.7,10.8,53.8,30.3,73.3c19.6,19.6,45.6,30.4,73.2,30.4
				c0,0,0,0,0,0c27.7,0,53.7-10.8,73.2-30.4c19.6-19.6,30.3-45.6,30.3-73.3l0,0c0-36.9-19.7-71.1-51.5-89.7
				C151.8,61.6,127.5,57.5,103.5,42.7z"/>
		</g>
	</g>
	<g>
		<g>
			<path class="st1" d="M83.9,25.1c-1.4,0-2.8-0.8-3.5-2.1c-2-3.8-4.7-7.9-8.8-13.3c-1.3-1.8-1-4.3,0.8-5.6c1.8-1.3,4.3-1,5.6,0.8
				c4.3,5.7,7.2,10.1,9.4,14.3c1,1.9,0.3,4.4-1.6,5.4C85.1,25,84.5,25.1,83.9,25.1z"/>
		</g>
	</g>
	<g>
		<g>
			<path class="st1" d="M90.6,63.5c-0.1,0-0.1,0-0.2,0c-2.2-0.1-3.9-2-3.8-4.2c0.3-6.9,0.2-12.2-0.3-16.9
				c-0.7-6.3-2.1-11.4-4.6-16.6c-0.9-2-0.1-4.4,1.9-5.3c2-0.9,4.4-0.1,5.3,1.9c2.8,6,4.5,12.1,5.3,19.2c0.5,5.1,0.7,10.8,0.3,18.1
				C94.5,61.8,92.7,63.5,90.6,63.5z"/>
		</g>
	</g>
	<g>
		<g>
			<path class="st1" d="M72.3,214.9c-0.8,0-1.5-0.2-2.2-0.7c-19.8-13-30.7-36.6-32.7-54.2c-0.3-2.2,1.3-4.2,3.5-4.4
				c2.2-0.3,4.2,1.3,4.4,3.5c1.8,15.8,11.6,36.9,29.2,48.5c1.8,1.2,2.4,3.7,1.1,5.5C74.9,214.2,73.6,214.9,72.3,214.9z"/>
		</g>
	</g>
	<g class="st15">
		<g>
			<path d="M191.9,40.5c-21.3,24.7,5.3,16.3-15.7,22.7c-24.3,7.4-48.3,3-72-12c-6.3-4-6.7-15.6-6.7-15.6L93,30.4l50.5-13
				C143.5,17.4,145,46.7,191.9,40.5z"/>
		</g>
	</g>
	<g>
		<g>
			<path class="st12" d="M239.6,4.1c-21.3,24.7-42.4,39.9-63.3,46.3c-24.3,7.4-48.3,3-72-12c-6.3-4-12.7-8.8-19-14.4
				c-0.5-1-1-2-1.5-3c15.5-9,31.5-18.5,59.6-16.5C172.2,6.8,192.6,10.4,239.6,4.1z"/>
		</g>
	</g>
	<g class="st10">
		<g>
			<path class="st7" d="M143.5,4.6c-28.1-2.1-44.1,7.4-59.6,16.5c0.5,1,1,2,1.5,3c6.3,5.5,12.6,10.3,19,14.4
				C101,24.1,117,13.4,143.5,4.6z"/>
		</g>
	</g>
	<g>
		<g>
			<path class="st1" d="M153.2,58c-17,0-34.1-5.4-51-16.1c-6.5-4.1-13-9.1-19.5-14.7c-0.4-0.4-0.8-0.8-1-1.3c-0.5-1-0.9-1.9-1.4-2.7
				c-1-1.9-0.4-4.3,1.5-5.4l0.5-0.3c15.9-9.3,32.4-18.9,61.4-16.7c4.4,0.3,8.6,0.7,12.7,1c23.2,2,43.2,3.7,82.6-1.5
				c1.6-0.2,3.3,0.6,4,2.1c0.8,1.5,0.6,3.3-0.5,4.5c-21.4,24.8-43.3,40.8-65.2,47.5C169.4,56.7,161.3,58,153.2,58z M89.6,22.4
				c5.6,4.8,11.3,9.1,16.9,12.6c23,14.6,46,18.5,68.6,11.5c18-5.5,36.3-18,54.4-37.2c-33.6,3.7-53.1,2-73.7,0.3
				c-4.1-0.3-8.3-0.7-12.6-1C118.5,6.8,103.5,14.4,89.6,22.4z"/>
		</g>
	</g>
</g>
</svg>
