<?xml version="1.0" encoding="utf-8"?>
<!-- Generator: Adobe Illustrator 22.1.0, SVG Export Plug-In . SVG Version: 6.00 Build 0)  -->
<svg version="1.1" id="Layer_1" xmlns="http://www.w3.org/2000/svg" xmlns:xlink="http://www.w3.org/1999/xlink" x="0px" y="0px"
	 viewBox="0 0 256 256" style="enable-background:new 0 0 256 256;" xml:space="preserve">
<style type="text/css">
	.st0{fill:#F5B31F;}
	.st1{fill:#464646;}
	.st2{opacity:0.15;}
	.st3{fill:#AC6535;}
	.st4{fill:#EB573B;}
	.st5{fill:#90C056;}
	.st6{opacity:0.35;}
	.st7{fill:#FFFFFF;}
	.st8{opacity:0.2;}
	.st9{fill:#F6D67A;}
	.st10{opacity:0.3;}
	.st11{fill:#FFA755;}
	.st12{fill:#8FAE3C;}
	.st13{fill:#BE6BB2;}
	.st14{fill:#B7C536;}
	.st15{opacity:0.1;}
	.st16{fill:#9D5A96;}
	.st17{fill:#EA615D;}
	.st18{opacity:0.4;}
	.st19{fill:#F79932;}
	.st20{fill:#FFEC97;}
	.st21{fill:#FFD11D;}
	.st22{fill:#F7F2D5;}
	.st23{fill:#F6AF72;}
	.st24{fill:#BA6C45;}
	.st25{opacity:0.5;}
	.st26{fill:#E4C074;}
	.st27{fill:#656566;}
	.st28{fill:#FACD1F;}
	.st29{fill:#FFDF66;}
	.st30{fill:#6D6E71;}
	.st31{fill:#E77CAE;}
	.st32{fill:#FFE5C4;}
	.st33{fill:#F68455;}
	.st34{opacity:0.7;}
	.st35{fill:#ADEDFF;}
	.st36{fill:#EC754B;}
	.st37{fill:#4AA5BA;}
	.st38{opacity:0.8;}
	.st39{fill:#92A5AC;}
	.st40{fill:#D06E3C;}
	.st41{fill:#DA4F4B;}
	.st42{fill:#BDF3FF;}
	.st43{fill:#F18BB4;}
	.st44{fill:#F9D97A;}
	.st45{fill:none;}
	.st46{fill:#AF6535;}
	.st47{fill:#B93226;}
	.st48{fill:#FF6050;}
	.st49{fill:#EA7CB1;}
	.st50{fill:#00B0E0;}
	.st51{fill:#EA7DAE;}
	.st52{fill:#BC7532;}
	.st53{fill:#876C6C;}
	.st54{fill:#F9F6CD;}
	.st55{fill:#FFE37B;}
	.st56{fill:#1DDCFF;}
	.st57{fill:#60ACF7;}
	.st58{fill:#C3755A;}
	.st59{fill:#96557A;}
	.st60{fill:#66625D;}
	.st61{fill:#D68032;}
	.st62{fill:#F2A355;}
	.st63{fill:#7E9E6A;}
	.st64{fill:#965A85;}
	.st65{fill:#90CAD3;}
	.st66{fill:#94B57F;}
	.st67{fill:#B2E2E7;}
	.st68{fill:#FFDF8F;}
	.st69{fill:#FFFAEB;}
	.st70{fill:#F88916;}
	.st71{fill:#FFC86E;}
	.st72{fill:#AFA51D;}
	.st73{fill:#968A1C;}
	.st74{fill:#C3556D;}
</style>
<g>
	<g>
		<g>
			<g>
				<path class="st33" d="M74,76c0,0,8.6,166.1,8.7,168.9c0.1,2.8,2.4,7.2,7.9,7.2c5.6,0,37.3,0,37.3,0s31.7,0,37.3,0
					s7.8-4.4,7.9-7.2c0.1-2.8,8.7-168.9,8.7-168.9L74,76z M128,189c-13.7,0-24.9-11.2-24.9-24.9c0-13.8,11.1-24.9,24.9-24.9
					c13.7,0,24.9,11.2,24.9,24.9C152.9,177.8,141.7,189,128,189z"/>
			</g>
		</g>
	</g>
	<g class="st15">
		<g>
			<g>
				<path d="M165.2,252.1C167.6,252.1,164.2,252.1,165.2,252.1c5.6,0,7.8-4.4,7.9-7.2c0.1-2.8,8.7-168.9,8.7-168.9l-14.1,0
					L165.2,252.1z M152.9,164.1"/>
			</g>
		</g>
	</g>
	<g class="st2">
		<g>
			<g>
				<path class="st7" d="M86.5,76L74,76c0,0,8.6,166.1,8.7,168.9c0.1,2.8,2.4,7.2,7.9,7.2c5.6,0,37.3,0,37.3,0s-33.4-0.8-35.7-18.2
					C90,216.6,86.5,76,86.5,76z"/>
			</g>
		</g>
	</g>
	<g>
		<g>
			<g>
				<polygon class="st55" points="192.4,76 63.5,76 72.2,61.3 185.3,61.3 				"/>
			</g>
		</g>
	</g>
	<g class="st25">
		<g>
			<g>
				<path class="st7" d="M81.1,67.5C68.5,70.4,63.5,76,63.5,76l3.3-14.7l118.5,0C185.3,61.3,93.7,64.6,81.1,67.5z"/>
			</g>
		</g>
	</g>
	<g class="st15">
		<g>
			<g>
				<polygon points="182.6,83.2 73.4,83.2 75.2,76 179.9,76 				"/>
			</g>
		</g>
	</g>
	<g>
		<g>
			<g>
				<polygon class="st54" points="133,30.3 133,61.3 122.2,61.3 122.2,39.1 				"/>
			</g>
		</g>
	</g>
	<g>
		<g>
			<g>
				<polygon class="st54" points="133,18.7 133,30.3 122.2,39.1 122.2,25.3 				"/>
			</g>
		</g>
	</g>
	<g>
		<g>
			<g>
				<polygon class="st54" points="133,18.7 122.2,25.3 92.3,13.6 96.5,4.1 				"/>
			</g>
		</g>
	</g>
	<g>
		<g>
			<g>
				<ellipse class="st55" cx="128" cy="164.1" rx="24.9" ry="24.9"/>
			</g>
		</g>
	</g>
	<g>
		<g>
			<g>
				<path class="st1" d="M165.2,256.1H90.7c-7.4,0-11.7-5.7-11.9-11c-0.1-2.7-8.6-167.2-8.7-168.9c-0.1-1.1,0.3-2.2,1.1-3
					c0.8-0.8,1.8-1.2,2.9-1.2l0,0l107.9,0c1.1,0,2.1,0.5,2.9,1.2c0.8,0.8,1.2,1.9,1.1,3c-0.1,1.7-8.6,166.2-8.7,168.9
					C176.9,250.4,172.7,256.1,165.2,256.1z M78.2,80c1.4,26.4,8.4,162.2,8.5,164.7c0,0,0.2,3.3,3.9,3.3h74.6c3.7,0,3.9-3.3,3.9-3.3
					c0.1-2.5,7.2-138.3,8.5-164.7L78.2,80z M128,193c-15.9,0-28.9-13-28.9-28.9c0-16,13-28.9,28.9-28.9s28.9,13,28.9,28.9
					C156.9,180,143.9,193,128,193z M128,143.1c-11.5,0-20.9,9.4-20.9,20.9c0,11.5,9.4,20.9,20.9,20.9s20.9-9.4,20.9-20.9
					C148.9,152.5,139.5,143.1,128,143.1z"/>
			</g>
		</g>
	</g>
	<g>
		<g>
			<g>
				<path class="st1" d="M192.4,80L192.4,80L63.5,80c-1.4,0-2.8-0.8-3.5-2c-0.7-1.2-0.7-2.8,0-4l8.7-14.7c0.7-1.2,2-2,3.4-2l0,0
					l113,0c1.5,0,2.9,0.9,3.6,2.3l7.1,14.7c0.6,1.2,0.5,2.7-0.2,3.9C195.1,79.3,193.8,80,192.4,80z M70.5,72L186,72l-3.3-6.7
					l-108.3,0L70.5,72z"/>
			</g>
		</g>
	</g>
	<g>
		<g>
			<g>
				<path class="st1" d="M133,65.3L133,65.3l-10.8,0c-2.2,0-4-1.8-4-4l0-22.3c0-1.2,0.5-2.4,1.5-3.1l10.8-8.7c1.2-1,2.8-1.2,4.2-0.5
					c1.4,0.7,2.3,2.1,2.3,3.6l0,31C137,63.5,135.2,65.3,133,65.3z M126.2,57.3l2.8,0l0-18.6l-2.8,2.3L126.2,57.3z"/>
			</g>
		</g>
	</g>
	<g>
		<g>
			<g>
				<path class="st1" d="M122.2,43.1c-0.6,0-1.2-0.1-1.7-0.4c-1.4-0.7-2.3-2.1-2.3-3.6l0-13.8c0-1.4,0.7-2.7,1.9-3.4l10.8-6.6
					c1.2-0.8,2.8-0.8,4-0.1c1.3,0.7,2,2,2,3.5l0,11.7c0,1.2-0.5,2.4-1.5,3.1l-10.8,8.7C124,42.8,123.1,43.1,122.2,43.1z M126.2,27.5
					v3.2l2.8-2.3v-2.6L126.2,27.5z"/>
			</g>
		</g>
	</g>
	<g>
		<g>
			<g>
				<path class="st1" d="M122.2,29.3c-0.5,0-1-0.1-1.5-0.3L90.9,17.4c-1-0.4-1.8-1.2-2.2-2.2c-0.4-1-0.4-2.1,0-3.1l4.2-9.5
					c0.9-2,3.1-2.9,5.1-2.1l36.5,14.6c1.4,0.6,2.4,1.9,2.5,3.4c0.1,1.5-0.6,3-1.9,3.8l-10.8,6.6C123.6,29.1,122.9,29.3,122.2,29.3z
					 M97.7,11.4l24.1,9.4l2.3-1.4L98.6,9.2L97.7,11.4z"/>
			</g>
		</g>
	</g>
	<g>
		<g>
			<g>
				<path class="st1" d="M128,193C128,193,128,193,128,193c-15.9,0-28.9-13-28.9-28.9c0-7.7,3-15,8.5-20.5
					c5.5-5.5,12.7-8.5,20.4-8.5c0,0,0,0,0,0c15.9,0,28.9,13,28.9,28.9l-4,0l4,0c0,7.7-3,15-8.5,20.5C142.9,190,135.7,193,128,193z
					 M128,143.1c-5.6,0-10.8,2.2-14.8,6.1c-3.9,4-6.1,9.2-6.1,14.8c0,11.5,9.4,20.9,20.9,20.9c0,0,0,0,0,0c5.6,0,10.8-2.2,14.8-6.1
					c3.9-4,6.1-9.2,6.1-14.8C148.9,152.5,139.5,143.1,128,143.1C128,143.1,128,143.1,128,143.1z"/>
			</g>
		</g>
	</g>
</g>
</svg>
