<?xml version="1.0" encoding="utf-8"?>
<!-- Generator: Adobe Illustrator 22.1.0, SVG Export Plug-In . SVG Version: 6.00 Build 0)  -->
<svg version="1.1" id="Layer_1" xmlns="http://www.w3.org/2000/svg" xmlns:xlink="http://www.w3.org/1999/xlink" x="0px" y="0px"
	 viewBox="0 0 256 256" style="enable-background:new 0 0 256 256;" xml:space="preserve">
<style type="text/css">
	.st0{fill:#F5B31F;}
	.st1{fill:#464646;}
	.st2{opacity:0.15;}
	.st3{fill:#AC6535;}
	.st4{fill:#EB573B;}
	.st5{fill:#90C056;}
	.st6{opacity:0.35;}
	.st7{fill:#FFFFFF;}
	.st8{opacity:0.2;}
	.st9{fill:#F6D67A;}
	.st10{opacity:0.3;}
	.st11{fill:#FFA755;}
	.st12{fill:#8FAE3C;}
	.st13{fill:#BE6BB2;}
	.st14{fill:#B7C536;}
	.st15{opacity:0.1;}
	.st16{fill:#9D5A96;}
	.st17{fill:#EA615D;}
	.st18{opacity:0.4;}
	.st19{fill:#F79932;}
	.st20{fill:#FFEC97;}
	.st21{fill:#FFD11D;}
	.st22{fill:#F7F2D5;}
	.st23{fill:#F6AF72;}
	.st24{fill:#BA6C45;}
	.st25{opacity:0.5;}
	.st26{fill:#E4C074;}
	.st27{fill:#656566;}
	.st28{fill:#FACD1F;}
	.st29{fill:#FFDF66;}
	.st30{fill:#6D6E71;}
	.st31{fill:#E77CAE;}
	.st32{fill:#FFE5C4;}
	.st33{fill:#F68455;}
	.st34{opacity:0.7;}
	.st35{fill:#ADEDFF;}
	.st36{fill:#EC754B;}
	.st37{fill:#4AA5BA;}
	.st38{opacity:0.8;}
	.st39{fill:#92A5AC;}
	.st40{fill:#D06E3C;}
	.st41{fill:#DA4F4B;}
	.st42{fill:#BDF3FF;}
	.st43{fill:#F18BB4;}
	.st44{fill:#F9D97A;}
	.st45{fill:none;}
	.st46{fill:#AF6535;}
	.st47{fill:#B93226;}
	.st48{fill:#FF6050;}
	.st49{fill:#EA7CB1;}
	.st50{fill:#00B0E0;}
	.st51{fill:#EA7DAE;}
	.st52{fill:#BC7532;}
	.st53{fill:#876C6C;}
	.st54{fill:#F9F6CD;}
	.st55{fill:#FFE37B;}
	.st56{fill:#1DDCFF;}
	.st57{fill:#60ACF7;}
	.st58{fill:#C3755A;}
	.st59{fill:#96557A;}
	.st60{fill:#66625D;}
	.st61{fill:#D68032;}
	.st62{fill:#F2A355;}
	.st63{fill:#7E9E6A;}
	.st64{fill:#965A85;}
	.st65{fill:#90CAD3;}
	.st66{fill:#94B57F;}
	.st67{fill:#B2E2E7;}
	.st68{fill:#FFDF8F;}
	.st69{fill:#FFFAEB;}
	.st70{fill:#F88916;}
	.st71{fill:#FFC86E;}
	.st72{fill:#AFA51D;}
	.st73{fill:#968A1C;}
	.st74{fill:#C3556D;}
</style>
<g>
	<g>
		<g>
			<path class="st21" d="M63.6,193.9l8.3-7.8c21.9-44.4,34.6-78.7,39.4-103.3c51.5-51.5,113.7-92.2,135.1-70.9
				c20.3,20.3-15.5,77.3-63.2,127C148,147.9,101.3,167.7,63.6,193.9z"/>
		</g>
	</g>
	<g class="st15">
		<g>
			<path d="M236.4,6.7c3.9,0.8,7.2,2.5,9.9,5.2c20.3,20.3-15.5,77.3-63.2,127c-11.3,2.9-23.8,6.9-36.8,11.9c0,0,56.8-37.5,81.2-81.6
				S236.4,6.7,236.4,6.7z"/>
		</g>
	</g>
	<g>
		<g>
			<path class="st12" d="M223,192.7c0.2-11.3,0.8-19.1-9.7-29.5c-29-29-149.3,126.1-198.8,76.6c6.3-8.8,14.2-17.3,23.1-25.4
				c7.9-7.2,16.6-14,25.9-20.4c37.8-26.2,84.4-46,119.5-55c24.8-6.4,43.7-7.3,49.6-1.4C238.6,143.3,238.9,176.9,223,192.7z"/>
		</g>
	</g>
	<g class="st15">
		<g>
			<path d="M83,177.8l3.5-6c27.9-18.6,62.7-33,102.1-42l-5.8,7.1L83,177.8z"/>
		</g>
	</g>
	<g class="st10">
		<g>
			<path class="st7" d="M232.7,137.4c-5.9-5.9-24.9-4.9-49.6,1.4c-35.1,9-81.7,28.8-119.5,55c-9.3,6.4-18,13.3-25.9,20.4
				c-8.9,8.1-16.8,16.6-23.1,25.4c4.3,4.3,9.2,7.1,14.5,8.6c0,0-3.3-3.8,7.6-19.5s50.8-43,105.3-69
				C193.4,135.3,229.9,136,232.7,137.4z"/>
		</g>
	</g>
	<g>
		<g>
			<path class="st12" d="M37.6,214.3c-8.9,8.1-16.8,16.6-23.1,25.4c-48.4-48.3,88.1-153.2,65.6-180C72.8,53,57.7,56,41.4,60.5
				c52.5-38.7,80.5-32.1,69.8,22.3c-4.8,24.6-17.5,59-39.4,103.3l-8.3,7.8C54.3,200.3,45.5,207.2,37.6,214.3z"/>
		</g>
	</g>
	<g class="st15">
		<g>
			<path d="M113.5,82.9l5.9-4c-4.4,34.2-16.6,69.7-37.5,100.7l-4.4,0L113.5,82.9z"/>
		</g>
	</g>
	<g class="st15">
		<g>
			<path d="M13.7,234.7l-1.6-2.6c12-22.1,36.2-40.6,59.7-54.3l0,10.6L13.7,234.7z"/>
		</g>
	</g>
	<g class="st10">
		<g>
			<path class="st7" d="M70.9,95.1C43.2,138.3-21,204.3,14.5,239.8c0,0-10.6-18.4,7.6-54.3S70.9,95.1,70.9,95.1z"/>
		</g>
	</g>
	<g>
		<g>
			<path class="st1" d="M38.9,253.7c-10.2,0-19.4-3.3-27.2-11.1c-1.4-1.4-1.6-3.6-0.4-5.2c6.3-8.7,14.2-17.5,23.7-26.1
				c7.8-7,16.6-14,26.3-20.8c41.4-28.7,89.5-47.6,120.8-55.6c19.6-5,44.7-9.2,53.5-0.4c7.8,7.8,7.5,43.7-9.7,61
				c-1.1,1.2-2.9,1.5-4.4,0.9c-1.5-0.6-2.5-2.1-2.4-3.7l0-1.6c0.2-10.2,0.3-16.3-8.5-25.1c-10.1-10.1-41,12.7-70.8,34.8
				C105.7,226,68.3,253.7,38.9,253.7z M19.9,239.2c26.2,21,73.3-13.9,115.1-44.8c35.5-26.3,66.2-49,81.2-34
				c7.2,7.2,9.7,13.6,10.5,20.1c2.7-5.5,4.5-12.2,5.3-19.5c1.2-11.7-0.8-19.3-2.2-20.7c-0.8-0.8-8.5-7.1-45.8,2.5
				c-30.6,7.9-77.7,26.3-118.2,54.4c-9.4,6.5-18,13.3-25.5,20.1C32.3,224.5,25.5,231.9,19.9,239.2z"/>
		</g>
	</g>
	<g>
		<g>
			<path class="st1" d="M14.5,243.8c-1.1,0-2.1-0.4-2.8-1.2c-30.7-30.7,6.1-80.8,35.6-121.1c18.1-24.6,36.8-50.1,29.9-59
				c-5.9-5.1-20.1-2.2-34.7,1.8c-1.9,0.5-3.8-0.4-4.7-2.1c-0.8-1.7-0.3-3.8,1.2-5C70.3,34.2,93,26.8,106.3,35.2
				c10.8,6.8,13.8,23.1,8.9,48.3c-5.1,26.1-18.5,61.2-39.7,104.3c-0.2,0.4-0.5,0.8-0.9,1.1l-8.3,7.8c-0.1,0.1-0.3,0.3-0.5,0.4
				c-9.4,6.5-18,13.3-25.5,20.1c0,0,0,0,0,0c-9,8.2-16.6,16.5-22.5,24.8c-0.7,1-1.8,1.6-2.9,1.7C14.7,243.8,14.6,243.8,14.5,243.8z
				 M67.2,51.8c6.3,0,11.7,1.4,15.7,5.1c0.1,0.1,0.2,0.2,0.3,0.3c11.4,13.6-6.6,38.1-29.4,69.1c-14.3,19.5-30.5,41.5-39.2,61.6
				c-8.6,19.9-8.8,34.5-0.3,45.6c5.7-7.4,12.7-14.8,20.7-22.1l0,0c7.7-7,16.5-13.9,26.1-20.6l7.6-7.1
				c20.7-42.2,33.8-76.4,38.7-101.7c4.2-21.4,2.4-35.2-5.3-40c-7.6-4.8-22.2-1.1-41.1,10.2C63.1,51.9,65.2,51.8,67.2,51.8z
				 M37.6,214.3L37.6,214.3L37.6,214.3z"/>
		</g>
	</g>
	<g>
		<g>
			<path class="st1" d="M63.6,197.9c-1.2,0-2.3-0.5-3.1-1.5c-1.3-1.6-1.2-4,0.4-5.4l7.8-7.3c20.7-42.2,33.8-76.4,38.7-101.7
				c0.2-0.8,0.5-1.5,1.1-2.1C161.1,27.3,225-15,249.1,9c24.2,24.1-18.9,86.5-63.2,132.6c-0.5,0.5-1.2,0.9-1.9,1.1
				c-30.6,7.9-77.7,26.3-118.2,54.4C65.2,197.6,64.4,197.9,63.6,197.9z M114.9,84.7c-4.9,24.1-16.6,55.6-34.9,93.8
				c36-21.7,74.4-36.2,101-43.2c24.4-25.5,44.1-51.3,55.7-72.9c7.1-13.2,17.5-37.1,6.8-47.7c-11.3-11.3-37.1,0.7-51.4,8.8
				C168.7,36.7,141.4,58.4,114.9,84.7z"/>
		</g>
	</g>
	<g>
		<g>
			<path class="st1" d="M106.3,153.6c-1,0-2-0.4-2.8-1.2c-1.6-1.6-1.6-4.1,0-5.7L218.2,32.2c1.6-1.6,4.1-1.6,5.7,0
				c1.6,1.6,1.6,4.1,0,5.7L109.2,152.4C108.4,153.2,107.4,153.6,106.3,153.6z"/>
		</g>
	</g>
	<g>
		<g>
			<path class="st1" d="M135.2,148.6c-1,0-2-0.4-2.8-1.2c-1.6-1.6-1.6-4.1,0-5.7l93.6-93.5c1.6-1.6,4.1-1.6,5.7,0
				c1.6,1.6,1.6,4.1,0,5.7l-93.6,93.5C137.3,148.2,136.3,148.6,135.2,148.6z"/>
		</g>
	</g>
	<g>
		<g>
			<path class="st1" d="M111.3,124.7c-1,0-2-0.4-2.8-1.2c-1.6-1.6-1.6-4.1,0-5.7l93.6-93.5c1.6-1.6,4.1-1.6,5.7,0
				c1.6,1.6,1.6,4.1,0,5.7l-93.6,93.5C113.4,124.3,112.4,124.7,111.3,124.7z"/>
		</g>
	</g>
	<g>
		<g>
			<path class="st1" d="M204.8,91.3c-1.2,0-2.4-0.6-3.2-1.6c-10-13.5-21.9-25.4-35.4-35.4c-1.8-1.3-2.1-3.8-0.8-5.6s3.8-2.1,5.6-0.8
				C185,58.3,197.5,70.8,208,84.9c1.3,1.8,0.9,4.3-0.8,5.6C206.4,91,205.6,91.3,204.8,91.3z"/>
		</g>
	</g>
	<g>
		<g>
			<path class="st1" d="M219.8,71.2c-1.2,0-2.4-0.6-3.2-1.6C208,58,197.8,47.8,186.2,39.3c-1.8-1.3-2.2-3.8-0.9-5.6
				c1.3-1.8,3.8-2.2,5.6-0.9c12.3,9,23,19.8,32.1,32c1.3,1.8,0.9,4.3-0.8,5.6C221.4,71,220.6,71.2,219.8,71.2z"/>
		</g>
	</g>
	<g>
		<g>
			<path class="st1" d="M190,111.6c-1.1,0-2.3-0.5-3.1-1.4c-12.6-14.9-26.5-28.8-41.4-41.4c-1.7-1.4-1.9-4-0.5-5.6
				c1.4-1.7,4-1.9,5.6-0.5c15.2,12.9,29.5,27.1,42.4,42.3c1.4,1.7,1.2,4.2-0.5,5.6C191.8,111.3,190.9,111.6,190,111.6z"/>
		</g>
	</g>
	<g>
		<g>
			<path class="st1" d="M174.4,131.1c-1.2,0-2.4-0.5-3.1-1.5c-13.2-16.7-28.4-31.9-45.1-45.1c-1.7-1.4-2-3.9-0.7-5.6s3.9-2,5.6-0.7
				c17.2,13.6,32.8,29.2,46.4,46.4c1.4,1.7,1.1,4.2-0.7,5.6C176.2,130.8,175.3,131.1,174.4,131.1z"/>
		</g>
	</g>
	<g>
		<g>
			<path class="st1" d="M152.5,144.3c-1.2,0-2.4-0.6-3.2-1.6c-10-13.6-22.2-25.8-36.2-36.1c-1.8-1.3-2.2-3.8-0.8-5.6
				c1.3-1.8,3.8-2.1,5.6-0.8c14.7,10.9,27.4,23.6,37.9,37.8c1.3,1.8,0.9,4.3-0.9,5.6C154.1,144,153.3,144.3,152.5,144.3z"/>
		</g>
	</g>
	<g>
		<g>
			<path class="st1" d="M42.3,238.7c-1.9,0-3.6-1.4-3.9-3.4c-0.3-2.2,1.2-4.2,3.3-4.6c17.3-2.7,39.8-14.5,68.6-36.2
				c1.8-1.3,4.3-1,5.6,0.8c1.3,1.8,1,4.3-0.8,5.6c-29.9,22.5-53.5,34.8-72.2,37.7C42.7,238.7,42.5,238.7,42.3,238.7z"/>
		</g>
	</g>
</g>
</svg>
