<?xml version="1.0" encoding="utf-8"?>
<!-- Generator: Adobe Illustrator 22.1.0, SVG Export Plug-In . SVG Version: 6.00 Build 0)  -->
<svg version="1.1" id="Layer_1" xmlns="http://www.w3.org/2000/svg" xmlns:xlink="http://www.w3.org/1999/xlink" x="0px" y="0px"
	 viewBox="0 0 256 256" style="enable-background:new 0 0 256 256;" xml:space="preserve">
<style type="text/css">
	.st0{fill:#F5B31F;}
	.st1{fill:#464646;}
	.st2{opacity:0.15;}
	.st3{fill:#AC6535;}
	.st4{fill:#EB573B;}
	.st5{fill:#90C056;}
	.st6{opacity:0.35;}
	.st7{fill:#FFFFFF;}
	.st8{opacity:0.2;}
	.st9{fill:#F6D67A;}
	.st10{opacity:0.3;}
	.st11{fill:#FFA755;}
	.st12{fill:#8FAE3C;}
	.st13{fill:#BE6BB2;}
	.st14{fill:#B7C536;}
	.st15{opacity:0.1;}
	.st16{fill:#9D5A96;}
	.st17{fill:#EA615D;}
	.st18{opacity:0.4;}
	.st19{fill:#F79932;}
	.st20{fill:#FFEC97;}
	.st21{fill:#FFD11D;}
	.st22{fill:#F7F2D5;}
	.st23{fill:#F6AF72;}
	.st24{fill:#BA6C45;}
	.st25{opacity:0.5;}
	.st26{fill:#E4C074;}
	.st27{fill:#656566;}
	.st28{fill:#FACD1F;}
	.st29{fill:#FFDF66;}
	.st30{fill:#6D6E71;}
	.st31{fill:#E77CAE;}
	.st32{fill:#FFE5C4;}
	.st33{fill:#F68455;}
	.st34{opacity:0.7;}
	.st35{fill:#ADEDFF;}
	.st36{fill:#EC754B;}
	.st37{fill:#4AA5BA;}
	.st38{opacity:0.8;}
	.st39{fill:#92A5AC;}
	.st40{fill:#D06E3C;}
	.st41{fill:#DA4F4B;}
	.st42{fill:#BDF3FF;}
	.st43{fill:#F18BB4;}
	.st44{fill:#F9D97A;}
	.st45{fill:none;}
	.st46{fill:#AF6535;}
	.st47{fill:#B93226;}
	.st48{fill:#FF6050;}
	.st49{fill:#EA7CB1;}
	.st50{fill:#00B0E0;}
	.st51{fill:#EA7DAE;}
	.st52{fill:#BC7532;}
	.st53{fill:#876C6C;}
	.st54{fill:#F9F6CD;}
	.st55{fill:#FFE37B;}
	.st56{fill:#1DDCFF;}
	.st57{fill:#60ACF7;}
	.st58{fill:#C3755A;}
	.st59{fill:#96557A;}
	.st60{fill:#66625D;}
	.st61{fill:#D68032;}
	.st62{fill:#F2A355;}
	.st63{fill:#7E9E6A;}
	.st64{fill:#965A85;}
	.st65{fill:#90CAD3;}
	.st66{fill:#94B57F;}
	.st67{fill:#B2E2E7;}
	.st68{fill:#FFDF8F;}
	.st69{fill:#FFFAEB;}
	.st70{fill:#F88916;}
	.st71{fill:#FFC86E;}
	.st72{fill:#AFA51D;}
	.st73{fill:#968A1C;}
	.st74{fill:#C3556D;}
</style>
<g>
	<g>
		<g>
			<g>
				<path class="st7" d="M148,180.7c0,11-8.9,20-19.9,20c-11,0-19.9-8.9-19.9-20c0-11,8.9-20,19.9-20
					C139.1,160.7,148,169.7,148,180.7z"/>
			</g>
		</g>
	</g>
	<g>
		<g>
			<g>
				<path class="st60" d="M85.5,133.3l0,94.9l85.1,0l0-94.9L85.5,133.3z M128.1,200.7c-11,0-19.9-8.9-19.9-20c0-11,8.9-20,19.9-20
					c11,0,19.9,8.9,19.9,20C148,191.7,139,200.7,128.1,200.7z"/>
			</g>
		</g>
	</g>
	<g class="st15">
		<g>
			<g>
				<path d="M159.6,133.3l0,94.9l11,0l0-94.9L159.6,133.3z"/>
			</g>
		</g>
	</g>
	<g>
		<g>
			<g>
				<path class="st60" d="M141.6,67.2l-27.1,0c0.2-1,0.3-2.1,0.3-3.2c0-9.5,0-42.1,0-42.1l26.5,0c0,0,0,32.6,0,42.1
					C141.3,65.1,141.4,66.2,141.6,67.2z"/>
			</g>
		</g>
	</g>
	<g>
		<g>
			<g>
				<path class="st61" d="M170.6,114.8l0,18.5l-85.1,0l0-18.5c0-4.6-0.4-14,10.4-24.8c9.5-9.6,17-15.1,18.7-22.8l27.1,0
					c1.6,7.7,9.1,13.2,18.7,22.8C171.1,100.8,170.6,110.2,170.6,114.8z"/>
			</g>
		</g>
	</g>
	<g class="st15">
		<g>
			<g>
				<path d="M159.6,133.3l11,0l0-18.5c0-4.6,0.4-14-10.4-24.8c-9.5-9.6-17-15.1-18.7-22.8l-8.8,0c0,5.1,2.2,11.3,6.9,18.2
					c4.7,6.9,16.4,12.5,18.1,20.3C159.6,113.5,159.6,133.3,159.6,133.3z"/>
			</g>
		</g>
	</g>
	<g>
		<g>
			<g>
				<path class="st61" d="M170.6,228.2l0,9.4c0,10-9.1,14.5-14.5,14.5c-5.4,0-28.1,0-28.1,0s-22.7,0-28.1,0
					c-5.4,0-14.5-4.5-14.5-14.5l0-9.4L170.6,228.2z"/>
			</g>
		</g>
	</g>
	<g class="st15">
		<g>
			<g>
				<path d="M159.5,252c5.4,0,11.1-4.5,11.1-14.5l0-9.4l-11,0L159.5,252z"/>
			</g>
		</g>
	</g>
	<g class="st10">
		<g>
			<g>
				<path class="st7" d="M85.5,133.3l0,94.9l11,0l0-94.9L85.5,133.3z"/>
			</g>
		</g>
	</g>
	<g class="st10">
		<g>
			<g>
				<path class="st7" d="M108.1,81.3c-4.7,6.9-8.2,16.6-9.9,24.4c-1.7,7.8-1.7,27.5-1.7,27.5l-11,0l0-18.5c0-4.6-0.4-14,10.4-24.8"
					/>
			</g>
		</g>
	</g>
	<g class="st10">
		<g>
			<g>
				<path class="st7" d="M96.6,252c-5.4,0-11.1-4.5-11.1-14.5l0-9.4l11,0c0,0,0.1,0.9,0.1,10c0,14.7,35.2,13.9,35.2,13.9L96.6,252z"
					/>
			</g>
		</g>
	</g>
	<g>
		<g>
			<g>
				<rect x="111.6" y="4" class="st60" width="32.9" height="17.9"/>
			</g>
		</g>
	</g>
	<g class="st15">
		<g>
			<g>
				<path d="M132.9,64l0-34.9l-15.2,0l0-7.2l23.7,0c0,0,0,32.6,0,42.1c0,1.1,0,2.2,0.1,3.2l-8.8,0C132.9,66.2,132.9,65.1,132.9,64z"
					/>
			</g>
		</g>
	</g>
	<g>
		<g>
			<g>
				<path class="st1" d="M141.6,71.2L141.6,71.2l-27.1,0c-1.2,0-2.3-0.5-3.1-1.5s-1.1-2.2-0.8-3.4c0.2-0.7,0.2-1.5,0.2-2.3l0-42.1
					c0-1.1,0.4-2.1,1.2-2.8s1.8-1.2,2.8-1.2l0,0l26.5,0c2.2,0,4,1.8,4,4l0,42.1c0,0.8,0.1,1.6,0.2,2.3c0.3,1.2,0,2.4-0.8,3.4
					C144,70.7,142.8,71.2,141.6,71.2z M118.8,63.2l18.5,0l0-37.3l-18.5,0L118.8,63.2z"/>
			</g>
		</g>
	</g>
	<g>
		<g>
			<g>
				<path class="st1" d="M170.6,137.3L170.6,137.3l-85.1,0c-2.2,0-4-1.8-4-4l0-18.5l0-0.5c0-5,0-15.5,11.5-27.1
					c2.1-2.1,4-3.9,5.8-5.7c6.2-5.9,10.7-10.2,11.7-15.1c0.4-1.9,2-3.2,3.9-3.2l0,0l27.1,0c1.9,0,3.5,1.3,3.9,3.2
					c1,4.9,5.5,9.2,11.7,15.1c1.9,1.8,3.8,3.6,5.8,5.7c11.6,11.6,11.5,22.1,11.5,27.1l0,19c0,1.1-0.4,2.1-1.2,2.8
					S171.7,137.3,170.6,137.3z M89.5,129.3l77.1,0l0-14.5c0,0,0,0,0,0l0-0.5c0-4.6,0-12.2-9.2-21.5c-2-2-3.9-3.8-5.7-5.5
					c-5.9-5.7-10.8-10.3-13.1-16.1l-21.2,0c-2.3,5.7-7.1,10.4-13.1,16.1c-1.8,1.7-3.7,3.5-5.7,5.5c-9.2,9.3-9.2,16.9-9.2,21.5l0,0.5
					L89.5,129.3z"/>
			</g>
		</g>
	</g>
	<g>
		<g>
			<g>
				<path class="st1" d="M170.6,232.2L170.6,232.2l-85.1,0c-2.2,0-4-1.8-4-4l0-94.9c0-1.1,0.4-2.1,1.2-2.8s1.8-1.2,2.8-1.2l0,0
					l85.1,0c2.2,0,4,1.8,4,4v94.9c0,1.1-0.4,2.1-1.2,2.8S171.7,232.2,170.6,232.2z M89.5,224.2l77.1,0v-86.9l-77.1,0L89.5,224.2z
					 M128.1,204.7c-13.2,0-23.9-10.8-23.9-24s10.7-24,23.9-24c13.2,0,23.9,10.8,23.9,24C152,193.9,141.2,204.7,128.1,204.7z
					 M128.1,164.7c-8.8,0-15.9,7.2-15.9,16s7.1,16,15.9,16c8.8,0,15.9-7.2,15.9-16C144,171.9,136.8,164.7,128.1,164.7z"/>
			</g>
		</g>
	</g>
	<g>
		<g>
			<g>
				<path class="st1" d="M156.2,256l-56.2,0c-4,0-8.4-1.6-11.8-4.4c-4.3-3.5-6.7-8.5-6.7-14.1l0-9.4c0-2.2,1.8-4,4-4l0,0l85.1,0
					c1.1,0,2.1,0.4,2.8,1.2c0.8,0.8,1.2,1.8,1.2,2.8l0,9.4C174.6,249.6,163.9,256,156.2,256z M89.5,232.2l0,5.4
					c0,3.2,1.3,5.9,3.7,7.9c2.2,1.8,5,2.6,6.7,2.6l56.2,0c3.5,0,10.5-3.2,10.5-10.5l0-5.4L89.5,232.2z"/>
			</g>
		</g>
	</g>
	<g>
		<g>
			<g>
				<path class="st1" d="M144.5,25.9L144.5,25.9l-32.9,0c-2.2,0-4-1.8-4-4l0-17.9c0-1.1,0.4-2.1,1.2-2.8s1.8-1.2,2.8-1.2l0,0l32.9,0
					c2.2,0,4,1.8,4,4l0,17.9c0,1.1-0.4,2.1-1.2,2.8S145.6,25.9,144.5,25.9z M115.6,17.9l24.9,0l0-9.9l-24.9,0L115.6,17.9z"/>
			</g>
		</g>
	</g>
	<g>
		<g>
			<g>
				<path class="st1" d="M128.1,204.7C128.1,204.7,128.1,204.7,128.1,204.7c-13.2,0-23.9-10.8-23.9-24c0-13.2,10.7-24,23.9-24
					c0,0,0,0,0,0c13.2,0,23.9,10.8,23.9,24c0,0,0,0,0,0C152,193.9,141.2,204.7,128.1,204.7z M128.1,164.7c-8.8,0-15.9,7.2-15.9,16
					c0,8.8,7.1,16,15.9,16c8.8,0,15.9-7.2,15.9-16C144,171.9,136.8,164.7,128.1,164.7z M148,180.7L148,180.7L148,180.7z"/>
			</g>
		</g>
	</g>
</g>
</svg>
