<?xml version="1.0" encoding="utf-8"?>
<!-- Generator: Adobe Illustrator 22.1.0, SVG Export Plug-In . SVG Version: 6.00 Build 0)  -->
<svg version="1.1" id="Layer_1" xmlns="http://www.w3.org/2000/svg" xmlns:xlink="http://www.w3.org/1999/xlink" x="0px" y="0px"
	 viewBox="0 0 256 256" style="enable-background:new 0 0 256 256;" xml:space="preserve">
<style type="text/css">
	.st0{fill:#F5B31F;}
	.st1{fill:#464646;}
	.st2{opacity:0.15;}
	.st3{fill:#AC6535;}
	.st4{fill:#EB573B;}
	.st5{fill:#90C056;}
	.st6{opacity:0.35;}
	.st7{fill:#FFFFFF;}
	.st8{opacity:0.2;}
	.st9{fill:#F6D67A;}
	.st10{opacity:0.3;}
	.st11{fill:#FFA755;}
	.st12{fill:#8FAE3C;}
	.st13{fill:#BE6BB2;}
	.st14{fill:#B7C536;}
	.st15{opacity:0.1;}
	.st16{fill:#9D5A96;}
	.st17{fill:#EA615D;}
	.st18{opacity:0.4;}
	.st19{fill:#F79932;}
	.st20{fill:#FFEC97;}
	.st21{fill:#FFD11D;}
	.st22{fill:#F7F2D5;}
	.st23{fill:#F6AF72;}
	.st24{fill:#BA6C45;}
	.st25{opacity:0.5;}
	.st26{fill:#E4C074;}
	.st27{fill:#656566;}
	.st28{fill:#FACD1F;}
	.st29{fill:#FFDF66;}
	.st30{fill:#6D6E71;}
	.st31{fill:#E77CAE;}
	.st32{fill:#FFE5C4;}
	.st33{fill:#F68455;}
	.st34{opacity:0.7;}
	.st35{fill:#ADEDFF;}
	.st36{fill:#EC754B;}
	.st37{fill:#4AA5BA;}
	.st38{opacity:0.8;}
	.st39{fill:#92A5AC;}
	.st40{fill:#D06E3C;}
	.st41{fill:#DA4F4B;}
	.st42{fill:#BDF3FF;}
	.st43{fill:#F18BB4;}
	.st44{fill:#F9D97A;}
	.st45{fill:none;}
	.st46{fill:#AF6535;}
	.st47{fill:#B93226;}
	.st48{fill:#FF6050;}
	.st49{fill:#EA7CB1;}
	.st50{fill:#00B0E0;}
	.st51{fill:#EA7DAE;}
	.st52{fill:#BC7532;}
	.st53{fill:#876C6C;}
	.st54{fill:#F9F6CD;}
	.st55{fill:#FFE37B;}
	.st56{fill:#1DDCFF;}
	.st57{fill:#60ACF7;}
	.st58{fill:#C3755A;}
	.st59{fill:#96557A;}
	.st60{fill:#66625D;}
	.st61{fill:#D68032;}
	.st62{fill:#F2A355;}
	.st63{fill:#7E9E6A;}
	.st64{fill:#965A85;}
	.st65{fill:#90CAD3;}
	.st66{fill:#94B57F;}
	.st67{fill:#B2E2E7;}
	.st68{fill:#FFDF8F;}
	.st69{fill:#FFFAEB;}
	.st70{fill:#F88916;}
	.st71{fill:#FFC86E;}
	.st72{fill:#AFA51D;}
	.st73{fill:#968A1C;}
	.st74{fill:#C3556D;}
</style>
<g>
	<g>
		<g>
			<path class="st32" d="M62.8,251.9c4.6-6,10-13,15.4-20.3c86.1-5.7,148.9-60.2,154.9-119.4c1.1-11.3-3.1-25.4-6.2-32.9
				c-3.1-7.5-15.2-30.2-36.6-6.1c-2.4,2.7-4.6,5.2-6.6,7.5c-9.8,11-14.3,16.1-16.2,18.3l-0.6,0.7c0.3,0.7,0.5,1.4,0.7,2.2
				c2.2,8.2-0.7,18.4-8.2,25.9c-10.4,10.4-25.8,11.9-34.3,3.4c-0.9-0.9-1.6-1.8-2.3-2.8c-5.8-8.8-3.6-22.1,5.7-31.4
				c7.9-7.8,18.5-10.6,26.9-7.9c0.9,0.3,1.8,0.6,2.6,1.1l0.3-0.2c2.2-2,7.3-6.4,18.3-16.2c2.2-2,4.7-4.2,7.5-6.6
				c24.2-21.4,1.4-33.5-6.1-36.6c-7.5-3.1-21.6-7.3-33-6.2C85.7,30,30.9,91.2,25.2,177.2c-7.7,5.7-14.9,11.2-21.1,16
				C23.7,2,168.7-26.9,225.9,30.3C283.1,87.4,254.2,232.3,62.8,251.9z"/>
		</g>
	</g>
	<g>
		<g>
			<path class="st33" d="M233.1,112.1c-6,59.3-68.8,113.7-154.9,119.4c8.4-11.2,17.1-23.6,24.5-35.4c14.2-23,23.2-44.5,14-53.7l-3-3
				c-9.1-9.1-30.4-0.4-53.3,13.7c-11.8,7.2-24.1,15.9-35.3,24.2C30.9,91.2,85.7,30,145,24.1c11.3-1.1,25.4,3.1,33,6.2
				c7.5,3.1,30.3,15.2,6.1,36.6c-2.8,2.4-5.2,4.6-7.5,6.6c-11.1,9.8-16.1,14.3-18.3,16.2L158,90c-0.8-0.4-1.7-0.8-2.6-1.1
				c-8.4-2.7-19.1,0.1-26.9,7.9c-9.4,9.3-11.6,22.7-5.7,31.4c0.7,1,1.4,1.9,2.3,2.8c8.5,8.5,23.9,7,34.3-3.4
				c7.6-7.5,10.4-17.7,8.2-25.9c-0.2-0.7-0.4-1.5-0.7-2.2l0.6-0.7c2-2.2,6.5-7.3,16.2-18.3c2-2.2,4.2-4.7,6.6-7.5
				c21.5-24.1,33.5-1.4,36.6,6.1C230,86.7,234.2,100.8,233.1,112.1z"/>
		</g>
		<g>
			<path class="st1" d="M78.2,235.5c-1.5,0-2.8-0.8-3.5-2.1c-0.7-1.4-0.6-3,0.3-4.3c10.1-13.6,18-25.1,24.3-35.2
				c9-14.6,23-40.4,14.6-48.8l-3-3c-8.3-8.3-33.9,5.4-48.3,14.2c-10,6.1-21.4,14-35,24c-1.3,0.9-2.9,1-4.3,0.3
				c-1.4-0.7-2.2-2.2-2.1-3.8C24,135.6,38.4,97,61.9,68.1c22.7-27.9,52.1-44.9,82.7-48c14.7-1.5,31.6,5.1,34.9,6.4
				c5.1,2.1,17.3,8.2,19.2,19.3c1.3,7.7-2.7,15.8-11.9,24l-26,23.1c-1.2,1.1-3,1.4-4.5,0.6c-0.7-0.3-1.3-0.6-2-0.8
				c-7.3-2.4-16.3,0.3-22.9,6.9c-7.8,7.8-10,19.1-5.2,26.4c0.5,0.8,1.1,1.5,1.8,2.2c6.9,6.9,19.8,5.4,28.6-3.4
				c6.3-6.3,9.1-14.9,7.2-22.1c-0.2-0.6-0.4-1.2-0.6-1.7c-0.6-1.4-0.3-3,0.7-4.1l0.6-0.7l16.3-18.3c2-2.2,4.2-4.7,6.6-7.5
				c8.2-9.2,16.3-13.2,24-11.9c11.1,1.9,17.2,14,19.3,19.1c1.3,3.2,7.9,20.1,6.4,34.8v0c-3.1,30.5-20.4,59.8-48.9,82.5
				C159,218.4,120,232.8,78.5,235.5C78.4,235.5,78.3,235.5,78.2,235.5z M103.3,131.6c5.2,0,9.8,1.4,13.3,4.9l3,3
				c12.6,12.6-1.6,39.5-13.4,58.7c-5.2,8.5-11.6,17.9-19.4,28.6c36.6-3.9,70.6-17.3,96.5-38c26.8-21.4,43.1-48.7,45.9-77.1
				c0,0,0,0,0,0c1-9.9-2.5-22.9-5.9-31c-1.3-3-5.9-13.1-13.2-14.3c-4.8-0.8-10.5,2.3-16.7,9.4c-2.4,2.7-4.6,5.2-6.6,7.5l-15.3,17.2
				c0,0.1,0,0.1,0.1,0.2c2.7,10-0.8,21.4-9.2,29.8c-12,11.9-29.9,13.5-39.9,3.4c-1.1-1-2-2.2-2.8-3.5c-7-10.5-4.3-25.9,6.3-36.5
				c8.7-8.7,20.9-12.2,31-8.9c0.2,0.1,0.4,0.1,0.6,0.2l24.2-21.4c7-6.2,10.2-11.8,9.4-16.7c-1.2-7.3-11.3-12-14.3-13.2
				c-8.1-3.3-21.1-6.9-31-5.9c-28.5,2.9-55.9,18.9-77.3,45.1C47.3,98.7,33.9,132.4,30,168.8c10.7-7.7,20.1-14,28.4-19.2
				C72.1,141.2,89.7,131.6,103.3,131.6z"/>
		</g>
	</g>
	<g>
		<g>
			<path class="st1" d="M62.8,255.9c-1.4,0-2.8-0.8-3.5-2.1c-0.8-1.4-0.7-3.1,0.3-4.4c12.8-16.6,30.3-39.4,42.6-60.4
				c7.7-13.1,19.4-36.1,11.6-43.9l0,0l-3-3c-7.8-7.8-30.9,3.9-44,11.6c-21,12.3-43.8,29.8-60.4,42.6c-1.3,1-3,1.1-4.4,0.3
				c-1.4-0.8-2.2-2.3-2-3.9c5.2-50.7,19.4-93.1,42.1-126.1c19.6-28.5,45.3-49,74.3-59.3c41.3-14.7,85.4-6.9,112.3,20
				c26.8,26.8,34.7,70.8,20,112.1c-10.3,29-30.8,54.7-59.3,74.3c-33,22.7-75.5,36.9-126.3,42.1C63.1,255.9,62.9,255.9,62.8,255.9z
				 M119.5,139.5c17.2,17.1-13.1,61.7-47.9,107.3c45.3-5.8,83.4-19.1,113.3-39.6c27.1-18.7,46.6-43,56.3-70.4
				c13.6-38.4,6.5-79.1-18.2-103.7C198.4,8.4,157.6,1.3,119.1,15c-27.4,9.7-51.7,29.2-70.4,56.3c-20.5,29.8-33.9,67.8-39.6,113.1
				c45.7-34.7,90.3-64.9,107.4-47.8L119.5,139.5z"/>
		</g>
	</g>
	<g>
		<g>
			<path class="st1" d="M122.7,132.2c-0.2,0-0.3,0-0.5,0c-26.7-3.5-30.2-17.2-29.8-25.1c0.4-9,6-19.1,15.3-27.8
				c9-8.4,19.8-13.7,28.8-14.1c17.8-0.7,21.9,16,22.9,23.2c0.3,2.2-1.3,4.2-3.5,4.5c-2.2,0.3-4.2-1.3-4.5-3.5
				c-1.4-11.1-6.4-16.6-14.6-16.2c-15.4,0.6-35.8,19.8-36.4,34.2c-0.3,6.3,3.5,14.3,22.9,16.8c2.2,0.3,3.7,2.3,3.4,4.5
				C126.4,130.8,124.7,132.2,122.7,132.2z"/>
		</g>
	</g>
	<g>
		<g>
			<path class="st1" d="M60.5,157c-1.7,0-3.3-1.1-3.8-2.9c-5.9-20.3-0.9-45,13.8-67.8C84,65.4,103.7,49,123,42.6
				c26.3-8.7,47.1,2.1,57.3,29.5c0.8,2.1-0.3,4.4-2.4,5.1c-2.1,0.8-4.4-0.3-5.1-2.4c-8.6-23.2-25.4-31.9-47.3-24.7
				C108.1,56,89.6,71.5,77.2,90.8c-13.4,20.8-18.1,43.1-12.8,61.2c0.6,2.1-0.6,4.3-2.7,5C61.2,157,60.9,157,60.5,157z"/>
		</g>
	</g>
	<g>
		<g>
			<path class="st1" d="M149,164.4c-8,0-20.7-4.2-24-29.9c-0.3-2.2,1.3-4.2,3.4-4.5c2.2-0.3,4.2,1.3,4.5,3.4
				c2.5,19.4,10.5,23.1,16.8,22.9c14.2-0.6,33-20.8,33.7-36c0.4-8.3-5.1-13.3-16.3-14.7c-2.2-0.3-3.7-2.3-3.5-4.5
				c0.3-2.2,2.3-3.7,4.5-3.5c7.3,0.9,24.1,5,23.3,23c-0.8,19.6-22.8,42.9-41.3,43.7C149.7,164.4,149.4,164.4,149,164.4z"/>
		</g>
	</g>
	<g>
		<g>
			<path class="st1" d="M119.3,202.4c-6,0-12-0.8-17.7-2.5c-2.1-0.6-3.3-2.8-2.7-5c0.6-2.1,2.8-3.3,5-2.7c18.2,5.3,40.8,0.6,61.9-13
				c19.6-12.5,35.3-31.1,41.1-48.5c7.1-21.5-1.6-38-24.5-46.4c-2.1-0.8-3.1-3.1-2.4-5.1c0.8-2.1,3.1-3.1,5.1-2.4
				c27.2,10,37.9,30.6,29.3,56.4C202.9,168.1,159.3,202.4,119.3,202.4z"/>
		</g>
	</g>
</g>
</svg>
