<?xml version="1.0" encoding="utf-8"?>
<!-- Generator: Adobe Illustrator 22.1.0, SVG Export Plug-In . SVG Version: 6.00 Build 0)  -->
<svg version="1.1" id="Layer_1" xmlns="http://www.w3.org/2000/svg" xmlns:xlink="http://www.w3.org/1999/xlink" x="0px" y="0px"
	 viewBox="0 0 256 256" style="enable-background:new 0 0 256 256;" xml:space="preserve">
<style type="text/css">
	.st0{fill:#F5B31F;}
	.st1{fill:#464646;}
	.st2{opacity:0.15;}
	.st3{fill:#AC6535;}
	.st4{fill:#EB573B;}
	.st5{fill:#90C056;}
	.st6{opacity:0.35;}
	.st7{fill:#FFFFFF;}
	.st8{opacity:0.2;}
	.st9{fill:#F6D67A;}
	.st10{opacity:0.3;}
	.st11{fill:#FFA755;}
	.st12{fill:#8FAE3C;}
	.st13{fill:#BE6BB2;}
	.st14{fill:#B7C536;}
	.st15{opacity:0.1;}
	.st16{fill:#9D5A96;}
	.st17{fill:#EA615D;}
	.st18{opacity:0.4;}
	.st19{fill:#F79932;}
	.st20{fill:#FFEC97;}
	.st21{fill:#FFD11D;}
	.st22{fill:#F7F2D5;}
	.st23{fill:#F6AF72;}
	.st24{fill:#BA6C45;}
	.st25{opacity:0.5;}
	.st26{fill:#E4C074;}
	.st27{fill:#656566;}
	.st28{fill:#FACD1F;}
	.st29{fill:#FFDF66;}
	.st30{fill:#6D6E71;}
	.st31{fill:#E77CAE;}
	.st32{fill:#FFE5C4;}
	.st33{fill:#F68455;}
	.st34{opacity:0.7;}
	.st35{fill:#ADEDFF;}
	.st36{fill:#EC754B;}
	.st37{fill:#4AA5BA;}
	.st38{opacity:0.8;}
	.st39{fill:#92A5AC;}
	.st40{fill:#D06E3C;}
	.st41{fill:#DA4F4B;}
	.st42{fill:#BDF3FF;}
	.st43{fill:#F18BB4;}
	.st44{fill:#F9D97A;}
	.st45{fill:none;}
	.st46{fill:#AF6535;}
	.st47{fill:#B93226;}
	.st48{fill:#FF6050;}
	.st49{fill:#EA7CB1;}
	.st50{fill:#00B0E0;}
	.st51{fill:#EA7DAE;}
	.st52{fill:#BC7532;}
	.st53{fill:#876C6C;}
	.st54{fill:#F9F6CD;}
	.st55{fill:#FFE37B;}
	.st56{fill:#1DDCFF;}
	.st57{fill:#60ACF7;}
	.st58{fill:#C3755A;}
	.st59{fill:#96557A;}
	.st60{fill:#66625D;}
	.st61{fill:#D68032;}
	.st62{fill:#F2A355;}
	.st63{fill:#7E9E6A;}
	.st64{fill:#965A85;}
	.st65{fill:#90CAD3;}
	.st66{fill:#94B57F;}
	.st67{fill:#B2E2E7;}
	.st68{fill:#FFDF8F;}
	.st69{fill:#FFFAEB;}
	.st70{fill:#F88916;}
	.st71{fill:#FFC86E;}
	.st72{fill:#AFA51D;}
	.st73{fill:#968A1C;}
	.st74{fill:#C3556D;}
</style>
<g>
	<g>
		<g>
			<path class="st4" d="M235.3,105.7c-15,56.6-20.9,113.8-20.9,113.8c-7.1,27.3-35.3,35.6-53.6,12c-5.3,11.2-15.9,20.4-32.8,20.4
				c-16.9,0-19.7-4.9-25-15.3c-25.3,18.6-63.8,12-62.1-25.3c2.1-45.3-9.1-47.6-20.2-99.2s17.8-69.8,63.1-61.2
				c5.1-15,18.1-23.5,32.8-26.2c-4.2,18.7-7.9,46-8,46.6C95.8,73.6,89.4,77.7,83.2,82c7.6,5.5,13.3,14,17.1,25.4
				c19.9-19.9,43.6-21.9,70.7-7.7c2.1-5,5-9.2,8.9-12.6c-8.5-12.5-22.5-19.9-42.3-21.8c-3.6-9.9,2.4-26.3,7.8-39
				c14.1,4.4,25.6,14,27.9,28.1C201.7,38.2,248.8,63.5,235.3,105.7z"/>
		</g>
	</g>
	<g class="st15">
		<g>
			<path d="M139.2,56.6c21.3,1.9,37.5,9.8,48,24l-7.3,3.7c-13.7-7.9-28-14.6-42.7-20.2L139.2,56.6z"/>
		</g>
	</g>
	<g class="st15">
		<g>
			<path d="M145.6,57.4c1.4-10.5,3.4-15.5,8-24.6l-6.7-3.2c-4.9,10.1-7.4,15.3-8.1,26.9L145.6,57.4z"/>
		</g>
	</g>
	<g class="st8">
		<g>
			<path class="st7" d="M83.8,50.8C38.4,42.2,9.6,60.3,20.7,112s22.2,53.9,20.2,99.2c0,0,10.5-32-0.1-71.7s-10.2-47.1,0-64.1
				S83.8,50.8,83.8,50.8z"/>
		</g>
	</g>
	<g class="st15">
		<g>
			<path d="M173.3,54.5c28.5-16.3,75.5,9.1,62.1,51.2c-15,56.6-20.9,113.8-20.9,113.8c-7.1,27.3-35.3,35.6-53.6,12
				c0,0,32.6,16.4,51.9-81S173.3,54.5,173.3,54.5z"/>
		</g>
	</g>
	<g class="st15">
		<g>
			<path d="M40.8,211.2c-1.7,37.3,36.8,44,62.1,25.3l-7.7-23.3c0,0-4.1,21.8-25,20.7S40.8,211.2,40.8,211.2z"/>
		</g>
	</g>
	<g class="st15">
		<g>
			<path d="M166.1,213.3c-2.7,22.7-14.1,35.9-36.9,38.9s-27.4-22.8-31.7-36.6c0,0,6.9,26.9,32.6,24S166.1,213.3,166.1,213.3z"/>
		</g>
	</g>
	<g>
		<g>
			<path class="st17" d="M179.9,87.2c6.1-5.4,14.4-8.6,24.9-9.6"/>
		</g>
	</g>
	<g>
		<g>
			<path class="st17" d="M53.3,74.4c12.1-0.7,22.1,1.9,30,7.6"/>
		</g>
	</g>
	<g>
		<g>
			<path class="st12" d="M179.9,87.2c-3.8,3.4-6.8,7.6-8.9,12.6c-27.1-14.2-50.8-12.2-70.7,7.7C96.5,96,90.8,87.5,83.2,82
				c6.1-4.3,12.6-8.5,25.4-10.8c0.1-0.5,3.7-27.9,8-46.6c1.8-8,3.7-14.4,5.5-16.4c6.7-7.4,28.5-4.1,30,0c0.7,1.7-2.9,9-6.7,18.1
				c-5.4,12.7-11.4,29.1-7.8,39C157.4,67.2,171.4,74.6,179.9,87.2z"/>
		</g>
	</g>
	<g class="st8">
		<g>
			<path class="st7" d="M152.1,8.2c-1.6-4.1-23.3-7.4-30,0c-1.8,2-3.7,8.4-5.5,16.4c-5.5,23.5-5.4,49.1-5.5,49.7
				c0,0,12-49.5,19.1-56.7S152.1,8.2,152.1,8.2z"/>
		</g>
	</g>
	<g>
		<g>
			<path class="st17" d="M103,236.6c-3.4-7-5.2-14-5.4-21"/>
		</g>
	</g>
	<g>
		<g>
			<line class="st17" x1="160.8" y1="231.5" x2="166.1" y2="213.3"/>
		</g>
	</g>
	<g>
		<g>
			<path class="st17" d="M171.2,197.7c8.7-29.9,9.9-50,6.2-78.8"/>
		</g>
	</g>
	<g>
		<g>
			<path class="st1" d="M128,255.9C128,255.9,128,255.9,128,255.9c-16.4,0-21.5-4.6-26.5-13.5c-15.2,9.4-33.6,11-47,3.8
				c-12.1-6.5-18.4-18.9-17.6-35.1c1.3-27.5-2.5-38.6-8.1-55.5c-3.5-10.3-7.7-23.1-11.9-42.7c-5.3-24.7-2.1-43.1,9.4-54.9
				c11.4-11.7,30.4-15.7,55.1-11.6C87,33,99.4,23.7,115.8,20.7c1.3-0.2,2.7,0.2,3.6,1.2c0.9,1,1.3,2.3,1,3.7
				c-1.7,7.4-4.4,21.3-7.7,45c-0.1,0.9-0.2,1.3-0.2,1.4c-0.3,1.6-1.6,2.9-3.2,3.2c-9,1.6-14.5,4.1-19.4,7.2
				c4.9,4.7,9,10.8,12.1,18.1c19.1-16.3,41.6-18.3,67.2-6.1c1.5-2.8,3.3-5.4,5.4-7.6c-8-10.1-20.3-15.8-37.4-17.4
				c-1.5-0.1-2.8-1.2-3.4-2.6c-4-11,1.7-27.4,7.9-41.9c0.8-1.9,2.9-2.9,4.9-2.3c15,4.7,25.5,14.1,29.4,26.2
				c15.4-6.3,34.9-3.2,49,8.2c15,12.1,20.3,30.7,14.2,49.9c-14.7,55.7-20.8,112.5-20.8,113.1c0,0.2-0.1,0.4-0.1,0.6
				c-3.9,15-13.9,25.6-26.6,28.2c-10.7,2.2-21.4-1.5-30.1-10.3C156.2,246.4,146.2,255.9,128,255.9z M103,232.6c0.3,0,0.6,0,0.9,0.1
				c1.1,0.3,2.1,1,2.6,2.1c5.1,9.8,6.8,13.1,21.5,13.1c17.9,0,26-11.4,29.2-18.1c0.6-1.3,1.8-2.1,3.2-2.3c1.4-0.2,2.7,0.4,3.6,1.5
				c7.3,9.4,16.8,13.7,26,11.8c9.7-2,17.3-10.2,20.4-22.1c0.5-4.7,6.7-59.9,21-114.1c0-0.1,0-0.1,0.1-0.2c5.2-16.2,1-31.2-11.5-41.3
				c-13.1-10.6-31.5-12.8-44.7-5.2c-1.1,0.7-2.5,0.7-3.7,0.1c-1.2-0.6-2-1.7-2.2-3c-1.8-10.5-9.6-19-21.7-23.8
				c-3.3,8-8.3,21.7-6.9,30.3c19.4,2.4,33.7,10.2,42.5,23.3c1.1,1.7,0.8,3.9-0.7,5.3c-3.3,2.9-6,6.7-7.8,11.1
				c-0.4,1-1.3,1.8-2.3,2.2c-1.1,0.4-2.2,0.3-3.2-0.2c-26.1-13.7-47.7-11.4-66,7c-1,1-2.4,1.4-3.8,1.1c-1.4-0.3-2.4-1.3-2.9-2.6
				C93,98.1,87.8,90.2,80.9,85.3c-1-0.8-1.7-2-1.7-3.3c0-1.3,0.6-2.5,1.7-3.2c6.1-4.3,12.7-8.4,24.1-10.9
				c2.5-17.6,4.7-29.8,6.3-37.8c-8.6,2.7-19.3,8.7-23.8,22.1c-0.6,1.9-2.6,3-4.5,2.7c-23.5-4.5-41.2-1.4-51.1,8.8
				c-9.5,9.7-12,25.8-7.3,47.6c4.1,19.2,8.3,31.8,11.7,41.9c5.7,17.1,9.9,29.4,8.6,58.4c-0.6,13.1,4,22.7,13.4,27.7
				c11.8,6.3,29.2,3.9,42.3-5.8C101.3,232.8,102.1,232.6,103,232.6z M214.4,219.4L214.4,219.4L214.4,219.4z"/>
		</g>
	</g>
	<g>
		<g>
			<path class="st1" d="M179.9,91.2c-1.1,0-2.2-0.5-3-1.4c-1.5-1.7-1.3-4.2,0.4-5.6c6.7-5.9,15.9-9.5,27.1-10.6
				c2.2-0.2,4.2,1.4,4.4,3.6s-1.4,4.2-3.6,4.4c-9.6,1-17.2,3.9-22.7,8.6C181.8,90.9,180.9,91.2,179.9,91.2z"/>
		</g>
	</g>
	<g>
		<g>
			<path class="st1" d="M83.2,86c-0.8,0-1.6-0.2-2.4-0.8c-7.1-5.2-16.3-7.5-27.4-6.9c-2.2,0.1-4.1-1.6-4.2-3.8
				c-0.1-2.2,1.6-4.1,3.8-4.2c13-0.8,23.9,2.1,32.6,8.4c1.8,1.3,2.2,3.8,0.9,5.6C85.7,85.5,84.5,86,83.2,86z"/>
		</g>
	</g>
	<g>
		<g>
			<path class="st1" d="M100.3,111.5c-0.3,0-0.6,0-0.9-0.1c-1.4-0.3-2.4-1.3-2.9-2.6C93,98.1,87.8,90.2,80.9,85.3
				c-1-0.8-1.7-2-1.7-3.3c0-1.3,0.6-2.5,1.7-3.2c6.1-4.3,12.7-8.4,24.1-10.9c3.3-23,5.9-36.7,7.6-44.1c2.9-13.1,5-16.6,6.4-18.2
				c5.6-6.2,17.3-6.5,25.6-4.9c6.2,1.2,10,3.3,11.1,6.2c1,2.7-0.2,5.9-4.4,15.7c-0.7,1.7-1.5,3.5-2.3,5.4c-2.8,6.7-10,23.7-8.3,33.8
				c19.4,2.4,33.7,10.2,42.5,23.3c1.1,1.7,0.8,3.9-0.7,5.3c-3.3,2.9-6,6.7-7.8,11.1c-0.4,1-1.3,1.8-2.3,2.2
				c-1.1,0.4-2.2,0.3-3.2-0.2c-26.1-13.7-47.7-11.4-66,7C102.4,111.1,101.4,111.5,100.3,111.5z M89.9,82.4c4.9,4.7,9,10.8,12.1,18.1
				c19.1-16.3,41.6-18.3,67.2-6.1c1.5-2.8,3.4-5.4,5.4-7.6c-8-10.1-20.3-15.8-37.4-17.4c-1.5-0.1-2.8-1.2-3.4-2.6
				c-4-11,1.7-27.4,7.9-41.9c0.8-1.9,1.6-3.7,2.3-5.5c1.5-3.4,3.2-7.4,3.9-9.5c-4.3-2.1-18.7-3.5-22.9,1.1
				c-0.2,0.2-1.8,2.4-4.6,14.6c-1.7,7.5-4.4,21.3-7.7,45c-0.1,0.9-0.2,1.3-0.2,1.4c-0.3,1.6-1.6,2.9-3.2,3.2
				C100.3,76.8,94.8,79.3,89.9,82.4z M148.1,8.7L148.1,8.7L148.1,8.7z"/>
		</g>
	</g>
	<g>
		<g>
			<path class="st1" d="M103,240.6c-1.5,0-2.9-0.8-3.6-2.2c-3.7-7.5-5.6-15.1-5.8-22.7c0-2.2,1.7-4,3.9-4.1c0,0,0.1,0,0.1,0
				c2.2,0,3.9,1.7,4,3.9c0.1,6.4,1.8,12.9,5,19.4c1,2,0.2,4.4-1.8,5.4C104.1,240.4,103.5,240.6,103,240.6z"/>
		</g>
	</g>
	<g>
		<g>
			<path class="st1" d="M160.8,235.5c-0.4,0-0.7-0.1-1.1-0.2c-2.1-0.6-3.3-2.8-2.7-5l5.3-18.2c0.6-2.1,2.8-3.3,5-2.7
				c2.1,0.6,3.3,2.8,2.7,5l-5.3,18.2C164.1,234.3,162.5,235.5,160.8,235.5z"/>
		</g>
	</g>
	<g>
		<g>
			<path class="st1" d="M171.2,201.7c-0.4,0-0.7-0.1-1.1-0.2c-2.1-0.6-3.3-2.8-2.7-5c8.3-28.3,9.8-47.8,6.1-77.2
				c-0.3-2.2,1.3-4.2,3.5-4.5c2.2-0.3,4.2,1.3,4.5,3.5c3.9,30.7,2.3,51-6.3,80.5C174.5,200.5,172.9,201.7,171.2,201.7z"/>
		</g>
	</g>
</g>
</svg>
