<?xml version="1.0" encoding="utf-8"?>
<!-- Generator: Adobe Illustrator 22.1.0, SVG Export Plug-In . SVG Version: 6.00 Build 0)  -->
<svg version="1.1" id="Layer_1" xmlns="http://www.w3.org/2000/svg" xmlns:xlink="http://www.w3.org/1999/xlink" x="0px" y="0px"
	 viewBox="0 0 256 256" style="enable-background:new 0 0 256 256;" xml:space="preserve">
<style type="text/css">
	.st0{fill:#F5B31F;}
	.st1{fill:#464646;}
	.st2{opacity:0.15;}
	.st3{fill:#AC6535;}
	.st4{fill:#EB573B;}
	.st5{fill:#90C056;}
	.st6{opacity:0.35;}
	.st7{fill:#FFFFFF;}
	.st8{opacity:0.2;}
	.st9{fill:#F6D67A;}
	.st10{opacity:0.3;}
	.st11{fill:#FFA755;}
	.st12{fill:#8FAE3C;}
	.st13{fill:#BE6BB2;}
	.st14{fill:#B7C536;}
	.st15{opacity:0.1;}
	.st16{fill:#9D5A96;}
	.st17{fill:#EA615D;}
	.st18{opacity:0.4;}
	.st19{fill:#F79932;}
	.st20{fill:#FFEC97;}
	.st21{fill:#FFD11D;}
	.st22{fill:#F7F2D5;}
	.st23{fill:#F6AF72;}
	.st24{fill:#BA6C45;}
	.st25{opacity:0.5;}
	.st26{fill:#E4C074;}
	.st27{fill:#656566;}
	.st28{fill:#FACD1F;}
	.st29{fill:#FFDF66;}
	.st30{fill:#6D6E71;}
	.st31{fill:#E77CAE;}
	.st32{fill:#FFE5C4;}
	.st33{fill:#F68455;}
	.st34{opacity:0.7;}
	.st35{fill:#ADEDFF;}
	.st36{fill:#EC754B;}
	.st37{fill:#4AA5BA;}
	.st38{opacity:0.8;}
	.st39{fill:#92A5AC;}
	.st40{fill:#D06E3C;}
	.st41{fill:#DA4F4B;}
	.st42{fill:#BDF3FF;}
	.st43{fill:#F18BB4;}
	.st44{fill:#F9D97A;}
	.st45{fill:none;}
	.st46{fill:#AF6535;}
	.st47{fill:#B93226;}
	.st48{fill:#FF6050;}
	.st49{fill:#EA7CB1;}
	.st50{fill:#00B0E0;}
	.st51{fill:#EA7DAE;}
	.st52{fill:#BC7532;}
	.st53{fill:#876C6C;}
	.st54{fill:#F9F6CD;}
	.st55{fill:#FFE37B;}
	.st56{fill:#1DDCFF;}
	.st57{fill:#60ACF7;}
	.st58{fill:#C3755A;}
	.st59{fill:#96557A;}
	.st60{fill:#66625D;}
	.st61{fill:#D68032;}
	.st62{fill:#F2A355;}
	.st63{fill:#7E9E6A;}
	.st64{fill:#965A85;}
	.st65{fill:#90CAD3;}
	.st66{fill:#94B57F;}
	.st67{fill:#B2E2E7;}
	.st68{fill:#FFDF8F;}
	.st69{fill:#FFFAEB;}
	.st70{fill:#F88916;}
	.st71{fill:#FFC86E;}
	.st72{fill:#AFA51D;}
	.st73{fill:#968A1C;}
	.st74{fill:#C3556D;}
</style>
<g>
	<g>
		<g>
			<path class="st0" d="M102.7,237.4c-0.7,0.5-1.3,0.9-2,1.3c-9.1,5.9-18.5,10.2-27.4,12.2c-10.1,2.2-19.5,1.3-27.1-3.8
				c-1.6-1.1-3.1-2.3-4.6-3.7l-29.9-29.9c-1-1-2-2.1-2.8-3.3C3.2,202.5,2,193,4,182.7c1.7-8.8,5.8-18.2,11.5-27.2
				c1-1.7,2.1-3.3,3.3-4.9c5.7-8,12.5-15.7,20-22.4c2.4-2.1,4.8-4.1,7.3-6.1c8.8-6.8,18.1-12.1,27.2-15.2c9.7-3.3,19.2-4,27.4-1.1
				c4.1,1.4,7.9,3.8,11.3,7.2l29.9,29.9c0.4,0.4,0.9,0.9,1.3,1.3c3,3.4,5.1,7.2,6.3,11.3c2.5,8.2,1.5,17.6-1.9,27.2
				c-3.3,9.2-8.8,18.6-15.8,27.4c-1.3,1.6-2.6,3.2-3.9,4.7l0,0C120.5,223.4,111.8,231.2,102.7,237.4z"/>
		</g>
	</g>
	<g class="st15">
		<g>
			<path d="M112,113l29.9,29.9c0.4,0.4,0.9,0.9,1.3,1.3c3,3.4,5.1,7.2,6.3,11.3c2.5,8.2,1.5,17.6-1.9,27.2
				c-3.3,9.2-8.8,18.6-15.8,27.4c-1.3,1.6-2.6,3.2-3.9,4.7l0,0c-7.4,8.5-16.1,16.3-25.2,22.5c-0.7,0.5-1.3,0.9-2,1.3
				c-9.1,5.9-18.5,10.2-27.4,12.2c-10.1,2.2-19.5,1.3-27.1-3.8c-1.6-1.1-3.1-2.3-4.6-3.7c0,0,44.1,1.8,69.3-48.9S112,113,112,113z"
				/>
		</g>
	</g>
	<g class="st10">
		<g>
			<path class="st7" d="M73.3,107c-9.1,3.1-18.4,8.4-27.2,15.2c-2.5,1.9-4.9,3.9-7.3,6.1c-7.5,6.7-14.4,14.4-20,22.4
				c-1.1,1.6-2.3,3.3-3.3,4.9c-5.7,9-9.8,18.4-11.5,27.2c-2,10.3-0.8,19.8,4.9,27.4c0.8,1.1,1.8,2.2,2.8,3.3c0,0,4.2-31.1,13.2-50.1
				S73.3,107,73.3,107z"/>
		</g>
	</g>
	<g>
		<g>
			<path class="st1" d="M63.6,255.9c-7.4,0-14-1.9-19.6-5.5c-1.8-1.2-3.6-2.6-5.2-4.2L8.9,216.2c-1.2-1.2-2.3-2.4-3.2-3.7
				c-6-8-7.9-18.6-5.6-30.6c1.7-9,5.9-18.8,12.1-28.6c1.1-1.7,2.2-3.4,3.4-5.1c5.8-8.2,12.9-16.2,20.6-23.1c2.4-2.2,5-4.3,7.5-6.3
				c9.3-7.2,19.1-12.7,28.3-15.8c11.2-3.8,21.3-4.2,30-1.1c4.8,1.7,9.1,4.4,12.8,8.1l29.9,29.9c0.5,0.5,1,1,1.4,1.5
				c3.3,3.7,5.7,8,7.1,12.8c2.6,8.7,2,18.7-1.9,29.7c-3.3,9.3-9,19.2-16.4,28.6c-1.3,1.6-2.6,3.3-4,4.9c0,0,0,0,0,0.1
				c-7.7,8.8-16.6,16.8-25.9,23.1c0,0,0,0,0,0c-0.7,0.5-1.4,0.9-2.1,1.4c-9.7,6.4-19.7,10.8-28.7,12.7
				C70.5,255.6,67,255.9,63.6,255.9z M89.6,108c-4.6,0-9.6,0.9-15,2.7c-8.3,2.8-17.3,7.9-26,14.5c-2.4,1.8-4.8,3.8-7.1,5.9
				c-7.3,6.5-14,14-19.4,21.7c-1.1,1.6-2.2,3.2-3.2,4.8c-5.6,8.9-9.4,17.8-11,25.8c-1.9,9.8-0.5,18,4.2,24.3c0.7,1,1.5,1.9,2.4,2.8
				l29.9,29.9c1.2,1.2,2.5,2.3,3.9,3.2c6.4,4.2,14.5,5.3,24.1,3.2c8.1-1.7,17.1-5.8,26.1-11.6c0.7-0.4,1.3-0.9,1.9-1.3l0,0
				c8.7-6,17.2-13.5,24.4-21.8c0,0,0,0,0-0.1c1.3-1.5,2.5-3,3.7-4.5c6.9-8.7,12.1-17.8,15.2-26.3c3.3-9.4,3.9-17.7,1.8-24.7
				c-1.1-3.6-2.9-6.9-5.5-9.8c-0.4-0.4-0.7-0.8-1.1-1.2l-29.9-29.9c-2.8-2.8-6.1-4.9-9.8-6.2C96.4,108.6,93.1,108,89.6,108z
				 M102.7,237.4L102.7,237.4L102.7,237.4z"/>
		</g>
	</g>
	<g>
		<g>
			<path class="st1" d="M100.7,186.7l-96.7,0c-2.2,0-4-1.8-4-4c0-2.2,1.8-4,4-4l0,0l96.7,0l27.2,0l19.7,0c2.2,0,4,1.8,4,4
				s-1.8,4-4,4l0,0l-19.7,0L100.7,186.7z"/>
		</g>
	</g>
	<g>
		<g>
			<path class="st1" d="M131.8,214.2l-122.9,0c-2.2,0-4-1.8-4-4c0-2.2,1.8-4,4-4c0,0,0,0,0,0l9.9,0l27.3,0l85.6,0c2.2,0,4,1.8,4,4
				S134,214.2,131.8,214.2z"/>
		</g>
	</g>
	<g>
		<g>
			<path class="st1" d="M102.7,241.4L102.7,241.4l-67.1,0c-2.2,0-4-1.8-4-4s1.8-4,4-4l0,0l67.1,0c2.2,0,4,1.8,4,4
				C106.7,239.6,105,241.4,102.7,241.4z"/>
		</g>
	</g>
	<g>
		<g>
			<path class="st1" d="M149.5,159.5C149.5,159.5,149.5,159.5,149.5,159.5l-21.6,0l-27.2,0l-85.2,0c-2.2,0-4-1.8-4-4s1.8-4,4-4
				l134,0c2.2,0,4,1.8,4,4C153.5,157.8,151.7,159.5,149.5,159.5z"/>
		</g>
	</g>
	<g>
		<g>
			<path class="st1" d="M100.7,132.2l-61.9,0c-2.2,0-4-1.8-4-4c0-2.2,1.8-4,4-4l0,0l61.9,0l26.4,0c2.2,0,4,1.8,4,4c0,2.2-1.8,4-4,4
				L100.7,132.2z"/>
		</g>
	</g>
	<g>
		<g>
			<path class="st1" d="M73.3,254.9L73.3,254.9c-2.2,0-4-1.8-4-4l0-143.9c0-2.2,1.8-4,4-4l0,0c2.2,0,4,1.8,4,4l0,143.9
				C77.3,253.1,75.5,254.9,73.3,254.9z"/>
		</g>
	</g>
	<g>
		<g>
			<path class="st1" d="M100.7,242.7c-2.2,0-4-1.8-4-4l0-132.8c0-2.2,1.8-4,4-4l0,0c2.2,0,4,1.8,4,4l0,132.8
				C104.7,240.9,103,242.7,100.7,242.7z"/>
		</g>
	</g>
	<g>
		<g>
			<path class="st1" d="M127.9,218.9c-1,0-2-0.4-2.8-1.2c-0.8-0.8-1.2-1.9-1.2-3l0-85.8c0-2.2,1.8-4,4-4l0,0c2.2,0,4,1.8,4,4l0,53.8
				l0,32.1c0,1.1-0.4,2.1-1.2,2.8C130,218.5,128.9,218.9,127.9,218.9z"/>
		</g>
	</g>
	<g>
		<g>
			<path class="st1" d="M46.2,251.1c-2.2,0-4-1.8-4-4l0-125c0-2.2,1.8-4,4-4s4,1.8,4,4l0,125C50.2,249.3,48.4,251.1,46.2,251.1z"/>
		</g>
	</g>
	<g>
		<g>
			<path class="st1" d="M18.8,224.5L18.8,224.5c-2.2,0-4-1.8-4-4l0-69.9c0-2.2,1.8-4,4-4h0c2.2,0,4,1.8,4,4l0,69.9
				C22.8,222.7,21.1,224.5,18.8,224.5z"/>
		</g>
	</g>
	<g>
		<g>
			<polygon class="st12" points="220,4 198.6,58.3 168.1,70.3 170.3,59.2 			"/>
		</g>
	</g>
	<g class="st15">
		<g>
			<polygon points="173.6,55.5 176.3,53.7 176.3,59.7 200.2,49.9 198,57.5 170.1,66.7 			"/>
		</g>
	</g>
	<g>
		<g>
			<path class="st1" d="M168.1,74.3c-0.9,0-1.8-0.3-2.6-0.9c-1.1-0.9-1.6-2.4-1.4-3.8l2.2-11.1c0.1-0.7,0.5-1.4,1-1.9L217,1.3
				c1.3-1.4,3.4-1.7,5.1-0.7c1.6,1,2.3,3.1,1.6,4.9l-21.4,54.3c-0.4,1-1.2,1.9-2.3,2.3l-30.5,12C169.1,74.2,168.6,74.3,168.1,74.3z
				 M174,61l-0.6,2.9l22.1-8.7l12.6-32.1L174,61z"/>
		</g>
	</g>
	<g>
		<g>
			<polygon class="st12" points="252.9,36.9 197.7,86.6 186.6,88.8 163.7,93.2 168.1,70.3 198.6,58.3 			"/>
		</g>
	</g>
	<g class="st15">
		<g>
			<polygon points="170.9,71.9 174.7,70.9 173,83.4 206.3,77.6 198.2,87.4 165.5,90.9 			"/>
		</g>
	</g>
	<g>
		<g>
			<path class="st1" d="M163.7,97.2c-1.1,0-2.1-0.4-2.8-1.2c-0.9-0.9-1.4-2.3-1.1-3.6l4.5-23c0.3-1.3,1.2-2.5,2.5-3l84.7-33.4
				c1.8-0.7,3.8,0,4.9,1.6c1,1.6,0.7,3.8-0.7,5.1l-55.2,49.7c-0.5,0.5-1.2,0.8-1.9,1l-34,6.6C164.2,97.2,163.9,97.2,163.7,97.2z
				 M171.6,73.2l-2.9,15l27.1-5.3l37.9-34.2L171.6,73.2z"/>
		</g>
	</g>
	<g>
		<g>
			<polygon class="st12" points="179.3,12.8 170.3,59.2 168.1,70.3 163.7,93.2 138.3,98.2 138.5,94.5 139,86.4 142.2,80.5 			"/>
		</g>
	</g>
	<g class="st15">
		<g>
			<polygon points="142.5,79.9 145.9,79.4 145.9,89.1 165,86.6 163.9,92.1 139.7,94.9 			"/>
		</g>
	</g>
	<g>
		<g>
			<path class="st1" d="M138.3,102.2c-1,0-1.9-0.3-2.6-1c-0.9-0.8-1.4-2-1.4-3.2l0.7-11.8c0-0.6,0.2-1.2,0.5-1.7l3.2-5.9l37.1-67.7
				c0.9-1.7,3-2.5,4.9-1.8c1.9,0.7,2.9,2.6,2.6,4.5L167.6,94c-0.3,1.6-1.6,2.9-3.2,3.2l-25.4,4.9
				C138.8,102.2,138.6,102.2,138.3,102.2z M142.9,87.5l-0.3,5.8l17.7-3.4l10.2-52.6L142.9,87.5z"/>
		</g>
	</g>
	<g>
		<g>
			<polygon class="st12" points="244.1,77.6 176.4,114.8 170.5,118 162.5,118.4 158.7,118.6 137.1,119.9 138.3,98.2 163.7,93.3 
				186.6,88.8 197.7,86.6 			"/>
		</g>
	</g>
	<g class="st15">
		<g>
			<polygon points="140.5,112.5 180,110.2 172.2,117.1 139,119.8 			"/>
		</g>
	</g>
	<g>
		<g>
			<path class="st1" d="M137.1,123.9c-1.1,0-2.1-0.4-2.8-1.2c-0.8-0.8-1.2-1.9-1.2-3.1l1.2-21.7c0.1-1.8,1.4-3.4,3.2-3.7l105.8-20.6
				c1.9-0.4,3.9,0.7,4.5,2.6c0.7,1.9-0.1,3.9-1.8,4.9l-73.5,40.4c-0.5,0.3-1.1,0.5-1.7,0.5l-33.5,1.9
				C137.2,123.9,137.2,123.9,137.1,123.9z M142.1,101.5l-0.8,14.1l28.1-1.6l50.3-27.6L142.1,101.5z"/>
		</g>
	</g>
	<g>
		<g>
			<polygon class="st12" points="136.1,137.1 130.1,131.1 129.5,127.4 128.3,120.4 126.5,109.2 126.3,108.1 125.1,100.8 124.1,94.7 
				125.9,86.9 142.9,16.3 139.3,81.7 139,86.4 138.5,94.5 138.3,98.2 137.1,119.9 136.6,128.6 136.1,136.9 			"/>
		</g>
	</g>
	<g class="st15">
		<g>
			<polygon points="129.8,86.6 136.1,121.5 132,125.1 125.9,88.3 			"/>
		</g>
	</g>
	<g>
		<g>
			<polygon class="st12" points="240.6,114 170,131 162.2,132.9 156.2,131.9 148.9,130.7 147.7,130.5 136.6,128.6 137.1,119.9 
				158.7,118.6 162.5,118.4 170.5,118 175.2,117.7 			"/>
		</g>
	</g>
	<g>
		<g>
			<path class="st1" d="M136.1,141.1c-1,0-2.1-0.4-2.8-1.2l-6-6c-0.6-0.6-1-1.3-1.1-2.2l-6.1-36.4c-0.1-0.5-0.1-1.1,0.1-1.6
				L139,15.3c0.5-2,2.4-3.3,4.5-3c2,0.3,3.5,2.1,3.4,4.2l-6.8,120.8c-0.1,1.6-1.1,3-2.6,3.5C137.1,141,136.6,141.1,136.1,141.1z
				 M128.1,94.9l4.8,28.4l3.6-63L128.1,94.9z"/>
		</g>
	</g>
	<g>
		<g>
			<path class="st1" d="M162.2,136.9c-0.2,0-0.4,0-0.7-0.1l-25.6-4.3c-2-0.3-3.4-2.1-3.3-4.2l0.5-8.8c0.1-2,1.7-3.7,3.8-3.8
				l103.5-5.8c2.1-0.1,3.9,1.4,4.2,3.4c0.3,2-1,4-3,4.5l-78.4,18.9C162.8,136.9,162.5,136.9,162.2,136.9z M140.8,125.3l21.3,3.6
				l34.6-8.3l-55.7,3.1L140.8,125.3z"/>
		</g>
	</g>
	<g>
		<g>
			<path class="st12" d="M213.2,141.4l-48,1.8l0,0l-22,1c-0.4-0.5-0.8-0.9-1.3-1.3l-5.8-5.8l0-0.3l0.5-8.2l11.1,1.9l1.1,0.2l7.3,1.2
				l6,1l6.6,1.1L213.2,141.4z"/>
		</g>
	</g>
	<g class="st15">
		<g>
			<polygon points="140.6,122.4 173,127.5 163.7,131.8 139,127.1 			"/>
		</g>
	</g>
	<g>
		<g>
			<path class="st1" d="M143.2,148.3c-1.1,0-2.2-0.5-3-1.4c-0.3-0.4-0.7-0.8-1.1-1.2l-5.8-5.8c-0.8-0.8-1.2-1.9-1.2-3l0.5-8.5
				c0.1-1.1,0.6-2.2,1.5-2.9c0.9-0.7,2-1,3.2-0.8l76.6,12.8c2,0.3,3.5,2.2,3.3,4.2c-0.1,2-1.8,3.7-3.8,3.7l-47.8,1.8
				c-0.1,0-0.1,0-0.2,0l-22,1C143.3,148.3,143.3,148.3,143.2,148.3z M140.2,135.6l4.5,4.6c0,0,0.1,0.1,0.1,0.1l19.9-0.9
				c0.1,0,0.2,0,0.3,0l8.9-0.3l-33.6-5.6L140.2,135.6z"/>
		</g>
	</g>
	<g>
		<g>
			<polygon class="st12" points="130.1,131.1 112.9,113.8 113.7,91.7 113.7,91.7 115.5,43.7 123,88.1 124.1,94.7 125.1,100.8 
				126.3,108.1 126.5,109.2 128.3,120.4 129.5,127.4 			"/>
		</g>
	</g>
	<g>
		<g>
			<path class="st1" d="M130.1,135.1c-1,0-2.1-0.4-2.8-1.2L110,116.7c-0.8-0.8-1.2-1.9-1.2-3l0.8-22.1c0-0.1,0-0.2,0-0.2l1.8-47.8
				c0.1-2.1,1.7-3.7,3.7-3.8c2-0.1,3.9,1.3,4.2,3.3l14.6,87.4c0.3,1.7-0.6,3.4-2.1,4.2C131.4,135,130.8,135.1,130.1,135.1z
				 M116.9,112.3l7.2,7.2L118,83l-0.3,8.9c0,0.1,0,0.2,0,0.2L116.9,112.3z"/>
		</g>
	</g>
</g>
</svg>
