<?xml version="1.0" encoding="utf-8"?>
<!-- Generator: Adobe Illustrator 22.1.0, SVG Export Plug-In . SVG Version: 6.00 Build 0)  -->
<svg version="1.1" id="Layer_1" xmlns="http://www.w3.org/2000/svg" xmlns:xlink="http://www.w3.org/1999/xlink" x="0px" y="0px"
	 viewBox="0 0 256 256" style="enable-background:new 0 0 256 256;" xml:space="preserve">
<style type="text/css">
	.st0{fill:#F5B31F;}
	.st1{fill:#464646;}
	.st2{opacity:0.15;}
	.st3{fill:#AC6535;}
	.st4{fill:#EB573B;}
	.st5{fill:#90C056;}
	.st6{opacity:0.35;}
	.st7{fill:#FFFFFF;}
	.st8{opacity:0.2;}
	.st9{fill:#F6D67A;}
	.st10{opacity:0.3;}
	.st11{fill:#FFA755;}
	.st12{fill:#8FAE3C;}
	.st13{fill:#BE6BB2;}
	.st14{fill:#B7C536;}
	.st15{opacity:0.1;}
	.st16{fill:#9D5A96;}
	.st17{fill:#EA615D;}
	.st18{opacity:0.4;}
	.st19{fill:#F79932;}
	.st20{fill:#FFEC97;}
	.st21{fill:#FFD11D;}
	.st22{fill:#F7F2D5;}
	.st23{fill:#F6AF72;}
	.st24{fill:#BA6C45;}
	.st25{opacity:0.5;}
	.st26{fill:#E4C074;}
	.st27{fill:#656566;}
	.st28{fill:#FACD1F;}
	.st29{fill:#FFDF66;}
	.st30{fill:#6D6E71;}
	.st31{fill:#E77CAE;}
	.st32{fill:#FFE5C4;}
	.st33{fill:#F68455;}
	.st34{opacity:0.7;}
	.st35{fill:#ADEDFF;}
	.st36{fill:#EC754B;}
	.st37{fill:#4AA5BA;}
	.st38{opacity:0.8;}
	.st39{fill:#92A5AC;}
	.st40{fill:#D06E3C;}
	.st41{fill:#DA4F4B;}
	.st42{fill:#BDF3FF;}
	.st43{fill:#F18BB4;}
	.st44{fill:#F9D97A;}
	.st45{fill:none;}
	.st46{fill:#AF6535;}
	.st47{fill:#B93226;}
	.st48{fill:#FF6050;}
	.st49{fill:#EA7CB1;}
	.st50{fill:#00B0E0;}
	.st51{fill:#EA7DAE;}
	.st52{fill:#BC7532;}
	.st53{fill:#876C6C;}
	.st54{fill:#F9F6CD;}
	.st55{fill:#FFE37B;}
	.st56{fill:#1DDCFF;}
	.st57{fill:#60ACF7;}
	.st58{fill:#C3755A;}
	.st59{fill:#96557A;}
	.st60{fill:#66625D;}
	.st61{fill:#D68032;}
	.st62{fill:#F2A355;}
	.st63{fill:#7E9E6A;}
	.st64{fill:#965A85;}
	.st65{fill:#90CAD3;}
	.st66{fill:#94B57F;}
	.st67{fill:#B2E2E7;}
	.st68{fill:#FFDF8F;}
	.st69{fill:#FFFAEB;}
	.st70{fill:#F88916;}
	.st71{fill:#FFC86E;}
	.st72{fill:#AFA51D;}
	.st73{fill:#968A1C;}
	.st74{fill:#C3556D;}
</style>
<g>
	<g>
		<g>
			<path class="st44" d="M163.7,121.7L125.6,252L92.1,121.7c2.3-0.5,4.4-1.5,6.2-2.8c1.1-0.8,2.1-1.6,3-2.6c0.5,0.6,1.1,1.1,1.7,1.6
				c3.1,2.6,7.2,4.2,11.6,4.2c5.3,0,10-2.2,13.3-5.8c3.3,3.6,8,5.8,13.3,5.8c4.4,0,8.5-1.6,11.6-4.2c0.6-0.5,1.2-1,1.7-1.6
				c1,1,2,2,3.2,2.8C159.5,120.3,161.6,121.2,163.7,121.7z"/>
		</g>
	</g>
	<g class="st2">
		<g>
			<path class="st1" d="M163.7,121.7L125.6,252l-5.8-22.8l30.6-99.4c-2.7,1.6-5.8,2.5-9.1,2.5c-5.3,0-10-2.2-13.3-5.8
				c-3.3,3.6-8.1,5.8-13.3,5.8c-4.4,0-8.5-1.6-11.6-4.2c-0.6-0.5-1.2-1-1.7-1.6c-0.9,1-4,3.2-4,3.2l-2.1-4.5c0,0,1.9-5.6,0.5-5.6
				l57.7,0.3l5.7,0c0.6,0.3,1.2,0.6,1.8,0.9C161.8,121.2,162.8,121.4,163.7,121.7z"/>
		</g>
	</g>
	<g class="st2">
		<g>
			<path class="st1" d="M160.9,120.8c-0.6-0.3-1.2-0.6-1.8-0.9L160.9,120.8z"/>
		</g>
	</g>
	<g>
		<g>
			<path class="st1" d="M125.6,256C125.5,256,125.5,256,125.6,256c-1.9,0-3.4-1.3-3.9-3L88.2,122.6c-0.3-1-0.1-2.2,0.5-3.1
				s1.5-1.6,2.5-1.8c1.7-0.4,3.4-1.1,4.8-2.1c0.9-0.6,1.6-1.3,2.3-2c0.8-0.8,1.8-1.3,2.9-1.3c0,0,0,0,0,0c1.1,0,2.2,0.5,2.9,1.3
				c0.4,0.4,0.8,0.8,1.3,1.2c2.6,2.2,5.7,3.3,9.1,3.3c4,0,7.7-1.6,10.4-4.5c0.8-0.8,1.8-1.3,2.9-1.3c0,0,0,0,0,0
				c1.1,0,2.2,0.5,2.9,1.3c2.7,2.9,6.4,4.5,10.4,4.5c3.3,0,6.5-1.2,9.1-3.3c0.5-0.4,0.9-0.8,1.3-1.3c0.8-0.8,1.8-1.3,2.9-1.3
				c1.1,0,2.2,0.5,2.9,1.3c0.8,0.8,1.6,1.5,2.5,2.2c1.4,1,3,1.6,4.7,2c1.1,0.2,2,0.9,2.6,1.9s0.7,2.1,0.4,3.1l-38.2,130.4
				C128.9,254.9,127.3,256,125.6,256z M96.9,124.3l28.9,112.7l33-112.7c-1.2-0.5-2.3-1.1-3.3-1.8c-0.3-0.2-0.7-0.5-1-0.7
				c-3.8,2.9-8.5,4.4-13.3,4.4c-4.8,0-9.5-1.6-13.3-4.5c-3.8,2.9-8.5,4.5-13.3,4.5c-4.8,0-9.5-1.6-13.3-4.5
				c-0.2,0.2-0.5,0.3-0.7,0.5C99.4,123,98.2,123.7,96.9,124.3z"/>
		</g>
	</g>
	<g>
		<g>
			<path class="st46" d="M186,103.9c0,10-8.1,18.2-18.2,18.2c-1.4,0-2.8-0.2-4.1-0.5c-2.2-0.5-4.2-1.4-6-2.6
				c-1.2-0.8-2.3-1.7-3.2-2.8c-0.5,0.6-1.1,1.1-1.7,1.6c-3.1,2.6-7.2,4.2-11.6,4.2c-5.3,0-10-2.2-13.3-5.8
				c-3.3,3.6-8.1,5.8-13.3,5.8c-4.4,0-8.5-1.6-11.6-4.2c-0.6-0.5-1.1-1-1.7-1.6c-0.9,1-1.9,1.8-3,2.6c-1.8,1.3-3.9,2.2-6.2,2.8
				c-1.3,0.3-2.7,0.5-4.1,0.5c-10,0-18.1-8.1-18.1-18.2c0-7.7,4.7-14.2,11.5-16.9c-5-8.3-7.9-18-7.9-28.3C73.4,28.5,97.8,4,127.9,4
				s54.5,24.5,54.5,54.6c0,10.4-2.9,20.1-7.9,28.3C181.2,89.7,186,96.3,186,103.9z"/>
		</g>
	</g>
	<g class="st2">
		<g>
			<path class="st7" d="M154.6,11c-7.9-4.5-17-7-26.7-7C97.8,4,73.4,28.5,73.4,58.7c0,10.4,2.9,20.1,7.9,28.3c0,0-5.7-36.1,13.9-58
				S154.6,11,154.6,11z"/>
		</g>
	</g>
	<g class="st2">
		<g>
			<path class="st1" d="M174.5,87c6.7,2.7,11.5,9.2,11.5,16.9c0,10-8.1,18.2-18.2,18.2c-1.4,0-2.8-0.2-4.1-0.5
				c-2.2-0.5-4.2-1.4-6-2.6c-1.2-0.8-2.3-1.7-3.2-2.8c-0.5,0.6-1.1,1.1-1.7,1.6c-3.1,2.6-7.2,4.2-11.6,4.2c-5.3,0-10-2.2-13.3-5.8
				c-3.3,3.6-8.1,5.8-13.3,5.8c-4.4,0-8.5-1.6-11.6-4.2c-0.6-0.5-1.1-1-1.7-1.6c-0.9,1-1.9,1.8-3,2.6c-1.8,1.3-3.9,2.2-6.2,2.8
				c-1.3,0.3-2.7,0.5-4.1,0.5c-10,0-18.1-8.1-18.1-18.2c0,0,9.4,8.1,15.4,8.9c6,0.8,8.7-3.2,15.8-3.9c7.1-0.6,7.7,4.5,13.2,4.7
				c5.5,0.2,7.7-5.2,13.7-5.3c6-0.2,6.8,4.7,13,5c6.3,0.3,6.4-4.5,13.4-4.5c6.9,0,12.7,7.1,19.7-0.3S174.5,87,174.5,87z"/>
		</g>
	</g>
	<g>
		<g>
			<path class="st1" d="M167.8,126.1C167.8,126.1,167.8,126.1,167.8,126.1c-1.7,0-3.3-0.2-5-0.6c-2.6-0.6-5.1-1.7-7.3-3.2
				c-0.3-0.2-0.7-0.5-1-0.7c-3.8,2.9-8.5,4.4-13.3,4.4c-4.8,0-9.5-1.6-13.3-4.5c-3.8,2.9-8.5,4.5-13.3,4.5c-4.8,0-9.5-1.6-13.3-4.5
				c-0.2,0.2-0.5,0.3-0.7,0.5c-2.3,1.6-4.8,2.7-7.6,3.4c-1.6,0.4-3.3,0.6-5,0.6c-12.2,0-22.1-10-22.1-22.2c0-7.6,3.8-14.5,10-18.5
				c-4.2-8.2-6.4-17.4-6.4-26.7c0-15.7,6.1-30.4,17.1-41.5C97.6,6.1,112.3,0,127.9,0c0,0,0,0,0,0c32.3,0,58.5,26.3,58.5,58.6
				c0,9.3-2.2,18.5-6.4,26.7c6.2,4,10,10.9,10,18.6l0,0c0,5.9-2.3,11.5-6.5,15.7C179.3,123.8,173.7,126.1,167.8,126.1z M154.5,112.3
				c1.1,0,2.2,0.5,2.9,1.3c0.8,0.8,1.6,1.5,2.5,2.2c1.4,1,3,1.6,4.7,2c1,0.2,2.1,0.4,3.2,0.4h0c3.8,0,7.3-1.5,10-4.2
				c2.7-2.7,4.1-6.2,4.1-10c0-5.9-3.5-11-8.9-13.2c-1.1-0.4-1.9-1.3-2.3-2.4c-0.4-1.1-0.2-2.3,0.4-3.3c4.8-7.9,7.3-17,7.3-26.3
				c0-27.9-22.7-50.6-50.5-50.6c0,0,0,0,0,0c-13.5,0-26.2,5.3-35.7,14.8c-9.5,9.6-14.8,22.3-14.8,35.8c0,9.3,2.5,18.4,7.3,26.3
				c0.6,1,0.7,2.2,0.4,3.3c-0.4,1.1-1.2,2-2.3,2.4c-5.4,2.2-8.9,7.3-8.9,13.2c0,7.8,6.3,14.2,14.1,14.2c1.1,0,2.2-0.1,3.2-0.4
				c1.8-0.4,3.4-1.1,4.8-2.1c0.9-0.6,1.6-1.3,2.3-2c0.8-0.8,1.8-1.3,2.9-1.3c0,0,0,0,0,0c1.1,0,2.2,0.5,2.9,1.3
				c0.4,0.4,0.8,0.8,1.3,1.2c2.6,2.2,5.7,3.3,9.1,3.3c4,0,7.7-1.6,10.4-4.5c0.8-0.8,1.8-1.3,2.9-1.3c0,0,0,0,0,0
				c1.1,0,2.2,0.5,2.9,1.3c2.7,2.9,6.4,4.5,10.4,4.5c3.3,0,6.5-1.2,9.1-3.3c0.5-0.4,0.9-0.8,1.3-1.3
				C152.3,112.8,153.4,112.3,154.5,112.3z M186,103.9L186,103.9L186,103.9z"/>
		</g>
	</g>
</g>
</svg>
