<?xml version="1.0" encoding="utf-8"?>
<!-- Generator: Adobe Illustrator 22.1.0, SVG Export Plug-In . SVG Version: 6.00 Build 0)  -->
<svg version="1.1" id="Layer_1" xmlns="http://www.w3.org/2000/svg" xmlns:xlink="http://www.w3.org/1999/xlink" x="0px" y="0px"
	 viewBox="0 0 256 256" style="enable-background:new 0 0 256 256;" xml:space="preserve">
<style type="text/css">
	.st0{fill:#F5B31F;}
	.st1{fill:#464646;}
	.st2{opacity:0.15;}
	.st3{fill:#AC6535;}
	.st4{fill:#EB573B;}
	.st5{fill:#90C056;}
	.st6{opacity:0.35;}
	.st7{fill:#FFFFFF;}
	.st8{opacity:0.2;}
	.st9{fill:#F6D67A;}
	.st10{opacity:0.3;}
	.st11{fill:#FFA755;}
	.st12{fill:#8FAE3C;}
	.st13{fill:#BE6BB2;}
	.st14{fill:#B7C536;}
	.st15{opacity:0.1;}
	.st16{fill:#9D5A96;}
	.st17{fill:#EA615D;}
	.st18{opacity:0.4;}
	.st19{fill:#F79932;}
	.st20{fill:#FFEC97;}
	.st21{fill:#FFD11D;}
	.st22{fill:#F7F2D5;}
	.st23{fill:#F6AF72;}
	.st24{fill:#BA6C45;}
	.st25{opacity:0.5;}
	.st26{fill:#E4C074;}
	.st27{fill:#656566;}
	.st28{fill:#FACD1F;}
	.st29{fill:#FFDF66;}
	.st30{fill:#6D6E71;}
	.st31{fill:#E77CAE;}
	.st32{fill:#FFE5C4;}
	.st33{fill:#F68455;}
	.st34{opacity:0.7;}
	.st35{fill:#ADEDFF;}
	.st36{fill:#EC754B;}
	.st37{fill:#4AA5BA;}
	.st38{opacity:0.8;}
	.st39{fill:#92A5AC;}
	.st40{fill:#D06E3C;}
	.st41{fill:#DA4F4B;}
	.st42{fill:#BDF3FF;}
	.st43{fill:#F18BB4;}
	.st44{fill:#F9D97A;}
	.st45{fill:none;}
	.st46{fill:#AF6535;}
	.st47{fill:#B93226;}
	.st48{fill:#FF6050;}
	.st49{fill:#EA7CB1;}
	.st50{fill:#00B0E0;}
	.st51{fill:#EA7DAE;}
	.st52{fill:#BC7532;}
	.st53{fill:#876C6C;}
	.st54{fill:#F9F6CD;}
	.st55{fill:#FFE37B;}
	.st56{fill:#1DDCFF;}
	.st57{fill:#60ACF7;}
	.st58{fill:#C3755A;}
	.st59{fill:#96557A;}
	.st60{fill:#66625D;}
	.st61{fill:#D68032;}
	.st62{fill:#F2A355;}
	.st63{fill:#7E9E6A;}
	.st64{fill:#965A85;}
	.st65{fill:#90CAD3;}
	.st66{fill:#94B57F;}
	.st67{fill:#B2E2E7;}
	.st68{fill:#FFDF8F;}
	.st69{fill:#FFFAEB;}
	.st70{fill:#F88916;}
	.st71{fill:#FFC86E;}
	.st72{fill:#AFA51D;}
	.st73{fill:#968A1C;}
	.st74{fill:#C3556D;}
</style>
<g>
	<g>
		<g>
			<path class="st12" d="M78.4,80.2c-1.6-0.4-3.1-0.9-4.7-1.3c-22.3-6.9-38.8-18.3-40.6-34.3c12.9,5.4,25.4,10.2,37.4,14
				c1.3,6.2,3.6,12.7,6.8,19.5C77.7,78.9,78,79.6,78.4,80.2z"/>
		</g>
	</g>
	<g class="st15">
		<g>
			<path d="M66.2,76.8c3.3,1.2,3.5,1.1,7,2.1c1.7,0.5,3.4,0.9,5.1,1.3c-0.4-0.7-0.7-1.4-1.1-2.1c-3.5-6.8-6.1-13.3-7.4-19.5
				c-3.3-1-6.6-2-9.9-3L66.2,76.8z"/>
		</g>
	</g>
	<g>
		<g>
			<path class="st12" d="M180,79.9l-9.6-15.7c14.3-4,28.9-10.3,44-19.5C216.6,61.5,201.9,73.2,180,79.9z"/>
		</g>
	</g>
	<g class="st15">
		<g>
			<polygon points="172.9,64.2 180,62.8 187.9,74.9 180,77.6 			"/>
		</g>
	</g>
	<g>
		<g>
			<path class="st12" d="M133.2,86.5c-8.4,0.1-16.9-0.2-25.2-1c-0.7-0.1-1.4-0.1-2-0.2c-3.7-0.4-7.3-0.9-10.9-1.5
				c-5.8-0.9-11.4-2.1-16.7-3.6h0c-0.3-0.7-0.7-1.4-1-2.1c-3.2-6.8-5.5-13.3-6.8-19.5c-2.4-11.9-1-22.7,5.2-32.1l40.2,42h0l6.5,6.8
				l1.3,1.4l1.4,1.5L133.2,86.5z"/>
		</g>
	</g>
	<g class="st10">
		<g>
			<path class="st7" d="M83.3,34.4l-7.5-7.8c-6.3,9.3-7.7,20.1-5.2,32.1c1.3,6.2,3.6,12.7,6.8,19.5c0,0,0.1-25.8,1-32.8
				C79.2,38.3,83.3,34.4,83.3,34.4z"/>
		</g>
	</g>
	<g>
		<g>
			<path class="st12" d="M180,79.9c-0.5,0.2-1,0.3-1.6,0.5c-8.1,2.4-17.2,4-26.7,5.1c-3.8,0.4-7.6,0.7-11.5,0.9
				c-2.3,0.1-4.7,0.2-7,0.2l-7.9-8.3l-1.4-1.5c-0.1-0.7-0.2-1.5-0.2-2.2c2-1.7,4-3.4,5.8-5.1h0c10.9-10.3,18.6-21.9,22.7-34.9
				l18.2,29.7h0L180,79.9z"/>
		</g>
	</g>
	<g class="st15">
		<g>
			<polygon points="130.9,71.3 143.3,83.1 130.9,83.8 124.9,73.4 			"/>
		</g>
	</g>
	<g>
		<g>
			<path class="st17" d="M89.7,154.9c-0.7,0.6-1.4,1.1-2.1,1.6C88.3,155.9,89,155.4,89.7,154.9z"/>
		</g>
	</g>
	<g>
		<g>
			<path class="st17" d="M89.7,154.9c-0.7,0.6-1.4,1.1-2.1,1.6C88.3,155.9,89,155.4,89.7,154.9z"/>
		</g>
	</g>
	<g>
		<g>
			<path class="st4" d="M145.6,101c0,8.7-4.9,16.3-12.1,20.2c-3.2,1.7-6.9,2.7-10.8,2.7c-6.3,0-12.1-2.6-16.2-6.8
				c-2.2-2.2-4-4.9-5.1-7.9c-1-2.6-1.5-5.4-1.5-8.3s0.5-5.7,1.5-8.3c0.6-1.7,1.5-3.3,2.5-4.7c0.7-1,1.4-1.9,2.2-2.7
				c0.7,0.1,1.4,0.1,2,0.2c8.3,0.8,16.8,1.1,25.2,1c2.4,0,4.7-0.1,7-0.2C143.6,90.3,145.6,95.4,145.6,101z"/>
		</g>
	</g>
	<g class="st15">
		<g>
			<path d="M140.2,86.3c3.3,4,5.4,9.1,5.4,14.7c0,8.7-4.9,16.3-12.1,20.2c-3.2,1.7-6.9,2.7-10.8,2.7c-6.3,0-12.1-2.6-16.2-6.8
				c0,0,13.6,2.3,24.4-6.1S140.2,86.3,140.2,86.3z"/>
		</g>
	</g>
	<g>
		<g>
			<path class="st17" d="M191.4,101c0,4.2-1.1,8.1-3.1,11.5c-2.7,4.7-7.1,8.4-12.3,10.2c-2.4,0.8-4.9,1.3-7.6,1.3
				c-7,0-13.3-3.2-17.5-8.2c-3.4-4-5.4-9.1-5.4-14.8c0-6,2.3-11.5,6.1-15.6c9.5-1,18.6-2.7,26.7-5.1c1,0.5,1.9,1,2.8,1.6
				c2.9,2,5.3,4.6,7.1,7.6C190.3,92.9,191.4,96.8,191.4,101z"/>
		</g>
	</g>
	<g>
		<g>
			<path class="st4" d="M191.4,101c0,4.2-1.1,8.1-3.1,11.5c-2.7,4.7-7.1,8.4-12.3,10.2c-2.4,0.8-4.9,1.3-7.6,1.3
				c-7,0-13.3-3.2-17.5-8.2c-3.4-4-5.4-9.1-5.4-14.8c0-6,2.3-11.5,6.1-15.6c9.5-1,18.6-2.7,26.7-5.1c1,0.5,1.9,1,2.8,1.6
				c2.9,2,5.3,4.6,7.1,7.6C190.3,92.9,191.4,96.8,191.4,101z"/>
		</g>
	</g>
	<g class="st15">
		<g>
			<path d="M188.4,89.6c1.9,3.4,3.1,7.3,3.1,11.4s-1.1,8.1-3.1,11.5c-2.7,4.7-7.1,8.4-12.3,10.2c-2.4,0.8-4.9,1.3-7.6,1.3
				c-7,0-13.3-3.2-17.5-8.2c0,0,15.6,4.1,25.9-3.3C187.2,105.1,188.4,89.6,188.4,89.6z"/>
		</g>
	</g>
	<g>
		<g>
			<path class="st4" d="M231.1,101c0,8.3-4.5,15.6-11.1,19.7c-3.5,2.1-7.5,3.3-11.8,3.3c-6.1,0-11.6-2.4-15.7-6.2
				c-1.6-1.5-3.1-3.3-4.2-5.3c1.9-3.4,3.1-7.3,3.1-11.5s-1.1-8.1-3.1-11.4c4-6.9,11.4-11.5,19.9-11.5
				C220.9,78.1,231.1,88.3,231.1,101z"/>
		</g>
	</g>
	<g class="st15">
		<g>
			<path d="M224.2,84.5c4.3,4.2,7,10,7,16.5c0,8.3-4.5,15.6-11.1,19.7c-3.5,2.1-7.5,3.3-11.8,3.3c-6.1,0-11.6-2.4-15.7-6.2
				c-1.6-1.5-3.1-3.3-4.2-5.3c0,0,13.8,7.9,28.2,0C230.9,104.6,224.2,84.5,224.2,84.5z"/>
		</g>
	</g>
	<g>
		<g>
			<path class="st4" d="M99.7,101c0,2.9,0.5,5.7,1.5,8.3c-1.9,5-5.6,9.2-10.2,11.8c-3.3,1.8-7.1,2.9-11.1,2.9
				c-5.2,0-10.1-1.8-13.9-4.7c-0.8-0.6-1.5-1.2-2.1-1.9c-4.2-4.2-6.8-10-6.8-16.4c0-7.4,3.5-14,9-18.2c2.3-1.8,4.9-3.1,7.7-3.9
				c1.5,0.5,3.1,0.9,4.7,1.3h0c5.3,1.4,10.9,2.6,16.7,3.6c2,1.8,3.7,3.9,5,6.3c0.5,0.8,0.9,1.7,1.2,2.6
				C100.3,95.3,99.7,98.1,99.7,101z"/>
		</g>
	</g>
	<g class="st15">
		<g>
			<path d="M100,90.1c0.5,0.8,0.9,1.7,1.2,2.6c-1,2.6-1.5,5.4-1.5,8.3s0.5,5.7,1.5,8.3c-1.9,5-5.6,9.2-10.2,11.8
				c-3.3,1.8-7.1,2.9-11.1,2.9c-5.2,0-10.1-1.8-13.9-4.7c-0.8-0.6-1.5-1.2-2.1-1.9c0,0,17,0.6,24.2-4.9C95.3,107,100,90.1,100,90.1z
				"/>
		</g>
	</g>
	<g>
		<g>
			<path class="st4" d="M63.8,117.3c0.7,0.7,1.4,1.3,2.1,1.9c-0.8,0.6-1.6,1.1-2.4,1.6c-2.1,1.2-4.4,2.1-6.8,2.6
				c-1.5,0.3-3.1,0.5-4.7,0.5c-6.1,0-11.7-2.4-15.8-6.4c-4.4-4.2-7.1-10.1-7.1-16.6C29.1,88.3,39.4,78,52,78
				c5.2,0,10.1,1.8,13.9,4.7c-5.5,4.2-9,10.8-9,18.2C57,107.4,59.6,113.2,63.8,117.3z"/>
		</g>
	</g>
	<g class="st15">
		<g>
			<path d="M57,101c0,6.4,2.6,12.2,6.8,16.4c0.7,0.7,1.4,1.3,2.1,1.9c-0.8,0.6-1.6,1.1-2.4,1.6c-2.1,1.2-4.4,2.1-6.8,2.6
				c-1.5,0.3-3.1,0.5-4.7,0.5c-6.1,0-11.7-2.4-15.8-6.4c0,0,7.2,0.1,16.2-1.9C61.4,113.7,57,101,57,101z"/>
		</g>
	</g>
	<g>
		<g>
			<path class="st4" d="M61.3,155.9c-3.8,2.8-8.5,4.5-13.6,4.5c-1.3,0-2.5-0.1-3.7-0.3c-10.9-1.8-19.2-11.2-19.2-22.7
				c0-8.5,4.6-15.9,11.4-19.8c4.1,3.9,9.7,6.4,15.8,6.4c1.6,0,3.2-0.2,4.7-0.5c-3,3.9-4.7,8.7-4.7,14c0,5.4,1.9,10.4,5,14.3
				C58.3,153.3,59.7,154.7,61.3,155.9z"/>
		</g>
	</g>
	<g class="st15">
		<g>
			<path d="M55.6,148.8c1.2,1.6,2.7,3,4.3,4.2c-3.8,2.8-8.5,4.5-13.6,4.5c-1.3,0-2.5-0.1-3.7-0.3c-4.7-0.8-8.9-2.9-12.1-6.1
				C41.6,152.8,51.6,153.4,55.6,148.8z"/>
		</g>
	</g>
	<g>
		<g>
			<path class="st4" d="M80.7,181.2c0.4,1.3,1,2.6,1.6,3.8c-3.5,6.4-10,11-17.6,11.8c-0.8,0.1-1.7,0.1-2.5,0.1
				c-12.7,0-22.9-10.3-22.9-22.9c0-5.3,1.8-10.1,4.8-14c1.2,0.2,2.4,0.3,3.7,0.3c5.1,0,9.8-1.7,13.6-4.5h0c3.8,2.8,8.5,4.5,13.6,4.5
				c1.8,0,3.5-0.2,5.2-0.6c0.8,1,1.6,2.1,2.2,3.3c-1.8,3.3-2.8,7-2.8,11C79.5,176.5,79.9,178.9,80.7,181.2z"/>
		</g>
	</g>
	<g class="st15">
		<g>
			<path d="M79.5,174c0,2.5,0.4,4.9,1.1,7.2c0.4,1.3,1,2.6,1.6,3.8c-3.5,6.4-10,11-17.6,11.8c-0.8,0.1-1.7,0.1-2.5,0.1
				c-8.9,0-16.6-5.1-20.4-12.5C59.9,191.1,73.1,188.7,79.5,174z"/>
		</g>
	</g>
	<g>
		<g>
			<path class="st4" d="M109.6,203.3c0,1-0.1,1.9-0.2,2.8c-1.4,11.3-10.9,20-22.6,20.1l-0.2,0c-12.7,0-22.9-10.3-22.9-23
				c0-2.3,0.3-4.4,0.9-6.5c7.6-0.8,14.1-5.4,17.6-11.8c3.9,7.1,11.4,12,20.1,12c2.1,0,4.1-0.3,6-0.8
				C109.2,198.4,109.6,200.8,109.6,203.3z"/>
		</g>
	</g>
	<g class="st15">
		<g>
			<path d="M108.5,196.2c0.7,2.3,1.1,4.7,1.1,7.2c0,1-0.1,1.9-0.2,2.8c-1.4,11.3-10.9,20-22.6,20.1l-0.2,0c-8.7,0-16.2-4.8-20.1-12
				C85,222.4,99.7,218.8,108.5,196.2z"/>
		</g>
	</g>
	<g>
		<g>
			<path class="st4" d="M158.5,203.3c0,1.3-0.1,2.5-0.3,3.7c-0.2,1.5-0.6,3-1.2,4.4c-3.3,8.7-11.6,14.9-21.4,14.9
				c-1.1,0-2.2-0.1-3.3-0.2c-1-0.1-1.9-0.3-2.9-0.6c-8.7-2.4-15.3-9.9-16.6-19c-0.1-1-0.2-2-0.2-3.1c0-3.6,0.8-7.1,2.4-10.2
				c3.4-2.2,6.1-5.3,7.9-9l0,0c0.7-0.5,1.5-0.9,2.3-1.3c3.5,8.3,11.6,14.1,21.2,14.1c3.7,0,7.2-0.9,10.3-2.4
				c0.1,0.2,0.2,0.5,0.3,0.7C158,197.8,158.5,200.5,158.5,203.3z"/>
		</g>
	</g>
	<g class="st15">
		<g>
			<path d="M156.8,194.5c0.1,0.2,0.2,0.5,0.3,0.7c1,2.5,1.5,5.2,1.5,8.1c0,1.3-0.1,2.5-0.3,3.7c-0.2,1.5-0.6,3-1.2,4.4
				c-3.3,8.7-11.6,14.9-21.4,14.9c-1.1,0-2.2-0.1-3.3-0.2c-1-0.1-1.9-0.3-2.9-0.6c-5.4-1.5-9.9-4.9-13-9.4
				C138.8,222.1,151.8,214.3,156.8,194.5z"/>
		</g>
	</g>
	<g>
		<g>
			<path class="st4" d="M201.4,203.3c0,12.7-10.3,22.9-22.9,22.9c-1.3,0-2.5-0.1-3.7-0.3c-8.2-1.3-14.9-7-17.7-14.5
				c0.5-1.4,0.9-2.9,1.2-4.4c0.2-1.2,0.3-2.4,0.3-3.7c0-2.9-0.5-5.6-1.5-8.1c0.1-0.4,0.3-0.7,0.5-1.1c4.4-2.4,7.9-6.3,10-10.9v0
				c0.8-0.4,1.6-0.8,2.5-1.2c3.2,8.7,11.6,14.9,21.5,14.9c3,0,5.9-0.6,8.6-1.7C200.9,197.8,201.4,200.5,201.4,203.3z"/>
		</g>
	</g>
	<g class="st15">
		<g>
			<path d="M200,195.3c0.9,2.5,1.4,5.2,1.4,8c0,12.7-10.3,22.9-22.9,22.9c-1.3,0-2.5-0.1-3.7-0.3c-8.2-1.3-14.9-7-17.7-14.5
				C177.4,222.7,193.1,218.8,200,195.3z"/>
		</g>
	</g>
	<g>
		<g>
			<path class="st4" d="M175,229.1c0,12.7-10.3,22.9-22.9,22.9c-9.6,0-17.8-5.9-21.2-14.3v0c1.1-2.7,1.7-5.6,1.7-8.6
				c0-1-0.1-2.1-0.2-3.1c1.1,0.2,2.2,0.2,3.3,0.2c9.8,0,18.2-6.2,21.4-14.9c2.8,7.6,9.6,13.2,17.7,14.5
				C174.9,227,175,228.1,175,229.1z"/>
		</g>
	</g>
	<g class="st15">
		<g>
			<path d="M174.8,226c0.1,1,0.2,2.1,0.2,3.1c0,12.7-10.3,22.9-22.9,22.9c-9.6,0-17.8-5.9-21.2-14.3l0,0
				C150.7,248.4,165.4,244.9,174.8,226z"/>
		</g>
	</g>
	<g>
		<g>
			<path class="st17" d="M132.5,229.1c0,3.1-0.6,6-1.7,8.6v0c-3.4,8.4-11.6,14.3-21.2,14.3c-12.7,0-22.9-10.3-22.9-22.9
				c0-1,0.1-1.9,0.2-2.8c11.6-0.1,21.2-8.8,22.6-20.1l0.2,0c1.1,0,2.2,0.1,3.3,0.2c1.2,9.2,7.9,16.6,16.6,19
				c0.9,0.3,1.9,0.5,2.9,0.6C132.5,227.1,132.5,228.1,132.5,229.1z"/>
		</g>
	</g>
	<g>
		<g>
			<path class="st4" d="M132.5,230.1c0,3.1-0.6,6-1.7,8.6v0c-3.4,8.4-11.6,14.3-21.2,14.3c-12.7,0-22.9-10.3-22.9-22.9
				c0-1,0.1-1.9,0.2-2.8c11.6-0.1,21.2-8.8,22.6-20.1l0.2,0c1.1,0,2.2,0.1,3.3,0.2c1.2,9.2,7.9,16.6,16.6,19
				c0.9,0.3,1.9,0.5,2.9,0.6C132.5,228,132.5,229,132.5,230.1z"/>
		</g>
	</g>
	<g class="st15">
		<g>
			<path d="M132.3,226c0.1,1,0.2,2,0.2,3.1c0,3.1-0.6,6-1.7,8.6v0c-3.4,8.4-11.6,14.3-21.2,14.3c-8.1,0-15.2-4.2-19.3-10.5
				C108.9,248.1,123.6,244.7,132.3,226z"/>
		</g>
	</g>
	<g>
		<g>
			<path class="st17" d="M123.6,174c0,2.2,0.3,4.4,0.9,6.4c-0.4,1.3-0.9,2.6-1.5,3.8l0,0c-1.8,3.7-4.5,6.8-7.9,9
				c-2,1.3-4.2,2.3-6.6,3c-1.9,0.5-4,0.8-6,0.8c-8.7,0-16.2-4.8-20.1-12c-0.7-1.2-1.2-2.5-1.6-3.8c-0.7-2.3-1.1-4.7-1.1-7.2
				c0-4,1-7.7,2.8-11c1.4-2.5,3.2-4.7,5.3-6.5h0c0.7-0.5,1.4-1,2.1-1.6l0,0c2.7-1.8,5.9-3.1,9.3-3.6c4.2,5.5,10.8,9,18.2,9
				c1.1,0,2.3-0.1,3.4-0.3c1.7,2.2,3,4.8,3.8,7.6C123.9,169.7,123.6,171.8,123.6,174z"/>
		</g>
	</g>
	<g>
		<g>
			<path class="st4" d="M124.5,174c0,2.2,0.3,4.4,0.9,6.4c-0.4,1.3-0.9,2.6-1.5,3.8v0c-1.8,3.7-4.5,6.8-7.9,9c-2,1.3-4.2,2.3-6.6,3
				c-1.9,0.5-4,0.8-6,0.8c-8.7,0-16.2-4.8-20.1-12c-0.7-1.2-1.2-2.5-1.6-3.8c-0.7-2.3-1.1-4.7-1.1-7.2c0-4,1-7.7,2.8-11
				c1.4-2.5,3.2-4.7,5.3-6.5l0,0c0.7-0.5,1.4-1,2.1-1.6l0,0c2.7-1.8,5.9-3.1,9.3-3.6c4.2,5.5,10.8,9,18.2,9c1.1,0,2.3-0.1,3.4-0.3
				c1.7,2.2,3,4.8,3.8,7.6C124.8,169.7,124.5,171.8,124.5,174z"/>
		</g>
	</g>
	<g class="st15">
		<g>
			<path d="M120.6,160.1c1.7,2.2,3,4.8,3.8,7.6c-0.6,2-0.9,4.2-0.9,6.4c0,2.2,0.3,4.4,0.9,6.4c-0.4,1.3-0.9,2.6-1.5,3.8l0,0
				c-1.8,3.7-4.5,6.8-7.9,9c-2,1.3-4.2,2.3-6.6,3c-1.9,0.5-4,0.8-6,0.8c-8.7,0-16.2-4.8-20.1-12
				C104.1,193.3,117.9,186.8,120.6,160.1z"/>
		</g>
	</g>
	<g>
		<g>
			<path class="st17" d="M89.7,154.9c-0.7,0.6-1.4,1.1-2.1,1.6C88.3,155.9,89,155.4,89.7,154.9z"/>
		</g>
	</g>
	<g>
		<g>
			<path class="st4" d="M169.4,174c0,1.6-0.2,3.1-0.5,4.5c-0.3,1.6-0.8,3.2-1.5,4.7v0c-2,4.6-5.5,8.5-10,10.9
				c-0.2,0.1-0.5,0.3-0.7,0.4c-3.1,1.6-6.6,2.4-10.3,2.4c-9.5,0-17.7-5.8-21.2-14.1c-0.3-0.8-0.6-1.6-0.8-2.4
				c-0.6-2-0.9-4.2-0.9-6.4c0-2.2,0.3-4.4,0.9-6.4c2.2-7.7,8.4-13.8,16.2-15.8c4.2,5.2,10.6,8.5,17.8,8.5c2,0,3.9-0.3,5.8-0.7
				c2.3,2.8,3.9,6.2,4.6,9.9C169.2,171,169.4,172.5,169.4,174z"/>
		</g>
	</g>
	<g class="st15">
		<g>
			<path d="M164.3,159.6c2.3,2.8,3.9,6.2,4.6,9.9c0.3,1.5,0.5,3,0.5,4.5c0,1.6-0.2,3.1-0.5,4.5c-0.3,1.6-0.8,3.2-1.5,4.7v0
				c-2,4.6-5.5,8.5-10,10.9c-0.2,0.1-0.5,0.3-0.7,0.4c-3.1,1.6-6.6,2.4-10.3,2.4c-9.5,0-17.7-5.8-21.2-14.1
				C148.9,193.1,163.9,188.8,164.3,159.6z"/>
		</g>
	</g>
	<g>
		<g>
			<path class="st17" d="M214.3,174c0,9.6-5.9,17.9-14.3,21.3c-2.7,1.1-5.5,1.7-8.6,1.7c-9.8,0-18.2-6.2-21.5-14.9
				c-0.4-1.1-0.8-2.3-1-3.5c0.3-1.5,0.5-3,0.5-4.5c0-1.6-0.2-3.1-0.5-4.5c1.8-8.9,8.7-15.9,17.5-17.9c4.2,5.3,10.7,8.7,18,8.7
				c1.7,0,3.4-0.2,5-0.6C212.5,163.7,214.3,168.7,214.3,174z"/>
		</g>
	</g>
	<g>
		<g>
			<path class="st4" d="M214.3,174c0,9.6-5.9,17.9-14.3,21.3c-2.7,1.1-5.5,1.7-8.6,1.7c-9.8,0-18.2-6.2-21.5-14.9
				c-0.4-1.1-0.8-2.3-1-3.5c0.3-1.5,0.5-3,0.5-4.5c0-1.6-0.2-3.1-0.5-4.5c1.8-8.9,8.7-15.9,17.5-17.9c4.2,5.3,10.7,8.7,18,8.7
				c1.7,0,3.4-0.2,5-0.6C212.5,163.7,214.3,168.7,214.3,174z"/>
		</g>
	</g>
	<g class="st15">
		<g>
			<path d="M209.4,159.8c3.1,3.9,4.9,8.9,4.9,14.2c0,9.6-5.9,17.9-14.3,21.3c-2.7,1.1-5.5,1.7-8.6,1.7c-9.8,0-18.2-6.2-21.5-14.9
				C193.9,193.1,208.4,188.1,209.4,159.8z"/>
		</g>
	</g>
	<g>
		<g>
			<path class="st4" d="M94.3,137.4c0,3.1,0.6,6.1,1.8,8.8c-1.4,3.4-3.6,6.4-6.4,8.7l0,0c-0.7,0.5-1.4,1-2.1,1.6h0
				c-2.3,1.5-4.8,2.6-7.5,3.2c-1.7,0.4-3.4,0.6-5.2,0.6c-5.1,0-9.8-1.7-13.6-4.5h0c-1.6-1.2-3.1-2.6-4.3-4.2c-3.1-3.9-5-8.9-5-14.3
				c0-5.3,1.8-10.1,4.7-14c2.4-0.5,4.7-1.4,6.8-2.6c0.8-0.5,1.6-1,2.4-1.6c3.9,3,8.7,4.7,13.9,4.7c4,0,7.8-1,11.1-2.9
				c2.2,2.1,3.9,4.7,5.1,7.5C95,131.3,94.3,134.3,94.3,137.4z"/>
		</g>
	</g>
	<g class="st15">
		<g>
			<path d="M96.1,128.6c-1.1,2.7-1.8,5.7-1.8,8.8c0,3.1,0.6,6.1,1.8,8.8c-1.4,3.4-3.6,6.4-6.4,8.7l0,0c-0.7,0.5-1.4,1-2.1,1.6h0
				c-2.3,1.5-4.8,2.6-7.5,3.2c-1.7,0.4-3.4,0.6-5.2,0.6c-5.1,0-9.8-1.7-13.6-4.5h0c-1.6-1.2-3.1-2.6-4.3-4.2
				C78.1,156.7,91.3,149.3,96.1,128.6z"/>
		</g>
	</g>
	<g>
		<g>
			<path class="st17" d="M89.7,154.9c-0.7,0.6-1.4,1.1-2.1,1.6C88.3,155.9,89,155.4,89.7,154.9z"/>
		</g>
	</g>
	<g>
		<g>
			<path class="st4" d="M140.2,137.4c0,3.6-0.8,7-2.3,10c-3.2,6.7-9.6,11.6-17.3,12.7c-1.1,0.2-2.2,0.3-3.4,0.3
				c-7.4,0-14-3.5-18.2-9c-1.2-1.6-2.2-3.3-2.9-5.1c-1.1-2.7-1.8-5.7-1.8-8.8c0-3.1,0.6-6.1,1.8-8.8c2-4.9,5.7-8.9,10.3-11.4
				c4.2,4.2,9.9,6.8,16.2,6.8c3.9,0,7.6-1,10.8-2.7c1.8,1.8,3.3,3.9,4.4,6.2C139.4,130.4,140.2,133.8,140.2,137.4z"/>
		</g>
	</g>
	<g class="st15">
		<g>
			<path d="M137.9,127.4c1.5,3,2.3,6.4,2.3,10c0,3.6-0.8,7-2.3,10c-3.2,6.7-9.6,11.6-17.3,12.7c-1.1,0.2-2.2,0.3-3.4,0.3
				c-7.4,0-14-3.5-18.2-9C120.4,154.7,134.7,148.6,137.9,127.4z"/>
		</g>
	</g>
	<g>
		<g>
			<path class="st4" d="M181.5,137.4c0,10.7-7.3,19.7-17.2,22.2c-1.8,0.5-3.8,0.7-5.8,0.7c-7.2,0-13.6-3.3-17.8-8.5
				c-1.1-1.4-2-2.8-2.8-4.4c1.5-3,2.3-6.4,2.3-10c0-3.6-0.8-7-2.3-10c2.6-5.4,7.3-9.6,13.1-11.7c4.2,5,10.5,8.2,17.5,8.2
				c2.7,0,5.2-0.5,7.6-1.3C179.4,126.6,181.5,131.8,181.5,137.4z"/>
		</g>
	</g>
	<g class="st15">
		<g>
			<path d="M176.1,122.7c3.4,4,5.4,9.1,5.4,14.7c0,10.7-7.3,19.7-17.2,22.2c-1.8,0.5-3.8,0.7-5.8,0.7c-7.2,0-13.6-3.3-17.8-8.5
				c-1.1-1.4-2-2.8-2.8-4.4C161.8,157.3,175.8,151.2,176.1,122.7z"/>
		</g>
	</g>
	<g>
		<g>
			<path class="st4" d="M227.3,137.4c0,11-7.7,20.1-17.9,22.4c-1.6,0.4-3.3,0.6-5,0.6c-7.3,0-13.8-3.4-18-8.7c-3.1-3.9-5-8.9-5-14.2
				c0-8.3,4.4-15.6,11.1-19.7c4.1,3.8,9.6,6.2,15.7,6.2c4.3,0,8.4-1.2,11.8-3.3C224.5,124.8,227.3,130.8,227.3,137.4z"/>
		</g>
	</g>
	<g class="st15">
		<g>
			<path d="M220,120.7c4.5,4.2,7.3,10.1,7.3,16.7c0,11-7.7,20.1-17.9,22.4c-1.6,0.4-3.3,0.6-5,0.6c-7.3,0-13.8-3.4-18-8.7
				C211.7,157.1,223.5,147.4,220,120.7z"/>
		</g>
	</g>
	<g>
		<g>
			<path class="st17" d="M106,85.3c-0.8,0.8-1.5,1.8-2.2,2.7c-1,1.5-1.8,3-2.5,4.7c-0.4-0.9-0.8-1.8-1.2-2.6c-1.3-2.4-3-4.5-5-6.3
				C98.7,84.4,102.3,84.9,106,85.3z"/>
		</g>
	</g>
	<g>
		<g>
			<path class="st17" d="M89.7,154.9c-0.7,0.6-1.4,1.1-2.1,1.6C88.3,155.9,89,155.4,89.7,154.9z"/>
		</g>
	</g>
	<g>
		<g>
			<path class="st17" d="M89.7,154.9c-0.7,0.6-1.4,1.1-2.1,1.6C88.3,155.9,89,155.4,89.7,154.9z"/>
		</g>
	</g>
	<g>
		<g>
			<path class="st1" d="M122.7,127.9c-7.2,0-14-2.8-19.1-7.9c-2.6-2.6-4.7-5.8-6-9.3c-1.2-3.1-1.8-6.3-1.8-9.7
				c0-3.4,0.6-6.6,1.8-9.7c0.7-1.9,1.7-3.8,2.9-5.5c0.8-1.2,1.7-2.2,2.6-3.2c0.9-0.9,2.1-1.4,3.3-1.2l2,0.2c8.1,0.8,16.4,1.1,24.7,1
				c2.2,0,4.5-0.1,6.9-0.2c1.2,0,2.5,0.5,3.3,1.4c4.1,4.8,6.3,11,6.3,17.3l0,0c0,9.9-5.4,19-14.2,23.7
				C131.5,126.8,127.1,127.9,122.7,127.9z M107.6,89.5c-0.2,0.3-0.4,0.5-0.6,0.8c-0.8,1.2-1.5,2.5-2.1,3.9c-0.8,2.2-1.3,4.5-1.3,6.8
				c0,2.4,0.4,4.7,1.3,6.8c0.9,2.5,2.4,4.7,4.2,6.6c3.6,3.6,8.3,5.6,13.4,5.6c3.1,0,6.2-0.8,8.9-2.3c6.2-3.3,10-9.7,10-16.7
				c0-3.8-1.2-7.5-3.3-10.6c-1.7,0.1-3.4,0.1-5.1,0.1C124.7,90.6,116.1,90.3,107.6,89.5z M145.6,101L145.6,101L145.6,101z"/>
		</g>
	</g>
	<g>
		<g>
			<path class="st1" d="M168.5,127.9c-8,0-15.5-3.5-20.6-9.6c-4.1-4.8-6.3-11-6.3-17.3c0-6.8,2.6-13.3,7.2-18.3
				c0.7-0.7,1.5-1.2,2.5-1.3c9.5-1,18.3-2.7,26-4.9c0.9-0.3,2-0.2,2.9,0.2c1.2,0.6,2.3,1.2,3.4,1.9c3.4,2.3,6.2,5.4,8.3,8.9
				c2.4,4.1,3.6,8.7,3.6,13.4l0,0v0c0,4.7-1.2,9.4-3.6,13.4c-3.2,5.6-8.3,9.8-14.4,12C174.6,127.4,171.6,127.9,168.5,127.9z
				 M153.7,89.2c-2.7,3.4-4.1,7.5-4.1,11.8c0,4.5,1.6,8.8,4.4,12.2c3.6,4.3,8.9,6.8,14.5,6.8c2.2,0,4.3-0.4,6.3-1.1
				c4.3-1.5,7.9-4.5,10.1-8.4c1.6-2.9,2.5-6.1,2.5-9.5v0c0-3.3-0.9-6.6-2.5-9.4c-1.4-2.5-3.5-4.7-5.9-6.3c-0.3-0.2-0.7-0.5-1.1-0.7
				C170.6,86.6,162.5,88.2,153.7,89.2z"/>
		</g>
	</g>
	<g>
		<g>
			<path class="st1" d="M208.2,127.9c-6.9,0-13.4-2.6-18.4-7.3c-1.9-1.8-3.6-3.9-4.9-6.2c-0.7-1.2-0.7-2.8,0-4
				c1.7-2.9,2.5-6.1,2.5-9.5c0-3.3-0.9-6.6-2.5-9.4c-0.7-1.2-0.7-2.8,0-4c4.8-8.3,13.7-13.5,23.3-13.5c0,0,0,0,0,0
				c14.8,0,26.9,12.1,26.9,26.9l0,0l0,0c0,9.5-4.9,18.2-13,23.1C217.9,126.6,213.1,127.9,208.2,127.9z M193,112.2
				c0.7,0.9,1.5,1.8,2.3,2.6c3.5,3.3,8.1,5.1,12.9,5.1c3.4,0,6.8-0.9,9.8-2.7c5.7-3.5,9.2-9.5,9.2-16.2l0,0
				c0-10.4-8.5-18.9-18.9-18.9c0,0,0,0,0,0c-6,0-11.7,2.9-15.2,7.7c1.6,3.5,2.4,7.3,2.4,11.2C195.4,104.9,194.6,108.7,193,112.2z"/>
		</g>
	</g>
	<g>
		<g>
			<path class="st1" d="M79.9,127.9C79.9,127.9,79.9,127.9,79.9,127.9c-6,0-11.6-1.9-16.4-5.6c-0.8-0.6-1.7-1.3-2.5-2.2
				c-5.2-5.1-8-11.9-8-19.2c0-8.5,3.9-16.3,10.6-21.4c2.7-2.1,5.8-3.6,9.1-4.5c0.7-0.2,1.5-0.2,2.3,0c1.2,0.4,2.6,0.8,4.4,1.3
				c0,0,0.1,0,0.1,0c5.2,1.4,10.7,2.6,16.3,3.5c0.7,0.1,1.4,0.5,2,1c2.4,2.1,4.3,4.6,5.8,7.4c0.5,0.9,1,2,1.4,3.1
				c0.4,0.9,0.4,2,0,2.9c-0.8,2.2-1.3,4.4-1.3,6.8c0,2.4,0.4,4.7,1.3,6.8c0.4,0.9,0.4,2,0,2.9c-2.3,5.9-6.5,10.8-12,13.8
				C89,126.8,84.5,127.9,79.9,127.9z M73.7,83.1c-1.9,0.7-3.7,1.6-5.3,2.9C63.7,89.6,61,95,61,101c0,5.1,2,9.9,5.7,13.5
				c0.6,0.6,1.2,1.1,1.7,1.5c3.4,2.6,7.3,3.9,11.5,3.9c0,0,0,0,0,0c3.2,0,6.4-0.8,9.2-2.4c3.5-1.9,6.2-4.9,7.9-8.4
				c-0.8-2.6-1.3-5.3-1.3-8.1c0-2.8,0.4-5.5,1.3-8.1c-0.1-0.3-0.3-0.6-0.4-0.9c-0.9-1.7-2-3.2-3.3-4.4c-5.5-0.9-10.8-2.1-15.8-3.4
				c-0.1,0-0.1,0-0.2,0C75.9,83.7,74.7,83.4,73.7,83.1z"/>
		</g>
	</g>
	<g>
		<g>
			<path class="st1" d="M52.1,127.9C52,127.9,52,127.9,52.1,127.9c-7,0-13.6-2.7-18.6-7.5c-5.3-5-8.3-12.1-8.3-19.5
				c0-7.2,2.8-14,7.9-19c5.1-5.1,11.8-7.9,19-7.9c0,0,0,0,0,0c6,0,11.6,1.9,16.4,5.6c1,0.8,1.6,1.9,1.6,3.2c0,1.2-0.6,2.4-1.6,3.2
				C63.7,89.6,61,95,61,101c0,5.1,2,9.9,5.7,13.5c0,0,0,0,0,0c0.6,0.6,1.2,1.1,1.7,1.5c1,0.8,1.6,1.9,1.6,3.2c0,1.3-0.6,2.4-1.6,3.2
				c-0.9,0.7-1.9,1.3-2.8,1.9c-2.5,1.5-5.2,2.5-8,3.1C55.8,127.7,53.9,127.9,52.1,127.9z M52,82c-5.1,0-9.8,2-13.4,5.5
				c-3.6,3.6-5.5,8.3-5.5,13.4c0,5.2,2.1,10.1,5.8,13.7c3.5,3.4,8.2,5.3,13.1,5.3c0,0,0,0,0,0c1.3,0,2.6-0.1,3.9-0.4
				c1.2-0.2,2.4-0.6,3.5-1.1c-4.2-4.9-6.4-11-6.4-17.5c0-6.5,2.3-12.6,6.4-17.5C57.1,82.5,54.6,82,52,82C52,82,52,82,52,82z"/>
		</g>
	</g>
	<g>
		<g>
			<path class="st1" d="M47.7,164.3C47.7,164.3,47.7,164.3,47.7,164.3c-1.5,0-2.9-0.1-4.4-0.4c-13.1-2.1-22.6-13.3-22.6-26.6
				c0-9.6,5.1-18.5,13.4-23.3c1.5-0.9,3.5-0.7,4.8,0.6c3.5,3.4,8.2,5.3,13.1,5.3c0,0,0,0,0,0c1.3,0,2.6-0.1,3.9-0.4
				c1.6-0.4,3.3,0.4,4.2,1.8c0.9,1.4,0.8,3.2-0.2,4.6c-2.6,3.3-3.9,7.3-3.9,11.5c0,4.3,1.4,8.4,4.1,11.8c1,1.3,2.2,2.5,3.6,3.5
				c1,0.8,1.6,1.9,1.6,3.2c0,1.3-0.6,2.5-1.6,3.2C59.1,162.5,53.5,164.3,47.7,164.3z M35.9,122.6c-4.5,3.6-7.1,9-7.1,14.8
				c0,9.3,6.7,17.2,15.9,18.7c1,0.2,2,0.2,3.1,0.2c0,0,0,0,0,0c2.4,0,4.7-0.4,6.9-1.3c-0.3-0.3-0.5-0.6-0.7-0.9
				c-3.8-4.8-5.8-10.6-5.8-16.8c0-3.3,0.6-6.5,1.7-9.6C44.7,127.4,40,125.6,35.9,122.6z"/>
		</g>
	</g>
	<g>
		<g>
			<path class="st1" d="M62.2,201c-7.2,0-14-2.8-19-7.9c-5.1-5.1-7.9-11.9-7.9-19c0-6,1.9-11.7,5.6-16.4c0.9-1.2,2.4-1.7,3.8-1.5
				c1,0.2,2,0.2,3.1,0.2c0,0,0,0,0,0c4.1,0,8-1.3,11.2-3.7c1.4-1,3.4-1,4.8,0c3.3,2.4,7.1,3.7,11.2,3.7c1.5,0,2.9-0.2,4.2-0.5
				c1.5-0.4,3.1,0.2,4,1.4c1,1.2,1.8,2.5,2.6,3.9c0.6,1.2,0.6,2.6,0,3.8c-1.5,2.8-2.3,5.9-2.3,9.1c0,2,0.3,4,0.9,5.9c0,0,0,0,0,0
				c0.3,1.1,0.8,2.1,1.4,3.1c0.6,1.2,0.6,2.6,0,3.8c-4.2,7.7-11.9,12.9-20.7,13.9C64.2,200.9,63.2,201,62.2,201z M46,164.3
				c-1.8,2.9-2.7,6.3-2.7,9.7c0,5.1,2,9.8,5.5,13.4c3.6,3.6,8.3,5.5,13.4,5.5c0.7,0,1.4,0,2.1-0.1c5.5-0.6,10.4-3.6,13.5-8.1
				c-0.3-0.8-0.6-1.6-0.9-2.3c-0.9-2.7-1.3-5.5-1.3-8.4c0-3.4,0.6-6.7,1.8-9.8c-0.8,0.1-1.6,0.1-2.4,0.1c-4.9,0-9.5-1.3-13.6-3.7
				c-4.1,2.4-8.8,3.7-13.6,3.7c0,0,0,0,0,0C47.1,164.3,46.5,164.3,46,164.3z"/>
		</g>
	</g>
	<g>
		<g>
			<path class="st1" d="M86.7,230.3c-7.2,0-13.9-2.8-19-7.9c-5.1-5.1-7.9-11.9-7.9-19.1c0-2.6,0.4-5.2,1.1-7.6
				c0.5-1.5,1.8-2.7,3.4-2.8c6.1-0.7,11.5-4.3,14.5-9.8c0.7-1.3,2-2.1,3.5-2.1c0,0,0,0,0,0c1.5,0,2.8,0.8,3.5,2.1
				c3.3,6.1,9.7,9.9,16.6,9.9c1.7,0,3.4-0.2,5-0.7c2.1-0.6,4.2,0.6,4.9,2.6c0.9,2.7,1.3,5.6,1.3,8.4c0,0,0,0,0,0
				c0,1.1-0.1,2.2-0.2,3.3c-1.6,13.4-13,23.5-26.5,23.6H86.7z M68,200.3c-0.2,1-0.2,2-0.2,3c0,5.1,2,9.8,5.5,13.4
				c3.6,3.6,8.3,5.5,13.4,5.5h0.2c9.4-0.1,17.4-7.2,18.6-16.6c0.1-0.8,0.2-1.6,0.2-2.3l0,0c0-0.8-0.1-1.7-0.2-2.5
				c-1,0.1-2,0.2-3,0.2c-7.8,0-15.1-3.4-20.1-9C78.6,196.1,73.6,199.1,68,200.3z M109.6,203.3L109.6,203.3L109.6,203.3z"/>
		</g>
	</g>
	<g>
		<g>
			<path class="st1" d="M135.6,230.3c-1.3,0-2.6-0.1-3.8-0.3c-1.2-0.2-2.3-0.4-3.4-0.7c-10.4-2.9-18-11.7-19.4-22.3
				c-0.2-1.2-0.2-2.4-0.2-3.6c0-4.1,1-8.3,2.8-11.9c0.3-0.6,0.8-1.2,1.4-1.6c2.8-1.8,5-4.4,6.5-7.3c0.3-0.7,0.8-1.2,1.4-1.7
				c0.9-0.6,1.8-1.1,2.8-1.6c1-0.5,2.1-0.6,3.2-0.2c1,0.4,1.9,1.2,2.3,2.2c3,7.1,9.8,11.7,17.5,11.7c2.9,0,5.9-0.7,8.5-2
				c1-0.5,2.1-0.6,3.2-0.2c1,0.4,1.9,1.2,2.3,2.2c0.1,0.3,0.2,0.6,0.3,0.9c1.1,3,1.7,6.2,1.7,9.5c0,1.5-0.1,2.9-0.4,4.3
				c-0.3,1.7-0.7,3.5-1.4,5.2C156.9,223.3,146.8,230.3,135.6,230.3z M118.2,195.8c-1,2.4-1.5,4.9-1.5,7.5c0,0.8,0.1,1.7,0.2,2.5
				c1,7.5,6.4,13.7,13.7,15.7c0.8,0.2,1.5,0.4,2.4,0.5c0.9,0.1,1.8,0.2,2.7,0.2c7.8,0,14.9-4.9,17.7-12.3c0.4-1.2,0.8-2.4,1-3.6
				c0.2-1,0.2-2,0.2-3.1c0-1.2-0.1-2.4-0.3-3.5c-2.5,0.7-5.1,1.1-7.7,1.1c-8.9,0-17.1-4.3-22-11.4
				C122.7,192,120.6,194.1,118.2,195.8z"/>
		</g>
	</g>
	<g>
		<g>
			<path class="st1" d="M178.5,230.3C178.5,230.3,178.5,230.3,178.5,230.3c-1.5,0-3-0.1-4.4-0.4c-9.4-1.5-17.4-8.1-20.8-17.1
				c-0.3-0.9-0.3-1.9,0-2.8c0.4-1.2,0.8-2.4,1-3.6c0.2-1,0.2-2,0.2-3.1c0-2.3-0.4-4.6-1.2-6.7c-0.3-0.9-0.3-1.9,0-2.8
				c0.2-0.5,0.4-0.9,0.6-1.4c0.4-0.8,1-1.4,1.7-1.9c3.6-2,6.5-5.2,8.2-8.9c0.3-0.8,1-1.6,1.8-2c1-0.6,2-1,2.9-1.4
				c1-0.4,2.1-0.4,3.1,0.1c1,0.4,1.7,1.3,2.1,2.3c2.7,7.4,9.9,12.3,17.7,12.3c2.5,0,4.8-0.5,7.1-1.4c1-0.4,2.1-0.4,3.1,0
				c1,0.4,1.8,1.3,2.1,2.3c1.1,3,1.7,6.2,1.7,9.4l0,0v0c0,7.2-2.8,14-7.9,19.1C192.5,227.5,185.7,230.3,178.5,230.3z M161.3,211.3
				c2.6,5.7,7.9,9.7,14.1,10.7c1,0.2,2,0.3,3.1,0.3c0,0,0,0,0,0c5.1,0,9.8-2,13.4-5.5c3.6-3.6,5.5-8.3,5.5-13.4v0c0-1-0.1-2-0.2-3
				c-1.9,0.4-3.8,0.6-5.8,0.6c-9.1,0-17.6-4.7-22.5-12.1c-1.9,2.9-4.4,5.5-7.3,7.4c0.6,2.3,0.9,4.6,0.9,7c0,1.5-0.1,2.9-0.4,4.3
				C162,208.9,161.7,210.1,161.3,211.3z"/>
		</g>
	</g>
	<g>
		<g>
			<path class="st1" d="M152.1,256.1C152.1,256.1,152.1,256.1,152.1,256.1c-11,0-20.8-6.6-24.9-16.8c-0.2-0.5-0.3-1-0.3-1.5
				c0-0.5,0.1-1,0.3-1.5c0.9-2.3,1.4-4.7,1.4-7.1c0-0.8-0.1-1.7-0.2-2.5c-0.2-1.2,0.3-2.5,1.1-3.4c0.9-0.9,2.1-1.3,3.4-1.1
				c0.9,0.1,1.8,0.2,2.7,0.2c7.8,0,14.9-4.9,17.7-12.3c0.6-1.6,2.1-2.6,3.7-2.6c0,0,0,0,0,0c1.7,0,3.2,1,3.7,2.6
				c2.4,6.3,8,10.9,14.6,12c1.7,0.3,3.1,1.7,3.3,3.4c0.2,1.2,0.3,2.4,0.3,3.7c0,7.2-2.8,14-7.9,19
				C166,253.3,159.3,256.1,152.1,256.1z M135.2,237.6c3.2,6.4,9.7,10.4,16.9,10.4c0,0,0,0,0,0c5.1,0,9.8-2,13.4-5.5
				c3.6-3.6,5.5-8.3,5.5-13.3c-5.6-1.6-10.5-5-13.9-9.6c-4.8,6.4-12.4,10.4-20.5,10.7C136.4,232.8,136,235.3,135.2,237.6z"/>
		</g>
	</g>
	<g>
		<g>
			<path class="st1" d="M109.6,256.1C109.6,256.1,109.6,256.1,109.6,256.1c-7.2,0-14-2.8-19-7.9c-5.1-5.1-7.9-11.9-7.9-19
				c0-1.1,0.1-2.2,0.2-3.3c0.3-2,1.9-3.5,3.9-3.5c9.5-0.1,17.5-7.2,18.6-16.6c0.2-2,1.9-3.5,4-3.5h0.2c1.3,0,2.6,0.1,3.8,0.3
				c1.8,0.3,3.2,1.7,3.4,3.4c1,7.5,6.4,13.7,13.7,15.7c0.8,0.2,1.5,0.4,2.4,0.5c1.8,0.3,3.1,1.7,3.4,3.4c0.2,1.2,0.2,2.4,0.2,3.6
				c0,3.5-0.6,6.8-1.9,10c0,0.1,0,0.1-0.1,0.2C130.4,249.5,120.6,256.1,109.6,256.1z M90.7,230c0.2,4.7,2.2,9.2,5.5,12.5
				c3.6,3.6,8.3,5.5,13.4,5.5h0c7.7,0,14.5-4.6,17.5-11.7c0,0,0-0.1,0.1-0.1c0.9-2.2,1.4-4.5,1.4-6.9c-0.1,0-0.1,0-0.2-0.1
				c-7.7-2.1-13.9-7.6-17.2-14.7C107.4,222.7,99.7,228.6,90.7,230z M130.8,237.8L130.8,237.8L130.8,237.8z"/>
		</g>
	</g>
	<g>
		<g>
			<path class="st1" d="M102.4,201c-9.8,0-18.9-5.4-23.6-14c-0.8-1.5-1.4-3-1.9-4.5c-0.9-2.7-1.3-5.5-1.3-8.4c0-4.5,1.1-9,3.3-12.9
				c1.6-2.9,3.7-5.5,6.2-7.7c0.2-0.1,0.3-0.3,0.5-0.4c0.5-0.3,1-0.7,1.5-1.1c0.1-0.1,0.3-0.2,0.4-0.3c3.3-2.2,7-3.6,10.9-4.2
				c1.4-0.2,2.9,0.4,3.8,1.5c3.6,4.7,9.1,7.5,15,7.5c1,0,1.9-0.1,2.8-0.2c1.4-0.2,2.9,0.4,3.8,1.5c2.1,2.7,3.6,5.7,4.5,8.9
				c0.2,0.7,0.2,1.5,0,2.2c-0.5,1.7-0.7,3.5-0.7,5.3c0,1.8,0.2,3.6,0.7,5.3c0.2,0.7,0.2,1.5,0,2.2c-0.4,1.5-1,2.9-1.7,4.3
				c0,0,0,0.1-0.1,0.1c-2.1,4.3-5.3,7.9-9.3,10.5c-2.3,1.6-5,2.8-7.7,3.5C107.2,200.6,104.9,201,102.4,201z M90,159.7
				c-1.7,1.5-3.1,3.2-4.2,5.2c-1.5,2.8-2.3,5.9-2.3,9.1c0,2,0.3,4,0.9,5.9c0.4,1.1,0.8,2.1,1.4,3.2c3.3,6.1,9.7,9.9,16.6,9.9
				c1.7,0,3.4-0.2,5-0.7c2-0.5,3.8-1.4,5.4-2.5c2.8-1.8,5-4.3,6.5-7.3c0-0.1,0.1-0.1,0.1-0.2c0.3-0.7,0.6-1.4,0.9-2.1
				c-0.5-2-0.7-4.2-0.7-6.3c0-2.1,0.2-4.2,0.7-6.3c-0.4-1.2-1-2.4-1.6-3.4c-0.5,0-0.9,0-1.4,0c-7.6,0-14.7-3.1-19.7-8.6
				c-1.9,0.5-3.7,1.3-5.4,2.4C91.5,158.7,90.8,159.2,90,159.7z"/>
		</g>
	</g>
	<g>
		<g>
			<path class="st1" d="M87.6,160.5c-1.2,0-2.4-0.6-3.2-1.6c-1.3-1.7-1-4.1,0.6-5.5c0.8-0.7,1.6-1.3,2.5-1.9
				c1.8-1.2,4.1-0.8,5.4,0.9s1,4.1-0.6,5.5c-0.8,0.7-1.6,1.3-2.5,1.9C89.2,160.3,88.4,160.5,87.6,160.5z"/>
		</g>
	</g>
	<g>
		<g>
			<path class="st1" d="M146.5,201c-10.9,0-20.7-6.5-24.9-16.6c-0.4-0.9-0.7-1.9-1-2.9c-0.7-2.4-1.1-4.9-1.1-7.5
				c0-2.5,0.4-5.1,1.1-7.5c2.6-9.1,9.9-16.2,19.1-18.6c1.5-0.4,3.1,0.1,4.1,1.4c3.6,4.5,9,7,14.7,7c1.6,0,3.2-0.2,4.8-0.6
				c1.5-0.4,3.1,0.1,4.1,1.4c2.7,3.4,4.6,7.4,5.5,11.6c0.3,1.7,0.5,3.5,0.5,5.3c0,1.8-0.2,3.6-0.5,5.3c-0.4,1.9-0.9,3.7-1.7,5.3
				c0,0,0,0.1-0.1,0.1c-2.4,5.4-6.5,10-11.7,12.8c-0.2,0.1-0.5,0.3-0.9,0.5C154.9,200,150.7,201,146.5,201z M139.5,156.4
				c-5.4,2.2-9.5,6.7-11.2,12.3c-0.5,1.7-0.7,3.5-0.7,5.3c0,1.8,0.2,3.6,0.7,5.3c0.2,0.7,0.4,1.4,0.7,2c3,7.1,9.8,11.7,17.5,11.7
				c2.9,0,5.9-0.7,8.5-2c0.2-0.1,0.4-0.2,0.5-0.3c3.7-2,6.6-5.2,8.2-8.9c0-0.1,0-0.1,0.1-0.2c0.5-1.2,0.9-2.5,1.2-3.8
				c0.2-1.2,0.4-2.5,0.4-3.7c0-1.3-0.1-2.5-0.4-3.7c-0.4-2.2-1.3-4.3-2.5-6.3c-1.3,0.2-2.7,0.3-4,0.3
				C151.3,164.3,144.5,161.5,139.5,156.4z M167.5,183.2L167.5,183.2L167.5,183.2z"/>
		</g>
	</g>
	<g>
		<g>
			<path class="st1" d="M191.4,201c-11.2,0-21.3-7-25.2-17.5c-0.5-1.3-0.9-2.7-1.2-4.1c-0.1-0.5-0.1-1,0-1.6
				c0.2-1.2,0.4-2.5,0.4-3.7c0-1.3-0.1-2.5-0.4-3.7c-0.1-0.5-0.1-1.1,0-1.6c2.1-10.5,10.1-18.7,20.5-21c1.5-0.3,3.1,0.2,4,1.4
				c3.6,4.6,9,7.2,14.8,7.2c1.4,0,2.8-0.2,4.1-0.5c1.5-0.3,3.1,0.2,4,1.4c3.8,4.8,5.8,10.6,5.8,16.7l0,0c0,11.1-6.6,20.9-16.8,25
				C198.3,200.3,194.9,201,191.4,201z M173,178.5c0.2,0.7,0.4,1.4,0.7,2.2c2.7,7.4,9.9,12.3,17.7,12.3c2.5,0,4.8-0.5,7.1-1.4
				c7.2-2.9,11.8-9.8,11.8-17.6c0-3.5-1-6.9-2.8-9.9c-1.1,0.1-2.1,0.2-3.2,0.2c-7.4,0-14.3-2.9-19.3-8.2c-6,2.1-10.5,7.1-12,13.4
				c0.2,1.5,0.4,3,0.4,4.5C173.4,175.5,173.3,177,173,178.5z M214.3,174L214.3,174L214.3,174z"/>
		</g>
	</g>
	<g>
		<g>
			<path class="st1" d="M75,164.3c-5.7,0-11.2-1.8-15.8-5.2c-0.1,0-0.1-0.1-0.2-0.1c-1.9-1.4-3.6-3.1-5.1-4.9
				c-3.8-4.8-5.8-10.6-5.8-16.8c0-6,1.9-11.7,5.6-16.4c0.6-0.8,1.4-1.3,2.4-1.5c2-0.4,3.8-1.1,5.6-2.2c0.7-0.4,1.3-0.8,2-1.3
				c1.4-1.1,3.4-1.1,4.9,0c3.3,2.6,7.3,3.9,11.5,3.9c0,0,0,0,0,0c3.2,0,6.4-0.8,9.2-2.4c1.5-0.9,3.5-0.6,4.8,0.6
				c2.6,2.5,4.6,5.5,6,8.8c0.4,1,0.4,2.1,0,3.1c-1,2.3-1.5,4.7-1.5,7.3c0,2.5,0.5,5,1.5,7.3c0.4,1,0.4,2.1,0,3.1
				c-1.6,3.9-4.2,7.4-7.4,10.2c-0.1,0.1-0.3,0.2-0.4,0.3c-0.6,0.4-1.2,0.8-1.7,1.3c-0.2,0.1-0.4,0.3-0.6,0.4c-2.7,1.8-5.6,3-8.7,3.7
				C79.1,164.1,77,164.3,75,164.3z M63.6,152.5c0.1,0,0.1,0.1,0.2,0.1c3.3,2.4,7.1,3.7,11.2,3.7c1.5,0,2.9-0.2,4.2-0.5
				c2.2-0.5,4.2-1.4,6.1-2.6c0.7-0.5,1.3-1.1,2-1.5c1.8-1.6,3.4-3.5,4.5-5.7c-0.9-2.8-1.4-5.7-1.4-8.7v0c0-3,0.5-5.9,1.4-8.7
				c-0.5-1-1.1-1.9-1.7-2.8c-3.2,1.3-6.6,2-10.1,2c0,0,0,0,0,0c-5,0-9.7-1.3-13.9-3.9c-0.1,0.1-0.3,0.2-0.4,0.2
				c-2,1.2-4.2,2.1-6.4,2.7c-2,3.1-3.1,6.7-3.1,10.4c0,4.3,1.4,8.4,4.1,11.8C61.2,150.4,62.3,151.6,63.6,152.5z"/>
		</g>
	</g>
	<g>
		<g>
			<path class="st1" d="M87.6,160.5c-1.2,0-2.4-0.6-3.2-1.6c-1.3-1.7-1-4.1,0.6-5.5c0.8-0.7,1.6-1.3,2.5-1.9
				c1.8-1.2,4.1-0.8,5.4,0.9s1,4.1-0.6,5.5c-0.8,0.7-1.6,1.3-2.5,1.9C89.2,160.3,88.4,160.5,87.6,160.5z"/>
		</g>
	</g>
	<g>
		<g>
			<path class="st1" d="M117.3,164.3c-8.5,0-16.3-3.9-21.4-10.6c-1.4-1.8-2.6-3.9-3.5-6c-1.4-3.2-2.1-6.7-2.1-10.3
				c0-3.6,0.7-7.1,2.1-10.4c2.4-5.7,6.7-10.4,12.1-13.4c1.6-0.8,3.5-0.5,4.7,0.7c3.6,3.6,8.3,5.6,13.4,5.6c3.1,0,6.2-0.8,8.9-2.3
				c1.6-0.8,3.5-0.6,4.7,0.7c2.1,2.1,3.9,4.6,5.2,7.3c1.8,3.7,2.7,7.6,2.7,11.7c0,4.1-0.9,8.1-2.7,11.8c-3.9,8-11.5,13.6-20.3,14.9
				C120,164.2,118.6,164.3,117.3,164.3z M106,122.2c-2.7,2-4.9,4.8-6.2,7.9c-1,2.3-1.5,4.8-1.5,7.3c0,2.5,0.5,5,1.5,7.3
				c0.6,1.5,1.4,2.9,2.4,4.2c3.6,4.8,9.1,7.5,15,7.5c1,0,1.9-0.1,2.8-0.2c6.2-0.9,11.5-4.8,14.3-10.5c1.3-2.6,1.9-5.4,1.9-8.3
				c0-2.9-0.6-5.7-1.9-8.3c-0.5-1.1-1.1-2.1-1.9-3.1c-3.1,1.2-6.4,1.8-9.8,1.8C116.5,127.9,110.7,125.9,106,122.2z"/>
		</g>
	</g>
	<g>
		<g>
			<path class="st1" d="M158.5,164.4c-8.2,0-15.8-3.7-20.9-10c-1.3-1.6-2.4-3.3-3.3-5.2c-0.5-1.1-0.5-2.4,0-3.5
				c1.3-2.6,1.9-5.4,1.9-8.3c0-2.9-0.6-5.7-1.9-8.3c-0.5-1.1-0.5-2.4,0-3.5c3.1-6.4,8.7-11.4,15.3-13.7c1.6-0.5,3.3-0.1,4.4,1.2
				c3.6,4.3,8.9,6.8,14.5,6.8c2.2,0,4.3-0.4,6.3-1.1c1.6-0.6,3.3-0.1,4.4,1.2c4.1,4.8,6.3,11,6.3,17.3l0,0c0,0,0,0,0,0
				c0,12.3-8.3,23-20.2,26.1C163.1,164.1,160.8,164.4,158.5,164.4z M142.3,147.2c0.4,0.7,0.9,1.4,1.5,2.1c3.6,4.5,9,7.1,14.7,7.1
				c1.6,0,3.2-0.2,4.8-0.6c8.3-2.2,14.2-9.7,14.2-18.3c0,0,0,0,0,0c0-3.6-1-7.1-2.9-10.1c-2,0.4-4,0.7-6,0.7c-7,0-13.6-2.7-18.5-7.4
				c-3.1,1.6-5.8,4.1-7.6,7.1c1.2,3.1,1.8,6.4,1.8,9.8C144.2,140.8,143.6,144.1,142.3,147.2z"/>
		</g>
	</g>
	<g>
		<g>
			<path class="st1" d="M204.4,164.4c-8.3,0-16-3.7-21.1-10.2c-3.8-4.8-5.8-10.6-5.8-16.7c0-9.5,4.9-18.2,13-23.1
				c1.5-0.9,3.5-0.7,4.8,0.5c3.5,3.3,8.1,5.1,12.9,5.1c3.4,0,6.8-0.9,9.8-2.7c1.5-0.9,3.5-0.7,4.8,0.5c5.4,5.1,8.5,12.2,8.5,19.7
				l0,0c0,12.5-8.9,23.6-21,26.3C208.4,164.1,206.4,164.4,204.4,164.4z M192.3,122.8c-4.4,3.6-6.9,8.9-6.9,14.6
				c0,4.3,1.4,8.4,4.1,11.8c3.6,4.6,9,7.2,14.8,7.2c1.4,0,2.8-0.2,4.1-0.5c8.6-1.9,14.8-9.7,14.8-18.5c0-4.4-1.4-8.5-4.1-11.8
				c-3.4,1.5-7.2,2.3-11,2.3C202.5,127.9,196.9,126.1,192.3,122.8z M227.3,137.4L227.3,137.4L227.3,137.4z"/>
		</g>
	</g>
	<g>
		<g>
			<path class="st1" d="M78.4,84.2c-0.4,0-0.7,0-1.1-0.1c-1.9-0.5-3.4-1-4.8-1.4c-26.2-8-41.6-21.4-43.4-37.7
				c-0.2-1.4,0.4-2.8,1.6-3.6c1.1-0.8,2.6-1,3.9-0.5c13.9,5.8,26,10.4,37.1,13.9c1.4,0.4,2.4,1.6,2.7,3c1.2,5.7,3.3,12,6.5,18.6
				c0.3,0.7,0.6,1.3,1,2c0.7,1.4,0.5,3.1-0.5,4.3C80.7,83.7,79.5,84.2,78.4,84.2z M39.3,51.5C44.9,62.9,59.9,70,71.1,73.8
				c-1.7-4.2-3-8.2-3.9-12.1C58.5,59,49.4,55.6,39.3,51.5z"/>
		</g>
	</g>
	<g>
		<g>
			<path class="st1" d="M123.8,80.7c-1.1,0-2.1-0.4-2.9-1.2l-1.3-1.4c-0.8-0.8-1.2-1.9-1.1-3c0.1-1.1,0.6-2.2,1.5-2.9
				c0.3-0.3,0.7-0.5,1-0.8c1.1-1,2.7-1.2,4.1-0.6c1.4,0.6,2.3,1.9,2.5,3.4c0.1,0.7,0.1,1.4,0.2,2.1c0.2,1.7-0.7,3.4-2.3,4.1
				C125,80.6,124.4,80.7,123.8,80.7z"/>
		</g>
	</g>
	<g>
		<g>
			<path class="st1" d="M180,83.9c-1.4,0-2.7-0.7-3.4-1.9l-9.6-15.7c-0.7-1.1-0.8-2.4-0.3-3.6c0.5-1.2,1.4-2.1,2.7-2.4
				c14.3-4,28.4-10.2,43-19.1c1.2-0.7,2.6-0.8,3.8-0.2c1.2,0.6,2.1,1.7,2.2,3.1c2.3,17.5-10.9,31.5-37.1,39.6
				C180.8,83.8,180.4,83.9,180,83.9z M176.5,66.5l5.3,8.6c11-3.7,25.8-11,28.4-23.4C198.8,58.1,187.7,63,176.5,66.5z"/>
		</g>
	</g>
	<g>
		<g>
			<path class="st1" d="M129.4,90.5c-7.3,0-14.6-0.4-21.8-1.1l-2.1-0.2c-3.8-0.4-7.5-0.9-11.1-1.5c-5.9-1-11.7-2.2-17.1-3.6
				c-1.1-0.3-2.1-1-2.6-2.1c-0.4-0.7-0.7-1.4-1-2.1c-3.4-7.2-5.8-14.1-7.1-20.5c-2.7-13.4-0.8-25.2,5.8-35.1c0.7-1,1.8-1.7,3-1.8
				c1.2-0.1,2.4,0.3,3.2,1.2l40.1,41.8c0.1,0.1,0.1,0.1,0.2,0.2l17.2,17.9c1.1,1.1,1.4,2.8,0.8,4.3c-0.6,1.5-2,2.4-3.6,2.5
				C132,90.5,130.7,90.5,129.4,90.5z M81.1,76.8c4.6,1.2,9.5,2.2,14.6,3c3.4,0.6,7,1,10.7,1.4l2,0.2c5.1,0.5,10.2,0.8,15.4,0.9
				l-10.5-11c-0.1-0.1-0.1-0.1-0.2-0.2L76.6,33.2c-3.4,7.1-4.1,15.2-2.1,24.6c1.2,5.7,3.3,12,6.5,18.6C81,76.6,81.1,76.7,81.1,76.8z
				"/>
		</g>
	</g>
	<g>
		<g>
			<path class="st1" d="M133.2,90.5c-1.1,0-2.1-0.4-2.9-1.2l-9.4-9.8c-0.6-0.6-1-1.4-1.1-2.3c-0.1-0.8-0.2-1.6-0.2-2.4
				c-0.1-1.3,0.4-2.6,1.5-3.4c2-1.6,3.9-3.3,5.6-4.9c0.1-0.1,0.1-0.1,0.2-0.1c10.5-9.9,17.7-21,21.5-33.1c0.5-1.5,1.8-2.6,3.3-2.8
				c1.6-0.2,3.1,0.5,3.9,1.9l18.1,29.5c0,0.1,0.1,0.1,0.1,0.2l9.6,15.7c0.6,1.1,0.8,2.4,0.3,3.5c-0.4,1.2-1.4,2-2.6,2.4l-0.4,0.1
				c-0.4,0.1-0.8,0.2-1.2,0.4c-8.1,2.4-17.3,4.1-27.3,5.2c-3.9,0.4-7.8,0.7-11.7,0.9C138,90.4,135.6,90.5,133.2,90.5
				C133.2,90.5,133.2,90.5,133.2,90.5z M128.4,75.7l6.5,6.8c1.7,0,3.4-0.1,5.2-0.2c3.8-0.2,7.5-0.5,11.3-0.9
				c8.1-0.9,15.7-2.2,22.5-4l-6.7-11c0-0.1-0.1-0.1-0.1-0.2l-14-22.8c-4.6,10.4-11.6,20.1-20.8,28.8c-0.1,0-0.1,0.1-0.2,0.1
				C130.8,73.5,129.6,74.6,128.4,75.7z"/>
		</g>
	</g>
	<g>
		<g>
			<path class="st1" d="M101.3,96.7C101.3,96.7,101.3,96.7,101.3,96.7c-1.7,0-3.1-1-3.7-2.6c-0.3-0.8-0.6-1.5-1-2.2
				c-1.1-2-2.5-3.7-4.1-5.2c-1.3-1.2-1.7-3.1-1-4.7c0.8-1.6,2.5-2.5,4.3-2.2c3.4,0.6,7,1,10.6,1.4c1.5,0.2,2.8,1.2,3.3,2.6
				c0.5,1.4,0.2,3-0.8,4.1c-0.6,0.7-1.2,1.4-1.8,2.2c-0.8,1.2-1.5,2.5-2.1,3.9C104.4,95.7,102.9,96.7,101.3,96.7z"/>
		</g>
	</g>
	<g>
		<g>
			<path class="st1" d="M122.5,79.3c-1.2,0-2.3-0.5-3.1-1.5c-1.4-1.7-1.1-4.2,0.6-5.6c0.3-0.3,0.7-0.5,1-0.8
				c1.7-1.4,4.2-1.2,5.6,0.5c1.4,1.7,1.2,4.2-0.5,5.6c-0.4,0.3-0.8,0.6-1.2,0.9C124.3,79.1,123.4,79.3,122.5,79.3z"/>
		</g>
	</g>
	<g>
		<g>
			<path class="st1" d="M123.6,78.5c-2,0-3.8-1.5-4-3.6c-0.2-2-0.3-3.8-0.4-5.6C117.5,39,127.2,15.9,148,0.8
				c1.8-1.3,4.3-0.9,5.6,0.9c1.3,1.8,0.9,4.3-0.9,5.6c-18.7,13.6-27,33.8-25.5,61.6c0.1,1.7,0.2,3.3,0.4,5.2
				c0.2,2.2-1.4,4.2-3.6,4.4C123.8,78.5,123.7,78.5,123.6,78.5z"/>
		</g>
	</g>
</g>
</svg>
