<?xml version="1.0" encoding="utf-8"?>
<!-- Generator: Adobe Illustrator 22.1.0, SVG Export Plug-In . SVG Version: 6.00 Build 0)  -->
<svg version="1.1" id="Layer_1" xmlns="http://www.w3.org/2000/svg" xmlns:xlink="http://www.w3.org/1999/xlink" x="0px" y="0px"
	 viewBox="0 0 256 256" style="enable-background:new 0 0 256 256;" xml:space="preserve">
<style type="text/css">
	.st0{fill:#F5B31F;}
	.st1{fill:#464646;}
	.st2{opacity:0.15;}
	.st3{fill:#AC6535;}
	.st4{fill:#EB573B;}
	.st5{fill:#90C056;}
	.st6{opacity:0.35;}
	.st7{fill:#FFFFFF;}
	.st8{opacity:0.2;}
	.st9{fill:#F6D67A;}
	.st10{opacity:0.3;}
	.st11{fill:#FFA755;}
	.st12{fill:#8FAE3C;}
	.st13{fill:#BE6BB2;}
	.st14{fill:#B7C536;}
	.st15{opacity:0.1;}
	.st16{fill:#9D5A96;}
	.st17{fill:#EA615D;}
	.st18{opacity:0.4;}
	.st19{fill:#F79932;}
	.st20{fill:#FFEC97;}
	.st21{fill:#FFD11D;}
	.st22{fill:#F7F2D5;}
	.st23{fill:#F6AF72;}
	.st24{fill:#BA6C45;}
	.st25{opacity:0.5;}
	.st26{fill:#E4C074;}
	.st27{fill:#656566;}
	.st28{fill:#FACD1F;}
	.st29{fill:#FFDF66;}
	.st30{fill:#6D6E71;}
	.st31{fill:#E77CAE;}
	.st32{fill:#FFE5C4;}
	.st33{fill:#F68455;}
	.st34{opacity:0.7;}
	.st35{fill:#ADEDFF;}
	.st36{fill:#EC754B;}
	.st37{fill:#4AA5BA;}
	.st38{opacity:0.8;}
	.st39{fill:#92A5AC;}
	.st40{fill:#D06E3C;}
	.st41{fill:#DA4F4B;}
	.st42{fill:#BDF3FF;}
	.st43{fill:#F18BB4;}
	.st44{fill:#F9D97A;}
	.st45{fill:none;}
	.st46{fill:#AF6535;}
	.st47{fill:#B93226;}
	.st48{fill:#FF6050;}
	.st49{fill:#EA7CB1;}
	.st50{fill:#00B0E0;}
	.st51{fill:#EA7DAE;}
	.st52{fill:#BC7532;}
	.st53{fill:#876C6C;}
	.st54{fill:#F9F6CD;}
	.st55{fill:#FFE37B;}
	.st56{fill:#1DDCFF;}
	.st57{fill:#60ACF7;}
	.st58{fill:#C3755A;}
	.st59{fill:#96557A;}
	.st60{fill:#66625D;}
	.st61{fill:#D68032;}
	.st62{fill:#F2A355;}
	.st63{fill:#7E9E6A;}
	.st64{fill:#965A85;}
	.st65{fill:#90CAD3;}
	.st66{fill:#94B57F;}
	.st67{fill:#B2E2E7;}
	.st68{fill:#FFDF8F;}
	.st69{fill:#FFFAEB;}
	.st70{fill:#F88916;}
	.st71{fill:#FFC86E;}
	.st72{fill:#AFA51D;}
	.st73{fill:#968A1C;}
	.st74{fill:#C3556D;}
</style>
<g>
	<g>
		<g>
			<path class="st48" d="M239.4,27.3l-13,3.8c-2.9-4-6.2-7.8-10-11.1l2.2-13.4C231.2,7.9,238.1,14.8,239.4,27.3z"/>
		</g>
	</g>
	<g class="st15">
		<g>
			<path d="M234.8,28.7l-8.4,2.5c-2.9-4-6.2-7.8-10-11.1l1.4-8.3C224.7,16.2,230.3,21.9,234.8,28.7z"/>
		</g>
	</g>
	<g>
		<g>
			<path class="st32" d="M75,244.7c-0.1,0.1-0.1,0.1-0.2,0.2c-3.2,3.1-7,5.3-11.7,6.4C27.1,259.8,0.7,160,27,136.6
				c2.3-2.1,5.1-3.6,8.3-4.3C75.9,122.7,102.5,217.3,75,244.7z"/>
		</g>
	</g>
	<g class="st15">
		<g>
			<path d="M73,156.4c15.3,27.8,19.2,71.2,2.1,88.3c-0.1,0.1-0.1,0.1-0.2,0.2c-3.2,3.1-7,5.3-11.7,6.4c-8.4,2-16.3-1.9-23.1-9.4
				c0,0,24.7,7.7,32.9-13.4S73,156.4,73,156.4z"/>
		</g>
	</g>
	<g>
		<g>
			<path class="st1" d="M58.8,255.9c-11.8,0-23.1-9.3-32.2-26.8c-7.7-14.9-13-34.4-14-52.2c-1.2-20.1,3-35.4,11.8-43.3
				c2.9-2.6,6.3-4.4,10-5.2c15.5-3.6,30.7,5.7,41.8,25.7c8,14.4,13.1,32.6,13.9,50.1c0.9,19.2-3.4,34.6-12.3,43.4
				c-0.1,0.1-0.2,0.2-0.3,0.3c-3.8,3.7-8.3,6.2-13.5,7.4C62.3,255.7,60.5,255.9,58.8,255.9z M40.9,135.6c-1.8,0-3.3,0.2-4.7,0.5
				c-2.5,0.6-4.6,1.7-6.6,3.4c-6.8,6.1-10.1,19.5-9.1,36.8c1,16.7,5.9,35.1,13.1,49c4.1,8,8.9,14.2,13.8,18
				c4.9,3.9,9.9,5.2,14.8,4.1c3.8-0.9,7.1-2.7,9.8-5.4c0.1-0.1,0.1-0.1,0.2-0.2c15.8-15.9,11.4-58.1-3-84
				C59,139.6,48.3,135.6,40.9,135.6z M72.2,241.9C72.2,241.9,72.2,241.9,72.2,241.9l2.8,2.8L72.2,241.9z M72.3,241.8
				C72.3,241.8,72.3,241.8,72.3,241.8C72.3,241.8,72.3,241.8,72.3,241.8z M72.3,241.8C72.3,241.8,72.3,241.8,72.3,241.8
				C72.3,241.8,72.3,241.8,72.3,241.8z"/>
		</g>
	</g>
	<g>
		<g>
			<path class="st4" d="M226.4,31.2c13.8,19.3,17,45-2.7,64.8L75,244.7c27.4-27.5,0.9-122-39.7-112.5c-3.2,0.8-6,2.2-8.3,4.3
				L145.6,17.8c21.9-22,51.2-15.5,70.8,2.2C220.2,23.4,223.5,27.1,226.4,31.2z"/>
		</g>
	</g>
	<g class="st15">
		<g>
			<path d="M226.4,31.2c13.8,19.3,17,45-2.7,64.8L75,244.7c0,0,135.2-142.4,146.3-168.7C232.5,49.8,226.4,31.2,226.4,31.2z"/>
		</g>
	</g>
	<g class="st10">
		<g>
			<path class="st7" d="M145.6,17.8L27,136.6c2.3-2.1,5.1-3.6,8.3-4.3c10.1-2.4,19.4,1.7,27.2,9.7c0,0-8.7-8.4-4.1-22.5
				S145.6,17.8,145.6,17.8z"/>
		</g>
	</g>
	<g>
		<g>
			<path class="st1" d="M75,248.7c-1,0-2-0.4-2.8-1.2c-1.6-1.6-1.6-4.1,0-5.7l0,0c15.8-15.9,11.4-58.1-3-83.9
				c-12.7-22.8-26.1-23.4-33-21.8c-2.5,0.6-4.6,1.7-6.6,3.4c-1.6,1.4-4.1,1.3-5.6-0.2s-1.5-4,0.1-5.6L142.8,15
				c11-11,24.7-16.2,39.5-14.9c12.9,1.1,26,7.1,36.9,17c3.9,3.6,7.5,7.5,10.5,11.8l0,0c7.8,10.8,11.9,22.8,12,34.5
				c0.1,13.2-5.1,25.5-15.1,35.4L77.9,247.6C77.1,248.4,76.1,248.7,75,248.7z M41.6,127.6c12.9,0.3,25.2,9.6,34.6,26.5
				c8,14.4,13.1,32.6,13.9,50.1c0.4,7.8-0.1,14.9-1.4,21.3L220.9,93.1c19.3-19.3,13.9-43.5,2.3-59.6c-2.7-3.8-5.9-7.3-9.4-10.5
				C196.1,7,169,0,148.5,20.6L41.6,127.6z"/>
		</g>
	</g>
	<g>
		<g>
			<g>
				<path class="st4" d="M41.6,204.9C41.6,204.9,41.6,204.9,41.6,204.9c-0.6,0.6-1.4,1-2.2,1.2c-6.8,1.6-11.7-17.1-6.8-21.5
					c0.4-0.4,1-0.7,1.6-0.8C41.7,182,46.7,199.7,41.6,204.9z"/>
			</g>
		</g>
		<g>
			<g>
				<path class="st4" d="M63.2,231.3C63.2,231.3,63.2,231.3,63.2,231.3c-0.7,0.7-1.5,1.1-2.4,1.3c-7.3,1.7-12.6-18.5-7.3-23.2
					c0.5-0.4,1-0.7,1.7-0.9C63.4,206.6,68.7,225.8,63.2,231.3z"/>
			</g>
		</g>
		<g>
			<g>
				<path class="st4" d="M55.2,173.6C55.2,173.6,55.1,173.6,55.2,173.6c-0.6,0.6-1.4,1.1-2.3,1.3c-6.9,1.6-12-17.6-7-22.1
					c0.5-0.4,1-0.7,1.6-0.8C55.3,150.1,60.5,168.3,55.2,173.6z"/>
			</g>
		</g>
	</g>
	<g>
		<g>
			<g>
				<path class="st1" d="M38.6,210.2c-2.4,0-6-1.1-8.9-6.8c-3.2-6.2-4.9-17.2,0.3-21.8c0.9-0.8,2.1-1.4,3.3-1.7
					c4.4-1,8.6,1.4,11.4,6.4c3.6,6.5,4.6,16.6-0.2,21.4c0,0,0,0,0,0c0,0-0.1,0.1-0.1,0.1c-1.1,1.1-2.5,1.8-4,2.2
					C39.8,210.1,39.2,210.2,38.6,210.2z M41.6,204.9L41.6,204.9L41.6,204.9z M35.2,187.7c-0.5,0.7-1,3.6,0,7.7
					c1,4.1,2.7,6.4,3.4,6.8c0.1,0,0.1-0.1,0.2-0.1c0,0,0,0,0,0c1.3-1.4,1.4-7.3-1.1-11.8C36.8,188.7,35.8,187.7,35.2,187.7z"/>
			</g>
		</g>
		<g>
			<g>
				<path class="st1" d="M59.9,236.7c-2.5,0-6.3-1.2-9.4-7.1c-3.4-6.6-5.2-18.3,0.3-23.2c1-0.9,2.1-1.5,3.4-1.8
					c4.6-1.1,9,1.5,12,6.8c5,8.9,3.8,18.7-0.2,22.7c0,0,0,0,0,0c0,0-0.1,0.1-0.1,0.1c-1.2,1.2-2.6,1.9-4.2,2.3
					C61.2,236.7,60.6,236.7,59.9,236.7z M63.2,231.3L63.2,231.3L63.2,231.3z M56.3,212.4c-0.1,0-0.1,0-0.2,0c-0.6,0.6-1.3,4.2-0.1,9
					c1.2,4.8,3.3,7.1,3.9,7.3c0.1,0,0.2-0.1,0.4-0.3c0,0,0,0,0,0c1.7-1.8,1.5-8.4-1.2-13.1C58.4,213.8,57.2,212.4,56.3,212.4z"/>
			</g>
		</g>
		<g>
			<g>
				<path class="st1" d="M52.1,179c-2.4,0-6.1-1.1-9.1-6.9c-3.3-6.3-5-17.6,0.3-22.3c1-0.9,2.1-1.4,3.3-1.7c4.4-1,8.8,1.4,11.6,6.5
					c3.7,6.7,4.7,16.9-0.2,21.9c0,0-0.1,0.1-0.1,0.1c-1.1,1.1-2.5,1.9-4.1,2.2C53.4,178.9,52.8,179,52.1,179z M55.1,173.7
					L55.1,173.7L55.1,173.7z M48.5,155.8c-0.5,0.6-1.1,3.6-0.1,8c1,4.5,2.9,6.8,3.6,7.1c0.1,0,0.2-0.1,0.3-0.2c0,0,0,0,0,0
					c1.4-1.5,1.4-7.6-1.1-12.3C50.3,156.8,49.2,155.7,48.5,155.8z"/>
			</g>
		</g>
	</g>
	<g>
		<g>
			<path class="st1" d="M226.4,35.2c-1.3,0-2.5-0.6-3.3-1.7c-2.7-3.8-5.9-7.3-9.4-10.5c-1-0.9-1.5-2.3-1.3-3.6l2.2-13.4
				c0.3-2.1,2.3-3.6,4.4-3.3c14.4,1.5,22.8,9.9,24.3,24.3c0.2,1.9-1,3.7-2.9,4.3l-13,3.8C227.2,35.1,226.8,35.2,226.4,35.2z
				 M220.8,18.5c2.6,2.5,5,5.2,7.2,8l7-2c-1.6-7.3-5.8-11.6-13-13.3L220.8,18.5z"/>
		</g>
	</g>
	<g>
		<g>
			<path class="st1" d="M135.6,50.8c-1,0-2-0.4-2.8-1.2c-1.6-1.6-1.6-4.1,0-5.7c20.2-20.2,35.5-32.1,49.7-29.5
				c2.2,0.4,3.6,2.5,3.2,4.7c-0.4,2.2-2.5,3.6-4.7,3.2c-11.3-2.1-27.2,11.9-42.6,27.3C137.7,50.4,136.7,50.8,135.6,50.8z"/>
		</g>
	</g>
	<g>
		<g>
			<path class="st1" d="M99.2,208.7c0,0-0.1,0-0.1,0c-2.2-0.1-3.9-1.9-3.9-4.1c0.4-12.2-1.6-20.9-3.9-28.5c-0.6-2.1,0.6-4.3,2.7-5
				c2.1-0.6,4.3,0.6,5,2.7c2.3,7.8,4.6,17.6,4.2,31C103.1,207,101.3,208.7,99.2,208.7z"/>
		</g>
	</g>
</g>
</svg>
