<?xml version="1.0" encoding="utf-8"?>
<!-- Generator: Adobe Illustrator 22.1.0, SVG Export Plug-In . SVG Version: 6.00 Build 0)  -->
<svg version="1.1" id="Layer_1" xmlns="http://www.w3.org/2000/svg" xmlns:xlink="http://www.w3.org/1999/xlink" x="0px" y="0px"
	 viewBox="0 0 256 256" style="enable-background:new 0 0 256 256;" xml:space="preserve">
<style type="text/css">
	.st0{fill:#F5B31F;}
	.st1{fill:#464646;}
	.st2{opacity:0.15;}
	.st3{fill:#AC6535;}
	.st4{fill:#EB573B;}
	.st5{fill:#90C056;}
	.st6{opacity:0.35;}
	.st7{fill:#FFFFFF;}
	.st8{opacity:0.2;}
	.st9{fill:#F6D67A;}
	.st10{opacity:0.3;}
	.st11{fill:#FFA755;}
	.st12{fill:#8FAE3C;}
	.st13{fill:#BE6BB2;}
	.st14{fill:#B7C536;}
	.st15{opacity:0.1;}
	.st16{fill:#9D5A96;}
	.st17{fill:#EA615D;}
	.st18{opacity:0.4;}
	.st19{fill:#F79932;}
	.st20{fill:#FFEC97;}
	.st21{fill:#FFD11D;}
	.st22{fill:#F7F2D5;}
	.st23{fill:#F6AF72;}
	.st24{fill:#BA6C45;}
	.st25{opacity:0.5;}
	.st26{fill:#E4C074;}
	.st27{fill:#656566;}
	.st28{fill:#FACD1F;}
	.st29{fill:#FFDF66;}
	.st30{fill:#6D6E71;}
	.st31{fill:#E77CAE;}
	.st32{fill:#FFE5C4;}
	.st33{fill:#F68455;}
	.st34{opacity:0.7;}
	.st35{fill:#ADEDFF;}
	.st36{fill:#EC754B;}
	.st37{fill:#4AA5BA;}
	.st38{opacity:0.8;}
	.st39{fill:#92A5AC;}
	.st40{fill:#D06E3C;}
	.st41{fill:#DA4F4B;}
	.st42{fill:#BDF3FF;}
	.st43{fill:#F18BB4;}
	.st44{fill:#F9D97A;}
	.st45{fill:none;}
	.st46{fill:#AF6535;}
	.st47{fill:#B93226;}
	.st48{fill:#FF6050;}
	.st49{fill:#EA7CB1;}
	.st50{fill:#00B0E0;}
	.st51{fill:#EA7DAE;}
	.st52{fill:#BC7532;}
	.st53{fill:#876C6C;}
	.st54{fill:#F9F6CD;}
	.st55{fill:#FFE37B;}
	.st56{fill:#1DDCFF;}
	.st57{fill:#60ACF7;}
	.st58{fill:#C3755A;}
	.st59{fill:#96557A;}
	.st60{fill:#66625D;}
	.st61{fill:#D68032;}
	.st62{fill:#F2A355;}
	.st63{fill:#7E9E6A;}
	.st64{fill:#965A85;}
	.st65{fill:#90CAD3;}
	.st66{fill:#94B57F;}
	.st67{fill:#B2E2E7;}
	.st68{fill:#FFDF8F;}
	.st69{fill:#FFFAEB;}
	.st70{fill:#F88916;}
	.st71{fill:#FFC86E;}
	.st72{fill:#AFA51D;}
	.st73{fill:#968A1C;}
	.st74{fill:#C3556D;}
</style>
<g>
	<g>
		<g>
			<ellipse class="st7" cx="84" cy="50.1" rx="79.9" ry="33"/>
		</g>
	</g>
	<g>
		<g>
			<ellipse class="st33" cx="84" cy="50.1" rx="30.8" ry="12.7"/>
		</g>
	</g>
	<g class="st15">
		<g>
			<path class="st1" d="M84,17.1c44.1,0,79.9,14.8,79.9,33c0,18.2-35.8,33-79.9,33C160.4,83.1,160.4,17.1,84,17.1z"/>
		</g>
	</g>
	<g>
		<g>
			<path class="st1" d="M84,87.1C84,87.1,84,87.1,84,87.1c-21.9,0-42.5-3.5-58.1-10C9.2,70.3,0,60.7,0,50.1c0-10.5,9.2-20.1,25.9-27
				c15.6-6.4,36.2-10,58-10c0,0,0,0,0,0c21.9,0,42.5,3.5,58,10c16.7,6.9,25.9,16.5,25.9,27c0,10.5-9.2,20.1-25.9,27
				C126.4,83.6,105.8,87.1,84,87.1z M84,21.1c-20.8,0-40.4,3.3-55,9.4C15.7,36,8,43.1,8,50.1c0,7,7.6,14.1,20.9,19.6
				c14.6,6,34.2,9.4,55,9.4c0,0,0,0,0,0c20.8,0,40.3-3.3,55-9.4c13.3-5.5,20.9-12.7,20.9-19.6h4h-4c0-7-7.6-14.1-20.9-19.6
				C124.3,24.4,104.8,21.1,84,21.1C84,21.1,84,21.1,84,21.1z"/>
		</g>
	</g>
	<g>
		<g>
			<path class="st1" d="M84,66.9C84,66.9,84,66.9,84,66.9c-8.8,0-17-1.4-23.3-4c-10-4.1-11.5-9.7-11.5-12.7c0-3,1.5-8.6,11.5-12.7
				c6.3-2.6,14.6-4,23.3-4c0,0,0,0,0,0c22.9,0,34.8,8.4,34.8,16.7c0,3-1.5,8.6-11.5,12.7C101,65.4,92.7,66.9,84,66.9z M84,41.4
				c-7.6,0-15,1.2-20.3,3.4c-4.5,1.9-6.6,4-6.6,5.3c0,1.3,2,3.4,6.6,5.3c5.3,2.2,12.7,3.4,20.3,3.4c0,0,0,0,0,0
				c7.6,0,15-1.2,20.3-3.4c4.5-1.9,6.6-4,6.6-5.3C110.8,47,100.6,41.4,84,41.4C84,41.4,84,41.4,84,41.4z"/>
		</g>
	</g>
	<g>
		<g>
			<path class="st30" d="M163.9,50.1l0,94.4c0,18.2-35.8,33-79.9,33c-44.1,0-79.9-14.8-79.9-33l0-94.4c0,18.2,35.8,33,79.9,33
				S163.9,68.4,163.9,50.1z"/>
		</g>
	</g>
	<g class="st2">
		<g>
			<path class="st7" d="M84,83.1C39.8,83.1,4,68.3,4,50.1l0,94.4c0,5.9,3.7,11.4,10.2,16.2c0,0-1.2-49.5,14.2-61.7S84,83.1,84,83.1z
				"/>
		</g>
	</g>
	<g>
		<g>
			<path class="st1" d="M84,181.6C84,181.6,84,181.6,84,181.6c-21.9,0-42.5-3.5-58.1-10C9.2,164.7,0,155.1,0,144.6l0-94.4l0,0
				c0-2.2,1.8-4,4-4l0,0c2.2,0,4,1.8,4,4l0,0c0,7,7.6,14.1,20.9,19.6c14.6,6,34.2,9.4,55,9.4c0,0,0,0,0,0c20.8,0,40.3-3.3,55-9.4
				c13.3-5.5,20.9-12.7,20.9-19.6l0,0c0-2.2,1.8-4,4-4l0,0c2.2,0,4,1.8,4,4l0,94.4c0,10.5-9.2,20.2-25.9,27
				C126.4,178,105.8,181.6,84,181.6z M8,66.3l0,78.2c0,7,7.6,14.2,20.9,19.7c14.6,6,34.1,9.4,55,9.4c0,0,0,0,0,0
				c20.8,0,40.4-3.3,55-9.4c13.3-5.5,20.9-12.7,20.9-19.7l0-78.2c-4.3,4.1-10.3,7.7-17.9,10.8c-15.6,6.4-36.2,10-58,10c0,0,0,0,0,0
				c-21.9,0-42.5-3.5-58-10C18.4,74,12.4,70.4,8,66.3z"/>
		</g>
	</g>
	<g class="st2">
		<g>
			<path class="st7" d="M172.1,144.8c-44.1,0-79.9-14.8-79.9-33l0,94.4c0,7.3,5.7,14,15.3,19.4c0,0-1.8-52,7.3-61.9
				S172.1,144.8,172.1,144.8z"/>
		</g>
	</g>
	<g>
		<g>
			<ellipse class="st7" cx="172.1" cy="111.8" rx="79.9" ry="33"/>
		</g>
	</g>
	<g>
		<g>
			<ellipse class="st33" cx="172.1" cy="111.8" rx="30.8" ry="12.7"/>
		</g>
	</g>
	<g class="st15">
		<g>
			<path class="st1" d="M172.1,78.7c44.1,0,79.9,14.8,79.9,33c0,18.2-35.8,33-79.9,33C244.4,144.8,244.4,78.7,172.1,78.7z"/>
		</g>
	</g>
	<g>
		<g>
			<path class="st1" d="M172.1,148.8C172.1,148.8,172.1,148.8,172.1,148.8c-21.9,0-42.5-3.5-58.1-10c-16.7-6.9-25.9-16.5-25.9-27
				c0-10.5,9.2-20.1,25.9-27c15.6-6.4,36.2-10,58-10c0,0,0,0,0,0c21.9,0,42.5,3.5,58,10c16.7,6.9,25.9,16.5,25.9,27c0,0,0,0,0,0
				c0,10.5-9.2,20.1-25.9,27C214.6,145.2,194,148.8,172.1,148.8z M172.1,82.7c-20.8,0-40.4,3.3-55,9.4
				c-13.3,5.5-20.9,12.7-20.9,19.6c0,7,7.6,14.1,20.9,19.6c14.6,6,34.2,9.4,55,9.4c0,0,0,0,0,0c20.8,0,40.4-3.3,55-9.4
				c13.3-5.5,20.9-12.7,20.9-19.6c0-7-7.6-14.1-20.9-19.6C212.5,86.1,192.9,82.7,172.1,82.7C172.1,82.7,172.1,82.7,172.1,82.7z
				 M252,111.8L252,111.8L252,111.8z"/>
		</g>
	</g>
	<g>
		<g>
			<path class="st1" d="M172.1,128.5C172.1,128.5,172.1,128.5,172.1,128.5c-22.9,0-34.9-8.4-34.9-16.7c0-8.3,12-16.7,34.8-16.7
				c0,0,0,0,0,0c22.9,0,34.8,8.4,34.8,16.7v0C207,120.1,195,128.5,172.1,128.5z M172.1,103c-7.6,0-15,1.2-20.3,3.4
				c-4.5,1.9-6.6,4-6.6,5.3c0,3.1,10.2,8.7,26.8,8.7c0,0,0,0,0,0c7.6,0,15-1.2,20.3-3.4c4.5-1.9,6.6-4,6.6-5.3
				C199,108.7,188.8,103,172.1,103C172.1,103,172.1,103,172.1,103z M203,111.8L203,111.8L203,111.8z"/>
		</g>
	</g>
	<g>
		<g>
			<path class="st30" d="M252,111.8l0,94.4c0,18.2-35.8,33-79.9,33c-44.1,0-79.9-14.8-79.9-33l0-94.4c0,18.2,35.8,33,79.9,33
				C216.2,144.8,252,130,252,111.8z"/>
		</g>
	</g>
	<g class="st2">
		<g>
			<path class="st1" d="M252,111.8l0,94.4c0,18.2-35.8,33-79.9,33c-44.1,0-79.9-14.8-79.9-33c0,0,80.1,27.9,119.9,8.8
				S252,111.8,252,111.8z"/>
		</g>
	</g>
	<g>
		<g>
			<path class="st1" d="M172.1,243.2C172.1,243.2,172.1,243.2,172.1,243.2c-21.9,0-42.5-3.5-58.1-10c-16.7-6.9-25.9-16.5-25.9-27.1
				l0-94.4c0-2.2,1.8-4,4-4l0,0c2.2,0,4,1.8,4,4c0,7,7.6,14.1,20.9,19.6c14.6,6,34.2,9.4,55,9.4c0,0,0,0,0,0c20.8,0,40.4-3.3,55-9.4
				c13.3-5.5,20.9-12.7,20.9-19.6c0-2.2,1.8-4,4-4l0,0c2.2,0,4,1.8,4,4l0,94.4c0,10.5-9.2,20.2-25.9,27
				C214.6,239.7,194,243.2,172.1,243.2z M96.2,127.9l0,78.2c0,7,7.6,14.2,20.9,19.7c14.6,6,34.1,9.4,55,9.4c0,0,0,0,0,0
				c20.8,0,40.4-3.3,55-9.4c13.3-5.5,20.9-12.7,20.9-19.7l0-78.2c-4.3,4.1-10.3,7.7-17.9,10.8c-15.6,6.4-36.2,10-58,10c0,0,0,0,0,0
				c-21.9,0-42.5-3.5-58-10C106.5,135.7,100.5,132,96.2,127.9z"/>
		</g>
	</g>
</g>
</svg>
