<?xml version="1.0" encoding="utf-8"?>
<!-- Generator: Adobe Illustrator 22.1.0, SVG Export Plug-In . SVG Version: 6.00 Build 0)  -->
<svg version="1.1" id="Layer_1" xmlns="http://www.w3.org/2000/svg" xmlns:xlink="http://www.w3.org/1999/xlink" x="0px" y="0px"
	 viewBox="0 0 256 256" style="enable-background:new 0 0 256 256;" xml:space="preserve">
<style type="text/css">
	.st0{fill:#F5B31F;}
	.st1{fill:#464646;}
	.st2{opacity:0.15;}
	.st3{fill:#AC6535;}
	.st4{fill:#EB573B;}
	.st5{fill:#90C056;}
	.st6{opacity:0.35;}
	.st7{fill:#FFFFFF;}
	.st8{opacity:0.2;}
	.st9{fill:#F6D67A;}
	.st10{opacity:0.3;}
	.st11{fill:#FFA755;}
	.st12{fill:#8FAE3C;}
	.st13{fill:#BE6BB2;}
	.st14{fill:#B7C536;}
	.st15{opacity:0.1;}
	.st16{fill:#9D5A96;}
	.st17{fill:#EA615D;}
	.st18{opacity:0.4;}
	.st19{fill:#F79932;}
	.st20{fill:#FFEC97;}
	.st21{fill:#FFD11D;}
	.st22{fill:#F7F2D5;}
	.st23{fill:#F6AF72;}
	.st24{fill:#BA6C45;}
	.st25{opacity:0.5;}
	.st26{fill:#E4C074;}
	.st27{fill:#656566;}
	.st28{fill:#FACD1F;}
	.st29{fill:#FFDF66;}
	.st30{fill:#6D6E71;}
	.st31{fill:#E77CAE;}
	.st32{fill:#FFE5C4;}
	.st33{fill:#F68455;}
	.st34{opacity:0.7;}
	.st35{fill:#ADEDFF;}
	.st36{fill:#EC754B;}
	.st37{fill:#4AA5BA;}
	.st38{opacity:0.8;}
	.st39{fill:#92A5AC;}
	.st40{fill:#D06E3C;}
	.st41{fill:#DA4F4B;}
	.st42{fill:#BDF3FF;}
	.st43{fill:#F18BB4;}
	.st44{fill:#F9D97A;}
	.st45{fill:none;}
	.st46{fill:#AF6535;}
	.st47{fill:#B93226;}
	.st48{fill:#FF6050;}
	.st49{fill:#EA7CB1;}
	.st50{fill:#00B0E0;}
	.st51{fill:#EA7DAE;}
	.st52{fill:#BC7532;}
	.st53{fill:#876C6C;}
	.st54{fill:#F9F6CD;}
	.st55{fill:#FFE37B;}
	.st56{fill:#1DDCFF;}
	.st57{fill:#60ACF7;}
	.st58{fill:#C3755A;}
	.st59{fill:#96557A;}
	.st60{fill:#66625D;}
	.st61{fill:#D68032;}
	.st62{fill:#F2A355;}
	.st63{fill:#7E9E6A;}
	.st64{fill:#965A85;}
	.st65{fill:#90CAD3;}
	.st66{fill:#94B57F;}
	.st67{fill:#B2E2E7;}
	.st68{fill:#FFDF8F;}
	.st69{fill:#FFFAEB;}
	.st70{fill:#F88916;}
	.st71{fill:#FFC86E;}
	.st72{fill:#AFA51D;}
	.st73{fill:#968A1C;}
	.st74{fill:#C3556D;}
</style>
<g>
	<g>
		<g>
			<path class="st26" d="M154,92.3c-1.5-2.3-2.9-4.6-4.1-6.8c-0.2-0.4-0.4-0.8-0.6-1.2c-0.3-0.5-0.6-1.1-0.9-1.6
				c-0.4-0.7-0.8-1.5-1.1-2.2c-0.2-0.4-0.4-0.7-0.5-1.1c-2-4.3-3.6-8.2-4.7-11.6c-0.2-0.5-0.3-1-0.5-1.4c-0.4-1.2-0.7-2.2-1-3.3
				c-0.1-0.2-0.1-0.4-0.2-0.6c-0.1-0.4-0.2-0.8-0.3-1.2c-0.1-0.4-0.2-0.8-0.3-1.2c-0.1-0.3-0.1-0.6-0.2-0.9
				c-0.1-0.3-0.1-0.6-0.2-0.9c1.4,10.7,1.2,23,0.1,36.7c-3.8-12.1-7.8-23.9-11.7-34.8c-4.1,11.7-8.4,24.4-12.4,37.3
				c-1.2-14.7-1.6-27.9-0.1-39.2c-1.3,6.2-4.6,17.8-12.8,31.2c-5.5-3.2-7.4-9.3-5.5-18.3C107.6,52.4,113,33,115.6,19.9l22.4-16
				c0,0,2.3,31.7,18.8,63.1C157.8,78.6,156.8,87,154,92.3z"/>
		</g>
	</g>
	<g class="st25">
		<g>
			<path class="st7" d="M107.4,56.9c8.3-18.3,18.7-32.2,32.6-39.2l-3.4-11.3L116,18.5L107.4,56.9z"/>
		</g>
	</g>
	<g>
		<g>
			<path class="st22" d="M161.7,204c0,28.3-8.9,47.8-33.7,47.9l-0.2,0c-0.4,0-0.7,0-1.1,0c-49.9-1.3-33.6-83-11.3-154.3
				c4.1-13,8.3-25.6,12.4-37.3c3.8,11,7.8,22.7,11.7,34.8C151.4,132.7,161.7,173.4,161.7,204z"/>
		</g>
	</g>
	<g class="st15">
		<g>
			<path d="M139.5,95.1c11.9,37.6,22.3,78.4,22.2,108.9c0,28.3-8.9,47.8-33.7,47.9l-0.2,0c-0.4,0-0.7,0-1.1,0
				c-17.2-0.4-26.5-10.4-30.5-26.2c0,0,26.6,27.4,46,1S139.5,95.1,139.5,95.1z"/>
		</g>
	</g>
	<g>
		<g>
			<path class="st22" d="M130.7,251.9c-0.9,0-1.8,0-2.7,0c24.8-0.1,33.7-19.6,33.7-47.9c0-30.6-10.4-71.3-22.2-108.9
				c1.1-13.7,1.3-26-0.1-36.7c0.1,0.3,0.1,0.6,0.2,0.9c0.1,0.3,0.1,0.6,0.2,0.9c0.1,0.4,0.2,0.8,0.3,1.2c0.1,0.4,0.2,0.8,0.3,1.2
				c0.1,0.2,0.1,0.4,0.2,0.6c0.3,1,0.6,2.1,1,3.3c0.1,0.5,0.3,0.9,0.5,1.4c1.1,3.4,2.7,7.4,4.7,11.6c0.2,0.4,0.4,0.7,0.5,1.1
				c0.4,0.7,0.7,1.4,1.1,2.2c0.3,0.5,0.6,1.1,0.9,1.6c0.2,0.4,0.4,0.8,0.6,1.2c1.2,2.2,2.6,4.5,4.1,6.8c0.4,0.7,0.9,1.3,1.4,2
				c0.2,0.3,0.5,0.7,0.7,1c0.7,1,1.4,2,2.2,3c0.2,0.2,0.3,0.4,0.5,0.7c0.2,0.3,0.4,0.6,0.7,0.9c0.3,0.3,0.5,0.7,0.8,1
				c0.7,0.9,1.5,1.9,2.3,2.8c0.4,0.4,0.7,0.9,1.1,1.3c2.3,2.6,4.7,5.2,7.4,7.7C214,149.4,239.1,250.2,130.7,251.9z"/>
		</g>
	</g>
	<g class="st15">
		<g>
			<path d="M130.7,251.9c-0.9,0-1.8,0-2.7,0c24.8-0.1,65.9-30.4,65.9-58.7c0-30.6-27.2-71.9-37-83.8s-16-40.4-17.4-51.1
				c0.1,0.3,0.1,0.6,0.2,0.9c0.1,0.3,0.1,0.6,0.2,0.9c0.1,0.4,0.2,0.8,0.3,1.2c0.1,0.4,0.2,0.8,0.3,1.2c0.1,0.2,0.1,0.4,0.2,0.6
				c0.3,1,0.6,2.1,1,3.3c0.1,0.5,0.3,0.9,0.5,1.4c1.1,3.4,2.7,7.4,4.7,11.6c0.2,0.4,0.4,0.7,0.5,1.1c0.4,0.7,0.7,1.4,1.1,2.2
				c0.3,0.5,0.6,1.1,0.9,1.6c0.2,0.4,0.4,0.8,0.6,1.2c1.2,2.2,2.6,4.5,4.1,6.8c0.4,0.7,0.9,1.3,1.4,2c0.2,0.3,0.5,0.7,0.7,1
				c0.7,1,1.4,2,2.2,3c0.2,0.2,0.3,0.4,0.5,0.7c0.2,0.3,0.4,0.6,0.7,0.9c0.3,0.3,0.5,0.7,0.8,1c0.7,0.9,1.5,1.9,2.3,2.8
				c0.4,0.4,0.7,0.9,1.1,1.3c2.3,2.6,4.7,5.2,7.4,7.7C214,149.4,239.1,250.2,130.7,251.9z"/>
		</g>
	</g>
	<g>
		<g>
			<path class="st22" d="M126.6,251.9L126.6,251.9c-1.3,0-2.6,0-3.9,0c-107-2.4-82-102.7-39.2-139.1c8.2-7.9,14.3-15.8,18.9-23.2
				c8.3-13.3,11.6-25,12.8-31.2c-1.5,11.4-1.2,24.5,0.1,39.2C93,168.9,76.8,250.6,126.6,251.9z"/>
		</g>
	</g>
	<g class="st15">
		<g>
			<path d="M100,249.6c6.8,1.3,14.4,2.1,22.7,2.3c1.3,0,2.6,0,3.9,0v0c-49.9-1.3-33.6-83-11.3-154.3c-0.3-3.8-0.6-7.5-0.8-11.1
				C83.7,158,70,218.1,100,249.6z"/>
		</g>
	</g>
	<g>
		<g>
			<path class="st22" d="M122.7,251.9c-142.2-2.5-124.9-105.5-68-137.4c19.3-10.8,32.7-26.8,42.1-43.2c-1.9,9,0,15.1,5.5,18.3
				c-4.6,7.4-10.7,15.4-18.9,23.2C40.8,149.2,15.7,249.5,122.7,251.9z"/>
		</g>
	</g>
	<g class="st15">
		<g>
			<path d="M84.5,248.2c11.2,2.1,23.9,3.4,38.3,3.6c-107-2.4-82-102.7-39.2-139.1c8.2-7.9,14.3-15.8,18.9-23.2
				c-2.8-1.6-4.6-3.9-4.6-3.9S90.1,96,85.4,101.3C21.8,159.5,13.2,221.9,84.5,248.2z"/>
		</g>
	</g>
	<g>
		<g>
			<path class="st22" d="M130.7,251.9c108.4-1.7,83.3-102.5,40.4-139.1c-2.7-2.6-5.1-5.2-7.4-7.7c-0.4-0.4-0.7-0.9-1.1-1.3
				c-0.8-0.9-1.6-1.9-2.3-2.8c-0.3-0.3-0.5-0.7-0.8-1c-0.2-0.3-0.4-0.6-0.7-0.9c-0.2-0.2-0.4-0.5-0.5-0.7c-0.8-1-1.5-2-2.2-3
				c-0.2-0.3-0.5-0.7-0.7-1c-0.5-0.7-0.9-1.3-1.4-2c2.8-5.3,3.8-13.8,2.8-25.3c9.4,17.9,23.5,35.7,44.4,47.4
				C258.5,146.5,275.6,250.6,130.7,251.9z"/>
		</g>
	</g>
	<g class="st15">
		<g>
			<path d="M188.9,113.1c26.7,21,41.8,46.7,42.4,68.4c0,51.6-100.6,70.4-100.6,70.4c144.9-1.3,127.8-105.4,70.5-137.5l-23.4-18
				C177.9,96.4,162.2,92.1,188.9,113.1z"/>
		</g>
	</g>
	<g>
		<g>
			<path class="st27" d="M127.7,255.9c-0.4,0-0.8,0-1.2,0c-11.9-0.3-21.1-4.8-27.3-13.5c-15.6-21.8-11.6-69.6,12.4-146
				c3.6-11.6,7.7-23.8,12.5-37.5c0.6-1.6,2.1-2.7,3.8-2.7l0,0c1.7,0,3.2,1.1,3.8,2.7c4.4,12.5,8.2,23.9,11.7,35
				c15.1,47.8,22.4,83.8,22.4,110.1c0,15.8-2.8,28.1-8.2,36.7c-6.4,10.1-16.3,15.2-29.6,15.2H127.7z M127.8,72.5
				c-3.2,9.3-6,18-8.6,26.3c-22.8,72.8-27.4,119.6-13.5,138.9c4.7,6.6,11.6,9.9,21,10.2c0.3,0,0.7,0,1,0h0.2
				c7.3,0,29.7-0.1,29.7-43.9h4h-4c0-25.5-7.2-60.7-22.1-107.7C133.2,88.6,130.7,80.8,127.8,72.5z"/>
		</g>
	</g>
	<g>
		<g>
			<path class="st1" d="M128,255.9c-2.2,0-4-1.8-4-4s1.8-4,4-4c7.4,0,29.8-0.1,29.8-43.9c0-25.5-7.2-60.7-22.1-107.7
				c-0.2-0.5-0.2-1-0.2-1.5c1.2-15.1,1.1-26.5-0.1-35.9c-0.3-2.1,1.2-4.1,3.3-4.5c2.1-0.4,4.1,1,4.6,3.1l0.2,0.9
				c0.1,0.3,0.1,0.6,0.2,0.8l0.6,2.2c0,0.2,0.1,0.3,0.1,0.5c0,0,0,0.1,0,0.1c0.3,1,0.6,2,0.9,3.1c0.1,0.4,0.2,0.7,0.3,1.1l0.1,0.3
				c1.2,3.7,2.8,7.4,4.5,11.1c0.2,0.4,0.3,0.7,0.5,1.1c0.3,0.7,0.7,1.4,1.1,2.1c0.3,0.5,0.6,1,0.8,1.6c0.2,0.3,0.3,0.6,0.5,0.8
				l0.2,0.3c1.2,2.1,2.5,4.3,4,6.5c0.4,0.6,0.8,1.3,1.3,1.9c0.2,0.3,0.4,0.6,0.6,0.9c0.7,1,1.4,2,2.2,3l0.1,0.2
				c0.1,0.1,0.2,0.3,0.3,0.4c0,0,0.1,0.1,0.1,0.1c0.2,0.3,0.4,0.5,0.6,0.8l0.8,1c0.7,0.9,1.5,1.8,2.2,2.7c0.4,0.5,0.7,0.9,1.1,1.2
				c2.2,2.5,4.6,5,7.1,7.4c13.4,11.5,25,28.7,31.7,47.3c7.4,20.4,8.3,40.6,2.5,56.7c-6.8,18.8-25.6,41.3-77.2,42.1
				C129.9,255.9,128.9,255.9,128,255.9z M143.5,94.6c14.9,47.4,22.2,83.2,22.2,109.4c0,15.8-2.8,28.1-8.2,36.7
				c-1.2,1.8-2.4,3.5-3.8,5c24.2-4.6,40.2-16.4,46.8-34.6c11.2-31.1-7.5-74.4-32-95.3c-0.1-0.1-0.1-0.1-0.2-0.2
				c-2.7-2.6-5.2-5.3-7.6-8c-0.4-0.4-0.7-0.8-1.1-1.3c0,0-0.1-0.1-0.1-0.1c-0.8-1-1.6-2-2.4-2.9l-0.8-1c-0.2-0.3-0.5-0.6-0.7-0.9
				c-0.1-0.2-0.3-0.4-0.4-0.5l-0.1-0.2c-0.8-1.1-1.6-2.1-2.3-3.1c-0.3-0.4-0.5-0.7-0.7-1.1c-0.5-0.7-0.9-1.3-1.4-2
				c-1.6-2.4-3-4.7-4.3-7l-0.2-0.3c-0.2-0.3-0.3-0.6-0.5-0.9c-0.3-0.5-0.6-1.1-0.9-1.6c-0.2-0.4-0.4-0.8-0.6-1.2
				C144,86.9,143.8,90.7,143.5,94.6z"/>
		</g>
	</g>
	<g>
		<g>
			<path class="st1" d="M126.6,255.9c-1.3,0-2.7,0-4,0c-50.9-1.1-69.5-23.6-76.1-42.3c-5.7-16.1-4.8-36.2,2.6-56.6
				c6.8-18.6,18.3-35.8,31.7-47.2C88,102.9,94.1,95.4,99,87.4c8.1-13,11.2-24.3,12.3-29.9c0.4-2.1,2.5-3.5,4.6-3.1
				c2.1,0.4,3.6,2.3,3.3,4.5c-1.3,9.9-1.3,22.1,0.1,38.4c0,0.5,0,1-0.2,1.5c-22.8,72.8-27.4,119.6-13.5,138.9
				c4.7,6.6,11.6,9.9,21,10.2c2.2,0.1,3.9,1.8,3.9,4v0C130.6,254.1,128.9,255.9,126.6,255.9z M110.5,83.4c-1.3,2.6-2.9,5.4-4.6,8.2
				c-5.3,8.6-11.9,16.6-19.5,24c-0.1,0.1-0.1,0.1-0.2,0.2c-24.4,20.8-43.1,64-32.1,95.1c6.6,18.6,23.1,30.5,48,35
				c-1-1.1-2-2.3-2.9-3.5c-15.6-21.8-11.6-69.3,12.1-145.2C110.9,92.2,110.6,87.7,110.5,83.4z"/>
		</g>
	</g>
	<g>
		<g>
			<path class="st1" d="M122.7,255.9C122.7,255.9,122.7,255.9,122.7,255.9c-33.2-0.6-59.9-6.6-79.4-17.8
				c-17.2-9.9-28.5-24-32.7-40.8c-7.9-31.3,10.2-68.5,42.1-86.3c16.4-9.2,30.1-23.2,40.6-41.7c1-1.7,3-2.5,4.9-1.8
				c1.8,0.7,2.9,2.6,2.5,4.5c-2,9.6,1.1,12.6,3.6,14c0.9,0.5,1.6,1.4,1.9,2.5s0.1,2.2-0.5,3.1c-5.3,8.6-11.9,16.6-19.5,24
				c-0.1,0.1-0.1,0.1-0.2,0.2c-24.4,20.8-43.1,64-32.1,95.1c8.3,23.4,32.1,36.1,68.7,37c2.2,0,4,1.9,3.9,4.1
				C126.7,254.1,124.9,255.9,122.7,255.9z M93.3,84.4C83.2,98.7,70.9,110,56.7,117.9c-28.9,16.2-45.3,49.4-38.3,77.4
				c3.7,14.6,13.7,27,28.9,35.8c5.2,3,11.1,5.7,17.5,7.9c-9.8-7.7-15.3-16.9-18.3-25.4c-5.7-16.1-4.8-36.2,2.6-56.6
				c6.8-18.6,18.3-35.8,31.7-47.2c6.2-6,11.7-12.5,16.2-19.3C95.6,88.9,94.2,87,93.3,84.4z"/>
		</g>
	</g>
	<g>
		<g>
			<path class="st1" d="M130.7,255.9c-2.2,0-4-1.8-4-4c0-2.2,1.7-4,3.9-4c37.2-0.6,61.4-13.3,69.8-36.8c11.2-31.1-7.5-74.4-32-95.3
				c-0.1-0.1-0.1-0.1-0.2-0.2c-2.7-2.6-5.2-5.3-7.6-8c-0.4-0.4-0.7-0.8-1.1-1.3c0,0-0.1-0.1-0.1-0.1c-0.8-1-1.6-2-2.4-2.9l-0.8-1
				c-0.2-0.3-0.5-0.6-0.7-0.9c-0.1-0.2-0.3-0.4-0.4-0.5l-0.1-0.2c-0.8-1.1-1.6-2.1-2.3-3.1c-0.3-0.4-0.5-0.7-0.7-1.1
				c-0.5-0.7-0.9-1.3-1.4-2c-0.8-1.2-0.9-2.8-0.2-4.1c2.4-4.6,3.2-12.4,2.4-23.1c-0.2-1.9,1-3.6,2.9-4.2c1.8-0.5,3.8,0.3,4.7,2
				c10.8,20.5,25.2,35.9,42.8,45.8c32,17.9,50.1,55.2,42.1,86.6c-4.3,16.9-15.9,31.1-33.4,41C191.9,249.7,164.6,255.6,130.7,255.9
				C130.8,255.9,130.7,255.9,130.7,255.9z M173.8,109.8c13.4,11.5,25,28.7,31.7,47.3c7.4,20.4,8.3,40.6,2.5,56.7
				c-3.1,8.7-8.9,18.2-19.3,26c7-2.3,13.4-5,19.1-8.3c15.6-8.8,25.8-21.3,29.6-36c3.5-13.6,1.4-29.1-5.9-43.6
				c-7.2-14.3-18.7-26.3-32.4-34c-15.1-8.5-28-20.6-38.4-36.2c-0.4,4-1.2,7.4-2.3,10.2c0,0,0,0.1,0.1,0.1c0.2,0.3,0.4,0.6,0.6,0.9
				c0.7,1,1.4,2,2.2,3l0.1,0.2c0.1,0.1,0.2,0.3,0.3,0.4c0,0,0.1,0.1,0.1,0.1c0.2,0.3,0.4,0.5,0.6,0.8l0.8,1c0.7,0.9,1.5,1.8,2.2,2.7
				c0.4,0.5,0.7,0.9,1.1,1.2C168.9,104.9,171.3,107.4,173.8,109.8z"/>
		</g>
	</g>
	<g>
		<g>
			<path class="st1" d="M115.4,101.6c-0.1,0-0.3,0-0.4,0c-1.9-0.2-3.4-1.7-3.5-3.6c-0.4-5.2-0.7-10-0.9-14.5
				c-1.3,2.6-2.9,5.4-4.6,8.2c-1.1,1.8-3.5,2.4-5.4,1.4c-4.9-2.8-10.3-9.1-7.5-22.6c0.1-0.4,0.2-0.8,0.4-1.2
				c10.5-18.4,15.7-37.4,18.2-50.1c0.2-1,0.8-1.9,1.6-2.5l22.4-16c1.2-0.8,2.7-1,4-0.4c1.3,0.6,2.2,1.9,2.3,3.3
				c0,0.3,2.4,31.3,18.3,61.6c0.3,0.5,0.4,1,0.4,1.5c1,12.4-0.1,21.4-3.3,27.5c-0.7,1.2-1.9,2.1-3.3,2.1c-1.4,0.1-2.8-0.6-3.5-1.8
				c-1.6-2.3-3-4.7-4.3-7l-0.2-0.3c-0.2-0.3-0.3-0.6-0.5-0.9c-0.3-0.5-0.6-1.1-0.9-1.6c-0.2-0.4-0.4-0.8-0.6-1.2
				c-0.1,3.7-0.4,7.7-0.7,11.9c-0.1,1.9-1.6,3.4-3.5,3.7c-1.9,0.2-3.7-0.9-4.3-2.8c-2.4-7.7-5-15.5-7.8-23.8c-3.2,9.3-6,18-8.6,26.3
				C118.7,100.4,117.1,101.6,115.4,101.6z M100.7,72.6c-1,5.4-0.4,8.6,0.8,10.6c6.3-11.2,8.8-20.7,9.9-25.7c0.4-2.1,2.5-3.5,4.6-3.1
				c2.1,0.4,3.6,2.3,3.3,4.5c-0.6,5-1,10.5-0.9,16.8c1.8-5.4,3.7-10.9,5.7-16.7c0.6-1.6,2.1-2.7,3.8-2.7l0,0c1.7,0,3.2,1.1,3.8,2.7
				c1.7,4.7,3.2,9.3,4.7,13.7c-0.1-5.1-0.4-9.6-0.9-13.8c-0.3-2.1,1.2-4.1,3.3-4.5c2.1-0.4,4.1,1,4.6,3.1l0.2,0.9
				c0.1,0.3,0.1,0.6,0.2,0.8l0.6,2.2c0,0.2,0.1,0.3,0.1,0.5c0,0,0,0.1,0,0.1c0.3,1,0.6,2,0.9,3.1c0.1,0.4,0.2,0.7,0.3,1.1l0.1,0.3
				c1.2,3.7,2.8,7.4,4.5,11.1c0.2,0.4,0.3,0.7,0.5,1.1c0.3,0.7,0.7,1.4,1.1,2.1c0.3,0.5,0.6,1,0.8,1.6c0,0,0,0,0,0.1
				c0.5-3.9,0.6-8.7,0.2-14.3c-12-23.1-16.5-46-18.1-57.1l-15.6,11.1C116.5,35.4,111.1,54.3,100.7,72.6z"/>
		</g>
	</g>
</g>
</svg>
