<?xml version="1.0" encoding="utf-8"?>
<!-- Generator: Adobe Illustrator 22.1.0, SVG Export Plug-In . SVG Version: 6.00 Build 0)  -->
<svg version="1.1" id="Layer_1" xmlns="http://www.w3.org/2000/svg" xmlns:xlink="http://www.w3.org/1999/xlink" x="0px" y="0px"
	 viewBox="0 0 256 256" style="enable-background:new 0 0 256 256;" xml:space="preserve">
<style type="text/css">
	.st0{fill:#F5B31F;}
	.st1{fill:#464646;}
	.st2{opacity:0.15;}
	.st3{fill:#AC6535;}
	.st4{fill:#EB573B;}
	.st5{fill:#90C056;}
	.st6{opacity:0.35;}
	.st7{fill:#FFFFFF;}
	.st8{opacity:0.2;}
	.st9{fill:#F6D67A;}
	.st10{opacity:0.3;}
	.st11{fill:#FFA755;}
	.st12{fill:#8FAE3C;}
	.st13{fill:#BE6BB2;}
	.st14{fill:#B7C536;}
	.st15{opacity:0.1;}
	.st16{fill:#9D5A96;}
	.st17{fill:#EA615D;}
	.st18{opacity:0.4;}
	.st19{fill:#F79932;}
	.st20{fill:#FFEC97;}
	.st21{fill:#FFD11D;}
	.st22{fill:#F7F2D5;}
	.st23{fill:#F6AF72;}
	.st24{fill:#BA6C45;}
	.st25{opacity:0.5;}
	.st26{fill:#E4C074;}
	.st27{fill:#656566;}
	.st28{fill:#FACD1F;}
	.st29{fill:#FFDF66;}
	.st30{fill:#6D6E71;}
	.st31{fill:#E77CAE;}
	.st32{fill:#FFE5C4;}
	.st33{fill:#F68455;}
	.st34{opacity:0.7;}
	.st35{fill:#ADEDFF;}
	.st36{fill:#EC754B;}
	.st37{fill:#4AA5BA;}
	.st38{opacity:0.8;}
	.st39{fill:#92A5AC;}
	.st40{fill:#D06E3C;}
	.st41{fill:#DA4F4B;}
	.st42{fill:#BDF3FF;}
	.st43{fill:#F18BB4;}
	.st44{fill:#F9D97A;}
	.st45{fill:none;}
	.st46{fill:#AF6535;}
	.st47{fill:#B93226;}
	.st48{fill:#FF6050;}
	.st49{fill:#EA7CB1;}
	.st50{fill:#00B0E0;}
	.st51{fill:#EA7DAE;}
	.st52{fill:#BC7532;}
	.st53{fill:#876C6C;}
	.st54{fill:#F9F6CD;}
	.st55{fill:#FFE37B;}
	.st56{fill:#1DDCFF;}
	.st57{fill:#60ACF7;}
	.st58{fill:#C3755A;}
	.st59{fill:#96557A;}
	.st60{fill:#66625D;}
	.st61{fill:#D68032;}
	.st62{fill:#F2A355;}
	.st63{fill:#7E9E6A;}
	.st64{fill:#965A85;}
	.st65{fill:#90CAD3;}
	.st66{fill:#94B57F;}
	.st67{fill:#B2E2E7;}
	.st68{fill:#FFDF8F;}
	.st69{fill:#FFFAEB;}
	.st70{fill:#F88916;}
	.st71{fill:#FFC86E;}
	.st72{fill:#AFA51D;}
	.st73{fill:#968A1C;}
	.st74{fill:#C3556D;}
</style>
<g>
	<g>
		<g>
			<path class="st9" d="M175.4,70.7c0,44.9-15.8,119.8-47.3,119.8c-31.5,0-47.3-75-47.3-119.8c0,0,19.5-15.6,38.5-6.3
				c2.9,1.4,5.9,3.5,8.7,6.3C149.5,91.5,175.4,70.7,175.4,70.7z"/>
		</g>
	</g>
	<g class="st10">
		<g>
			<path class="st7" d="M106.1,176.2c-16.8-24-25.2-72.8-25.2-105.5c0,0,4.7-3.7,11.7-6.5C89.5,96.6,95.5,134.9,106.1,176.2z"/>
		</g>
	</g>
	<g class="st15">
		<g>
			<path d="M163.1,77.4c7.3-2.7,12.3-6.7,12.3-6.7c0,44.9-15.8,119.8-47.3,119.8C149.6,160.6,160.4,122.1,163.1,77.4z"/>
		</g>
	</g>
	<g>
		<g>
			<path class="st68" d="M175.4,69.4c0,0-25.9,18-47.3,0c-2.9-2.4-5.8-4.2-8.7-5.4c17.6-8.1,40.7-7.5,56,2.6
				C175.4,67.5,175.4,68.4,175.4,69.4z"/>
		</g>
	</g>
	<g class="st15">
		<g>
			<path d="M163.5,75.1c7.2-2.4,12-5.7,12-5.7c0-1,0-1.9,0-2.8c-3.6-2.4-7.6-4.2-11.8-5.5C163.7,65.9,163.7,70.6,163.5,75.1z"/>
		</g>
	</g>
	<g>
		<g>
			<path class="st7" d="M175.4,66.6c-15.3-10.1-38.4-10.7-56-2.6c-19.1-8.1-38.5,5.4-38.5,5.4C80.9,30.7,89,4,89,4l78.2,0
				C167.3,4,175,29.4,175.4,66.6z"/>
		</g>
	</g>
	<g class="st15">
		<g>
			<path d="M156.8,4l10.5,0c0,0,7.8,25.4,8.1,62.6c-3.6-2.4-7.6-4.2-11.9-5.6C162.9,40.7,160.9,21.5,156.8,4z"/>
		</g>
	</g>
	<g>
		<g>
			<path class="st1" d="M128.2,194.5C128.2,194.5,128.2,194.5,128.2,194.5c-16,0-29.6-15.9-39.3-45.9c-7.4-22.9-12-52.8-12-78
				c0-1.2,0.5-2.4,1.5-3.1c0.2-0.2,5.5-4.3,13.2-7.3c10.5-4,20.8-3.8,29.6,0.5c3.5,1.7,6.8,4.1,9.8,7c18.5,18.1,41,0.5,42-0.3
				c1.2-1,2.8-1.1,4.2-0.5c1.4,0.7,2.3,2.1,2.3,3.6C179.4,113.9,164.4,194.5,128.2,194.5z M84.9,72.7c0.2,24,4.6,51.9,11.6,73.5
				c4.9,15.1,15.5,40.3,31.7,40.3c25.1,0,41.5-61.7,43.2-108.3c-11.7,6.4-30.5,10.5-45.9-4.6c-2.4-2.4-5-4.2-7.7-5.5
				c-6.8-3.3-14.6-3.4-23-0.3C90.2,69.3,86.8,71.4,84.9,72.7z"/>
		</g>
	</g>
	<g>
		<g>
			<path class="st1" d="M149.7,81.3c-7.8,0-16.3-2.2-24.2-8.9c-2.4-2-5-3.6-7.7-4.8c-1.5-0.6-2.4-2-2.4-3.6c0-1.6,0.9-3,2.3-3.7
				c19.3-8.9,43.9-7.7,59.9,2.9c1.1,0.7,1.8,2,1.8,3.3c0,0.9,0,1.9,0,2.9c0,1.3-0.6,2.5-1.7,3.3C177.5,72.8,165,81.3,149.7,81.3z
				 M128.8,64.8c0.7,0.5,1.3,1,2,1.6c7.8,6.5,17.1,8.5,27.9,6c4.7-1.1,8.8-3,11.4-4.3C158.4,61.9,142.7,60.7,128.8,64.8z
				 M175.4,69.4L175.4,69.4L175.4,69.4z"/>
		</g>
	</g>
	<g>
		<g>
			<path class="st1" d="M80.9,73.4c-0.6,0-1.3-0.2-1.9-0.5c-1.3-0.7-2.1-2.1-2.1-3.5c0-38.8,8-65.5,8.3-66.6C85.7,1.1,87.3,0,89,0
				c0,0,0,0,0,0l78.2,0c1.8,0,3.3,1.1,3.8,2.8c0.3,1.1,7.9,26.4,8.3,63.7c0,1.5-0.8,2.8-2.1,3.6c-1.3,0.7-2.9,0.6-4.1-0.2
				c-13.8-9.1-35.2-10-52.1-2.3c-1,0.5-2.2,0.5-3.2,0c-16.8-7.1-34.5,4.9-34.7,5C82.5,73.2,81.7,73.4,80.9,73.4z M92.1,8
				c-1.9,7.2-6.4,27.5-7.1,54.6c7.5-3.6,20.8-7.9,34.4-2.9c16.6-7,36.8-6.9,51.9,0.1c-0.9-25.7-5.3-44.8-7-51.7L92.1,8z"/>
		</g>
	</g>
	<g>
		<g>
			<path class="st1" d="M128.1,256C128.1,256,128.1,256,128.1,256c-2.2,0-4-1.8-4-4l0-61.5c0-2.2,1.8-4,4-4c0,0,0,0,0,0
				c2.2,0,4,1.8,4,4l0,61.5C132.1,254.2,130.4,256,128.1,256z"/>
		</g>
	</g>
	<g>
		<g>
			<path class="st1" d="M158.7,256C158.7,256,158.7,256,158.7,256l-61.1,0c-2.2,0-4-1.8-4-4c0-2.2,1.8-4,4-4c0,0,0,0,0,0l61.1,0
				c2.2,0,4,1.8,4,4C162.7,254.2,160.9,256,158.7,256z"/>
		</g>
	</g>
</g>
</svg>
