<?xml version="1.0" encoding="utf-8"?>
<!-- Generator: Adobe Illustrator 22.1.0, SVG Export Plug-In . SVG Version: 6.00 Build 0)  -->
<svg version="1.1" id="Layer_1" xmlns="http://www.w3.org/2000/svg" xmlns:xlink="http://www.w3.org/1999/xlink" x="0px" y="0px"
	 viewBox="0 0 256 256" style="enable-background:new 0 0 256 256;" xml:space="preserve">
<style type="text/css">
	.st0{fill:#F5B31F;}
	.st1{fill:#464646;}
	.st2{opacity:0.15;}
	.st3{fill:#AC6535;}
	.st4{fill:#EB573B;}
	.st5{fill:#90C056;}
	.st6{opacity:0.35;}
	.st7{fill:#FFFFFF;}
	.st8{opacity:0.2;}
	.st9{fill:#F6D67A;}
	.st10{opacity:0.3;}
	.st11{fill:#FFA755;}
	.st12{fill:#8FAE3C;}
	.st13{fill:#BE6BB2;}
	.st14{fill:#B7C536;}
	.st15{opacity:0.1;}
	.st16{fill:#9D5A96;}
	.st17{fill:#EA615D;}
	.st18{opacity:0.4;}
	.st19{fill:#F79932;}
	.st20{fill:#FFEC97;}
	.st21{fill:#FFD11D;}
	.st22{fill:#F7F2D5;}
	.st23{fill:#F6AF72;}
	.st24{fill:#BA6C45;}
	.st25{opacity:0.5;}
	.st26{fill:#E4C074;}
	.st27{fill:#656566;}
	.st28{fill:#FACD1F;}
	.st29{fill:#FFDF66;}
	.st30{fill:#6D6E71;}
	.st31{fill:#E77CAE;}
	.st32{fill:#FFE5C4;}
	.st33{fill:#F68455;}
	.st34{opacity:0.7;}
	.st35{fill:#ADEDFF;}
	.st36{fill:#EC754B;}
	.st37{fill:#4AA5BA;}
	.st38{opacity:0.8;}
	.st39{fill:#92A5AC;}
	.st40{fill:#D06E3C;}
	.st41{fill:#DA4F4B;}
	.st42{fill:#BDF3FF;}
	.st43{fill:#F18BB4;}
	.st44{fill:#F9D97A;}
	.st45{fill:none;}
	.st46{fill:#AF6535;}
	.st47{fill:#B93226;}
	.st48{fill:#FF6050;}
	.st49{fill:#EA7CB1;}
	.st50{fill:#00B0E0;}
	.st51{fill:#EA7DAE;}
	.st52{fill:#BC7532;}
	.st53{fill:#876C6C;}
	.st54{fill:#F9F6CD;}
	.st55{fill:#FFE37B;}
	.st56{fill:#1DDCFF;}
	.st57{fill:#60ACF7;}
	.st58{fill:#C3755A;}
	.st59{fill:#96557A;}
	.st60{fill:#66625D;}
	.st61{fill:#D68032;}
	.st62{fill:#F2A355;}
	.st63{fill:#7E9E6A;}
	.st64{fill:#965A85;}
	.st65{fill:#90CAD3;}
	.st66{fill:#94B57F;}
	.st67{fill:#B2E2E7;}
	.st68{fill:#FFDF8F;}
	.st69{fill:#FFFAEB;}
	.st70{fill:#F88916;}
	.st71{fill:#FFC86E;}
	.st72{fill:#AFA51D;}
	.st73{fill:#968A1C;}
	.st74{fill:#C3556D;}
</style>
<g>
	<g>
		<g>
			<path class="st19" d="M220.5,145.3c0,59.5-48.2,107.7-107.6,107.7C53.5,253,5.3,204.8,5.3,145.3c0-47.8,31.1-88.4,74.2-102.4
				c4.6-1.5,9.2-2.7,14.1-3.6c23.7,15,47.7,19.4,71.9,12C198.3,69.8,220.5,104.9,220.5,145.3z"/>
		</g>
	</g>
	<g class="st15">
		<g>
			<path d="M182.1,41.3c-21.3,24.7,5.3,16.3-15.7,22.7c-24.3,7.4-48.3,3-71.9-12c-6.3-4-6.7-15.6-6.7-15.6l-4.6-5.2l50.5-13
				C133.7,18.3,135.2,47.6,182.1,41.3z"/>
		</g>
	</g>
	<g>
		<g>
			<path class="st12" d="M229.8,5c-21.3,24.7-42.4,39.9-63.3,46.3c-24.3,7.4-48.3,3-71.9-12c-6.3-4-12.7-8.8-19-14.4
				c-0.5-1-1-2-1.5-3c15.5-9,31.5-18.5,59.6-16.5C162.4,7.6,182.8,11.2,229.8,5z"/>
		</g>
	</g>
	<g class="st10">
		<g>
			<path class="st7" d="M133.7,5.5C105.6,3.5,89.6,13,74.1,22c0.5,1,1,2,1.5,3c6.3,5.5,12.6,10.3,19,14.4
				C91.2,24.9,107.2,14.2,133.7,5.5z"/>
		</g>
	</g>
	<g>
		<g>
			<g>
				<path class="st1" d="M112.5,256.1C51,256.1,0.9,205.9,0.9,144.3c0-48.5,30.9-91.2,76.9-106.2c4.7-1.6,9.7-2.8,14.6-3.7
					c1-0.2,2,0,2.9,0.6c22.9,14.6,46,18.5,68.6,11.5c1-0.3,2.2-0.2,3.1,0.3c19.3,10.9,34.9,27.1,44.9,46.8c0.8,1.5,0.5,3.4-0.7,4.6
					l-4.2,4.2l-51.6,51.6l0,73c0,2.2-1.8,4-4,4c0,0,0,0,0,0c-19.6,0-38.2-7.2-52.6-20.3l-11.9,12c13,12,28.9,20.1,46.2,23.4
					c1.9,0.4,3.2,2,3.2,3.9s-1.4,3.6-3.3,3.9C126.4,255.4,119.5,256.1,112.5,256.1z M92.4,42.6c-4.1,0.8-8.1,1.9-12,3.1
					c-42.7,14-71.4,53.6-71.4,98.6c0,56.9,45.9,103.2,102.6,103.7c-12.3-5.2-23.6-12.7-33.2-22.3c-1.6-1.6-1.6-4.1,0-5.7l17.6-17.6
					c0.8-0.8,1.8-1.2,2.8-1.2c1.1,0,2.1,0.4,2.8,1.2c12.4,12.4,28.6,19.6,45.9,20.6l0-70.6c0-1.1,0.4-2.1,1.2-2.8l54.8-54.9
					c-9.1-16.7-22.5-30.5-38.9-40.1C140.7,61.5,116.4,57.4,92.4,42.6z"/>
			</g>
		</g>
		<g>
			<g>
				<path class="st1" d="M72.7,25c-1.4,0-2.8-0.8-3.5-2.1c-2-3.8-4.7-7.9-8.8-13.3c-1.3-1.8-1-4.3,0.8-5.6c1.8-1.3,4.3-1,5.6,0.8
					c4.3,5.7,7.2,10.1,9.4,14.3c1,1.9,0.3,4.4-1.6,5.4C74,24.9,73.3,25,72.7,25z"/>
			</g>
		</g>
		<g>
			<g>
				<path class="st1" d="M79.4,63.4c-0.1,0-0.1,0-0.2,0c-2.2-0.1-3.9-2-3.8-4.2c0.3-6.9,0.2-12.2-0.3-16.9
					C74.5,36.1,73,31,70.6,25.7c-0.9-2-0.1-4.4,1.9-5.3c2-0.9,4.4-0.1,5.3,1.9c2.8,6,4.5,12.1,5.3,19.2c0.5,5.1,0.7,10.8,0.3,18.1
					C83.3,61.8,81.5,63.4,79.4,63.4z"/>
			</g>
		</g>
		<g>
			<g>
				<path class="st1" d="M142,57.9c-17,0-34-5.4-51-16.1c-6.5-4.1-13-9.1-19.5-14.7c-0.4-0.4-0.8-0.8-1-1.3c-0.5-1-0.9-1.9-1.4-2.7
					c-1-1.9-0.4-4.3,1.5-5.4l0.5-0.3C87.1,8,103.6-1.6,132.6,0.6c4.4,0.3,8.6,0.7,12.7,1c23.2,2,43.2,3.7,82.5-1.5
					c1.6-0.2,3.3,0.6,4,2.1c0.8,1.5,0.6,3.3-0.5,4.5c-21.4,24.8-43.3,40.8-65.2,47.5C158.2,56.7,150.1,57.9,142,57.9z M78.4,22.4
					C84,27.2,89.7,31.4,95.3,35c22.9,14.6,46,18.5,68.6,11.5c18-5.5,36.3-18,54.4-37.2c-33.5,3.7-53.1,2-73.7,0.3
					c-4.1-0.3-8.3-0.7-12.6-1C107.4,6.7,92.3,14.3,78.4,22.4z"/>
			</g>
		</g>
		<g>
			<g>
				<path class="st1" d="M61.2,214.8c-0.8,0-1.5-0.2-2.2-0.7c-19.8-13-30.7-36.6-32.7-54.2c-0.3-2.2,1.3-4.2,3.5-4.4
					c2.2-0.3,4.2,1.3,4.4,3.5c1.8,15.8,11.6,36.9,29.2,48.5c1.8,1.2,2.4,3.7,1.1,5.5C63.7,214.2,62.5,214.8,61.2,214.8z"/>
			</g>
		</g>
	</g>
	<g class="st15">
		<g>
			<path d="M220.5,145.3c0,51.2-35.5,94-83.1,105c-7.7,1.8-15.8,2.7-24.1,2.7c-1.8,0-3.6,0-5.3-0.1c-38.8-1.9-72.2-24.5-89.4-57.1
				c15.7,12.7,32.1,20.9,48.2,25.2l11.9-12l105.5-105.6l4-4c-4-15.4-11.3-31.5-22.5-48c15.7,8.9,29,21.6,38.6,37
				c10.1,16.3,16.1,35.6,16.2,56.2C220.5,144.8,220.5,145,220.5,145.3z"/>
		</g>
	</g>
	<g class="st15">
		<g>
			<path d="M220.5,144.5c-0.1-20.6-6.1-39.9-16.2-56.2C221.1,106.5,225.1,125.5,220.5,144.5z"/>
		</g>
	</g>
	<g>
		<g>
			<path class="st21" d="M221.8,222.9c-24.3,24.3-58,33.4-89.4,27.3c-18.7-3.7-36.7-12.8-51.2-27.3l17.6-17.6
				c14.6,14.6,33.6,21.9,52.7,21.9c15.5,0,31-4.8,44.1-14.4c0,0,0,0,0,0c3-2.2,5.9-4.7,8.6-7.4c14.6-14.6,21.8-33.7,21.8-52.8
				c0-13-3.3-25.9-10-37.5c-3.2-5.5-7.1-10.6-11.8-15.3l4.2-4.2l13.4-13.4C260.6,121,260.6,184,221.8,222.9z"/>
		</g>
	</g>
	<g>
		<g>
			<g>
				<path class="st11" d="M151.5,152.5l0,74.7c-19.1,0-38.2-7.3-52.7-21.9L151.5,152.5z"/>
			</g>
		</g>
		<g>
			<g>
				<path class="st11" d="M204.2,205.3c-2.7,2.7-5.6,5.2-8.6,7.4c0,0,0,0,0,0c-13.1,9.6-28.6,14.4-44.1,14.4l0-74.7l50.9,51
					L204.2,205.3z"/>
			</g>
		</g>
		<g>
			<g>
				<path class="st11" d="M226.1,152.5c0,19.1-7.3,38.2-21.8,52.8l-1.8-1.8l-50.9-51L226.1,152.5z"/>
			</g>
		</g>
		<g>
			<g>
				<path class="st11" d="M226.1,152.5l-74.6,0l52.7-52.8c4.7,4.7,8.6,9.9,11.8,15.3C222.7,126.6,226.1,139.5,226.1,152.5z"/>
			</g>
		</g>
	</g>
	<g>
		<g>
			<path class="st1" d="M151.5,256.1c-6.6,0-13.3-0.6-19.9-1.9c-20.2-3.9-38.6-13.8-53.2-28.4c-1.6-1.6-1.6-4.1,0-5.7l17.6-17.6
				c0.8-0.8,1.8-1.2,2.8-1.2c1.1,0,2.1,0.4,2.8,1.2c13.3,13.3,31,20.7,49.9,20.7c0,0,0.1,0,0.1,0c15.1,0,29.5-4.7,41.6-13.6
				c0,0,0.1,0,0.1-0.1l0,0c2.9-2.1,5.6-4.5,8.2-7c13.3-13.4,20.7-31.1,20.7-50c0-12.5-3.3-24.7-9.5-35.5
				c-3.1-5.3-6.8-10.2-11.2-14.5c-1.6-1.6-1.6-4.1,0-5.6L219,79.3c0.8-0.8,1.8-1.2,2.8-1.2l0,0c1.1,0,2.1,0.4,2.8,1.2
				c40.3,40.4,40.3,106.1,0,146.5l0,0C205,245.4,178.7,256.1,151.5,256.1z M86.9,222.8c13,12,28.9,20.1,46.2,23.4
				c31.3,6.1,63.3-3.7,85.8-26.2l0,0c36.3-36.3,37.2-94.8,2.8-132.3l-11.9,12c3.7,4.1,6.9,8.5,9.7,13.3c6.9,12,10.6,25.6,10.6,39.5
				c0,21-8.2,40.8-23,55.6c-2.8,2.8-5.8,5.4-9,7.8c0,0-0.1,0.1-0.1,0.1c-13.5,9.9-29.6,15.2-46.4,15.2c0,0-0.1,0-0.1,0
				c-19.6,0-38.2-7.2-52.6-20.3L86.9,222.8z"/>
		</g>
	</g>
	<g>
		<g>
			<g>
				<path class="st1" d="M151.5,231.2c-21,0-40.7-8.2-55.5-23c-1.6-1.6-1.6-4.1,0-5.7l52.7-52.8c1.1-1.1,2.9-1.5,4.4-0.9
					c1.5,0.6,2.5,2.1,2.5,3.7l0,74.7C155.5,229.4,153.7,231.2,151.5,231.2C151.5,231.2,151.5,231.2,151.5,231.2z M104.5,205.2
					c12,10.7,27,17,43,17.8l0-60.9L104.5,205.2z"/>
			</g>
		</g>
		<g>
			<g>
				<path class="st1" d="M151.6,231.2C151.5,231.2,151.5,231.2,151.6,231.2c-2.3,0-4.1-1.8-4.1-4l0-74.7c0-1.6,1-3.1,2.5-3.7
					c1.5-0.6,3.2-0.3,4.4,0.9l52.7,52.8c1.6,1.6,1.6,4.1,0,5.7c-2.8,2.8-5.8,5.4-9,7.8c0,0-0.1,0.1-0.1,0.1
					C184.4,225.9,168.4,231.2,151.6,231.2z M155.5,162.2l0,60.9c13.6-0.7,26.6-5.4,37.6-13.5c0,0,0.1,0,0.1-0.1l0,0
					c1.8-1.3,3.6-2.8,5.3-4.3L155.5,162.2z"/>
			</g>
		</g>
		<g>
			<g>
				<path class="st1" d="M204.2,209.3L204.2,209.3c-1.1,0-2.1-0.4-2.8-1.2l-52.7-52.8c-1.1-1.1-1.5-2.9-0.9-4.4
					c0.6-1.5,2.1-2.5,3.7-2.5l0,0l74.6,0c2.2,0,4,1.8,4,4c0,21-8.2,40.8-23,55.6C206.3,208.9,205.3,209.3,204.2,209.3z M161.2,156.5
					l43,43.1c10.7-12,16.9-27,17.8-43.1L161.2,156.5z"/>
			</g>
		</g>
		<g>
			<g>
				<path class="st1" d="M226.1,156.5L226.1,156.5l-74.6,0c-1.6,0-3.1-1-3.7-2.5c-0.6-1.5-0.3-3.2,0.9-4.4l52.7-52.8
					c0.8-0.8,1.8-1.2,2.8-1.2l0,0c1.1,0,2.1,0.4,2.8,1.2c4.8,4.8,9,10.3,12.4,16.2c6.9,12,10.6,25.6,10.6,39.5
					C230.1,154.7,228.3,156.5,226.1,156.5z M161.2,148.5l60.8,0c-0.6-11.1-3.8-21.9-9.4-31.5c-2.4-4.1-5.2-8-8.4-11.6L161.2,148.5z"
					/>
			</g>
		</g>
	</g>
</g>
</svg>
