<?xml version="1.0" encoding="utf-8"?>
<!-- Generator: Adobe Illustrator 22.1.0, SVG Export Plug-In . SVG Version: 6.00 Build 0)  -->
<svg version="1.1" id="Layer_1" xmlns="http://www.w3.org/2000/svg" xmlns:xlink="http://www.w3.org/1999/xlink" x="0px" y="0px"
	 viewBox="0 0 256 256" style="enable-background:new 0 0 256 256;" xml:space="preserve">
<style type="text/css">
	.st0{fill:#F5B31F;}
	.st1{fill:#464646;}
	.st2{opacity:0.15;}
	.st3{fill:#AC6535;}
	.st4{fill:#EB573B;}
	.st5{fill:#90C056;}
	.st6{opacity:0.35;}
	.st7{fill:#FFFFFF;}
	.st8{opacity:0.2;}
	.st9{fill:#F6D67A;}
	.st10{opacity:0.3;}
	.st11{fill:#FFA755;}
	.st12{fill:#8FAE3C;}
	.st13{fill:#BE6BB2;}
	.st14{fill:#B7C536;}
	.st15{opacity:0.1;}
	.st16{fill:#9D5A96;}
	.st17{fill:#EA615D;}
	.st18{opacity:0.4;}
	.st19{fill:#F79932;}
	.st20{fill:#FFEC97;}
	.st21{fill:#FFD11D;}
	.st22{fill:#F7F2D5;}
	.st23{fill:#F6AF72;}
	.st24{fill:#BA6C45;}
	.st25{opacity:0.5;}
	.st26{fill:#E4C074;}
	.st27{fill:#656566;}
	.st28{fill:#FACD1F;}
	.st29{fill:#FFDF66;}
	.st30{fill:#6D6E71;}
	.st31{fill:#E77CAE;}
	.st32{fill:#FFE5C4;}
	.st33{fill:#F68455;}
	.st34{opacity:0.7;}
	.st35{fill:#ADEDFF;}
	.st36{fill:#EC754B;}
	.st37{fill:#4AA5BA;}
	.st38{opacity:0.8;}
	.st39{fill:#92A5AC;}
	.st40{fill:#D06E3C;}
	.st41{fill:#DA4F4B;}
	.st42{fill:#BDF3FF;}
	.st43{fill:#F18BB4;}
	.st44{fill:#F9D97A;}
	.st45{fill:none;}
	.st46{fill:#AF6535;}
	.st47{fill:#B93226;}
	.st48{fill:#FF6050;}
	.st49{fill:#EA7CB1;}
	.st50{fill:#00B0E0;}
	.st51{fill:#EA7DAE;}
	.st52{fill:#BC7532;}
	.st53{fill:#876C6C;}
	.st54{fill:#F9F6CD;}
	.st55{fill:#FFE37B;}
	.st56{fill:#1DDCFF;}
	.st57{fill:#60ACF7;}
	.st58{fill:#C3755A;}
	.st59{fill:#96557A;}
	.st60{fill:#66625D;}
	.st61{fill:#D68032;}
	.st62{fill:#F2A355;}
	.st63{fill:#7E9E6A;}
	.st64{fill:#965A85;}
	.st65{fill:#90CAD3;}
	.st66{fill:#94B57F;}
	.st67{fill:#B2E2E7;}
	.st68{fill:#FFDF8F;}
	.st69{fill:#FFFAEB;}
	.st70{fill:#F88916;}
	.st71{fill:#FFC86E;}
	.st72{fill:#AFA51D;}
	.st73{fill:#968A1C;}
	.st74{fill:#C3556D;}
</style>
<g>
	<g>
		<g>
			<path class="st4" d="M128.3,230.4c-88,0-153.8-73.9-110.7-143.5c19.4-30.3,52.8-30.4,78.3-26.3c4.4,5.6,9.4,9.7,14.3,10.1
				C92,76.9,83.7,89.6,84,108c7.7-13.3,18.2-27.5,30.9-27.6c7.4,0.2,29.6,11.7,39.5,11.5c15.8,0.3,19.1,19.6,19.1,19.6
				c7.1-3.5,0-27.4-25.4-31c16.1,0.5,37.5-8.7,35.3-9.5c-2.4-0.9-23,2.1-34-1.2c6.5-1.5,14.6-6.3,20.9-11.1
				c23.6-2.7,51.2,0.3,68.3,26.9C281.5,155.3,216.2,230.4,128.3,230.4z"/>
		</g>
	</g>
	<g class="st15">
		<g>
			<path d="M86.2,60.3c0,0,7.6,7.3,5.7,8.4c-2.9,1.8-22.7,22.2-19,40.3c1,8.1,9.8,12.7,16.1,6.8c0,0,17.2-26.7,24-27
				c6.8-0.2,38.9,11.8,44.8,13.7c5.9,1.9,8,15.2,8,15.2c2.7,6.4,18.4,6.2,22-3.9c3.9-10.7-11-25.2-12.3-28.2
				c-1.3-2.9,18.6-5,17.5-16.1c-1.1-11.1-17.7-6.2-17.7-6.2l2.8-4l-6.5,0.1L159,67l23.7,3.7l-20.5,9.7l15.8,31.1
				c-6.7-14-22.5-21.1-42.6-24.8c-10.9-4.5-21.7-7.8-31.7-4.1L82,103.9c1.8-13.6,8.3-25.1,23-33L94.7,60.5L86.2,60.3z"/>
		</g>
	</g>
	<g class="st15">
		<g>
			<path d="M4,133.3c1,52.5,56,97.1,124.3,97.1c88,0,153.2-75.1,110.1-144.7c-17-26.6-44.7-29.6-68.3-26.9
				C237.8,88.3,237,160,193.7,189.1S59.7,225.8,4,133.3z"/>
		</g>
	</g>
	<g>
		<g>
			<path class="st12" d="M148,80.6c25.4,3.6,32.5,27.4,25.4,31c0,0-3.3-19.4-19.1-19.6c-9.9,0.1-32.1-11.3-39.5-11.5
				C102.1,80.6,91.7,94.7,84,108c-0.2-18.4,8.1-31.1,26.1-37.3c-4.9-0.4-9.8-4.5-14.3-10.1C85.1,47.2,77.2,25.2,78.9,25.2
				c2.4,0,10.7,26.5,44.8,35.1c1.3-11.1,10.3-27.1,14.9-27.1c4.5,0,9.9,5,9.6,7.7c-0.3,2.7-9.1,10.1-12.5,17.8
				c16.5,1.3,41.6-12.6,43.9-10.6c1.2,1-3.2,5.7-9.5,10.6c-6.3,4.8-14.4,9.6-20.9,11.1c11,3.3,31.6,0.3,34,1.2
				C185.5,72,164.1,81.1,148,80.6z"/>
		</g>
	</g>
	<g>
		<g>
			<path class="st1" d="M128.3,234.4C128.3,234.4,128.3,234.4,128.3,234.4c-50.5,0-96.5-24.1-117.3-61.4
				c-15.7-28.2-14.6-59.6,3.2-88.2c16.2-25.3,43.1-34.5,82.3-28.1c1,0.2,1.9,0.7,2.5,1.5c4.2,5.3,8.3,8.4,11.5,8.6
				c1.9,0.2,3.4,1.6,3.6,3.5c0.2,1.9-0.9,3.7-2.7,4.3c-9,3.1-15.4,7.9-19.2,14.6c6.2-7.1,13.8-12.7,22.6-12.7c0.1,0,0.1,0,0.2,0
				c4,0.1,10.4,2.5,17.8,5.3c7.4,2.8,16.7,6.3,21.4,6.3c0.1,0,0.1,0,0.2,0c0,0,0,0,0.1,0c1.9,0,3.7,0.3,5.4,0.8
				c-3.4-2-7.4-3.5-12.3-4.1c-2.1-0.3-3.6-2.2-3.4-4.3c0.2-2.1,2-3.7,4.1-3.7c3.9,0.1,8.1-0.4,12.2-1.2c-4.4-0.2-8.7-0.6-12.2-1.7
				c-1.7-0.5-2.9-2.2-2.8-4c0.1-1.8,1.3-3.4,3.1-3.8c5.1-1.2,12.3-5,19.3-10.4c0.6-0.4,1.3-0.7,2-0.8c33.2-3.8,57.5,5.8,72.1,28.7
				c18,29,19,60.8,3.1,89.4C224,210.3,178.3,234.4,128.3,234.4z M128.3,226.4C128.3,226.4,128.3,226.4,128.3,226.4
				c47.1,0,90.1-22.5,109.6-57.4c14.5-26,13.5-54.9-2.9-81.3c-12.8-20.1-33.6-28.3-63.3-25.1c-1.7,1.3-4.3,3.1-7.2,4.9
				c3.9,0,7.8-0.2,10.9-0.3c5.8-0.3,7.7-0.3,9.3,0.2c2,0.7,3.1,2.7,2.7,4.7c-0.3,1.4-0.8,4-14.9,8.5c-1.9,0.6-4.5,1.3-7.4,2
				c2.1,1.3,4,2.8,5.7,4.5c4.8,4.6,8.1,10.5,9,16.1c0.9,5.6-0.8,10.1-4.6,12c-1.1,0.6-2.5,0.6-3.6,0c-1.1-0.6-1.9-1.6-2.1-2.9
				c-0.1-0.6-3-16-15.1-16.3c0,0-0.1,0-0.1,0c-6.2,0-15.4-3.4-24.2-6.8c-5.8-2.2-12.4-4.7-15.1-4.8c-8.5,0.1-17.4,8.5-27.4,25.6
				c-0.9,1.6-2.7,2.3-4.5,1.9c-1.7-0.5-3-2-3-3.8c-0.2-17.3,6.6-29.9,20.3-37.4c-2.2-1.6-4.4-3.8-6.6-6.4C58.8,59,35,67.1,20.9,89
				C4.8,115.1,3.7,143.6,18,169.1C37.4,203.9,80.6,226.4,128.3,226.4z M182.3,75L182.3,75L182.3,75z"/>
		</g>
	</g>
	<g>
		<g>
			<path class="st1" d="M173.4,115.6c-0.6,0-1.2-0.1-1.8-0.4c-1.1-0.6-1.9-1.6-2.1-2.9c0,0-0.8-4.4-3.2-8.6c-2.9-5-6.9-7.6-11.9-7.7
				c0,0-0.1,0-0.1,0c-6.2,0-15.4-3.4-24.2-6.8c-5.8-2.2-12.4-4.7-15.1-4.8c-8.5,0.1-17.4,8.5-27.4,25.6c-0.9,1.6-2.7,2.3-4.5,1.9
				c-1.7-0.5-3-2-3-3.8c-0.2-17.3,6.6-29.9,20.3-37.4c-2.5-1.9-5-4.4-7.6-7.6c-6.2-7.8-10.9-17.6-13.2-22.7
				c-5.9-13.5-4.8-15.7-4.3-16.8c0.7-1.5,2.2-2.4,3.8-2.4c2.8,0,4,2,6.1,5.4c4.2,6.6,13.6,21.7,35.6,28.7c2.8-10.8,10.7-26,18-26
				c0,0,0,0,0,0c4.5,0,8.7,3,10.9,5.5c2,2.3,2.9,4.6,2.6,6.7c-0.3,2.4-2.1,4.5-5,7.9c-1.3,1.6-2.8,3.3-4.2,5.1
				c8.2-1.1,17.6-4.6,24.3-7.1c8.9-3.3,12.3-4.6,15-2.2c1,0.9,1.6,2.2,1.6,3.6c0,1.1-0.1,4.6-11.3,13.2c-1.7,1.3-4.6,3.4-8.1,5.5
				c3.9,0,7.8-0.2,10.9-0.3c5.8-0.3,7.7-0.3,9.3,0.2c2,0.7,3.1,2.7,2.7,4.7c-0.3,1.4-0.8,4-14.9,8.5c-1.9,0.6-4.5,1.3-7.4,2
				c2.1,1.3,4,2.8,5.7,4.5c4.8,4.6,8.1,10.5,9,16.1c0.9,5.6-0.8,10.1-4.6,12C174.6,115.5,174,115.6,173.4,115.6z M92.4,48.3
				c2,3.5,4.2,6.9,6.6,9.9c4.2,5.3,8.3,8.4,11.5,8.6c1.9,0.2,3.4,1.6,3.6,3.5c0.2,1.9-0.9,3.7-2.7,4.3c-9,3.1-15.4,7.9-19.2,14.6
				c6.2-7.1,13.8-12.7,22.6-12.7c0.1,0,0.1,0,0.2,0c4,0.1,10.4,2.5,17.8,5.3c7.4,2.8,16.7,6.3,21.4,6.3c0.1,0,0.1,0,0.2,0
				c0,0,0,0,0.1,0c1.9,0,3.7,0.3,5.4,0.8c-3.4-2-7.5-3.5-12.4-4.2c-2.1-0.3-3.6-2.2-3.4-4.3c0.2-2.1,2-3.7,4.1-3.7
				c3.9,0.1,8.1-0.4,12.2-1.2c-4.4-0.2-8.7-0.6-12.2-1.7c-1.7-0.5-2.9-2.2-2.8-4c0.1-1.8,1.3-3.4,3.1-3.8c5-1.1,12-4.9,18.8-10
				c-9.6,3.5-21.8,7.6-31.8,6.8c-1.3-0.1-2.4-0.8-3.1-1.9c-0.7-1.1-0.8-2.5-0.2-3.6c2.1-4.9,5.9-9.4,9-13c1-1.2,2.3-2.7,3-3.7
				c-0.8-1.2-3.2-3.1-5.1-3.3c-2.9,1.7-10.2,14.2-11.3,23.5c-0.1,1.1-0.8,2.2-1.7,2.8c-1,0.7-2.1,0.9-3.3,0.6
				C109.1,60.7,99.3,54.6,92.4,48.3z M144.3,41.1L144.3,41.1L144.3,41.1z M144.3,40L144.3,40L144.3,40z"/>
		</g>
	</g>
	<g>
		<g>
			<path class="st1" d="M62.1,199.5c-0.8,0-1.6-0.2-2.3-0.7c-32.1-22.9-43.6-49.1-38.4-87.7c0.3-2.2,2.3-3.7,4.5-3.4
				c2.2,0.3,3.7,2.3,3.4,4.5c-4.8,35.7,5.4,58.9,35.2,80.2c1.8,1.3,2.2,3.8,0.9,5.6C64.6,199,63.4,199.5,62.1,199.5z"/>
		</g>
	</g>
</g>
</svg>
