<?xml version="1.0" encoding="utf-8"?>
<!-- Generator: Adobe Illustrator 22.1.0, SVG Export Plug-In . SVG Version: 6.00 Build 0)  -->
<svg version="1.1" id="Layer_1" xmlns="http://www.w3.org/2000/svg" xmlns:xlink="http://www.w3.org/1999/xlink" x="0px" y="0px"
	 viewBox="0 0 256 256" style="enable-background:new 0 0 256 256;" xml:space="preserve">
<style type="text/css">
	.st0{fill:#F5B31F;}
	.st1{fill:#464646;}
	.st2{opacity:0.15;}
	.st3{fill:#AC6535;}
	.st4{fill:#EB573B;}
	.st5{fill:#90C056;}
	.st6{opacity:0.35;}
	.st7{fill:#FFFFFF;}
	.st8{opacity:0.2;}
	.st9{fill:#F6D67A;}
	.st10{opacity:0.3;}
	.st11{fill:#FFA755;}
	.st12{fill:#8FAE3C;}
	.st13{fill:#BE6BB2;}
	.st14{fill:#B7C536;}
	.st15{opacity:0.1;}
	.st16{fill:#9D5A96;}
	.st17{fill:#EA615D;}
	.st18{opacity:0.4;}
	.st19{fill:#F79932;}
	.st20{fill:#FFEC97;}
	.st21{fill:#FFD11D;}
	.st22{fill:#F7F2D5;}
	.st23{fill:#F6AF72;}
	.st24{fill:#BA6C45;}
	.st25{opacity:0.5;}
	.st26{fill:#E4C074;}
	.st27{fill:#656566;}
	.st28{fill:#FACD1F;}
	.st29{fill:#FFDF66;}
	.st30{fill:#6D6E71;}
	.st31{fill:#E77CAE;}
	.st32{fill:#FFE5C4;}
	.st33{fill:#F68455;}
	.st34{opacity:0.7;}
	.st35{fill:#ADEDFF;}
	.st36{fill:#EC754B;}
	.st37{fill:#4AA5BA;}
	.st38{opacity:0.8;}
	.st39{fill:#92A5AC;}
	.st40{fill:#D06E3C;}
	.st41{fill:#DA4F4B;}
	.st42{fill:#BDF3FF;}
	.st43{fill:#F18BB4;}
	.st44{fill:#F9D97A;}
	.st45{fill:none;}
	.st46{fill:#AF6535;}
	.st47{fill:#B93226;}
	.st48{fill:#FF6050;}
	.st49{fill:#EA7CB1;}
	.st50{fill:#00B0E0;}
	.st51{fill:#EA7DAE;}
	.st52{fill:#BC7532;}
	.st53{fill:#876C6C;}
	.st54{fill:#F9F6CD;}
	.st55{fill:#FFE37B;}
	.st56{fill:#1DDCFF;}
	.st57{fill:#60ACF7;}
	.st58{fill:#C3755A;}
	.st59{fill:#96557A;}
	.st60{fill:#66625D;}
	.st61{fill:#D68032;}
	.st62{fill:#F2A355;}
	.st63{fill:#7E9E6A;}
	.st64{fill:#965A85;}
	.st65{fill:#90CAD3;}
	.st66{fill:#94B57F;}
	.st67{fill:#B2E2E7;}
	.st68{fill:#FFDF8F;}
	.st69{fill:#FFFAEB;}
	.st70{fill:#F88916;}
	.st71{fill:#FFC86E;}
	.st72{fill:#AFA51D;}
	.st73{fill:#968A1C;}
	.st74{fill:#C3556D;}
</style>
<g>
	<g>
		<g>
			<path class="st0" d="M187.3,9.5L186.9,59l-0.3,29.2c-1,2.7-2.4,5.5-4.2,8.4c-0.7,1.2-1.5,2.3-2.4,3.5c-3.5,4.9-8.1,9.8-13.4,14.2
				c-0.6,0.5-1.1,0.9-1.7,1.4c-0.7,0.6-1.5,1.1-2.2,1.7l-1.6,0l0.4-42.4l0.2-19.4l0.2-15.8l0.3-30.6C162.2,2.1,187.4,2.4,187.3,9.5z
				"/>
		</g>
	</g>
	<g class="st6">
		<g>
			<path class="st7" d="M187.3,9.5c0.1-7.1-25.1-7.3-25.2-0.2l-0.3,30.6l-0.2,15.8L161.6,75l-0.4,42.4
				C163.3,65.9,164.2,11.7,187.3,9.5z"/>
		</g>
	</g>
	<g>
		<g>
			<path class="st1" d="M162.8,121.4C162.8,121.4,162.8,121.4,162.8,121.4l-1.7,0c-1.1,0-2.1-0.4-2.8-1.2c-0.7-0.8-1.2-1.8-1.1-2.8
				l1-108.2c0.1-5.6,6.4-9.2,16.3-9.2c0.1,0,0.2,0,0.4,0c10.1,0.1,16.6,3.8,16.5,9.5c0,0,0,0,0,0l-0.7,78.8c0,0.5-0.1,0.9-0.2,1.3
				c-1.1,2.9-2.6,6-4.5,9.1c-0.7,1.1-1.5,2.4-2.5,3.7c-3.9,5.4-8.7,10.6-14.1,15c-0.6,0.5-1.2,1-1.8,1.4c-0.7,0.6-1.5,1.2-2.4,1.8
				C164.4,121.2,163.6,121.4,162.8,121.4z M166.1,9.7l-0.9,100.7c4.4-3.8,8.4-8.1,11.6-12.6c0.9-1.2,1.6-2.3,2.2-3.3
				c1.5-2.4,2.7-4.8,3.6-7l0.7-77.6c-0.9-0.7-3.9-1.8-8.6-1.8C170.1,8,167,9,166.1,9.7z M187.3,9.5L187.3,9.5L187.3,9.5z"/>
		</g>
	</g>
	<g>
		<g>
			<path class="st0" d="M216.7,33.1l-7.8,47.1c-7.5,0-20.7,0-20.7,0c0,2.4-0.6,5.1-1.6,8c-1,2.7-2.4,5.5-4.2,8.4
				c-0.7,1.2-1.5,2.3-2.4,3.5l2.4-14.9l4.3-26.2l5-30C193,22,217.9,26.1,216.7,33.1z"/>
		</g>
	</g>
	<g class="st6">
		<g>
			<path class="st7" d="M216.7,33.1c1.2-7-23.7-11.1-24.9-4.1l-5,30l-4.3,26.2l-2.4,14.9C190.2,60.2,201.4,29.6,216.7,33.1z"/>
		</g>
	</g>
	<g>
		<g>
			<path class="st1" d="M180.1,104.2c-0.5,0-1-0.1-1.5-0.3c-1.7-0.7-2.7-2.5-2.4-4.3l11.7-71.2c0.9-5.6,8-8.2,17.9-6.5
				c3.7,0.6,7.2,1.8,9.7,3.2c5.3,3,5.5,6.8,5.2,8.7l-7.8,47.1c-0.3,1.9-2,3.3-3.9,3.3c0,0,0,0,0,0l-17.1,0c-0.3,1.7-0.8,3.5-1.5,5.4
				c-1.1,2.9-2.6,6-4.5,9.1c-0.7,1.1-1.5,2.4-2.5,3.7C182.6,103.6,181.4,104.2,180.1,104.2z M195.7,30.1l-7.6,46.2c0,0,0.1,0,0.1,0
				l0,0l17.3,0l7.1-43.4c-0.7-0.8-3.5-2.4-8.2-3.1C199.8,29,196.7,29.5,195.7,30.1z"/>
		</g>
	</g>
	<g>
		<g>
			<path class="st0" d="M167.4,44.4l-0.1,10.2l-0.5,59.8c-0.6,0.5-1.1,0.9-1.7,1.4c-0.7,0.6-1.5,1.1-2.2,1.7
				c-1.8,1.3-3.8,2.6-5.7,3.8c-4.9,2.9-10.1,5.2-15.6,6.7l0-3.2l0.5-48.9l0.3-31.7c0-2.3,2.7-3.9,6.3-4.6c4.1-0.9,9.4-0.8,13.4,0.3
				C165.1,40.7,167.4,42.3,167.4,44.4z"/>
		</g>
	</g>
	<g>
		<g>
			<path class="st1" d="M141.4,132c-0.9,0-1.7-0.3-2.4-0.8c-1-0.8-1.6-2-1.6-3.2l0.8-83.8c0-1.9,1-6.7,9.5-8.5
				c4.8-1,10.7-0.9,15.2,0.3c7.4,2,8.5,6.2,8.5,8.5l-0.6,70c0,1.2-0.5,2.3-1.5,3.1c-0.6,0.5-1.2,1-1.8,1.4c-0.7,0.6-1.5,1.2-2.4,1.8
				c-2,1.4-4,2.8-6,4c-5.4,3.2-11,5.6-16.6,7.1C142.2,131.9,141.8,132,141.4,132z M146.2,44.6l-0.7,77.8c3.2-1.2,6.4-2.8,9.5-4.6
				c1.8-1.1,3.7-2.3,5.4-3.6c0.8-0.6,1.5-1.1,2.1-1.6c0,0,0.1,0,0.1-0.1c0.1,0,0.1-0.1,0.2-0.1l0.6-67.6c-0.3-0.3-1.1-0.7-2.6-1.1
				c-3.3-0.9-7.9-1-11.5-0.2C147.5,43.8,146.6,44.4,146.2,44.6z M166.8,114.4L166.8,114.4L166.8,114.4z M163.4,44.4
				C163.4,44.4,163.4,44.4,163.4,44.4C163.4,44.4,163.4,44.4,163.4,44.4z M146.2,44.2L146.2,44.2C146.2,44.2,146.2,44.2,146.2,44.2z
				"/>
		</g>
	</g>
	<g>
		<g>
			<path class="st0" d="M148.7,16.7c0.1-7.1-25.1-7.3-25.2-0.2l-1,108.2l25.2,0.2L148.7,16.7z"/>
		</g>
	</g>
	<g class="st6">
		<g>
			<path class="st7" d="M148.7,16.7c0.1-7.1-25.1-7.3-25.2-0.2l-1,108.2C125.2,54.3,133.2,13.9,148.7,16.7z"/>
		</g>
	</g>
	<g>
		<g>
			<path class="st1" d="M147.7,128.8C147.7,128.8,147.7,128.8,147.7,128.8l-25.2-0.2c-2.2,0-4-1.8-4-4l1-108.2
				c0.1-5.6,6.4-9.2,16.3-9.2c0.1,0,0.2,0,0.4,0c10.1,0.1,16.6,3.8,16.5,9.5l-1,108.2c0,1.1-0.4,2.1-1.2,2.8
				C149.8,128.4,148.8,128.8,147.7,128.8z M126.6,120.6l17.2,0.2L144.7,17c-0.9-0.7-3.9-1.8-8.6-1.8c-4.7-0.1-7.7,1-8.6,1.7
				L126.6,120.6z M144.9,17.2L144.9,17.2L144.9,17.2z"/>
		</g>
	</g>
	<g class="st2">
		<g>
			<path class="st1" d="M143,36.9l0,90.7c-2.5,0.4-5.1,0.6-7.6,0.6c-6,0-12-1.2-17.6-3.2l0-88.1c0-3.3,6.5-4.9,12.9-4.9
				C137,32.2,143,33.8,143,36.9z"/>
		</g>
	</g>
	<g>
		<g>
			<path class="st0" d="M135.6,38.5l0,90.7c-2.5,0.4-5.1,0.6-7.6,0.6c-6,0-12-1.2-17.6-3.2l0-88.1c0-3.3,6.5-4.9,12.9-4.9
				C129.6,33.7,135.6,35.3,135.6,38.5z"/>
		</g>
	</g>
	<g class="st6">
		<g>
			<path class="st7" d="M135.6,38.5c0-3.2-6.1-4.8-12.3-4.9c-6.4-0.1-12.9,1.6-12.9,4.9l0,88.1C112,81.4,115.4,40.2,135.6,38.5z"/>
		</g>
	</g>
	<g>
		<g>
			<path class="st1" d="M128,133.8c-6.2,0-12.6-1.1-18.9-3.4c-1.6-0.6-2.7-2.1-2.7-3.8l0-88.1c0-1.8,0.7-3.4,2.1-4.8
				c3.8-3.8,11.7-4.1,14.9-4.1c10.2,0.1,16.2,3.4,16.2,8.9l0,0l0,90.7c0,2-1.4,3.6-3.4,3.9C133.5,133.6,130.8,133.8,128,133.8z
				 M114.4,123.8c5.8,1.7,11.5,2.4,17.2,1.9l0-86.5c-1-0.6-3.7-1.5-8.3-1.5c-4.7,0-7.8,0.9-8.9,1.5L114.4,123.8z M135.6,38.5
				L135.6,38.5L135.6,38.5z"/>
		</g>
	</g>
	<g>
		<g>
			<path class="st0" d="M110.4,22.2l0,104.5c-2.8-1-5.6-2.2-8.2-3.6c-6.3-3.3-12-7.5-17-12.2l0-88.6
				C85.3,15.1,110.4,15.1,110.4,22.2z"/>
		</g>
	</g>
	<g class="st6">
		<g>
			<path class="st7" d="M110.4,22.2c0-7.1-25.2-7.1-25.2,0l0,88.6C87,65.3,91.2,25.9,110.4,22.2z"/>
		</g>
	</g>
	<g>
		<g>
			<path class="st1" d="M110.4,130.7c-0.5,0-0.9-0.1-1.3-0.2c-3-1.1-5.9-2.4-8.8-3.9c-6.4-3.3-12.4-7.7-17.9-12.9
				c-0.8-0.8-1.2-1.8-1.2-2.9l0-88.6c0-5.7,6.5-9.3,16.6-9.3c0,0,0,0,0,0c10.1,0,16.6,3.7,16.6,9.3l0,0l0,104.5
				c0,1.3-0.6,2.5-1.7,3.3C112.1,130.4,111.3,130.7,110.4,130.7z M89.2,109.1c4.5,4.1,9.6,7.7,14.8,10.4c0.8,0.4,1.6,0.8,2.4,1.2
				l0-98.1c-0.9-0.7-3.9-1.8-8.6-1.8s-7.7,1.1-8.6,1.8L89.2,109.1z M110.4,22.2L110.4,22.2L110.4,22.2z"/>
		</g>
	</g>
	<g class="st2">
		<g>
			<path class="st1" d="M110.9,126.7c-6.3-3.3-12-7.5-17-12.2c-1.2-1.1-2.3-2.2-3.4-3.4c-3-3.2-5.7-6.6-7.8-10L78,57.3
				c-0.3-2.4,2.4-4.3,6.1-5.5c3-1,6.6-1.4,9.9-1.4c4.7,0.1,8.7,1.3,9,4.1L110.9,126.7z"/>
		</g>
	</g>
	<g>
		<g>
			<path class="st0" d="M102.2,123c-6.3-3.3-12-7.5-17-12.2c-1.2-1.1-2.3-2.2-3.4-3.4c-3-3.2-5.7-6.6-7.8-10l-4.8-43.8
				c-0.3-2.4,2.4-4.3,6.1-5.5c3-1,6.6-1.4,9.9-1.4c4.7,0.1,8.7,1.3,9,4.1L102.2,123z"/>
		</g>
	</g>
	<g class="st6">
		<g>
			<path class="st7" d="M94.3,50.9c-0.3-2.8-4.3-4-9-4.1c-3.3-0.1-6.9,0.4-9.9,1.4c-3.7,1.2-6.4,3.1-6.1,5.5l4.8,43.8
				C76.7,71.1,82.5,53.2,94.3,50.9z"/>
		</g>
	</g>
	<g>
		<g>
			<path class="st1" d="M102.2,127c-0.6,0-1.3-0.2-1.9-0.5c-6.4-3.3-12.4-7.7-17.9-12.9c-1.3-1.2-2.4-2.4-3.5-3.5
				c-3.1-3.3-5.9-6.9-8.3-10.5c-0.3-0.5-0.5-1.1-0.6-1.7l-4.8-43.8c-0.2-2,0.2-6.9,8.9-9.7c3.3-1.1,7.4-1.7,11.2-1.6
				C96.3,43,98,48.2,98.3,50.5l7.9,72.1c0.2,1.5-0.5,2.9-1.7,3.7C103.8,126.8,103,127,102.2,127z M77.9,96.1c2,3,4.3,5.9,6.9,8.6
				c1,1.1,2.1,2.1,3.2,3.2c2.9,2.8,6.1,5.3,9.4,7.5l-7-63.7c-0.5-0.3-2.1-0.9-5.2-1c-2.9-0.1-6.1,0.4-8.6,1.2c-2,0.6-3,1.3-3.3,1.7
				L77.9,96.1z M90.3,51.3C90.3,51.3,90.3,51.3,90.3,51.3L90.3,51.3z"/>
		</g>
	</g>
	<g class="st2">
		<g>
			<path class="st1" d="M94.4,143.3c-3-3.2-5.7-6.6-7.8-10c-0.5-0.8-0.9-1.5-1.4-2.3c-3.1-5.4-4.9-10.7-4.9-15c0,0-7.4,0-14.2,0
				l-5-45.8L59.3,54c-0.8-7.1,24.3-9.8,25.1-2.8L87.9,84L94.4,143.3z"/>
		</g>
	</g>
	<g>
		<g>
			<path class="st0" d="M81.9,107.4c-3-3.2-5.7-6.6-7.8-10c-0.5-0.8-0.9-1.5-1.4-2.3c-3.1-5.4-4.9-10.7-4.9-15c0,0-7.4,0-14.2,0
				l-5-45.8l-1.8-16.4C45.9,11,71,8.2,71.8,15.3l3.6,32.8L81.9,107.4z"/>
		</g>
	</g>
	<g class="st6">
		<g>
			<path class="st7" d="M71.8,15.3C71,8.2,45.9,11,46.7,18.1l1.8,16.4l5,45.8C51.5,42.4,53.1,16.4,71.8,15.3z"/>
		</g>
	</g>
	<g>
		<g>
			<path class="st1" d="M81.9,111.4c-1.1,0-2.1-0.4-2.9-1.3c-3.1-3.4-5.9-6.9-8.3-10.5c-0.4-0.7-0.9-1.4-1.5-2.4
				c-2.7-4.6-4.4-9-5.1-13l-10.6,0c-2,0-3.8-1.5-4-3.6l-6.8-62.2c-0.6-5.6,5.5-10,15.5-11.1c10-1.1,16.9,1.8,17.5,7.5L85.9,107
				c0.2,1.7-0.7,3.4-2.3,4.1C83,111.3,82.5,111.4,81.9,111.4z M57.1,76.2l10.6,0c2.2,0,4,1.8,4,4c0,3.5,1.6,8.1,4.4,13
				c0.1,0.1,0.1,0.2,0.2,0.3l-8.5-77.4c-0.9-0.6-4.1-1.3-8.7-0.8c-4.7,0.5-7.6,1.9-8.4,2.7L57.1,76.2z"/>
		</g>
	</g>
	<g class="st2">
		<g>
			<path class="st1" d="M80.7,94.4c-3.1-5.4-4.9-10.7-4.9-15c0,0-7.4,0-14.2,0l-10.1,0l-8.5-37.3c-0.9-3.9,6.7-7.5,13.6-8.5
				c5.3-0.8,10.2-0.1,10.9,2.9L80.7,94.4z"/>
		</g>
	</g>
	<g>
		<g>
			<path class="st0" d="M72.7,95.2c-3.1-5.4-4.9-10.7-4.9-15c0,0-7.4,0-14.2,0l-10.1,0L34.9,43c-0.9-3.9,6.7-7.5,13.6-8.5
				c5.3-0.8,10.2-0.1,10.9,2.9L72.7,95.2z"/>
		</g>
	</g>
	<g class="st6">
		<g>
			<path class="st7" d="M59.4,37.3c-0.7-3-5.6-3.6-10.9-2.9c-7,1-14.5,4.6-13.6,8.5l8.5,37.3C42.3,54.1,46.9,38.6,59.4,37.3z"/>
		</g>
	</g>
	<g>
		<g>
			<path class="st1" d="M72.7,99.2c-1.4,0-2.7-0.7-3.5-2c-2.6-4.6-4.4-9-5.1-13l-20.7,0c-1.9,0-3.5-1.3-3.9-3.1L31,43.9
				c-0.3-1.4-0.4-3.5,1.2-5.8c3-4.3,10.3-6.8,15.8-7.6c8.5-1.2,14.3,1,15.4,5.9l13.3,57.9c0.4,1.9-0.6,3.9-2.4,4.6
				C73.7,99.1,73.2,99.2,72.7,99.2z M46.6,76.2l17.6,0l-8.6-37.6c-0.7-0.3-2.9-0.7-6.5-0.2c-5.5,0.8-9.4,3-10.2,4.1L46.6,76.2z"/>
		</g>
	</g>
	<g>
		<g>
			<path class="st0" d="M182.8,59.9l-0.2,25.4l-0.1,11.4c-0.7,1.2-1.5,2.3-2.4,3.5c-3.5,4.9-8.1,9.8-13.4,14.2
				c-0.6,0.5-1.1,0.9-1.7,1.4c-0.7,0.6-1.5,1.1-2.2,1.7c-1.8,1.3-3.8,2.6-5.7,3.8l0.4-47.3l0.1-14.2c0-1.8,1.7-3.2,4.1-4
				c1.6-0.6,3.5-0.9,5.6-1.1C174.4,54,182.8,55.8,182.8,59.9z"/>
		</g>
	</g>
	<g class="st6">
		<g>
			<path class="st7" d="M182.8,59.9c0-4.1-8.4-5.9-15.5-5.4c-2,0.2-4,0.5-5.6,1.1c-2.5,0.9-4.1,2.2-4.1,4l-0.1,14.2l-0.4,47.3
				C160.5,87.1,167.7,62.8,182.8,59.9z"/>
		</g>
	</g>
	<g>
		<g>
			<path class="st1" d="M157,125.2c-0.7,0-1.4-0.2-2-0.5c-1.2-0.7-2-2.1-2-3.5l0.6-61.5c0-2,0.9-5.7,6.8-7.8
				c1.9-0.7,4.2-1.1,6.6-1.3c5.6-0.4,13.5,0.3,17.4,4c2,1.9,2.4,4,2.4,5.4l-0.3,36.7c0,0.7-0.2,1.4-0.6,2.1
				c-0.7,1.1-1.5,2.4-2.5,3.7c-3.9,5.4-8.7,10.6-14.1,15c-0.6,0.5-1.2,1-1.8,1.4c-0.7,0.6-1.5,1.2-2.4,1.8c-2,1.4-4,2.8-6,4
				C158.4,125,157.7,125.2,157,125.2z M161.6,60.2l-0.5,53.6c0.5-0.4,1-0.7,1.4-1.1c0,0,0.1,0,0.1-0.1c0.6-0.4,1.1-0.9,1.6-1.3
				c4.8-4,9.2-8.6,12.6-13.4c0.6-0.8,1.1-1.6,1.6-2.4l0.3-35.2c-1.1-0.9-5.5-2.2-11.2-1.7c-1.8,0.1-3.4,0.4-4.6,0.9
				C162.2,59.7,161.8,60,161.6,60.2z M182.5,96.7L182.5,96.7L182.5,96.7z M178.8,59.9C178.8,59.9,178.8,59.9,178.8,59.9L178.8,59.9
				L178.8,59.9z M161.6,59.7L161.6,59.7C161.6,59.7,161.6,59.7,161.6,59.7z"/>
		</g>
	</g>
	<g class="st2">
		<g>
			<path class="st1" d="M174,78.2l-0.3,36.7c-0.7,0.6-1.5,1.1-2.2,1.7c-1.8,1.3-3.8,2.6-5.7,3.8c-4.9,2.9-10.1,5.2-15.6,6.7
				c-0.6,0.2-1.1,0.3-1.7,0.5l0-3.6l0.4-46c0-1.2,0.7-2.1,1.8-2.9c1.5-1,3.7-1.7,6.3-2.1c3-0.4,6.3-0.4,9.3,0.1
				c1.5,0.2,2.9,0.6,4.1,1.1C172.5,75.1,174,76.5,174,78.2z"/>
		</g>
	</g>
	<g>
		<g>
			<path class="st0" d="M165.4,79l-0.3,36.7c-0.7,0.6-1.5,1.1-2.2,1.7c-1.8,1.3-3.8,2.6-5.7,3.8c-4.9,2.9-10.1,5.2-15.6,6.7
				c-0.6,0.2-1.1,0.3-1.7,0.5l0-3.6l0.4-46c0-1.2,0.7-2.1,1.8-2.9c1.5-1,3.7-1.7,6.3-2.1c3-0.4,6.3-0.4,9.3,0.1
				c1.5,0.2,2.9,0.6,4.1,1.1C163.9,75.9,165.4,77.3,165.4,79z"/>
		</g>
	</g>
	<g class="st6">
		<g>
			<path class="st7" d="M165.4,79c0-1.7-1.5-3.1-3.8-4c-1.2-0.5-2.6-0.8-4.1-1.1c-2.9-0.5-6.3-0.5-9.3-0.1c-2.6,0.4-4.8,1-6.3,2.1
				c-1.1,0.8-1.8,1.7-1.8,2.9l-0.4,46l0,3.6C142.4,97.5,150,78.7,165.4,79z"/>
		</g>
	</g>
	<g>
		<g>
			<path class="st1" d="M139.7,132.4c-0.9,0-1.8-0.3-2.5-0.9c-1-0.8-1.5-1.9-1.5-3.2l0-3.6l0.4-46c0-1.7,0.6-4.1,3.5-6.1
				c2-1.4,4.7-2.3,8-2.8c3.4-0.5,7.1-0.4,10.5,0.1c1.9,0.3,3.5,0.8,4.9,1.3c5.5,2.2,6.3,5.8,6.3,7.7c0,0,0,0,0,0l-0.3,36.7
				c0,1.2-0.6,2.3-1.5,3.1c-0.7,0.6-1.5,1.2-2.4,1.8c-2,1.4-4,2.8-6,4c-5.4,3.2-11,5.6-16.6,7.1c-0.6,0.2-1.2,0.3-1.8,0.5
				C140.3,132.4,140,132.4,139.7,132.4z M144.2,79.2l-0.4,43.8c3.8-1.3,7.6-3.1,11.2-5.3c1.8-1.1,3.7-2.3,5.4-3.6
				c0.2-0.2,0.4-0.3,0.6-0.4l0.3-34.4c-0.2-0.2-0.6-0.4-1.3-0.7c-0.9-0.4-2-0.6-3.3-0.8c-2.5-0.4-5.5-0.4-8.1-0.1
				C146.8,78.1,145.1,78.6,144.2,79.2C144.2,79.2,144.2,79.2,144.2,79.2z M165.4,79L165.4,79L165.4,79z"/>
		</g>
	</g>
	<g class="st2">
		<g>
			<path class="st1" d="M211.4,81.8c-0.4,3.1-12.3,149.2-13.3,153.4c-1,4.2-5.9,9.8-12.1,8.6c-6.1-1.2-36.1-11.2-58.5-11.2
				c-22.5,0-52.4,10-58.5,11.2c-6.1,1.2-11.1-4.4-12.1-8.6c-1-4.2-17.1-155.4-17.1-155.4s-1.2-7.6,2.1-7.6l11.2,0
				c6.9,0,14.2,0,14.2,0c0,4.3,1.8,9.5,4.9,15c0.4,0.8,0.9,1.5,1.4,2.3c2.1,3.3,4.8,6.7,7.8,10c1.1,1.2,2.2,2.3,3.4,3.4
				c4.9,4.7,10.7,8.9,17,12.2c2.6,1.4,5.4,2.6,8.2,3.6c5.6,2,11.5,3.2,17.6,3.2c2.6,0,5.1-0.2,7.6-0.6c1.4-0.2,2.7-0.5,4.1-0.8
				c0.6-0.1,1.1-0.3,1.7-0.5c5.5-1.5,10.7-3.8,15.6-6.7c2-1.2,3.9-2.4,5.7-3.8c0.8-0.5,1.5-1.1,2.2-1.7c0.6-0.5,1.2-0.9,1.7-1.4
				c5.3-4.4,9.8-9.3,13.4-14.2c0.8-1.2,1.6-2.3,2.4-3.5c1.8-2.9,3.2-5.7,4.2-8.4c1-2.9,1.6-5.6,1.6-8c0,0,13.2,0,20.7,0l4.7,0
				C216.4,72.1,211.8,78.7,211.4,81.8z"/>
		</g>
	</g>
	<g>
		<g>
			<path class="st4" d="M221.2,87.8c-0.4,3.1-21.6,151.3-22.6,155.5c-1,4.2-5.9,9.8-12.1,8.6c-6.1-1.2-36.1-11.2-58.5-11.2
				c-22.5,0-52.4,10-58.5,11.2c-6.1,1.2-11.1-4.4-12.1-8.6c-1-4.2-22.1-152.4-22.6-155.5c-0.5-3.1,4.3-7.5,7.5-7.5l11.2,0
				c6.9,0,14.2,0,14.2,0c0,4.3,1.8,9.5,4.9,15c0.4,0.8,0.9,1.5,1.4,2.3c2.1,3.3,4.8,6.7,7.8,10c1.1,1.2,2.2,2.3,3.4,3.4
				c4.9,4.7,10.7,8.9,17,12.2c2.6,1.4,5.4,2.6,8.2,3.6c5.6,2,11.5,3.2,17.6,3.2c2.6,0,5.1-0.2,7.6-0.6c1.4-0.2,2.7-0.5,4.1-0.8
				c0.6-0.1,1.1-0.3,1.7-0.5c5.5-1.5,10.7-3.8,15.6-6.7c2-1.2,3.9-2.4,5.7-3.8c0.8-0.5,1.5-1.1,2.2-1.7c0.6-0.5,1.2-0.9,1.7-1.4
				c5.3-4.4,9.8-9.3,13.4-14.2c0.8-1.2,1.6-2.3,2.4-3.5c1.8-2.9,3.2-5.7,4.2-8.4c1-2.9,1.6-5.6,1.6-8c0,0,13.2,0,20.7,0l4.7,0
				C216.9,80.3,221.6,84.7,221.2,87.8z"/>
		</g>
	</g>
	<g class="st2">
		<g>
			<path class="st1" d="M220.7,91c-4.5,31.2-21.8,150.5-22.2,152.3c-1,4.2-5.9,9.8-12.1,8.6c-6.1-1.2-36.1-11.2-58.5-11.2
				c0,0,32.6-4.5,54.8-22.7S220.7,91,220.7,91z"/>
		</g>
	</g>
	<g class="st2">
		<g>
			<path class="st7" d="M69.5,251.9c-6.1,1.2-11.1-4.4-12.1-8.6c-1-4.2-22.1-152.4-22.6-155.5c-0.5-3.1,4.3-7.5,7.5-7.5l11.2,0
				c6.9,0,4.2,0,4.2,0s-9.8,15,0,83.7s22.9,85,22.9,85L69.5,251.9z"/>
		</g>
	</g>
	<g>
		<g>
			<path class="st1" d="M188.2,256c-0.8,0-1.6-0.1-2.4-0.2c-1.5-0.3-4.1-1-7.7-2c-11.6-3.2-33.2-9.2-50.1-9.2c0,0,0,0,0,0
				c-16.9,0-38.5,6-50.1,9.2c-3.6,1-6.1,1.7-7.7,2c-8.7,1.6-15.4-5.9-16.7-11.7c-0.6-2.6-7.3-49-21.3-146c-0.8-5.8-1.3-9.3-1.4-9.8
				c-0.4-2.4,0.6-5,2.7-7.4c2-2.3,5.3-4.7,8.8-4.7c0,0,0,0,0,0l25.4,0c2.2,0,4,1.8,4,4c0,3.5,1.6,8.1,4.4,13
				c0.4,0.7,0.8,1.4,1.3,2.1c2.1,3.3,4.6,6.4,7.4,9.4c1,1.1,2.1,2.1,3.2,3.2c4.9,4.6,10.4,8.6,16.1,11.6c2.5,1.3,5.1,2.5,7.7,3.4
				c7.8,2.8,15.6,3.6,23.2,2.4c1.3-0.2,2.6-0.5,3.8-0.8c0.5-0.1,1-0.3,1.6-0.4c5-1.4,9.9-3.5,14.7-6.3c1.8-1.1,3.7-2.3,5.4-3.6
				c0.8-0.6,1.5-1.1,2.1-1.6c0,0,0.1,0,0.1-0.1c0.6-0.4,1.1-0.9,1.6-1.3c4.8-4,9.2-8.6,12.6-13.4c0.9-1.2,1.6-2.3,2.2-3.3
				c1.6-2.7,2.9-5.2,3.8-7.7c0.9-2.4,1.4-4.7,1.4-6.6c0-1.1,0.4-2.1,1.2-2.8s1.8-1.2,2.8-1.2l0,0l25.4,0c3.5,0,6.9,2.4,8.8,4.7
				c2.1,2.4,3,5,2.7,7.4c-0.3,2-21.7,151.3-22.7,155.8C201.2,249.4,195.6,256,188.2,256z M128,236.7C128,236.7,128,236.7,128,236.7
				c18,0,40.3,6.1,52.2,9.5c3.3,0.9,5.8,1.6,7,1.8c3.8,0.7,6.9-3.3,7.4-5.6c1-4.6,19.9-136.6,22.5-155c-0.3-1.1-2.5-3-3.6-3.1
				l-4.7,0l-17.1,0c-0.3,1.7-0.8,3.5-1.5,5.4c-1.1,2.9-2.6,6-4.5,9.1c-0.7,1.1-1.5,2.4-2.5,3.7c-3.9,5.4-8.7,10.6-14.1,15
				c-0.6,0.5-1.2,1-1.8,1.4c-0.7,0.6-1.5,1.2-2.4,1.8c-2,1.4-4,2.8-6,4c-5.4,3.2-11,5.6-16.6,7.1c-0.6,0.2-1.2,0.3-1.8,0.5
				c-1.4,0.3-2.9,0.6-4.4,0.9c-8.9,1.4-18.1,0.5-27.2-2.7c-3-1.1-5.9-2.4-8.7-3.9c-6.4-3.3-12.4-7.7-17.9-12.9
				c-1.3-1.2-2.4-2.4-3.5-3.5c-3.1-3.3-5.9-6.9-8.3-10.5c-0.4-0.7-0.9-1.4-1.5-2.4c-2.7-4.6-4.4-9-5.1-13l-21.8,0
				c-1,0.1-3.3,2.1-3.6,3.1c0.1,0.9,0.6,4.3,1.4,9.6c13.4,93.7,20.5,142.6,21.1,145.4c0.5,2.3,3.6,6.3,7.4,5.6
				c1.2-0.2,3.8-0.9,7-1.8C87.7,242.8,110,236.7,128,236.7z M217.2,87.5L217.2,87.5L217.2,87.5z M38.8,87.4L38.8,87.4L38.8,87.4z"/>
		</g>
	</g>
</g>
</svg>
