<?xml version="1.0" encoding="utf-8"?>
<!-- Generator: Adobe Illustrator 22.1.0, SVG Export Plug-In . SVG Version: 6.00 Build 0)  -->
<svg version="1.1" id="Layer_1" xmlns="http://www.w3.org/2000/svg" xmlns:xlink="http://www.w3.org/1999/xlink" x="0px" y="0px"
	 viewBox="0 0 256 256" style="enable-background:new 0 0 256 256;" xml:space="preserve">
<style type="text/css">
	.st0{fill:#F5B31F;}
	.st1{fill:#464646;}
	.st2{opacity:0.15;}
	.st3{fill:#AC6535;}
	.st4{fill:#EB573B;}
	.st5{fill:#90C056;}
	.st6{opacity:0.35;}
	.st7{fill:#FFFFFF;}
	.st8{opacity:0.2;}
	.st9{fill:#F6D67A;}
	.st10{opacity:0.3;}
	.st11{fill:#FFA755;}
	.st12{fill:#8FAE3C;}
	.st13{fill:#BE6BB2;}
	.st14{fill:#B7C536;}
	.st15{opacity:0.1;}
	.st16{fill:#9D5A96;}
	.st17{fill:#EA615D;}
	.st18{opacity:0.4;}
	.st19{fill:#F79932;}
	.st20{fill:#FFEC97;}
	.st21{fill:#FFD11D;}
	.st22{fill:#F7F2D5;}
	.st23{fill:#F6AF72;}
	.st24{fill:#BA6C45;}
	.st25{opacity:0.5;}
	.st26{fill:#E4C074;}
	.st27{fill:#656566;}
	.st28{fill:#FACD1F;}
	.st29{fill:#FFDF66;}
	.st30{fill:#6D6E71;}
	.st31{fill:#E77CAE;}
	.st32{fill:#FFE5C4;}
	.st33{fill:#F68455;}
	.st34{opacity:0.7;}
	.st35{fill:#ADEDFF;}
	.st36{fill:#EC754B;}
	.st37{fill:#4AA5BA;}
	.st38{opacity:0.8;}
	.st39{fill:#92A5AC;}
	.st40{fill:#D06E3C;}
	.st41{fill:#DA4F4B;}
	.st42{fill:#BDF3FF;}
	.st43{fill:#F18BB4;}
	.st44{fill:#F9D97A;}
	.st45{fill:none;}
	.st46{fill:#AF6535;}
	.st47{fill:#B93226;}
	.st48{fill:#FF6050;}
	.st49{fill:#EA7CB1;}
	.st50{fill:#00B0E0;}
	.st51{fill:#EA7DAE;}
	.st52{fill:#BC7532;}
	.st53{fill:#876C6C;}
	.st54{fill:#F9F6CD;}
	.st55{fill:#FFE37B;}
	.st56{fill:#1DDCFF;}
	.st57{fill:#60ACF7;}
	.st58{fill:#C3755A;}
	.st59{fill:#96557A;}
	.st60{fill:#66625D;}
	.st61{fill:#D68032;}
	.st62{fill:#F2A355;}
	.st63{fill:#7E9E6A;}
	.st64{fill:#965A85;}
	.st65{fill:#90CAD3;}
	.st66{fill:#94B57F;}
	.st67{fill:#B2E2E7;}
	.st68{fill:#FFDF8F;}
	.st69{fill:#FFFAEB;}
	.st70{fill:#F88916;}
	.st71{fill:#FFC86E;}
	.st72{fill:#AFA51D;}
	.st73{fill:#968A1C;}
	.st74{fill:#C3556D;}
</style>
<g>
	<g>
		<g>
			<path class="st7" d="M152.4,58.4l-48.8,0c5.1-8.2,10-17,11-31.1l26.8,0C142.4,41.4,147.3,50.2,152.4,58.4z"/>
		</g>
	</g>
	<g class="st15">
		<g>
			<path d="M142.5,58.4l9.9,0c-5.1-8.2-10.1-17-11-31.1l-8.4,0C134.2,38.5,137.3,48.9,142.5,58.4z"/>
		</g>
	</g>
	<g>
		<g>
			<path class="st53" d="M164.9,86.6l-73.7,0c1.6-12.1,7.2-19.8,12.5-28.2l48.8,0C157.7,66.8,163.2,74.5,164.9,86.6z"/>
		</g>
	</g>
	<g class="st15">
		<g>
			<path d="M151.1,86.6l13.7,0c-1.6-12.1-7.2-19.8-12.4-28.2l-9.9,0C147.4,67.9,151.3,77.3,151.1,86.6z"/>
		</g>
	</g>
	<g>
		<g>
			<path class="st57" d="M148.4,13.1c0,4.6,0,14.2,0,14.2l-40.8,0c0,0,0-9.6,0-14.2c0-4.5,4.1-9.1,8.4-9.1S128,4,128,4s7.8,0,12,0
				C144.3,4,148.4,8.5,148.4,13.1z"/>
		</g>
	</g>
	<g class="st10">
		<g>
			<path class="st7" d="M146.9,8.2c-1.6-2.4-4.2-4.2-6.8-4.2c-4.2,0-12,0-12,0s-7.8,0-12.1,0s-8.4,4.5-8.4,9.1c0,4.6,0,14.2,0,14.2
				s5.6-11.3,10.7-14.2C123.4,10.2,146.9,8.2,146.9,8.2z"/>
		</g>
	</g>
	<g>
		<g>
			<path class="st57" d="M165.3,92l0,65.5l-74.5,0l0-65.5c0-1.7,0.1-3.5,0.4-5.4l73.7,0C165.1,88.5,165.3,90.3,165.3,92z"/>
		</g>
	</g>
	<g class="st15">
		<g>
			<path d="M165.3,92l0,65.5l-13.9,0l0-65.5c0-1.7,0-3.5,0.1-5.4l13.8,0C165.2,88.5,165.3,90.3,165.3,92z"/>
		</g>
	</g>
	<g>
		<g>
			<path class="st53" d="M157,201.4c0,11.5,8.2,18,8.2,30.2c0,12.2-5.7,20.3-11,20.3c-5.3,0-26.3,0-26.3,0s-20.8,0-26.3,0
				c-5.5,0-11-8.1-11-20.3c0-12.2,8.2-18.7,8.2-30.2c0-11.5-8.2-35.7-8.2-44l74.5,0C165.2,165.8,157,189.9,157,201.4z"/>
		</g>
	</g>
	<g class="st15">
		<g>
			<path d="M153,252c5.3,0,12.2-8.1,12.2-20.3c0-12.2-8.2-18.7-8.2-30.2c0-11.5,8.2-35.7,8.2-44l-13.9,0c0,0-5.2,30.6-5.2,44.9
				c0,14.2,10,32.1,5.2,40.7S153,252,153,252"/>
		</g>
	</g>
	<g class="st10">
		<g>
			<path class="st7" d="M105.3,86.6l-13.7,0c1.6-12.1,7.2-19.8,12.4-28.2l9.9,0C109,67.9,105.1,77.3,105.3,86.6z"/>
		</g>
	</g>
	<g class="st10">
		<g>
			<path class="st7" d="M91.1,92l0,65.5l13.9,0l0-65.5c0-1.7,0-3.5-0.1-5.4l-13.8,0C91.2,88.5,91.1,90.3,91.1,92z"/>
		</g>
	</g>
	<g class="st10">
		<g>
			<path class="st7" d="M154.7,252c-5.5,0-26.3,0-26.3,0s-21,0-26.3,0c-5.3,0-11-8.1-11-20.3c0-12.2,8.2-18.7,8.2-30.2
				s-8.2-35.7-8.2-44l13.9,0c0,0,5.2,30.6,5.2,44.9c0,14.2-14,26.2-7.4,37.6C109.4,251.3,154.7,252,154.7,252z"/>
		</g>
	</g>
	<g>
		<g>
			<path class="st1" d="M148.4,31.3C148.4,31.3,148.4,31.3,148.4,31.3l-40.8,0c-2.2,0-4-1.8-4-4l0-14.2C103.6,6.2,109.5,0,116,0
				l24.1,0c3.1,0,6.3,1.5,8.7,4.1c2.3,2.5,3.6,5.8,3.6,8.9l-4,0l4,0l0,14.2c0,1.1-0.4,2.1-1.2,2.8C150.5,30.9,149.5,31.3,148.4,31.3
				z M111.6,23.3l32.8,0l0-10.2c0-1.2-0.6-2.5-1.5-3.5C142,8.6,140.9,8,140.1,8L116,8c-1.8,0-4.4,2.6-4.4,5.1L111.6,23.3z"/>
		</g>
	</g>
	<g>
		<g>
			<path class="st1" d="M152.4,62.4L152.4,62.4l-48.8,0c-1.5,0-2.8-0.8-3.5-2.1c-0.7-1.3-0.7-2.8,0.1-4.1c5-7.9,9.5-16.2,10.4-29.3
				c0.1-2.1,1.9-3.7,4-3.7l0,0l26.8,0c2.1,0,3.9,1.6,4,3.7c0.9,13.1,5.4,21.3,10.4,29.3c0.8,1.2,0.8,2.8,0.1,4.1
				C155.2,61.6,153.9,62.4,152.4,62.4z M110.6,54.4l34.8,0c-3.5-6.3-6.4-13.5-7.6-23.1l-19.6,0C117.1,40.9,114.1,48.1,110.6,54.4z"
				/>
		</g>
	</g>
	<g>
		<g>
			<path class="st1" d="M164.9,90.6L164.9,90.6l-73.7,0c-1.2,0-2.3-0.5-3-1.4s-1.1-2-1-3.2c1.6-11.8,6.7-19.8,11.6-27.5
				c0.5-0.8,1-1.5,1.5-2.3c0.7-1.2,2-1.9,3.4-1.9c0,0,0,0,0,0l48.8,0c1.4,0,2.7,0.7,3.4,1.9c0.5,0.8,1,1.5,1.5,2.3
				c4.9,7.7,10,15.7,11.6,27.5c0.2,1.1-0.2,2.3-1,3.2C167.1,90.1,166,90.6,164.9,90.6z M96,82.6l64.1,0c-1.9-7.7-5.6-13.6-9.5-19.7
				c-0.1-0.2-0.2-0.3-0.3-0.5l-44.4,0c-0.1,0.2-0.2,0.3-0.3,0.5C101.6,69,97.9,74.9,96,82.6z"/>
		</g>
	</g>
	<g>
		<g>
			<path class="st1" d="M165.2,161.5L165.2,161.5l-74.5,0c-1.1,0-2.1-0.4-2.8-1.2c-0.8-0.8-1.2-1.8-1.2-2.8l0-65.5
				c0-1.9,0.1-3.8,0.4-5.9c0.3-2,2-3.5,4-3.5c0,0,0,0,0,0l73.7,0c2,0,3.7,1.5,4,3.5c0.3,2.1,0.4,4.1,0.4,5.9c0,0,0,0,0,0l0,65.5
				C169.2,159.7,167.5,161.5,165.2,161.5z M94.8,153.5l66.5,0l0-61.5c0-0.5,0-0.9,0-1.4l-66.4,0c0,0.5,0,1,0,1.4L94.8,153.5z
				 M165.3,92L165.3,92L165.3,92z"/>
		</g>
	</g>
	<g>
		<g>
			<path class="st1" d="M154.3,256l-52.6,0c-8.5,0-15-10.5-15-24.3c0-7.1,2.4-12.5,4.5-17.2c2-4.4,3.7-8.2,3.7-13
				c0-5.8-2.4-15.6-4.5-24.3c-2-8.2-3.7-15.3-3.7-19.6c0-1.1,0.4-2.1,1.2-2.8c0.8-0.8,1.8-1.2,2.8-1.2l0,0l74.5,0c2.2,0,4,1.8,4,4
				c0,4.3-1.7,11.4-3.7,19.6c-2.1,8.7-4.5,18.6-4.5,24.3v0c0,4.8,1.7,8.6,3.7,13c2.1,4.8,4.5,10.1,4.5,17.2
				C169.2,245.3,162.7,256,154.3,256z M95.2,161.5c0.6,3.7,1.9,8.8,3.1,13.7c2.3,9.6,4.7,19.5,4.7,26.2c0,6.5-2.2,11.5-4.4,16.3
				c-2,4.4-3.8,8.6-3.8,13.9c0,10.7,4.5,16.3,7,16.3l52.6,0c2.4,0,7-5.8,7-16.3c0-5.4-1.9-9.5-3.8-13.9c-2.1-4.8-4.4-9.7-4.4-16.3v0
				c0,0,0,0,0,0c0-6.7,2.4-16.6,4.7-26.2c1.2-4.9,2.4-10,3.1-13.7L95.2,161.5z M157,201.4L157,201.4L157,201.4z"/>
		</g>
	</g>
</g>
</svg>
