<?xml version="1.0" encoding="utf-8"?>
<!-- Generator: Adobe Illustrator 22.1.0, SVG Export Plug-In . SVG Version: 6.00 Build 0)  -->
<svg version="1.1" id="Layer_1" xmlns="http://www.w3.org/2000/svg" xmlns:xlink="http://www.w3.org/1999/xlink" x="0px" y="0px"
	 viewBox="0 0 256 256" style="enable-background:new 0 0 256 256;" xml:space="preserve">
<style type="text/css">
	.st0{fill:#F5B31F;}
	.st1{fill:#464646;}
	.st2{opacity:0.15;}
	.st3{fill:#AC6535;}
	.st4{fill:#EB573B;}
	.st5{fill:#90C056;}
	.st6{opacity:0.35;}
	.st7{fill:#FFFFFF;}
	.st8{opacity:0.2;}
	.st9{fill:#F6D67A;}
	.st10{opacity:0.3;}
	.st11{fill:#FFA755;}
	.st12{fill:#8FAE3C;}
	.st13{fill:#BE6BB2;}
	.st14{fill:#B7C536;}
	.st15{opacity:0.1;}
	.st16{fill:#9D5A96;}
	.st17{fill:#EA615D;}
	.st18{opacity:0.4;}
	.st19{fill:#F79932;}
	.st20{fill:#FFEC97;}
	.st21{fill:#FFD11D;}
	.st22{fill:#F7F2D5;}
	.st23{fill:#F6AF72;}
	.st24{fill:#BA6C45;}
	.st25{opacity:0.5;}
	.st26{fill:#E4C074;}
	.st27{fill:#656566;}
	.st28{fill:#FACD1F;}
	.st29{fill:#FFDF66;}
	.st30{fill:#6D6E71;}
	.st31{fill:#E77CAE;}
	.st32{fill:#FFE5C4;}
	.st33{fill:#F68455;}
	.st34{opacity:0.7;}
	.st35{fill:#ADEDFF;}
	.st36{fill:#EC754B;}
	.st37{fill:#4AA5BA;}
	.st38{opacity:0.8;}
	.st39{fill:#92A5AC;}
	.st40{fill:#D06E3C;}
	.st41{fill:#DA4F4B;}
	.st42{fill:#BDF3FF;}
	.st43{fill:#F18BB4;}
	.st44{fill:#F9D97A;}
	.st45{fill:none;}
	.st46{fill:#AF6535;}
	.st47{fill:#B93226;}
	.st48{fill:#FF6050;}
	.st49{fill:#EA7CB1;}
	.st50{fill:#00B0E0;}
	.st51{fill:#EA7DAE;}
	.st52{fill:#BC7532;}
	.st53{fill:#876C6C;}
	.st54{fill:#F9F6CD;}
	.st55{fill:#FFE37B;}
	.st56{fill:#1DDCFF;}
	.st57{fill:#60ACF7;}
	.st58{fill:#C3755A;}
	.st59{fill:#96557A;}
	.st60{fill:#66625D;}
	.st61{fill:#D68032;}
	.st62{fill:#F2A355;}
	.st63{fill:#7E9E6A;}
	.st64{fill:#965A85;}
	.st65{fill:#90CAD3;}
	.st66{fill:#94B57F;}
	.st67{fill:#B2E2E7;}
	.st68{fill:#FFDF8F;}
	.st69{fill:#FFFAEB;}
	.st70{fill:#F88916;}
	.st71{fill:#FFC86E;}
	.st72{fill:#AFA51D;}
	.st73{fill:#968A1C;}
	.st74{fill:#C3556D;}
</style>
<g>
	<g>
		<g>
			<path class="st42" d="M74.7,252l102.5,0c0-6.4-3.9-12-9.9-12.3c-5.6-0.2-13.4,1.4-17.3-2.5c-3.9-3.9-3.1-14.2,0-18.5
				c3.1-4.3,34.3-40.1,35.8-74.8l-119.8,0c1.5,34.7,32.7,70.5,35.8,74.8c3.1,4.3,3.9,14.7,0,18.5c-3.9,3.9-11.7,2.3-17.3,2.5
				C78.5,240,74.7,245.7,74.7,252z"/>
		</g>
	</g>
	<g>
		<g>
			<rect x="58.8" y="124.3" class="st42" width="134.2" height="19.6"/>
		</g>
	</g>
	<g class="st2">
		<g>
			<rect x="171.2" y="124.3" class="st1" width="21.9" height="19.6"/>
		</g>
	</g>
	<g class="st2">
		<g>
			<path class="st1" d="M150,218.8c-3.1,4.3-3.9,14.7,0,18.5c3.9,3.9,11.7,2.3,17.3,2.5c6,0.2,9.9,5.9,9.9,12.3l-17,0
				c0,0-16.3-4.1-21-10.2c-4.6-6-2.5-19.7,0-27.1c2.3-6.6,24.6-34.6,30.4-61l-103.7,0l0-9.8l105,0v0c0,1,14.8,0,14.8,0
				c-0.1,3.3-0.5,6.5-1.2,9.8C178.7,185.1,152.8,214.8,150,218.8z"/>
		</g>
	</g>
	<g>
		<g>
			<path class="st43" d="M58.8,131.8l0-7.5l134.2,0l0,3.5c4.9-5.2,8-12.3,8-20c0-14.6-10.8-26.7-24.8-28.8c1.3-3.3,2-6.8,2-10.5
				c0-14.8-11-27-25.3-28.8c0.1-1,0.2-2,0.2-3c0-11.2-7-20.7-16.8-24.5c-0.1-0.1-0.3-0.1-0.5-0.2c-14.6-5.8-30.3-8.7-47.5-7.8
				c9.2,10.8,12,25.7,12.3,42.3c-14.5,0-26.2,11.8-26.2,26.3c0,7.3,3,13.9,7.7,18.6c-0.4,0-0.8,0-1.3,0c-14.5,0-26.2,11.8-26.2,26.3
				C54.7,122.9,56.2,127.7,58.8,131.8z"/>
		</g>
	</g>
	<g class="st8">
		<g>
			<path class="st7" d="M70.6,124.3l-11.8,0l0,7.5c-2.6-4.1-4.1-8.9-4.1-14.2c0-14.5,11.7-26.3,26.2-26.3c0.4,0,0.9,0,1.3,0
				c-4.8-4.8-7.7-11.4-7.7-18.6c0-14.5,11.8-26.3,26.2-26.3C100.4,29.9,97.6,15,88.4,4.2c0,0,28.2,30.8,22.8,45.6S91.3,61.2,88.4,68
				c-3,6.8,6.5,18.9,3.2,26.4c-3.2,7.4-19,9.7-22.3,16.8C66,118.3,70.6,124.3,70.6,124.3z"/>
		</g>
	</g>
	<g class="st2">
		<g>
			<path class="st1" d="M100.7,124.3l92.4,0l0,3.5c4.9-5.2,8-12.3,8-20c0-14.6-10.8-26.7-24.8-28.8c1.3-3.3,2-6.8,2-10.5
				c0-14.8-11-27-25.3-28.8c0.1-1,0.2-2,0.2-3c0-11.2-7-20.7-16.8-24.5c-0.1-0.1-0.3-0.1-0.5-0.2c-14.6-5.8-30.3-8.7-47.5-7.8
				c0,0,38.5,13.3,43.1,19.8c4.6,6.5,3.8,16.8,9.2,24.2s10.9,6.4,16.5,13.8s6.1,18,8.3,23.5c2.3,5.5,14.2,12.1,16.4,18.9
				C185.8,124.8,100.7,124.3,100.7,124.3z"/>
		</g>
	</g>
	<g>
		<g>
			<path class="st1" d="M177.2,256L177.2,256l-102.5,0c-2.2,0-4-1.8-4-4c0-9,5.9-15.9,13.7-16.3c1.5-0.1,3.2,0,4.8,0.1
				c3.8,0.1,8.2,0.3,9.8-1.4c2.1-2.1,1.8-10.2-0.4-13.4c-0.3-0.4-0.9-1.1-1.6-2.1c-22.2-28.1-34-53.3-34.9-74.9
				c0-1.1,0.4-2.2,1.1-2.9c0.8-0.8,1.8-1.2,2.9-1.2l0,0l119.8,0c1.1,0,2.1,0.4,2.9,1.2c0.8,0.8,1.2,1.8,1.1,2.9
				c-0.9,21.6-12.7,46.8-34.9,74.9c-0.8,1-1.4,1.7-1.6,2.1c-2.3,3.2-2.5,11.3-0.4,13.4c1.7,1.7,6,1.5,9.8,1.4
				c1.6-0.1,3.2-0.1,4.8-0.1c7.8,0.3,13.7,7.3,13.7,16.3c0,1.1-0.4,2.1-1.2,2.8S178.2,256,177.2,256z M79.4,248l93,0
				c-0.9-2.3-2.7-4.2-5.3-4.3c-1.2,0-2.6,0-4.2,0.1c-5.2,0.2-11.7,0.4-15.8-3.7c-5.6-5.6-4.2-18.3-0.4-23.7c0.4-0.5,1-1.3,1.9-2.4
				c19.7-24.9,30.8-47.1,32.9-66.1l-111.2,0c2.1,18.9,13.2,41.1,32.9,66.1c0.9,1.1,1.5,1.9,1.9,2.4c2,2.8,3.2,7.1,3.3,11.7
				c0.1,3-0.3,8.6-3.8,12c-4.1,4.1-10.6,3.9-15.8,3.7c-1.5-0.1-2.9-0.1-4.2-0.1C82.1,243.9,80.3,245.7,79.4,248z"/>
		</g>
	</g>
	<g>
		<g>
			<path class="st1" d="M193,148L193,148l-134.2,0c-2.2,0-4-1.8-4-4l0-19.6c0-1.1,0.4-2.1,1.2-2.8c0.8-0.8,1.8-1.2,2.8-1.2l0,0
				l134.2,0c2.2,0,4,1.8,4,4l0,19.6c0,1.1-0.4,2.1-1.2,2.8C195.1,147.5,194.1,148,193,148z M62.8,139.9l126.2,0l0-11.6l-126.2,0
				L62.8,139.9z"/>
		</g>
	</g>
	<g>
		<g>
			<g>
				<path class="st1" d="M146,197.4c-1.2,0-2.4-0.5-3.2-1.6c-1.3-1.8-1-4.3,0.8-5.6c8.7-6.6,12.8-14.9,12.6-25.5
					c0-2.2,1.7-4,3.9-4.1c0,0,0,0,0.1,0c2.2,0,4,1.7,4,3.9c0.2,13.1-5.1,23.9-15.8,32C147.7,197.1,146.9,197.4,146,197.4z"/>
			</g>
		</g>
		<g>
			<g>
				<path class="st1" d="M105.8,197.4c-0.8,0-1.7-0.3-2.4-0.8c-10.7-8.1-16-18.9-15.8-32c0-2.2,1.8-3.9,4-3.9c0,0,0,0,0.1,0
					c2.2,0,4,1.9,3.9,4.1c-0.2,10.6,3.9,18.9,12.6,25.5c1.8,1.3,2.1,3.8,0.8,5.6C108.2,196.9,107,197.4,105.8,197.4z"/>
			</g>
		</g>
		<g>
			<g>
				<path class="st1" d="M125.9,198.6L125.9,198.6c-2.2,0-4-1.8-4-4l0-30c0-2.2,1.8-4,4-4l0,0c2.2,0,4,1.8,4,4l0,30
					C129.9,196.9,128.1,198.6,125.9,198.6z"/>
			</g>
		</g>
	</g>
	<g>
		<g>
			<path class="st1" d="M58.8,135.8c-1.3,0-2.6-0.7-3.4-1.8c-3.1-4.9-4.8-10.5-4.8-16.3c0-8.1,3.1-15.7,8.9-21.4
				c4.2-4.2,9.4-7,15-8.2c-2.7-4.6-4.1-9.8-4.1-15.3c0-8.1,3.1-15.7,8.9-21.4c4.7-4.7,10.8-7.7,17.3-8.6c-0.7-16.3-4.3-27.8-11.2-36
				c-1-1.2-1.2-2.8-0.6-4.2c0.6-1.4,1.9-2.3,3.5-2.4c17-0.9,33.6,1.8,49.2,8.1c0.2,0.1,0.3,0.1,0.5,0.2c11.4,4.5,19.1,15.7,19.2,28
				c14.5,3.6,25.1,16.8,25.1,32.1c0,2.6-0.3,5.1-0.9,7.5c13.8,4.1,23.7,17,23.7,31.7c0,8.5-3.2,16.6-9.1,22.8
				c-1.1,1.2-2.9,1.6-4.4,1c-1.4-0.5-2.3-1.8-2.5-3.2l-126.3,0v3.5c0,1.8-1.2,3.3-2.9,3.8C59.6,135.8,59.2,135.8,58.8,135.8z
				 M58.8,120.3l134.2,0c0.2,0,0.4,0,0.6,0c2.2-3.8,3.4-8.1,3.4-12.6c0-12.4-9.2-23-21.4-24.8c-1.2-0.2-2.3-0.9-2.9-1.9
				s-0.7-2.3-0.3-3.5c1.1-2.9,1.7-6,1.7-9.1c0-12.6-9.4-23.2-21.8-24.9c-1.1-0.1-2-0.7-2.7-1.5c-0.6-0.8-0.9-1.9-0.8-3
				c0.1-0.8,0.2-1.6,0.2-2.5c0-9.1-5.7-17.5-14.2-20.8c-0.1,0-0.1,0-0.2-0.1l-0.3-0.1c-12.6-5-25.2-7.5-38.5-7.7
				c5.6,9.6,8.4,22,8.7,38.4c0,1.1-0.4,2.1-1.2,2.9c-0.8,0.8-1.8,1.2-2.8,1.2l0,0c0,0,0,0,0,0c-5.9,0-11.5,2.3-15.7,6.5
				c-4.2,4.2-6.5,9.8-6.5,15.8c0,6,2.3,11.6,6.6,15.8c1.2,1.2,1.5,3,0.8,4.5c-0.7,1.5-2.2,2.5-3.9,2.3c-0.3,0-0.7,0-1,0c0,0,0,0,0,0
				c-5.9,0-11.5,2.3-15.7,6.5c-4.2,4.2-6.5,9.8-6.5,15.8C58.7,118.6,58.7,119.4,58.8,120.3z"/>
		</g>
	</g>
</g>
</svg>
