<?xml version="1.0" encoding="utf-8"?>
<!-- Generator: Adobe Illustrator 22.1.0, SVG Export Plug-In . SVG Version: 6.00 Build 0)  -->
<svg version="1.1" id="Layer_1" xmlns="http://www.w3.org/2000/svg" xmlns:xlink="http://www.w3.org/1999/xlink" x="0px" y="0px"
	 viewBox="0 0 256 256" style="enable-background:new 0 0 256 256;" xml:space="preserve">
<style type="text/css">
	.st0{fill:#F5B31F;}
	.st1{fill:#464646;}
	.st2{opacity:0.15;}
	.st3{fill:#AC6535;}
	.st4{fill:#EB573B;}
	.st5{fill:#90C056;}
	.st6{opacity:0.35;}
	.st7{fill:#FFFFFF;}
	.st8{opacity:0.2;}
	.st9{fill:#F6D67A;}
	.st10{opacity:0.3;}
	.st11{fill:#FFA755;}
	.st12{fill:#8FAE3C;}
	.st13{fill:#BE6BB2;}
	.st14{fill:#B7C536;}
	.st15{opacity:0.1;}
	.st16{fill:#9D5A96;}
	.st17{fill:#EA615D;}
	.st18{opacity:0.4;}
	.st19{fill:#F79932;}
	.st20{fill:#FFEC97;}
	.st21{fill:#FFD11D;}
	.st22{fill:#F7F2D5;}
	.st23{fill:#F6AF72;}
	.st24{fill:#BA6C45;}
	.st25{opacity:0.5;}
	.st26{fill:#E4C074;}
	.st27{fill:#656566;}
	.st28{fill:#FACD1F;}
	.st29{fill:#FFDF66;}
	.st30{fill:#6D6E71;}
	.st31{fill:#E77CAE;}
	.st32{fill:#FFE5C4;}
	.st33{fill:#F68455;}
	.st34{opacity:0.7;}
	.st35{fill:#ADEDFF;}
	.st36{fill:#EC754B;}
	.st37{fill:#4AA5BA;}
	.st38{opacity:0.8;}
	.st39{fill:#92A5AC;}
	.st40{fill:#D06E3C;}
	.st41{fill:#DA4F4B;}
	.st42{fill:#BDF3FF;}
	.st43{fill:#F18BB4;}
	.st44{fill:#F9D97A;}
	.st45{fill:none;}
	.st46{fill:#AF6535;}
	.st47{fill:#B93226;}
	.st48{fill:#FF6050;}
	.st49{fill:#EA7CB1;}
	.st50{fill:#00B0E0;}
	.st51{fill:#EA7DAE;}
	.st52{fill:#BC7532;}
	.st53{fill:#876C6C;}
	.st54{fill:#F9F6CD;}
	.st55{fill:#FFE37B;}
	.st56{fill:#1DDCFF;}
	.st57{fill:#60ACF7;}
	.st58{fill:#C3755A;}
	.st59{fill:#96557A;}
	.st60{fill:#66625D;}
	.st61{fill:#D68032;}
	.st62{fill:#F2A355;}
	.st63{fill:#7E9E6A;}
	.st64{fill:#965A85;}
	.st65{fill:#90CAD3;}
	.st66{fill:#94B57F;}
	.st67{fill:#B2E2E7;}
	.st68{fill:#FFDF8F;}
	.st69{fill:#FFFAEB;}
	.st70{fill:#F88916;}
	.st71{fill:#FFC86E;}
	.st72{fill:#AFA51D;}
	.st73{fill:#968A1C;}
	.st74{fill:#C3556D;}
</style>
<g>
	<g>
		<g>
			<path class="st21" d="M172.2,252.1l-88.2,0c-61.2,0-68-82.5-61.5-138.8c0.5-4.4,1.1-8.6,1.7-12.6c1.1,0.1,2.2,0.2,3.4,0.2
				c13.5,0,22.7-14.6,36.7-14.6s17.8,14.6,31.3,14.6c13.5,0,19.6-14,32.2-14c12.6,0,18.9,14,30.9,14c12,0,18.5-13,29.7-13
				c11.1,0,24.5,13,38.3,13c1.7,0,3.4-0.2,5.1-0.5c0.6,4,1.2,8.2,1.7,12.5C240.2,169.2,233.5,252.1,172.2,252.1z"/>
		</g>
	</g>
	<g class="st25">
		<g>
			<path class="st7" d="M44.7,94.2c-5.4,3.4-10.8,6.6-17.1,6.6c-1.1,0-2.3-0.1-3.4-0.2c-0.6,4-1.2,8.3-1.7,12.6
				c-6.5,56.3,0.3,138.8,61.5,138.8l59.6,0c0,0-77.3-2.6-91-42.8S44.7,94.2,44.7,94.2z"/>
		</g>
	</g>
	<g>
		<g class="st2">
			<g>
				<path class="st1" d="M231.9,100.3c0,0.1,0,0.2,0,0.3h0c0.1,0.9,0.3,1.8,0.4,2.7c0.2,1,0.3,2.1,0.4,3.1c0.1,1,0.3,2.1,0.4,3.2
					c0.1,1.1,0.3,2.1,0.4,3.2c0,0.2,0,0.3,0.1,0.5c6.5,56.3-0.3,138.8-61.5,138.8l-59.6,0c0,0,77.3-2.6,91-42.8
					c9.8-28.7,9.7-75.2,8.8-99.4c-8.6-3.8-16.6-9.2-23.8-9.2c-11.2,0-17.6,13-29.7,13c-12.1,0-18.3-14.1-30.9-14.1
					c-12.6,0-18.7,14.1-32.2,14.1c-13.5,0-17.3-14.6-31.3-14.6c-14,0-23.2,14.6-36.7,14.6c-1.1,0-2.3-0.1-3.4-0.2
					c-0.6-0.1-1.2-0.2-1.7-0.3c0.5-4.4,1.1-8.6,1.7-12.6C16.3,99.7,9.7,95.3,7.1,88c2.7,0.9,15.3,4.6,23.9-2.9
					c2.6-2.3,4.9-5.6,6.3-10.2c0.1,0,0.2,0,0.3,0l180.7,0c1.6,2.2,3.5,5.5,6.2,8.4c4.5,4.8,11.4,8.6,23.7,4.5c0.2,0.3,0.3,0.6,0.5,1
					C245.7,94.6,239,98.9,231.9,100.3z"/>
			</g>
		</g>
	</g>
	<g>
		<g>
			<path class="st54" d="M248.7,88.8c-3,5.8-9.7,10.1-16.8,11.5c-1.7,0.3-3.4,0.5-5.1,0.5c-13.9,0-27.2-13-38.3-13
				c-11.2,0-17.6,13-29.7,13c-12.1,0-18.3-14-30.9-14c-12.6,0-18.7,14-32.2,14c-13.5,0-17.3-14.6-31.3-14.6s-23.2,14.6-36.7,14.6
				c-1.1,0-2.3-0.1-3.4-0.2C16.3,99.7,9.7,95.3,7.1,88c-1.3-3.7-1.6-8-0.5-13.1c0,0,14.7,5.7,24.4-2.7c0.5-0.4,1-0.9,1.5-1.5
				c2-2.2,3.6-5,4.8-8.8c0.1,0,0.2,0,0.3,0l180.7,0c1.6,2.2,3.5,5.5,6.2,8.4c0,0,0.1,0.1,0.1,0.1c4.5,4.8,11.4,8.5,23.6,4.5
				C251,79.9,250.8,84.7,248.7,88.8z"/>
		</g>
	</g>
	<g>
		<g>
			<path class="st21" d="M37.3,61.9C37.3,61.9,37.3,61.9,37.3,61.9"/>
		</g>
	</g>
	<g class="st2">
		<g>
			<path class="st1" d="M221.1,61.9l-2.8,0c1.6,2.2,3.5,5.5,6.2,8.4c0,0,0.1,0.1,0.1,0.1c-1.1,0.4-2.3,0.7-3.5,0.7l-186,0
				c-0.9,0-1.8-0.1-2.6-0.4c2-2.2,3.6-5,4.8-8.8c0.1,0,0.2,0,0.3,0l-2.5,0c-2.5,0-4.8-1-6.5-2.7c-0.6-0.6-1.1-1.2-1.5-1.9
				c1.6-2.8,4.6-4.6,7.9-4.6l186,0c2.5,0,4.8,1,6.5,2.7c0.6,0.6,1.1,1.2,1.5,1.9C227.5,60.1,224.5,61.9,221.1,61.9z"/>
		</g>
	</g>
	<g>
		<g>
			<path class="st9" d="M230.3,52.8c0,1.7-0.5,3.2-1.2,4.6c-1.6,2.7-4.5,4.6-7.9,4.6l-186,0c-2.5,0-4.8-1-6.5-2.7
				c-0.6-0.6-1.1-1.2-1.5-1.9c-0.8-1.4-1.2-2.9-1.2-4.6c0-5.1,4.1-9.2,9.2-9.2l186,0c2.5,0,4.8,1,6.5,2.7
				C229.3,47.9,230.3,50.2,230.3,52.8z"/>
		</g>
	</g>
	<g>
		<g>
			<path class="st54" d="M221.1,26.3c0,13.2,0,17.3,0,17.3l-186,0c0,0,0-4.1,0-17.3S44,4.1,57.2,4.1c13.2,0,70.9,0,70.9,0
				s57.7,0,70.9,0C212.2,4.1,221.1,13,221.1,26.3z"/>
		</g>
	</g>
	<g>
		<g>
			<path class="st1" d="M172.2,256.1C172.2,256.1,172.2,256.1,172.2,256.1l-88.2,0c-17.3,0-31.7-6.3-42.7-18.6
				c-11.6-13-19.2-32.5-22.7-58c-3.5-25.4-2-50.4-0.1-66.8c0.5-4.4,1.1-8.8,1.8-12.8c0.3-2.1,2.3-3.6,4.4-3.3
				c0.9,0.1,1.8,0.2,2.9,0.2c5.5,0,10.5-3.2,15.8-6.6c5.9-3.8,12.6-8,20.9-8c0,0,0,0,0,0c8.5,0,13.8,4.4,18.5,8.3
				c4,3.4,7.5,6.3,12.8,6.3c0,0,0,0,0,0c5.6,0,9.6-3,14.3-6.4c4.9-3.6,10.4-7.6,17.9-7.6c0,0,0,0,0,0c7.7,0,13.3,4.2,18.2,7.9
				c4.3,3.3,8.1,6.1,12.7,6.1h0c4.9,0,8.9-2.9,13.1-5.9c4.6-3.3,9.8-7,16.6-7c0,0,0,0,0,0c6.2,0,12.4,3.1,18.9,6.4
				c6.4,3.2,13.1,6.6,19.4,6.6c1.4,0,2.8-0.1,4.3-0.4c1.1-0.2,2.2,0,3.1,0.6s1.5,1.6,1.7,2.6c0.7,4,1.2,8.3,1.8,12.7
				c1.9,16.4,3.5,41.4,0,66.9c-3.5,25.6-11.1,45.1-22.7,58.2C203.9,249.9,189.5,256.1,172.2,256.1z M172.2,248.1
				C172.2,248.1,172.2,248.1,172.2,248.1c15,0,27.3-5.4,36.7-15.9c7.2-8.1,29.9-40.5,20.7-118.9c-0.3-2.9-0.7-5.7-1.1-8.5
				c-0.6,0-1.2,0.1-1.7,0.1c-8.3,0-16.1-4-23-7.4c-5.6-2.8-11-5.5-15.3-5.5h0c-4.2,0-7.8,2.6-11.9,5.5c-4.8,3.5-10.3,7.4-17.8,7.4
				c0,0,0,0,0,0c-7.3,0-12.7-4.1-17.5-7.7c-4.5-3.4-8.4-6.3-13.4-6.3h0c-4.9,0-8.7,2.8-13.2,6.1c-5.1,3.7-10.9,8-19,8c0,0,0,0,0,0
				c-8.1,0-13.3-4.3-17.9-8.1c-4.2-3.5-7.8-6.5-13.4-6.5c0,0,0,0,0,0c-5.9,0-11.1,3.3-16.6,6.8c-6,3.8-12.3,7.8-20.1,7.8
				c-0.4,2.9-0.8,5.9-1.2,8.9c-9,78.2,13.7,110.5,20.8,118.5c9.4,10.5,21.7,15.9,36.7,15.9L172.2,248.1z"/>
		</g>
	</g>
	<g>
		<g>
			<path class="st1" d="M226.8,104.8c-8.3,0-16.1-4-23-7.4c-5.6-2.8-11-5.5-15.3-5.5h0c-4.2,0-7.8,2.6-11.9,5.5
				c-4.8,3.5-10.3,7.4-17.8,7.4c0,0,0,0,0,0c-7.3,0-12.7-4.1-17.5-7.7c-4.5-3.4-8.4-6.3-13.4-6.3h0c-4.9,0-8.7,2.8-13.2,6.1
				c-5.1,3.7-10.9,8-19,8c0,0,0,0,0,0c-8.1,0-13.3-4.3-17.9-8.1c-4.2-3.5-7.8-6.5-13.4-6.5c0,0,0,0,0,0c-5.9,0-11.1,3.3-16.6,6.8
				c-6,3.8-12.3,7.8-20.1,7.8c-1.4,0-2.6-0.1-3.8-0.2c-9.8-1.2-17.5-6.9-20.5-15.3c-1.6-4.5-1.8-9.7-0.7-15.3c0.2-1.1,1-2.1,2-2.7
				c1-0.6,2.3-0.6,3.4-0.2c0.1,0,12.6,4.7,20.3-2c0.4-0.4,0.8-0.7,1.2-1.1c1.7-1.9,3.1-4.3,4-7.3c0.4-1.4,1.6-2.4,3-2.7
				c0.4-0.1,0.7-0.1,1.1-0.1l180.7,0c1.3,0,2.4,0.6,3.2,1.6c0.6,0.8,1.2,1.7,1.8,2.6c1.2,1.8,2.5,3.7,4.1,5.5c0,0,0.1,0.1,0.2,0.2
				c3.3,3.4,8.4,6.9,19.3,3.3c1.8-0.6,3.8,0.2,4.7,1.9c3.2,5.8,3.4,12.1,0.6,17.6l0,0c-3.4,6.7-10.9,11.9-19.6,13.6
				C230.6,104.6,228.7,104.8,226.8,104.8z M188.5,83.9C188.5,83.9,188.5,83.9,188.5,83.9c6.2,0,12.4,3.1,18.9,6.4
				c6.4,3.2,13.1,6.6,19.4,6.6c1.4,0,2.8-0.1,4.3-0.4c6.2-1.3,11.7-5,14-9.4c0,0,0,0,0,0c1.2-2.3,1.5-4.8,0.8-7.2
				c-9.9,2.4-17.9,0.2-24.2-6.5c0,0-0.1-0.1-0.1-0.1c-2-2.2-3.6-4.6-4.9-6.5c-0.1-0.2-0.3-0.4-0.4-0.6l-176.1,0
				c-1.2,2.9-2.8,5.4-4.7,7.5c-0.6,0.6-1.2,1.2-1.8,1.8c-7.7,6.7-17.8,6-23.7,4.8c-0.1,2.4,0.2,4.7,0.9,6.7c2,5.5,7,9.2,13.9,10
				c0.9,0.1,1.9,0.2,2.9,0.2h0c5.5,0,10.5-3.2,15.8-6.6c5.9-3.8,12.6-8,20.9-8c0,0,0,0,0,0c8.5,0,13.8,4.4,18.5,8.3
				c4,3.4,7.5,6.3,12.8,6.3c0,0,0,0,0,0c5.6,0,9.6-3,14.3-6.4c4.9-3.6,10.4-7.6,17.9-7.6c0,0,0,0,0,0c7.7,0,13.3,4.2,18.2,7.9
				c4.3,3.3,8.1,6.1,12.7,6.1h0c4.9,0,8.9-2.9,13.1-5.9C176.5,87.6,181.7,83.9,188.5,83.9z"/>
		</g>
	</g>
	<g>
		<g>
			<path class="st1" d="M37.3,66c-2.2,0-4-1.8-4-4c0-0.4,0.1-0.7,0.2-1.1c0.5-1.7,2-2.9,3.9-2.9c2.2,0,4,1.8,4,4
				c0,0.4-0.1,0.7-0.2,1.1C40.7,64.7,39.2,66,37.3,66z"/>
		</g>
	</g>
	<g>
		<g>
			<path class="st1" d="M221.1,65.9l-186,0c-3.5,0-6.8-1.4-9.3-3.9c-0.8-0.8-1.5-1.8-2.1-2.7c-1.1-2-1.8-4.3-1.8-6.6
				c0-7.3,5.9-13.2,13.2-13.2l186,0c3.5,0,6.8,1.4,9.3,3.9c2.5,2.5,3.9,5.8,3.9,9.3c0,2.3-0.6,4.6-1.8,6.6
				C230.1,63.4,225.8,65.9,221.1,65.9z M35.1,47.6c-2.9,0-5.2,2.3-5.2,5.2c0,0.9,0.2,1.8,0.7,2.6c0.2,0.4,0.5,0.7,0.8,1.1
				c1,1,2.3,1.5,3.7,1.5l186,0c1.8,0,3.5-1,4.5-2.6c0.5-0.8,0.7-1.7,0.7-2.6c0-1.4-0.5-2.7-1.5-3.7c-1-1-2.3-1.5-3.6-1.5L35.1,47.6z
				"/>
		</g>
	</g>
	<g>
		<g>
			<path class="st1" d="M221.1,47.6L221.1,47.6l-186,0c-2.2,0-4-1.8-4-4l0-17.3c0-7.6,2.5-14.1,7.3-18.9c4.8-4.8,11.3-7.3,18.9-7.3
				c0,0,0,0,0,0l141.8,0c15.4,0,26.1,10.8,26.1,26.2l0,17.3c0,1.1-0.4,2.1-1.2,2.8S222.2,47.6,221.1,47.6z M39.1,39.6l178,0l0-13.3
				c0-11-7.1-18.2-18.1-18.2l-141.8,0c0,0,0,0,0,0c-5.4,0-10,1.7-13.2,4.9c-3.2,3.2-4.9,7.8-4.9,13.2L39.1,39.6z"/>
		</g>
	</g>
</g>
</svg>
