<?xml version="1.0" encoding="utf-8"?>
<!-- Generator: Adobe Illustrator 22.1.0, SVG Export Plug-In . SVG Version: 6.00 Build 0)  -->
<svg version="1.1" id="Layer_1" xmlns="http://www.w3.org/2000/svg" xmlns:xlink="http://www.w3.org/1999/xlink" x="0px" y="0px"
	 viewBox="0 0 256 256" style="enable-background:new 0 0 256 256;" xml:space="preserve">
<style type="text/css">
	.st0{fill:#F5B31F;}
	.st1{fill:#464646;}
	.st2{opacity:0.15;}
	.st3{fill:#AC6535;}
	.st4{fill:#EB573B;}
	.st5{fill:#90C056;}
	.st6{opacity:0.35;}
	.st7{fill:#FFFFFF;}
	.st8{opacity:0.2;}
	.st9{fill:#F6D67A;}
	.st10{opacity:0.3;}
	.st11{fill:#FFA755;}
	.st12{fill:#8FAE3C;}
	.st13{fill:#BE6BB2;}
	.st14{fill:#B7C536;}
	.st15{opacity:0.1;}
	.st16{fill:#9D5A96;}
	.st17{fill:#EA615D;}
	.st18{opacity:0.4;}
	.st19{fill:#F79932;}
	.st20{fill:#FFEC97;}
	.st21{fill:#FFD11D;}
	.st22{fill:#F7F2D5;}
	.st23{fill:#F6AF72;}
	.st24{fill:#BA6C45;}
	.st25{opacity:0.5;}
	.st26{fill:#E4C074;}
	.st27{fill:#656566;}
	.st28{fill:#FACD1F;}
	.st29{fill:#FFDF66;}
	.st30{fill:#6D6E71;}
	.st31{fill:#E77CAE;}
	.st32{fill:#FFE5C4;}
	.st33{fill:#F68455;}
	.st34{opacity:0.7;}
	.st35{fill:#ADEDFF;}
	.st36{fill:#EC754B;}
	.st37{fill:#4AA5BA;}
	.st38{opacity:0.8;}
	.st39{fill:#92A5AC;}
	.st40{fill:#D06E3C;}
	.st41{fill:#DA4F4B;}
	.st42{fill:#BDF3FF;}
	.st43{fill:#F18BB4;}
	.st44{fill:#F9D97A;}
	.st45{fill:none;}
	.st46{fill:#AF6535;}
	.st47{fill:#B93226;}
	.st48{fill:#FF6050;}
	.st49{fill:#EA7CB1;}
	.st50{fill:#00B0E0;}
	.st51{fill:#EA7DAE;}
	.st52{fill:#BC7532;}
	.st53{fill:#876C6C;}
	.st54{fill:#F9F6CD;}
	.st55{fill:#FFE37B;}
	.st56{fill:#1DDCFF;}
	.st57{fill:#60ACF7;}
	.st58{fill:#C3755A;}
	.st59{fill:#96557A;}
	.st60{fill:#66625D;}
	.st61{fill:#D68032;}
	.st62{fill:#F2A355;}
	.st63{fill:#7E9E6A;}
	.st64{fill:#965A85;}
	.st65{fill:#90CAD3;}
	.st66{fill:#94B57F;}
	.st67{fill:#B2E2E7;}
	.st68{fill:#FFDF8F;}
	.st69{fill:#FFFAEB;}
	.st70{fill:#F88916;}
	.st71{fill:#FFC86E;}
	.st72{fill:#AFA51D;}
	.st73{fill:#968A1C;}
	.st74{fill:#C3556D;}
</style>
<g>
	<g>
		<g>
			<path class="st32" d="M232.2,113.7c1.3,0.6,4.1,4.2,7.1,8.9c6,9.3,13,23,12.3,26.4c-1,5.1-21.5,16.2-27.8,13.6
				c-3.3-1.3-7.5-8.9-10.6-16.4c-2.8-6.9-4.6-13.8-3.7-15.5C211.7,127.3,228.3,112,232.2,113.7z"/>
		</g>
	</g>
	<g class="st25">
		<g>
			<path class="st7" d="M239.4,122.6c-3-4.7-5.8-8.3-7.1-8.9c-4-1.7-20.6,13.7-22.6,17.1c-1,1.7,0.8,8.5,3.7,15.5
				c3.1,7.5,7.3,15,10.6,16.4c0,0-9.3-20.4-3.9-28.4C225.4,126.3,239.4,122.6,239.4,122.6z"/>
		</g>
	</g>
	<g>
		<g>
			<path class="st32" d="M106.8,7.9c8.3-2,20.6,8,20.6,8s0,0.3,0,0.8c-7.6,6-15,13.8-18.6,23.1c0,0-9.8-3.1-13.1-6.4
				S98.4,9.9,106.8,7.9z"/>
		</g>
	</g>
	<g class="st15">
		<g>
			<path d="M121.9,12.1c3.2,1.9,5.5,3.8,5.5,3.8s0,0.3,0,0.8c-7.6,6-15,13.8-18.6,23.1c0,0-3.5-1.1-7-2.7
				C107,26.8,113.4,18.1,121.9,12.1z"/>
		</g>
	</g>
	<g>
		<g>
			<path class="st32" d="M63.3,52c5.1,0,12.4,4.5,19.8,10.5C74.6,69.2,67.7,78.2,62.4,89c-6.1-4.1-13.1-9.4-14.9-12.6
				C44.1,70.6,55.8,52,63.3,52z"/>
		</g>
	</g>
	<g class="st15">
		<g>
			<path d="M77.1,57.9c2,1.4,4,2.9,6,4.6C74.6,69.2,67.7,78.2,62.4,89c-2.2-1.5-4.5-3.1-6.7-4.8C60.5,73.2,67.5,64.3,77.1,57.9z"/>
		</g>
	</g>
	<g>
		<g>
			<path class="st32" d="M14.8,98.8c5.3-0.8,15.3,3.4,25.4,8.9c-9.5,5.9-18.2,14.3-24.1,23.9c-4.4-1.8-9-4-10.9-5.9
				C1.2,121.7,7.6,100,14.8,98.8z"/>
		</g>
	</g>
	<g class="st15">
		<g>
			<path d="M31.2,103.1c2.9,1.3,6,2.9,9,4.5c-9.5,5.9-18.2,14.3-24.1,23.9c-2.9-1.2-5.9-2.6-8.2-3.9C14.6,117.2,22.3,109,31.2,103.1
				z"/>
		</g>
	</g>
	<g>
		<g>
			<path class="st32" d="M186.2,156.9c1.1,0.4,3.9,4.7,7.1,10.4c5.9,10.4,12.8,25.4,11.7,28.4c-1.7,4.6-20,13.1-26.8,11.8
				c-3.5-0.7-8.5-7.1-12.2-14c-3.5-6.4-5.8-13.1-4.8-15.7C163.3,172.3,183.2,155.9,186.2,156.9z"/>
		</g>
	</g>
	<g class="st25">
		<g>
			<path class="st7" d="M178.3,207.4c-3.5-0.7-8.5-7.1-12.2-14c-3.5-6.4-5.8-13.1-4.8-15.7c2-5.5,21.9-21.9,24.9-20.9
				c1.1,0.4,3.9,4.7,7.1,10.4c0,0-16.1,1.4-20.9,12.1S178.3,207.4,178.3,207.4z"/>
		</g>
	</g>
	<g>
		<g>
			<path class="st32" d="M138.6,202c1.8,0.7,5.2,5.2,8.8,11c6.4,10.2,13.2,24.3,11.8,28.1c-2.2,5.9-23.2,13.4-28.5,10.1
				c-2.3-1.5-5.7-6.5-8.7-12.1c-3.8-7.2-7-15.3-6.3-17.9C117,216.6,133.7,199.9,138.6,202z"/>
		</g>
	</g>
	<g class="st25">
		<g>
			<path class="st7" d="M147.4,212.9c-3.6-5.7-7-10.3-8.8-11c-4.9-2-21.6,14.7-22.9,19.2c-0.7,2.5,2.4,10.6,6.3,17.9
				c3,5.6,6.4,10.7,8.7,12.1c0,0-8.9-20.6-4.7-28.3C130.2,215.1,147.4,212.9,147.4,212.9z"/>
		</g>
	</g>
	<g>
		<g>
			<path class="st40" d="M127.4,16.7c11.2-8.8,23-13.5,24.6-12.7c8-2,85,49.2,99.5,99.6c1.7,1.1-4,9.6-12.2,19
				c-3-4.7-5.8-8.3-7.1-8.9c-4-1.7-20.6,13.7-22.6,17.1c-1,1.7,0.8,8.5,3.7,15.5c-2.8,1.7-5.4,2.8-7.6,3.1
				c-27.7-39.7-60.8-72.5-99.5-98.1c0.1-4,1-7.9,2.5-11.5C112.5,30.5,119.8,22.7,127.4,16.7z"/>
		</g>
		<g>
			<path class="st1" d="M205.5,149.9l-0.2-0.2C177.6,109.9,144.2,77,106,51.7l-0.2-0.2l0-0.3c0.1-3.9,1-7.9,2.5-11.7
				c4.1-10.3,12.5-18.3,18.8-23.3l0,0c10.4-8.1,22.4-13.5,25-12.9c4.7-0.8,26.3,12.1,47.6,30.3c16,13.6,44,40.8,52.3,69.6
				c0.2,0.1,0.3,0.4,0.3,0.7c0.4,2.8-6.5,11.9-12.6,18.9l-0.4,0.5l-0.4-0.6c-3.2-5-5.8-8.2-6.9-8.7c-3.6-1.5-20,13.6-22,16.9
				c-0.7,1.2,0.5,7.2,3.7,15l0.2,0.4l-0.4,0.2c-3,1.8-5.6,2.9-7.8,3.2L205.5,149.9z M106.8,51.1c38.1,25.2,71.5,58.1,99.2,97.8
				c1.8-0.3,4.1-1.2,6.7-2.8c-2.6-6.4-4.6-13.6-3.5-15.5c1.1-1.9,6-6.7,10.7-10.6c4.4-3.6,10.1-7.8,12.5-6.7c1.6,0.7,4.6,4.9,7,8.5
				c8.1-9.4,12.1-16,11.9-17.6c0-0.1,0-0.1-0.1-0.2l-0.2-0.1l-0.1-0.2c-8.2-28.6-36.1-55.6-52-69.2c-22.7-19.4-43.3-30.9-46.9-30
				l-0.2,0l-0.2-0.1c-1.2-0.6-12.7,3.7-24.1,12.7l0,0c-6.2,4.9-14.5,12.8-18.5,22.9C107.8,43.6,106.9,47.3,106.8,51.1z"/>
		</g>
	</g>
	<g class="st2">
		<g>
			<path class="st7" d="M127.4,16.7c-7.6,6-15,13.8-18.6,23.1c-1.5,3.6-2.3,7.5-2.5,11.5c6.7,4.4,13.1,9,19.5,13.8
				c0,0-8.9-11.7-8.9-19.4S127.4,16.7,127.4,16.7z"/>
		</g>
	</g>
	<g class="st15">
		<g>
			<path d="M239.4,122.6c8.2-9.4,13.9-17.9,12.2-19C237.1,53.2,160.1,2,152.1,4c-1.7-0.8-13.4,4-24.6,12.7
				C153.1-10.5,265.1,95.3,239.4,122.6z"/>
		</g>
	</g>
	<g class="st15">
		<g>
			<path d="M230.6,111c0,0,18.1-3,16.4,2s-8.8,7.8-8.8,7.8L230.6,111z"/>
		</g>
	</g>
	<g>
		<g>
			<path class="st40" d="M83.1,62.5c6.6-5.1,14.3-8.9,23.1-11.2c38.7,25.6,71.8,58.4,99.5,98.1c-3.3,5-7.4,11.4-12.4,17.9
				c-3.2-5.7-6.1-10.1-7.1-10.4c-3-1-22.9,15.4-24.9,20.9c-1,2.6,1.4,9.4,4.8,15.7c-2.9,1.9-6,3.5-9.3,4.9
				c-26.3-39-58.4-72.3-99.1-98.4c1.4-3.8,3-7.4,4.7-10.9C67.7,78.2,74.6,69.2,83.1,62.5z"/>
		</g>
	</g>
	<g class="st2">
		<g>
			<path class="st7" d="M83.1,62.5C74.6,69.2,67.7,78.2,62.4,89c-1.7,3.4-3.3,7.1-4.7,10.9c8,5.1,15.6,10.5,23,16.2
				c0,0-9.2-10.2-10.3-20.5C69.4,85.2,83.1,62.5,83.1,62.5z"/>
		</g>
	</g>
	<g class="st15">
		<g>
			<path d="M193.3,167.3c5-6.5,9.1-12.9,12.4-17.9c-27.7-39.7-60.8-72.5-99.5-98.1c-8.9,2.2-16.5,6-23.1,11.2
				C101,43.6,211.2,148.4,193.3,167.3z"/>
		</g>
	</g>
	<g class="st15">
		<g>
			<path d="M185.4,154.5c0,0,12.8-1.9,13.4,1.3s-6,10.4-6,10.4L185.4,154.5z"/>
		</g>
	</g>
	<g>
		<g>
			<path class="st40" d="M40.2,107.7c5.7-3.6,11.7-6.2,17.5-7.7c40.7,26.1,72.8,59.5,99.1,98.4c-2.8,4.9-5.9,9.8-9.5,14.6
				c-3.6-5.7-7-10.3-8.8-11c-4.9-2-21.6,14.7-22.9,19.2c-0.7,2.5,2.4,10.6,6.3,17.9c-5,3.8-10.4,7.4-16.3,10.7
				c-25.1-41.5-57-74.5-97-97.1c0.8-7.3,3.5-14.4,7.5-20.9C22,121.9,30.7,113.6,40.2,107.7z"/>
		</g>
	</g>
	<g class="st2">
		<g>
			<path class="st7" d="M40.2,107.7c-9.5,5.9-18.2,14.3-24.1,23.9c-4,6.5-6.7,13.6-7.5,20.9c7.4,4.2,14.6,8.7,21.4,13.6
				c0,0-9.6-9.6-10.2-20.6C19.3,134.6,40.2,107.7,40.2,107.7z"/>
		</g>
	</g>
	<g class="st15">
		<g>
			<path d="M147.4,212.9c3.6-4.8,6.7-9.7,9.5-14.6c-26.3-39-58.4-72.3-99.1-98.4c-5.8,1.5-11.8,4.2-17.5,7.7
				C51.6,96,158.8,201.3,147.4,212.9z"/>
		</g>
	</g>
	<g class="st15">
		<g>
			<path d="M138.5,199.1c0,0,10-1.8,12.8,1.2s-4.3,9.8-4.3,9.8L138.5,199.1z"/>
		</g>
	</g>
	<g>
		<g>
			<path class="st1" d="M105.6,253.6c-1.4,0-2.7-0.7-3.4-1.9c-25.4-42-57.5-74.2-95.5-95.7c-1.4-0.8-2.2-2.3-2-3.9
				c0.8-7.6,3.5-15.2,8-22.6c6-9.8,15-18.8,25.4-25.3h0c6.1-3.8,12.5-6.6,18.6-8.2c1.1-0.3,2.2-0.1,3.2,0.5
				c39.3,25.2,72.1,57.8,100.3,99.6c0.8,1.3,0.9,2.9,0.2,4.2c-3,5.3-6.3,10.3-9.7,15c-0.8,1.1-2.1,1.7-3.4,1.6
				c-1.3-0.1-2.5-0.8-3.2-1.9c-3.6-5.7-5.8-8.3-6.8-9.2c-4.1,1.1-16,12.4-17.6,16.2c0,1.7,2,7.7,5.9,15c0.9,1.7,0.5,3.9-1.1,5
				c-5.3,4.1-10.9,7.8-16.8,11C106.9,253.5,106.3,253.6,105.6,253.6z M12.9,150.4c37.2,21.6,68.8,53.1,94,93.8
				c3.4-2,6.7-4.2,9.8-6.5c-2.7-5.4-6.2-13.7-5-17.8c1.5-5.2,13.9-17.5,21-20.9c2.8-1.4,5.2-1.6,7.2-0.8c0.9,0.4,2.9,1.2,7.4,7.6
				c1.6-2.4,3.2-4.8,4.6-7.3c-26.8-39.3-58-70.2-95-94.3c-4.8,1.5-9.9,3.8-14.8,6.8c-9.4,5.8-17.5,13.9-22.8,22.6
				C16.1,139.2,13.9,144.8,12.9,150.4z M119.6,222"/>
		</g>
	</g>
	<g>
		<g>
			<path class="st1" d="M156.8,202.4c-1.3,0-2.6-0.6-3.3-1.8C126,159.7,94,127.9,55.6,103.3c-1.6-1-2.2-3-1.6-4.8
				c1.5-3.9,3.1-7.7,4.8-11.3c5.8-11.7,13.1-21.1,21.9-27.9c0,0,0,0,0,0c7.2-5.6,15.4-9.6,24.6-11.9c1.1-0.3,2.2-0.1,3.2,0.5
				c38.6,25.6,72.5,58.9,100.6,99.1c0.9,1.3,1,3.1,0.1,4.5l-1.2,1.8c-3.1,4.6-6.9,10.4-11.4,16.3c-0.8,1.1-2.1,1.7-3.5,1.6
				c-1.3-0.1-2.5-0.9-3.2-2c-2.3-4.1-3.9-6.6-4.9-7.9c-5.3,2.8-18.5,14.4-19.9,17.7c-0.1,1.1,0.8,5.6,4.6,12.5
				c1,1.9,0.4,4.2-1.4,5.3c-3.2,2-6.5,3.8-9.9,5.2C157.9,202.3,157.4,202.4,156.8,202.4z M62.6,98.3c37.2,24.4,68.6,55.5,95.6,95
				c0.9-0.4,1.7-0.9,2.6-1.4c-2.4-5-4.8-11.6-3.3-15.6c1.7-4.6,9.8-11.7,13.3-14.6c12.2-10.2,15.1-9.2,16.7-8.7c1,0.3,2.4,0.8,6.3,7
				c2.7-3.7,5-7.3,7.2-10.6C174.1,111.6,142,80,105.6,55.6c-7.4,2.1-14.1,5.5-20,10C77.8,71.7,71.2,80.2,66,90.8
				C64.8,93.2,63.7,95.7,62.6,98.3z"/>
		</g>
	</g>
	<g>
		<g>
			<path class="st1" d="M205.8,153.4c-1.3,0-2.5-0.6-3.3-1.7c-27.5-39.4-60.6-72-98.4-97c-1.2-0.8-1.8-2.1-1.8-3.5
				c0.1-4.3,1.1-8.7,2.8-12.9c4.4-11,13.2-19.5,19.9-24.7C131.4,8.5,145.1,0,151.7,0c0,0,0.1,0,0.1,0c8.7-0.7,34.2,17.5,50.1,31.1
				c37.2,31.8,49.3,57.6,53.2,70.6c0.3,0.5,0.5,1.1,0.6,1.8c0.2,1.3,0.8,5.4-13.4,21.7c-0.8,1-2.1,1.4-3.3,1.4
				c-1.3-0.1-2.4-0.8-3.1-1.8c-2.5-3.9-4.1-6-5-7c-1.3,0.6-4.3,2.3-9.3,6.5c-4.2,3.6-7.3,6.9-8.3,8.1c0,1.6,1.1,6.2,3.6,12.3
				c0.7,1.8,0.1,3.9-1.6,4.9c-3.5,2.1-6.5,3.3-9.1,3.6C206.1,153.4,205.9,153.4,205.8,153.4z M110.4,49.3c37.1,24.9,69.7,57,97,95.5
				c0.3-0.1,0.6-0.2,0.9-0.4c-2.9-7.8-3.6-13.1-2.1-15.7c1.5-2.6,7-7.9,11.5-11.6c9.9-8.2,13.6-8.3,16.1-7.2c0.8,0.3,2.3,1,5.9,6
				c4.8-5.9,7.2-9.8,7.9-11.4c-7.8-27-34.2-52.9-49.3-66c-22.6-19.6-42.1-30.2-45.7-30.6c-0.4,0.1-0.9,0.1-1.3,0
				c-2.2,0.4-11.7,4.2-21.5,11.9c0,0,0,0,0,0c-5.9,4.6-13.7,12.1-17.4,21.4C111.4,43.9,110.7,46.6,110.4,49.3z M127.4,16.7
				L127.4,16.7L127.4,16.7z M153,7.9C153,7.9,153,7.9,153,7.9C153,7.9,153,7.9,153,7.9z M150.4,7.6C150.4,7.6,150.4,7.6,150.4,7.6
				C150.4,7.6,150.4,7.6,150.4,7.6z"/>
		</g>
	</g>
	<g>
		<g>
			<path class="st1" d="M134.6,255.9c-2.3,0-4.4-0.4-6.1-1.4c-3.6-2.2-7.5-8.6-10.1-13.6c-2.5-4.6-8-15.9-6.6-20.9
				c1.5-5.2,13.9-17.5,21-20.9c2.8-1.4,5.2-1.6,7.2-0.8c0,0,0,0,0,0c1,0.4,3.8,1.6,10.7,12.6c2.5,4,14.8,24.3,12.1,31.5
				c-2.1,5.7-11.9,9.7-16,11.1C143.8,254.5,138.9,255.9,134.6,255.9z M119.6,222.1c0,1.7,2,7.7,5.9,15c3.5,6.6,6.3,10,7.3,10.6
				c0.9,0.4,5.4,0.4,11.9-1.9c6.4-2.3,10-5,10.7-6c0.1-2.6-4.1-13-11.4-24.7c-3.5-5.7-5.8-8.3-6.7-9.2c-1.4,0.4-4.8,2.5-9.5,6.9
				C122.9,217.2,120.1,221,119.6,222.1z M155.3,239.9L155.3,239.9L155.3,239.9z M137.6,205.8"/>
		</g>
	</g>
	<g>
		<g>
			<path class="st1" d="M179.9,211.6c-0.8,0-1.6-0.1-2.3-0.2c-6.3-1.2-12.5-11.6-14.9-16c-2.7-4.9-6.9-14-5.1-19
				c1.7-4.6,9.8-11.7,13.3-14.6c12.2-10.2,15.1-9.2,16.7-8.7c0,0,0,0,0,0c1.3,0.4,3.1,1,9.4,12.2c3.2,5.6,6.4,12.1,8.7,17.3
				c4.3,9.9,4,12.6,3.3,14.4c-1.6,4.5-9.2,8.4-13.6,10.4C192.2,208.8,185.3,211.6,179.9,211.6z M165.1,179.1
				c-0.1,1.1,0.8,5.6,4.6,12.5c4.2,7.8,8.2,11.6,9.4,11.9c5,1,19.7-6,22.1-9.1c-0.4-3.1-5.1-14.1-11.3-25.2
				c-2.3-4.1-3.9-6.6-4.9-7.9C179.6,164.1,166.5,175.7,165.1,179.1z M184,160.2L184,160.2L184,160.2z"/>
		</g>
	</g>
	<g>
		<g>
			<path class="st1" d="M226.2,167c-1.4,0-2.7-0.2-3.8-0.7c-5.1-2.1-9.8-11.2-12.8-18.5c-4-9.7-5.1-16.1-3.4-19
				c1.5-2.6,7-7.9,11.5-11.6c9.9-8.2,13.6-8.3,16.1-7.2c0,0,0,0,0,0c1,0.4,3.1,1.3,8.9,10.4c3.1,4.9,6.5,10.8,8.9,15.9
				c4.2,8.6,4.4,11.6,4,13.5c-0.9,4.6-7.4,9-12.8,11.9C239.5,163.4,232.1,167,226.2,167z M213.4,132.4c0,1.6,1.1,6.2,3.6,12.4
				c3.5,8.6,7.1,13.5,8.4,14.2c0.9,0.3,5-0.1,11.9-3.5c6.1-3,9.6-6.1,10.4-7.3c-0.4-3-5.5-13.7-11.7-23.5c-2.5-3.9-4.2-6-5.1-7
				C226.8,119.3,215.7,129.2,213.4,132.4z M247.8,148.5L247.8,148.5L247.8,148.5z M247.9,148L247.9,148L247.9,148z"/>
		</g>
	</g>
	<g>
		<g>
			<path class="st1" d="M108.8,43.8c-0.4,0-0.8-0.1-1.2-0.2c-1.8-0.6-10.9-3.6-14.7-7.4c-3.1-3.1-2.2-9.4-0.9-14.1
				c2.2-7.7,6.9-16.5,13.8-18.2l0,0c10-2.4,22.7,7.6,24.1,8.8c0.9,0.8,1.5,1.9,1.5,3.1v0.8c0,1.2-0.6,2.4-1.5,3.1
				c-5.9,4.6-13.7,12.1-17.4,21.4C111.8,42.8,110.4,43.8,108.8,43.8z M98.8,30.9c1.5,1.3,4.8,2.8,7.8,4c3.8-7.5,9.6-13.8,14.8-18.3
				c-4.4-2.8-10.1-5.6-13.7-4.7c0,0,0,0,0,0c-1.2,0.3-3.2,2-5.3,5.8C99.5,23,98.5,29,98.8,30.9z M98.9,31.1L98.9,31.1L98.9,31.1z
				 M106.8,7.9L106.8,7.9L106.8,7.9z"/>
		</g>
	</g>
	<g>
		<g>
			<path class="st1" d="M62.4,93c-0.8,0-1.6-0.2-2.2-0.7c-12.1-8.2-15-11.9-16.2-13.9c-3-5.2,0.6-12.9,3-17
				c3.8-6.5,10-13.4,16.3-13.4c0,0,0,0,0,0c5.6,0,12.9,3.7,22.4,11.4c0.9,0.8,1.5,1.9,1.5,3.1c0,1.2-0.6,2.4-1.5,3.1
				C77.8,71.7,71.2,80.2,66,90.8c-0.5,1-1.4,1.8-2.6,2.1C63.1,93,62.7,93,62.4,93z M63.3,56c-1.3,0-4.8,2.4-8.3,7.7
				c-3.7,5.6-4.5,9.9-4.1,10.9c0.2,0.4,1.9,2.8,10,8.6c4.5-8.1,9.8-15,15.8-20.5C68.7,56.7,64.8,56,63.3,56z"/>
		</g>
	</g>
	<g>
		<g>
			<path class="st1" d="M16.1,135.6c-0.5,0-1-0.1-1.5-0.3c-8.3-3.4-10.9-5.5-12.2-6.8c-4.4-4.4-1.8-14.3-0.4-18.4
				c1.4-4.2,5.3-14.2,12.3-15.3c0,0,0,0,0,0c3.6-0.6,10.3-0.2,27.9,9.3c1.3,0.7,2.1,2,2.1,3.4s-0.7,2.8-1.9,3.5
				c-9.4,5.8-17.5,13.9-22.8,22.6C18.7,134.9,17.4,135.6,16.1,135.6z M8.1,123c0.5,0.5,2.1,1.6,6.4,3.6c4.7-6.9,10.9-13.2,17.9-18.5
				c-11.2-5.4-15.5-5.6-17-5.4c-0.3,0.1-2.1,1.2-4.1,5.3C8.2,114.5,7.5,121.4,8.1,123z M8.2,123.1L8.2,123.1L8.2,123.1z M15.4,102.8
				L15.4,102.8L15.4,102.8z"/>
		</g>
	</g>
	<g>
		<g>
			<path class="st1" d="M79,136.8c-1,0-2-0.4-2.8-1.1c-7.7-7.3-14.9-12.6-22-16c-2-1-2.8-3.3-1.9-5.3c1-2,3.3-2.8,5.3-1.9
				c7.9,3.8,15.8,9.5,24.1,17.4c1.6,1.5,1.6,4.1,0.1,5.7C81.1,136.4,80,136.8,79,136.8z"/>
		</g>
	</g>
	<g>
		<g>
			<path class="st1" d="M183,147.6c-1.3,0-2.5-0.6-3.3-1.7c-10.5-15-23.5-29.6-38.7-43.3c-1.6-1.5-1.8-4-0.3-5.6
				c1.5-1.6,4-1.8,5.6-0.3c15.6,14.1,29.1,29.1,39.9,44.6c1.3,1.8,0.8,4.3-1,5.6C184.6,147.4,183.8,147.6,183,147.6z"/>
		</g>
	</g>
	<g>
		<g>
			<path class="st1" d="M233.3,102.8c-1.4,0-2.8-0.8-3.5-2.1c-11.3-20.6-27.6-40-48.4-57.8c-1.7-1.4-1.9-4-0.4-5.6
				c1.4-1.7,4-1.9,5.6-0.4c21.6,18.4,38.5,38.6,50.3,60c1.1,1.9,0.4,4.4-1.6,5.4C234.6,102.7,233.9,102.8,233.3,102.8z"/>
		</g>
	</g>
</g>
</svg>
