<?xml version="1.0" encoding="utf-8"?>
<!-- Generator: Adobe Illustrator 22.1.0, SVG Export Plug-In . SVG Version: 6.00 Build 0)  -->
<svg version="1.1" id="Layer_1" xmlns="http://www.w3.org/2000/svg" xmlns:xlink="http://www.w3.org/1999/xlink" x="0px" y="0px"
	 viewBox="0 0 256 256" style="enable-background:new 0 0 256 256;" xml:space="preserve">
<style type="text/css">
	.st0{fill:#F5B31F;}
	.st1{fill:#464646;}
	.st2{opacity:0.15;}
	.st3{fill:#AC6535;}
	.st4{fill:#EB573B;}
	.st5{fill:#90C056;}
	.st6{opacity:0.35;}
	.st7{fill:#FFFFFF;}
	.st8{opacity:0.2;}
	.st9{fill:#F6D67A;}
	.st10{opacity:0.3;}
	.st11{fill:#FFA755;}
	.st12{fill:#8FAE3C;}
	.st13{fill:#BE6BB2;}
	.st14{fill:#B7C536;}
	.st15{opacity:0.1;}
	.st16{fill:#9D5A96;}
	.st17{fill:#EA615D;}
	.st18{opacity:0.4;}
	.st19{fill:#F79932;}
	.st20{fill:#FFEC97;}
	.st21{fill:#FFD11D;}
	.st22{fill:#F7F2D5;}
	.st23{fill:#F6AF72;}
	.st24{fill:#BA6C45;}
	.st25{opacity:0.5;}
	.st26{fill:#E4C074;}
	.st27{fill:#656566;}
	.st28{fill:#FACD1F;}
	.st29{fill:#FFDF66;}
	.st30{fill:#6D6E71;}
	.st31{fill:#E77CAE;}
	.st32{fill:#FFE5C4;}
	.st33{fill:#F68455;}
	.st34{opacity:0.7;}
	.st35{fill:#ADEDFF;}
	.st36{fill:#EC754B;}
	.st37{fill:#4AA5BA;}
	.st38{opacity:0.8;}
	.st39{fill:#92A5AC;}
	.st40{fill:#D06E3C;}
	.st41{fill:#DA4F4B;}
	.st42{fill:#BDF3FF;}
	.st43{fill:#F18BB4;}
	.st44{fill:#F9D97A;}
	.st45{fill:none;}
	.st46{fill:#AF6535;}
	.st47{fill:#B93226;}
	.st48{fill:#FF6050;}
	.st49{fill:#EA7CB1;}
	.st50{fill:#00B0E0;}
	.st51{fill:#EA7DAE;}
	.st52{fill:#BC7532;}
	.st53{fill:#876C6C;}
	.st54{fill:#F9F6CD;}
	.st55{fill:#FFE37B;}
	.st56{fill:#1DDCFF;}
	.st57{fill:#60ACF7;}
	.st58{fill:#C3755A;}
	.st59{fill:#96557A;}
	.st60{fill:#66625D;}
	.st61{fill:#D68032;}
	.st62{fill:#F2A355;}
	.st63{fill:#7E9E6A;}
	.st64{fill:#965A85;}
	.st65{fill:#90CAD3;}
	.st66{fill:#94B57F;}
	.st67{fill:#B2E2E7;}
	.st68{fill:#FFDF8F;}
	.st69{fill:#FFFAEB;}
	.st70{fill:#F88916;}
	.st71{fill:#FFC86E;}
	.st72{fill:#AFA51D;}
	.st73{fill:#968A1C;}
	.st74{fill:#C3556D;}
</style>
<g>
	<g>
		<g>
			<g>
				<g>
					<path class="st21" d="M241.2,156.4c1-26.7-8.7-53.8-29-74.2l-17.6,17.6c14.6,14.6,21.9,33.7,21.8,52.8
						c0,19.1-7.3,38.2-21.8,52.8c-14.6,14.6-33.7,21.9-52.7,21.9c-19.1,0-38.2-7.3-52.7-21.9l-17.6,17.6
						c15.3,15.3,34.2,24.5,54,27.8c-30.5,4.9-55.8-4.1-68.8-17.1c0,0-26.1,12-37.2,0.8c-11.1-11.1,0.9-37.2,0.9-37.2
						c-23.6-23.6-26.8-95,27.5-149.4C102.1-6.6,173.5-3.3,197,20.3c0,0,26.1-12,37.2-0.8c11.1,11.1-0.8,37.2-0.8,37.2
						C250.6,73.9,260.8,112.8,241.2,156.4z"/>
				</g>
			</g>
		</g>
		<g>
			<g>
				<g>
					<path class="st28" d="M31.3,164.7c-5.9-20.4-4.1-40.7,5.5-61.1"/>
				</g>
			</g>
		</g>
	</g>
	<g>
		<g class="st15">
			<g>
				<g>
					<path d="M204.8,204.3c-61.4,61.5-125.7,51.1-149.3,27.5c3.9-0.2,8.3,2.9,9.7-0.8c1.3-3.7-9.5-5.5-9.6-11.5
						c-0.1-6.1,148-154.3,154.4-154.5s16.6,20.9,20.8,20.5s0.5-19.5,1.5-30.5C255.9,78.4,266.2,142.8,204.8,204.3z"/>
				</g>
			</g>
		</g>
	</g>
	<g>
		<g>
			<g>
				<g>
					<path class="st29" d="M141.8,152.5l0,74.7c-19.1,0-38.2-7.3-52.7-21.9L141.8,152.5z"/>
				</g>
			</g>
		</g>
		<g>
			<g>
				<g>
					<path class="st29" d="M194.6,205.3c-14.6,14.6-33.7,21.9-52.7,21.9l0-74.7L194.6,205.3z"/>
				</g>
			</g>
		</g>
		<g>
			<g>
				<g>
					<path class="st29" d="M216.4,152.5c0,19.1-7.3,38.2-21.8,52.8l-52.7-52.8L216.4,152.5z"/>
				</g>
			</g>
		</g>
		<g>
			<g>
				<g>
					<path class="st29" d="M216.4,152.5l-74.6,0l52.7-52.8C209.1,114.3,216.4,133.4,216.4,152.5z"/>
				</g>
			</g>
		</g>
	</g>
	<g>
		<g>
			<g>
				<path class="st20" d="M241.2,156.4c-0.9,24.2-10.6,48.1-29.1,66.6c-23.6,23.6-56.1,32.9-86.6,27.8c-19.8-3.3-38.8-12.5-54-27.8
					l17.6-17.6c14.6,14.6,33.6,21.9,52.7,21.9c19.1,0,38.2-7.3,52.7-21.9c14.6-14.6,21.9-33.7,21.8-52.8c0-19.1-7.3-38.2-21.8-52.8
					l17.6-17.6C232.5,102.6,242.2,129.6,241.2,156.4z"/>
			</g>
		</g>
	</g>
	<g>
		<g>
			<g>
				<g>
					<path class="st1" d="M108.6,256.1c-24,0-42.2-8.3-52.8-17.8c-7.3,2.9-28.4,9.8-39.2-1c-5.6-5.6-7.2-14.5-4.8-26.4
						c1.1-5.4,2.8-10.1,3.8-12.8C3.6,184.3-2,160,0.9,133.6C4.4,101.4,20.1,69.9,45,45C73.5,16.5,110.7,0.1,147,0.1c0,0,0,0,0,0
						c20.9,0,39.7,5.8,50.9,15.5c7.3-2.9,28.4-9.8,39.2,1c5.6,5.6,7.2,14.5,4.8,26.4c-1.1,5.3-2.7,10.1-3.8,12.8
						c17.2,19.2,26.4,58.4,6.7,102.2c-0.8,1.7-2.7,2.7-4.6,2.3c-1.9-0.4-3.2-2.1-3.1-4c1-25.2-8.1-49.9-25.1-68.4l-11.9,12
						c13.1,14.5,20.3,33.1,20.3,52.7c0,21-8.2,40.8-23,55.6c-14.8,14.9-34.6,23-55.5,23c0,0-0.1,0-0.1,0c-19.6,0-38.2-7.2-52.6-20.3
						l-11.9,12c13.7,12.6,30.5,20.9,49,23.9c1.9,0.3,3.4,2,3.3,4s-1.4,3.6-3.4,3.9C120,255.7,114.2,256.1,108.6,256.1z M56.7,229.6
						c1,0,2.1,0.4,2.8,1.2c10.7,10.7,26.3,15.5,41.2,16.8c-11.9-5.1-22.7-12.5-32.1-21.9c-1.6-1.6-1.6-4.1,0-5.7l17.6-17.6
						c0.8-0.8,1.8-1.2,2.8-1.2l0,0c1.1,0,2.1,0.4,2.8,1.2c13.3,13.3,31,20.7,49.9,20.7c0,0,0.1,0,0.1,0c18.8,0,36.5-7.3,49.9-20.7
						c13.3-13.4,20.7-31.1,20.7-50c0-18.9-7.3-36.6-20.7-50c-1.6-1.6-1.6-4.1,0-5.7l17.6-17.6c0.8-0.8,1.8-1.2,2.8-1.2l0,0
						c1.1,0,2.1,0.4,2.8,1.2c15.6,15.6,25.7,35.8,29.1,57.4c3.7-13.4,4.7-26.8,3.1-39.5c-2-15.4-8-29.1-16.5-37.6
						c-1.2-1.2-1.5-3-0.8-4.5c3-6.6,9.1-25.3,1.7-32.7c-7.5-7.5-26.2-1.3-32.7,1.7c-1.5,0.7-3.3,0.4-4.5-0.8c-9.4-9.4-27-15-47.2-15
						c0,0,0,0,0,0c-34.2,0-69.3,15.5-96.4,42.5C27,74.3,12.1,104.1,8.8,134.5c-2.7,24.9,2.9,48.4,14.3,59.9c1.2,1.2,1.5,3,0.8,4.5
						c-3,6.6-9.1,25.3-1.7,32.7c7.5,7.5,26.2,1.3,32.7-1.7C55.5,229.7,56.1,229.6,56.7,229.6z"/>
				</g>
			</g>
		</g>
		<g>
			<g>
				<g>
					<path class="st1" d="M31.3,168.7c-1.7,0-3.3-1.1-3.8-2.9c-6.1-21.2-4.2-42.7,5.7-63.9c0.9-2,3.3-2.9,5.3-1.9
						c2,0.9,2.9,3.3,1.9,5.3c-9.1,19.4-10.8,39-5.3,58.2c0.6,2.1-0.6,4.3-2.7,5C32,168.6,31.7,168.7,31.3,168.7z"/>
				</g>
			</g>
		</g>
	</g>
	<g>
		<g>
			<g>
				<path class="st1" d="M141.7,256.1c-5.6,0-11.2-0.5-16.9-1.4c-21.4-3.5-40.8-13.5-56.2-28.9c-1.6-1.6-1.6-4.1,0-5.7l17.6-17.6
					c0.8-0.8,1.8-1.2,2.8-1.2l0,0c1.1,0,2.1,0.4,2.8,1.2c13.3,13.3,31,20.7,49.9,20.7c0,0,0.1,0,0.1,0c18.8,0,36.5-7.3,49.9-20.7
					c13.3-13.4,20.7-31.1,20.7-50c0-18.9-7.3-36.6-20.7-50c-1.6-1.6-1.6-4.1,0-5.7l17.6-17.6c0.8-0.8,1.8-1.2,2.8-1.2l0,0
					c1.1,0,2.1,0.4,2.8,1.2c20.3,20.3,31.3,48.5,30.2,77.2c0,0,0,0,0,0c-1,26.1-11.7,50.7-30.2,69.2
					C195.4,245.3,168.9,256.1,141.7,256.1z M77.2,222.9c13.7,12.6,30.5,20.9,49,23.9c30.4,5,61.4-4.9,83.2-26.7
					c17.1-17.1,27-39.8,27.9-63.9c1-25.2-8.1-49.9-25.1-68.4l-11.9,12c13.1,14.5,20.3,33.1,20.3,52.7c0,21-8.2,40.8-23,55.6
					c-14.8,14.9-34.6,23-55.5,23c0,0-0.1,0-0.1,0c-19.6,0-38.2-7.2-52.6-20.3L77.2,222.9z M241.2,156.4L241.2,156.4L241.2,156.4z"/>
			</g>
		</g>
	</g>
	<g>
		<g>
			<g>
				<g>
					<path class="st1" d="M141.8,231.2c-21,0-40.7-8.2-55.5-23c-1.6-1.6-1.6-4.1,0-5.7l52.7-52.8c1.1-1.1,2.9-1.5,4.4-0.9
						c1.5,0.6,2.5,2.1,2.5,3.7l0,74.7C145.8,229.4,144,231.2,141.8,231.2C141.8,231.2,141.8,231.2,141.8,231.2z M94.8,205.3
						c12,10.7,27,17,43,17.8l0-60.9L94.8,205.3z"/>
				</g>
			</g>
		</g>
		<g>
			<g>
				<g>
					<path class="st1" d="M141.9,231.2C141.8,231.2,141.8,231.2,141.9,231.2c-2.3,0-4-1.8-4-4l0-74.7c0-1.6,1-3.1,2.5-3.7
						c1.5-0.6,3.2-0.3,4.4,0.9l52.7,52.8c1.6,1.6,1.6,4.1,0,5.7C182.5,223,162.8,231.2,141.9,231.2z M145.8,162.2l0,60.9
						c16-0.9,31-7.1,43-17.8L145.8,162.2z"/>
				</g>
			</g>
		</g>
		<g>
			<g>
				<g>
					<path class="st1" d="M194.6,209.3L194.6,209.3c-1.1,0-2.1-0.4-2.8-1.2L139,155.4c-1.1-1.1-1.5-2.9-0.9-4.4
						c0.6-1.5,2.1-2.5,3.7-2.5l0,0l74.6,0c2.2,0,4,1.8,4,4c0,21-8.2,40.8-23,55.6C196.6,208.9,195.6,209.3,194.6,209.3z
						 M151.5,156.5l43,43.1c10.7-12,16.9-27,17.8-43.1L151.5,156.5z"/>
				</g>
			</g>
		</g>
		<g>
			<g>
				<g>
					<path class="st1" d="M216.4,156.5L216.4,156.5l-74.6,0c-1.6,0-3.1-1-3.7-2.5s-0.3-3.2,0.9-4.4l52.7-52.8
						c0.8-0.8,1.8-1.2,2.8-1.2h0c1.1,0,2.1,0.4,2.8,1.2c14.8,14.9,23,34.6,23,55.6C220.4,154.8,218.6,156.5,216.4,156.5z
						 M151.5,148.5l60.8,0c-0.9-16-7.1-31.1-17.8-43.1L151.5,148.5z"/>
				</g>
			</g>
		</g>
	</g>
</g>
</svg>
