<?xml version="1.0" encoding="utf-8"?>
<!-- Generator: Adobe Illustrator 22.1.0, SVG Export Plug-In . SVG Version: 6.00 Build 0)  -->
<svg version="1.1" id="Layer_1" xmlns="http://www.w3.org/2000/svg" xmlns:xlink="http://www.w3.org/1999/xlink" x="0px" y="0px"
	 viewBox="0 0 256 256" style="enable-background:new 0 0 256 256;" xml:space="preserve">
<style type="text/css">
	.st0{fill:#F5B31F;}
	.st1{fill:#464646;}
	.st2{opacity:0.15;}
	.st3{fill:#AC6535;}
	.st4{fill:#EB573B;}
	.st5{fill:#90C056;}
	.st6{opacity:0.35;}
	.st7{fill:#FFFFFF;}
	.st8{opacity:0.2;}
	.st9{fill:#F6D67A;}
	.st10{opacity:0.3;}
	.st11{fill:#FFA755;}
	.st12{fill:#8FAE3C;}
	.st13{fill:#BE6BB2;}
	.st14{fill:#B7C536;}
	.st15{opacity:0.1;}
	.st16{fill:#9D5A96;}
	.st17{fill:#EA615D;}
	.st18{opacity:0.4;}
	.st19{fill:#F79932;}
	.st20{fill:#FFEC97;}
	.st21{fill:#FFD11D;}
	.st22{fill:#F7F2D5;}
	.st23{fill:#F6AF72;}
	.st24{fill:#BA6C45;}
	.st25{opacity:0.5;}
	.st26{fill:#E4C074;}
	.st27{fill:#656566;}
	.st28{fill:#FACD1F;}
	.st29{fill:#FFDF66;}
	.st30{fill:#6D6E71;}
	.st31{fill:#E77CAE;}
	.st32{fill:#FFE5C4;}
	.st33{fill:#F68455;}
	.st34{opacity:0.7;}
	.st35{fill:#ADEDFF;}
	.st36{fill:#EC754B;}
	.st37{fill:#4AA5BA;}
	.st38{opacity:0.8;}
	.st39{fill:#92A5AC;}
	.st40{fill:#D06E3C;}
	.st41{fill:#DA4F4B;}
	.st42{fill:#BDF3FF;}
	.st43{fill:#F18BB4;}
	.st44{fill:#F9D97A;}
	.st45{fill:none;}
	.st46{fill:#AF6535;}
	.st47{fill:#B93226;}
	.st48{fill:#FF6050;}
	.st49{fill:#EA7CB1;}
	.st50{fill:#00B0E0;}
	.st51{fill:#EA7DAE;}
	.st52{fill:#BC7532;}
	.st53{fill:#876C6C;}
	.st54{fill:#F9F6CD;}
	.st55{fill:#FFE37B;}
	.st56{fill:#1DDCFF;}
	.st57{fill:#60ACF7;}
	.st58{fill:#C3755A;}
	.st59{fill:#96557A;}
	.st60{fill:#66625D;}
	.st61{fill:#D68032;}
	.st62{fill:#F2A355;}
	.st63{fill:#7E9E6A;}
	.st64{fill:#965A85;}
	.st65{fill:#90CAD3;}
	.st66{fill:#94B57F;}
	.st67{fill:#B2E2E7;}
	.st68{fill:#FFDF8F;}
	.st69{fill:#FFFAEB;}
	.st70{fill:#F88916;}
	.st71{fill:#FFC86E;}
	.st72{fill:#AFA51D;}
	.st73{fill:#968A1C;}
	.st74{fill:#C3556D;}
</style>
<g>
	<g>
		<g>
			<g>
				<path class="st54" d="M54.3,209.9l18,0l0,17.3l-21.3,0c-38.2,0-38.2-154.6,0-154.6l21.3,0l0,16.6l-18,0
					C37.2,89.1,37.2,209.9,54.3,209.9z"/>
			</g>
		</g>
	</g>
	<g>
		<g>
			<g>
				<path class="st21" d="M195.9,78.2c-0.6-1.7-1-3.6-1-5.6c0-0.3,0-0.7,0-1c-2.7,3.2-6.7,5.2-11.2,5.2c-5.5,0-10.3-3-12.8-7.5
					c-0.4,0.1-0.8,0.1-1.2,0.1c-2.2,0-4.2-1-5.5-2.7c-1.7,1.3-3.8,2.1-6.1,2.1c-5.4,0-9.8-4.4-9.8-9.8c0-0.7,0.1-1.3,0.2-2
					c-4.1-0.6-7.4-3.8-8.2-7.8l-0.5,0c-2.4,0.8-4.9,1.3-7.6,1.3c-2.7,0-5.2-0.5-7.6-1.3l-43.6,0c-3.6,0-5.7,1-6.9,2.5
					c0.3,0.9,0.4,1.8,0.4,2.8s-0.1,1.9-0.4,2.8c-0.4,1.2-0.9,2.3-1.7,3.2l0,177c0,9.3,4.5,14.5,14.5,14.5c10,0,54.2,0,54.2,0
					s8.5,0,18.9,0l35.3,0c5.6,0,9.5-1.6,11.8-4.8c0.5-0.7,1-1.4,1.3-2.3c0.1-0.2,0.2-0.4,0.3-0.6c0.2-0.4,0.3-0.9,0.4-1.3
					c0.2-0.7,0.3-1.4,0.4-2.2c0.1-0.5,0.1-1.1,0.2-1.6c0-0.5,0.1-1.1,0.1-1.7l0-148.3C203.4,88.5,198,84.1,195.9,78.2z M113.1,208.9
					c0,1.8-0.7,3.4-1.9,4.6c-1.2,1.2-2.8,1.9-4.5,1.9l-4.8,0c-3.5,0-6.4-2.9-6.4-6.4l0-100.5c0-3.5,2.9-6.4,6.4-6.4l4.8,0
					c1.8,0,3.4,0.7,4.5,1.9c1.2,1.2,1.9,2.8,1.9,4.6L113.1,208.9z M149.9,208.9c0,3.5-2.9,6.4-6.4,6.4l-4.8,0
					c-1.9,0-3.6-0.8-4.8-2.1c-0.4-0.5-0.8-1-1-1.5c-0.4-0.8-0.6-1.8-0.6-2.8l0-100.5c0-1,0.2-1.9,0.6-2.8c0.3-0.6,0.6-1.1,1-1.5
					c1.2-1.3,2.9-2.1,4.8-2.1l4.8,0c3.5,0,6.4,2.9,6.4,6.4L149.9,208.9z M186.5,210.4c0,0.1-0.1,0.2-0.1,0.3
					c-0.1,0.2-0.1,0.4-0.2,0.7c0,0.1-0.1,0.2-0.1,0.3c-0.3,0.6-0.6,1.1-1,1.5c-0.3,0.3-0.6,0.6-0.9,0.8c-0.1,0.1-0.2,0.1-0.2,0.2
					c-0.1,0.1-0.3,0.2-0.4,0.3c-0.1,0-0.2,0.1-0.3,0.1c-0.1,0-0.2,0.1-0.3,0.1c-0.2,0.1-0.4,0.2-0.6,0.2c-0.1,0-0.1,0-0.2,0.1
					c-0.1,0-0.1,0-0.2,0.1c-0.1,0-0.2,0-0.2,0.1c-0.1,0-0.1,0-0.2,0c-0.4,0.1-0.8,0.1-1.2,0.1l-4.8,0c-3.5,0-6.4-2.9-6.4-6.4
					l0-100.5c0-3.5,2.9-6.4,6.4-6.4l4.8,0c0.4,0,0.8,0,1.2,0.1c0.1,0,0.1,0,0.2,0c0.1,0,0.2,0,0.2,0.1c0.1,0,0.1,0,0.2,0.1
					c0.1,0,0.1,0,0.2,0.1c0.2,0.1,0.4,0.1,0.6,0.2c0.1,0,0.2,0.1,0.3,0.1c0.1,0,0.2,0.1,0.3,0.1c0.1,0.1,0.3,0.2,0.4,0.3
					c0.1,0,0.2,0.1,0.2,0.2c0.3,0.2,0.6,0.5,0.9,0.8c0.3,0.3,0.6,0.7,0.8,1.1c0.1,0.1,0.2,0.3,0.2,0.4c0.1,0.1,0.1,0.2,0.1,0.3
					c0.1,0.2,0.2,0.4,0.2,0.7c0,0.1,0.1,0.2,0.1,0.3c0.1,0.2,0.1,0.5,0.1,0.7c0,0.2,0,0.5,0,0.7l0,100.5c0,0.2,0,0.5,0,0.7
					C186.6,209.9,186.5,210.2,186.5,210.4z"/>
			</g>
		</g>
	</g>
	<g class="st25">
		<g>
			<g>
				<path class="st7" d="M87.5,218.5c0-27.7-1-122-1.3-156.5C86.1,54,86,49.2,86,49.2l-5,0c-3.6,0-5.7,1-6.9,2.5
					c0.3,0.9,0.4,1.8,0.4,2.8c0,2.3-0.8,4.3-2.1,6l0,177c0,9.3,4.5,14.5,14.5,14.5c10,0,54.2,0,54.2,0s8.5,0,18.9,0
					C155.6,252,87.5,251.5,87.5,218.5z"/>
			</g>
		</g>
	</g>
	<g>
		<g>
			<g>
				<path class="st1" d="M72.3,231.1L72.3,231.1l-21.3,0c-7.5,0-18-4.7-25.3-26.9c-4.8-14.4-7.4-33.7-7.4-54.4
					c0-20.7,2.6-40,7.4-54.4C33.1,73.2,43.5,68.6,51,68.6c0,0,0,0,0,0l21.3,0c2.2,0,4,1.8,4,4l0,16.6c0,2.2-1.8,4-4,4l0,0l-17.9,0
					c-3,1.3-8.9,19.5-8.9,56.4c0,36.8,5.9,55.1,8.9,56.4l17.9,0c1.1,0,2.1,0.4,2.8,1.2c0.8,0.8,1.2,1.8,1.2,2.8l0,17.3
					c0,1.1-0.4,2.1-1.2,2.8S73.4,231.1,72.3,231.1z M51,76.6c-14.1,0-24.7,31.5-24.7,73.3c0,19.8,2.5,38.3,7,51.9
					c2.6,8,8.4,21.4,17.7,21.4l17.3,0l0-9.3l-14,0c-8.4,0-11.8-12.6-13.6-22.1c-2.1-11.2-3.3-26.2-3.3-42.2
					c0-16.1,1.2-31.1,3.3-42.2c1.8-9.5,5.2-22.1,13.6-22.1l0,0l14,0l0-8.6L51,76.6z M54.3,205.9L54.3,205.9L54.3,205.9z"/>
			</g>
		</g>
	</g>
	<g>
		<g>
			<g>
				<path class="st1" d="M195.3,256H86.8c-6,0-10.7-1.7-13.9-5c-3.1-3.2-4.6-7.7-4.6-13.5l0-177c0-0.9,0.3-1.8,0.9-2.5
					c0.4-0.6,0.8-1.2,1-1.9c0.1-0.5,0.2-1,0.2-1.6c0-0.6-0.1-1.1-0.2-1.7c-0.4-1.3-0.1-2.7,0.8-3.7c2.2-2.6,5.5-3.9,10-3.9h43.6
					c0.4,0,0.9,0.1,1.3,0.2c4.1,1.4,8.6,1.4,12.6,0c0.4-0.1,0.9-0.2,1.3-0.2h0.5c1.9,0,3.6,1.4,3.9,3.2c0.5,2.4,2.4,4.3,4.8,4.6
					c1.1,0.2,2,0.7,2.7,1.6s0.9,2,0.7,3.1c-0.1,0.5-0.1,0.9-0.1,1.3c0,3.2,2.6,5.8,5.8,5.8c1.3,0,2.6-0.4,3.6-1.3
					c0.8-0.7,1.9-1,2.9-0.8c1.1,0.1,2,0.7,2.7,1.5c0.6,0.7,1.4,1.2,2.4,1.2c0.2,0,0.3,0,0.5,0c1.7-0.3,3.4,0.5,4.2,2
					c1.9,3.4,5.5,5.4,9.3,5.4c3.2,0,6.1-1.4,8.2-3.8c1.1-1.3,3-1.8,4.6-1.1c1.6,0.7,2.6,2.3,2.4,4c0,0.2,0,0.5,0,0.7
					c0,1.4,0.2,2.9,0.7,4.2c0,0,0,0,0,0c1.6,4.6,5.8,7.9,10.6,8.4c2,0.2,3.6,1.9,3.6,4l0,148.3c0,0.7,0,1.3-0.1,2
					c0,0.6-0.1,1.2-0.2,1.8c0,0,0,0.1,0,0.1c-0.1,0.9-0.3,1.8-0.5,2.7c-0.2,0.7-0.4,1.2-0.6,1.7c-0.1,0.3-0.2,0.6-0.4,0.9
					c-0.5,1.1-1.1,2.1-1.8,3C207.2,253.9,202.1,256,195.3,256z M76.3,61.7l0,175.8c0,3.7,0.8,6.3,2.4,8c1.6,1.7,4.4,2.6,8.1,2.6
					h108.4c4.2,0,7-1,8.6-3.2c0.3-0.4,0.6-0.9,0.8-1.5c0,0,0-0.1,0.1-0.1c0-0.1,0.1-0.2,0.1-0.3c0,0,0-0.1,0-0.1
					c0.1-0.2,0.2-0.6,0.3-1c0.1-0.5,0.2-1.1,0.3-1.6c0-0.4,0.1-0.9,0.1-1.3c0-0.5,0.1-1,0.1-1.5l0-145c-6.3-1.8-11.5-6.6-13.7-13
					l0,0c-0.1-0.2-0.1-0.4-0.2-0.6c-2.5,1.2-5.3,1.9-8.2,1.9c-5.9,0-11.4-2.8-14.9-7.4c-1.8-0.1-3.6-0.7-5.1-1.7
					c-1.8,0.8-3.7,1.2-5.6,1.2c-7.3,0-13.3-5.7-13.8-12.9c-2.8-1.2-5.1-3.4-6.5-6c-4.6,1-9.4,0.7-13.9-0.7H81
					c-0.7,0-1.7,0.1-2.6,0.3c0,0.3,0,0.6,0,0.9c0,1.3-0.2,2.6-0.6,3.9C77.5,59.5,77,60.7,76.3,61.7z M180.2,219.4h-4.8
					c-5.8,0-10.4-4.7-10.4-10.4l0-100.5c0-5.8,4.7-10.4,10.4-10.4l4.8,0c0.6,0,1.2,0.1,1.8,0.2c0.1,0,0.3,0.1,0.4,0.1
					c0.1,0,0.2,0,0.3,0.1c0,0,0.1,0,0.1,0l0.2,0.1c0.2,0,0.3,0.1,0.5,0.2c0.3,0.1,0.6,0.2,1,0.4c0.2,0.1,0.4,0.2,0.5,0.3l0.3,0.1
					c0.2,0.1,0.4,0.2,0.7,0.4c0.1,0.1,0.3,0.2,0.4,0.3c0.6,0.5,1.1,0.9,1.5,1.4c0.5,0.5,0.9,1.1,1.3,1.7c0.1,0.2,0.2,0.4,0.3,0.6
					c0.1,0.2,0.2,0.5,0.3,0.7c0.1,0.3,0.2,0.6,0.3,1c0.1,0.2,0.1,0.3,0.1,0.5c0.1,0.4,0.2,0.8,0.2,1.3c0,0.1,0,0.1,0,0.2
					c0,0.4,0.1,0.7,0.1,1.1l0,100.5c0,0.4,0,0.8-0.1,1.2c0,0.4-0.1,0.7-0.2,1.1c0,0.1-0.1,0.3-0.1,0.4c0,0.1-0.1,0.2-0.1,0.3
					c-0.1,0.3-0.2,0.6-0.3,1c-0.1,0.2-0.2,0.4-0.3,0.6c-0.4,0.9-1,1.7-1.6,2.4c-0.5,0.6-1,1-1.5,1.4c-0.1,0.1-0.3,0.2-0.4,0.3
					c-0.2,0.2-0.4,0.3-0.6,0.4c-0.1,0.1-0.2,0.1-0.3,0.2c-0.1,0-0.1,0-0.1,0.1l-0.3,0.1c-0.1,0-0.2,0.1-0.2,0.1
					c-0.3,0.1-0.6,0.2-0.8,0.3c-0.1,0-0.2,0.1-0.3,0.1c-0.1,0-0.1,0-0.1,0c-0.2,0-0.3,0.1-0.5,0.1c0,0,0,0,0,0
					c-0.1,0-0.2,0.1-0.3,0.1c-0.1,0-0.1,0-0.2,0C181.5,219.3,180.9,219.4,180.2,219.4z M175.5,106c-1.3,0-2.4,1.1-2.4,2.4l0,100.5
					c0,1.3,1.1,2.4,2.4,2.4h4.8c0.1,0,0.3,0,0.4,0c0,0,0,0,0,0c0.1,0,0.2-0.1,0.3-0.1c0,0,0,0,0.1,0c0.1,0,0.1,0,0.2-0.1l0.2-0.1
					c0,0,0,0,0,0c0,0,0,0,0,0l0,0c0,0,0,0,0,0c0,0,0,0,0,0l0,0c0,0,0,0,0,0c0.1-0.1,0.2-0.1,0.3-0.2c0.1-0.1,0.2-0.2,0.3-0.3
					c0.1-0.1,0.3-0.3,0.4-0.6c0-0.1,0.1-0.2,0.1-0.3c0-0.1,0-0.2,0.1-0.3c0-0.1,0-0.1,0-0.2c0-0.1,0-0.2,0-0.2v0l0-100.5
					c0-0.1,0-0.2,0-0.3c0-0.1,0-0.1,0-0.2l0-0.2c0-0.1-0.1-0.2-0.1-0.3c0,0,0,0,0-0.1l-0.1-0.2c0,0,0-0.1-0.1-0.1
					c-0.1-0.1-0.2-0.3-0.3-0.4c-0.1-0.1-0.2-0.2-0.4-0.3l0.1,0c-0.1,0-0.1-0.1-0.2-0.1l-0.5-0.2c0,0-0.1,0-0.1,0c0,0,0,0-0.1,0
					l-0.1,0c-0.1,0-0.1,0-0.2,0l0,0c0,0,0.1,0,0.1,0l0,0c0,0-0.1,0-0.1,0c-0.1,0-0.3,0-0.4,0L175.5,106z M180.7,211.4
					C180.7,211.4,180.7,211.4,180.7,211.4C180.7,211.4,180.7,211.4,180.7,211.4z M180.9,211.3C180.9,211.3,180.9,211.3,180.9,211.3
					L180.9,211.3L180.9,211.3C180.9,211.3,180.9,211.3,180.9,211.3z M181.4,211.1C181.4,211.1,181.4,211.1,181.4,211.1
					C181.4,211.1,181.4,211.1,181.4,211.1z M181.4,211.1L181.4,211.1C181.4,211.1,181.4,211.1,181.4,211.1S181.4,211.1,181.4,211.1z
					 M181.9,210.8C181.9,210.8,181.9,210.8,181.9,210.8C181.9,210.8,181.9,210.8,181.9,210.8z M186.4,210.7L186.4,210.7L186.4,210.7
					z M182.6,107.9C182.6,107.9,182.6,107.9,182.6,107.9C182.6,107.9,182.6,107.9,182.6,107.9z M182.5,107.6
					C182.5,107.6,182.5,107.6,182.5,107.6C182.5,107.6,182.5,107.6,182.5,107.6z M182.5,107.5C182.5,107.5,182.5,107.5,182.5,107.5
					C182.5,107.5,182.5,107.5,182.5,107.5z M181.3,106.3C181.3,106.3,181.4,106.3,181.3,106.3L181.3,106.3z M181,106.1
					C181,106.2,181,106.2,181,106.1L181,106.1z M180.9,106.1c0,0,0.1,0,0.2,0C181,106.1,180.9,106.1,180.9,106.1z M180.7,106
					C180.7,106,180.7,106,180.7,106C180.7,106,180.7,106,180.7,106z M143.5,219.4h-4.8c-2.9,0-5.7-1.2-7.7-3.4
					c-0.7-0.8-1.3-1.6-1.7-2.5c-0.7-1.4-1-2.9-1-4.5V108.5c0-1.6,0.4-3.1,1-4.5c0.4-0.8,1-1.7,1.7-2.5c2-2.2,4.8-3.4,7.7-3.4h4.8
					c5.8,0,10.4,4.7,10.4,10.4l0,100.5C153.9,214.7,149.2,219.4,143.5,219.4z M138.7,106c-0.7,0-1.3,0.3-1.8,0.8
					c-0.1,0.2-0.3,0.4-0.4,0.6c-0.2,0.4-0.3,0.7-0.3,1.1v100.5c0,0.4,0.1,0.7,0.2,1c0,0,0,0.1,0.1,0.1c0.1,0.2,0.2,0.3,0.4,0.5
					c0.4,0.5,1.1,0.8,1.8,0.8h4.8c1.3,0,2.4-1.1,2.4-2.4v0l0-100.5c0-1.4-1.1-2.4-2.4-2.4H138.7z M106.7,219.4l-4.8,0
					c-5.7,0-10.4-4.7-10.4-10.4V108.5c0-5.8,4.7-10.4,10.4-10.4h4.8c2.8,0,5.4,1.1,7.4,3c2,2,3.1,4.6,3.1,7.4l0,100.5
					c0,2.8-1.1,5.4-3.1,7.4C112.1,218.3,109.5,219.4,106.7,219.4z M101.9,106c-1.3,0-2.4,1.1-2.4,2.4v100.5c0,1.3,1.1,2.4,2.4,2.4
					l4.8,0c0.6,0,1.2-0.3,1.7-0.7c0.5-0.5,0.7-1.1,0.7-1.7v0l0-100.5c0-0.9-0.5-1.5-0.7-1.7c-0.3-0.2-0.8-0.7-1.7-0.7H101.9z"/>
			</g>
		</g>
	</g>
	<g>
		<g>
			<g>
				<path class="st55" d="M149.9,108.5l0,100.5c0,3.5-2.9,6.4-6.4,6.4l-4.8,0c-3.5,0-6.4-2.9-6.4-6.4l0-100.5c0-3.5,2.9-6.4,6.4-6.4
					l4.8,0C147,102,149.9,104.9,149.9,108.5z"/>
			</g>
		</g>
	</g>
	<g>
		<g>
			<g>
				<path class="st55" d="M113.2,108.5l0,100.5c0,3.5-2.9,6.4-6.4,6.4l-4.8,0c-3.5,0-6.4-2.9-6.4-6.4l0-100.5c0-3.5,2.9-6.4,6.4-6.4
					l4.8,0C110.3,102,113.2,104.9,113.2,108.5z"/>
			</g>
		</g>
	</g>
	<g>
		<g>
			<g>
				<path class="st55" d="M186.7,108.5l0,100.5c0,3.5-2.9,6.4-6.4,6.4l-4.8,0c-3.5,0-6.4-2.9-6.4-6.4l0-100.5c0-3.5,2.9-6.4,6.4-6.4
					l4.8,0C183.8,102,186.7,104.9,186.7,108.5z"/>
			</g>
		</g>
	</g>
	<g>
		<g>
			<g>
				<path class="st1" d="M143.5,219.4C143.5,219.4,143.5,219.4,143.5,219.4h-4.8c-5.8,0-10.4-4.7-10.4-10.4l0-100.5
					c0-5.8,4.7-10.4,10.4-10.4l4.8,0c5.8,0,10.4,4.7,10.4,10.4l0,0l0,100.5C153.9,214.7,149.2,219.4,143.5,219.4z M138.7,106
					c-1.3,0-2.4,1.1-2.4,2.4l0,100.5c0,1.3,1.1,2.4,2.4,2.4h4.8l0,0c1.3,0,2.4-1.1,2.4-2.4l0-100.5c0-1.3-1.1-2.4-2.4-2.4L138.7,106
					z M149.9,108.5L149.9,108.5L149.9,108.5z"/>
			</g>
		</g>
	</g>
	<g>
		<g>
			<g>
				<path class="st1" d="M106.7,219.4C106.7,219.4,106.7,219.4,106.7,219.4h-4.8c-5.8,0-10.4-4.7-10.4-10.4l0-100.5
					c0-5.8,4.7-10.4,10.4-10.4l4.8,0c5.8,0,10.4,4.7,10.4,10.4c0,0,0,0,0,0l0,100.5C117.1,214.7,112.5,219.4,106.7,219.4z
					 M101.9,106c-1.3,0-2.4,1.1-2.4,2.4l0,100.5c0,1.3,1.1,2.4,2.4,2.4h4.8l0,0c1.3,0,2.4-1.1,2.4-2.4l0-100.5
					c0-1.3-1.1-2.4-2.4-2.4L101.9,106z M113.2,108.5L113.2,108.5L113.2,108.5z"/>
			</g>
		</g>
	</g>
	<g>
		<g>
			<g>
				<path class="st1" d="M180.2,219.4l-4.8,0c-2.8,0-5.4-1.1-7.4-3.1c-2-2-3.1-4.6-3.1-7.4l0-100.5c0-2.8,1.1-5.4,3.1-7.4
					c2-2,4.6-3.1,7.4-3.1c0,0,0,0,0,0l4.8,0c2.8,0,5.4,1.1,7.4,3.1c2,2,3.1,4.6,3.1,7.4l0,0c0,0,0,0,0,0l0,100.5
					C190.7,214.7,186,219.4,180.2,219.4z M175.5,106c-0.6,0-1.3,0.3-1.7,0.7c-0.5,0.5-0.7,1.1-0.7,1.7l0,100.5
					c0,0.6,0.3,1.3,0.7,1.7c0.5,0.5,1.1,0.7,1.7,0.7l4.8,0c1.3,0,2.4-1.1,2.4-2.4l0-100.5c0,0,0,0,0,0c0-0.6-0.3-1.3-0.7-1.7
					c-0.5-0.5-1.1-0.7-1.7-0.7L175.5,106C175.5,106,175.5,106,175.5,106z"/>
			</g>
		</g>
	</g>
	<g class="st15">
		<g>
			<g>
				<path d="M230.3,60.2c0,1-0.1,2-0.3,3c-0.3,1.8-1,3.6-1.8,5.2c-0.1,0.2-0.3,0.4-0.4,0.6c-1.2,1.9-2.6,3.5-4.4,4.7
					c0.6,1.3,0.9,2.7,1.1,4.1c0.1,0.8,0.2,1.5,0.2,2.3c0,1-0.1,2-0.3,3c-3,3.8-7.7,6.2-12.9,6.2c-0.6,0-1.2,0-1.8-0.1l0,148.3
					c0,0.6,0,1.2-0.1,1.7c0,0.6-0.1,1.1-0.2,1.6c-0.1,0.8-0.3,1.5-0.4,2.2c-0.1,0.5-0.3,0.9-0.4,1.3c-0.1,0.2-0.2,0.4-0.3,0.6
					c-0.4,0.8-0.8,1.6-1.3,2.3c-2.3,3.1-6.2,4.8-11.8,4.8l-0.6,0l0-33.5c0-20.8,0.6-79.6,1-122c0-1.7,0-3.4,0-5.1c0,0,0,0,0-0.1
					c-2.7-2.9-4.3-6.8-4.3-11.1c0-0.3,0-0.7,0-1c-2.7,3.2-6.7,5.2-11.2,5.2c-5.5,0-10.3-3-12.8-7.5c-0.4,0.1-0.8,0.1-1.2,0.1
					c-2.2,0-4.2-1-5.5-2.7c-1.7,1.3-3.8,2.1-6.1,2.1c-5.4,0-9.8-4.4-9.8-9.8c0-0.7,0.1-1.3,0.2-2c-4.1-0.6-7.4-3.8-8.2-7.8
					c0,0,0-0.1,0-0.2c-0.1,0.1-0.3,0.1-0.4,0.2c-2.4,0.8-4.9,1.3-7.6,1.3c-2.7,0-5.2-0.5-7.6-1.3l-43.6,0c-1.4,0-2.5,0.1-3.5,0.4
					c-0.6,0.2-1.2,0.4-1.7,0.6l0-2.6c-1.7,2.2-4.4,3.6-7.5,3.6c-4.4,0-8.1-2.9-9.2-7c-0.2-0.8-0.4-1.7-0.4-2.6
					c0-1.8,0.5-3.4,1.3-4.8c0.6-1,1.3-1.9,2.2-2.6c-1-0.8-1.8-1.7-2.4-2.8c1.4-0.9,3.1-1.4,4.9-1.4c0.8,0,1.6,0.1,2.4,0.3
					c0-0.1,0-0.2,0-0.3c0-2.8,1-5.4,2.7-7.4c0.3-0.3,0.5-0.6,0.8-0.8c2.1-2,4.9-3.2,8-3.2c2.6,0,5,0.9,6.9,2.3
					c2.5-6.5,8.9-11.1,16.2-11.1c4.3,0,8.2,1.5,11.3,4.1c4.2-6,11.1-9.9,19-9.9c7.4,0,13.9,3.4,18.2,8.8c2.7-2.1,6.2-3.4,9.9-3.4
					c4.7,0,8.9,2,11.9,5.2c3.3-5,9-8.3,15.4-8.3c5.5,0,10.5,2.4,13.8,6.2c1.9-0.7,4-1.1,6.3-1.1c10.2,0,18.5,8.3,18.5,18.5
					c0,2.7-0.6,5.3-1.6,7.6c4.8,2.4,8.4,7.1,9.1,12.6C230.3,58.6,230.3,59.4,230.3,60.2z"/>
			</g>
		</g>
	</g>
	<g>
		<g>
			<g>
				<path class="st7" d="M233.8,52.6c0,3.9-1.4,7.6-3.7,10.4c0,0-0.1,0.1-0.1,0.1c-0.9,1.1-2,2.1-3.1,3c0.4,0.9,0.7,1.9,0.9,2.8
					c0.3,1.2,0.4,2.4,0.4,3.6c0,0.3,0,0.6,0,0.9c-0.2,3.6-1.5,6.9-3.6,9.5c0,0-0.1,0.1-0.1,0.1c-3,3.8-7.7,6.2-12.9,6.2
					c-0.6,0-1.2,0-1.8-0.1c-6.5-0.7-11.9-5.1-14-11c-0.6-1.7-1-3.6-1-5.6c0-0.3,0-0.7,0-1c-2.7,3.2-6.7,5.2-11.2,5.2
					c-5.5,0-10.3-3-12.8-7.5c-0.4,0.1-0.8,0.1-1.2,0.1c-2.2,0-4.2-1-5.5-2.7c-1.7,1.3-3.8,2.1-6.1,2.1c-5.4,0-9.8-4.4-9.8-9.8
					c0-0.7,0.1-1.3,0.2-2c-4.1-0.6-7.4-3.8-8.2-7.8c0,0,0-0.1,0-0.2c-0.1,0.1-0.3,0.1-0.4,0.2c-2.4,0.8-4.9,1.3-7.6,1.3
					c-2.7,0-5.2-0.5-7.6-1.3l-43.6,0c-3.6,0-5.7,1-6.9,2.5c0.3,0.9,0.4,1.8,0.4,2.8s-0.1,1.9-0.4,2.8c-0.4,1.2-0.9,2.3-1.7,3.2
					c-1.7,2.2-4.4,3.6-7.5,3.6c-5.3,0-9.6-4.3-9.6-9.6c0-0.9,0.1-1.8,0.4-2.6c0.5-1.9,1.6-3.6,3.1-4.8c-0.9-0.7-1.6-1.6-2.2-2.6
					c0-0.1-0.1-0.2-0.1-0.3c-0.7-1.4-1.2-2.9-1.2-4.6c0-5.3,4.3-9.6,9.6-9.6c0.5,0,1.1,0,1.6,0.1c0.3,0,0.5,0.1,0.8,0.2
					c0-0.1,0-0.2,0-0.3c0-0.2,0-0.5,0-0.7c0.4-6,5.4-10.8,11.5-10.8c2.6,0,5,0.9,6.9,2.3c2.5-6.5,8.8-11.1,16.2-11.1
					c4.3,0,8.2,1.5,11.3,4.1c4.2-6,11.1-9.9,19-9.9c7.4,0,14,3.5,18.2,8.8c2.7-2.1,6.2-3.4,9.9-3.4c4.7,0,8.9,2,11.9,5.2
					c3.3-5,9-8.3,15.4-8.3c5.5,0,10.5,2.4,13.8,6.2c2-0.7,4.1-1.1,6.3-1.1c10.2,0,18.5,8.3,18.5,18.5c0,2.7-0.6,5.3-1.6,7.6
					C230,40.4,233.8,46,233.8,52.6z"/>
			</g>
		</g>
	</g>
	<g class="st15">
		<g>
			<g>
				<rect x="64.2" y="209.9" width="8.1" height="17.3"/>
			</g>
		</g>
	</g>
	<g class="st15">
		<g>
			<g>
				<rect x="64.7" y="72.6" width="7.7" height="16.6"/>
			</g>
		</g>
	</g>
	<g>
		<g>
			<g>
				<path class="st1" d="M211.6,93.3C211.6,93.3,211.6,93.3,211.6,93.3c-0.8,0-1.5,0-2.2-0.1c-7.8-0.8-14.6-6.2-17.3-13.7
					c-0.1-0.2-0.1-0.4-0.2-0.6c-2.5,1.2-5.3,1.9-8.2,1.9c-5.9,0-11.4-2.8-14.9-7.4c-1.8-0.1-3.6-0.7-5.1-1.7
					c-1.8,0.8-3.7,1.2-5.6,1.2c-7.3,0-13.3-5.7-13.8-12.9c-2.8-1.2-5.1-3.4-6.5-6c-4.6,1-9.4,0.7-13.9-0.7l-42.9,0
					c-0.7,0-1.7,0.1-2.6,0.3c0,0.3,0,0.6,0,0.9c0,1.3-0.2,2.6-0.6,3.9c-0.5,1.7-1.3,3.2-2.4,4.6C72.9,66.1,69,68,64.9,68
					c-7.5,0-13.5-6.1-13.5-13.6c0-1.3,0.2-2.5,0.5-3.7c0.4-1.3,0.9-2.6,1.7-3.7c-0.1-0.2-0.2-0.4-0.4-0.6l-0.1-0.2
					c0,0-0.1-0.1-0.1-0.2c-1.1-2-1.6-4.2-1.6-6.5c0-3.6,1.4-7,4-9.6c2.3-2.3,5.2-3.7,8.4-3.9c1.8-6.7,7.9-11.6,15-11.6c0,0,0,0,0,0
					c1.8,0,3.6,0.3,5.2,0.9c3.9-6,10.5-9.7,17.9-9.7h0c3.7,0,7.3,1,10.5,2.7c5.1-5.4,12.2-8.5,19.8-8.5c0,0,0,0,0,0
					c7.1,0,13.9,2.8,18.9,7.6c2.8-1.4,5.9-2.2,9.2-2.2c4.1,0,8,1.2,11.4,3.5c4.2-4.2,9.9-6.6,15.9-6.6c0,0,0,0,0,0
					c5.6,0,10.9,2.1,15,5.7c1.7-0.4,3.4-0.6,5.1-0.6c12.4,0,22.5,10.1,22.5,22.5c0,2-0.3,4-0.8,5.8c5.3,3.8,8.4,10,8.4,16.7
					c0,4.7-1.6,9.3-4.5,12.9c0,0-0.1,0.1-0.1,0.1l-0.1,0.1c-0.5,0.6-1,1.2-1.6,1.7c0.1,0.2,0.1,0.5,0.2,0.7c0.3,1.4,0.5,3,0.5,4.5
					c0,0.4,0,0.7,0,1.1c-0.2,4.4-1.8,8.5-4.5,11.8c-0.1,0.1-0.1,0.1-0.2,0.2C223.6,90.5,217.8,93.3,211.6,93.3z M195,67.6
					c0.5,0,1,0.1,1.5,0.3c1.6,0.7,2.6,2.3,2.5,4c0,0.2,0,0.5,0,0.7c0,1.4,0.2,2.9,0.7,4.2c1.6,4.6,5.8,7.9,10.6,8.4
					c0.4,0.1,0.9,0.1,1.3,0.1h0c3.8,0,7.4-1.7,9.8-4.7c0-0.1,0.1-0.1,0.1-0.2c1.6-2.1,2.6-4.5,2.7-7.2c0-0.2,0-0.4,0-0.7
					c0-0.9-0.1-1.9-0.3-2.8c-0.2-0.8-0.4-1.5-0.7-2.2c-0.7-1.7-0.2-3.7,1.3-4.8c0.9-0.6,1.7-1.4,2.3-2.2c0,0,0-0.1,0.1-0.1
					c0,0,0.1-0.1,0.1-0.1c1.8-2.2,2.7-4.9,2.7-7.9c0-4.9-2.7-9.2-7.1-11.4c-1.9-1-2.8-3.3-1.9-5.2c0.8-1.8,1.3-3.8,1.3-5.9
					c0-8-6.5-14.5-14.5-14.5c-1.7,0-3.3,0.3-4.9,0.8c-1.5,0.6-3.3,0.1-4.4-1.1c-2.7-3.1-6.7-4.9-10.8-4.9h0c-4.9,0-9.4,2.4-12.1,6.5
					c-0.7,1-1.8,1.7-3,1.8c-1.2,0.1-2.4-0.4-3.3-1.3c-2.3-2.5-5.6-3.9-8.9-3.9c-2.7,0-5.3,0.9-7.4,2.5c-1.7,1.3-4.2,1-5.6-0.7
					c-3.7-4.6-9.1-7.3-15.1-7.3c0,0,0,0,0,0c-6.2,0-12.1,3.1-15.7,8.2c-0.6,0.9-1.6,1.5-2.8,1.7c-1.1,0.1-2.2-0.2-3.1-0.9
					c-2.4-2-5.5-3.2-8.7-3.2c-5.6,0-10.5,3.4-12.5,8.6c-0.5,1.2-1.4,2.1-2.6,2.4c-1.2,0.3-2.5,0.1-3.5-0.7c-1.3-1-2.9-1.5-4.5-1.5
					c-4,0-7.3,3.1-7.5,7.1c0,0.1,0,0.3,0,0.5c0.1,1.3-0.4,2.5-1.4,3.3c-1,0.8-2.3,1.1-3.5,0.8c-0.1,0-0.3-0.1-0.5-0.1
					c-0.3-0.1-0.6-0.1-0.9-0.1c0,0,0,0,0,0c-1.5,0-2.9,0.6-3.9,1.6c-1.1,1.1-1.6,2.5-1.6,3.9c0,0.9,0.2,1.8,0.7,2.6l0,0.1
					c0,0,0,0.1,0,0.1c0.3,0.6,0.8,1.1,1.3,1.5c0.9,0.8,1.5,1.9,1.5,3.1c0,1.2-0.5,2.3-1.5,3.1c-0.9,0.7-1.5,1.7-1.8,2.8
					c-0.1,0.5-0.2,1-0.2,1.5c0,3.1,2.5,5.6,5.5,5.6c1.7,0,3.3-0.8,4.3-2.1c0.5-0.6,0.8-1.2,1-1.9c0.2-0.5,0.2-1,0.2-1.6
					c0-0.6-0.1-1.1-0.2-1.6c-0.4-1.3-0.1-2.7,0.8-3.7c2.2-2.6,5.5-3.9,10-3.9l43.6,0c0.4,0,0.9,0.1,1.3,0.2c4.1,1.4,8.6,1.4,12.6,0
					c0.1,0,0.1,0,0.2-0.1l0.1,0c1.1-0.4,2.2-0.4,3.3,0.1c1,0.5,1.8,1.4,2.1,2.5c0,0.1,0.1,0.3,0.1,0.5c0,0,0,0,0,0
					c0.5,2.4,2.4,4.3,4.8,4.6c1.1,0.2,2.1,0.7,2.7,1.6c0.6,0.9,0.9,2,0.7,3.1c-0.1,0.4-0.1,0.9-0.1,1.2c0,3.2,2.6,5.8,5.8,5.8
					c1.3,0,2.6-0.4,3.6-1.2c1.7-1.4,4.2-1.1,5.6,0.6c0.6,0.7,1.5,1.2,2.4,1.2c0.2,0,0.3,0,0.5,0c1.7-0.3,3.4,0.5,4.2,2
					c1.9,3.4,5.5,5.4,9.3,5.4c3.2,0,6.1-1.4,8.2-3.8C192.7,68.1,193.8,67.6,195,67.6z"/>
			</g>
		</g>
	</g>
</g>
</svg>
