<?xml version="1.0" encoding="utf-8"?>
<!-- Generator: Adobe Illustrator 22.1.0, SVG Export Plug-In . SVG Version: 6.00 Build 0)  -->
<svg version="1.1" id="Layer_1" xmlns="http://www.w3.org/2000/svg" xmlns:xlink="http://www.w3.org/1999/xlink" x="0px" y="0px"
	 viewBox="0 0 256 256" style="enable-background:new 0 0 256 256;" xml:space="preserve">
<style type="text/css">
	.st0{fill:#F5B31F;}
	.st1{fill:#464646;}
	.st2{opacity:0.15;}
	.st3{fill:#AC6535;}
	.st4{fill:#EB573B;}
	.st5{fill:#90C056;}
	.st6{opacity:0.35;}
	.st7{fill:#FFFFFF;}
	.st8{opacity:0.2;}
	.st9{fill:#F6D67A;}
	.st10{opacity:0.3;}
	.st11{fill:#FFA755;}
	.st12{fill:#8FAE3C;}
	.st13{fill:#BE6BB2;}
	.st14{fill:#B7C536;}
	.st15{opacity:0.1;}
	.st16{fill:#9D5A96;}
	.st17{fill:#EA615D;}
	.st18{opacity:0.4;}
	.st19{fill:#F79932;}
	.st20{fill:#FFEC97;}
	.st21{fill:#FFD11D;}
	.st22{fill:#F7F2D5;}
	.st23{fill:#F6AF72;}
	.st24{fill:#BA6C45;}
	.st25{opacity:0.5;}
	.st26{fill:#E4C074;}
	.st27{fill:#656566;}
	.st28{fill:#FACD1F;}
	.st29{fill:#FFDF66;}
	.st30{fill:#6D6E71;}
	.st31{fill:#E77CAE;}
	.st32{fill:#FFE5C4;}
	.st33{fill:#F68455;}
	.st34{opacity:0.7;}
	.st35{fill:#ADEDFF;}
	.st36{fill:#EC754B;}
	.st37{fill:#4AA5BA;}
	.st38{opacity:0.8;}
	.st39{fill:#92A5AC;}
	.st40{fill:#D06E3C;}
	.st41{fill:#DA4F4B;}
	.st42{fill:#BDF3FF;}
	.st43{fill:#F18BB4;}
	.st44{fill:#F9D97A;}
	.st45{fill:none;}
	.st46{fill:#AF6535;}
	.st47{fill:#B93226;}
	.st48{fill:#FF6050;}
	.st49{fill:#EA7CB1;}
	.st50{fill:#00B0E0;}
	.st51{fill:#EA7DAE;}
	.st52{fill:#BC7532;}
	.st53{fill:#876C6C;}
	.st54{fill:#F9F6CD;}
	.st55{fill:#FFE37B;}
	.st56{fill:#1DDCFF;}
	.st57{fill:#60ACF7;}
	.st58{fill:#C3755A;}
	.st59{fill:#96557A;}
	.st60{fill:#66625D;}
	.st61{fill:#D68032;}
	.st62{fill:#F2A355;}
	.st63{fill:#7E9E6A;}
	.st64{fill:#965A85;}
	.st65{fill:#90CAD3;}
	.st66{fill:#94B57F;}
	.st67{fill:#B2E2E7;}
	.st68{fill:#FFDF8F;}
	.st69{fill:#FFFAEB;}
	.st70{fill:#F88916;}
	.st71{fill:#FFC86E;}
	.st72{fill:#AFA51D;}
	.st73{fill:#968A1C;}
	.st74{fill:#C3556D;}
</style>
<g>
	<g>
		<g>
			<path class="st12" d="M201.5,113.4c0,0-0.5-4.3-1.3-9c-1-6-2.5-12.7-4.2-12.7c-3.1,0-23.1,19.2-25.7,16.6
				c-2.6-2.6,3.5-33.5,1.7-35.3c-0.5-0.5-1.8-0.5-3.6-0.3c-5.3,0.6-14.3,3.3-14.3,3.3c9.9-10.8,21.6-15.3,35.5-12.7
				c22.9-20.6,36.5-39.2,30.9-53.7l5.7-5.7c13.9,17.9-5.3,41.8-21,67C210.1,88,210.1,101.3,201.5,113.4z"/>
		</g>
	</g>
	<g>
		<g>
			<path class="st13" d="M33.5,240.6C5.8,212.9,51,163.9,103.1,133.3c24.9-14.5,46.3-50,65.4-60.6c1.8-0.2,3.2-0.2,3.6,0.3
				c1.8,1.8-4.3,32.7-1.7,35.3c2.6,2.6,22.6-16.6,25.7-16.6c1.7,0,3.2,6.7,4.2,12.7C196.5,170.7,81.6,288.8,33.5,240.6z"/>
		</g>
	</g>
	<g class="st10">
		<g>
			<path class="st7" d="M172.1,72.9c-0.5-0.5-1.8-0.5-3.6-0.3c-19.1,10.7-40.5,46.2-65.4,60.6c-52,30.7-97.3,79.6-69.6,107.3
				c0,0-8.1-21.4,27.3-58.2s44.5-34.3,60.7-48.2S172.1,72.9,172.1,72.9z"/>
		</g>
	</g>
	<g class="st15">
		<g>
			<path d="M137.2,189.6c80.5-87.4,32.8-78.1,32.8-78.1c2.6,2.6,22.9-19.8,26-19.8c1.7,0,3.2,6.7,4.2,12.7
				c-3.7,66.3-118.6,184.5-166.8,136.3C33.5,240.6,56.7,277,137.2,189.6z"/>
		</g>
	</g>
	<g>
		<g>
			<path class="st1" d="M61.4,255.9c-12.1,0-22.5-4.2-30.7-12.4c0,0,0,0,0,0c-7.5-7.5-10.6-16.7-9.3-27.4
				c1.7-13.5,10.9-29.2,26.6-45.4c13.9-14.4,32.8-28.9,53.1-40.8c12.6-7.3,24.4-20.4,35.8-33c10.3-11.5,20.1-22.3,29.7-27.7
				c0.5-0.3,1-0.4,1.5-0.5c2.6-0.3,5.2-0.3,6.9,1.4c2,2,1.9,4.6,0.3,18.4c-0.5,4.2-1.2,10.4-1.4,14.4c2.8-1.9,6.8-5,9.5-7.2
				c8.1-6.4,10.4-8,12.8-8c4.7,0,6.4,5.4,8.2,16c0,0.3,0.1,0.6,0,0.9c-2.7,49.3-64.3,125.8-117.7,146.2
				C77.6,254.2,69.1,255.9,61.4,255.9z M36.3,237.8c11.3,11.3,27.2,13.2,47.4,5.5c23.7-9,51.4-31.3,74.2-59.5
				c22.6-28,36.9-57.6,38.3-79.2c-0.6-3.7-1.2-6.1-1.6-7.6c-1.9,1.4-4.4,3.4-6.4,5c-10.7,8.5-16.6,13.2-20.6,9.2
				c-2.5-2.5-2.3-7-0.3-23.6c0.4-3.3,0.9-7.3,1.1-10.1c-7.9,5.1-16.5,14.7-25.5,24.8c-11.8,13.1-24,26.6-37.7,34.6
				c-42.4,25-72.8,57.2-75.8,80.3C28.3,225.2,30.6,232,36.3,237.8L36.3,237.8z M170.6,76.5L170.6,76.5L170.6,76.5z M168.4,74.2
				L168.4,74.2L168.4,74.2z"/>
		</g>
	</g>
	<g>
		<g>
			<path class="st1" d="M201.5,117.4c-0.3,0-0.7,0-1-0.1c-1.6-0.4-2.8-1.8-3-3.4c0,0-0.5-4.2-1.2-8.8c-0.7-4-1.2-6.5-1.7-8
				c-1.9,1.4-4.4,3.4-6.4,5c-10.7,8.5-16.6,13.2-20.6,9.2c-2.5-2.5-2.3-7-0.3-23.6c0.4-3.5,1-8,1.1-10.8c-4.9,0.7-13,3.1-13.1,3.1
				c-1.7,0.5-3.6-0.2-4.5-1.7c-1-1.5-0.8-3.5,0.4-4.8c10.5-11.6,23-16.3,37.2-14.2c23.4-21.3,32.6-37,28.4-48
				c-0.6-1.5-0.2-3.2,0.9-4.3l5.7-5.7c0.8-0.8,1.9-1.2,3.1-1.2c1.1,0.1,2.2,0.6,2.9,1.5c13.9,17.8,0,39.2-14.6,61.9
				c-1.7,2.7-3.5,5.4-5.2,8.1c5.2,19.1,3.8,32.4-4.7,44.2C204,116.8,202.7,117.4,201.5,117.4z M173.8,106.4L173.8,106.4L173.8,106.4
				z M171.1,68.6c1.4,0.1,2.8,0.5,3.8,1.5c2,2,1.9,4.6,0.3,18.4c-0.5,4.2-1.2,10.4-1.4,14.4c2.8-1.9,6.8-5,9.5-7.2
				c8.1-6.4,10.4-8,12.8-8c4.1,0,5.9,4.1,7.5,12.2c1.9-7.6,1.1-16.4-2.3-27.9c-0.3-1.1-0.2-2.3,0.4-3.2c2.1-3.3,4.2-6.6,6.2-9.7
				c12.3-19.1,23.2-35.8,17.4-48.7l-0.3,0.3c3.8,14.4-6.7,32.2-32.7,55.6c-0.9,0.8-2.2,1.2-3.4,1C182.5,66,176.6,66.4,171.1,68.6z"
				/>
		</g>
	</g>
	<g>
		<g>
			<path class="st1" d="M63.4,241.8c-7.4,0-14-1.9-19.7-5.7c-1.8-1.2-2.3-3.7-1.1-5.6s3.7-2.3,5.6-1.1c16.7,11.3,45.7,0.3,75.5-28.9
				c1.6-1.5,4.1-1.5,5.7,0.1c1.5,1.6,1.5,4.1-0.1,5.7c-15,14.6-30.4,25.3-44.6,31C77.2,240.3,70,241.8,63.4,241.8z"/>
		</g>
	</g>
</g>
</svg>
