<?xml version="1.0" encoding="utf-8"?>
<!-- Generator: Adobe Illustrator 22.1.0, SVG Export Plug-In . SVG Version: 6.00 Build 0)  -->
<svg version="1.1" id="Layer_1" xmlns="http://www.w3.org/2000/svg" xmlns:xlink="http://www.w3.org/1999/xlink" x="0px" y="0px"
	 viewBox="0 0 256 256" style="enable-background:new 0 0 256 256;" xml:space="preserve">
<style type="text/css">
	.st0{fill:#F5B31F;}
	.st1{fill:#464646;}
	.st2{opacity:0.15;}
	.st3{fill:#AC6535;}
	.st4{fill:#EB573B;}
	.st5{fill:#90C056;}
	.st6{opacity:0.35;}
	.st7{fill:#FFFFFF;}
	.st8{opacity:0.2;}
	.st9{fill:#F6D67A;}
	.st10{opacity:0.3;}
	.st11{fill:#FFA755;}
	.st12{fill:#8FAE3C;}
	.st13{fill:#BE6BB2;}
	.st14{fill:#B7C536;}
	.st15{opacity:0.1;}
	.st16{fill:#9D5A96;}
	.st17{fill:#EA615D;}
	.st18{opacity:0.4;}
	.st19{fill:#F79932;}
	.st20{fill:#FFEC97;}
	.st21{fill:#FFD11D;}
	.st22{fill:#F7F2D5;}
	.st23{fill:#F6AF72;}
	.st24{fill:#BA6C45;}
	.st25{opacity:0.5;}
	.st26{fill:#E4C074;}
	.st27{fill:#656566;}
	.st28{fill:#FACD1F;}
	.st29{fill:#FFDF66;}
	.st30{fill:#6D6E71;}
	.st31{fill:#E77CAE;}
	.st32{fill:#FFE5C4;}
	.st33{fill:#F68455;}
	.st34{opacity:0.7;}
	.st35{fill:#ADEDFF;}
	.st36{fill:#EC754B;}
	.st37{fill:#4AA5BA;}
	.st38{opacity:0.8;}
	.st39{fill:#92A5AC;}
	.st40{fill:#D06E3C;}
	.st41{fill:#DA4F4B;}
	.st42{fill:#BDF3FF;}
	.st43{fill:#F18BB4;}
	.st44{fill:#F9D97A;}
	.st45{fill:none;}
	.st46{fill:#AF6535;}
	.st47{fill:#B93226;}
	.st48{fill:#FF6050;}
	.st49{fill:#EA7CB1;}
	.st50{fill:#00B0E0;}
	.st51{fill:#EA7DAE;}
	.st52{fill:#BC7532;}
	.st53{fill:#876C6C;}
	.st54{fill:#F9F6CD;}
	.st55{fill:#FFE37B;}
	.st56{fill:#1DDCFF;}
	.st57{fill:#60ACF7;}
	.st58{fill:#C3755A;}
	.st59{fill:#96557A;}
	.st60{fill:#66625D;}
	.st61{fill:#D68032;}
	.st62{fill:#F2A355;}
	.st63{fill:#7E9E6A;}
	.st64{fill:#965A85;}
	.st65{fill:#90CAD3;}
	.st66{fill:#94B57F;}
	.st67{fill:#B2E2E7;}
	.st68{fill:#FFDF8F;}
	.st69{fill:#FFFAEB;}
	.st70{fill:#F88916;}
	.st71{fill:#FFC86E;}
	.st72{fill:#AFA51D;}
	.st73{fill:#968A1C;}
	.st74{fill:#C3556D;}
</style>
<g>
	<g>
		<g>
			<path class="st3" d="M27.2,246.6c-3.6-2.1-6.5-4.9-8.7-8.4c-1.4-2.3-2.4-4.5-3-6.7c-2.5-8.5,0.9-16,7.9-23.1
				c3.9,3,9.2,7.7,12.3,13.8C39.1,229.2,29.9,238.9,27.2,246.6z"/>
		</g>
	</g>
	<g>
		<g>
			<path class="st21" d="M200.2,178.2c-55.4,54.5-140.2,87.4-173,68.4c2.7-7.7,11.9-17.4,8.4-24.3c-3.1-6.1-8.3-10.9-12.3-13.8
				c19.7-19.8,68.4-36.5,100.3-63c46.2-38.4,40.6-47.2,45.5-65c4.9-17.8,10.7-25,13.2-36.9c2.5-11.9-17.3-25.6-14.3-30.4
				c3-4.7,13.8-10.6,20.1-8.7c6.2,1.9,9.1,31.9,14.6,34.7C254.5,56.8,255.6,123.7,200.2,178.2z"/>
		</g>
	</g>
	<g>
		<g>
			<path class="st1" d="M51.5,255.9c-10.4,0-19.4-1.9-26.3-5.9c-1.7-1-2.4-3-1.8-4.8c1-2.8,2.7-5.8,4.3-8.6
				c2.7-4.6,5.7-9.8,4.3-12.6c-2.7-5.4-7.5-9.8-11.1-12.4c-0.9-0.7-1.5-1.8-1.6-2.9c-0.1-1.2,0.3-2.3,1.2-3.1
				c10.2-10.3,27.8-19.7,46.3-29.6c19-10.2,38.6-20.7,54.3-33.7c37.7-31.3,39.8-42.1,42.3-54.7c0.5-2.6,1.1-5.3,1.9-8.3
				c2.6-9.3,5.3-15.7,7.8-21.3c2.3-5.3,4.2-9.8,5.4-15.3c1-4.9-4.2-11.5-8.3-16.8c-4.4-5.6-8.3-10.5-5.4-14.9
				C168.4,5,181-2,189.3,0.5c5.1,1.6,7.3,9,10.6,20.9c1.2,4.6,3.3,12.3,4.8,14.1c20.7,7.3,34.7,22.6,39.3,43.1
				c3.4,15.1,1.7,32.4-5.1,50c-7.1,18.2-19.4,36.3-35.8,52.4l0,0C157.7,225.6,93.3,255.9,51.5,255.9z M32.4,244.7
				c15.1,6.3,41.3,3.3,71.3-8.5c33.6-13.2,67.7-35.4,93.6-60.9c30.4-29.9,45.3-66.3,38.8-94.9C232,62.2,220,49.2,201.4,42.9
				c-0.2-0.1-0.4-0.1-0.5-0.2c-4-2.1-5.9-8.3-8.8-19.1c-1.4-5.2-3.7-13.7-5.4-15.4c-3.5-0.8-11.7,2.5-14.8,6.4
				c0.6,1.4,2.8,4.2,4.5,6.3c5.2,6.6,11.7,14.8,9.9,23.4c-1.3,6.3-3.4,11.2-5.8,16.8c-2.3,5.4-5,11.6-7.4,20.3
				c-0.8,2.7-1.3,5.3-1.7,7.8c-2.8,14-5.2,26.1-45.1,59.3C109.9,162,89,173.2,70.6,183c-16.1,8.6-31.4,16.8-41.1,25.2
				c3.5,3.1,7.2,7.2,9.7,12.2c3.3,6.7-0.8,13.9-4.5,20.2C33.8,242.1,33.1,243.4,32.4,244.7z M200.2,178.2L200.2,178.2L200.2,178.2z
				 M186.6,8L186.6,8L186.6,8z"/>
		</g>
	</g>
	<g>
		<g>
			<path class="st1" d="M27.2,250.6c-0.7,0-1.4-0.2-2-0.5c-4.2-2.4-7.6-5.7-10.1-9.8c-1.6-2.6-2.7-5.1-3.5-7.7
				c-2.7-9.4,0.2-18.2,8.9-27c1.4-1.4,3.6-1.6,5.2-0.4c4.2,3.2,10,8.4,13.4,15.3c3.3,6.7-0.8,13.9-4.5,20.2c-1.5,2.6-3,5.1-3.7,7.3
				c-0.4,1.1-1.3,2-2.4,2.4C28.1,250.5,27.6,250.6,27.2,250.6z M23.7,213.9c-4.7,5.6-6.1,10.9-4.5,16.5c0.5,1.8,1.4,3.7,2.6,5.7
				c1,1.7,2.3,3.2,3.7,4.5c0.7-1.3,1.4-2.6,2.2-3.8c2.7-4.6,5.7-9.8,4.3-12.6C30,219.9,26.7,216.5,23.7,213.9z"/>
		</g>
	</g>
	<g>
		<g>
			<path class="st1" d="M35.6,226.2c-1.5,0-2.9-0.9-3.6-2.3c-0.9-2-0.1-4.4,1.9-5.3c33.9-15.8,76.9-37.5,108.9-64.9
				c31.8-27.2,48.3-56.1,50.5-88.3c0.1-2.2,2-3.9,4.3-3.7c2.2,0.1,3.9,2.1,3.7,4.3c-2.3,34.5-19.7,65.2-53.2,93.9
				c-32.7,28-76.4,50-110.7,66C36.7,226.1,36.2,226.2,35.6,226.2z"/>
		</g>
	</g>
	<g class="st15">
		<g>
			<path d="M27.2,246.6c0,0,132.9-21.2,175.9-101s-0.4-106.5-0.4-106.5c51.8,17.7,52.9,84.6-2.5,139.1S60,265.6,27.2,246.6"/>
		</g>
	</g>
</g>
</svg>
