<?xml version="1.0" encoding="utf-8"?>
<!-- Generator: Adobe Illustrator 22.1.0, SVG Export Plug-In . SVG Version: 6.00 Build 0)  -->
<svg version="1.1" id="Layer_1" xmlns="http://www.w3.org/2000/svg" xmlns:xlink="http://www.w3.org/1999/xlink" x="0px" y="0px"
	 viewBox="0 0 256 256" style="enable-background:new 0 0 256 256;" xml:space="preserve">
<style type="text/css">
	.st0{fill:#F5B31F;}
	.st1{fill:#464646;}
	.st2{opacity:0.15;}
	.st3{fill:#AC6535;}
	.st4{fill:#EB573B;}
	.st5{fill:#90C056;}
	.st6{opacity:0.35;}
	.st7{fill:#FFFFFF;}
	.st8{opacity:0.2;}
	.st9{fill:#F6D67A;}
	.st10{opacity:0.3;}
	.st11{fill:#FFA755;}
	.st12{fill:#8FAE3C;}
	.st13{fill:#BE6BB2;}
	.st14{fill:#B7C536;}
	.st15{opacity:0.1;}
	.st16{fill:#9D5A96;}
	.st17{fill:#EA615D;}
	.st18{opacity:0.4;}
	.st19{fill:#F79932;}
	.st20{fill:#FFEC97;}
	.st21{fill:#FFD11D;}
	.st22{fill:#F7F2D5;}
	.st23{fill:#F6AF72;}
	.st24{fill:#BA6C45;}
	.st25{opacity:0.5;}
	.st26{fill:#E4C074;}
	.st27{fill:#656566;}
	.st28{fill:#FACD1F;}
	.st29{fill:#FFDF66;}
	.st30{fill:#6D6E71;}
	.st31{fill:#E77CAE;}
	.st32{fill:#FFE5C4;}
	.st33{fill:#F68455;}
	.st34{opacity:0.7;}
	.st35{fill:#ADEDFF;}
	.st36{fill:#EC754B;}
	.st37{fill:#4AA5BA;}
	.st38{opacity:0.8;}
	.st39{fill:#92A5AC;}
	.st40{fill:#D06E3C;}
	.st41{fill:#DA4F4B;}
	.st42{fill:#BDF3FF;}
	.st43{fill:#F18BB4;}
	.st44{fill:#F9D97A;}
	.st45{fill:none;}
	.st46{fill:#AF6535;}
	.st47{fill:#B93226;}
	.st48{fill:#FF6050;}
	.st49{fill:#EA7CB1;}
	.st50{fill:#00B0E0;}
	.st51{fill:#EA7DAE;}
	.st52{fill:#BC7532;}
	.st53{fill:#876C6C;}
	.st54{fill:#F9F6CD;}
	.st55{fill:#FFE37B;}
	.st56{fill:#1DDCFF;}
	.st57{fill:#60ACF7;}
	.st58{fill:#C3755A;}
	.st59{fill:#96557A;}
	.st60{fill:#66625D;}
	.st61{fill:#D68032;}
	.st62{fill:#F2A355;}
	.st63{fill:#7E9E6A;}
	.st64{fill:#965A85;}
	.st65{fill:#90CAD3;}
	.st66{fill:#94B57F;}
	.st67{fill:#B2E2E7;}
	.st68{fill:#FFDF8F;}
	.st69{fill:#FFFAEB;}
	.st70{fill:#F88916;}
	.st71{fill:#FFC86E;}
	.st72{fill:#AFA51D;}
	.st73{fill:#968A1C;}
	.st74{fill:#C3556D;}
</style>
<g>
	<g>
		<g>
			<path class="st14" d="M177.1,162.9c-6.4,11.5-10,24.7-12,38.9c-1.4,10.2-1.9,21-1.9,32.2l-62.1,0c1.9-21.3,0.1-39.8-8.1-53.4
				c-2-3.4-4.4-6.4-7.2-9.1c12.3-7.1,19.4-16.8,20.8-29.4c16.9,4.7,34.6,4.4,52.9,0C162.1,154.8,168.1,161.4,177.1,162.9z"/>
		</g>
	</g>
	<g class="st15">
		<g>
			<path d="M199.8,181.5c-10.8,20.7-24.7,26-41.6,16.5c1.5-11.1,4.3-21.3,9.3-30.2c-7-1.1-11.6-6.3-13.6-16.2
				c-14.2,3.4-28,3.7-41.1,0c-1.1,9.8-6.6,17.3-16.2,22.8c2.2,2.1,4.1,4.5,5.6,7.1c0,0,3.1,16.5-23.3,16.5
				c-13.2,0-21.4-12.6-21.1-25.9c-25.3,2.3-34.2-29.1-12.1-36.6c-2.6-24.2,10.7-38,31.3-35.1c-5.5-19.1,10.4-32.6,34-29.3
				c15.4-17.6,43.8-18.6,49.6,6.7c19.6-5,34.4,6.7,35.3,26.5c26.1-6.5,32.7,14.5,20.4,32.9C233,159.2,226.8,184.7,199.8,181.5z"/>
		</g>
	</g>
	<g>
		<g>
			<path class="st12" d="M219.4,180.5c-13.9,26.7-31.8,33.5-53.6,21.3c1.9-14.3,5.6-27.5,12-38.9c-9-1.4-15-8.1-17.5-20.8
				c-18.3,4.4-36.1,4.7-52.9,0c-1.4,12.6-8.5,22.4-20.8,29.4c2.8,2.7,5.2,5.8,7.2,9.1c0,0,4,21.2-30.1,21.2
				c-17,0-27.6-16.2-27.3-33.4c-32.6,3-44-37.5-15.6-47.1c-3.4-31.2,13.8-49,40.4-45.2C54.2,51.4,74.7,34,105.1,38.3
				c19.9-22.7,56.5-23.9,64,8.6c25.3-6.4,44.3,8.6,45.5,34.2c33.7-8.4,42.1,18.7,26.3,42.4C262.3,151.8,254.2,184.6,219.4,180.5z"/>
		</g>
	</g>
	<g class="st18">
		<g>
			<path class="st7" d="M169.1,46.9c-7.5-32.5-44.1-31.3-64-8.6C74.7,34,54.2,51.4,61.3,76.1c-26.6-3.8-43.8,14-40.4,45.2
				c-28.5,9.7-17,50.2,15.6,47.1c-23.7-12.6-25.7-33-5.1-42.3c-2-21.7,9.7-36.3,37.2-42.5c3-22.1,16.7-33.6,41.6-33.7
				C129.4,34.1,149,33,169.1,46.9z"/>
		</g>
	</g>
	<g class="st15">
		<g>
			<path d="M236.7,123.5c19.7-23.8,7.3-51.2-25.4-40.3c0,0,24.8-2.9,27.9,16.9S236.7,123.5,236.7,123.5z"/>
		</g>
	</g>
	<g class="st15">
		<g>
			<path d="M237.6,123.5c21.4,28.3,16.7,61.2-18.1,57.1c0,0,16.5-10.8,20.9-19.6C244.7,152.2,237.6,123.5,237.6,123.5z"/>
		</g>
	</g>
	<g class="st15">
		<g>
			<path d="M180,124.1c0,0,3.9,5.4,3.9,7.8c0,2.4-13,12.6-13,15.9c0,3.3,4,5.7,8.1,6.6c4.1,1,21-3.1,26.1-0.8
				c5.1,2.3,2.2,8.4,2.2,8.4l-36.9-1.5l-9.7-16.9L180,124.1z"/>
		</g>
	</g>
	<g class="st15">
		<g>
			<path d="M218.7,180.5c-13.9,26.7-31.8,33.5-53.6,21.3c1.9-14.3,5.6-27.5,12-38.9l8,0c0,0,19.9-2.6,18.3,1.1
				c-24.6-1.1-27.9,31.1-21.2,32.8C194.6,201.3,218.7,180.5,218.7,180.5z"/>
		</g>
	</g>
	<g>
		<g>
			<path class="st1" d="M163.2,238C163.2,238,163.2,238,163.2,238l-62.1,0c-1.1,0-2.2-0.5-3-1.3c-0.8-0.8-1.1-1.9-1-3.1
				c2-22.5-0.5-39.2-7.6-51c-1.8-3.1-4.1-5.9-6.6-8.3c-0.9-0.9-1.3-2.1-1.2-3.4s0.9-2.3,2-3c11.4-6.5,17.6-15.2,18.8-26.4
				c0.1-1.2,0.8-2.2,1.7-2.9c1-0.7,2.2-0.8,3.3-0.5c15.7,4.4,32.3,4.4,50.9,0c1.1-0.3,2.2-0.1,3.1,0.5c0.9,0.6,1.6,1.5,1.8,2.6
				c3.1,15.9,11.5,17.2,14.2,17.7c1.3,0.2,2.4,1,3,2.2c0.6,1.2,0.5,2.5-0.1,3.7c-5.7,10.3-9.5,22.6-11.5,37.5
				c-1.3,9.2-1.9,19.6-1.9,31.6C167.2,236.2,165.4,238,163.2,238z M105.5,230l53.7,0c0.1-10.7,0.8-20.2,1.9-28.7
				c1.9-13.9,5.2-25.7,10.1-35.9c-7.1-2.8-12-9.1-14.7-18.6c-16.6,3.4-32.3,3.5-46.7,0.2c-2.3,10.2-8.3,18.7-17.8,25.3
				c1.6,2,3.1,4.1,4.5,6.3C104,191,107,207.9,105.5,230z"/>
		</g>
	</g>
	<g>
		<g>
			<path class="st1" d="M106.6,146c-0.5,0-0.9-0.1-1.4-0.2c-0.8-0.3-18.6-7-26.1-17.3c-1.3-1.8-0.9-4.3,0.9-5.6
				c1.8-1.3,4.3-0.9,5.6,0.9c6,8.3,22.2,14.4,22.3,14.5c2.1,0.8,3.1,3.1,2.4,5.1C109.8,145,108.3,146,106.6,146z"/>
		</g>
	</g>
	<g>
		<g>
			<path class="st1" d="M159.6,146c-1.9,0-3.6-1.4-3.9-3.4c-0.3-2.2,1.1-4.2,3.3-4.6c0.5-0.1,10.6-2,14.4-13.2
				c0.7-2.1,3-3.2,5.1-2.5c2.1,0.7,3.2,3,2.5,5.1c-5.3,15.9-20.1,18.5-20.7,18.6C160,146,159.8,146,159.6,146z"/>
		</g>
	</g>
	<g>
		<g>
			<path class="st1" d="M85.8,175.4c-0.8,0-1.5-0.2-2.2-0.7c-0.1-0.1-11.4-7.3-22.2-4.9c-2.2,0.5-4.3-0.9-4.8-3
				c-0.5-2.2,0.9-4.3,3-4.8c14.2-3.2,27.8,5.6,28.4,6c1.8,1.2,2.4,3.7,1.1,5.5C88.4,174.8,87.1,175.4,85.8,175.4z"/>
		</g>
	</g>
	<g>
		<g>
			<path class="st1" d="M177.1,166.9c-1.6,0-3.2-1-3.8-2.7c-0.7-2.1,0.3-4.4,2.4-5.1c3.6-1.3,22-7.4,30.6-1.7
				c1.8,1.2,2.3,3.7,1.1,5.5c-1.2,1.8-3.7,2.3-5.5,1.1c-3.8-2.5-16.3,0.1-23.5,2.6C178,166.8,177.5,166.9,177.1,166.9z"/>
		</g>
	</g>
	<g>
		<g>
			<path class="st1" d="M184.8,211.7c-6.8,0-14.1-2.1-21.6-6.4c-1.4-0.8-2.2-2.4-2-4c1.9-13.9,5.2-25.7,10.1-35.9
				c-7.1-2.8-12-9.1-14.7-18.6c-16.6,3.4-32.3,3.5-46.7,0.2c-2.3,10.2-8.3,18.7-17.8,25.3c1.6,2,3.1,4.1,4.5,6.3
				c0.2,0.4,0.4,0.9,0.5,1.3c0.1,0.3,1.5,8.6-4.5,15.8c-5.6,6.8-15.5,10.2-29.5,10.2c0,0,0,0,0,0c-7.9,0-15-3-20.6-8.7
				c-6.1-6.2-9.8-14.9-10.5-24.5c-17.9-0.2-28.7-12.3-31.3-24.3c-3.1-14.5,5.1-24.9,15.3-29.6c-1.1-15.7,3-28.9,11.7-37.3
				c7.1-6.9,16.7-10.2,28-9.8c-1.3-9.5,1.1-18.3,7-25.1c8.6-9.9,23.2-14.3,40.3-12.4c12.2-12.8,29.8-18.9,44.6-15.2
				c11.5,2.9,19.9,11.1,23.8,23.3c11.7-2.1,22.6,0.1,31,6.3c8.4,6.2,13.7,15.9,15.2,27.7c9.4-1.6,22.5-1.4,30,9.3
				c6.7,9.6,5.7,24.2-2.4,37.8c11.5,16.4,14.2,34.8,7,47.4c-5.8,10.1-16.7,15-31,14c-7.7,13.9-16.8,22.5-27.2,25.6
				C190.9,211.2,187.9,211.7,184.8,211.7z M169.5,199.6c8.1,4,15.5,5.1,22,3.1c8.8-2.6,16.7-10.7,23.6-24c0.8-1.5,2.4-2.3,4-2.1
				c12.2,1.4,21.4-2,25.8-9.8c6-10.5,2.8-26.5-8.1-40.9c-1-1.4-1.1-3.2-0.1-4.6c7.6-11.3,9.2-23.8,4.1-31.1
				c-4.5-6.4-13.8-8.2-26-5.2c-1.2,0.3-2.4,0-3.4-0.7c-1-0.7-1.6-1.8-1.6-3c-0.5-11.4-5-20.8-12.4-26.3c-7.3-5.4-17.3-6.9-28.1-4.2
				c-1,0.3-2.1,0.1-3.1-0.5c-0.9-0.6-1.6-1.5-1.8-2.5c-3.3-14.4-12.2-19.4-19-21.2c-12.6-3.1-27.9,2.6-38.1,14.3
				c-0.9,1-2.2,1.5-3.6,1.3c-15-2.1-28.2,1.4-35.2,9.5c-5.3,6.1-6.8,14.1-4.2,23.2c0.4,1.3,0.1,2.7-0.8,3.7S61.3,80.2,60,80
				c-11.1-1.6-20.4,0.9-26.9,7.1c-7.4,7.2-10.6,19.1-9,33.7c0.2,1.9-0.9,3.6-2.7,4.2c-8,2.7-15.6,9.8-13.1,21.5
				c2,9.6,11.4,19.3,27,17.8c1.1-0.1,2.3,0.3,3.1,1.1c0.8,0.8,1.3,1.9,1.3,3c-0.2,8.9,3,17.5,8.3,23c4.1,4.1,9.2,6.3,14.9,6.3
				c0,0,0,0,0,0c11.3,0,19.3-2.5,23.3-7.2c2.9-3.4,3-7.2,2.9-8.7c-1.7-2.8-3.8-5.3-6.2-7.6c-0.9-0.9-1.3-2.1-1.2-3.4s0.9-2.3,2-3
				c11.4-6.5,17.6-15.2,18.8-26.4c0.1-1.2,0.8-2.2,1.7-2.9c1-0.7,2.2-0.8,3.3-0.5c15.7,4.4,32.3,4.4,50.9,0c1.1-0.3,2.2-0.1,3.1,0.5
				c0.9,0.6,1.6,1.5,1.8,2.6c3.1,15.9,11.5,17.2,14.2,17.7c1.3,0.2,2.4,1,3,2.2c0.6,1.2,0.5,2.5-0.1,3.7
				C175.3,174.5,171.6,185.9,169.5,199.6z"/>
		</g>
	</g>
	<g>
		<g>
			<path class="st1" d="M120.7,190.9L120.7,190.9c-2.2,0-4-1.8-4-4l0-42.1c0-2.2,1.8-4,4-4l0,0c2.2,0,4,1.8,4,4l0,42.1
				C124.7,189.1,122.9,190.9,120.7,190.9z"/>
		</g>
	</g>
	<g>
		<g>
			<path class="st1" d="M148.9,174.8C148.9,174.8,148.9,174.8,148.9,174.8c-2.2,0-4-1.8-4-4l0.1-26.7c0-2.2,1.8-4,4-4c0,0,0,0,0,0
				c2.2,0,4,1.8,4,4l-0.1,26.7C152.9,173.1,151.1,174.8,148.9,174.8z"/>
		</g>
	</g>
</g>
</svg>
