<?xml version="1.0" encoding="utf-8"?>
<!-- Generator: Adobe Illustrator 22.1.0, SVG Export Plug-In . SVG Version: 6.00 Build 0)  -->
<svg version="1.1" id="Layer_1" xmlns="http://www.w3.org/2000/svg" xmlns:xlink="http://www.w3.org/1999/xlink" x="0px" y="0px"
	 viewBox="0 0 256 256" style="enable-background:new 0 0 256 256;" xml:space="preserve">
<style type="text/css">
	.st0{fill:#F5B31F;}
	.st1{fill:#464646;}
	.st2{opacity:0.15;}
	.st3{fill:#AC6535;}
	.st4{fill:#EB573B;}
	.st5{fill:#90C056;}
	.st6{opacity:0.35;}
	.st7{fill:#FFFFFF;}
	.st8{opacity:0.2;}
	.st9{fill:#F6D67A;}
	.st10{opacity:0.3;}
	.st11{fill:#FFA755;}
	.st12{fill:#8FAE3C;}
	.st13{fill:#BE6BB2;}
	.st14{fill:#B7C536;}
	.st15{opacity:0.1;}
	.st16{fill:#9D5A96;}
	.st17{fill:#EA615D;}
	.st18{opacity:0.4;}
	.st19{fill:#F79932;}
	.st20{fill:#FFEC97;}
	.st21{fill:#FFD11D;}
	.st22{fill:#F7F2D5;}
	.st23{fill:#F6AF72;}
	.st24{fill:#BA6C45;}
	.st25{opacity:0.5;}
	.st26{fill:#E4C074;}
	.st27{fill:#656566;}
	.st28{fill:#FACD1F;}
	.st29{fill:#FFDF66;}
	.st30{fill:#6D6E71;}
	.st31{fill:#E77CAE;}
	.st32{fill:#FFE5C4;}
	.st33{fill:#F68455;}
	.st34{opacity:0.7;}
	.st35{fill:#ADEDFF;}
	.st36{fill:#EC754B;}
	.st37{fill:#4AA5BA;}
	.st38{opacity:0.8;}
	.st39{fill:#92A5AC;}
	.st40{fill:#D06E3C;}
	.st41{fill:#DA4F4B;}
	.st42{fill:#BDF3FF;}
	.st43{fill:#F18BB4;}
	.st44{fill:#F9D97A;}
	.st45{fill:none;}
	.st46{fill:#AF6535;}
	.st47{fill:#B93226;}
	.st48{fill:#FF6050;}
	.st49{fill:#EA7CB1;}
	.st50{fill:#00B0E0;}
	.st51{fill:#EA7DAE;}
	.st52{fill:#BC7532;}
	.st53{fill:#876C6C;}
	.st54{fill:#F9F6CD;}
	.st55{fill:#FFE37B;}
	.st56{fill:#1DDCFF;}
	.st57{fill:#60ACF7;}
	.st58{fill:#C3755A;}
	.st59{fill:#96557A;}
	.st60{fill:#66625D;}
	.st61{fill:#D68032;}
	.st62{fill:#F2A355;}
	.st63{fill:#7E9E6A;}
	.st64{fill:#965A85;}
	.st65{fill:#90CAD3;}
	.st66{fill:#94B57F;}
	.st67{fill:#B2E2E7;}
	.st68{fill:#FFDF8F;}
	.st69{fill:#FFFAEB;}
	.st70{fill:#F88916;}
	.st71{fill:#FFC86E;}
	.st72{fill:#AFA51D;}
	.st73{fill:#968A1C;}
	.st74{fill:#C3556D;}
</style>
<g>
	<g>
		<g>
			<g>
				<path class="st12" d="M125.1,31.8c-0.2,0.3-0.4,0.6-0.5,0.8c-0.2,0.3-0.4,0.6-0.5,0.9c0,0,0,0,0,0c-0.3,0.5-0.6,1-0.8,1.5
					c-2.7,1.4-6,3.3-8.7,5.3c-0.2,0.1-0.4,0.3-0.6,0.4h0C102.7,49.2,82.4,61.5,57,64.7c-39.4,5-48.7,18-53,15.9
					c-0.8-18,34-40.3,75.6-47.1c1.2-0.2,2.3-0.4,3.5-0.5c2-0.3,4-0.5,6-0.7c0.5-0.1,1.1-0.1,1.6-0.2l1.6-0.1c0.6,0,1.1-0.1,1.7-0.1
					c0.4,0,0.9-0.1,1.3-0.1c0.4,0,0.7,0,1.1-0.1c0.6,0,1.3-0.1,1.9-0.1c0.5,0,0.9,0,1.4-0.1c0.5,0,1,0,1.5,0c0.3,0,0.7,0,1,0
					C109.2,31.3,118.1,31.2,125.1,31.8z"/>
			</g>
		</g>
	</g>
	<g class="st8">
		<g>
			<g>
				<path class="st7" d="M123.2,35.1c0.3-0.5,0.5-1,0.8-1.5c0,0,0,0,0,0c0.2-0.3,0.3-0.6,0.5-0.9c0.2-0.3,0.4-0.6,0.5-0.8
					c-6.9-0.6-15.9-0.6-22.8-0.4c-0.3,0-0.7,0-1,0c-0.5,0-1,0-1.5,0c-0.5,0-0.9,0-1.4,0.1c-0.6,0-1.3,0.1-1.9,0.1
					c-0.4,0-0.7,0-1.1,0.1c-0.4,0-0.9,0.1-1.3,0.1c-0.6,0-1.1,0.1-1.7,0.1l-1.6,0.1c-0.5,0.1-1.1,0.1-1.6,0.2c-2,0.2-4,0.5-6,0.7
					c-1.2,0.2-2.4,0.3-3.5,0.5C38.1,40.3,3.2,62.6,4,80.6c0,0,8.8-20.1,50.5-33.6S123.2,35.1,123.2,35.1z"/>
			</g>
		</g>
	</g>
	<g>
		<g>
			<g>
				<g>
					<path class="st12" d="M126.6,30.7c-0.3,0.4-0.6,0.8-0.8,1.2c-6.9-0.6-15.9-0.6-22.8-0.4c-0.3,0-0.7,0-1,0c-0.5,0-1,0-1.5,0
						c-0.5,0-0.9,0-1.4,0.1c-0.6,0-1.3,0.1-1.9,0.1c-0.4,0-0.7,0-1.1,0.1c-0.4,0-0.9,0.1-1.3,0.1c-0.6,0-1.1,0.1-1.7,0.1l-1.6,0.1
						c-0.5,0.1-1.1,0.1-1.6,0.2c-2,0.2-4,0.4-6,0.7c-1.2,0.2-2.4,0.3-3.5,0.5c-25.1-9.5-35.1-5-37.1-7.8
						C50.4,11.3,93.2,11.7,126.6,30.7z"/>
				</g>
			</g>
		</g>
	</g>
	<g class="st15">
		<g>
			<g>
				<g>
					<path d="M61.9,28.4c15.8-3.1,30.4-2.7,49.9-1.6l5.8,5.5l-45.3-1.8L61.9,28.4z"/>
				</g>
			</g>
		</g>
		<g>
			<g>
				<g>
					<path d="M73.6,39.1c-2.9,0.3-5.7,0.6-8.5,1C68,39.8,70.8,39.4,73.6,39.1z"/>
				</g>
			</g>
		</g>
	</g>
	<g>
		<g>
			<g>
				<path class="st1" d="M5,84.8c-0.9,0-1.8-0.2-2.7-0.6c-1.3-0.6-2.2-2-2.3-3.4c-1-20.6,35.2-44.1,78.9-51.2
					c1.2-0.2,2.4-0.4,3.6-0.5c1.9-0.3,4-0.5,6.1-0.7l3.9-0.4c0.4,0,0.8-0.1,1.2-0.1c0.4,0,0.8-0.1,1.3-0.1c0.4,0,0.8-0.1,1.2-0.1
					c0.6,0,1.3-0.1,1.9-0.1c0.5,0,0.9,0,1.4-0.1c0.5,0,1,0,1.5,0c0.4,0,0.7,0,1.1,0c6.5-0.2,15.9-0.3,23.3,0.4
					c1.4,0.1,2.7,1,3.3,2.3c0.6,1.3,0.5,2.8-0.4,4c-0.1,0.2-0.3,0.4-0.4,0.6c-0.2,0.3-0.3,0.5-0.4,0.7c0,0.1-0.1,0.1-0.1,0.2
					c-0.2,0.4-0.5,0.9-0.7,1.3c-0.4,0.7-1,1.3-1.7,1.7c-2.3,1.2-5.5,3-8.1,5l-0.6,0.4c-0.1,0-0.1,0.1-0.2,0.1
					C103.4,53.6,83,65.4,57.6,68.6c-25.1,3.2-37.6,9.7-44.4,13.2C10,83.5,7.4,84.8,5,84.8z M111.2,35.3c-3.2,0-6.2,0.1-8.8,0.1
					c-0.3,0-0.7,0-1,0c0,0-0.1,0-0.1,0c-0.4,0-0.9,0-1.3,0c-0.5,0-0.9,0-1.4,0.1c-0.6,0-1.3,0.1-1.9,0.1c-0.4,0-0.7,0-1,0.1
					c-0.5,0-0.9,0.1-1.3,0.1c-0.4,0-0.8,0.1-1.2,0.1l-3.7,0.3c-2,0.2-4,0.4-5.8,0.7c-1.2,0.2-2.3,0.3-3.4,0.5
					c-19.1,3.1-38.2,10-52.2,18.8C18.3,62.3,11.7,69,9.1,74.9c0.1-0.1,0.2-0.1,0.3-0.2c7.2-3.7,20.6-10.7,47.1-14
					c23.8-3,43-14.2,55-23.1c0,0,0.1-0.1,0.1-0.1l0.4-0.3c0.9-0.6,1.8-1.3,2.7-1.9C113.6,35.3,112.4,35.3,111.2,35.3z"/>
			</g>
		</g>
	</g>
	<g>
		<g>
			<g>
				<g>
					<path class="st1" d="M79.6,37.5c-0.5,0-1-0.1-1.4-0.3c-15.4-5.9-24.7-6.2-30.2-6.4c-3.8-0.1-6.9-0.2-8.7-2.9
						c-0.9-1.2-1-2.8-0.3-4.1c2.3-4.5,7.1-8,13.9-10c16.8-5.1,47.9-2.1,75.1,13.3c1,0.6,1.7,1.5,1.9,2.6s0,2.3-0.7,3.2
						c-0.2,0.3-0.5,0.7-0.7,1c-0.8,1.2-2.2,1.9-3.7,1.8c-7-0.6-16-0.5-22.4-0.3c-0.3,0-0.7,0-1,0c0,0-0.1,0-0.1,0
						c-0.4,0-0.9,0-1.3,0c-0.5,0-0.9,0-1.4,0.1c-0.6,0-1.3,0.1-1.9,0.1c-0.4,0-0.7,0-1,0.1c-0.5,0-0.9,0.1-1.3,0.1
						c-0.4,0-0.8,0.1-1.2,0.1l-3.7,0.3c-1.9,0.2-3.8,0.4-5.8,0.7c-1.2,0.2-2.3,0.3-3.4,0.5C80,37.5,79.8,37.5,79.6,37.5z M51.3,23
						c5.9,0.3,15.2,1.4,28.7,6.4c0.8-0.1,1.7-0.3,2.6-0.4c2.2-0.3,4.2-0.5,6.1-0.7l3.9-0.3c0.4,0,0.8-0.1,1.2-0.1
						c0.4,0,0.8-0.1,1.3-0.1c0.4,0,0.8-0.1,1.2-0.1c0.6,0,1.3-0.1,1.9-0.1c0.5,0,0.9,0,1.4-0.1c0.5,0,1,0,1.5,0c0.4,0,0.7,0,1.1,0
						c2.2-0.1,4.8-0.1,7.4-0.1c-21-8.2-42.5-9.4-54.5-5.8C53.7,22,52.4,22.5,51.3,23z"/>
				</g>
			</g>
		</g>
	</g>
	<g>
		<g>
			<g>
				<path class="st72" d="M248.6,133.8c-7.7,24.9-38.4,33.7-67.6,28.2c8.5-21.2,2.1-36.3-7.2-53.6C155.2,80,125.3,76.4,97.3,83.2
					c-0.6-11.9,1.8-23.5,6.1-33.8c1.1-2.8,2.4-5.4,3.8-8c0.4-0.7,0.8-1.4,1.2-2.1c0,0,0,0,0-0.1c0.2-0.4,0.5-0.8,0.7-1.3
					c0.3-0.4,0.5-0.8,0.8-1.2c0.4-0.6,0.8-1.1,1.2-1.7c20-27.3,67.2-22.7,99.4-3.5C253.8,60.1,256.3,108.9,248.6,133.8z"/>
			</g>
		</g>
	</g>
	<g class="st15">
		<g>
			<g>
				<path d="M181,162c29.2,5.4,59.8-3.3,67.6-28.2s5.2-73.7-38.1-102.1C196.7,23.5,180,17.9,164,16.4c0,0,78.1,28.8,71.3,89.7
					S181,162,181,162z"/>
			</g>
		</g>
	</g>
	<g class="st15">
		<g>
			<g>
				<path d="M193.2,163.5c-4-0.2-8.1-0.7-12.2-1.4c8.5-21.2,2.1-36.3-7.2-53.6C155.2,80,125.3,76.4,97.3,83.2
					c-0.2-4.6-0.4-6.2,0.2-10.6C174.6,64.5,204.5,107.8,193.2,163.5z"/>
			</g>
		</g>
	</g>
	<g>
		<g>
			<g>
				<path class="st73" d="M79.3,216.7c-18.9,15-58.2-36.4-39.3-51.4C62.1,147.8,101.4,199.2,79.3,216.7z"/>
			</g>
		</g>
	</g>
	<g class="st15">
		<g>
			<g>
				<path d="M71.6,218.4c36.7-12.3-7.5-71.3-37.9-48.9C54.4,160.2,91.1,197.9,71.6,218.4z"/>
			</g>
		</g>
	</g>
	<g>
		<g>
			<g>
				<path class="st72" d="M173.9,108.5C155.2,80,125.3,76.4,97.3,83.2c-16.8,4.1-33,12.1-45.5,20.7c-33.3,22.9-49.4,56.3-30.7,92.6
					c18.7,36.3,60.2,67.4,118.9,18.7c22.8-22,35.3-38.9,41-53.1C189.6,140.9,183.2,125.7,173.9,108.5z M79.3,216.7
					c-18.9,15-58.2-36.4-39.3-51.4C62.1,147.8,101.4,199.2,79.3,216.7z"/>
			</g>
		</g>
	</g>
	<g class="st8">
		<g>
			<g>
				<path class="st7" d="M97.3,83.2c-16.8,4.1-33,12.1-45.5,20.7c-33.3,22.9-49.4,56.3-30.7,92.6c0,0-3.8-36.2,12.6-60.3
					S97.3,83.2,97.3,83.2z"/>
			</g>
		</g>
	</g>
	<g class="st15">
		<g>
			<g>
				<path d="M21.1,196.5c18.7,36.3,60.2,67.4,118.9,18.7c22.8-22,35.3-38.9,41-53.1c8.5-21.2,2.1-36.3-7.2-53.6
					C155.2,80,125.3,76.4,97.3,83.2c60.1,5.5,92.2,38.8,51.2,103.2S55.8,231.6,21.1,196.5z"/>
			</g>
		</g>
	</g>
	<g>
		<g>
			<g>
				<path class="st27" d="M71.4,223.4c-2.7,0-5.5-0.6-8.4-1.7c-14.5-5.7-29.3-24.8-31.7-40.7c-1.2-8.1,0.9-14.6,6.2-18.8
					c6.1-4.9,14-5.8,22.2-2.5c14.1,5.6,27.4,22.7,29.7,38.1c1.4,9.2-1.4,17-7.7,22l0,0C78.8,222.2,75.3,223.4,71.4,223.4z
					 M50.3,165.7c-2.9,0-5.5,0.9-7.8,2.7c-2.9,2.3-4,6.1-3.3,11.3c1.9,13,14.9,29.8,26.7,34.5c4.4,1.8,8.1,1.5,10.9-0.7c0,0,0,0,0,0
					c4.1-3.2,5.7-8.2,4.7-14.6c-1.9-12.7-13.2-27.3-24.7-31.8C54.5,166.2,52.3,165.7,50.3,165.7z"/>
			</g>
		</g>
	</g>
	<g>
		<g>
			<g>
				<path class="st1" d="M82.5,244.3c-4.2,0-8.3-0.4-12.3-1.2c-12.4-2.5-35.6-11.7-52.6-44.7c-9.5-18.4-10.9-36.8-4.3-54.5
					c5.9-16,18.5-30.9,36.3-43.2c14.3-9.8,30.9-17.4,46.8-21.3c35.1-8.6,63.8,1,80.8,26.9c0.1,0.1,0.1,0.2,0.2,0.3
					c9.5,17.6,16.6,34.1,7.3,57c-6.3,15.6-19.6,33-41.9,54.5c-0.1,0.1-0.1,0.1-0.2,0.2C121.7,235.5,101.6,244.3,82.5,244.3z
					 M120.7,84.2c-6.7,0-14.2,0.9-22.4,2.9c-15,3.7-30.7,10.8-44.2,20.1c-34.9,24-45.7,55.9-29.4,87.5c6.6,12.9,21.5,35.3,47.1,40.5
					c20.1,4.1,42.2-3.6,65.6-23c21.1-20.4,34.2-37.3,40-51.6c7.9-19.6,1.9-33.7-6.9-50C161.9,97.7,146.8,84.2,120.7,84.2z
					 M71.4,223.4c-2.7,0-5.5-0.6-8.4-1.7c-14.5-5.7-29.3-24.8-31.7-40.7c-1.2-8.1,0.9-14.6,6.2-18.8c6.1-4.9,14-5.8,22.2-2.5
					c14.1,5.6,27.4,22.7,29.7,38.1c1.4,9.2-1.4,17-7.7,22l0,0C78.8,222.2,75.3,223.4,71.4,223.4z M50.3,165.7
					c-2.9,0-5.5,0.9-7.8,2.7c-2.9,2.3-4,6.1-3.3,11.3c1.9,13,14.9,29.8,26.7,34.5c4.4,1.8,8.1,1.5,10.9-0.7c0,0,0,0,0,0
					c4.1-3.2,5.7-8.2,4.7-14.6c-1.9-12.7-13.2-27.3-24.7-31.9C54.5,166.2,52.3,165.7,50.3,165.7z"/>
			</g>
		</g>
	</g>
	<g>
		<g>
			<g>
				<path class="st1" d="M71.4,223.4c-2.7,0-5.5-0.6-8.4-1.7c-14.5-5.7-29.3-24.8-31.7-40.7c-1.2-8.1,0.9-14.6,6.2-18.8
					c6.1-4.9,14-5.8,22.2-2.5c14.1,5.6,27.4,22.7,29.7,38.1c1.4,9.2-1.4,17-7.7,22l0,0C78.8,222.2,75.3,223.4,71.4,223.4z
					 M50.3,165.7c-2.9,0-5.5,0.9-7.8,2.7c-2.9,2.3-4,6.1-3.3,11.3c1.9,13,14.9,29.8,26.7,34.5c4.4,1.8,8.1,1.5,10.9-0.7c0,0,0,0,0,0
					c4.1-3.2,5.7-8.2,4.7-14.6c-1.9-12.7-13.2-27.3-24.7-31.8C54.5,166.2,52.3,165.7,50.3,165.7z"/>
			</g>
		</g>
	</g>
	<g>
		<g>
			<g>
				<path class="st1" d="M197.6,167.6c-5.7,0-11.5-0.5-17.3-1.6c-1.2-0.2-2.2-1-2.8-2c-0.6-1.1-0.7-2.3-0.2-3.4
					c7.9-19.6,1.9-33.7-6.9-50c-10.7-16.2-31.8-33.3-72.2-23.4c-1.2,0.3-2.4,0-3.3-0.7c-1-0.7-1.5-1.8-1.6-3
					c-0.6-11.6,1.6-23.9,6.4-35.5c1.2-2.8,2.5-5.6,4-8.4c0.4-0.7,0.8-1.5,1.2-2.2l0,0c0,0,0.1-0.1,0.1-0.1c0.3-0.4,0.5-0.9,0.8-1.3
					c0.3-0.4,0.5-0.9,0.8-1.3c0.4-0.6,0.8-1.2,1.2-1.8c9.9-13.4,26.8-20.8,47.7-20.8c0.2,0,0.5,0,0.7,0c18.7,0.1,39.2,6.1,56.3,16.2
					c0.1,0,0.1,0.1,0.2,0.1c44.4,29.1,48,79.7,39.7,106.6c-4,12.9-13.7,22.6-28.1,28C216.3,166.1,207.1,167.6,197.6,167.6z
					 M186.4,158.9c33,4.6,53.3-10,58.3-26.2c7.6-24.6,4.2-70.8-36.4-97.5c-30.9-18.4-75.7-22.6-94.1,2.5c-0.4,0.5-0.7,1-1,1.5
					c0,0,0,0.1-0.1,0.1c-0.2,0.3-0.4,0.7-0.6,1c-0.2,0.4-0.4,0.7-0.6,1.1c0,0.1-0.1,0.1-0.1,0.2c-0.4,0.6-0.7,1.3-1,1.9
					c-1.3,2.5-2.6,5.1-3.6,7.7c-3.7,8.9-5.7,18.3-5.9,27.3c32.9-6.6,59.7,3.3,76,28c0.1,0.1,0.1,0.2,0.2,0.3
					C186.2,123,193,138.4,186.4,158.9z"/>
			</g>
		</g>
	</g>
</g>
</svg>
