<?xml version="1.0" encoding="utf-8"?>
<!-- Generator: Adobe Illustrator 22.1.0, SVG Export Plug-In . SVG Version: 6.00 Build 0)  -->
<svg version="1.1" id="Layer_1" xmlns="http://www.w3.org/2000/svg" xmlns:xlink="http://www.w3.org/1999/xlink" x="0px" y="0px"
	 viewBox="0 0 256 256" style="enable-background:new 0 0 256 256;" xml:space="preserve">
<style type="text/css">
	.st0{fill:#F5B31F;}
	.st1{fill:#464646;}
	.st2{opacity:0.15;}
	.st3{fill:#AC6535;}
	.st4{fill:#EB573B;}
	.st5{fill:#90C056;}
	.st6{opacity:0.35;}
	.st7{fill:#FFFFFF;}
	.st8{opacity:0.2;}
	.st9{fill:#F6D67A;}
	.st10{opacity:0.3;}
	.st11{fill:#FFA755;}
	.st12{fill:#8FAE3C;}
	.st13{fill:#BE6BB2;}
	.st14{fill:#B7C536;}
	.st15{opacity:0.1;}
	.st16{fill:#9D5A96;}
	.st17{fill:#EA615D;}
	.st18{opacity:0.4;}
	.st19{fill:#F79932;}
	.st20{fill:#FFEC97;}
	.st21{fill:#FFD11D;}
	.st22{fill:#F7F2D5;}
	.st23{fill:#F6AF72;}
	.st24{fill:#BA6C45;}
	.st25{opacity:0.5;}
	.st26{fill:#E4C074;}
	.st27{fill:#656566;}
	.st28{fill:#FACD1F;}
	.st29{fill:#FFDF66;}
	.st30{fill:#6D6E71;}
	.st31{fill:#E77CAE;}
	.st32{fill:#FFE5C4;}
	.st33{fill:#F68455;}
	.st34{opacity:0.7;}
	.st35{fill:#ADEDFF;}
	.st36{fill:#EC754B;}
	.st37{fill:#4AA5BA;}
	.st38{opacity:0.8;}
	.st39{fill:#92A5AC;}
	.st40{fill:#D06E3C;}
	.st41{fill:#DA4F4B;}
	.st42{fill:#BDF3FF;}
	.st43{fill:#F18BB4;}
	.st44{fill:#F9D97A;}
	.st45{fill:none;}
	.st46{fill:#AF6535;}
	.st47{fill:#B93226;}
	.st48{fill:#FF6050;}
	.st49{fill:#EA7CB1;}
	.st50{fill:#00B0E0;}
	.st51{fill:#EA7DAE;}
	.st52{fill:#BC7532;}
	.st53{fill:#876C6C;}
	.st54{fill:#F9F6CD;}
	.st55{fill:#FFE37B;}
	.st56{fill:#1DDCFF;}
	.st57{fill:#60ACF7;}
	.st58{fill:#C3755A;}
	.st59{fill:#96557A;}
	.st60{fill:#66625D;}
	.st61{fill:#D68032;}
	.st62{fill:#F2A355;}
	.st63{fill:#7E9E6A;}
	.st64{fill:#965A85;}
	.st65{fill:#90CAD3;}
	.st66{fill:#94B57F;}
	.st67{fill:#B2E2E7;}
	.st68{fill:#FFDF8F;}
	.st69{fill:#FFFAEB;}
	.st70{fill:#F88916;}
	.st71{fill:#FFC86E;}
	.st72{fill:#AFA51D;}
	.st73{fill:#968A1C;}
	.st74{fill:#C3556D;}
</style>
<g>
	<g>
		<g>
			<path class="st12" d="M170.5,160.9C84.9,243.4,34.9,266.4,12.6,243c-23.4-22.2-0.4-72.2,82.2-157.7
				c63.6-65,116.7-100.7,146.3-70.5C271.4,44.3,235.6,97.4,170.5,160.9z"/>
		</g>
	</g>
	<g class="st15">
		<g>
			<path d="M198.4,6.7c17.1-5.3,31.6-3.3,42.7,8.1c30.3,29.5-5.5,82.6-70.6,146.1C84.9,243.4,34.9,266.4,12.6,243
				c0,0,35.3,24.4,157-102.6S198.4,6.7,198.4,6.7z"/>
		</g>
	</g>
	<g class="st8">
		<g>
			<path class="st7" d="M155.9,30.3c-18.8,13.9-39.3,32.7-61,55C12.3,170.8-10.7,220.8,12.6,243c0,0,2.9-26.3,24.7-63.3
				S155.9,30.3,155.9,30.3z"/>
		</g>
	</g>
	<g>
		<g>
			<path class="st1" d="M33.9,255.6c-0.3,0-0.6,0-0.9,0c-9.4-0.2-17.2-3.5-23.2-9.8c-6.3-6-9.6-13.8-9.8-23.2
				c-0.6-29.5,29.5-75.4,92-140.1c55.1-56.4,94.3-82.6,123.2-82.6c0,0,0,0,0,0C226.5-0.1,236.1,4,244,12c8,7.8,12,17.4,12,28.6
				c0,28.9-26.3,68-82.7,123.1c0,0,0,0,0,0C109.1,225.6,63.5,255.6,33.9,255.6z M215.2,7.9c-26.3,0-64.7,26.2-117.5,80.2
				C37.6,150.3,7.4,195.5,8,222.5c0.2,7.3,2.6,13.1,7.4,17.7c0,0,0.1,0.1,0.1,0.1c4.6,4.8,10.4,7.2,17.7,7.4
				c26.9,0.5,72.2-29.6,134.6-89.6c54-52.7,80.3-91.1,80.3-117.4c0-9.1-3.2-16.6-9.7-23C231.9,11.1,224.4,7.9,215.2,7.9
				C215.2,7.9,215.2,7.9,215.2,7.9z M170.5,160.9L170.5,160.9L170.5,160.9z"/>
		</g>
	</g>
	<g>
		<g>
			<path class="st1" d="M241.6,29.3c-3.8,0-7.9-1.8-11.3-5.2c-2.6-2.6-4.3-5.7-4.9-8.9c-0.8-4,0.3-7.7,3.1-10.4
				c1.6-1.6,4.1-1.6,5.7,0c1.6,1.6,1.6,4.1,0,5.7c-0.6,0.6-1.3,1.5-0.9,3.3c0.3,1.6,1.3,3.3,2.8,4.7c1.7,1.7,5.6,4.3,8,1.9
				c1.6-1.6,4.1-1.6,5.7,0c1.6,1.6,1.6,4.1,0,5.7C247.4,28.2,244.6,29.3,241.6,29.3z"/>
		</g>
	</g>
	<g>
		<g>
			<path class="st1" d="M82.5,124.9c-1.1,0-2.1-0.4-2.9-1.2c-1.5-1.6-1.5-4.1,0.1-5.7l8.5-8.2C144.2,56.1,192.6,9.6,229,7.4
				c2.2-0.1,4.1,1.5,4.2,3.8c0.1,2.2-1.5,4.1-3.8,4.2c-33.5,2-83.1,49.7-135.7,100.2l-8.5,8.2C84.5,124.6,83.5,124.9,82.5,124.9z"/>
		</g>
	</g>
	<g>
		<g>
			<path class="st1" d="M134.5,176.9c-1,0-2.1-0.4-2.8-1.2c-1.6-1.6-1.5-4.1,0-5.7c57.2-56.8,98.2-112.8,107.1-146.3
				c0.6-2.1,2.8-3.4,4.9-2.8c2.1,0.6,3.4,2.8,2.8,4.9c-9.3,35.3-50.1,91.3-109.2,149.9C136.6,176.5,135.6,176.9,134.5,176.9z"/>
		</g>
	</g>
	<g>
		<g>
			<path class="st1" d="M91.5,168.2c-1.3,0-2.5-0.6-3.3-1.7c-1.3-1.8-0.8-4.3,1-5.6c16-11.3,37.6-34.9,62.6-62.1
				c23.6-25.7,50.2-54.8,78.6-80.5c1.6-1.5,4.2-1.4,5.7,0.3c1.5,1.6,1.4,4.2-0.3,5.7c-28.1,25.5-54.6,54.5-78.1,80
				c-25.3,27.6-47.2,51.4-63.9,63.2C93.2,168,92.3,168.2,91.5,168.2z"/>
		</g>
	</g>
</g>
</svg>
