<?xml version="1.0" encoding="utf-8"?>
<!-- Generator: Adobe Illustrator 22.1.0, SVG Export Plug-In . SVG Version: 6.00 Build 0)  -->
<svg version="1.1" id="Layer_1" xmlns="http://www.w3.org/2000/svg" xmlns:xlink="http://www.w3.org/1999/xlink" x="0px" y="0px"
	 viewBox="0 0 256 256" style="enable-background:new 0 0 256 256;" xml:space="preserve">
<style type="text/css">
	.st0{fill:#F5B31F;}
	.st1{fill:#464646;}
	.st2{opacity:0.15;}
	.st3{fill:#AC6535;}
	.st4{fill:#EB573B;}
	.st5{fill:#90C056;}
	.st6{opacity:0.35;}
	.st7{fill:#FFFFFF;}
	.st8{opacity:0.2;}
	.st9{fill:#F6D67A;}
	.st10{opacity:0.3;}
	.st11{fill:#FFA755;}
	.st12{fill:#8FAE3C;}
	.st13{fill:#BE6BB2;}
	.st14{fill:#B7C536;}
	.st15{opacity:0.1;}
	.st16{fill:#9D5A96;}
	.st17{fill:#EA615D;}
	.st18{opacity:0.4;}
	.st19{fill:#F79932;}
	.st20{fill:#FFEC97;}
	.st21{fill:#FFD11D;}
	.st22{fill:#F7F2D5;}
	.st23{fill:#F6AF72;}
	.st24{fill:#BA6C45;}
	.st25{opacity:0.5;}
	.st26{fill:#E4C074;}
	.st27{fill:#656566;}
	.st28{fill:#FACD1F;}
	.st29{fill:#FFDF66;}
	.st30{fill:#6D6E71;}
	.st31{fill:#E77CAE;}
	.st32{fill:#FFE5C4;}
	.st33{fill:#F68455;}
	.st34{opacity:0.7;}
	.st35{fill:#ADEDFF;}
	.st36{fill:#EC754B;}
	.st37{fill:#4AA5BA;}
	.st38{opacity:0.8;}
	.st39{fill:#92A5AC;}
	.st40{fill:#D06E3C;}
	.st41{fill:#DA4F4B;}
	.st42{fill:#BDF3FF;}
	.st43{fill:#F18BB4;}
	.st44{fill:#F9D97A;}
	.st45{fill:none;}
	.st46{fill:#AF6535;}
	.st47{fill:#B93226;}
	.st48{fill:#FF6050;}
	.st49{fill:#EA7CB1;}
	.st50{fill:#00B0E0;}
	.st51{fill:#EA7DAE;}
	.st52{fill:#BC7532;}
	.st53{fill:#876C6C;}
	.st54{fill:#F9F6CD;}
	.st55{fill:#FFE37B;}
	.st56{fill:#1DDCFF;}
	.st57{fill:#60ACF7;}
	.st58{fill:#C3755A;}
	.st59{fill:#96557A;}
	.st60{fill:#66625D;}
	.st61{fill:#D68032;}
	.st62{fill:#F2A355;}
	.st63{fill:#7E9E6A;}
	.st64{fill:#965A85;}
	.st65{fill:#90CAD3;}
	.st66{fill:#94B57F;}
	.st67{fill:#B2E2E7;}
	.st68{fill:#FFDF8F;}
	.st69{fill:#FFFAEB;}
	.st70{fill:#F88916;}
	.st71{fill:#FFC86E;}
	.st72{fill:#AFA51D;}
	.st73{fill:#968A1C;}
	.st74{fill:#C3556D;}
</style>
<g>
	<g>
		<g>
			<path class="st0" d="M226.4,165.1l-8.2,31l-175.4,0l-10.6-33.9c2.5-1.1,5.2-2.5,7.8-4.5c6.1,10.1,15.8,12.1,28.7,6.7
				c19.3,8,37.6,6.7,55.2-1.7c19.7,8.3,35.4,9.7,43.8-1.1c13.3,6.4,25,7.2,34.6,0.3C211.7,164.2,219.7,165.2,226.4,165.1z"/>
		</g>
	</g>
	<g class="st8">
		<g>
			<path class="st1" d="M226.4,165.1l-8.2,31l-175.4,0l-2-6.3c0,0,140.8,3.2,160-3.7S226.4,165.1,226.4,165.1z"/>
		</g>
	</g>
	<g>
		<g>
			<path class="st1" d="M218.2,200.1C218.2,200.1,218.2,200.1,218.2,200.1l-175.4,0c-1.7,0-3.3-1.1-3.8-2.8l-10.6-33.9
				c-0.6-2,0.4-4.1,2.3-4.9c2.3-1,4.7-2.3,7-4c0.9-0.7,2-0.9,3.2-0.7c1.1,0.2,2.1,0.9,2.6,1.9c3.1,5.1,8.9,11.3,23.7,5.1
				c1-0.4,2.1-0.4,3.1,0c17.4,7.3,34.4,6.7,51.9-1.6c1-0.5,2.2-0.5,3.3-0.1c19.9,8.3,32.6,8.4,39.1,0.1c1.2-1.5,3.2-2,4.9-1.1
				c12.7,6.1,22.7,6.3,30.5,0.7c1-0.7,2.2-0.9,3.3-0.6c8.5,2.2,16.3,3.2,23.1,3.1c1.3,0,2.4,0.5,3.2,1.5c0.8,1,1,2.3,0.7,3.5
				l-8.2,31C221.6,198.9,220,200.1,218.2,200.1z M45.8,192.1l169.3,0l6.1-23.1c-5.6-0.3-11.7-1.2-18.2-2.8c-9.4,6-20.9,6.1-34.3,0.3
				c-9,8.9-23.7,9.1-44.7,0.6c-18.4,8.3-37,8.8-55.3,1.6c-15.3,5.9-24.4,1-29.7-5.5c-0.6,0.4-1.3,0.8-2,1.1L45.8,192.1z"/>
		</g>
	</g>
	<g>
		<g>
			<path class="st0" d="M226.6,132.4c0,23-197.4,23-197.4,0c0-59.1,188.8-60.4,197.1-3.9C226.5,129.7,226.6,131,226.6,132.4z"/>
		</g>
	</g>
	<g class="st10">
		<g>
			<path class="st7" d="M129.3,87c-49.8-0.3-100.2,14.8-100.2,45.3c0,3.7,5.2,6.9,14,9.4c0,0-7.5-9.4,8.8-27.4S129.3,87,129.3,87z"
				/>
		</g>
	</g>
	<g class="st8">
		<g>
			<path class="st1" d="M190.5,96.4c19.7,6.9,33.7,17.6,35.8,32.1c0.2,1.3,0.3,2.6,0.3,3.9c0,11.5-49.3,17.3-98.7,17.2
				c0,0,76.1-9.1,83.6-22.3S190.5,96.4,190.5,96.4z"/>
		</g>
	</g>
	<g class="st8">
		<g>
			<path class="st1" d="M226.4,175.9c0,0-14.8-0.8-24.1-3.2c-9.6,6.9-21.3,6.1-34.6-0.3c-8.4,10.8-24,9.4-43.8,1.1
				c-17.6,8.4-35.9,9.7-55.2,1.7c-12.9,5.4-28.7-6.7-28.7-6.7l-7.8,4.5l-3.1-29.8c0,0,197.4,23,197.4,0c0-1.3-0.1-2.6-0.3-3.9l0.3,0
				L226.4,175.9z"/>
		</g>
	</g>
	<g>
		<g>
			<path class="st3" d="M226.4,165.1c-6.7,0.1-14.8-0.8-24.1-3.2c-9.6,6.9-21.3,6.1-34.6-0.3c-8.4,10.8-24,9.4-43.8,1.1
				c-17.6,8.4-35.9,9.7-55.2,1.7c-12.9,5.4-22.6,3.4-28.7-6.7c-2.7,2-5.3,3.4-7.8,4.5c-27.5,11.6-45.2-25-3.1-29.8
				c0,23,197.4,23,197.4,0c0-1.3-0.1-2.6-0.3-3.9l0.3,0C261.1,137.5,260,164.5,226.4,165.1z"/>
		</g>
	</g>
	<g class="st10">
		<g>
			<path class="st7" d="M29.2,132.4c-42.1,4.8-24.4,41.4,3.1,29.8C10.6,168,9.4,134.7,29.2,132.4z"/>
		</g>
	</g>
	<g class="st8">
		<g>
			<path class="st1" d="M242,134.9c0,0-9.1-4.8-15.4-6.5l-0.3,0c0.2,1.3,0.2,2.6,0.3,3.9c0.6,10.4-105.6,18.3-105.6,18.3
				C169.7,155.3,216,157,242,134.9z"/>
		</g>
	</g>
	<g>
		<g>
			<path class="st1" d="M127.9,153.6C127.9,153.6,127.9,153.6,127.9,153.6c-26.1,0-50.4-1.6-68.5-4.4c-23.7-3.7-34.2-8.9-34.2-16.9
				c0-14,9.3-26.1,26.8-34.8c14.7-7.3,35.4-12.3,58.3-13.9c27.3-2,55.5,0.8,77.2,7.5c25.6,8,40.4,20.7,42.7,36.7
				c0.2,1.4,0.3,2.9,0.3,4.5l0,0c0,8-10.6,13.2-34.2,16.9C178.3,152.1,154,153.6,127.9,153.6z M127.6,91c-5.6,0-11.1,0.2-16.6,0.6
				c-57.4,4.2-77.8,24.6-77.8,40.7c0,0,1.8,5.1,28.2,9.1c17.6,2.7,41.2,4.1,66.4,4.2c0,0,0.1,0,0.1,0c25.2,0,48.7-1.5,66.4-4.1
				c26.4-4,28.3-9,28.3-9.1c0-1.1-0.1-2.2-0.2-3.3C218.7,104.3,173.1,91,127.6,91z M226.6,132.4L226.6,132.4L226.6,132.4z"/>
		</g>
	</g>
	<g>
		<g>
			<path class="st1" d="M94.5,173.7c-8.6,0-17.2-1.7-25.7-5c-15.3,5.9-24.4,1-29.7-5.5c-1.7,1.1-3.5,2-5.3,2.7
				c-12.3,5.2-22.4,1.7-27.8-3.3c-5.2-4.7-7.1-11.5-5.1-17.7c1.7-5.2,7.5-14.2,27.9-16.5c1.1-0.1,2.3,0.2,3.1,1s1.3,1.8,1.3,3
				c0,0,1.8,5.1,28.2,9.1c17.6,2.7,41.2,4.1,66.4,4.2c0,0,0.1,0,0.1,0c25.2,0,48.7-1.5,66.4-4.1c26.5-4,28.3-9.1,28.3-9.1
				c0-1.1-0.1-2.2-0.2-3.3c-0.2-1.1,0.1-2.3,0.9-3.2c0.7-0.9,1.8-1.4,3-1.4l0.3,0c0.4,0,0.8,0,1.1,0.1c22.6,5.9,29.4,18.2,28.4,26.9
				c-1.5,12.6-16.2,17.3-29.5,17.6c0,0,0,0,0,0c-7,0.1-14.9-0.8-23.4-2.9c-9.4,6-20.9,6.1-34.3,0.3c-9,8.9-23.7,9.1-44.7,0.6
				C114.2,171.5,104.3,173.7,94.5,173.7z M68.8,160.4c0.5,0,1,0.1,1.5,0.3c17.4,7.3,34.4,6.7,51.9-1.6c1-0.5,2.2-0.5,3.3-0.1
				c19.9,8.3,32.6,8.4,39.1,0.1c1.2-1.5,3.2-2,4.9-1.1c12.7,6.1,22.7,6.3,30.5,0.7c1-0.7,2.2-0.9,3.3-0.6c8.5,2.2,16.3,3.2,23.1,3.1
				l0,0c10.2-0.2,20.8-3.5,21.6-10.5c0.6-5.2-4.7-12.2-17.6-16.7c-1.2,7.2-11.9,12-34.1,15.4c-18.1,2.8-42.4,4.4-68.4,4.4
				c0,0,0,0,0,0c-26.1,0-50.4-1.6-68.5-4.4c-19-3-29.5-6.9-33-12.5c-13.8,2.3-17.2,8.1-18,10.6c-1,3.2,0.1,6.7,2.9,9.3
				c3.6,3.3,10.5,5.5,19.3,1.8c2.3-1,4.7-2.3,7-4c0.9-0.7,2-0.9,3.2-0.7c1.1,0.2,2.1,0.9,2.6,1.9c3.1,5.1,8.9,11.3,23.7,5.1
				C67.7,160.5,68.3,160.4,68.8,160.4z M226.4,165.1L226.4,165.1L226.4,165.1z"/>
		</g>
	</g>
	<g>
		<g>
			<line class="st7" x1="93.3" y1="114.1" x2="86.7" y2="123.6"/>
		</g>
		<g>
			<path class="st1" d="M86.7,127.6c-0.8,0-1.6-0.2-2.3-0.7c-1.8-1.3-2.3-3.8-1-5.6l6.6-9.5c1.3-1.8,3.8-2.3,5.6-1
				c1.8,1.3,2.3,3.8,1,5.6l-6.6,9.5C89.2,127,88,127.6,86.7,127.6z"/>
		</g>
	</g>
	<g>
		<g>
			<line class="st7" x1="131.7" y1="117.2" x2="131.7" y2="128.5"/>
		</g>
		<g>
			<path class="st1" d="M131.7,132.5L131.7,132.5c-2.2,0-4-1.8-4-4l0-11.3c0-2.2,1.8-4,4-4l0,0c2.2,0,4,1.8,4,4l0,11.3
				C135.7,130.7,133.9,132.5,131.7,132.5z"/>
		</g>
	</g>
	<g>
		<g>
			<line class="st7" x1="170.1" y1="112.9" x2="178.9" y2="121.7"/>
		</g>
		<g>
			<path class="st1" d="M178.9,125.7c-1,0-2-0.4-2.8-1.2l-8.8-8.8c-1.6-1.6-1.6-4.1,0-5.7c1.6-1.6,4.1-1.6,5.7,0l8.8,8.8
				c1.6,1.6,1.6,4.1,0,5.7C181,125.3,179.9,125.7,178.9,125.7z"/>
		</g>
	</g>
	<g>
		<g>
			<ellipse class="st4" cx="131.7" cy="80.7" rx="11.8" ry="11.8"/>
		</g>
	</g>
	<g class="st8">
		<g>
			<path class="st1" d="M140,72.3c2.2,2.1,3.5,5.1,3.5,8.4c0,6.5-5.3,11.8-11.8,11.8c-3.7,0-7-1.7-9.2-4.4c0,0,8.2-0.6,12.3-3.6
				C138.8,81.7,140,72.3,140,72.3z"/>
		</g>
	</g>
	<g>
		<g>
			<path class="st1" d="M131.7,96.6c-4.2,0-8.2-1.6-11.2-4.6c-3-3-4.6-7-4.6-11.2c0-8.7,7.1-15.8,15.8-15.8c4.2,0,8.2,1.6,11.2,4.6
				c3,3,4.6,7,4.6,11.2C147.5,89.5,140.4,96.6,131.7,96.6z M131.7,72.9c-4.3,0-7.8,3.5-7.8,7.8c0,2.1,0.8,4.1,2.3,5.5
				c1.5,1.5,3.5,2.3,5.6,2.3c4.3,0,7.8-3.5,7.8-7.8c0-2.1-0.8-4.1-2.3-5.5C135.7,73.7,133.8,72.9,131.7,72.9z"/>
		</g>
	</g>
	<g>
		<g>
			<path class="st7" d="M131.7,68.9c0,0,5.3-9.7,11.8-9"/>
		</g>
		<g>
			<path class="st1" d="M131.7,72.9c-0.6,0-1.3-0.2-1.9-0.5c-1.9-1.1-2.7-3.5-1.6-5.4c0.7-1.2,6.8-12.1,15.8-11.1
				c2.2,0.2,3.8,2.2,3.6,4.4s-2.2,3.8-4.4,3.6c-2.7-0.3-6.5,4.4-7.9,7C134.4,72.2,133.1,72.9,131.7,72.9z"/>
		</g>
	</g>
	<g class="st8">
		<g>
			<path class="st1" d="M124.6,93.9c0,0,14.9,5.5,20.4,0.1c5.6-5.4-0.8-10.2-0.8-10.2"/>
		</g>
	</g>
</g>
</svg>
