<?xml version="1.0" encoding="utf-8"?>
<!-- Generator: Adobe Illustrator 22.1.0, SVG Export Plug-In . SVG Version: 6.00 Build 0)  -->
<svg version="1.1" id="Layer_1" xmlns="http://www.w3.org/2000/svg" xmlns:xlink="http://www.w3.org/1999/xlink" x="0px" y="0px"
	 viewBox="0 0 256 256" style="enable-background:new 0 0 256 256;" xml:space="preserve">
<style type="text/css">
	.st0{fill:#F5B31F;}
	.st1{fill:#464646;}
	.st2{opacity:0.15;}
	.st3{fill:#AC6535;}
	.st4{fill:#EB573B;}
	.st5{fill:#90C056;}
	.st6{opacity:0.35;}
	.st7{fill:#FFFFFF;}
	.st8{opacity:0.2;}
	.st9{fill:#F6D67A;}
	.st10{opacity:0.3;}
	.st11{fill:#FFA755;}
	.st12{fill:#8FAE3C;}
	.st13{fill:#BE6BB2;}
	.st14{fill:#B7C536;}
	.st15{opacity:0.1;}
	.st16{fill:#9D5A96;}
	.st17{fill:#EA615D;}
	.st18{opacity:0.4;}
	.st19{fill:#F79932;}
	.st20{fill:#FFEC97;}
	.st21{fill:#FFD11D;}
	.st22{fill:#F7F2D5;}
	.st23{fill:#F6AF72;}
	.st24{fill:#BA6C45;}
	.st25{opacity:0.5;}
	.st26{fill:#E4C074;}
	.st27{fill:#656566;}
	.st28{fill:#FACD1F;}
	.st29{fill:#FFDF66;}
	.st30{fill:#6D6E71;}
	.st31{fill:#E77CAE;}
	.st32{fill:#FFE5C4;}
	.st33{fill:#F68455;}
	.st34{opacity:0.7;}
	.st35{fill:#ADEDFF;}
	.st36{fill:#EC754B;}
	.st37{fill:#4AA5BA;}
	.st38{opacity:0.8;}
	.st39{fill:#92A5AC;}
	.st40{fill:#D06E3C;}
	.st41{fill:#DA4F4B;}
	.st42{fill:#BDF3FF;}
	.st43{fill:#F18BB4;}
	.st44{fill:#F9D97A;}
	.st45{fill:none;}
	.st46{fill:#AF6535;}
	.st47{fill:#B93226;}
	.st48{fill:#FF6050;}
	.st49{fill:#EA7CB1;}
	.st50{fill:#00B0E0;}
	.st51{fill:#EA7DAE;}
	.st52{fill:#BC7532;}
	.st53{fill:#876C6C;}
	.st54{fill:#F9F6CD;}
	.st55{fill:#FFE37B;}
	.st56{fill:#1DDCFF;}
	.st57{fill:#60ACF7;}
	.st58{fill:#C3755A;}
	.st59{fill:#96557A;}
	.st60{fill:#66625D;}
	.st61{fill:#D68032;}
	.st62{fill:#F2A355;}
	.st63{fill:#7E9E6A;}
	.st64{fill:#965A85;}
	.st65{fill:#90CAD3;}
	.st66{fill:#94B57F;}
	.st67{fill:#B2E2E7;}
	.st68{fill:#FFDF8F;}
	.st69{fill:#FFFAEB;}
	.st70{fill:#F88916;}
	.st71{fill:#FFC86E;}
	.st72{fill:#AFA51D;}
	.st73{fill:#968A1C;}
	.st74{fill:#C3556D;}
</style>
<g>
	<g>
		<g>
			<path class="st12" d="M205.7,108.6c0,0,4.8-28.5,8.7-34.4c4-5.9,35.8-43.4,34.1-49.5s-2.9-12.1-8.1-15.8c-5.2-3.8-9.9-7.2-13-3
				s9.6,5.5,10.1,17.7c-0.5,20.9-52.6,52.3-52.6,52.3c7,4.5,4.9,12.6,8.3,18C196.8,99.3,203,95.9,205.7,108.6z"/>
		</g>
	</g>
	<g>
		<g>
			<path class="st4" d="M13.2,236.1c-12.5,7.9-3,17.2,9.2,15.5c87.1-13,98.1-39.4,111.5-54.2c13.4-14.8,69.1-60.5,71.1-83.4
				c0.6-6.2,1.9-9.2,1.4-13.2c-0.4-4-2.4-7.4-7-6.2s-7,12.1-7,12.1c-2,0.7-1.9-12.5-2.1-25c-0.2-12-12.2-2.3-15.7-3.5
				c-23.9-4.6-63.4,66.3-78.1,96.3S13.2,236.1,13.2,236.1z"/>
		</g>
	</g>
	<g class="st10">
		<g>
			<path class="st7" d="M190.2,81.7c-0.2-12-12.2-2.3-15.7-3.5c-23.9-4.6-65.4,74.9-80,104.9c0,0,46.3-68.6,64-84.1
				S190.2,81.7,190.2,81.7z"/>
		</g>
	</g>
	<g class="st15">
		<g>
			<path d="M192.3,106.7c0,0,2.4-10.8,7-12.1s6.6,2.2,7,6.2c0.4,4-0.9,7-1.4,13.2c-2,23-57.7,68.6-71.1,83.4
				c-13.4,14.8-24.4,41.2-111.5,54.2c-12.2,1.7-21.7-7.6-9.2-15.5c0,0,30.5,16.9,108.4-43.5S192.3,106.7,192.3,106.7z"/>
		</g>
	</g>
	<g>
		<g>
			<path class="st1" d="M19.4,255.9c-7.3,0-13.6-3.3-15.5-8.5c-0.9-2.4-2-8.7,7.2-14.6c0.2-0.1,0.3-0.2,0.5-0.3
				c0.2-0.1,17.2-8,35.8-19.4c24.2-14.8,39.9-28.8,45.6-40.3c4-8.2,18.3-36.7,35.9-61.7c19.1-27.1,34.3-39.2,46.5-36.8
				c0,0,0.1,0,0.1,0c0.6-0.1,2-0.6,2.9-0.9c3.5-1.3,8.4-3,12.2-0.4c2.4,1.6,3.6,4.5,3.7,8.6c0,1.8,0.1,3.6,0.1,5.4
				c0,1.9,0.1,4.1,0.1,6.2c1.1-1.1,2.4-2,4-2.4c3.6-1,6.2,0,7.6,1.1c2.4,1.7,4,4.6,4.4,8.6c0.3,3-0.1,5.4-0.6,8.2
				c-0.3,1.7-0.6,3.5-0.8,5.8c-1.5,17.4-27.5,43.2-56.4,70.4c-6.7,6.3-12.6,11.8-15.7,15.3c-1.5,1.7-3.1,3.6-4.7,5.6
				c-12.3,15.2-30.9,38.2-109.2,49.9C21.7,255.8,20.6,255.9,19.4,255.9z M15.1,239.7c-2.7,1.8-4.2,3.7-3.7,4.9
				c0.7,1.8,4.8,3.9,10.4,3.1c75.2-11.2,91.9-31.9,104.1-47c1.7-2.1,3.3-4.1,5-5.9c3.4-3.7,9.3-9.3,16.2-15.8
				c19.7-18.5,52.5-49.5,53.9-65.3c0.3-2.7,0.6-4.7,0.9-6.5c0.4-2.4,0.7-4.1,0.5-5.9c-0.2-1.9-0.8-2.7-1-2.8
				c-0.1-0.1-0.4-0.1-1.1,0.1c-1.2,0.5-3.3,5-4.2,9.1c-0.3,1.4-1.3,2.5-2.6,2.9c-1.4,0.5-2.8,0.3-4-0.6c-2.8-2-3.1-5.8-3.3-22.8
				c0-1.8-0.1-3.6-0.1-5.3c0-1.3-0.2-1.9-0.3-2.1c-1-0.1-3.6,0.8-4.9,1.3c-2.6,0.9-5.1,1.8-7.4,1.2c-16.6-2.8-50.2,46.3-73.5,94.2
				C85.3,206.6,20.5,237.2,15.1,239.7z M175.8,74.5C175.8,74.5,175.9,74.5,175.8,74.5C175.9,74.5,175.8,74.5,175.8,74.5z"/>
		</g>
	</g>
	<g>
		<g>
			<path class="st1" d="M205.7,112.6c-0.2,0-0.4,0-0.7-0.1c-2.2-0.4-3.6-2.4-3.3-4.6c0.8-4.9,5.1-29.7,9.4-36c1.1-1.6,3.8-5,7.5-9.7
				c6.9-8.7,25-31.6,26-36.9l-0.3-1.1c-1.4-5.1-2.6-9.5-6.2-12.1c-0.7-0.5-1.7-1.3-2.7-1.9c2.9,2.7,5.9,6.8,6.1,13.2
				c0,0.1,0,0.2,0,0.3c-0.3,9.9-9.7,22.4-28,37c-13.1,10.5-26,18.3-26.5,18.6c-1.9,1.1-4.3,0.5-5.5-1.4c-1.1-1.9-0.5-4.3,1.4-5.5
				c19.4-11.7,50.2-35.2,50.7-48.8c-0.2-5-3.2-7.4-6-9.6c-2.1-1.7-6.9-5.5-3.2-10.4c5.5-7.4,13.4-1.6,18.6,2.2
				c5.9,4.3,7.6,10.5,9.2,16.5l0.4,1.5c1.4,5.1-4.5,14.5-27.6,43.6c-3.3,4.2-6.2,7.8-7.1,9.2c-2.4,3.6-6.2,21.4-8.1,32.9
				C209.3,111.2,207.6,112.6,205.7,112.6z M244.7,25.7C244.7,25.7,244.7,25.7,244.7,25.7L244.7,25.7z"/>
		</g>
	</g>
	<g>
		<g>
			<path class="st1" d="M141.4,127.6c-0.8,0-1.5-0.2-2.2-0.7c-1.8-1.2-2.3-3.7-1.1-5.5c9.9-14.9,20.7-29.9,32.7-35
				c2-0.9,4.4,0.1,5.2,2.1c0.9,2-0.1,4.4-2.1,5.2c-10,4.3-20.3,18.8-29.2,32.1C143.9,127,142.7,127.6,141.4,127.6z"/>
		</g>
	</g>
</g>
</svg>
