<?xml version="1.0" encoding="utf-8"?>
<!-- Generator: Adobe Illustrator 22.1.0, SVG Export Plug-In . SVG Version: 6.00 Build 0)  -->
<svg version="1.1" id="Layer_1" xmlns="http://www.w3.org/2000/svg" xmlns:xlink="http://www.w3.org/1999/xlink" x="0px" y="0px"
	 viewBox="0 0 256 256" style="enable-background:new 0 0 256 256;" xml:space="preserve">
<style type="text/css">
	.st0{fill:#F5B31F;}
	.st1{fill:#464646;}
	.st2{opacity:0.15;}
	.st3{fill:#AC6535;}
	.st4{fill:#EB573B;}
	.st5{fill:#90C056;}
	.st6{opacity:0.35;}
	.st7{fill:#FFFFFF;}
	.st8{opacity:0.2;}
	.st9{fill:#F6D67A;}
	.st10{opacity:0.3;}
	.st11{fill:#FFA755;}
	.st12{fill:#8FAE3C;}
	.st13{fill:#BE6BB2;}
	.st14{fill:#B7C536;}
	.st15{opacity:0.1;}
	.st16{fill:#9D5A96;}
	.st17{fill:#EA615D;}
	.st18{opacity:0.4;}
	.st19{fill:#F79932;}
	.st20{fill:#FFEC97;}
	.st21{fill:#FFD11D;}
	.st22{fill:#F7F2D5;}
	.st23{fill:#F6AF72;}
	.st24{fill:#BA6C45;}
	.st25{opacity:0.5;}
	.st26{fill:#E4C074;}
	.st27{fill:#656566;}
	.st28{fill:#FACD1F;}
	.st29{fill:#FFDF66;}
	.st30{fill:#6D6E71;}
	.st31{fill:#E77CAE;}
	.st32{fill:#FFE5C4;}
	.st33{fill:#F68455;}
	.st34{opacity:0.7;}
	.st35{fill:#ADEDFF;}
	.st36{fill:#EC754B;}
	.st37{fill:#4AA5BA;}
	.st38{opacity:0.8;}
	.st39{fill:#92A5AC;}
	.st40{fill:#D06E3C;}
	.st41{fill:#DA4F4B;}
	.st42{fill:#BDF3FF;}
	.st43{fill:#F18BB4;}
	.st44{fill:#F9D97A;}
	.st45{fill:none;}
	.st46{fill:#AF6535;}
	.st47{fill:#B93226;}
	.st48{fill:#FF6050;}
	.st49{fill:#EA7CB1;}
	.st50{fill:#00B0E0;}
	.st51{fill:#EA7DAE;}
	.st52{fill:#BC7532;}
	.st53{fill:#876C6C;}
	.st54{fill:#F9F6CD;}
	.st55{fill:#FFE37B;}
	.st56{fill:#1DDCFF;}
	.st57{fill:#60ACF7;}
	.st58{fill:#C3755A;}
	.st59{fill:#96557A;}
	.st60{fill:#66625D;}
	.st61{fill:#D68032;}
	.st62{fill:#F2A355;}
	.st63{fill:#7E9E6A;}
	.st64{fill:#965A85;}
	.st65{fill:#90CAD3;}
	.st66{fill:#94B57F;}
	.st67{fill:#B2E2E7;}
	.st68{fill:#FFDF8F;}
	.st69{fill:#FFFAEB;}
	.st70{fill:#F88916;}
	.st71{fill:#FFC86E;}
	.st72{fill:#AFA51D;}
	.st73{fill:#968A1C;}
	.st74{fill:#C3556D;}
</style>
<g>
	<g>
		<g>
			<g>
				<path class="st0" d="M128,4.1C59.6,4.1,4.1,59.6,4.1,128.1c0,68.5,55.5,124,123.9,124c68.4,0,123.9-55.5,123.9-124
					S196.4,4.1,128,4.1z M230.2,170.8c-1.7,4.3-12.4,10.9-15,15.9c-2.6,5-7.3,17.1-10.9,20.2c-3.6,3.1-14.3,4-19.2,7.8
					c-4.8,3.8-12.1,13.5-17.6,15.6c-5.5,2.1-14.7-1.2-19.2,0c-4.5,1.2-15.9,8.3-20.4,8.3c-4.5,0-15.9-7.1-20.4-8.3
					c-4.5-1.2-13.6,2.1-19.2,0c-5.5-2.1-12.8-11.8-17.6-15.6c-4.8-3.8-15.5-4.7-19.2-7.8c-3.6-3.1-8.3-15.2-10.9-20.2
					c-2.6-5-13.3-11.6-15-15.9c-1.7-4.3,0-18.3-0.2-22.1c-0.2-3.8-6.6-13.7-6.6-20.6c0-6.9,6.4-16.8,6.6-20.6
					c0.2-3.8-1.6-17.8,0.2-22.1c1.7-4.3,12.4-10.9,15-15.9c2.6-5,7.3-17.1,10.9-20.2c3.6-3.1,14.3-4,19.2-7.8
					C75.7,37.7,83,28,88.5,26c5.5-2.1,14.7,1.2,19.2,0c4.5-1.2,15.9-8.3,20.4-8.3c4.5,0,15.9,7.1,20.4,8.3c4.5,1.2,13.6-2.1,19.2,0
					c5.5,2.1,12.8,11.8,17.6,15.6c4.8,3.8,15.5,4.7,19.2,7.8c3.6,3.1,8.3,15.2,10.9,20.2c2.6,5,13.3,11.6,15,15.9
					c1.7,4.3,0,18.3,0.2,22.1c0.2,3.8,6.6,13.7,6.6,20.6s-6.4,16.8-6.6,20.6C230.2,152.5,231.9,166.5,230.2,170.8z"/>
			</g>
		</g>
	</g>
	<g>
		<g>
			<g>
				<path class="st9" d="M230.4,148.7c0.2-3.8,6.6-13.6,6.6-20.6s-6.4-16.8-6.6-20.6c-0.2-3.8,1.5-17.8-0.2-22.1
					c-1.7-4.3-12.4-10.9-15-15.9c-2.6-5-7.3-17.1-10.9-20.2c-3.6-3.1-14.3-4-19.2-7.8c-4.8-3.8-12.1-13.5-17.6-15.6
					c-5.5-2.1-14.7,1.2-19.2,0c-4.5-1.2-15.9-8.3-20.4-8.3c-4.5,0-15.9,7.1-20.4,8.3c-4.5,1.2-13.6-2.1-19.2,0
					C83,28,75.7,37.7,70.9,41.5c-4.8,3.8-15.5,4.7-19.2,7.8c-3.6,3.1-8.3,15.2-10.9,20.2c-2.6,5-13.3,11.6-15,15.9
					c-1.7,4.3,0,18.3-0.2,22.1c-0.2,3.8-6.6,13.6-6.6,20.6c0,6.9,6.4,16.8,6.6,20.6c0.2,3.8-1.6,17.8,0.2,22.1
					c1.7,4.3,12.4,10.9,15,15.9c2.6,5,7.3,17.1,10.9,20.2c3.6,3.1,14.3,4,19.2,7.8c4.8,3.8,12.1,13.5,17.6,15.6
					c5.5,2.1,14.7-1.2,19.2,0c4.5,1.2,15.9,8.3,20.4,8.3c4.5,0,15.9-7.1,20.4-8.3c4.5-1.2,13.6,2.1,19.2,0
					c5.5-2.1,12.8-11.8,17.6-15.6c4.8-3.8,15.5-4.7,19.2-7.8c3.6-3.1,8.3-15.2,10.9-20.2c2.6-5,13.3-11.6,15-15.9
					C231.9,166.5,230.2,152.5,230.4,148.7z M68.3,126c-2.4,0-5.3,5-7,5c-1.8,0-7.8-5.5-7.8-7.6c0-2.1,6.8-4,6.8-6.2
					c0-2.3-4.3-5.6-4.3-5.6c15-15.4,33,2.1,18,17.6C74,129.2,70.7,126,68.3,126z M89.3,172.1c-5.9,0-10.6-4.8-10.6-10.7
					c0-5.9,4.8-10.7,10.6-10.7c5.9,0,10.6,4.8,10.6,10.7C99.9,167.4,95.2,172.1,89.3,172.1z M104.4,76.8c-8.4,0-15.2-6.8-15.2-15.2
					s6.8-15.2,15.2-15.2c8.4,0,15.2,6.8,15.2,15.2S112.8,76.8,104.4,76.8z M129.5,145.1c0-7.8,6.3-14,14-14c7.7,0,14,6.3,14,14
					c0,7.8-6.3,14-14,14C135.8,159.1,129.5,152.8,129.5,145.1z M134.8,201.3c0,0,3.6-2.8,3.9-5.2c0.3-2.4-4.2-6-3.9-7.7
					c0.3-1.7,6.5-6.9,8.7-6.6c2.1,0.3,2.9,7.3,5.2,7.6c2.2,0.3,6.1-3.4,6.1-3.4C167.8,203,147.8,218.4,134.8,201.3z M143,87.5
					c0,0,3.9,2.4,6.3,1.9c2.4-0.5,4.1-6,5.8-6.4c1.7-0.4,8.8,3.7,9.2,5.8c0.5,2.1-5.8,5.3-5.3,7.5c0.5,2.2,5.4,4.5,5.4,4.5
					C153.1,119,131.7,105.8,143,87.5z M191.3,161.5c-5.9,0-10.6-4.8-10.6-10.7c0-5.9,4.8-10.7,10.6-10.7c5.9,0,10.6,4.8,10.6,10.7
					C202,156.7,197.2,161.5,191.3,161.5z M199.3,101.9c-5.9,0-10.6-4.8-10.6-10.7c0-5.9,4.8-10.7,10.6-10.7s10.6,4.8,10.6,10.7
					C209.9,97.1,205.1,101.9,199.3,101.9z"/>
			</g>
		</g>
	</g>
	<g>
		<g>
			<g>
				<path class="st1" d="M128,256.1C128,256.1,128,256.1,128,256.1c-70.5,0-127.9-57.4-127.9-128c0-70.6,57.4-128,127.9-128
					c0,0,0,0,0,0c70.5,0,127.9,57.4,127.9,128c0,34.2-13.3,66.3-37.5,90.5C194.3,242.8,162.1,256.1,128,256.1z M128,8.1
					C61.9,8.1,8.1,61.9,8.1,128.1c0,66.2,53.8,120,119.9,120c0,0,0,0,0,0c32,0,62.1-12.5,84.7-35.1c22.6-22.7,35.1-52.8,35.1-84.9
					C247.9,62,194.1,8.1,128,8.1L128,8.1z M128,242.6c-3.4,0-7.8-2.1-14.2-5.2c-2.8-1.4-5.7-2.8-7.2-3.2c-1.3-0.3-4,0-6.5,0.3
					c-4.2,0.5-9,1.1-13-0.4c-4.3-1.6-8.7-6.2-13-10.6c-2.1-2.2-4.1-4.3-5.7-5.5c-1.9-1.5-5.7-2.6-9.1-3.6c-4-1.2-7.8-2.3-10.2-4.3
					c-3.1-2.6-5.8-8.3-9.3-16.1c-0.9-2-1.8-4-2.5-5.3c-0.9-1.8-4.2-4.7-6.9-7c-3.8-3.3-7.1-6.2-8.3-9.3c-1.4-3.5-1.2-10-0.7-18
					c0.1-2.3,0.3-4.5,0.2-5.4c-0.1-0.9-1.3-3.7-2.2-5.7c-2.1-4.7-4.4-10.1-4.4-15c0-4.9,2.4-10.5,4.4-15c0.9-2,2.1-4.9,2.2-5.7
					c0-0.9-0.1-3.1-0.2-5.4c-0.5-8.1-0.7-14.5,0.7-18c1.2-3.1,4.5-5.9,8.3-9.3c2.6-2.3,5.9-5.2,6.9-7c0.7-1.3,1.5-3.2,2.5-5.3
					c3.5-7.8,6.3-13.5,9.4-16.2c2.4-2.1,6.2-3.2,10.2-4.3c3.4-1,7.2-2.1,9.1-3.6c1.5-1.2,3.5-3.3,5.7-5.5c4.3-4.4,8.7-9,13-10.7
					c4-1.5,8.8-0.9,13-0.4c2.5,0.3,5.3,0.6,6.5,0.3c1.4-0.4,4.3-1.8,7.2-3.2c6.4-3.2,10.9-5.2,14.2-5.2c3.4,0,7.8,2.1,14.3,5.2
					c2.8,1.4,5.7,2.8,7.1,3.2c1.2,0.3,4,0,6.5-0.3c4.2-0.5,9-1.1,13,0.4c4.4,1.6,8.8,6.2,13,10.7c2.1,2.2,4.1,4.3,5.7,5.5
					c1.9,1.5,5.7,2.6,9.1,3.6c4,1.2,7.8,2.3,10.2,4.3c3.1,2.6,5.8,8.4,9.4,16.2c0.9,2,1.8,4,2.5,5.2c0.9,1.8,4.2,4.7,6.8,7
					c3.8,3.3,7.1,6.2,8.3,9.3c1.4,3.5,1.2,9.9,0.7,17.9c-0.1,2.3-0.3,4.5-0.2,5.5c0.1,0.9,1.3,3.7,2.2,5.8c2.1,4.7,4.4,10.1,4.4,15
					c0,4.9-2.3,10.3-4.4,15c-0.9,2.1-2.1,4.9-2.2,5.8c0,1,0.1,3.2,0.2,5.5c0.5,8,0.7,14.4-0.7,17.9c0,0,0,0,0,0
					c-1.2,3.1-4.5,5.9-8.3,9.3c-2.6,2.3-5.9,5.2-6.9,7c-0.7,1.3-1.5,3.2-2.5,5.3c-3.6,7.8-6.3,13.5-9.4,16.2
					c-2.4,2.1-6.2,3.2-10.2,4.3c-3.4,1-7.2,2.1-9.1,3.6c-1.5,1.2-3.5,3.3-5.6,5.5c-4.3,4.4-8.7,9-13,10.7c-4,1.5-8.8,0.9-13,0.4
					c-2.5-0.3-5.3-0.6-6.5-0.3c-1.4,0.4-4.3,1.8-7.1,3.2C135.8,240.5,131.3,242.6,128,242.6z M105.1,226c1.3,0,2.5,0.1,3.6,0.4
					c2.2,0.6,5.1,2,8.6,3.7c3.4,1.6,9,4.4,10.7,4.4c1.7,0,7.4-2.8,10.7-4.4c3.4-1.7,6.4-3.1,8.6-3.7c2.7-0.7,6-0.3,9.5,0.1
					c3.3,0.4,7.1,0.9,9.3,0c2.7-1,6.8-5.3,10.1-8.7c2.3-2.4,4.5-4.7,6.5-6.2c3.1-2.5,7.5-3.7,11.8-5c2.7-0.8,6.1-1.8,7.2-2.7
					c1.9-1.7,5.3-9,7.3-13.4c1-2.2,1.9-4.1,2.6-5.6c1.6-3.2,5.2-6.3,8.7-9.3c2.2-2,5.6-4.9,6.2-6.2c0.9-2.2,0.4-10.5,0.1-14.5
					c-0.2-2.8-0.3-4.9-0.2-6.3c0.1-2.3,1.3-5.1,2.8-8.6c1.7-3.8,3.7-8.6,3.7-11.8s-2.1-8-3.7-11.8c-1.5-3.5-2.7-6.3-2.8-8.6
					c-0.1-1.4,0.1-3.6,0.2-6.3c0.2-4,0.7-12.3-0.1-14.5c-0.5-1.3-3.9-4.3-6.2-6.2c-3.5-3-7.1-6.2-8.7-9.3c-0.8-1.5-1.6-3.4-2.6-5.6
					c-2-4.4-5.3-11.7-7.3-13.4c-1.1-0.9-4.5-1.9-7.2-2.7c-4.3-1.2-8.7-2.5-11.8-5c-2-1.6-4.2-3.8-6.5-6.3c-3.3-3.4-7.4-7.7-10.1-8.7
					c-2.2-0.8-5.9-0.4-9.3,0c-3.5,0.4-6.8,0.8-9.5,0.1c-2.2-0.6-5.1-2-8.6-3.7c-3.4-1.7-9-4.4-10.7-4.4c-1.7,0-7.4,2.8-10.7,4.4
					c-3.4,1.7-6.4,3.2-8.6,3.7c-2.7,0.7-6,0.3-9.5-0.1c-3.3-0.4-7.1-0.9-9.3,0c-2.6,1-6.8,5.3-10.1,8.7c-2.3,2.4-4.5,4.7-6.5,6.2
					c-3.1,2.5-7.6,3.7-11.8,5c-2.7,0.8-6.1,1.8-7.2,2.7c-1.9,1.7-5.3,9-7.3,13.4c-1,2.2-1.9,4.1-2.7,5.6c-1.6,3.2-5.2,6.3-8.7,9.3
					c-2.2,2-5.7,4.9-6.2,6.2c-0.9,2.2-0.4,10.6-0.1,14.6c0.2,2.7,0.3,4.8,0.2,6.2c-0.1,2.3-1.3,5.1-2.8,8.6
					c-1.7,3.8-3.7,8.6-3.7,11.8c0,3.2,2.1,8,3.7,11.8c1.5,3.5,2.7,6.3,2.8,8.6c0.1,1.4-0.1,3.5-0.2,6.3c-0.2,4-0.7,12.4,0.1,14.5
					c0.5,1.3,3.9,4.2,6.2,6.2c3.5,3,7.1,6.2,8.7,9.3c0.8,1.5,1.6,3.4,2.7,5.6c2,4.4,5.3,11.7,7.3,13.4c1.1,0.9,4.5,1.9,7.2,2.7
					c4.3,1.2,8.7,2.5,11.8,5c2,1.6,4.2,3.8,6.5,6.3c3.3,3.4,7.4,7.7,10,8.7c2.2,0.8,5.9,0.4,9.3,0C101.2,226.2,103.2,226,105.1,226z
					 M230.2,170.8L230.2,170.8L230.2,170.8z"/>
			</g>
		</g>
	</g>
	<g>
		<g>
			<g>
				<path class="st1" d="M128,242.6c-3.4,0-7.8-2.1-14.2-5.2c-2.8-1.4-5.7-2.8-7.2-3.2c-1.3-0.3-4,0-6.5,0.3c-4.2,0.5-9,1.1-13-0.4
					c-4.3-1.6-8.7-6.2-13-10.6c-2.1-2.2-4.1-4.3-5.7-5.5c-1.9-1.5-5.7-2.6-9.1-3.6c-4-1.2-7.8-2.3-10.2-4.3
					c-3.1-2.6-5.8-8.3-9.3-16.1c-0.9-2-1.8-4-2.5-5.3c-0.9-1.8-4.2-4.7-6.9-7c-3.8-3.3-7.1-6.2-8.3-9.3c-1.4-3.5-1.2-10-0.7-18
					c0.1-2.3,0.3-4.5,0.2-5.4c-0.1-0.9-1.3-3.7-2.2-5.7c-2.1-4.7-4.4-10.1-4.4-15c0-4.9,2.4-10.5,4.4-15c0.9-2,2.1-4.9,2.2-5.7
					c0-0.9-0.1-3.1-0.2-5.4c-0.5-8.1-0.7-14.5,0.7-18c1.2-3.1,4.5-5.9,8.3-9.3c2.6-2.3,5.9-5.2,6.9-7c0.7-1.3,1.5-3.2,2.5-5.3
					c3.5-7.8,6.3-13.5,9.4-16.2c2.4-2.1,6.2-3.2,10.2-4.3c3.4-1,7.2-2.1,9.1-3.6c1.5-1.2,3.5-3.3,5.7-5.5c4.3-4.4,8.7-9,13-10.7
					c4-1.5,8.8-0.9,13-0.4c2.5,0.3,5.3,0.6,6.5,0.3c1.4-0.4,4.3-1.8,7.2-3.2c6.4-3.2,10.9-5.2,14.2-5.2c3.4,0,7.8,2.1,14.3,5.2
					c2.8,1.4,5.7,2.8,7.1,3.2c1.2,0.3,4,0,6.5-0.3c4.2-0.5,9-1.1,13,0.4c4.4,1.6,8.8,6.2,13,10.7c2.1,2.2,4.1,4.3,5.7,5.5
					c1.9,1.5,5.7,2.6,9.1,3.6c4,1.2,7.8,2.3,10.2,4.3c3.1,2.6,5.8,8.4,9.4,16.2c0.9,2,1.8,4,2.5,5.2c0.9,1.8,4.2,4.7,6.8,7
					c3.8,3.3,7.1,6.2,8.3,9.3c1.4,3.5,1.2,9.9,0.7,17.9c-0.1,2.3-0.3,4.5-0.2,5.5c0.1,0.9,1.3,3.7,2.2,5.8c2.1,4.7,4.4,10.1,4.4,15
					c0,4.9-2.3,10.3-4.4,15c-0.9,2.1-2.1,4.9-2.2,5.8l-4-0.2l4,0.2c0,1,0.1,3.2,0.2,5.5c0.5,8,0.7,14.4-0.7,17.9
					c-1.2,3.1-4.5,5.9-8.3,9.3c-2.6,2.3-5.9,5.2-6.9,7c-0.7,1.3-1.5,3.2-2.5,5.3c-3.6,7.8-6.3,13.5-9.4,16.2
					c-2.4,2.1-6.2,3.2-10.2,4.3c-3.4,1-7.2,2.1-9.1,3.6c-1.5,1.2-3.5,3.3-5.6,5.5c-4.3,4.4-8.7,9-13,10.7c-4,1.5-8.8,0.9-13,0.4
					c-2.5-0.3-5.3-0.6-6.5-0.3c-1.4,0.4-4.3,1.8-7.1,3.2C135.8,240.5,131.3,242.6,128,242.6z M105.1,226c1.3,0,2.5,0.1,3.6,0.4
					c2.2,0.6,5.1,2,8.6,3.7c3.4,1.6,9,4.4,10.7,4.4c1.7,0,7.4-2.8,10.7-4.4c3.4-1.7,6.4-3.1,8.6-3.7c2.7-0.7,6-0.3,9.5,0.1
					c3.3,0.4,7.1,0.9,9.3,0c2.7-1,6.8-5.3,10.1-8.7c2.3-2.4,4.5-4.7,6.5-6.2c3.1-2.5,7.5-3.7,11.8-5c2.7-0.8,6.1-1.8,7.2-2.7
					c1.9-1.7,5.3-9,7.3-13.4c1-2.2,1.9-4.1,2.6-5.6c1.6-3.2,5.2-6.3,8.7-9.3c2.2-2,5.6-4.9,6.2-6.2c0.9-2.1,0.4-10.5,0.1-14.5
					c-0.2-2.8-0.3-4.9-0.2-6.3c0.1-2.3,1.3-5.1,2.8-8.6c1.7-3.8,3.7-8.6,3.7-11.8s-2.1-8-3.7-11.8c-1.5-3.5-2.7-6.3-2.8-8.6
					c-0.1-1.4,0.1-3.6,0.2-6.3c0.2-4,0.7-12.3-0.1-14.5c-0.5-1.3-3.9-4.3-6.2-6.2c-3.5-3-7.1-6.2-8.7-9.3c-0.8-1.5-1.6-3.4-2.6-5.6
					c-2-4.4-5.3-11.7-7.3-13.4c-1.1-0.9-4.5-1.9-7.2-2.7c-4.3-1.2-8.7-2.5-11.8-5c-2-1.6-4.2-3.8-6.5-6.3c-3.3-3.4-7.4-7.7-10.1-8.7
					c-2.2-0.8-5.9-0.4-9.3,0c-3.5,0.4-6.8,0.8-9.5,0.1c-2.2-0.6-5.1-2-8.6-3.7c-3.4-1.7-9-4.4-10.7-4.4c-1.7,0-7.4,2.8-10.7,4.4
					c-3.4,1.7-6.4,3.2-8.6,3.7c-2.7,0.7-6,0.3-9.5-0.1c-3.3-0.4-7.1-0.9-9.3,0c-2.6,1-6.8,5.3-10.1,8.7c-2.3,2.4-4.5,4.7-6.5,6.2
					c-3.1,2.5-7.6,3.7-11.8,5c-2.7,0.8-6.1,1.8-7.2,2.7c-1.9,1.7-5.3,9-7.3,13.4c-1,2.2-1.9,4.1-2.7,5.6c-1.6,3.2-5.2,6.3-8.7,9.3
					c-2.2,2-5.7,4.9-6.2,6.2c-0.9,2.2-0.4,10.6-0.1,14.6c0.2,2.7,0.3,4.8,0.2,6.2c-0.1,2.3-1.3,5.1-2.8,8.6
					c-1.7,3.8-3.7,8.6-3.7,11.8c0,3.2,2.1,8,3.7,11.8c1.5,3.5,2.7,6.3,2.8,8.6c0.1,1.4-0.1,3.5-0.2,6.3c-0.2,4-0.7,12.4,0.1,14.5
					c0.5,1.3,3.9,4.2,6.2,6.2c3.5,3,7.1,6.2,8.7,9.3c0.8,1.5,1.6,3.4,2.7,5.6c2,4.4,5.3,11.7,7.3,13.4c1.1,0.9,4.5,1.9,7.2,2.7
					c4.3,1.2,8.7,2.5,11.8,5c2,1.6,4.2,3.8,6.5,6.3c3.3,3.4,7.4,7.7,10,8.7c2.2,0.8,5.9,0.4,9.3,0C101.2,226.2,103.2,226,105.1,226z
					 M230.4,148.7L230.4,148.7L230.4,148.7z M147.7,212.7c-5.3,0-11.2-2.7-16.1-9c-1.3-1.7-1-4.2,0.7-5.6c0.9-0.7,1.8-1.7,2.3-2.4
					c-0.3-0.5-0.9-1.3-1.2-1.7c-1.4-1.9-2.8-3.8-2.5-6.2c0.6-3.8,8.8-10.6,13.2-10c3.3,0.5,4.6,3.6,5.6,6.2c0.1,0.2,0.2,0.5,0.3,0.7
					c0.7-0.5,1.5-1.1,2-1.6c0.8-0.8,1.9-1.2,3.1-1.1c1.1,0.1,2.2,0.7,2.9,1.6c8,10.5,5.6,21.1-1,26.1
					C154.4,211.6,151.2,212.7,147.7,212.7z M140.3,201.4c4.4,4,9,3.9,11.8,1.8c2.7-2.1,4-6.3,1.6-11.4c-1.7,1-3.7,1.8-5.7,1.5
					c-3.4-0.5-4.7-3.7-5.8-6.3c-0.1-0.1-0.1-0.3-0.2-0.4c-0.9,0.6-2,1.5-2.7,2.2c0.1,0.2,0.2,0.3,0.3,0.5c1.5,2,3.4,4.5,2.9,7.4
					C142.4,198.4,141.4,200.1,140.3,201.4z M148.7,185.4L148.7,185.4L148.7,185.4z M89.3,176.1c-8.1,0-14.6-6.6-14.6-14.7
					c0-8.1,6.6-14.6,14.6-14.6c8.1,0,14.7,6.6,14.7,14.6C103.9,169.6,97.3,176.1,89.3,176.1z M89.3,154.8c-3.7,0-6.6,3-6.6,6.6
					c0,3.7,3,6.7,6.6,6.7c3.7,0,6.7-3,6.7-6.7C95.9,157.8,92.9,154.8,89.3,154.8z M191.3,165.5c-8.1,0-14.6-6.6-14.6-14.7
					c0-8.1,6.6-14.6,14.7-14.6c8.1,0,14.6,6.6,14.6,14.6C206,158.9,199.4,165.5,191.3,165.5z M191.3,144.2c-3.7,0-6.7,3-6.7,6.6
					c0,3.7,3,6.7,6.6,6.7c3.7,0,6.7-3,6.7-6.7C198,147.2,195,144.2,191.3,144.2z M143.5,163.1c-9.9,0-18-8.1-18-18c0,0,0,0,0,0
					c0-10,8.1-18,18-18c9.9,0,18,8.1,18,18.1C161.5,155,153.5,163.1,143.5,163.1z M133.5,145.1c0,5.5,4.5,10,10,10
					c5.5,0,10-4.5,10-10c0-5.5-4.5-10.1-10-10.1C138,135,133.5,139.5,133.5,145.1z M61.2,135c-3.8,0-11.8-7.2-11.8-11.6
					c0-3.3,2.9-5.1,5.3-6.5c0.2-0.1,0.4-0.3,0.7-0.4c-0.5-0.6-1.2-1.2-1.9-1.8c-0.9-0.7-1.5-1.7-1.5-2.9s0.3-2.3,1.1-3.1
					c9.2-9.5,20-8.6,25.9-2.9c5.9,5.7,7.1,16.5-2.1,26c-1.5,1.6-4,1.6-5.6,0.1c-0.8-0.8-2-1.6-2.7-1.9c-0.5,0.4-1.1,1-1.5,1.5
					C65.4,133.3,63.7,135,61.2,135z M58.4,124.1c0.7,0.8,1.7,1.7,2.5,2.4c0.1-0.1,0.3-0.3,0.4-0.4c1.8-1.8,3.9-4,6.9-4
					c1.8,0,3.6,0.8,5.1,1.6c3.4-5,2.6-9.5,0.1-12c-2.4-2.4-6.8-3-11.5,0.1c1.3,1.6,2.3,3.4,2.3,5.4c0,3.4-3,5.2-5.4,6.6
					C58.7,123.9,58.6,124,58.4,124.1z M151.1,113.5c-0.2,0-0.3,0-0.5,0c-5.5-0.2-10.3-3.2-12.9-8c-3.1-5.8-2.4-13.2,1.9-20.1
					c1.2-1.9,3.6-2.4,5.5-1.3l0,0c1,0.6,2.2,1.1,3,1.3c0.4-0.5,0.9-1.2,1.2-1.8c1.3-2,2.5-4,5-4.6c3.7-0.8,13,4.5,14,8.8
					c0.7,3.3-1.8,5.6-3.8,7.5c-0.2,0.2-0.4,0.4-0.6,0.6c0.7,0.5,1.6,1,2.2,1.3c1,0.5,1.8,1.4,2.1,2.5c0.3,1.1,0.2,2.3-0.4,3.2
					C163.6,109.6,157.5,113.5,151.1,113.5z M144.8,92.7c-1.3,3.4-1.4,6.5,0,9c1.2,2.3,3.5,3.7,6.1,3.8c2.7,0.1,5.3-1.2,7.6-3.6
					c-1.6-1.3-3-2.9-3.4-4.8c-0.7-3.3,1.8-5.7,3.9-7.7c0.1-0.1,0.2-0.2,0.3-0.3c-0.9-0.6-2-1.3-3-1.8c-0.1,0.2-0.2,0.4-0.3,0.5
					c-1.3,2.1-3,4.7-5.9,5.4C148.4,93.6,146.5,93.3,144.8,92.7z M160.7,90.3L160.7,90.3L160.7,90.3z M155.1,86.9
					C155.1,86.9,155.1,86.9,155.1,86.9S155.1,86.9,155.1,86.9z M199.3,105.9c-8.1,0-14.6-6.6-14.6-14.6c0-8.1,6.6-14.7,14.6-14.7
					c8.1,0,14.7,6.6,14.7,14.7C213.9,99.3,207.3,105.9,199.3,105.9z M199.3,84.6c-3.7,0-6.6,3-6.6,6.7c0,3.7,3,6.6,6.6,6.6
					c3.7,0,6.7-3,6.7-6.6C205.9,87.6,202.9,84.6,199.3,84.6z M104.4,80.8c-10.6,0-19.2-8.6-19.2-19.2c0-10.6,8.6-19.2,19.2-19.2
					s19.2,8.6,19.2,19.2C123.6,72.2,115,80.8,104.4,80.8z M104.4,50.4c-6.2,0-11.2,5-11.2,11.2c0,6.2,5,11.2,11.2,11.2
					s11.2-5,11.2-11.2C115.6,55.4,110.6,50.4,104.4,50.4z"/>
			</g>
		</g>
	</g>
	<g class="st2">
		<g>
			<g>
				<path class="st1" d="M78.2,134.5c0,0-3.1-0.1-5.5-0.1s-5.5,1.9-7.3,1.9c-1.8,0-7.8-5.5-7.8-7.6c0-2.1,6.8-4,6.8-6.2
					c0-2.3-4.3-5.6-4.3-5.6C75.1,101.5,93.1,119.1,78.2,134.5z"/>
			</g>
		</g>
	</g>
	<g>
		<g>
			<g>
				<path class="st39" d="M74,129.2c0,0-3.3-3.1-5.7-3.1c-2.4,0-5.3,5-7,5c-1.8,0-7.8-5.5-7.8-7.6c0-2.1,6.8-4,6.8-6.2
					c0-2.3-4.3-5.6-4.3-5.6C71,96.2,89,113.8,74,129.2z"/>
			</g>
		</g>
	</g>
	<g class="st2">
		<g>
			<g>
				<path class="st1" d="M139.9,206.4c0,0,3.6-2.8,3.9-5.2c0.3-2.4-4.2-6-3.9-7.7c0.3-1.7,6.5-6.9,8.7-6.6c2.1,0.3,2.9,7.3,5.2,7.6
					c2.2,0.3,6.1-3.4,6.1-3.4C173,208.2,153,223.5,139.9,206.4z"/>
			</g>
		</g>
	</g>
	<g>
		<g>
			<g>
				<path class="st39" d="M134.8,201.3c0,0,3.6-2.8,3.9-5.2c0.3-2.4-4.2-6-3.9-7.7c0.3-1.7,6.5-6.9,8.7-6.6c2.1,0.3,2.9,7.3,5.2,7.6
					c2.2,0.3,6.1-3.4,6.1-3.4C167.8,203,147.8,218.4,134.8,201.3z"/>
			</g>
		</g>
	</g>
	<g class="st2">
		<g>
			<g>
				<path class="st1" d="M169.9,106.3c-11.3,18.3-32.7,5-21.4-13.3c0,0,3.9,2.4,6.3,1.9c2.4-0.5,4.1-6,5.8-6.4
					c1.7-0.4,8.8,3.7,9.2,5.8c0.5,2.1-0.4,5.3,0.1,7.5C170.4,104,169.9,106.3,169.9,106.3z"/>
			</g>
		</g>
	</g>
	<g>
		<g>
			<g>
				<path class="st39" d="M164.4,100.8c-11.3,18.3-32.7,5-21.4-13.3c0,0,3.9,2.4,6.3,1.9c2.4-0.5,4.1-6,5.8-6.4
					c1.7-0.4,8.8,3.7,9.2,5.8c0.5,2.1-5.8,5.3-5.3,7.5C159.5,98.5,164.4,100.8,164.4,100.8z"/>
			</g>
		</g>
	</g>
	<g class="st2">
		<g>
			<g>
				<ellipse class="st1" cx="94.5" cy="166.8" rx="10.6" ry="10.7"/>
			</g>
		</g>
	</g>
	<g>
		<g>
			<g>
				<ellipse class="st3" cx="89.3" cy="161.5" rx="10.6" ry="10.7"/>
			</g>
		</g>
	</g>
	<g class="st2">
		<g>
			<g>
				<ellipse class="st1" cx="204.2" cy="96.1" rx="10.6" ry="10.7"/>
			</g>
		</g>
	</g>
	<g>
		<g>
			<g>
				<ellipse class="st3" cx="199.3" cy="91.2" rx="10.6" ry="10.7"/>
			</g>
		</g>
	</g>
	<g class="st2">
		<g>
			<g>
				<ellipse class="st1" cx="149" cy="150.6" rx="14" ry="14"/>
			</g>
		</g>
	</g>
	<g>
		<g>
			<g>
				<ellipse class="st4" cx="143.5" cy="145.1" rx="14" ry="14"/>
			</g>
		</g>
	</g>
	<g class="st2">
		<g>
			<g>
				<ellipse class="st1" cx="196.6" cy="156.1" rx="10.6" ry="10.7"/>
			</g>
		</g>
	</g>
	<g>
		<g>
			<g>
				<ellipse class="st3" cx="191.3" cy="150.8" rx="10.6" ry="10.7"/>
			</g>
		</g>
	</g>
	<g class="st2">
		<g>
			<g>
				<path class="st1" d="M125.3,67.3c0,8.4-6.8,15.2-15.2,15.2c-8.4,0-15.2-6.8-15.2-15.2s6.8-15.2,15.2-15.2
					C118.5,52.1,125.3,58.9,125.3,67.3z"/>
			</g>
		</g>
	</g>
	<g>
		<g>
			<g>
				<path class="st4" d="M119.6,61.6c0,8.4-6.8,15.2-15.2,15.2c-8.4,0-15.2-6.8-15.2-15.2s6.8-15.2,15.2-15.2
					C112.8,46.4,119.6,53.2,119.6,61.6z"/>
			</g>
		</g>
	</g>
	<g>
		<g>
			<g>
				<path class="st1" d="M61.2,135L61.2,135c-3.8,0-11.8-7.2-11.8-11.6c0-3.3,2.9-5.1,5.3-6.5c0.2-0.1,0.4-0.3,0.7-0.4
					c-0.5-0.6-1.2-1.2-1.9-1.8c-0.9-0.7-1.5-1.7-1.5-2.9c-0.1-1.1,0.3-2.3,1.1-3.1c5.7-5.9,12.6-8.3,19-6.7
					c5.3,1.3,9.4,5.3,10.9,10.6c1.8,6.4-0.4,13.4-6.2,19.2c-1.5,1.6-4,1.6-5.6,0.1c-0.8-0.8-2-1.6-2.7-1.9c-0.5,0.4-1.1,1-1.5,1.5
					C65.4,133.3,63.7,135,61.2,135z M58.4,124.1c0.7,0.8,1.7,1.7,2.5,2.4c0.1-0.1,0.3-0.3,0.4-0.4c1.8-1.8,3.9-4,6.9-4
					c1.8,0,3.6,0.8,5.1,1.7c2-3,2.7-6.1,2-8.8c-0.7-2.5-2.6-4.4-5.2-5c-2.6-0.6-5.5,0-8.2,1.9c1.3,1.6,2.3,3.4,2.3,5.4
					c0,3.4-3,5.2-5.4,6.6C58.7,123.9,58.6,124,58.4,124.1z"/>
			</g>
		</g>
	</g>
	<g>
		<g>
			<g>
				<path class="st1" d="M147.6,212.7c-5.8,0-11.6-3.2-16-9c-1.3-1.7-1-4.2,0.7-5.6c0.9-0.7,1.8-1.7,2.3-2.4
					c-0.3-0.5-0.9-1.3-1.2-1.7c-1.4-1.9-2.8-3.8-2.5-6.2c0.6-3.8,8.8-10.6,13.2-10c3.3,0.5,4.6,3.6,5.6,6.2c0.1,0.2,0.2,0.5,0.3,0.7
					c0.7-0.5,1.4-1.1,2-1.6c0.8-0.8,2-1.2,3.1-1.1c1.1,0.1,2.2,0.7,2.9,1.6c5,6.5,6.4,13.7,3.8,19.8c-2.1,5.1-6.6,8.5-12.1,9.2
					C149,212.7,148.3,212.7,147.6,212.7z M140.3,201.4c2.7,2.4,5.6,3.6,8.4,3.2c2.6-0.3,4.7-2,5.7-4.4c1-2.5,0.8-5.4-0.7-8.4
					c-1.7,1-3.7,1.8-5.7,1.5c-3.4-0.5-4.7-3.7-5.8-6.3c-0.1-0.1-0.1-0.3-0.2-0.4c-0.9,0.6-1.9,1.5-2.7,2.2c0.1,0.2,0.2,0.3,0.3,0.5
					c1.5,2,3.4,4.5,2.9,7.4C142.4,198.4,141.4,200.1,140.3,201.4z M138.5,189.8C138.5,189.8,138.5,189.8,138.5,189.8L138.5,189.8z
					 M143.7,185.7"/>
			</g>
		</g>
	</g>
	<g>
		<g>
			<g>
				<path class="st1" d="M151.1,113.5c-2.9,0-5.7-0.8-8-2.3c-7-4.3-10.5-14.6-3.5-25.9c1.2-1.9,3.6-2.5,5.5-1.3c1,0.6,2.2,1.1,3,1.3
					c0.4-0.5,0.9-1.2,1.2-1.8c1.2-2,2.5-4,5-4.5c3.7-0.8,13,4.5,14,8.8c0.7,3.3-1.8,5.6-3.8,7.5c-0.2,0.2-0.4,0.4-0.6,0.6
					c0.7,0.5,1.6,1,2.2,1.3c1,0.5,1.8,1.4,2.1,2.5c0.3,1.1,0.2,2.3-0.4,3.2C163.2,110.3,156.9,113.5,151.1,113.5z M144.8,92.7
					c-2.2,5.6-0.5,9.9,2.5,11.7c2.9,1.8,7.3,1.5,11.2-2.6c-1.6-1.3-3-2.9-3.4-4.8c-0.7-3.3,1.8-5.7,3.9-7.6c0.1-0.1,0.2-0.2,0.4-0.3
					c-0.9-0.6-2-1.3-3-1.8c-0.1,0.2-0.2,0.3-0.3,0.5c-1.3,2.1-3,4.7-5.9,5.4C148.4,93.6,146.5,93.3,144.8,92.7z M160.7,90.3
					L160.7,90.3L160.7,90.3z M155.1,86.9L155.1,86.9L155.1,86.9z"/>
			</g>
		</g>
	</g>
	<g>
		<g>
			<g>
				<path class="st1" d="M89.3,176.1c-3.9,0-7.6-1.5-10.4-4.3c-2.8-2.8-4.3-6.4-4.3-10.4c0-3.9,1.5-7.6,4.3-10.4
					c2.8-2.8,6.4-4.3,10.4-4.3c0,0,0,0,0,0c8.1,0,14.6,6.6,14.6,14.7v0C103.9,169.6,97.3,176.1,89.3,176.1z M89.3,154.8
					c-1.8,0-3.4,0.7-4.7,1.9c-1.3,1.3-1.9,2.9-1.9,4.7c0,1.8,0.7,3.4,1.9,4.7c1.3,1.3,2.9,2,4.7,2c3.7,0,6.6-3,6.6-6.7
					C95.9,157.8,92.9,154.8,89.3,154.8C89.3,154.8,89.3,154.8,89.3,154.8z M99.9,161.5L99.9,161.5L99.9,161.5z"/>
			</g>
		</g>
	</g>
	<g>
		<g>
			<g>
				<path class="st1" d="M199.3,105.9C199.3,105.9,199.3,105.9,199.3,105.9c-3.9,0-7.6-1.5-10.4-4.3c-2.8-2.8-4.3-6.4-4.3-10.4
					c0-8.1,6.6-14.7,14.6-14.7c8.1,0,14.6,6.6,14.6,14.7v0C213.9,99.3,207.3,105.9,199.3,105.9z M199.3,84.6c-3.7,0-6.6,3-6.6,6.7
					c0,1.8,0.7,3.5,1.9,4.7c1.3,1.3,2.9,1.9,4.7,1.9c3.7,0,6.6-3,6.6-6.7C205.9,87.6,202.9,84.6,199.3,84.6z M209.9,91.2L209.9,91.2
					L209.9,91.2z"/>
			</g>
		</g>
	</g>
	<g>
		<g>
			<g>
				<path class="st1" d="M143.5,163.1C143.5,163.1,143.5,163.1,143.5,163.1c-9.9,0-18-8.1-18-18c0-10,8.1-18,18-18c0,0,0,0,0,0
					c4.8,0,9.3,1.9,12.7,5.3c3.4,3.4,5.3,7.9,5.3,12.8l0,0c0,0,0,0,0,0c0,4.8-1.9,9.4-5.3,12.8C152.8,161.2,148.3,163.1,143.5,163.1
					z M143.5,135c-5.5,0-10,4.5-10,10c0,5.5,4.5,10,10,10h0c2.7,0,5.2-1,7.1-2.9c1.9-1.9,2.9-4.4,2.9-7.1v0c0-2.7-1-5.2-2.9-7.1
					C148.7,136.1,146.2,135,143.5,135z"/>
			</g>
		</g>
	</g>
	<g>
		<g>
			<g>
				<path class="st1" d="M191.3,165.5C191.3,165.5,191.3,165.5,191.3,165.5c-3.9,0-7.6-1.5-10.4-4.3c-2.8-2.8-4.3-6.4-4.3-10.4
					c0-3.9,1.5-7.6,4.3-10.4c2.8-2.8,6.4-4.3,10.4-4.3c0,0,0,0,0,0c8.1,0,14.6,6.6,14.6,14.7v0C206,158.9,199.4,165.5,191.3,165.5z
					 M191.3,144.2c-1.8,0-3.4,0.7-4.7,1.9c-1.3,1.3-1.9,2.9-1.9,4.7c0,1.8,0.7,3.4,1.9,4.7c1.3,1.3,2.9,2,4.7,2c3.7,0,6.6-3,6.6-6.7
					C198,147.2,195,144.2,191.3,144.2L191.3,144.2z M202,150.8L202,150.8L202,150.8z"/>
			</g>
		</g>
	</g>
	<g>
		<g>
			<g>
				<path class="st1" d="M104.4,80.8C104.4,80.8,104.4,80.8,104.4,80.8c-10.6,0-19.2-8.6-19.2-19.2c0-10.6,8.6-19.2,19.2-19.2
					c0,0,0,0,0,0c5.1,0,9.9,2,13.5,5.6c3.6,3.6,5.6,8.4,5.6,13.6l0,0c0,0,0,0,0,0c0,5.1-2,9.9-5.6,13.6
					C114.4,78.8,109.6,80.8,104.4,80.8z M104.4,50.4c-6.2,0-11.2,5-11.2,11.2c0,6.2,5,11.2,11.2,11.2h0c3,0,5.8-1.2,7.9-3.3
					c2.1-2.1,3.3-4.9,3.3-7.9v0c0-3-1.2-5.8-3.3-7.9C110.2,51.6,107.4,50.4,104.4,50.4z"/>
			</g>
		</g>
	</g>
	<g>
		<g>
			<g>
				<path class="st1" d="M161.8,57.9c-0.8,0-1.6-0.2-2.3-0.7l-12.6-8.9c-1.8-1.3-2.2-3.8-1-5.6c1.3-1.8,3.8-2.2,5.6-1l12.6,8.9
					c1.8,1.3,2.2,3.8,1,5.6C164.3,57.3,163.1,57.9,161.8,57.9z"/>
			</g>
		</g>
	</g>
	<g>
		<g>
			<g>
				<path class="st1" d="M101.5,134.8c-0.5,0-1-0.1-1.5-0.3c-2-0.8-3-3.2-2.2-5.2l5.8-14.4c0.8-2,3.2-3,5.2-2.2c2,0.8,3,3.2,2.2,5.2
					l-5.8,14.4C104.6,133.9,103.1,134.8,101.5,134.8z"/>
			</g>
		</g>
	</g>
	<g>
		<g>
			<g>
				<path class="st1" d="M112.8,208.1c-1,0-2.1-0.4-2.8-1.2L99,196c-1.6-1.6-1.5-4.1,0-5.7c1.6-1.6,4.1-1.5,5.7,0l10.9,11
					c1.6,1.6,1.5,4.1,0,5.7C114.8,207.7,113.8,208.1,112.8,208.1z"/>
			</g>
		</g>
	</g>
	<g>
		<g>
			<g>
				<path class="st1" d="M55.6,92.1c-1.8,0-3.5-1.3-3.9-3.1c-0.5-2.2,0.9-4.3,3-4.8l15.1-3.5c2.1-0.5,4.3,0.9,4.8,3
					c0.5,2.2-0.9,4.3-3,4.8L56.5,92C56.2,92.1,55.9,92.1,55.6,92.1z"/>
			</g>
		</g>
	</g>
	<g>
		<g>
			<g>
				<path class="st1" d="M62.7,190.9c-1.7,0-3.3-1.1-3.8-2.8l-4.7-14.8c-0.7-2.1,0.5-4.4,2.6-5c2.1-0.7,4.4,0.5,5,2.6l4.7,14.8
					c0.7,2.1-0.5,4.4-2.6,5C63.5,190.8,63.1,190.9,62.7,190.9z"/>
			</g>
		</g>
	</g>
	<g>
		<g>
			<g>
				<path class="st1" d="M178.3,186.4c-1.1,0-2.2-0.4-3-1.3L165,173.5c-1.5-1.6-1.3-4.2,0.3-5.6c1.6-1.5,4.2-1.3,5.6,0.3l10.3,11.5
					c1.5,1.6,1.3,4.2-0.3,5.6C180.2,186.1,179.2,186.4,178.3,186.4z"/>
			</g>
		</g>
	</g>
	<g class="st2">
		<g>
			<g>
				<path class="st1" d="M53.5,91c0,0,2.5,2.8,5,2.8c2.5,0,18.5-3.3,18.5-6.4c0-3.1-3.5-5-3.5-5L53.5,91z"/>
			</g>
		</g>
	</g>
	<g class="st2">
		<g>
			<g>
				<path class="st1" d="M99.3,133.8c0,0,3.9,2.5,6.9,0.6c3.1-1.9,8.8-16.5,7.7-18.3s-5.1-3-5.1-3L99.3,133.8z"/>
			</g>
		</g>
	</g>
	<g class="st2">
		<g>
			<g>
				<path class="st1" d="M58.7,168.6c0,0,5.3,0.1,5.8,1.7c0.5,1.6,6.3,17.9,5.6,19.5c-0.7,1.6-7.3,0.4-7.3,0.4L58.7,168.6z"/>
			</g>
		</g>
	</g>
	<g class="st2">
		<g>
			<g>
				<path class="st1" d="M101,189.4c0,0,3.9-1.2,6.3,0c2.4,1.2,15,13.1,13.8,16.2c-1.2,3.1-7.1,1.7-7.1,1.7L101,189.4z"/>
			</g>
		</g>
	</g>
	<g class="st2">
		<g>
			<g>
				<path class="st1" d="M167.9,166.8c0,0,4.6-0.4,6.9,1.2c2.3,1.6,10,12.6,10,15.1c0,2.5-0.9,3.6-2.5,4.4c-1.7,0.7-5.4-1.5-5.4-1.5
					L167.9,166.8z"/>
			</g>
		</g>
	</g>
</g>
</svg>
