<?xml version="1.0" encoding="utf-8"?>
<!-- Generator: Adobe Illustrator 22.1.0, SVG Export Plug-In . SVG Version: 6.00 Build 0)  -->
<svg version="1.1" id="Layer_1" xmlns="http://www.w3.org/2000/svg" xmlns:xlink="http://www.w3.org/1999/xlink" x="0px" y="0px"
	 viewBox="0 0 256 256" style="enable-background:new 0 0 256 256;" xml:space="preserve">
<style type="text/css">
	.st0{fill:#F5B31F;}
	.st1{fill:#464646;}
	.st2{opacity:0.15;}
	.st3{fill:#AC6535;}
	.st4{fill:#EB573B;}
	.st5{fill:#90C056;}
	.st6{opacity:0.35;}
	.st7{fill:#FFFFFF;}
	.st8{opacity:0.2;}
	.st9{fill:#F6D67A;}
	.st10{opacity:0.3;}
	.st11{fill:#FFA755;}
	.st12{fill:#8FAE3C;}
	.st13{fill:#BE6BB2;}
	.st14{fill:#B7C536;}
	.st15{opacity:0.1;}
	.st16{fill:#9D5A96;}
	.st17{fill:#EA615D;}
	.st18{opacity:0.4;}
	.st19{fill:#F79932;}
	.st20{fill:#FFEC97;}
	.st21{fill:#FFD11D;}
	.st22{fill:#F7F2D5;}
	.st23{fill:#F6AF72;}
	.st24{fill:#BA6C45;}
	.st25{opacity:0.5;}
	.st26{fill:#E4C074;}
	.st27{fill:#656566;}
	.st28{fill:#FACD1F;}
	.st29{fill:#FFDF66;}
	.st30{fill:#6D6E71;}
	.st31{fill:#E77CAE;}
	.st32{fill:#FFE5C4;}
	.st33{fill:#F68455;}
	.st34{opacity:0.7;}
	.st35{fill:#ADEDFF;}
	.st36{fill:#EC754B;}
	.st37{fill:#4AA5BA;}
	.st38{opacity:0.8;}
	.st39{fill:#92A5AC;}
	.st40{fill:#D06E3C;}
	.st41{fill:#DA4F4B;}
	.st42{fill:#BDF3FF;}
	.st43{fill:#F18BB4;}
	.st44{fill:#F9D97A;}
	.st45{fill:none;}
	.st46{fill:#AF6535;}
	.st47{fill:#B93226;}
	.st48{fill:#FF6050;}
	.st49{fill:#EA7CB1;}
	.st50{fill:#00B0E0;}
	.st51{fill:#EA7DAE;}
	.st52{fill:#BC7532;}
	.st53{fill:#876C6C;}
	.st54{fill:#F9F6CD;}
	.st55{fill:#FFE37B;}
	.st56{fill:#1DDCFF;}
	.st57{fill:#60ACF7;}
	.st58{fill:#C3755A;}
	.st59{fill:#96557A;}
	.st60{fill:#66625D;}
	.st61{fill:#D68032;}
	.st62{fill:#F2A355;}
	.st63{fill:#7E9E6A;}
	.st64{fill:#965A85;}
	.st65{fill:#90CAD3;}
	.st66{fill:#94B57F;}
	.st67{fill:#B2E2E7;}
	.st68{fill:#FFDF8F;}
	.st69{fill:#FFFAEB;}
	.st70{fill:#F88916;}
	.st71{fill:#FFC86E;}
	.st72{fill:#AFA51D;}
	.st73{fill:#968A1C;}
	.st74{fill:#C3556D;}
</style>
<g>
	<g>
		<g>
			<path class="st54" d="M154.7,252c-4.4,0-26.4,0-26.4,0s-22,0-26.4,0c-4.4,0-7.7-7.8-6.8-15.2l66.6,0
				C162.3,244.2,159,252,154.7,252z"/>
		</g>
	</g>
	<g>
		<g>
			<path class="st21" d="M157.6,149.2c-5.4,26.7,3,80.3,3.9,87.6l-66.6,0c0.9-7.3,9.3-60.9,3.9-87.6c-4-19.8-14.8-51.7-15.4-81.8
				c0-2.2,0-4.3,0-6.5c0.2-6.7,1-13.2,2.5-19.4c0.4-1.5,0.8-3,1.2-4.4l47.9,0c-1.5,1.9-2.3,4.3-2.3,6.9c0,6.3,5.1,11.5,11.5,11.5
				c5.9,0,10.8-4.5,11.4-10.3c0.1,0.2,0.2,0.4,0.3,0.6c1.3,2.2,3.7,3.7,6.5,3.7c2.9,0,5.5-1.7,6.7-4.1c0.5-1,0.8-2.2,0.8-3.4
				c0-1.9-0.7-3.6-1.8-4.9l1.1,0c0,0.1,0.1,0.3,0.1,0.4c0.9,3,1.6,6.1,2.2,9.3c0.3,1.5,0.5,3,0.7,4.5c0.4,3.2,0.6,6.4,0.7,9.6
				c0.1,2.2,0.1,4.4,0,6.5C172.3,97.6,161.6,129.4,157.6,149.2z"/>
		</g>
	</g>
	<g class="st25">
		<g>
			<path class="st7" d="M141.7,236.8l-47.6,0c0.8-7.3,8.6-60.9,3.6-87.6C94,129.4,84,97.5,83.4,67.4c0-2.2,0-4.3,0-6.5
				c0.2-6.7,0.9-13.2,2.3-19.4c0.3-1.5,0.7-3,1.1-4.4l14.5,0c0,0-0.2,1.5-0.5,4.2c-1.2,12.4-3.8,50.3,5.7,86.7
				c8,30.8,7.4,46.8,5.9,78.5C111.1,238.1,141.7,236.8,141.7,236.8z"/>
		</g>
	</g>
	<g class="st15">
		<g>
			<path d="M171.7,46.8l-0.1,0c-0.6,0-1.2-0.1-1.6-0.7l-0.8-0.7l-4.7-3.8c0.3-1.3,0.5-2.8,0.5-4.2c0-0.1,0-0.2,0-0.4l4.6,0
				C170.5,40.3,171.2,43.5,171.7,46.8z"/>
		</g>
	</g>
	<g>
		<g>
			<path class="st1" d="M154.7,256L154.7,256L154.7,256l-52.9,0c-1.7,0-4.2-0.6-6.5-3.2c-3.3-3.7-5-10.3-4.3-16.5
				c0.2-2,1.9-3.5,4-3.5c0,0,0,0,0,0l66.6,0c2,0,3.7,1.5,4,3.5c0.7,6.2-1,12.8-4.3,16.5C158.8,255.4,156.3,256,154.7,256z
				 M98.9,240.8c0.4,4,2.1,6.9,3,7.2l26.4,0l26.4,0c0.9-0.3,2.6-3.2,2.9-7.2L98.9,240.8z"/>
		</g>
	</g>
	<g>
		<g>
			<path class="st1" d="M161.5,240.8C161.5,240.8,161.5,240.8,161.5,240.8l-66.6,0c-1.1,0-2.2-0.5-3-1.3c-0.8-0.9-1.1-2-1-3.1
				c0.1-0.8,0.3-2.3,0.5-4.2c2-14.6,8.1-59.2,3.4-82.2c-1.1-5.4-2.7-11.9-4.5-18.8c-4.7-18.5-10.5-41.5-11-63.7c0-2.2,0-4.5,0-6.7
				c0.2-7.3,1.1-14.1,2.6-20.3c0.4-1.7,0.8-3.2,1.3-4.6c0.5-1.7,2.1-2.8,3.8-2.8c0,0,0,0,0,0l47.9,0c1.5,0,2.9,0.9,3.6,2.2
				c0.7,1.4,0.5,3-0.4,4.2c-1,1.3-1.5,2.9-1.5,4.5c0,4.1,3.4,7.5,7.5,7.5c3.8,0,7-2.9,7.4-6.7c0.2-1.8,1.5-3.2,3.3-3.5
				c1.8-0.3,3.5,0.6,4.3,2.2c0,0.1,0.1,0.2,0.1,0.2c0,0,0,0.1,0.1,0.1c0.7,1.1,1.8,1.7,3.1,1.7h0c1.3,0,2.6-0.7,3.2-2
				c0.3-0.5,0.4-1,0.4-1.6c0-1.1-0.5-1.9-0.8-2.3c-1-1.2-1.2-2.9-0.6-4.3c0.7-1.4,2.1-2.3,3.6-2.3c0,0,0,0,0,0l1.1,0
				c1.7,0,3.3,1.1,3.8,2.8c0.1,0.2,0.1,0.3,0.2,0.5c0.9,3.1,1.7,6.3,2.3,9.7c0.3,1.5,0.5,3,0.7,4.7c0.4,3.2,0.6,6.6,0.8,10
				c0.1,2.2,0.1,4.5,0,6.8c-0.5,22.2-6.3,45.1-11,63.6c-1.8,6.9-3.4,13.4-4.5,18.9c0,0,0,0,0,0c-4.6,23,1.4,67.6,3.4,82.2
				c0.3,1.9,0.5,3.3,0.5,4.2c0.1,1.1-0.2,2.3-1,3.1C163.7,240.3,162.6,240.8,161.5,240.8z M99.5,232.8l57.4,0
				c-2.1-15.4-8.1-60.3-3.3-84.4c1.1-5.6,2.8-12.2,4.6-19.2c4.6-18.1,10.3-40.5,10.8-61.8c0-2.1,0-4.3,0-6.3
				c-0.1-3.1-0.3-6.2-0.7-9.1c-1.7,1-3.8,1.6-5.9,1.6c0,0,0,0,0,0c-1.8,0-3.6-0.4-5.2-1.2c-2.8,4.4-7.6,7.2-13.1,7.2c0,0,0,0,0,0
				c-8.5,0-15.5-7-15.5-15.5c0-1,0.1-2,0.3-2.9l-38.8,0c-0.1,0.4-0.2,0.9-0.3,1.3c-1.4,5.6-2.2,11.9-2.4,18.6
				c-0.1,2.1-0.1,4.2,0,6.3c0.5,21.3,6.2,43.8,10.8,61.9c1.8,7,3.4,13.6,4.6,19.2C107.6,172.5,101.6,217.4,99.5,232.8z M157.6,149.2
				L157.6,149.2L157.6,149.2z"/>
		</g>
	</g>
	<g class="st15">
		<g>
			<path d="M173,67.5c0,0.1,0,0.3,0,0.4c0,0.8,0,1.6-0.1,2.4c0,0,0,0,0,0c-1.2,29.2-10.6,59.8-14.2,78.9c-5,26.7,2.8,80.3,3.6,87.6
				l-16.2,0c0,0-7.8-64.5,3.7-108.8c6.9-26.6,7.4-54,6.7-71.7c-1.9,6.1-7.6,7.2-16.9,7.2c-9.3,0-12.1-12.1-13.3-14.9
				c-1.3-2.8-1.2-4.8-4.7-5.3c-3.5-0.4-10.5,0-20.9,0c-6.3,0-12.2-0.2-15-0.1c-0.1,0,0.1-1.8,0-1.8c0.3-1.5,0.7-3,1.1-4.4l2.3,0
				c-0.5-1.3-0.8-2.6-0.8-4.1c0-2.1,0.6-4,1.5-5.6c1.4-0.6,2.9-0.9,4.5-0.9c0.5,0,1,0,1.5,0.1c0.1-1.5,0.4-2.9,0.8-4.2
				c1.2-3.3,3.6-6.1,6.7-7.8c2-1.1,4.3-1.7,6.7-1.7c2.4,0,4.7,0.6,6.7,1.7c1.1-1.9,2.7-3.6,4.6-4.6c0.2-0.1,0.5-0.3,0.7-0.4
				c1.5-0.7,3.3-1.1,5.1-1.1c6.6,0,11.9,5.3,11.9,11.9c0,0.4,0,0.8-0.1,1.2c2.4-1.3,5.2-2,8.1-2c9.7,0,17.6,7.8,17.8,17.4
				c0,0.1,0,0.3,0,0.4c0,1.5-0.2,2.9-0.5,4.2l4.7,3.8l0.8,0.7c0.5,0.6,1.1,0.6,1.6,0.7l0.1,0c0.2,1.5,0.4,2.9,0.6,4.4
				c0.3,2.4,0.5,4.9,0.6,7.3c0,0.8,0.1,1.6,0.1,2.4C173.1,63.1,173.1,65.3,173,67.5z"/>
		</g>
	</g>
	<g>
		<g>
			<path class="st7" d="M168.2,37.1c1.1,1.3,1.8,3,1.8,4.9c0,1.2-0.3,2.4-0.8,3.4c-1.3,2.5-3.8,4.1-6.7,4.1c-2.8,0-5.2-1.5-6.5-3.7
				c-0.1-0.2-0.2-0.4-0.3-0.6c-0.6,5.8-5.5,10.3-11.4,10.3c-6.3,0-11.5-5.2-11.5-11.5c0-2.6,0.9-5,2.3-6.9l-45.9,0
				c-0.5-1.3-0.8-2.6-0.8-4.1c0-2.1,0.6-4,1.5-5.6c1.5-2.5,3.9-4.4,6.8-5.1c0.8-0.2,1.7-0.3,2.6-0.3c0.5,0,1,0,1.5,0.1
				c0.1-2.8,1.1-5.4,2.6-7.5c2.6-3.7,6.9-6.1,11.7-6.1c2.3,0,4.4,0.5,6.3,1.5c0.1,0.1,0.2,0.1,0.4,0.2c0.1-0.2,0.2-0.4,0.3-0.6
				C124.3,6.2,128,4,132.3,4c6.6,0,11.9,5.3,11.9,11.9c0,0.4,0,0.8-0.1,1.3c2.4-1.3,5.2-2,8.1-2c9.8,0,17.8,8,17.8,17.8
				c0,1.4-0.2,2.8-0.5,4.1c0,0.1-0.1,0.3-0.1,0.4c0-0.1-0.1-0.3-0.1-0.4L168.2,37.1z"/>
		</g>
	</g>
	<g>
		<g>
			<path class="st1" d="M144.2,59.6C144.2,59.6,144.2,59.6,144.2,59.6c-8.5,0-15.5-7-15.5-15.5c0-1,0.1-2,0.3-2.9l-39.8,0
				c-1.6,0-3.1-1-3.7-2.5c-0.7-1.8-1.1-3.6-1.1-5.6c0-2.7,0.7-5.4,2.1-7.7c2-3.4,5.4-5.9,9.3-6.9c0.6-0.1,1.1-0.2,1.7-0.3
				c0.5-2.1,1.5-4.1,2.7-5.9c3.4-4.9,9-7.8,15-7.8c1.8,0,3.6,0.3,5.3,0.8c3-3.3,7.2-5.3,11.8-5.3c0,0,0,0,0,0
				c4.3,0,8.2,1.7,11.3,4.7c2,2,3.4,4.4,4.1,7c1.5-0.3,3.1-0.5,4.6-0.5c12,0,21.8,9.8,21.8,21.8c0,1.7-0.2,3.3-0.6,5
				c0,0.1,0,0.1,0,0.2l0,0.1c0.4,1.2,0.6,2.5,0.6,3.8c0,1.9-0.4,3.6-1.3,5.3c-2,3.9-5.9,6.3-10.3,6.3c0,0,0,0,0,0
				c-1.8,0-3.6-0.4-5.2-1.2C154.5,56.7,149.7,59.6,144.2,59.6z M92.4,33.1l42.7,0c1.5,0,2.9,0.9,3.6,2.2c0.7,1.4,0.5,3-0.4,4.2
				c-1,1.3-1.5,2.9-1.5,4.5c0,4.1,3.4,7.5,7.5,7.5c3.8,0,7-2.9,7.4-6.7c0.2-1.8,1.5-3.2,3.3-3.5c1.8-0.3,3.5,0.6,4.3,2.2
				c0,0.1,0.1,0.2,0.1,0.2c0,0,0,0.1,0.1,0.1c0.7,1.1,1.8,1.7,3.1,1.7h0c1.3,0,2.6-0.7,3.2-2c0.3-0.5,0.4-1,0.4-1.6
				c0-1.1-0.5-1.9-0.8-2.3c-1-1.2-1.2-2.9-0.6-4.3c0.3-0.7,0.8-1.2,1.4-1.6c0-0.2,0-0.5,0-0.7c0-7.6-6.2-13.8-13.8-13.8
				c-2.2,0-4.3,0.5-6.3,1.5c-1.3,0.7-2.9,0.6-4.1-0.2c-1.2-0.8-1.9-2.3-1.7-3.7c0-0.3,0-0.6,0-0.9c0-2.1-0.8-4.1-2.3-5.6
				c-1.5-1.5-3.5-2.3-5.6-2.3h0c-2.7,0-5.2,1.4-6.7,3.7c0,0,0,0.1-0.1,0.1c0,0.1-0.1,0.1-0.1,0.2c-1,2-3.4,2.7-5.4,1.7l-0.2-0.1
				c-1.5-0.7-3-1.1-4.6-1.1c-3.3,0-6.5,1.6-8.4,4.4c-1.1,1.6-1.8,3.5-1.8,5.4c-0.1,1.1-0.6,2.2-1.4,2.9c-0.9,0.7-2,1-3.1,0.9
				c-1-0.1-1.8-0.1-2.7,0.1c-1.8,0.4-3.4,1.6-4.3,3.2C92.7,30.5,92.4,31.8,92.4,33.1C92.4,33.1,92.4,33.1,92.4,33.1z"/>
		</g>
	</g>
</g>
</svg>
