<?xml version="1.0" encoding="utf-8"?>
<!-- Generator: Adobe Illustrator 22.1.0, SVG Export Plug-In . SVG Version: 6.00 Build 0)  -->
<svg version="1.1" id="Layer_1" xmlns="http://www.w3.org/2000/svg" xmlns:xlink="http://www.w3.org/1999/xlink" x="0px" y="0px"
	 viewBox="0 0 256 256" style="enable-background:new 0 0 256 256;" xml:space="preserve">
<style type="text/css">
	.st0{fill:#F5B31F;}
	.st1{fill:#464646;}
	.st2{opacity:0.15;}
	.st3{fill:#AC6535;}
	.st4{fill:#EB573B;}
	.st5{fill:#90C056;}
	.st6{opacity:0.35;}
	.st7{fill:#FFFFFF;}
	.st8{opacity:0.2;}
	.st9{fill:#F6D67A;}
	.st10{opacity:0.3;}
	.st11{fill:#FFA755;}
	.st12{fill:#8FAE3C;}
	.st13{fill:#BE6BB2;}
	.st14{fill:#B7C536;}
	.st15{opacity:0.1;}
	.st16{fill:#9D5A96;}
	.st17{fill:#EA615D;}
	.st18{opacity:0.4;}
	.st19{fill:#F79932;}
	.st20{fill:#FFEC97;}
	.st21{fill:#FFD11D;}
	.st22{fill:#F7F2D5;}
	.st23{fill:#F6AF72;}
	.st24{fill:#BA6C45;}
	.st25{opacity:0.5;}
	.st26{fill:#E4C074;}
	.st27{fill:#656566;}
	.st28{fill:#FACD1F;}
	.st29{fill:#FFDF66;}
	.st30{fill:#6D6E71;}
	.st31{fill:#E77CAE;}
	.st32{fill:#FFE5C4;}
	.st33{fill:#F68455;}
	.st34{opacity:0.7;}
	.st35{fill:#ADEDFF;}
	.st36{fill:#EC754B;}
	.st37{fill:#4AA5BA;}
	.st38{opacity:0.8;}
	.st39{fill:#92A5AC;}
	.st40{fill:#D06E3C;}
	.st41{fill:#DA4F4B;}
	.st42{fill:#BDF3FF;}
	.st43{fill:#F18BB4;}
	.st44{fill:#F9D97A;}
	.st45{fill:none;}
	.st46{fill:#AF6535;}
	.st47{fill:#B93226;}
	.st48{fill:#FF6050;}
	.st49{fill:#EA7CB1;}
	.st50{fill:#00B0E0;}
	.st51{fill:#EA7DAE;}
	.st52{fill:#BC7532;}
	.st53{fill:#876C6C;}
	.st54{fill:#F9F6CD;}
	.st55{fill:#FFE37B;}
	.st56{fill:#1DDCFF;}
	.st57{fill:#60ACF7;}
	.st58{fill:#C3755A;}
	.st59{fill:#96557A;}
	.st60{fill:#66625D;}
	.st61{fill:#D68032;}
	.st62{fill:#F2A355;}
	.st63{fill:#7E9E6A;}
	.st64{fill:#965A85;}
	.st65{fill:#90CAD3;}
	.st66{fill:#94B57F;}
	.st67{fill:#B2E2E7;}
	.st68{fill:#FFDF8F;}
	.st69{fill:#FFFAEB;}
	.st70{fill:#F88916;}
	.st71{fill:#FFC86E;}
	.st72{fill:#AFA51D;}
	.st73{fill:#968A1C;}
	.st74{fill:#C3556D;}
</style>
<g>
	<g>
		<g>
			<path class="st62" d="M151.4,83.2l-12,0l-11.2,17.5L117,83.2l-12,0c11.3-23.5,13.3-50.3,13.6-57.8l-4.7,0l0-21.4l28.6,0l0,21.4
				l-4.8,0C138.1,32.9,140.1,59.7,151.4,83.2z"/>
		</g>
	</g>
	<g class="st15">
		<g>
			<path d="M141.1,83.2l10.3,0c-11.3-23.5-13.3-50.3-13.6-57.8l4.8,0l0-21.4l-5.7,0c0,0,0.8,12.5-0.5,14.2s-3.5,1.8-5.4,2.9
				C129,22.1,135,63.2,141.1,83.2z"/>
		</g>
	</g>
	<g>
		<g>
			<g>
				<path class="st63" d="M154.1,88.5c-1-1.7-1.9-3.5-2.8-5.3l-12,0l-11.2,17.5L117,83.2l-12,0c-0.9,1.8-1.8,3.6-2.8,5.3
					c-16,28.6-16,59.9-16,77.7l0,77.5c0,4.3,4.3,8.3,8,8.3l67.4,0c6.3,0,8.5-4.7,8.5-8.3l0-77.5C170.1,148.4,170.1,117.1,154.1,88.5
					z M153.5,202l-25.3,22.1L102.9,202l0-62l50.6,0L153.5,202z"/>
			</g>
		</g>
	</g>
	<g class="st15">
		<g>
			<g>
				<path d="M158.7,252l2.9,0c6.3,0,8.5-4.7,8.5-8.3l0-77.5c0-17.8,0-49.1-16-77.7c-1-1.7-1.9-3.5-2.8-5.3l-10.6,0
					C166.3,109.8,158.7,184.2,158.7,252z"/>
			</g>
		</g>
	</g>
	<g class="st10">
		<g>
			<g>
				<path class="st7" d="M110.1,83.2l-5.1,0c-0.9,1.8-1.8,3.6-2.8,5.3c-16,28.6-16,59.9-16,77.7l0,77.5c0,3.6,2.2,8.3,8.5,8.3
					l35.8,0c0,0-34.6,1-34.6-16.5C95.9,214.6,87.7,108.7,110.1,83.2z"/>
			</g>
		</g>
	</g>
	<g>
		<g>
			<polygon class="st62" points="153.5,140 153.5,202 128.2,224.1 102.9,202 102.9,140 			"/>
		</g>
	</g>
	<g>
		<g>
			<path class="st1" d="M128.2,104.7C128.2,104.7,128.2,104.7,128.2,104.7c-1.4,0-2.6-0.7-3.4-1.8l-10-15.6l-9.8,0
				c-1.4,0-2.7-0.7-3.4-1.9c-0.7-1.2-0.8-2.6-0.2-3.9c9.4-19.6,12.2-41.6,13-52.1h-0.5c-2.2,0-4-1.8-4-4l0-21.4c0-2.2,1.8-4,4-4l0,0
				l28.6,0c1.1,0,2.1,0.4,2.8,1.2c0.8,0.8,1.2,1.8,1.2,2.8l0,21.4c0,1.1-0.4,2.1-1.2,2.8c-0.8,0.8-1.8,1.2-2.8,1.2c0,0,0,0,0,0H142
				c0.8,10.5,3.6,32.5,13,52.1c0.6,1.2,0.5,2.7-0.2,3.9c-0.7,1.2-2,1.9-3.4,1.9c0,0,0,0,0,0l-9.8,0l-10,15.6
				C130.8,104,129.5,104.7,128.2,104.7z M111.2,79.2l5.8,0c1.4,0,2.6,0.7,3.4,1.8l7.8,12.2L136,81c0.7-1.1,2-1.8,3.4-1.8
				c0,0,0,0,0,0l5.8,0c-9.3-22.6-11.1-46.4-11.4-53.7c0-1.1,0.3-2.2,1.1-2.9c0.8-0.8,1.8-1.2,2.9-1.2h0h0.8l0-13.4l-20.6,0l0,13.4
				h0.7c1.1,0,2.1,0.4,2.9,1.2c0.8,0.8,1.2,1.9,1.1,2.9C122.3,32.8,120.5,56.6,111.2,79.2z"/>
		</g>
	</g>
	<g>
		<g>
			<g>
				<path class="st1" d="M161.6,256C161.6,256,161.6,256,161.6,256l-67.4,0c-6.2,0-12-6-12-12.3l0-77.5c0-17.5,0-50.1,16.5-79.6
					c0.9-1.6,1.8-3.3,2.7-5.1c0.7-1.4,2.1-2.3,3.6-2.3c0,0,0,0,0,0l12,0c1.4,0,2.6,0.7,3.4,1.8l7.8,12.2L136,81
					c0.7-1.1,2-1.8,3.4-1.8c0,0,0,0,0,0l12,0c1.5,0,2.9,0.9,3.6,2.3c0.9,1.8,1.8,3.5,2.7,5.1c0,0,0,0,0,0
					c16.5,29.5,16.5,62.1,16.5,79.6l0,77.5c0,2.9-1,5.9-2.8,8C169.7,253.7,166.8,256,161.6,256z M107.5,87.2
					c-0.6,1.1-1.2,2.2-1.8,3.3c-15.5,27.7-15.5,57.7-15.5,75.7l0,77.5c0,2.2,2.5,4.3,4,4.3l67.4,0c0,0,0,0,0,0
					c1.6,0,2.8-0.4,3.5-1.3c0.6-0.7,1-1.8,1-2.9l0-77.5c0-18,0-48-15.5-75.7c-0.6-1-1.2-2.1-1.8-3.3l-7.3,0l-10,15.6
					c-0.7,1.1-2,1.8-3.4,1.8c0,0,0,0,0,0c-1.4,0-2.6-0.7-3.4-1.8l-10-15.6L107.5,87.2z M128.2,228.1c-0.9,0-1.9-0.3-2.6-1L100.2,205
					c-0.9-0.8-1.4-1.9-1.4-3l0-62c0-1.1,0.4-2.1,1.2-2.8c0.8-0.8,1.8-1.2,2.8-1.2c0,0,0,0,0,0l50.6,0c2.2,0,4,1.8,4,4l0,62
					c0,1.2-0.5,2.3-1.4,3l-25.3,22.1C130.1,227.8,129.1,228.1,128.2,228.1z M106.9,200.2l21.3,18.6l21.3-18.6l0-56.2l-42.6,0
					L106.9,200.2z M153.5,202L153.5,202L153.5,202z"/>
			</g>
		</g>
	</g>
	<g>
		<g>
			<path class="st1" d="M128.2,228.1c-0.9,0-1.9-0.3-2.6-1L100.2,205c-0.9-0.8-1.4-1.9-1.4-3l0-62c0-1.1,0.4-2.1,1.2-2.8
				c0.8-0.8,1.8-1.2,2.8-1.2c0,0,0,0,0,0l50.6,0c2.2,0,4,1.8,4,4l0,62c0,1.2-0.5,2.3-1.4,3l-25.3,22.1
				C130.1,227.8,129.1,228.1,128.2,228.1z M106.9,200.2l21.3,18.6l21.3-18.6l0-56.2l-42.6,0L106.9,200.2z"/>
		</g>
	</g>
</g>
</svg>
