<?xml version="1.0" encoding="utf-8"?>
<!-- Generator: Adobe Illustrator 22.1.0, SVG Export Plug-In . SVG Version: 6.00 Build 0)  -->
<svg version="1.1" id="Layer_1" xmlns="http://www.w3.org/2000/svg" xmlns:xlink="http://www.w3.org/1999/xlink" x="0px" y="0px"
	 viewBox="0 0 256 256" style="enable-background:new 0 0 256 256;" xml:space="preserve">
<style type="text/css">
	.st0{fill:#F5B31F;}
	.st1{fill:#464646;}
	.st2{opacity:0.15;}
	.st3{fill:#AC6535;}
	.st4{fill:#EB573B;}
	.st5{fill:#90C056;}
	.st6{opacity:0.35;}
	.st7{fill:#FFFFFF;}
	.st8{opacity:0.2;}
	.st9{fill:#F6D67A;}
	.st10{opacity:0.3;}
	.st11{fill:#FFA755;}
	.st12{fill:#8FAE3C;}
	.st13{fill:#BE6BB2;}
	.st14{fill:#B7C536;}
	.st15{opacity:0.1;}
	.st16{fill:#9D5A96;}
	.st17{fill:#EA615D;}
	.st18{opacity:0.4;}
	.st19{fill:#F79932;}
	.st20{fill:#FFEC97;}
	.st21{fill:#FFD11D;}
	.st22{fill:#F7F2D5;}
	.st23{fill:#F6AF72;}
	.st24{fill:#BA6C45;}
	.st25{opacity:0.5;}
	.st26{fill:#E4C074;}
	.st27{fill:#656566;}
	.st28{fill:#FACD1F;}
	.st29{fill:#FFDF66;}
	.st30{fill:#6D6E71;}
	.st31{fill:#E77CAE;}
	.st32{fill:#FFE5C4;}
	.st33{fill:#F68455;}
	.st34{opacity:0.7;}
	.st35{fill:#ADEDFF;}
	.st36{fill:#EC754B;}
	.st37{fill:#4AA5BA;}
	.st38{opacity:0.8;}
	.st39{fill:#92A5AC;}
	.st40{fill:#D06E3C;}
	.st41{fill:#DA4F4B;}
	.st42{fill:#BDF3FF;}
	.st43{fill:#F18BB4;}
	.st44{fill:#F9D97A;}
	.st45{fill:none;}
	.st46{fill:#AF6535;}
	.st47{fill:#B93226;}
	.st48{fill:#FF6050;}
	.st49{fill:#EA7CB1;}
	.st50{fill:#00B0E0;}
	.st51{fill:#EA7DAE;}
	.st52{fill:#BC7532;}
	.st53{fill:#876C6C;}
	.st54{fill:#F9F6CD;}
	.st55{fill:#FFE37B;}
	.st56{fill:#1DDCFF;}
	.st57{fill:#60ACF7;}
	.st58{fill:#C3755A;}
	.st59{fill:#96557A;}
	.st60{fill:#66625D;}
	.st61{fill:#D68032;}
	.st62{fill:#F2A355;}
	.st63{fill:#7E9E6A;}
	.st64{fill:#965A85;}
	.st65{fill:#90CAD3;}
	.st66{fill:#94B57F;}
	.st67{fill:#B2E2E7;}
	.st68{fill:#FFDF8F;}
	.st69{fill:#FFFAEB;}
	.st70{fill:#F88916;}
	.st71{fill:#FFC86E;}
	.st72{fill:#AFA51D;}
	.st73{fill:#968A1C;}
	.st74{fill:#C3556D;}
</style>
<g>
	<g>
		<g>
			<g>
				<path class="st33" d="M112.4,98.7c-6.7,1.9-13.3,5.6-19.5,11.1c-28.5-9.7-43.4-27.3-52.9-50.9c6.9-13,16.8-24.2,30.6-31.6
					c7.9-5,18.5-9.4,30.3-12.8C85.3,45.9,91,73.6,112.4,98.7z"/>
			</g>
		</g>
	</g>
	<g>
		<g>
			<g>
				<path class="st33" d="M188.3,17.5c-49.5,18.7-63.5,61.4-49.8,82.8c-0.5-0.2-1-0.4-1.6-0.6c-7.9-3-16.3-3.4-24.5-1.1
					C91,73.6,85.3,45.9,101,14.5c26.2-7.5,58.5-9.7,80.9-0.3C184.1,15.3,186.3,16.4,188.3,17.5z"/>
			</g>
		</g>
	</g>
	<g class="st15">
		<g>
			<g>
				<path d="M180.2,14.1c2.2,1,4.3,2.1,6.4,3.3c-49.5,18.7-63.5,61.4-49.8,82.8c-0.5-0.2-1-0.4-1.6-0.6c-1.2-0.5-4.6-0.9-5.8-1.2
					C119.2,64.4,135.1,35.8,180.2,14.1z"/>
			</g>
		</g>
	</g>
	<g class="st15">
		<g>
			<g>
				<path d="M100.4,13.5c-2.6,0.6-5.1,1.3-7.6,2c-15.7,31.4-10,59.1,11.4,84.1c1.9-0.5,3.8-0.9,5.7-1.2
					C87.9,70.6,85.9,42.3,100.4,13.5z"/>
			</g>
		</g>
	</g>
	<g>
		<g>
			<g>
				<path class="st33" d="M244.6,82.3c6.9,17.3,8.6,32.6,6.7,40.4c-4.7,18.7-13.5,26.3-31.5,31.5c-18,5.2-32.7,5.5-44.1-6.6
					c-5.3-5.7-9.1-14.7-14-23.5C176.3,91,206.4,68.6,244.6,82.3z"/>
			</g>
		</g>
	</g>
	<g class="st15">
		<g>
			<g>
				<path d="M244.6,82.3c6.9,17.3,8.6,32.6,6.7,40.4c-4.7,18.7-13.5,26.3-31.5,31.5c-10.8,3.1-20.4,4.5-28.8,2.5
					c-5.6-1.4-10.7-4.2-15.3-9.1c0,0,44.8,7.2,59.3-15.7C249.5,109.1,244.6,82.3,244.6,82.3z"/>
			</g>
		</g>
	</g>
	<g>
		<g>
			<g>
				<path class="st33" d="M244.6,82.2C244.6,82.2,244.6,82.3,244.6,82.2c-38.2-13.6-68.3,8.8-82.9,41.9c-5.3-9.6-11.9-19-23.1-23.8
					c-13.7-21.4,0.3-64.1,49.8-82.8C217.9,33.8,235.6,59.6,244.6,82.2z"/>
			</g>
		</g>
	</g>
	<g class="st15">
		<g>
			<g>
				<path d="M241.7,75.6c1.5,3,1.7,3.7,2.8,6.6c0,0,0,0,0,0c-38.2-13.6-68.3,8.8-82.9,41.9c-1-1.7-4-6.5-5-8.2
					C169.1,80.4,214.2,62.1,241.7,75.6z"/>
			</g>
		</g>
	</g>
	<g class="st2">
		<g>
			<g>
				<path class="st7" d="M101,14.5c-11.8,3.4-22.3,7.8-30.3,12.8C56.9,34.7,47,45.9,40.1,58.9c2,4.9,4.6,10.3,7.1,14.6
					C52.1,52.8,71.9,32.9,101,14.5z"/>
			</g>
		</g>
	</g>
	<g>
		<g>
			<g>
				<path class="st33" d="M93,109.8c-5.9,5.3-11.3,12.3-15.9,21.1c-20.5,7-37.4,3.9-51.4-6.6c0.1-21.2,3.8-45.4,14.5-65.4
					C49.6,82.5,64.5,100.1,93,109.8z"/>
			</g>
		</g>
	</g>
	<g class="st15">
		<g>
			<g>
				<path d="M88.4,114.6c1-1,2-2,2.9-2.9C62.9,102,48,84.4,38.4,60.8c-1,2-2,4-2.9,6C45.4,92.2,62.2,109.2,88.4,114.6z"/>
			</g>
		</g>
	</g>
	<g class="st2">
		<g>
			<g>
				<path class="st7" d="M47.2,73.5c-2.7-4.6-5-9.5-7.1-14.6c-10.7,20-14.4,44.2-14.5,65.4c3.1,2.3,6.3,4.2,9.6,5.8
					C35.8,109.9,39.3,90.8,47.2,73.5z"/>
			</g>
		</g>
	</g>
	<g>
		<g>
			<g>
				<path class="st33" d="M77,130.9c-1.7,3.2-3.3,6.6-4.8,10.3c-3.5,8.7-5.2,17.3-6,25.6c-13.2,8.2-25.3,8-36.1-2.3
					c-2.6-9.5-4.6-23.9-4.6-40.1C39.7,134.8,56.5,137.8,77,130.9z"/>
			</g>
		</g>
	</g>
	<g class="st15">
		<g>
			<g>
				<path d="M72.3,141.2c1.5-3.7,3.1-7.1,4.8-10.3c-20.5,7-37.4,3.9-51.4-6.6c0,2.6,0.1,6.7,0.2,9.2C39,142.3,54.7,144.3,72.3,141.2
					z"/>
			</g>
		</g>
	</g>
	<g class="st2">
		<g>
			<g>
				<path class="st7" d="M34.8,129.9c-3.3-1.6-6.1-3.3-9.1-5.6c-0.1,16.2,2,30.7,4.6,40.1c2.2,2.1,4.4,3.8,6.7,5.1
					C35.1,156.1,34.7,142.9,34.8,129.9z"/>
			</g>
		</g>
	</g>
	<g>
		<g>
			<g>
				<path class="st33" d="M66.3,166.7c-2.3,26.9,6.2,50.6,2.6,63.4c-4.8,16.8-26.6,19.8-32.5,16.8c-5.9-2.9-7-10.4-11-11.3
					c-4-0.8-16.8,7.8-21.1,2.2c-4.3-5.6,36.8-51.6,29.2-64.7c-1.1-2-2.3-5-3.4-8.8C41,174.7,53.1,175,66.3,166.7z"/>
			</g>
		</g>
	</g>
	<g class="st15">
		<g>
			<g>
				<path d="M65.9,177c-0.1-3.8,0.1-6.2,0.4-10.2c-13.2,8.2-25.3,8-36.1-2.3c1.1,3.9,2.2,6.9,3.4,8.8c0.8,1.5,1.3,1.2,1.1,3.3
					C43.3,181.4,53.7,181.5,65.9,177z"/>
			</g>
		</g>
	</g>
	<g>
		<g>
			<g>
				<g>
					<path class="st1" d="M93,113.8c-0.4,0-0.9-0.1-1.3-0.2C64.6,104.4,47.5,88,36.4,60.4C35.9,59.3,36,58,36.6,57
						c7.9-14.8,18.7-25.9,32.2-33.1c8.3-5.1,19.1-9.7,31.2-13.2c1.5-0.4,3.2,0.1,4.2,1.3c1,1.2,1.2,2.9,0.5,4.3
						c-14.3,28.5-10.7,54.6,10.9,79.8c0.9,1,1.2,2.5,0.8,3.8c-0.4,1.3-1.4,2.3-2.7,2.7c-6.3,1.8-12.3,5.2-17.9,10.3
						C94.9,113.5,94,113.8,93,113.8z M44.5,59.1c9.9,23.5,24.7,37.8,47.6,46.1c4.3-3.6,8.9-6.5,13.6-8.5C87.4,73,83.3,47.6,93.7,21
						c-8,2.8-15.2,6.1-20.9,9.7c-0.1,0-0.2,0.1-0.2,0.1C61,37.1,51.6,46.6,44.5,59.1z"/>
				</g>
			</g>
		</g>
		<g>
			<g>
				<g>
					<path class="st1" d="M138.5,104.4c-0.5,0-1.1-0.1-1.6-0.3c-0.5-0.2-0.9-0.4-1.4-0.6c-7.1-2.7-14.7-3-22-0.9
						c-1.5,0.4-3.1-0.1-4.1-1.2C85.8,73.7,81.8,44,97.5,12.7c0.5-1,1.4-1.7,2.5-2.1c24.1-6.9,58.7-10.6,83.6-0.1
						c0.1,0,0.1,0,0.2,0.1c2.2,1,4.4,2.2,6.6,3.4c1.4,0.8,2.2,2.2,2.1,3.8s-1.1,2.9-2.6,3.5c-35.5,13.4-46.6,36.9-49.7,46.3
						c-3.8,11.6-3.1,22.7,1.9,30.6c0.9,1.5,0.8,3.4-0.3,4.7C140.8,103.9,139.7,104.4,138.5,104.4z M103.8,17.9
						C90.8,45,94.1,70,113.9,94.2c5.8-1.3,11.7-1.3,17.4-0.2c-2.6-8.6-2.2-18.7,1.2-28.9c3.2-9.8,14-32.9,46.3-47.8
						C156.5,8.7,126,11.8,103.8,17.9z"/>
				</g>
			</g>
		</g>
		<g>
			<g>
				<g>
					<path class="st1" d="M199.5,161.7c-9.4,0-18.7-2.8-26.7-11.3c-4.3-4.6-7.5-10.8-10.9-17.4c-1.2-2.3-2.4-4.6-3.7-6.9
						c-0.6-1.1-0.7-2.4-0.2-3.6c8-18.2,19.9-32.1,34.3-40.3c16.1-9.2,34.7-10.5,53.6-3.7c1.1,0.4,1.9,1.2,2.4,2.3
						c6.5,16.5,9.2,33.3,6.8,42.9c-4.8,19.2-14.1,28.5-34.3,34.4C214,160.1,206.7,161.7,199.5,161.7z M166.1,124
						c1,1.8,1.9,3.6,2.8,5.3c3.2,6.1,6.1,11.8,9.7,15.6c9,9.6,20.6,11.1,40,5.5c17.6-5.1,24.6-12.1,28.8-28.6
						c1.6-6.4,0.4-19.9-5.9-36.3C216.9,77.4,184.8,83.5,166.1,124z"/>
				</g>
			</g>
		</g>
		<g>
			<g>
				<g>
					<path class="st1" d="M161.6,128.2c-1.4,0-2.8-0.8-3.5-2.1c-4.9-8.8-10.8-17.6-21.2-22.1c-0.7-0.3-1.4-0.8-1.8-1.5
						c-6.3-9.9-7.3-23.6-2.8-37.4c3.5-10.5,15.8-36.7,54.5-51.3c1.1-0.4,2.3-0.3,3.3,0.2c35.1,19.3,51.4,50.1,58,66.7
						c0.6,1.4,0.4,3-0.6,4.1c-1.1,1.3-2.8,1.8-4.4,1.2c-25.2-9-58.9-3.3-77.9,39.7c-0.6,1.4-2,2.3-3.5,2.4
						C161.8,128.2,161.7,128.2,161.6,128.2z M141.3,97.2c9.1,4.3,15.3,11.3,20,18.5c7.8-14.9,18.5-26.4,31-33.5
						c13.7-7.8,29.2-9.9,45.2-6.2C229.9,60.1,215,37.4,188,21.9c-24.1,9.6-41.5,26.1-48,45.7C136.3,78.7,136.8,89.4,141.3,97.2z"/>
				</g>
			</g>
		</g>
		<g>
			<g>
				<g>
					<path class="st1" d="M56.1,138.6c-11.9,0-22.9-3.7-32.8-11.1c-1-0.8-1.6-2-1.6-3.2c0.1-18.1,2.7-44.5,14.9-67.3
						c0.7-1.4,2.2-2.2,3.7-2.1c1.6,0.1,2.9,1.1,3.5,2.5C54,82.6,69.5,97.6,94.3,106c1.3,0.5,2.3,1.6,2.6,3c0.3,1.4-0.2,2.8-1.2,3.8
						c-5.7,5.2-10.8,11.9-15.1,20c-0.5,0.9-1.3,1.6-2.2,1.9C70.6,137.3,63.2,138.6,56.1,138.6z M29.7,122.2c13,9,27.6,10.8,44.6,5.3
						c3.4-6.1,7.2-11.6,11.5-16.2c-21.1-8.5-35.6-22.1-45.8-43C32,87,29.9,107.2,29.7,122.2z"/>
				</g>
			</g>
		</g>
		<g>
			<g>
				<g>
					<path class="st1" d="M48.6,176.5c-7.6,0-14.8-3.1-21.2-9.2c-0.5-0.5-0.9-1.1-1.1-1.8c-3.1-11.1-4.8-26.1-4.7-41.2
						c0-1.5,0.9-2.9,2.2-3.6c1.4-0.7,3-0.5,4.2,0.4c13.7,10.3,29.3,12.3,47.7,6c1.6-0.5,3.3-0.1,4.3,1.2c1.1,1.2,1.3,3,0.5,4.5
						c-1.6,3.1-3.2,6.4-4.6,9.9c-3.1,7.6-4.9,15.6-5.7,24.4c-0.1,1.3-0.8,2.4-1.9,3C61.6,174.4,54.9,176.5,48.6,176.5z M33.8,162.3
						c8.5,7.7,17.7,8.4,28.7,2.1c0.9-8.8,2.9-16.9,6-24.7c0.4-0.9,0.7-1.7,1.1-2.6c-14.6,3.2-27.9,1.4-39.9-5.4
						C30.2,143,31.6,153.9,33.8,162.3z"/>
				</g>
			</g>
		</g>
		<g>
			<g>
				<g>
					<path class="st1" d="M42.1,252c-2.9,0-5.5-0.5-7.4-1.4c-4-2-6.2-5.4-8-8.1c-0.6-1-1.6-2.4-2.1-2.8c-0.9,0.1-3.2,0.9-4.8,1.5
						c-6,2.2-14.2,5.1-18.7-0.8c-3.4-4.4,0.7-11,11.1-27c7.4-11.4,21.1-32.5,17.9-38.1c-1.3-2.3-2.6-5.6-3.8-9.8
						c-0.5-1.7,0.3-3.6,1.8-4.5c1.5-0.9,3.5-0.7,4.8,0.5c9.2,8.8,19.1,9.4,31.2,1.8c1.3-0.8,2.9-0.8,4.2,0c1.3,0.8,2,2.2,1.9,3.8
						c-1.2,13.3,0.4,25.8,1.9,36.8c1.4,10.9,2.6,20.3,0.6,27.3c-2.8,9.9-10.3,15-16,17.6C52,250.9,46.7,252,42.1,252z M24.8,231.7
						c0.5,0,0.9,0,1.4,0.1c3.6,0.7,5.5,3.7,7.2,6.3c1.4,2.2,2.7,4.2,4.8,5.3c1.8,0.9,8.5,1.1,15.2-1.9c4.2-1.9,9.6-5.5,11.6-12.4
						c1.6-5.5,0.5-14.1-0.8-24.1c-1.2-9.5-2.6-20-2.3-31.4c-8.3,3.6-16.3,3.9-23.7,0.9c1.9,9.4-6.9,24.1-19.3,43.2
						c-4.1,6.3-9.5,14.7-10.7,18.1c2,0.3,6.9-1.5,8.9-2.2C20.2,232.6,22.6,231.7,24.8,231.7z"/>
				</g>
			</g>
		</g>
	</g>
	<g>
		<g>
			<path class="st1" d="M24.1,228.2c-0.9,0-1.8-0.3-2.6-0.9c-1.7-1.4-1.9-3.9-0.5-5.6c7.4-9,10.3-13.9,12-20.2
				c0.6-2.1,2.7-3.4,4.9-2.9c2.1,0.6,3.4,2.7,2.9,4.9c-2.2,8.6-6.3,14.6-13.6,23.3C26.4,227.7,25.3,228.2,24.1,228.2z"/>
		</g>
	</g>
	<g>
		<g>
			<path class="st1" d="M41.9,238.2c-1.9,0-3.5-1.3-3.9-3.2c-0.4-2.2,1-4.3,3.1-4.7c10.6-2.1,13.3-8.3,11.5-26.7
				c-0.2-2.2,1.4-4.2,3.6-4.4c2.2-0.2,4.2,1.4,4.4,3.6c1.5,15.7,1.4,31.4-17.9,35.3C42.4,238.2,42.2,238.2,41.9,238.2z"/>
		</g>
	</g>
</g>
</svg>
