<?xml version="1.0" encoding="utf-8"?>
<!-- Generator: Adobe Illustrator 22.1.0, SVG Export Plug-In . SVG Version: 6.00 Build 0)  -->
<svg version="1.1" id="Layer_1" xmlns="http://www.w3.org/2000/svg" xmlns:xlink="http://www.w3.org/1999/xlink" x="0px" y="0px"
	 viewBox="0 0 256 256" style="enable-background:new 0 0 256 256;" xml:space="preserve">
<style type="text/css">
	.st0{fill:#F5B31F;}
	.st1{fill:#464646;}
	.st2{opacity:0.15;}
	.st3{fill:#AC6535;}
	.st4{fill:#EB573B;}
	.st5{fill:#90C056;}
	.st6{opacity:0.35;}
	.st7{fill:#FFFFFF;}
	.st8{opacity:0.2;}
	.st9{fill:#F6D67A;}
	.st10{opacity:0.3;}
	.st11{fill:#FFA755;}
	.st12{fill:#8FAE3C;}
	.st13{fill:#BE6BB2;}
	.st14{fill:#B7C536;}
	.st15{opacity:0.1;}
	.st16{fill:#9D5A96;}
	.st17{fill:#EA615D;}
	.st18{opacity:0.4;}
	.st19{fill:#F79932;}
	.st20{fill:#FFEC97;}
	.st21{fill:#FFD11D;}
	.st22{fill:#F7F2D5;}
	.st23{fill:#F6AF72;}
	.st24{fill:#BA6C45;}
	.st25{opacity:0.5;}
	.st26{fill:#E4C074;}
	.st27{fill:#656566;}
	.st28{fill:#FACD1F;}
	.st29{fill:#FFDF66;}
	.st30{fill:#6D6E71;}
	.st31{fill:#E77CAE;}
	.st32{fill:#FFE5C4;}
	.st33{fill:#F68455;}
	.st34{opacity:0.7;}
	.st35{fill:#ADEDFF;}
	.st36{fill:#EC754B;}
	.st37{fill:#4AA5BA;}
	.st38{opacity:0.8;}
	.st39{fill:#92A5AC;}
	.st40{fill:#D06E3C;}
	.st41{fill:#DA4F4B;}
	.st42{fill:#BDF3FF;}
	.st43{fill:#F18BB4;}
	.st44{fill:#F9D97A;}
	.st45{fill:none;}
	.st46{fill:#AF6535;}
	.st47{fill:#B93226;}
	.st48{fill:#FF6050;}
	.st49{fill:#EA7CB1;}
	.st50{fill:#00B0E0;}
	.st51{fill:#EA7DAE;}
	.st52{fill:#BC7532;}
	.st53{fill:#876C6C;}
	.st54{fill:#F9F6CD;}
	.st55{fill:#FFE37B;}
	.st56{fill:#1DDCFF;}
	.st57{fill:#60ACF7;}
	.st58{fill:#C3755A;}
	.st59{fill:#96557A;}
	.st60{fill:#66625D;}
	.st61{fill:#D68032;}
	.st62{fill:#F2A355;}
	.st63{fill:#7E9E6A;}
	.st64{fill:#965A85;}
	.st65{fill:#90CAD3;}
	.st66{fill:#94B57F;}
	.st67{fill:#B2E2E7;}
	.st68{fill:#FFDF8F;}
	.st69{fill:#FFFAEB;}
	.st70{fill:#F88916;}
	.st71{fill:#FFC86E;}
	.st72{fill:#AFA51D;}
	.st73{fill:#968A1C;}
	.st74{fill:#C3556D;}
</style>
<g>
	<g>
		<g>
			<path class="st7" d="M115.2,78.9l-30.3,0c-3.3-14.6-8.7-28.7-8.7-28.7l29.3,0L115.2,78.9z"/>
		</g>
	</g>
	<g>
		<g>
			<path class="st21" d="M184.4,153.7c0,24.5-16.4,54.7-55.1,54.7c-38.7,0-55.1-30.3-55.1-54.7c0-24.5,13.1-38.7,13.1-56.6
				c0-5.4-1-11.9-2.4-18.2l89,0c-1.4,6.4-2.4,12.8-2.4,18.2C171.4,115,184.5,129.3,184.4,153.7z"/>
		</g>
	</g>
	<g class="st18">
		<g>
			<path class="st7" d="M97.4,78.9l-12.6,0c1.4,6.4,2.4,12.8,2.4,18.2c0,17.9-13.1,32.2-13.1,56.6c0,14,5.4,30,17.3,41
				c0,0-5.7-22.9-5.7-41.3c0-18.4,9.6-35.8,11.8-45.5S97.4,78.9,97.4,78.9z"/>
		</g>
	</g>
	<g class="st15">
		<g>
			<path d="M129.3,208.5c38.7,0,55.1-30.3,55.1-54.7s-13.1-38.7-13-56.6c0-5.4,1-11.9,2.4-18.2l-12.9,0c0,0-5.4,12.7-3.8,29.3
				s20.8,38.7,12,62.9C164.9,185.8,149.8,199.7,129.3,208.5z"/>
		</g>
	</g>
	<g>
		<g>
			<path class="st7" d="M177.4,65.3c-1.2,4.2-2.5,8.8-3.6,13.5l-45.9,0l-10.1-28.7l38.2,0C162.7,55.8,170.2,61.1,177.4,65.3z"/>
		</g>
	</g>
	<g>
		<g>
			<path class="st63" d="M211.5,71.3c-5.1,6.7-19.2,2.7-34.1-5.9c-7.3-4.2-14.7-9.5-21.4-15.2c-16.7-14.1-28.9-30.6-22.7-38.7
				l52.2,14.3L211.5,71.3z"/>
		</g>
	</g>
	<g class="st8">
		<g>
			<path class="st7" d="M185.5,25.7l-52.2-14.3c-6.2,8.1,6.1,24.6,22.7,38.7c0,0-11.7-19.8-8.4-24.4S185.5,25.7,185.5,25.7z"/>
		</g>
	</g>
	<g class="st15">
		<g>
			<path d="M177.4,65.3c-1.2,4.2-2.5,8.8-3.6,13.5l-12.9,0c1.7-3.5,3.3-7,4.7-10.4c-4.9-3.3-11.8-8.1-15.9-11.5
				c-1.5-1.3-2.9-2.5-4.3-3.8l8.2-5l22.8,16.7C176.8,65,177.1,65.1,177.4,65.3z"/>
		</g>
	</g>
	<g>
		<g>
			<polygon class="st54" points="127.9,78.9 115.2,78.9 105.5,50.1 99.4,32.2 107.5,20.8 117.8,50.1 			"/>
		</g>
	</g>
	<g class="st15">
		<g>
			<polygon points="108.5,50.1 118.6,78.9 105.9,78.9 96.1,50.1 			"/>
		</g>
	</g>
	<g>
		<g>
			<polygon class="st54" points="104.4,9.6 107.5,20.8 99.4,32.2 95.7,18.9 			"/>
		</g>
	</g>
	<g>
		<g>
			<polygon class="st54" points="104.4,9.6 95.7,18.9 44.6,14.3 46.1,4 			"/>
		</g>
	</g>
	<g>
		<g>
			<path class="st1" d="M127.9,82.9L127.9,82.9l-12.8,0c-1.7,0-3.2-1.1-3.8-2.7L95.6,33.4c-0.4-1.2-0.2-2.6,0.5-3.6l8.1-11.3
				c0.9-1.2,2.3-1.8,3.8-1.6c1.5,0.2,2.7,1.2,3.2,2.6l20.5,58c0.4,1.2,0.2,2.6-0.5,3.6C130.5,82.2,129.2,82.9,127.9,82.9z M118,74.9
				l4.3,0l-16-45.5l-2.4,3.4L118,74.9z"/>
		</g>
	</g>
	<g>
		<g>
			<path class="st1" d="M99.4,36.2c-0.2,0-0.5,0-0.7-0.1c-1.5-0.3-2.7-1.4-3.2-2.9L91.8,20c-0.4-1.3,0-2.8,0.9-3.8l8.7-9.3
				c1-1.1,2.5-1.5,3.9-1.2c1.4,0.3,2.5,1.4,2.9,2.8l3.1,11.2c0.3,1.2,0.1,2.4-0.6,3.4l-8.1,11.3C101.9,35.5,100.7,36.2,99.4,36.2z
				 M100.1,20l0.9,3l2.1-3l-0.7-2.5L100.1,20z"/>
		</g>
	</g>
	<g>
		<g>
			<path class="st1" d="M95.7,22.9c-0.1,0-0.2,0-0.4,0l-51.1-4.6c-1.1-0.1-2.1-0.6-2.8-1.5c-0.7-0.9-1-2-0.8-3.1l1.5-10.3
				c0.3-2.1,2.2-3.6,4.3-3.4l58.3,5.6c1.5,0.1,2.8,1.1,3.4,2.6s0.2,3-0.8,4.1l-8.7,9.3C97.9,22.4,96.8,22.9,95.7,22.9z M49.2,10.7
				l44.9,4l1.8-1.9L49.5,8.4L49.2,10.7z"/>
		</g>
	</g>
	<g>
		<g>
			<path class="st1" d="M129.3,212.5C129.3,212.5,129.3,212.5,129.3,212.5c-23.6,0-37.6-10.7-45.1-19.6c-8.9-10.6-14-24.8-14-39.1
				c0-13.9,4-24.7,7.5-34.2c3-8,5.5-14.9,5.5-22.4c0-4.6-0.8-10.4-2.3-17.4c-0.3-1.2,0-2.4,0.8-3.4c0.8-0.9,1.9-1.5,3.1-1.5l0,0
				l89,0c1.2,0,2.4,0.6,3.1,1.5s1,2.2,0.8,3.4c-1.6,6.9-2.3,12.8-2.4,17.4c0,7.5,2.6,14.4,5.5,22.4c3.5,9.5,7.5,20.3,7.5,34.2v0
				c0,0,0,0,0,0c0,14.3-5.1,28.5-14,39.1C166.9,201.8,153,212.5,129.3,212.5z M89.7,82.9c1,5.4,1.5,10.2,1.5,14.2
				c0,9-2.9,16.9-6,25.2c-3.5,9.3-7,19-7,31.4c0,12.4,4.4,24.8,12.1,34c9.2,11,22.7,16.8,39,16.8c0,0,0,0,0,0
				c16.3,0,29.8-5.8,39-16.8c7.7-9.1,12.1-21.5,12.1-33.9v0c0-12.5-3.6-22.1-7-31.4c-3.1-8.3-6-16.2-6-25.2c0-4,0.5-8.8,1.5-14.2
				L89.7,82.9z"/>
		</g>
	</g>
	<g>
		<g>
			<path class="st1" d="M115.2,82.9L115.2,82.9l-30.3,0c-1.9,0-3.5-1.3-3.9-3.1c-3.2-14.2-8.5-28-8.5-28.2c-0.5-1.2-0.3-2.6,0.4-3.7
				c0.7-1.1,2-1.7,3.3-1.7l0,0l29.3,0c1.7,0,3.2,1.1,3.8,2.7l9.7,28.7c0.4,1.2,0.2,2.6-0.5,3.6C117.7,82.2,116.5,82.9,115.2,82.9z
				 M88,74.9l21.6,0l-7-20.7l-20.7,0C83.5,59,86,66.7,88,74.9z"/>
		</g>
	</g>
	<g>
		<g>
			<path class="st1" d="M173.8,82.9L173.8,82.9l-45.9,0c-1.7,0-3.2-1.1-3.8-2.7l-10.1-28.7c-0.4-1.2-0.2-2.6,0.5-3.6
				c0.8-1.1,2-1.7,3.3-1.7l0,0l38.2,0c0.9,0,1.9,0.3,2.6,0.9c6.6,5.6,13.9,10.7,20.9,14.8c1.6,0.9,2.4,2.8,1.8,4.6
				c-1.4,4.7-2.6,9.2-3.5,13.2C177.3,81.6,175.7,82.9,173.8,82.9z M130.8,74.9l39.9,0c0.6-2.5,1.3-5,2-7.7
				c-6.1-3.8-12.4-8.2-18.2-13.1l-31.1,0L130.8,74.9z"/>
		</g>
	</g>
	<g>
		<g>
			<path class="st1" d="M127.9,82.9L127.9,82.9l-12.8,0c-1.7,0-3.2-1.1-3.8-2.7l-9.7-28.7c-0.4-1.2-0.2-2.6,0.5-3.6
				c0.8-1,2-1.7,3.2-1.7l0,0l12.4,0c1.7,0,3.2,1.1,3.8,2.7l10.1,28.7c0.4,1.2,0.2,2.6-0.5,3.6C130.5,82.2,129.2,82.9,127.9,82.9z
				 M118,74.9l4.3,0L115,54.1l-4,0L118,74.9z"/>
		</g>
	</g>
	<g>
		<g>
			<path class="st1" d="M129.3,256L129.3,256c-2.2,0-4-1.8-4-4l0-43.6c0-2.2,1.8-4,4-4l0,0c2.2,0,4,1.8,4,4l0,43.6
				C133.3,254.2,131.5,256,129.3,256z"/>
		</g>
	</g>
	<g>
		<g>
			<path class="st1" d="M171.6,256L171.6,256l-84.4,0c-2.2,0-4-1.8-4-4c0-2.2,1.8-4,4-4l0,0l84.4,0c2.2,0,4,1.8,4,4
				C175.6,254.2,173.8,256,171.6,256z"/>
		</g>
	</g>
	<g>
		<g>
			<path class="st1" d="M203.3,78.7c-7.1,0-16.6-3.3-27.8-9.9c-7.4-4.3-15-9.7-22-15.6c-8.1-6.9-33.8-30.4-23.3-44.1
				c1-1.3,2.7-1.9,4.2-1.4l52.2,14.3c1,0.3,1.9,1,2.4,1.9l26,45.6c0.8,1.4,0.7,3.1-0.3,4.4C212.1,77,208.3,78.7,203.3,78.7z
				 M135.7,16.3c-0.3,5.7,6.9,17.3,22.9,30.8c6.6,5.6,13.9,10.7,20.9,14.8c13.5,7.9,22.6,9.8,26.8,8.4l-23.4-41.1L135.7,16.3z"/>
		</g>
	</g>
</g>
</svg>
