<?xml version="1.0" encoding="utf-8"?>
<!-- Generator: Adobe Illustrator 22.1.0, SVG Export Plug-In . SVG Version: 6.00 Build 0)  -->
<svg version="1.1" id="Layer_1" xmlns="http://www.w3.org/2000/svg" xmlns:xlink="http://www.w3.org/1999/xlink" x="0px" y="0px"
	 viewBox="0 0 256 256" style="enable-background:new 0 0 256 256;" xml:space="preserve">
<style type="text/css">
	.st0{fill:#F5B31F;}
	.st1{fill:#464646;}
	.st2{opacity:0.15;}
	.st3{fill:#AC6535;}
	.st4{fill:#EB573B;}
	.st5{fill:#90C056;}
	.st6{opacity:0.35;}
	.st7{fill:#FFFFFF;}
	.st8{opacity:0.2;}
	.st9{fill:#F6D67A;}
	.st10{opacity:0.3;}
	.st11{fill:#FFA755;}
	.st12{fill:#8FAE3C;}
	.st13{fill:#BE6BB2;}
	.st14{fill:#B7C536;}
	.st15{opacity:0.1;}
	.st16{fill:#9D5A96;}
	.st17{fill:#EA615D;}
	.st18{opacity:0.4;}
	.st19{fill:#F79932;}
	.st20{fill:#FFEC97;}
	.st21{fill:#FFD11D;}
	.st22{fill:#F7F2D5;}
	.st23{fill:#F6AF72;}
	.st24{fill:#BA6C45;}
	.st25{opacity:0.5;}
	.st26{fill:#E4C074;}
	.st27{fill:#656566;}
	.st28{fill:#FACD1F;}
	.st29{fill:#FFDF66;}
	.st30{fill:#6D6E71;}
	.st31{fill:#E77CAE;}
	.st32{fill:#FFE5C4;}
	.st33{fill:#F68455;}
	.st34{opacity:0.7;}
	.st35{fill:#ADEDFF;}
	.st36{fill:#EC754B;}
	.st37{fill:#4AA5BA;}
	.st38{opacity:0.8;}
	.st39{fill:#92A5AC;}
	.st40{fill:#D06E3C;}
	.st41{fill:#DA4F4B;}
	.st42{fill:#BDF3FF;}
	.st43{fill:#F18BB4;}
	.st44{fill:#F9D97A;}
	.st45{fill:none;}
	.st46{fill:#AF6535;}
	.st47{fill:#B93226;}
	.st48{fill:#FF6050;}
	.st49{fill:#EA7CB1;}
	.st50{fill:#00B0E0;}
	.st51{fill:#EA7DAE;}
	.st52{fill:#BC7532;}
	.st53{fill:#876C6C;}
	.st54{fill:#F9F6CD;}
	.st55{fill:#FFE37B;}
	.st56{fill:#1DDCFF;}
	.st57{fill:#60ACF7;}
	.st58{fill:#C3755A;}
	.st59{fill:#96557A;}
	.st60{fill:#66625D;}
	.st61{fill:#D68032;}
	.st62{fill:#F2A355;}
	.st63{fill:#7E9E6A;}
	.st64{fill:#965A85;}
	.st65{fill:#90CAD3;}
	.st66{fill:#94B57F;}
	.st67{fill:#B2E2E7;}
	.st68{fill:#FFDF8F;}
	.st69{fill:#FFFAEB;}
	.st70{fill:#F88916;}
	.st71{fill:#FFC86E;}
	.st72{fill:#AFA51D;}
	.st73{fill:#968A1C;}
	.st74{fill:#C3556D;}
</style>
<g>
	<g>
		<g>
			<path class="st7" d="M195,71.4c0,10.7-2.5,20.9-7,29.9l-120.4,0c-4.5-9-7-19.1-7-29.9c0-37.2,30.1-67.3,67.1-67.3
				C165,4.1,195,34.2,195,71.4z"/>
		</g>
	</g>
	<g>
		<g>
			<path class="st7" d="M195,71.4c0,10.7-2.5,20.9-7,29.9l-120.4,0c-4.5-9-7-19.1-7-29.9c0-37.2,30.1-67.3,67.1-67.3
				C165,4.1,195,34.2,195,71.4z"/>
		</g>
	</g>
	<g class="st8">
		<g>
			<path class="st1" d="M165.8,101.2l22.2,0c4.5-9,7-19.1,7-29.9c0-37.2-30.1-67.3-67.1-67.3c0,0,49.7,17.6,53.3,58.5
				C184.6,103,165.8,101.2,165.8,101.2z"/>
		</g>
	</g>
	<g>
		<g>
			<polygon class="st44" points="175,154.1 165.7,252.1 89.4,252.1 80.8,154.1 			"/>
		</g>
	</g>
	<g>
		<g>
			<polygon class="st44" points="190.7,101.2 184.6,154.1 71.2,154.1 65.1,101.2 			"/>
		</g>
	</g>
	<g class="st10">
		<g>
			<path class="st7" d="M190.7,101.2l-125.6,0l6.1,52.9c0,0-4.2-30,11.9-40.7S190.7,101.2,190.7,101.2z"/>
		</g>
	</g>
	<g class="st8">
		<g>
			<path class="st1" d="M175,154.1l-9.3,98l-11.9,0l-34.5,0c0,0,32.1-3.5,36.5-17.5c4.4-13.9,6.5-70.2,6.5-70.2l-76.8,0L81,154.1
				L175,154.1z"/>
		</g>
	</g>
	<g>
		<g>
			<path class="st1" d="M165.7,256.1L165.7,256.1l-76.4,0c-2.1,0-3.8-1.6-4-3.7l-8.6-98c-0.1-1.1,0.3-2.2,1-3.1
				c0.8-0.8,1.8-1.3,2.9-1.3l0,0l94.2,0c1.1,0,2.2,0.5,3,1.3s1.1,1.9,1,3.1l-9.3,98C169.5,254.5,167.8,256.1,165.7,256.1z M93,248.1
				l69.1,0l8.5-90l-85.4,0L93,248.1z"/>
		</g>
	</g>
	<g>
		<g>
			<path class="st1" d="M188.1,105.2L188.1,105.2l-120.4,0c-1.5,0-2.9-0.9-3.6-2.2c-4.9-9.9-7.4-20.5-7.4-31.6
				c0-19,7.4-36.9,20.8-50.4C91,7.5,108.9,0.1,127.9,0.1c0,0,0,0,0,0c19,0,36.9,7.4,50.3,20.9C191.6,34.4,199,52.3,199,71.4l0,0
				c0,11.1-2.5,21.7-7.4,31.6C191,104.4,189.6,105.2,188.1,105.2z M70.3,97.2l115.3,0c3.6-8.1,5.5-16.8,5.5-25.9
				c0-16.9-6.6-32.8-18.5-44.7c-11.9-11.9-27.8-18.5-44.6-18.5c0,0,0,0,0,0c-16.9,0-32.7,6.6-44.6,18.5
				c-11.9,12-18.5,27.8-18.5,44.7C64.8,80.4,66.6,89.1,70.3,97.2z M195,71.4L195,71.4L195,71.4z"/>
		</g>
	</g>
	<g>
		<g>
			<path class="st1" d="M184.6,158.1L184.6,158.1l-113.5,0c-2,0-3.7-1.5-4-3.5l-6.1-52.9c-0.1-1.1,0.2-2.3,1-3.1
				c0.8-0.9,1.8-1.3,3-1.3l0,0l125.6,0c1.1,0,2.2,0.5,3,1.3c0.8,0.9,1.1,2,1,3.1l-6.1,52.9C188.4,156.6,186.7,158.1,184.6,158.1z
				 M74.7,150.1l106.3,0l5.2-44.9l-116.6,0L74.7,150.1z"/>
		</g>
	</g>
	<g>
		<g>
			<path class="st1" d="M122.4,237.4c-1,0-2-0.4-2.8-1.2l-23.3-23.3c-1.6-1.6-1.6-4.1,0-5.7c1.6-1.6,4.1-1.6,5.7,0l23.3,23.3
				c1.6,1.6,1.6,4.1,0,5.7C124.4,237,123.4,237.4,122.4,237.4z"/>
		</g>
	</g>
	<g>
		<g>
			<path class="st1" d="M157.7,202c-1,0-2-0.4-2.8-1.2l-23.3-23.3c-1.6-1.6-1.6-4.1,0-5.7c1.6-1.6,4.1-1.6,5.7,0l23.3,23.3
				c1.6,1.6,1.6,4.1,0,5.7C159.8,201.6,158.7,202,157.7,202z"/>
		</g>
	</g>
	<g>
		<g>
			<path class="st1" d="M153.8,233.5c-1,0-2-0.4-2.8-1.2l-50.8-50.9c-1.6-1.6-1.6-4.1,0-5.7c1.6-1.6,4.1-1.6,5.7,0l50.8,50.9
				c1.6,1.6,1.6,4.1,0,5.7C155.9,233.1,154.9,233.5,153.8,233.5z"/>
		</g>
	</g>
	<g>
		<g>
			<path class="st1" d="M98,141.9c-1.4,0-2.8-0.8-3.5-2.1l-10.7-19.7c-1.1-1.9-0.3-4.4,1.6-5.4c1.9-1.1,4.4-0.3,5.4,1.6l10.7,19.7
				c1.1,1.9,0.3,4.4-1.6,5.4C99.3,141.8,98.7,141.9,98,141.9z"/>
		</g>
	</g>
	<g>
		<g>
			<path class="st1" d="M132.7,141.9c-1.4,0-2.8-0.8-3.5-2.1l-10.7-19.7c-1.1-1.9-0.3-4.4,1.6-5.4c1.9-1.1,4.4-0.3,5.4,1.6
				l10.7,19.7c1.1,1.9,0.3,4.4-1.6,5.4C134,141.8,133.3,141.9,132.7,141.9z"/>
		</g>
	</g>
	<g>
		<g>
			<path class="st1" d="M167.4,141.9c-1.4,0-2.8-0.8-3.5-2.1l-10.7-19.7c-1.1-1.9-0.3-4.4,1.6-5.4c1.9-1.1,4.4-0.3,5.4,1.6
				l10.7,19.7c1.1,1.9,0.3,4.4-1.6,5.4C168.7,141.8,168,141.9,167.4,141.9z"/>
		</g>
	</g>
</g>
</svg>
