<?xml version="1.0" encoding="utf-8"?>
<!-- Generator: Adobe Illustrator 22.1.0, SVG Export Plug-In . SVG Version: 6.00 Build 0)  -->
<svg version="1.1" id="Layer_1" xmlns="http://www.w3.org/2000/svg" xmlns:xlink="http://www.w3.org/1999/xlink" x="0px" y="0px"
	 viewBox="0 0 256 256" style="enable-background:new 0 0 256 256;" xml:space="preserve">
<style type="text/css">
	.st0{fill:#F5B31F;}
	.st1{fill:#464646;}
	.st2{opacity:0.15;}
	.st3{fill:#AC6535;}
	.st4{fill:#EB573B;}
	.st5{fill:#90C056;}
	.st6{opacity:0.35;}
	.st7{fill:#FFFFFF;}
	.st8{opacity:0.2;}
	.st9{fill:#F6D67A;}
	.st10{opacity:0.3;}
	.st11{fill:#FFA755;}
	.st12{fill:#8FAE3C;}
	.st13{fill:#BE6BB2;}
	.st14{fill:#B7C536;}
	.st15{opacity:0.1;}
	.st16{fill:#9D5A96;}
	.st17{fill:#EA615D;}
	.st18{opacity:0.4;}
	.st19{fill:#F79932;}
	.st20{fill:#FFEC97;}
	.st21{fill:#FFD11D;}
	.st22{fill:#F7F2D5;}
	.st23{fill:#F6AF72;}
	.st24{fill:#BA6C45;}
	.st25{opacity:0.5;}
	.st26{fill:#E4C074;}
	.st27{fill:#656566;}
	.st28{fill:#FACD1F;}
	.st29{fill:#FFDF66;}
	.st30{fill:#6D6E71;}
	.st31{fill:#E77CAE;}
	.st32{fill:#FFE5C4;}
	.st33{fill:#F68455;}
	.st34{opacity:0.7;}
	.st35{fill:#ADEDFF;}
	.st36{fill:#EC754B;}
	.st37{fill:#4AA5BA;}
	.st38{opacity:0.8;}
	.st39{fill:#92A5AC;}
	.st40{fill:#D06E3C;}
	.st41{fill:#DA4F4B;}
	.st42{fill:#BDF3FF;}
	.st43{fill:#F18BB4;}
	.st44{fill:#F9D97A;}
	.st45{fill:none;}
	.st46{fill:#AF6535;}
	.st47{fill:#B93226;}
	.st48{fill:#FF6050;}
	.st49{fill:#EA7CB1;}
	.st50{fill:#00B0E0;}
	.st51{fill:#EA7DAE;}
	.st52{fill:#BC7532;}
	.st53{fill:#876C6C;}
	.st54{fill:#F9F6CD;}
	.st55{fill:#FFE37B;}
	.st56{fill:#1DDCFF;}
	.st57{fill:#60ACF7;}
	.st58{fill:#C3755A;}
	.st59{fill:#96557A;}
	.st60{fill:#66625D;}
	.st61{fill:#D68032;}
	.st62{fill:#F2A355;}
	.st63{fill:#7E9E6A;}
	.st64{fill:#965A85;}
	.st65{fill:#90CAD3;}
	.st66{fill:#94B57F;}
	.st67{fill:#B2E2E7;}
	.st68{fill:#FFDF8F;}
	.st69{fill:#FFFAEB;}
	.st70{fill:#F88916;}
	.st71{fill:#FFC86E;}
	.st72{fill:#AFA51D;}
	.st73{fill:#968A1C;}
	.st74{fill:#C3556D;}
</style>
<g>
	<g>
		<g>
			<path class="st14" d="M251.9,127.9c0,34.2-14.6,65.1-38.1,86.9c-22.3,7.4-59.3,1.7-75.9-21.2c13.3-4.3,22.6-11.2,27.9-20.8
				c46.7-5.8,73.2-36.4,72.1-100.6C246.9,88.9,251.9,107.8,251.9,127.9z"/>
		</g>
	</g>
	<g class="st15">
		<g>
			<path d="M238,72.2c8.9,16.6,13.9,35.6,13.9,55.6c0,34.2-14.6,65.1-38.1,86.9c-6.5,2.1-14.1,3.2-22.2,3c0,0,33.5-17.3,43.5-63.2
				S238,72.2,238,72.2z"/>
		</g>
	</g>
	<g>
		<g>
			<path class="st1" d="M193.1,221.9c-21.7,0-45.7-8.5-58.3-25.9c-0.8-1-1-2.4-0.6-3.6c0.4-1.2,1.4-2.2,2.6-2.6
				c12.2-3.9,20.8-10.3,25.6-18.9c0.6-1.1,1.7-1.9,3-2c47.2-5.9,69.6-37.5,68.6-96.5c0-1.8,1.2-3.5,3-3.9c1.8-0.5,3.7,0.4,4.5,2
				c9.4,17.6,14.4,37.5,14.4,57.5l0,0c0,34.3-14,66.2-39.3,89.9c-0.4,0.4-0.9,0.7-1.5,0.9C208.5,220.8,201,221.9,193.1,221.9z
				 M144.7,195.4c16.1,17,46.8,22.1,67.1,15.8c23.3-22,36.1-51.6,36.1-83.4c0-12.8-2.2-25.6-6.4-37.6c-3.7,51-28.3,80-73.2,86.3
				C163.3,184.7,155.3,191.1,144.7,195.4z M251.9,127.9L251.9,127.9L251.9,127.9z"/>
		</g>
	</g>
	<g>
		<g>
			<path class="st1" d="M177.2,220.3c-1.4,0-2.7-0.7-3.5-2c-1.1-1.9-0.4-4.4,1.5-5.5l0,0c0.3-0.2,28.8-16.7,33.2-38
				c0.5-2.2,2.6-3.6,4.7-3.1c2.2,0.5,3.6,2.6,3.1,4.7c-5.2,24.8-35.8,42.5-37.1,43.3C178.6,220.1,177.9,220.3,177.2,220.3z"/>
		</g>
	</g>
	<g class="st15">
		<g>
			<path d="M171.6,181.2c-15.6-7-21.6-32.4,0-53.4c33.1-32.3,5.8-85.8-17.1-110.1c38.8,6,67.9,30.1,85.5,63
				C245.5,144.6,218.3,175.3,171.6,181.2z"/>
		</g>
	</g>
	<g>
		<g>
			<path class="st14" d="M165.9,172.8c-9-7.3-21.6-32.4,0-53.4c33.1-32.3,5.8-85.8-17.1-110.1c38.8,6,71.6,30,89.2,62.9
				C239.1,136.5,212.6,167,165.9,172.8z"/>
		</g>
	</g>
	<g>
		<g>
			<path class="st1" d="M165.9,176.8c-0.9,0-1.8-0.3-2.5-0.9c-6-4.8-12.8-15.8-13.4-28.4c-0.5-11.4,4-22.1,13.1-31
				c17-16.6,15.6-38.6,11.4-54.1c-5.6-20.7-18.5-39.6-28.6-50.4c-1.2-1.2-1.4-3.1-0.6-4.6c0.8-1.5,2.5-2.3,4.2-2.1
				c39.2,6.1,73.6,30.4,92.1,65c0.3,0.6,0.5,1.2,0.5,1.8c1.1,63-24.3,98.2-75.6,104.6C166.2,176.8,166.1,176.8,165.9,176.8z
				 M159.3,15.6c9,11.6,18.2,27.6,22.9,44.8c6.8,25.2,2.2,46.6-13.5,61.9c-7.5,7.3-11.1,15.7-10.7,24.9c0.5,9.7,5.4,17.7,9.2,21.4
				c45.7-6.4,67.6-37.6,66.8-95.3C218.4,44.6,191.1,23.7,159.3,15.6z"/>
		</g>
	</g>
	<g>
		<g>
			<path class="st1" d="M199.3,137.7c-1,0-2-0.4-2.7-1.1c-1.6-1.5-1.7-4-0.2-5.7c12.6-13.4,18.2-28.8,20.3-42.7
				c-5.5,9.9-14.9,20.9-30.4,31.6c-1.8,1.3-4.3,0.8-5.6-1c-1.3-1.8-0.8-4.3,1-5.6c32.2-22.2,35.6-45.1,34.5-57.5
				c-1-5.9-2.1-9.5-2.2-9.6c-0.7-2,0.4-4.2,2.4-5c2-0.8,4.2,0.2,5.1,2.1c0.1,0.3,1.8,4.2,2.6,10.7c3.1,17.4,5.2,53.6-21.9,82.5
				C201.5,137.3,200.4,137.7,199.3,137.7z"/>
		</g>
	</g>
	<g class="st15">
		<g>
			<path d="M177.5,119.4c-21.6,21-10.5,42.4-1.5,49.7c-6.8,6.7-16.5,13.2-28.2,21.9c-5.3-7.3-6.7-13.7-6.7-24.5
				c0-45.1,11.2-64.5,0-63.6c-37.4,3.2-40-8.3-51.1-36.2c-5.5-13.8-13.5-27-25.2-32.6c20.9-16.4,47.5-26.2,76.3-26.2
				c6.6,0,13,0.5,19.3,1.5C183.4,33.7,210.6,87.2,177.5,119.4z"/>
		</g>
	</g>
	<g>
		<g>
			<path class="st14" d="M165.9,119.4c-21.6,21-9.1,46.1,0,53.4c-5.3,9.6-14.6,16.5-27.9,20.8c-5.3-7.3-8.5-16.3-8.5-27.2
				c0-45.1,11.2-64.5,0-63.6c-37.4,3.2-40-8.3-51.1-36.2c-5.5-13.8-13.5-27-25.2-32.6c20.9-16.4,47.5-26.2,76.3-26.2
				c6.6,0,13,0.5,19.3,1.5C171.8,33.7,199,87.2,165.9,119.4z"/>
		</g>
	</g>
	<g>
		<g>
			<path class="st1" d="M138,197.6c-1.3,0-2.5-0.6-3.2-1.7c-6.1-8.4-9.2-18.4-9.2-29.5c0-19.8,2.1-34.4,3.6-45.1
				c0.8-5.9,1.8-12.5,1.2-14.5c-0.1,0-0.3,0-0.5,0c-38.6,3.3-43.6-9.5-53.6-34.8c-0.5-1.3-1-2.6-1.6-3.9
				C68.4,52.2,60.6,42,51.5,37.6c-1.2-0.6-2.1-1.8-2.3-3.2c-0.2-1.4,0.4-2.7,1.5-3.6c22.6-17.7,49.8-27,78.8-27c0,0,0,0,0,0
				c6.7,0,13.3,0.5,19.9,1.5c0.9,0.1,1.7,0.6,2.3,1.2c10.8,11.5,24.5,31.6,30.5,53.8c6.8,25.2,2.2,46.6-13.5,61.9c0,0,0,0,0,0
				c-7.5,7.3-11.1,15.7-10.7,24.9c0.5,10.8,6.5,19.4,10.4,22.5c1.5,1.2,1.9,3.4,1,5.1c-5.8,10.5-16,18.1-30.2,22.7
				C138.8,197.6,138.4,197.6,138,197.6z M130.3,98.9c2.5,0,4.4,0.8,5.9,2.3c3.4,3.6,2.6,9.5,0.9,21.3c-1.5,10.4-3.5,24.8-3.5,44
				c0,8.4,2,15.9,6.1,22.4c9.5-3.5,16.6-8.7,21.2-15.3c-5.2-5.6-10.3-15.2-10.8-25.9c-0.5-11.4,4-22.1,13.1-31
				c17-16.6,15.6-38.6,11.4-54.1c-5.5-20.1-17.7-38.5-27.7-49.4c-5.7-0.8-11.5-1.2-17.3-1.2c0,0,0,0,0,0c-25.2,0-49,7.5-69.1,21.8
				c8.6,6.2,15.9,16.7,21.7,31.5c0.5,1.4,1.1,2.7,1.6,4c4.8,12.3,8,20.4,13.9,25c5.9,4.7,15.4,6.1,31.6,4.8
				C129.6,98.9,129.9,98.9,130.3,98.9z M165.9,119.4L165.9,119.4L165.9,119.4z"/>
		</g>
	</g>
	<g>
		<g>
			<path class="st1" d="M71.6,56.5c-0.6,0-1.1-0.1-1.7-0.4c-2-0.9-2.9-3.3-1.9-5.3c4.9-10.5,12.8-18.3,23.4-23.3
				c2-0.9,4.4-0.1,5.3,2c0.9,2,0.1,4.4-2,5.3c-9,4.2-15.4,10.5-19.5,19.4C74.5,55.7,73.1,56.5,71.6,56.5z"/>
		</g>
	</g>
	<g>
		<g>
			<path class="st1" d="M86.4,89.7c-0.6,0-1.3-0.1-1.9-0.5c-2-1-2.7-3.4-1.7-5.4c18.8-35.8,55.1-45.5,56.6-45.9
				c2.1-0.5,4.3,0.7,4.9,2.9c0.5,2.1-0.7,4.3-2.9,4.9C141,45.9,107,55.1,90,87.6C89.2,88.9,87.9,89.7,86.4,89.7z"/>
		</g>
	</g>
	<g>
		<g>
			<path class="st1" d="M92.6,99c-2.2,0-3.9-1.7-4-3.9c-0.1-2.2,1.7-4,3.9-4.1c31.9-0.9,45.8-8.6,46-8.7c1.9-1.1,4.4-0.4,5.5,1.5
				c1.1,1.9,0.5,4.3-1.4,5.5c-0.6,0.4-15.5,8.9-49.8,9.8C92.7,99,92.6,99,92.6,99z"/>
		</g>
	</g>
	<g class="st15">
		<g>
			<path d="M216.2,207.8c-22,20.4-43.4,30.8-76.2,30.8c-67.9,0-122.9-53.4-122.9-119.3c0-6.2,0.5-12.3,1.4-18.3c0,0,0,0,0,0
				C20.8,86.9,33,73.5,32.4,61.6c-0.6-11.9,18.5,12,7.8,5C61.6,49,51.3,20.3,63.4,26c11.8,5.6,19.8,18.7,25.3,32.4
				c11.2,27.8,14.2,37.5,51.8,34.4c11.3-0.9-0.5,20-0.5,64.9c0,10.8,3.2,19.8,8.5,27C165.1,207.5,193.8,215.2,216.2,207.8z"/>
		</g>
	</g>
	<g>
		<g>
			<path class="st14" d="M213.9,214.8c-22,20.5-51.7,33-84.4,33c-67.6,0-122.4-53.7-122.4-120c0-6.3,0.5-12.4,1.4-18.4c0,0,0,0,0,0
				C10.8,95.3,23,81.8,22.4,69.8c-0.6-11.9-7.8-14.6-18.4-21.6C25.2,30.5,41.2,28.3,53.2,34c11.7,5.6,19.7,18.8,25.2,32.6
				c11.1,28,13.7,39.4,51.1,36.2c11.2-1,0,18.4,0,63.6c0,10.9,3.2,19.9,8.5,27.2C154.6,216.5,191.6,222.2,213.9,214.8z"/>
		</g>
	</g>
	<g class="st15">
		<g>
			<path d="M172,215.1c14.6,3.8,30.3,3.5,41.9-0.3c-22,20.5-51.7,33-84.4,33c-59.4-1-69.6-26.7-85.7-34.3
				c44.7,25.1,84.2,32.1,115.8,20.5C193,221.8,172,215.1,172,215.1z"/>
		</g>
	</g>
	<g class="st10">
		<g>
			<path class="st7" d="M53.2,34c-12-5.8-28-3.5-49.3,14.2c10.6,7.1,17.8,9.7,18.4,21.6C23,81.8,10.8,95.3,8.6,109.4c0,0,0,0,0,0
				c-0.9,6-1.4,12.2-1.4,18.4c0,31.7,12.5,60.5,33,82c0,0-25.6-52.9-18.6-93.6S53.2,34,53.2,34z"/>
		</g>
	</g>
	<g>
		<g>
			<path class="st1" d="M129.5,251.8C129.5,251.8,129.5,251.8,129.5,251.8c-33.8,0-65.5-12.9-89.4-36.3c-23.9-23.4-37-54.6-37-87.7
				c0-6.4,0.5-12.8,1.5-19c0-0.1,0-0.2,0-0.3c1.2-7,4.4-13.6,7.5-20c3.3-6.8,6.5-13.1,6.2-18.5C18,61.9,14,59.4,6.2,54.5
				c-1.4-0.9-2.9-1.9-4.5-2.9C0.7,50.9,0,49.7,0,48.4c-0.1-1.3,0.5-2.5,1.4-3.3c20.4-17,38.4-22,53.5-14.7
				C65.9,35.7,75,47.3,82.1,65.2c0.5,1.4,1.1,2.7,1.6,4c9.9,25,12.8,32.5,45.5,29.8c3-0.3,5.3,0.5,7,2.3c3.4,3.6,2.6,9.5,0.9,21.3
				c-1.5,10.4-3.5,24.8-3.5,44c0,9.4,2.6,17.8,7.7,24.8c14.9,20.6,49.6,26.9,71.4,19.7c1.8-0.6,3.7,0.1,4.7,1.8c1,1.6,0.7,3.7-0.7,5
				C193,239.7,162.1,251.8,129.5,251.8z M12.5,110.3c-0.9,5.8-1.3,11.7-1.3,17.6c0,31,12.3,60.1,34.6,82c22.4,21.9,52.1,34,83.8,34
				c0,0,0,0,0,0c25.3,0,49.6-7.8,69.7-22.2c-8.5,0.6-17.7-0.1-26.4-2.2c-16.5-3.9-30-12.3-38.1-23.5c-6.1-8.4-9.2-18.4-9.2-29.5
				c0-19.8,2.1-34.4,3.6-45.1c0.8-5.9,1.8-12.5,1.2-14.5c-0.1,0-0.3,0-0.5,0c-38.6,3.3-43.6-9.5-53.6-34.8c-0.5-1.3-1-2.6-1.6-3.9
				C68.4,52.2,60.6,42,51.5,37.6c-11.1-5.3-24.7-1.9-40.7,10.2c8.4,5.3,15,9.6,15.6,21.8c0.4,7.5-3.2,14.8-7,22.5
				c-2.9,5.9-5.9,12-6.8,17.9C12.5,110.1,12.5,110.2,12.5,110.3z"/>
		</g>
	</g>
	<g>
		<g>
			<path class="st1" d="M72.5,238c-1.4,0-2.8-0.8-3.5-2.1c-30.6-57.7-41.1-106.8-31-145.8c0.6-2.1,2.7-3.4,4.9-2.9
				c2.1,0.6,3.4,2.7,2.9,4.9c-9.5,37.1,0.7,84.2,30.3,140.1c1,2,0.3,4.4-1.7,5.4C73.8,237.9,73.1,238,72.5,238z"/>
		</g>
	</g>
	<g>
		<g>
			<path class="st1" d="M40.1,149c-1.5,0-3-0.9-3.6-2.3C31,134.8,25.3,126.4,18.9,121c-1.7-1.4-1.9-4-0.4-5.6c1.4-1.7,4-1.9,5.6-0.4
				c7.2,6.2,13.6,15.5,19.6,28.4c0.9,2,0.1,4.4-1.9,5.3C41.3,148.9,40.7,149,40.1,149z"/>
		</g>
	</g>
	<g>
		<g>
			<path class="st1" d="M113.4,250.8c-1.5,0-2.9-0.8-3.6-2.2c-0.8-1.6-19.8-39.7-27-69.4c-2.5-10.4-6.2-16.1-9.8-21.5
				c-6.5-9.8-12.5-19.1-10.8-50.2c0.1-2.2,2-3.9,4.2-3.8c2.2,0.1,3.9,2,3.8,4.2c-1.6,28.5,3.6,36.3,9.5,45.4c3.8,5.7,8,12.2,10.9,24
				c7,28.8,26.2,67.3,26.4,67.7c1,2,0.2,4.4-1.8,5.4C114.6,250.7,114,250.8,113.4,250.8z"/>
		</g>
	</g>
	<g>
		<g>
			<path class="st1" d="M78.3,162.5c-0.8,0-1.5-0.2-2.2-0.7c-1.8-1.2-2.3-3.7-1.1-5.5c7.1-10.7,15.8-20.1,25.8-27.9
				c1.7-1.4,4.3-1.1,5.6,0.7c1.4,1.7,1.1,4.3-0.7,5.6c-9.3,7.3-17.4,16.1-24,26C80.8,161.9,79.6,162.5,78.3,162.5z"/>
		</g>
	</g>
	<g>
		<g>
			<path class="st1" d="M86.7,182.3c-1.9,0-3.7-1.4-4-3.4c-0.3-2.2,1.2-4.2,3.4-4.5c10.6-1.6,17.9-6.1,22.2-13.7
				c1.1-1.9,3.5-2.6,5.4-1.5c1.9,1.1,2.6,3.5,1.5,5.4c-5.5,9.8-14.9,15.8-28,17.7C87.1,182.3,86.9,182.3,86.7,182.3z"/>
		</g>
	</g>
</g>
</svg>
