<?xml version="1.0" encoding="utf-8"?>
<!-- Generator: Adobe Illustrator 22.1.0, SVG Export Plug-In . SVG Version: 6.00 Build 0)  -->
<svg version="1.1" id="Layer_1" xmlns="http://www.w3.org/2000/svg" xmlns:xlink="http://www.w3.org/1999/xlink" x="0px" y="0px"
	 viewBox="0 0 256 256" style="enable-background:new 0 0 256 256;" xml:space="preserve">
<style type="text/css">
	.st0{fill:#F5B31F;}
	.st1{fill:#464646;}
	.st2{opacity:0.15;}
	.st3{fill:#AC6535;}
	.st4{fill:#EB573B;}
	.st5{fill:#90C056;}
	.st6{opacity:0.35;}
	.st7{fill:#FFFFFF;}
	.st8{opacity:0.2;}
	.st9{fill:#F6D67A;}
	.st10{opacity:0.3;}
	.st11{fill:#FFA755;}
	.st12{fill:#8FAE3C;}
	.st13{fill:#BE6BB2;}
	.st14{fill:#B7C536;}
	.st15{opacity:0.1;}
	.st16{fill:#9D5A96;}
	.st17{fill:#EA615D;}
	.st18{opacity:0.4;}
	.st19{fill:#F79932;}
	.st20{fill:#FFEC97;}
	.st21{fill:#FFD11D;}
	.st22{fill:#F7F2D5;}
	.st23{fill:#F6AF72;}
	.st24{fill:#BA6C45;}
	.st25{opacity:0.5;}
	.st26{fill:#E4C074;}
	.st27{fill:#656566;}
	.st28{fill:#FACD1F;}
	.st29{fill:#FFDF66;}
	.st30{fill:#6D6E71;}
	.st31{fill:#E77CAE;}
	.st32{fill:#FFE5C4;}
	.st33{fill:#F68455;}
	.st34{opacity:0.7;}
	.st35{fill:#ADEDFF;}
	.st36{fill:#EC754B;}
	.st37{fill:#4AA5BA;}
	.st38{opacity:0.8;}
	.st39{fill:#92A5AC;}
	.st40{fill:#D06E3C;}
	.st41{fill:#DA4F4B;}
	.st42{fill:#BDF3FF;}
	.st43{fill:#F18BB4;}
	.st44{fill:#F9D97A;}
	.st45{fill:none;}
	.st46{fill:#AF6535;}
	.st47{fill:#B93226;}
	.st48{fill:#FF6050;}
	.st49{fill:#EA7CB1;}
	.st50{fill:#00B0E0;}
	.st51{fill:#EA7DAE;}
	.st52{fill:#BC7532;}
	.st53{fill:#876C6C;}
	.st54{fill:#F9F6CD;}
	.st55{fill:#FFE37B;}
	.st56{fill:#1DDCFF;}
	.st57{fill:#60ACF7;}
	.st58{fill:#C3755A;}
	.st59{fill:#96557A;}
	.st60{fill:#66625D;}
	.st61{fill:#D68032;}
	.st62{fill:#F2A355;}
	.st63{fill:#7E9E6A;}
	.st64{fill:#965A85;}
	.st65{fill:#90CAD3;}
	.st66{fill:#94B57F;}
	.st67{fill:#B2E2E7;}
	.st68{fill:#FFDF8F;}
	.st69{fill:#FFFAEB;}
	.st70{fill:#F88916;}
	.st71{fill:#FFC86E;}
	.st72{fill:#AFA51D;}
	.st73{fill:#968A1C;}
	.st74{fill:#C3556D;}
</style>
<g>
	<g>
		<g>
			<path class="st21" d="M3.9,214.5c22.3,4.8,16.9-59.2,25.5-78.3c25.5-81.1,69.8-94.2,120.4-89.1c0,0,25.2,3.8,43.3,25.5
				s26.1,91-36.3,141.9S3.9,251.4,3.9,214.5z"/>
		</g>
	</g>
	<g>
		<g>
			<path class="st12" d="M197.5,23c2.3-3.8,21.8,0.1,29.8,14.5c7.9,14.4,18.5,26,23.3,42.2c9.2,37.4-29.8,68.2-29.8,68.2
				s14.6-38.8,5.9-67.9c-8.7-29.1-17.1-27.4-22.2-35.6C199.2,36.2,195.2,26.7,197.5,23z"/>
		</g>
	</g>
	<g class="st10">
		<g>
			<path class="st7" d="M227.2,37.5c-7.9-14.4-27.5-18.3-29.8-14.5c-2.3,3.8,1.7,13.2,6.9,21.4c5.1,8.2,13.5,6.5,22.2,35.6
				c0,0-19.1-31.8-14.5-42.6C216.6,26.5,227.2,37.5,227.2,37.5z"/>
		</g>
	</g>
	<g class="st15">
		<g>
			<path d="M193.1,72.6c18.2,21.6,26.1,91-36.3,141.9s-152.9,36.9-152.9,0c0,0,55.2,42.2,127.4-3.3S193.1,72.6,193.1,72.6z"/>
		</g>
	</g>
	<g>
		<g>
			<path class="st1" d="M64.2,251.7c-16,0-30.7-2.8-42.2-8.3c-14.3-6.8-22.1-17-22.1-28.9c0-1.2,0.5-2.4,1.5-3.1
				c0.9-0.8,2.2-1.1,3.4-0.8c1.7,0.4,3,0.1,4.3-0.8c6.7-4.9,8.9-25.7,10.7-42.5c1.4-13,2.7-25.3,5.9-32.6C37.9,96.1,55,70.3,78.1,56
				c19-11.8,41.9-15.8,72.2-12.8c0.1,0,0.1,0,0.2,0c1.1,0.2,26.9,4.3,45.8,26.8c10.4,12.4,15.7,35.4,13.5,58.6
				c-3.2,33.5-21,65.1-50.3,89c-26.5,21.6-54.8,29.6-73.8,32.4C78.3,251.1,71.1,251.7,64.2,251.7z M8.4,218.6
				c2.2,9.2,11.3,14.9,17.1,17.6c15,7.1,36.5,9.3,58.9,6c18-2.7,44.8-10.2,69.9-30.7c35.4-28.9,45.3-61.4,47.4-83.5
				c2.3-24.1-4.2-43.8-11.6-52.7c-16.5-19.7-39.2-23.8-40.8-24.1c-28.3-2.8-49.6,0.9-67,11.6C60.9,76,44.8,100.5,33.2,137.4
				c0,0.2-0.1,0.3-0.2,0.4c-2.7,6.1-4.1,18.4-5.3,30.4c-2.2,20.2-4.4,41.1-14,48.1C12.1,217.5,10.3,218.3,8.4,218.6z"/>
		</g>
	</g>
	<g>
		<g>
			<path class="st1" d="M58.4,116.4c-0.6,0-1.2-0.1-1.7-0.4c-2-1-2.8-3.3-1.9-5.3C63.5,92.4,76.7,77.5,94,66.5
				c1.9-1.2,4.3-0.6,5.5,1.2c1.2,1.9,0.6,4.3-1.2,5.5c-16,10.2-28.2,23.9-36.3,40.8C61.3,115.5,59.9,116.4,58.4,116.4z"/>
		</g>
	</g>
	<g>
		<g>
			<path class="st1" d="M169.9,58.2c-0.8,0-1.5-0.2-2.2-0.7c-1.8-1.2-2.4-3.7-1.1-5.5c13.8-20.9,30.6-36.8,50-47.2
				c1.9-1,4.4-0.3,5.4,1.6s0.3,4.4-1.6,5.4c-18.2,9.8-34,24.8-47.1,44.6C172.5,57.6,171.2,58.2,169.9,58.2z"/>
		</g>
	</g>
	<g>
		<g>
			<path class="st1" d="M220.7,151.9c-0.8,0-1.7-0.3-2.4-0.8c-1.5-1.1-2-3-1.4-4.6c0.1-0.4,14-37.9,5.8-65.4
				c-5.8-19.4-11.3-24.2-15.7-28c-2.1-1.8-4.2-3.7-6.1-6.6c-4.3-6.8-10.8-19.2-6.9-25.6c0.9-1.5,3-3.4,7.9-3.3
				c7.4,0.1,21.8,5.1,28.8,17.9c2.6,4.7,5.6,9.2,8.4,13.6C245,58,251,67.2,254.3,78.5c0,0.1,0,0.1,0,0.2c4.1,16.4-0.1,34.2-12,51.4
				c-8.8,12.7-18.8,20.6-19.2,20.9C222.4,151.6,221.6,151.9,220.7,151.9z M200.8,25.6c-0.1,2.2,1.6,8.2,6.9,16.7
				c1.2,1.9,2.7,3.2,4.5,4.8c5.2,4.5,11.6,10.1,18.1,31.7c5.6,18.8,2.1,41-1.4,55.4c2.3-2.6,4.7-5.5,6.9-8.9
				c10.6-15.4,14.2-30.4,10.8-44.6c-3-10.1-8.4-18.4-14.2-27.2c-2.9-4.5-6-9.1-8.7-14.1C217.7,28.5,204.6,25.1,200.8,25.6z"/>
		</g>
	</g>
</g>
</svg>
