<?xml version="1.0" encoding="utf-8"?>
<!-- Generator: Adobe Illustrator 22.1.0, SVG Export Plug-In . SVG Version: 6.00 Build 0)  -->
<svg version="1.1" id="Layer_1" xmlns="http://www.w3.org/2000/svg" xmlns:xlink="http://www.w3.org/1999/xlink" x="0px" y="0px"
	 viewBox="0 0 256 256" style="enable-background:new 0 0 256 256;" xml:space="preserve">
<style type="text/css">
	.st0{fill:#F5B31F;}
	.st1{fill:#464646;}
	.st2{opacity:0.15;}
	.st3{fill:#AC6535;}
	.st4{fill:#EB573B;}
	.st5{fill:#90C056;}
	.st6{opacity:0.35;}
	.st7{fill:#FFFFFF;}
	.st8{opacity:0.2;}
	.st9{fill:#F6D67A;}
	.st10{opacity:0.3;}
	.st11{fill:#FFA755;}
	.st12{fill:#8FAE3C;}
	.st13{fill:#BE6BB2;}
	.st14{fill:#B7C536;}
	.st15{opacity:0.1;}
	.st16{fill:#9D5A96;}
	.st17{fill:#EA615D;}
	.st18{opacity:0.4;}
	.st19{fill:#F79932;}
	.st20{fill:#FFEC97;}
	.st21{fill:#FFD11D;}
	.st22{fill:#F7F2D5;}
	.st23{fill:#F6AF72;}
	.st24{fill:#BA6C45;}
	.st25{opacity:0.5;}
	.st26{fill:#E4C074;}
	.st27{fill:#656566;}
	.st28{fill:#FACD1F;}
	.st29{fill:#FFDF66;}
	.st30{fill:#6D6E71;}
	.st31{fill:#E77CAE;}
	.st32{fill:#FFE5C4;}
	.st33{fill:#F68455;}
	.st34{opacity:0.7;}
	.st35{fill:#ADEDFF;}
	.st36{fill:#EC754B;}
	.st37{fill:#4AA5BA;}
	.st38{opacity:0.8;}
	.st39{fill:#92A5AC;}
	.st40{fill:#D06E3C;}
	.st41{fill:#DA4F4B;}
	.st42{fill:#BDF3FF;}
	.st43{fill:#F18BB4;}
	.st44{fill:#F9D97A;}
	.st45{fill:none;}
	.st46{fill:#AF6535;}
	.st47{fill:#B93226;}
	.st48{fill:#FF6050;}
	.st49{fill:#EA7CB1;}
	.st50{fill:#00B0E0;}
	.st51{fill:#EA7DAE;}
	.st52{fill:#BC7532;}
	.st53{fill:#876C6C;}
	.st54{fill:#F9F6CD;}
	.st55{fill:#FFE37B;}
	.st56{fill:#1DDCFF;}
	.st57{fill:#60ACF7;}
	.st58{fill:#C3755A;}
	.st59{fill:#96557A;}
	.st60{fill:#66625D;}
	.st61{fill:#D68032;}
	.st62{fill:#F2A355;}
	.st63{fill:#7E9E6A;}
	.st64{fill:#965A85;}
	.st65{fill:#90CAD3;}
	.st66{fill:#94B57F;}
	.st67{fill:#B2E2E7;}
	.st68{fill:#FFDF8F;}
	.st69{fill:#FFFAEB;}
	.st70{fill:#F88916;}
	.st71{fill:#FFC86E;}
	.st72{fill:#AFA51D;}
	.st73{fill:#968A1C;}
	.st74{fill:#C3556D;}
</style>
<g>
	<g>
		<g>
			<path class="st9" d="M43.4,66.3c0,21.2,5.6,30,21.3,37.4c10.6,5.9,6.5,21.4,5.8,35.5c-0.6,11-3.4,67.8-4.7,92.3l-39.8,0
				c0,0,4.5-89.5,5.2-103.6c0.7-14.1,4.8-29.6-5.8-35.5C9.8,85,4.2,76.3,4.2,55c0-39.3,54-41.8,104.4-41.8c31,0,63.3,1,83.6,10.8
				c1.6,0.8,3.2,1.6,4.6,2.5c-15.3-1.8-32.4-2-49-2C97.4,24.5,43.4,27,43.4,66.3z"/>
		</g>
	</g>
	<g>
		<g>
			<path class="st1" d="M65.9,235.5L65.9,235.5l-39.8,0c-1.1,0-2.1-0.4-2.9-1.2c-0.8-0.8-1.2-1.9-1.1-3c0,0,4.5-89.5,5.2-103.6
				c0.1-2.8,0.4-5.5,0.7-8.2c1.2-12.4,1.5-20.2-4.3-23.5C6.1,87.6,0.2,77.3,0.2,55c0-19.5,12.2-32.8,36.2-39.5
				c20.8-5.8,48.1-6.3,72-6.3c0,0,0.1,0,0.1,0c30.1,0,64.1,0.9,85.4,11.2c1.8,0.8,3.4,1.8,5,2.7c1.6,1,2.3,2.9,1.7,4.7
				c-0.6,1.8-2.4,2.9-4.2,2.7c-15.3-1.8-32.4-2-48.5-2c0,0-0.1,0-0.1,0C97,28.5,47.4,31.4,47.4,66.3c0,19.2,4.3,26.8,19,33.7
				c0.1,0,0.2,0.1,0.2,0.1c10.8,6.1,9.6,19.5,8.5,31.3c-0.2,2.6-0.5,5.3-0.6,7.9l-0.9,17.4c-1.1,21.9-2.9,57-3.8,74.9
				C69.8,233.8,68,235.5,65.9,235.5z M30.2,227.5l31.8,0c0.9-18.7,2.5-50.6,3.6-71.1l0.9-17.4c0.1-2.8,0.4-5.6,0.7-8.3
				c1.2-12.4,1.5-20.1-4.3-23.5c-17.5-8.3-23.4-18.7-23.4-40.9v0c0-19.5,12.2-32.8,36.2-39.5c20.8-5.8,48.1-6.3,72-6.3
				c0,0,0.1,0,0.1,0c6.4,0,12.9,0,19.4,0.2c-17.8-3.1-39.1-3.5-58.7-3.5c0,0-0.1,0-0.1,0c-23.4,0-50.1,0.5-69.9,6
				C17.8,29,8.2,39.1,8.2,55c0,19.2,4.3,26.8,19,33.8c0.1,0,0.2,0.1,0.2,0.1c10.9,6.1,9.6,19.5,8.5,31.3c-0.2,2.6-0.5,5.3-0.6,7.9
				C34.6,140.3,31.1,209.6,30.2,227.5z"/>
		</g>
	</g>
	<g class="st2">
		<g>
			<path class="st1" d="M239.1,62.6c0,21.2-5.6,30-21.3,37.4c-10.6,5.9-6.5,21.4-5.8,35.5c0.7,14.1,5.2,103.6,5.2,103.6l-151.7,0
				c0.1-1.9,0.2-4.5,0.4-7.6l-13.3,0c0.1-1.1,0.1-2.4,0.2-3.7c1.2-24.5,2.9-57.8,3.5-68.8c0.7-14.1,10.8-38.7,0.2-44.6
				C40.8,107,27.2,87.7,30.4,62.6c0-39.3,54-41.8,104.4-41.8c16.6,0,33.7,0.3,49,2c2.9,0.3,5.7,0.7,8.4,1.2
				c7.3,1.2,14.2,2.8,20.2,5.1C228.5,35,239.1,45.2,239.1,62.6z"/>
		</g>
	</g>
	<g>
		<g>
			<path class="st9" d="M252.2,66.3c0,21.2-5.6,30-21.3,37.4c-10.6,5.9-6.5,21.4-5.8,35.5c0.7,14.1,5.2,103.6,5.2,103.6l-165,0
				c0,0,0.1-1.3,0.2-3.7c0.1-1.9,0.2-4.5,0.4-7.6c1.2-24.5,4.1-81.3,4.7-92.3c0.7-14.1,4.8-29.6-5.8-35.5
				C49,96.3,43.4,87.6,43.4,66.3c0-39.3,54-41.8,104.4-41.8c16.6,0,33.7,0.3,49,2c5.4,0.6,10.6,1.4,15.5,2.5
				C235.6,34.1,252.2,44.6,252.2,66.3z"/>
		</g>
	</g>
	<g>
		<g>
			<path class="st1" d="M230.3,246.8L230.3,246.8l-165,0c-1.1,0-2.1-0.4-2.9-1.2c-0.8-0.8-1.2-1.9-1.1-2.9c0,0,0.1-1.4,0.2-3.8
				c0.1-1.9,0.2-4.5,0.4-7.6c0.9-17.9,2.7-52.9,3.8-74.9l0.9-17.4c0.1-2.8,0.4-5.6,0.7-8.3c1.2-12.4,1.5-20.1-4.3-23.5
				c-17.5-8.3-23.4-18.7-23.4-40.9c0-19.5,12.2-32.8,36.2-39.5c20.8-5.8,48.1-6.3,72-6.3c0,0,0.1,0,0.1,0c16.4,0,33.7,0.3,49.4,2.1
				c5.9,0.7,11.1,1.5,15.9,2.6c28.9,6.2,43,19.7,43,41.2c0,0,0,0,0,0c0,22.2-5.9,32.6-23.4,40.9c-5.8,3.3-5.5,11.1-4.3,23.5
				c0.3,2.7,0.5,5.5,0.7,8.2c0.7,14.1,5.2,103.6,5.2,103.6c0.1,1.1-0.3,2.2-1.1,3S231.4,246.8,230.3,246.8z M69.5,238.8l156.6,0
				c-0.9-17.9-4.4-87.2-5-99.4c-0.1-2.6-0.4-5.3-0.6-7.9c-1.1-11.8-2.4-25.2,8.5-31.3c0.1,0,0.2-0.1,0.2-0.1c14.7-7,19-14.5,19-33.7
				c0-17.4-11.7-28-36.7-33.4c-4.6-1-9.5-1.8-15.2-2.4c-15.3-1.8-32.4-2-48.5-2c0,0-0.1,0-0.1,0C97,28.5,47.4,31.4,47.4,66.3
				c0,19.2,4.3,26.8,19,33.7c0.1,0,0.2,0.1,0.2,0.1c10.8,6.1,9.6,19.5,8.5,31.3c-0.2,2.6-0.5,5.3-0.6,7.9l-0.9,17.4
				c-1.1,21.9-2.9,57-3.8,74.9C69.7,234.5,69.6,236.9,69.5,238.8z M252.2,66.3L252.2,66.3L252.2,66.3z"/>
		</g>
	</g>
</g>
</svg>
