<?xml version="1.0" encoding="utf-8"?>
<!-- Generator: Adobe Illustrator 22.1.0, SVG Export Plug-In . SVG Version: 6.00 Build 0)  -->
<svg version="1.1" id="Layer_1" xmlns="http://www.w3.org/2000/svg" xmlns:xlink="http://www.w3.org/1999/xlink" x="0px" y="0px"
	 viewBox="0 0 256 256" style="enable-background:new 0 0 256 256;" xml:space="preserve">
<style type="text/css">
	.st0{fill:#F5B31F;}
	.st1{fill:#464646;}
	.st2{opacity:0.15;}
	.st3{fill:#AC6535;}
	.st4{fill:#EB573B;}
	.st5{fill:#90C056;}
	.st6{opacity:0.35;}
	.st7{fill:#FFFFFF;}
	.st8{opacity:0.2;}
	.st9{fill:#F6D67A;}
	.st10{opacity:0.3;}
	.st11{fill:#FFA755;}
	.st12{fill:#8FAE3C;}
	.st13{fill:#BE6BB2;}
	.st14{fill:#B7C536;}
	.st15{opacity:0.1;}
	.st16{fill:#9D5A96;}
	.st17{fill:#EA615D;}
	.st18{opacity:0.4;}
	.st19{fill:#F79932;}
	.st20{fill:#FFEC97;}
	.st21{fill:#FFD11D;}
	.st22{fill:#F7F2D5;}
	.st23{fill:#F6AF72;}
	.st24{fill:#BA6C45;}
	.st25{opacity:0.5;}
	.st26{fill:#E4C074;}
	.st27{fill:#656566;}
	.st28{fill:#FACD1F;}
	.st29{fill:#FFDF66;}
	.st30{fill:#6D6E71;}
	.st31{fill:#E77CAE;}
	.st32{fill:#FFE5C4;}
	.st33{fill:#F68455;}
	.st34{opacity:0.7;}
	.st35{fill:#ADEDFF;}
	.st36{fill:#EC754B;}
	.st37{fill:#4AA5BA;}
	.st38{opacity:0.8;}
	.st39{fill:#92A5AC;}
	.st40{fill:#D06E3C;}
	.st41{fill:#DA4F4B;}
	.st42{fill:#BDF3FF;}
	.st43{fill:#F18BB4;}
	.st44{fill:#F9D97A;}
	.st45{fill:none;}
	.st46{fill:#AF6535;}
	.st47{fill:#B93226;}
	.st48{fill:#FF6050;}
	.st49{fill:#EA7CB1;}
	.st50{fill:#00B0E0;}
	.st51{fill:#EA7DAE;}
	.st52{fill:#BC7532;}
	.st53{fill:#876C6C;}
	.st54{fill:#F9F6CD;}
	.st55{fill:#FFE37B;}
	.st56{fill:#1DDCFF;}
	.st57{fill:#60ACF7;}
	.st58{fill:#C3755A;}
	.st59{fill:#96557A;}
	.st60{fill:#66625D;}
	.st61{fill:#D68032;}
	.st62{fill:#F2A355;}
	.st63{fill:#7E9E6A;}
	.st64{fill:#965A85;}
	.st65{fill:#90CAD3;}
	.st66{fill:#94B57F;}
	.st67{fill:#B2E2E7;}
	.st68{fill:#FFDF8F;}
	.st69{fill:#FFFAEB;}
	.st70{fill:#F88916;}
	.st71{fill:#FFC86E;}
	.st72{fill:#AFA51D;}
	.st73{fill:#968A1C;}
	.st74{fill:#C3556D;}
</style>
<g>
	<g>
		<g>
			<g>
				<path class="st21" d="M246.4,142.7c-11.6-30.1-40.8-51.4-74.9-51.4c-44.4,0-80.3,36-80.3,80.4c0,34.1,21.3,63.3,51.3,75
					c-37.9,12.1-70.5,2.3-85.9-13.1c0,0-26.1,12-37.2,0.8c-11.1-11.1,0.9-37.2,0.9-37.2c-23.6-23.6-26.8-95,27.5-149.4
					S173.4-3.2,197,20.4c0,0,26.1-12,37.2-0.8c11.1,11.1-0.8,37.2-0.8,37.2C248.7,72.2,258.4,104.8,246.4,142.7z"/>
			</g>
		</g>
		<g>
			<g>
				<path class="st28" d="M31.2,164.7c-5.9-20.4-4.1-40.7,5.5-61.1"/>
			</g>
		</g>
	</g>
	<g class="st15">
		<g>
			<path d="M250.8,121c-3.4,25.4-16.4,54.7-45,83.3c-30.1,30.1-60.9,43-87.2,45.5c-27.4,2.6-50-6-62-18c13.6-0.7,26.5-2.3,38.6-4.7
				c-11.3-15.5-17.9-34.7-17.9-55.3c0-52.1,42.2-94.3,94.2-94.3c20.7,0,39.9,6.7,55.5,18.1c2.9-12.7,5.1-26.2,6.4-40.6
				C245.9,67.5,254.7,91.8,250.8,121z"/>
		</g>
	</g>
	<g>
		<g>
			<g>
				<path class="st1" d="M171.4,236.1L171.4,236.1c-17.2,0-33.3-6.7-45.4-18.8c-12.1-12.1-18.8-28.3-18.8-45.5
					c0-17.2,6.7-33.3,18.8-45.5c12.1-12.1,28.3-18.8,45.4-18.8c0,0,0,0,0,0c17.2,0,33.3,6.7,45.4,18.8
					c12.1,12.1,18.8,28.3,18.8,45.5c0,1.1-0.4,2.1-1.2,2.8c-0.8,0.8-1.8,1.2-2.8,1.2l0,0l-56.2,0l0,56.3
					C175.4,234.3,173.7,236.1,171.4,236.1z M171.5,115.5c-15,0-29.1,5.9-39.8,16.5c-10.6,10.6-16.5,24.8-16.5,39.8
					c0,15,5.8,29.2,16.5,39.8c9.7,9.7,22.2,15.4,35.8,16.4l0-56.2c0-1.1,0.4-2.1,1.2-2.8c0.8-0.8,1.8-1.2,2.8-1.2l0,0l56.1,0
					c-0.9-13.5-6.7-26.1-16.3-35.8C200.6,121.3,186.5,115.5,171.5,115.5C171.5,115.5,171.5,115.5,171.5,115.5z"/>
			</g>
		</g>
		<g>
			<g>
				<path class="st1" d="M108.8,256.2c-22.9,0-41.7-7.6-53.1-17.8c-7.3,2.9-28.4,9.8-39.2-1c-10.8-10.8-3.9-31.9-1-39.2
					C3.5,184.4-2.1,160,0.8,133.7C4.3,101.5,20,70,44.9,45c24.9-24.9,56.4-40.6,88.6-44.1c26.3-2.9,50.6,2.8,64.4,14.8
					c7.3-2.9,28.4-9.8,39.2,1c10.8,10.8,3.9,31.9,1,39.2c15,16.8,24.3,49.8,12.2,88c-0.5,1.6-2,2.7-3.7,2.8c-1.7,0-3.2-1-3.9-2.6
					c-5.5-14.2-15-26.4-27.6-35.1c-12.8-9-27.9-13.7-43.6-13.7c-42.1,0-76.3,34.3-76.3,76.4c0,15.7,4.7,30.8,13.7,43.6
					c8.7,12.6,20.9,22.1,35.1,27.6c1.6,0.6,2.6,2.2,2.6,3.9c-0.1,1.7-1.2,3.2-2.8,3.7C131.4,254.5,119.7,256.2,108.8,256.2z
					 M56.6,229.7c1,0,2.1,0.4,2.8,1.2c13,13,39.5,21.9,71.4,14.9c-11.3-6.2-21.1-15-28.6-25.8c-9.9-14.2-15.1-30.9-15.1-48.2
					c0-46.5,37.8-84.4,84.3-84.4c0,0,0,0,0,0c17.3,0,34,5.2,48.2,15.1c10.7,7.5,19.5,17.3,25.7,28.6c7-32-1.9-58.5-14.9-71.5
					c-1.2-1.2-1.5-3-0.8-4.5c3-6.6,9.1-25.3,1.7-32.8c-7.5-7.5-26.1-1.3-32.7,1.7c-1.5,0.7-3.3,0.4-4.5-0.8
					c-11.4-11.4-34.9-17.1-59.8-14.3c-30.4,3.3-60.1,18.2-83.8,41.8c-23.6,23.6-38.5,53.4-41.8,83.9C6,159.5,11.6,183,23,194.4
					c1.2,1.2,1.5,3,0.8,4.5c-3,6.6-9.1,25.3-1.7,32.8c7.5,7.5,26.1,1.3,32.7-1.7C55.4,229.8,56,229.7,56.6,229.7z"/>
			</g>
		</g>
		<g>
			<g>
				<path class="st1" d="M31.2,168.7c-1.7,0-3.3-1.1-3.8-2.9c-6.1-21.2-4.2-42.7,5.7-63.9c0.9-2,3.3-2.9,5.3-1.9
					c2,0.9,2.9,3.3,1.9,5.3c-9.1,19.4-10.8,39-5.3,58.2c0.6,2.1-0.6,4.3-2.7,5C31.9,168.7,31.6,168.7,31.2,168.7z"/>
			</g>
		</g>
	</g>
	<g>
		<g>
			<g>
				<path class="st1" d="M171.4,256.2C171.4,256.2,171.4,256.2,171.4,256.2c-10.5,0-20.8-1.9-30.5-5.7
					c-15.7-6.1-29.1-16.6-38.7-30.5c-9.9-14.2-15.1-30.9-15.1-48.2c0-22.5,8.8-43.7,24.7-59.7c15.9-15.9,37.1-24.7,59.6-24.7
					c0,0,0,0,0,0c17.3,0,34,5.2,48.2,15.1c13.8,9.7,24.4,23.1,30.4,38.8l0,0c3.8,9.7,5.7,20,5.7,30.5c0,22.5-8.8,43.7-24.7,59.7
					C215.1,247.4,194,256.2,171.4,256.2z M171.4,95.4c-20.4,0-39.5,7.9-54,22.4c-14.4,14.4-22.4,33.6-22.4,54
					c0,15.7,4.7,30.8,13.7,43.6c8.7,12.6,20.9,22.1,35.1,27.6c8.8,3.4,18.1,5.1,27.6,5.1c0,0,0,0,0,0c20.4,0,39.5-7.9,54-22.4
					c14.4-14.4,22.4-33.6,22.4-54c0-9.5-1.7-18.8-5.1-27.6c0,0,0,0,0,0c-5.5-14.2-15-26.4-27.6-35.1
					C202.2,100.1,187.2,95.4,171.4,95.4C171.5,95.4,171.4,95.4,171.4,95.4z M171.4,236.1c-17.2,0-33.3-6.7-45.4-18.8
					c-12.1-12.1-18.8-28.3-18.8-45.5c0-17.2,6.7-33.3,18.8-45.5c12.1-12.1,28.3-18.8,45.4-18.8c0,0,0,0,0,0
					c17.2,0,33.3,6.7,45.4,18.8c0.1,0.1,0.1,0.1,0.2,0.2c12,12.1,18.6,28.2,18.6,45.3c0,0.8,0,1.7-0.1,2.5v0
					c-0.6,16.2-7.3,31.5-18.8,43c-11.5,11.5-26.7,18.2-42.9,18.8C173.1,236,172.3,236.1,171.4,236.1z M171.4,115.5
					c-15,0-29.1,5.9-39.8,16.5c-10.6,10.6-16.5,24.8-16.5,39.8c0,15,5.8,29.2,16.5,39.8c10.6,10.6,24.7,16.5,39.8,16.5
					c0.7,0,1.5,0,2.2,0c14.2-0.5,27.5-6.4,37.6-16.4c10.1-10.1,15.9-23.4,16.4-37.6c0-0.7,0-1.5,0-2.2c0-15-5.8-29.2-16.5-39.8
					c-0.1-0.1-0.1-0.1-0.2-0.2C200.5,121.3,186.4,115.5,171.4,115.5C171.5,115.5,171.4,115.5,171.4,115.5z M231.6,174.1L231.6,174.1
					L231.6,174.1z"/>
			</g>
		</g>
		<g>
			<g>
				<path class="st20" d="M246.4,142.7c-11.6-30.1-40.8-51.4-74.9-51.4c-44.4,0-80.3,36-80.3,80.4c0,34.1,21.3,63.3,51.3,75
					c9,3.5,18.8,5.4,29,5.4c44.4,0,80.3-36,80.3-80.4C251.8,161.5,249.8,151.7,246.4,142.7z M231.6,174.1
					c-0.6,15.7-7.2,29.9-17.6,40.3c-10.4,10.4-24.5,17-40.3,17.6c-0.8,0-1.6,0-2.3,0c-16.6,0-31.7-6.8-42.6-17.7
					c-10.9-10.9-17.6-26-17.6-42.6c0-16.7,6.7-31.7,17.6-42.6c10.9-10.9,26-17.7,42.6-17.7s31.7,6.8,42.6,17.7v0
					c10.9,10.9,17.6,26,17.6,42.6C231.7,172.6,231.7,173.3,231.6,174.1z"/>
			</g>
			<g>
				<path class="st1" d="M171.4,256.2C171.4,256.2,171.4,256.2,171.4,256.2c-10.5,0-20.8-1.9-30.5-5.7
					c-15.7-6.1-29.1-16.6-38.7-30.5c-9.9-14.2-15.1-30.9-15.1-48.2c0-22.5,8.8-43.7,24.7-59.7c15.9-15.9,37.1-24.7,59.6-24.7
					c0,0,0,0,0,0c17.3,0,34,5.2,48.2,15.1c13.8,9.7,24.4,23.1,30.4,38.8l0,0c3.8,9.7,5.7,20,5.7,30.5c0,22.5-8.8,43.7-24.7,59.7
					C215.1,247.4,194,256.2,171.4,256.2z M171.4,95.4c-20.4,0-39.5,7.9-54,22.4c-14.4,14.4-22.4,33.6-22.4,54
					c0,15.7,4.7,30.8,13.7,43.6c8.7,12.6,20.9,22.1,35.1,27.6c8.8,3.4,18.1,5.1,27.6,5.1c0,0,0,0,0,0c20.4,0,39.5-7.9,54-22.4
					c14.4-14.4,22.4-33.6,22.4-54c0-9.5-1.7-18.8-5.1-27.6c0,0,0,0,0,0c-5.5-14.2-15-26.4-27.6-35.1
					C202.2,100.1,187.2,95.4,171.4,95.4C171.5,95.4,171.4,95.4,171.4,95.4z M171.4,236.1c-17.2,0-33.3-6.7-45.4-18.8
					c-12.1-12.1-18.8-28.3-18.8-45.5c0-17.2,6.7-33.3,18.8-45.5c12.1-12.1,28.3-18.8,45.4-18.8c0,0,0,0,0,0
					c17.2,0,33.3,6.7,45.4,18.8c0.1,0.1,0.1,0.1,0.2,0.2c12,12.1,18.6,28.2,18.6,45.3c0,0.8,0,1.7-0.1,2.5v0
					c-0.6,16.2-7.3,31.5-18.8,43c-11.5,11.5-26.7,18.2-42.9,18.8C173.1,236,172.3,236.1,171.4,236.1z M171.4,115.5
					c-15,0-29.1,5.9-39.8,16.5c-10.6,10.6-16.5,24.8-16.5,39.8c0,15,5.8,29.2,16.5,39.8c10.6,10.6,24.7,16.5,39.8,16.5
					c0.7,0,1.5,0,2.2,0c14.2-0.5,27.5-6.4,37.6-16.4c10.1-10.1,15.9-23.4,16.4-37.6c0-0.7,0-1.5,0-2.2c0-15-5.8-29.2-16.5-39.8
					c-0.1-0.1-0.1-0.1-0.2-0.2C200.5,121.3,186.4,115.5,171.4,115.5C171.5,115.5,171.4,115.5,171.4,115.5z M231.6,174.1L231.6,174.1
					L231.6,174.1z"/>
			</g>
		</g>
		<g>
			<g>
				<path class="st29" d="M231.7,171.8l-60.2,0l42.6-42.6C224.9,140,231.7,155.1,231.7,171.8z"/>
			</g>
			<g>
				<path class="st1" d="M231.7,175.8L231.7,175.8l-60.2,0c-1.6,0-3.1-1-3.7-2.5s-0.3-3.2,0.9-4.4l42.6-42.6
					c0.8-0.8,1.8-1.2,2.8-1.2l0,0c1.1,0,2.1,0.4,2.8,1.2c12.1,12.1,18.8,28.3,18.8,45.5C235.7,174,233.9,175.8,231.7,175.8z
					 M181.1,167.8l46.4,0c-0.8-12.2-5.6-23.6-13.6-32.9L181.1,167.8z"/>
			</g>
		</g>
		<g>
			<g>
				<path class="st29" d="M214,214.4c-10.4,10.4-24.5,17-40.3,17.6c-0.8,0-1.6,0-2.3,0l0-60.3L214,214.4z"/>
			</g>
			<g>
				<path class="st1" d="M171.4,236.1c-1.1,0-2.1-0.4-2.8-1.2c-0.8-0.8-1.2-1.8-1.2-2.8l0-60.3c0-1.6,1-3.1,2.5-3.7
					c1.5-0.6,3.2-0.3,4.4,0.9l42.6,42.6c1.6,1.6,1.6,4.1,0,5.7c-11.5,11.5-26.7,18.2-42.9,18.8C173.1,236,172.3,236.1,171.4,236.1z
					 M175.4,181.4l0,46.5c12.2-0.9,23.6-5.6,32.8-13.6L175.4,181.4z"/>
			</g>
		</g>
		<g>
			<g>
				<path class="st29" d="M231.7,171.8c0,0.8,0,1.6,0,2.3c-0.6,15.7-7.2,29.9-17.6,40.3l-42.6-42.6L231.7,171.8z"/>
			</g>
			<g>
				<path class="st1" d="M214,218.4L214,218.4c-1.1,0-2.1-0.4-2.8-1.2l-42.6-42.6c-1.1-1.1-1.5-2.9-0.9-4.4c0.6-1.5,2.1-2.5,3.7-2.5
					l0,0l60.2,0c2.2,0,4,1.8,4,4c0,0.8,0,1.7-0.1,2.5c-0.6,16.2-7.3,31.5-18.8,43C216.1,218,215.1,218.4,214,218.4z M181.1,175.8
					l32.8,32.9c8-9.2,12.7-20.7,13.6-32.9L181.1,175.8z"/>
			</g>
		</g>
		<g>
			<g>
				<path class="st29" d="M214,129.1L214,129.1l-42.6,42.6l0-60.3C188.1,111.5,203.1,118.2,214,129.1z"/>
			</g>
			<g>
				<path class="st1" d="M171.4,175.8c-0.5,0-1-0.1-1.5-0.3c-1.5-0.6-2.5-2.1-2.5-3.7l0-60.3c0-2.2,1.8-4,4-4l0,0
					c17.2,0,33.3,6.7,45.4,18.8c0.7,0.8,1.2,1.8,1.2,2.8v0c0,1.1-0.4,2.1-1.2,2.8l-42.6,42.6C173.5,175.4,172.5,175.8,171.4,175.8z
					 M175.5,115.6l0,46.5l32.8-32.9C199.1,121.2,187.6,116.5,175.5,115.6z"/>
			</g>
		</g>
		<g>
			<g>
				<path class="st29" d="M171.5,111.5l0,60.3l-42.6-42.6C139.8,118.2,154.8,111.5,171.5,111.5z"/>
			</g>
			<g>
				<path class="st1" d="M171.4,175.8c-1,0-2.1-0.4-2.8-1.2L126,131.9c-1.6-1.6-1.6-4.1,0-5.7c12.1-12.1,28.3-18.8,45.4-18.8
					c0,0,0,0,0,0c1.1,0,2.1,0.4,2.8,1.2c0.8,0.8,1.2,1.8,1.2,2.8l0,60.3c0,1.6-1,3.1-2.5,3.7C172.5,175.7,172,175.8,171.4,175.8z
					 M134.6,129.2l32.8,32.9l0-46.5C155.3,116.4,143.8,121.2,134.6,129.2z"/>
			</g>
		</g>
		<g>
			<g>
				<path class="st29" d="M171.4,171.8l-60.2,0c0-16.7,6.7-31.7,17.6-42.6L171.4,171.8z"/>
			</g>
			<g>
				<path class="st1" d="M171.4,175.8L171.4,175.8l-60.2,0c-2.2,0-4-1.8-4-4c0-17.2,6.7-33.3,18.8-45.5c0.8-0.8,1.8-1.2,2.8-1.2l0,0
					c1.1,0,2.1,0.4,2.8,1.2l42.6,42.6c1.1,1.1,1.5,2.9,0.9,4.4C174.5,174.8,173.1,175.8,171.4,175.8z M115.4,167.8l46.4,0L129,134.9
					C120.9,144.1,116.2,155.5,115.4,167.8z"/>
			</g>
		</g>
		<g>
			<g>
				<path class="st29" d="M171.4,171.8l-42.6,42.6c-10.9-10.9-17.6-26-17.6-42.6L171.4,171.8z"/>
			</g>
			<g>
				<path class="st1" d="M128.9,218.4L128.9,218.4c-1.1,0-2.1-0.4-2.8-1.2c-12.1-12.1-18.8-28.3-18.8-45.5c0-1.1,0.4-2.1,1.2-2.8
					c0.8-0.8,1.8-1.2,2.8-1.2l0,0l60.2,0c1.6,0,3.1,1,3.7,2.5s0.3,3.2-0.9,4.4l-42.6,42.6C130.9,218,129.9,218.4,128.9,218.4z
					 M115.4,175.8c0.8,12.2,5.6,23.6,13.6,32.9l32.8-32.9L115.4,175.8z"/>
			</g>
		</g>
		<g>
			<g>
				<path class="st29" d="M171.4,171.8l0,60.3c-16.6,0-31.7-6.8-42.6-17.7L171.4,171.8z"/>
			</g>
			<g>
				<path class="st1" d="M171.4,236.1L171.4,236.1c-17.2,0-33.3-6.7-45.4-18.8c-1.6-1.6-1.6-4.1,0-5.7l42.6-42.6
					c1.1-1.1,2.9-1.5,4.4-0.9c1.5,0.6,2.5,2.1,2.5,3.7l0,60.3C175.4,234.3,173.7,236.1,171.4,236.1z M134.6,214.3
					c9.2,8,20.6,12.8,32.8,13.6l0-46.5L134.6,214.3z"/>
			</g>
		</g>
		<g>
			<g>
				<path class="st29" d="M231.7,171.8l-60.2,0l42.6-42.6C224.9,140,231.7,155.1,231.7,171.8z"/>
			</g>
			<g>
				<path class="st1" d="M231.7,175.8L231.7,175.8l-60.2,0c-1.6,0-3.1-1-3.7-2.5s-0.3-3.2,0.9-4.4l42.6-42.6
					c0.8-0.8,1.8-1.2,2.8-1.2l0,0c1.1,0,2.1,0.4,2.8,1.2c12.1,12.1,18.8,28.3,18.8,45.5C235.7,174,233.9,175.8,231.7,175.8z
					 M181.1,167.8l46.4,0c-0.8-12.2-5.6-23.6-13.6-32.9L181.1,167.8z"/>
			</g>
		</g>
		<g>
			<g>
				<line class="st29" x1="214.1" y1="129.1" x2="214" y2="129.1"/>
			</g>
			<g>
				<path class="st1" d="M214,133.1c-1,0-2-0.4-2.8-1.2c-1.6-1.6-1.6-4.1,0-5.7s4.1-1.6,5.7,0c1.6,1.6,1.6,4.1,0,5.7l0,0
					C216.1,132.7,215.1,133.1,214,133.1z"/>
			</g>
		</g>
	</g>
</g>
</svg>
