<?xml version="1.0" encoding="utf-8"?>
<!-- Generator: Adobe Illustrator 22.1.0, SVG Export Plug-In . SVG Version: 6.00 Build 0)  -->
<svg version="1.1" id="Layer_1" xmlns="http://www.w3.org/2000/svg" xmlns:xlink="http://www.w3.org/1999/xlink" x="0px" y="0px"
	 viewBox="0 0 256 256" style="enable-background:new 0 0 256 256;" xml:space="preserve">
<style type="text/css">
	.st0{fill:#F5B31F;}
	.st1{fill:#464646;}
	.st2{opacity:0.15;}
	.st3{fill:#AC6535;}
	.st4{fill:#EB573B;}
	.st5{fill:#90C056;}
	.st6{opacity:0.35;}
	.st7{fill:#FFFFFF;}
	.st8{opacity:0.2;}
	.st9{fill:#F6D67A;}
	.st10{opacity:0.3;}
	.st11{fill:#FFA755;}
	.st12{fill:#8FAE3C;}
	.st13{fill:#BE6BB2;}
	.st14{fill:#B7C536;}
	.st15{opacity:0.1;}
	.st16{fill:#9D5A96;}
	.st17{fill:#EA615D;}
	.st18{opacity:0.4;}
	.st19{fill:#F79932;}
	.st20{fill:#FFEC97;}
	.st21{fill:#FFD11D;}
	.st22{fill:#F7F2D5;}
	.st23{fill:#F6AF72;}
	.st24{fill:#BA6C45;}
	.st25{opacity:0.5;}
	.st26{fill:#E4C074;}
	.st27{fill:#656566;}
	.st28{fill:#FACD1F;}
	.st29{fill:#FFDF66;}
	.st30{fill:#6D6E71;}
	.st31{fill:#E77CAE;}
	.st32{fill:#FFE5C4;}
	.st33{fill:#F68455;}
	.st34{opacity:0.7;}
	.st35{fill:#ADEDFF;}
	.st36{fill:#EC754B;}
	.st37{fill:#4AA5BA;}
	.st38{opacity:0.8;}
	.st39{fill:#92A5AC;}
	.st40{fill:#D06E3C;}
	.st41{fill:#DA4F4B;}
	.st42{fill:#BDF3FF;}
	.st43{fill:#F18BB4;}
	.st44{fill:#F9D97A;}
	.st45{fill:none;}
	.st46{fill:#AF6535;}
	.st47{fill:#B93226;}
	.st48{fill:#FF6050;}
	.st49{fill:#EA7CB1;}
	.st50{fill:#00B0E0;}
	.st51{fill:#EA7DAE;}
	.st52{fill:#BC7532;}
	.st53{fill:#876C6C;}
	.st54{fill:#F9F6CD;}
	.st55{fill:#FFE37B;}
	.st56{fill:#1DDCFF;}
	.st57{fill:#60ACF7;}
	.st58{fill:#C3755A;}
	.st59{fill:#96557A;}
	.st60{fill:#66625D;}
	.st61{fill:#D68032;}
	.st62{fill:#F2A355;}
	.st63{fill:#7E9E6A;}
	.st64{fill:#965A85;}
	.st65{fill:#90CAD3;}
	.st66{fill:#94B57F;}
	.st67{fill:#B2E2E7;}
	.st68{fill:#FFDF8F;}
	.st69{fill:#FFFAEB;}
	.st70{fill:#F88916;}
	.st71{fill:#FFC86E;}
	.st72{fill:#AFA51D;}
	.st73{fill:#968A1C;}
	.st74{fill:#C3556D;}
</style>
<g>
	<g>
		<g>
			<g>
				<path class="st24" d="M159.3,174.8c0,18.6-13.6,36-31.3,36c-17.6,0-31.3-17.4-31.3-36c0-18.6,15.6-45.2,31.3-45.2
					S159.3,156.2,159.3,174.8z"/>
			</g>
		</g>
	</g>
	<g class="st10">
		<g>
			<g>
				<path class="st7" d="M144.5,138.7c-5-5.5-10.7-9-16.4-9c-15.6,0-31.3,26.6-31.3,45.2c0,8.7,3,17.2,8,23.7
					c0,0-1.2-27.3,10.4-43.2S144.5,138.7,144.5,138.7z"/>
			</g>
		</g>
	</g>
	<g class="st15">
		<g>
			<g>
				<path d="M151.3,148c4.9,8.5,8,18.4,8,26.8c0,18.6-13.6,36-31.3,36c-7.1,0-13.5-2.8-18.7-7.4c0,0,18.7,2.9,32.2-9.7
					C155.1,181.3,151.3,148,151.3,148z"/>
			</g>
		</g>
	</g>
	<g>
		<g>
			<g>
				<path class="st12" d="M102.8,15.7c-26.5-5.3-36.7,12.8-37.5,44.6C96.5,54.7,110.3,40.5,102.8,15.7z"/>
			</g>
		</g>
	</g>
	<g class="st10">
		<g>
			<g>
				<path class="st7" d="M102.8,15.7c-26.5-5.3-36.7,12.8-37.5,44.6c0,0,8.2-22.1,15-29.9S102.8,15.7,102.8,15.7z"/>
			</g>
		</g>
	</g>
	<g>
		<g>
			<g>
				<g>
					<path class="st20" d="M197.9,173.6c-6.4-35.2-16.8-33.2-27-75c-10.2-41.7-30.4-52.5-42.8-52.5c-2.5,0-5.3,0.4-8.2,1.5
						c-11.8,4.1-26.4,17.6-34.6,51c-10.2,41.7-20.6,39.8-27,75C51.8,208.8,80,252,128,252C176.1,252,204.3,208.8,197.9,173.6z
						 M128,210.9c-17.6,0-31.3-17.4-31.3-36c0-18.6,15.6-45.2,31.3-45.2s31.3,26.6,31.3,45.2C159.3,193.5,145.7,210.9,128,210.9z"/>
				</g>
			</g>
		</g>
	</g>
	<g class="st25">
		<g>
			<g>
				<path class="st7" d="M128,46.1c-2.5,0-5.3,0.4-8.2,1.5c-11.8,4.1-26.4,17.6-34.6,51c-10.2,41.7-20.6,39.8-27,75
					c-2.4,13.2,0,27.5,6.6,40.3c0,0-5.8-17.2,0.5-41c6.3-23.8,12.1-27.4,21.8-45.2s5.6-35.8,15.7-53S128,46.1,128,46.1z"/>
			</g>
		</g>
	</g>
	<g class="st15">
		<g>
			<g>
				<path d="M78.6,232.4c12.1,11.7,29,19.6,49.5,19.6c48,0,76.3-43.1,69.8-78.4c-4.8-26.4-11.9-31.9-19.4-50.6
					c0,0,20.2,60.2-13.3,96.4S78.6,232.4,78.6,232.4z"/>
			</g>
		</g>
	</g>
	<g>
		<g>
			<g>
				<path class="st1" d="M128,256C128,256,128,256,128,256c-22.9,0-43.4-9.4-57.7-26.5c-13.6-16.3-19.6-37.4-16.1-56.6
					c3.4-18.3,7.8-27.1,12.6-36.4c4.7-9.1,9.5-18.6,14.5-38.8c9.5-39,27.4-50.5,37.2-53.9c3.2-1.1,6.4-1.7,9.5-1.7
					c5,0,14.9,1.5,25.1,11.8c9.6,9.7,16.9,24.4,21.6,43.8c4.9,20.2,9.8,29.7,14.5,38.8c4.8,9.3,9.2,18,12.6,36.4
					c3.5,19.1-2.5,40.3-16.1,56.6C171.4,246.5,151,256,128,256z M128,50.1c-2.2,0-4.5,0.4-6.9,1.2c-8.3,2.8-23.4,12.9-32,48.2
					C84,120.7,78.7,131,74,140.1c-4.7,9.1-8.7,17-11.8,34.2c-3.1,16.8,2.3,35.5,14.3,50c12.7,15.3,31,23.7,51.5,23.7c0,0,0,0,0,0
					c20.5,0,38.8-8.4,51.5-23.7c12.1-14.5,17.4-33.2,14.3-50c0,0,0,0,0,0c-3.1-17.2-7.2-25.1-11.8-34.2c-4.7-9.1-10-19.4-15.1-40.6
					C155.5,52.5,132.5,50.1,128,50.1z M128,214.9C128,214.9,128,214.9,128,214.9c-19.1,0-35.3-18.3-35.3-40c0-9.8,4-21.9,10.4-31.8
					c7.2-11.1,16.3-17.4,24.8-17.4c0,0,0,0,0,0c17.8,0,35.3,28.2,35.3,49.2C163.3,196.6,147.2,214.9,128,214.9z M128,206.9
					c14.8,0,27.3-14.7,27.3-32c0-16.7-14.4-41.2-27.3-41.2c-5.7,0-12.5,5.2-18.1,13.8c-5.6,8.6-9.1,19.1-9.1,27.4
					C100.8,192.2,113.3,206.9,128,206.9L128,206.9z"/>
			</g>
		</g>
	</g>
	<g>
		<g>
			<g>
				<path class="st1" d="M128,214.9C128,214.9,128,214.9,128,214.9c-19.1,0-35.3-18.3-35.3-40c0-9.8,4-21.9,10.4-31.8
					c7.2-11.1,16.3-17.4,24.8-17.4c0,0,0,0,0,0c17.8,0,35.3,28.2,35.3,49.2l0,0C163.3,196.6,147.2,214.9,128,214.9z M128,133.6
					c-5.7,0-12.5,5.2-18.1,13.8c-5.6,8.6-9.1,19.1-9.1,27.4c0,17.4,12.5,32,27.3,32c14.8,0,27.3-14.7,27.3-32
					C155.3,158.2,140.9,133.6,128,133.6z M159.3,174.8L159.3,174.8L159.3,174.8z"/>
			</g>
		</g>
	</g>
	<g>
		<g>
			<g>
				<path class="st1" d="M65.3,64.3c-0.9,0-1.9-0.3-2.6-1c-0.9-0.8-1.4-1.9-1.4-3.1c0.5-21.8,5.3-36,14.7-43.5
					c6.9-5.5,16.2-7.2,27.5-4.9c1.4,0.3,2.6,1.4,3,2.8c3.5,11.5,2.7,21.4-2.1,29.3C98.2,54.1,85.7,60.7,66,64.3
					C65.8,64.3,65.6,64.3,65.3,64.3z M94.2,18.8c-5.3,0-9.7,1.4-13.1,4.2c-6.7,5.3-10.5,16.2-11.5,32.5c14.2-3.2,23.7-8.5,28.1-15.7
					c3.4-5.5,4-12.2,1.9-20.5C97.7,18.9,95.9,18.8,94.2,18.8z"/>
			</g>
		</g>
	</g>
	<g>
		<g>
			<g>
				<path class="st1" d="M119.8,51.6c-1.4,0-2.8-0.8-3.5-2.1c-5.5-10.4-8-21-7.4-31.5c-1.6,0.7-3.4,1.3-5.3,1.7
					c-2.2,0.4-4.3-1-4.7-3.1s1-4.3,3.1-4.7c4.8-1,7.8-3.3,9.3-7.4c0.2-0.6,0.4-1.1,0.5-1.7c0.7-2.1,2.9-3.2,5-2.5
					c2.1,0.6,3.3,2.8,2.7,4.9c-0.2,0.6-0.4,1.3-0.6,1.9c-3.9,13-2.5,25.7,4.4,38.8c1,2,0.3,4.4-1.7,5.4
					C121.1,51.4,120.5,51.6,119.8,51.6z"/>
			</g>
		</g>
	</g>
</g>
</svg>
