<?xml version="1.0" encoding="utf-8"?>
<!-- Generator: Adobe Illustrator 22.1.0, SVG Export Plug-In . SVG Version: 6.00 Build 0)  -->
<svg version="1.1" id="Layer_1" xmlns="http://www.w3.org/2000/svg" xmlns:xlink="http://www.w3.org/1999/xlink" x="0px" y="0px"
	 viewBox="0 0 256 256" style="enable-background:new 0 0 256 256;" xml:space="preserve">
<style type="text/css">
	.st0{fill:#F5B31F;}
	.st1{fill:#464646;}
	.st2{opacity:0.15;}
	.st3{fill:#AC6535;}
	.st4{fill:#EB573B;}
	.st5{fill:#90C056;}
	.st6{opacity:0.35;}
	.st7{fill:#FFFFFF;}
	.st8{opacity:0.2;}
	.st9{fill:#F6D67A;}
	.st10{opacity:0.3;}
	.st11{fill:#FFA755;}
	.st12{fill:#8FAE3C;}
	.st13{fill:#BE6BB2;}
	.st14{fill:#B7C536;}
	.st15{opacity:0.1;}
	.st16{fill:#9D5A96;}
	.st17{fill:#EA615D;}
	.st18{opacity:0.4;}
	.st19{fill:#F79932;}
	.st20{fill:#FFEC97;}
	.st21{fill:#FFD11D;}
	.st22{fill:#F7F2D5;}
	.st23{fill:#F6AF72;}
	.st24{fill:#BA6C45;}
	.st25{opacity:0.5;}
	.st26{fill:#E4C074;}
	.st27{fill:#656566;}
	.st28{fill:#FACD1F;}
	.st29{fill:#FFDF66;}
	.st30{fill:#6D6E71;}
	.st31{fill:#E77CAE;}
	.st32{fill:#FFE5C4;}
	.st33{fill:#F68455;}
	.st34{opacity:0.7;}
	.st35{fill:#ADEDFF;}
	.st36{fill:#EC754B;}
	.st37{fill:#4AA5BA;}
	.st38{opacity:0.8;}
	.st39{fill:#92A5AC;}
	.st40{fill:#D06E3C;}
	.st41{fill:#DA4F4B;}
	.st42{fill:#BDF3FF;}
	.st43{fill:#F18BB4;}
	.st44{fill:#F9D97A;}
	.st45{fill:none;}
	.st46{fill:#AF6535;}
	.st47{fill:#B93226;}
	.st48{fill:#FF6050;}
	.st49{fill:#EA7CB1;}
	.st50{fill:#00B0E0;}
	.st51{fill:#EA7DAE;}
	.st52{fill:#BC7532;}
	.st53{fill:#876C6C;}
	.st54{fill:#F9F6CD;}
	.st55{fill:#FFE37B;}
	.st56{fill:#1DDCFF;}
	.st57{fill:#60ACF7;}
	.st58{fill:#C3755A;}
	.st59{fill:#96557A;}
	.st60{fill:#66625D;}
	.st61{fill:#D68032;}
	.st62{fill:#F2A355;}
	.st63{fill:#7E9E6A;}
	.st64{fill:#965A85;}
	.st65{fill:#90CAD3;}
	.st66{fill:#94B57F;}
	.st67{fill:#B2E2E7;}
	.st68{fill:#FFDF8F;}
	.st69{fill:#FFFAEB;}
	.st70{fill:#F88916;}
	.st71{fill:#FFC86E;}
	.st72{fill:#AFA51D;}
	.st73{fill:#968A1C;}
	.st74{fill:#C3556D;}
</style>
<g>
	<g>
		<g>
			<g>
				<ellipse class="st22" cx="128" cy="127.9" rx="39.5" ry="39.5"/>
			</g>
		</g>
	</g>
	<g>
		<g>
			<g>
				<path class="st12" d="M128,3.9C59.6,3.9,4.2,59.4,4.2,127.9c0,68.5,55.5,124,123.9,124s123.9-55.5,123.9-124S196.5,3.9,128,3.9z
					 M128,167.5c-21.8,0-39.5-17.7-39.5-39.5s17.7-39.5,39.5-39.5s39.5,17.7,39.5,39.5S149.9,167.5,128,167.5z"/>
			</g>
		</g>
	</g>
	<g class="st8">
		<g>
			<g>
				<path class="st7" d="M128,3.9C59.6,3.9,4.2,59.4,4.2,127.9c0,30,10.6,57.4,28.3,78.9c0,0-28.6-62-2.2-121.6S128,3.9,128,3.9z"/>
			</g>
		</g>
	</g>
	<g class="st15">
		<g>
			<g>
				<path d="M42.7,217.9C65,239,95,251.9,128,251.9c68.4,0,123.9-55.5,123.9-124c0-31.4-11.6-60-30.8-81.8c0,0,41.9,62.5-23.9,142.6
					S42.7,217.9,42.7,217.9z"/>
			</g>
		</g>
	</g>
	<g>
		<g>
			<g>
				<path class="st1" d="M128,255.9c-70.5,0-127.9-57.4-127.9-128c0-34.2,13.3-66.3,37.5-90.5C61.8,13.3,93.9-0.1,128-0.1
					c0,0,0,0,0,0c70.5,0,127.9,57.4,127.9,128C255.9,198.5,198.5,255.9,128,255.9z M128,7.9c-32,0-62.1,12.5-84.7,35.1
					C20.6,65.7,8.2,95.9,8.2,127.9c0,66.2,53.8,120,119.9,120c66.1,0,119.9-53.8,119.9-120C247.9,61.8,194.1,7.9,128,7.9L128,7.9
					C128,7.9,128,7.9,128,7.9z M128,171.5c-24,0-43.5-19.5-43.5-43.6c0-24,19.5-43.5,43.5-43.5c24,0,43.5,19.5,43.5,43.5
					C171.5,151.9,152,171.5,128,171.5z M128,92.4c-19.6,0-35.5,15.9-35.5,35.5c0,19.6,15.9,35.6,35.5,35.6
					c19.6,0,35.5-15.9,35.5-35.5C163.5,108.3,147.6,92.4,128,92.4z"/>
			</g>
		</g>
	</g>
	<g>
		<g>
			<g>
				<path class="st1" d="M128,171.5C128,171.5,128,171.5,128,171.5c-24,0-43.5-19.5-43.5-43.5c0-11.6,4.5-22.6,12.7-30.8
					c8.2-8.2,19.1-12.8,30.8-12.8c0,0,0,0,0,0c11.6,0,22.5,4.5,30.8,12.8c8.2,8.2,12.7,19.2,12.7,30.8
					C171.5,151.9,152,171.5,128,171.5z M128,92.4c-9.5,0-18.4,3.7-25.1,10.4c-6.7,6.7-10.4,15.6-10.4,25.1
					c0,19.6,15.9,35.5,35.5,35.5c19.6,0,35.5-15.9,35.5-35.5c0-9.5-3.7-18.4-10.4-25.1C146.4,96.1,137.5,92.4,128,92.4
					C128,92.4,128,92.4,128,92.4z"/>
			</g>
		</g>
	</g>
	<g>
		<g>
			<g>
				<g>
					<path class="st1" d="M117.9,81.6c-1.9,0-3.5-1.3-3.9-3.2l-2.1-10.2c-0.4-2.2,1-4.3,3.1-4.7c2.2-0.4,4.3,1,4.7,3.1l2.1,10.2
						c0.4,2.2-1,4.3-3.1,4.7C118.4,81.6,118.1,81.6,117.9,81.6z"/>
				</g>
			</g>
		</g>
		<g>
			<g>
				<g>
					<path class="st1" d="M140.3,192.4c-1.9,0-3.5-1.3-3.9-3.2l-2.1-10.2c-0.4-2.2,1-4.3,3.1-4.7c2.2-0.4,4.3,1,4.7,3.1l2.1,10.2
						c0.4,2.2-1,4.3-3.1,4.7C140.8,192.4,140.5,192.4,140.3,192.4z"/>
				</g>
			</g>
		</g>
		<g>
			<g>
				<g>
					<path class="st1" d="M67.6,144.2c-1.9,0-3.5-1.3-3.9-3.2c-0.4-2.2,1-4.3,3.1-4.7l10.2-2.1c2.2-0.4,4.3,1,4.7,3.1
						c0.4,2.2-1,4.3-3.1,4.7l-10.2,2.1C68.1,144.2,67.9,144.2,67.6,144.2z"/>
				</g>
			</g>
		</g>
		<g>
			<g>
				<g>
					<path class="st1" d="M178.3,121.8c-1.9,0-3.5-1.3-3.9-3.2c-0.4-2.2,1-4.3,3.1-4.7l10.2-2.1c2.2-0.4,4.3,1,4.7,3.1
						s-1,4.3-3.1,4.7l-10.2,2.1C178.8,121.7,178.5,121.8,178.3,121.8z"/>
				</g>
			</g>
		</g>
		<g>
			<g>
				<g>
					<path class="st1" d="M94,183.4c-0.8,0-1.5-0.2-2.2-0.7c-1.8-1.2-2.3-3.7-1.1-5.5l5.7-8.7c1.2-1.8,3.7-2.3,5.5-1.1
						c1.8,1.2,2.3,3.7,1.1,5.5l-5.7,8.7C96.5,182.7,95.2,183.4,94,183.4z"/>
				</g>
			</g>
		</g>
		<g>
			<g>
				<g>
					<path class="st1" d="M156.4,89.2c-0.8,0-1.5-0.2-2.2-0.7c-1.8-1.2-2.3-3.7-1.1-5.5l5.7-8.7c1.2-1.8,3.7-2.3,5.5-1.1
						c1.8,1.2,2.3,3.7,1.1,5.5l-5.7,8.7C158.9,88.6,157.7,89.2,156.4,89.2z"/>
				</g>
			</g>
		</g>
		<g>
			<g>
				<g>
					<path class="st1" d="M179.4,166.1c-0.8,0-1.5-0.2-2.2-0.7l-8.7-5.8c-1.8-1.2-2.3-3.7-1.1-5.5c1.2-1.8,3.7-2.3,5.5-1.1l8.7,5.8
						c1.8,1.2,2.3,3.7,1.1,5.5C182,165.4,180.7,166.1,179.4,166.1z"/>
				</g>
			</g>
		</g>
		<g>
			<g>
				<g>
					<path class="st1" d="M85.3,103.6c-0.8,0-1.5-0.2-2.2-0.7l-8.7-5.8c-1.8-1.2-2.3-3.7-1.1-5.5c1.2-1.8,3.7-2.3,5.5-1.1l8.7,5.8
						c1.8,1.2,2.3,3.7,1.1,5.5C87.9,102.9,86.6,103.6,85.3,103.6z"/>
				</g>
			</g>
		</g>
	</g>
	<g>
		<g>
			<g>
				<g>
					<path class="st1" d="M95.4,78.8c-1.3,0-2.7-0.7-3.4-1.9l-6.6-10.8c-1.2-1.9-0.6-4.3,1.3-5.5c1.9-1.2,4.3-0.6,5.5,1.3l6.6,10.8
						c1.2,1.9,0.6,4.3-1.3,5.5C96.8,78.6,96.1,78.8,95.4,78.8z"/>
				</g>
			</g>
		</g>
		<g>
			<g>
				<g>
					<path class="st1" d="M167.4,195.9c-1.3,0-2.7-0.7-3.4-1.9l-6.6-10.8c-1.2-1.9-0.6-4.3,1.3-5.5c1.9-1.2,4.3-0.6,5.5,1.3
						l6.6,10.8c1.2,1.9,0.6,4.3-1.3,5.5C168.8,195.7,168.1,195.9,167.4,195.9z"/>
				</g>
			</g>
		</g>
		<g>
			<g>
				<g>
					<path class="st1" d="M64.2,171.3c-1.3,0-2.7-0.7-3.4-1.9c-1.2-1.9-0.6-4.3,1.3-5.5l10.8-6.6c1.9-1.2,4.3-0.6,5.5,1.3
						s0.6,4.3-1.3,5.5l-10.8,6.6C65.6,171.1,64.9,171.3,64.2,171.3z"/>
				</g>
			</g>
		</g>
		<g>
			<g>
				<g>
					<path class="st1" d="M181.2,99.2c-1.3,0-2.7-0.7-3.4-1.9c-1.2-1.9-0.6-4.3,1.3-5.5l10.8-6.6c1.9-1.2,4.3-0.6,5.5,1.3
						c1.2,1.9,0.6,4.3-1.3,5.5l-10.8,6.6C182.6,99,181.9,99.2,181.2,99.2z"/>
				</g>
			</g>
		</g>
		<g>
			<g>
				<g>
					<path class="st1" d="M110.7,205c-0.3,0-0.6,0-0.9-0.1c-2.1-0.5-3.5-2.7-3-4.8l2.9-12.3c0.5-2.2,2.7-3.5,4.8-3
						c2.1,0.5,3.5,2.7,3,4.8l-2.9,12.3C114.1,203.8,112.5,205,110.7,205z"/>
				</g>
			</g>
		</g>
		<g>
			<g>
				<g>
					<path class="st1" d="M142.5,71.2c-0.3,0-0.6,0-0.9-0.1c-2.1-0.5-3.5-2.7-3-4.8l2.9-12.3c0.5-2.2,2.7-3.5,4.8-3
						c2.1,0.5,3.5,2.7,3,4.8l-2.9,12.3C145.9,70,144.3,71.2,142.5,71.2z"/>
				</g>
			</g>
		</g>
		<g>
			<g>
				<g>
					<path class="st1" d="M201,149.3c-0.3,0-0.6,0-0.9-0.1l-12.3-2.9c-2.1-0.5-3.5-2.7-3-4.8c0.5-2.2,2.7-3.5,4.8-3l12.3,2.9
						c2.1,0.5,3.5,2.7,3,4.8C204.5,148.1,202.8,149.3,201,149.3z"/>
				</g>
			</g>
		</g>
		<g>
			<g>
				<g>
					<path class="st1" d="M67.4,117.5c-0.3,0-0.6,0-0.9-0.1l-12.3-2.9c-2.1-0.5-3.5-2.7-3-4.8c0.5-2.2,2.7-3.5,4.8-3l12.3,2.9
						c2.1,0.5,3.5,2.7,3,4.8C70.8,116.2,69.2,117.5,67.4,117.5z"/>
				</g>
			</g>
		</g>
	</g>
</g>
</svg>
