<?xml version="1.0" encoding="utf-8"?>
<!-- Generator: Adobe Illustrator 22.1.0, SVG Export Plug-In . SVG Version: 6.00 Build 0)  -->
<svg version="1.1" id="Layer_1" xmlns="http://www.w3.org/2000/svg" xmlns:xlink="http://www.w3.org/1999/xlink" x="0px" y="0px"
	 viewBox="0 0 256 256" style="enable-background:new 0 0 256 256;" xml:space="preserve">
<style type="text/css">
	.st0{fill:#F5B31F;}
	.st1{fill:#464646;}
	.st2{opacity:0.15;}
	.st3{fill:#AC6535;}
	.st4{fill:#EB573B;}
	.st5{fill:#90C056;}
	.st6{opacity:0.35;}
	.st7{fill:#FFFFFF;}
	.st8{opacity:0.2;}
	.st9{fill:#F6D67A;}
	.st10{opacity:0.3;}
	.st11{fill:#FFA755;}
	.st12{fill:#8FAE3C;}
	.st13{fill:#BE6BB2;}
	.st14{fill:#B7C536;}
	.st15{opacity:0.1;}
	.st16{fill:#9D5A96;}
	.st17{fill:#EA615D;}
	.st18{opacity:0.4;}
	.st19{fill:#F79932;}
	.st20{fill:#FFEC97;}
	.st21{fill:#FFD11D;}
	.st22{fill:#F7F2D5;}
	.st23{fill:#F6AF72;}
	.st24{fill:#BA6C45;}
	.st25{opacity:0.5;}
	.st26{fill:#E4C074;}
	.st27{fill:#656566;}
	.st28{fill:#FACD1F;}
	.st29{fill:#FFDF66;}
	.st30{fill:#6D6E71;}
	.st31{fill:#E77CAE;}
	.st32{fill:#FFE5C4;}
	.st33{fill:#F68455;}
	.st34{opacity:0.7;}
	.st35{fill:#ADEDFF;}
	.st36{fill:#EC754B;}
	.st37{fill:#4AA5BA;}
	.st38{opacity:0.8;}
	.st39{fill:#92A5AC;}
	.st40{fill:#D06E3C;}
	.st41{fill:#DA4F4B;}
	.st42{fill:#BDF3FF;}
	.st43{fill:#F18BB4;}
	.st44{fill:#F9D97A;}
	.st45{fill:none;}
	.st46{fill:#AF6535;}
	.st47{fill:#B93226;}
	.st48{fill:#FF6050;}
	.st49{fill:#EA7CB1;}
	.st50{fill:#00B0E0;}
	.st51{fill:#EA7DAE;}
	.st52{fill:#BC7532;}
	.st53{fill:#876C6C;}
	.st54{fill:#F9F6CD;}
	.st55{fill:#FFE37B;}
	.st56{fill:#1DDCFF;}
	.st57{fill:#60ACF7;}
	.st58{fill:#C3755A;}
	.st59{fill:#96557A;}
	.st60{fill:#66625D;}
	.st61{fill:#D68032;}
	.st62{fill:#F2A355;}
	.st63{fill:#7E9E6A;}
	.st64{fill:#965A85;}
	.st65{fill:#90CAD3;}
	.st66{fill:#94B57F;}
	.st67{fill:#B2E2E7;}
	.st68{fill:#FFDF8F;}
	.st69{fill:#FFFAEB;}
	.st70{fill:#F88916;}
	.st71{fill:#FFC86E;}
	.st72{fill:#AFA51D;}
	.st73{fill:#968A1C;}
	.st74{fill:#C3556D;}
</style>
<g>
	<g>
		<g>
			<g>
				<path class="st36" d="M220.2,105.1c0,2.2-0.3,4.4-0.9,6.4c-6.9,2.7-12.2,8.5-14.2,15.8c-2.4,0.9-4.9,1.5-7.5,1.6
					c-0.9-12.4-11.2-22.1-23.8-22.1c-0.4,0-0.9,0-1.3,0c-0.1-0.6-0.1-1.1-0.1-1.7c0-3,0.5-5.8,1.5-8.4c0,0,0,0,0,0
					c0.5-1.2,1-2.4,1.7-3.6v0c4.1-7.1,11.9-11.9,20.7-11.9C209.5,81.3,220.2,92,220.2,105.1z"/>
			</g>
		</g>
	</g>
	<g class="st38">
		<g>
			<g>
				<path class="st7" d="M182.6,107.2c-1.1,0-2-0.9-2-2c0-8.7,7.1-15.7,15.7-15.7c1.1,0,2,0.9,2,2c0,1.1-0.9,2-2,2
					c-6.4,0-11.7,5.2-11.7,11.7C184.6,106.3,183.7,107.2,182.6,107.2z"/>
			</g>
		</g>
	</g>
	<g>
		<g>
			<g>
				<path class="st36" d="M252.1,133.7c0,13.2-10.7,23.9-23.9,23.9c-1.1,0-2.2-0.1-3.3-0.2c-1.1-10.9-9.6-19.6-20.5-21.1
					c-0.1-0.8-0.1-1.7-0.1-2.5c0-2.2,0.3-4.4,0.9-6.4c2-7.2,7.3-13,14.2-15.8c2.7-1.1,5.7-1.7,8.8-1.7
					C241.4,109.9,252.1,120.6,252.1,133.7z"/>
			</g>
		</g>
	</g>
	<g class="st38">
		<g>
			<g>
				<path class="st7" d="M214.5,135.8c-1.1,0-2-0.9-2-2c0-8.7,7.1-15.7,15.7-15.7c1.1,0,2,0.9,2,2c0,1.1-0.9,2-2,2
					c-6.4,0-11.7,5.2-11.7,11.7C216.5,134.9,215.6,135.8,214.5,135.8z"/>
			</g>
		</g>
	</g>
	<g>
		<g>
			<g>
				<path class="st36" d="M225,159.9c0,13.2-10.7,23.9-23.9,23.9c-13.2,0-23.9-10.7-23.9-23.9c0-2,0.2-3.9,0.7-5.7
					c9.4-1.6,16.9-8.7,19.2-17.8c1.3-0.2,2.7-0.4,4.1-0.4c1.1,0,2.2,0.1,3.3,0.2c10.8,1.5,19.3,10.2,20.5,21.1
					C224.9,158.2,225,159,225,159.9z"/>
			</g>
		</g>
	</g>
	<g class="st38">
		<g>
			<g>
				<path class="st7" d="M187.4,161.9c-1.1,0-2-0.9-2-2c0-8.7,7.1-15.7,15.7-15.7c1.1,0,2,0.9,2,2s-0.9,2-2,2
					c-6.4,0-11.7,5.2-11.7,11.7C189.4,161,188.5,161.9,187.4,161.9z"/>
			</g>
		</g>
	</g>
	<g>
		<g>
			<g>
				<path class="st36" d="M129.4,180.9c-3.7,8.4-12.1,14.2-21.9,14.2c-12.6,0-22.9-9.7-23.8-22.1v0c0-0.6-0.1-1.2-0.1-1.8
					c0-4.9,1.5-9.4,4-13.2v0c2.5-3.7,6-6.8,10.2-8.6c3-0.1,5.9-0.9,8.5-2c0.4,0,0.8,0,1.2,0c8.7,0,16.3,4.6,20.5,11.5
					c-1.3,2.9-2,6.2-2,9.6C125.9,173.1,127.2,177.3,129.4,180.9z"/>
			</g>
		</g>
	</g>
	<g>
		<g>
			<g>
				<path class="st36" d="M87.6,158.1c-2.5,3.8-4,8.3-4,13.2c0,0.6,0,1.2,0.1,1.8v0c-4.3,6.4-11.6,10.7-19.9,10.7
					c-10.9,0-20.2-7.3-23-17.3c-0.6-2.1-0.9-4.3-0.9-6.5c0-8.5,4.5-16,11.2-20.2c3.7-2.3,8-3.7,12.7-3.7c5.3,0,10.3,1.8,14.2,4.7
					c0,0,0,0,0,0c1.6,1.2,3.1,2.6,4.3,4.1c0,0,0,0,0,0C85.3,148.5,87.2,153.1,87.6,158.1L87.6,158.1z"/>
			</g>
		</g>
	</g>
	<g>
		<g>
			<g>
				<path class="st36" d="M39.8,159.9c0,2.3,0.3,4.5,0.9,6.5c-3.7,2.3-8,3.7-12.7,3.7c-13.2,0-23.9-10.7-23.9-23.9
					c0-13.2,10.7-23.9,23.9-23.9c10.9,0,20.2,7.3,23,17.3C44.3,143.9,39.8,151.4,39.8,159.9z"/>
			</g>
		</g>
	</g>
	<g>
		<g>
			<g>
				<path class="st36" d="M72.6,125.7c0,0.6,0,1.2,0.1,1.8c-4.1,3.1-9.1,5-14.7,5c-13.2,0-23.9-10.7-23.9-23.9
					c0-13.2,10.7-23.9,23.9-23.9c12.6,0,22.9,9.7,23.8,22C76.2,111.2,72.6,118,72.6,125.7z"/>
			</g>
		</g>
	</g>
	<g>
		<g>
			<g>
				<path class="st36" d="M117,138c-2.5,4.2-6.2,7.5-10.7,9.5c-2.6,1.2-5.5,1.9-8.5,2c-0.4,0-0.8,0-1.2,0c-5.3,0-10.2-1.7-14.2-4.7
					c0,0,0,0,0,0c-1.3-1.6-2.7-2.9-4.3-4.1c0,0,0,0,0,0c-3-3.7-4.9-8.2-5.3-13.2c-0.1-0.6-0.1-1.2-0.1-1.8c0-7.7,3.6-14.5,9.3-18.9
					c1.4-1.1,2.8-2,4.4-2.7c3.1-1.5,6.6-2.3,10.2-2.3c7,0,13.4,3,17.8,7.9c0.5,0.5,0.9,1,1.3,1.6c-2.2,3.6-3.4,7.8-3.4,12.3
					C112.1,129,114,134,117,138z"/>
			</g>
		</g>
	</g>
	<g>
		<g>
			<g>
				<path class="st36" d="M128,88.1c0,6.9-3,13.2-7.7,17.5c-0.1,0.1-0.3,0.3-0.4,0.4c-1.7,1.5-3.5,2.7-5.6,3.6
					c-4.4-4.8-10.7-7.9-17.8-7.9c-3.7,0-7.1,0.8-10.2,2.3c-3.8-4.2-6.2-9.8-6.2-16c0-13.2,10.7-23.9,23.9-23.9
					C117.3,64.2,128,74.9,128,88.1z"/>
			</g>
		</g>
	</g>
	<g>
		<g>
			<g>
				<path class="st36" d="M177.2,84.8c0,3-0.5,5.8-1.5,8.4v0c-0.5,1.2-1,2.4-1.7,3.6c0,0,0,0,0,0c-3.9,6.7-11,11.4-19.2,11.8
					c-4.4-5.4-11.1-8.9-18.6-8.9c-0.5,0-1,0-1.4,0.1c-3.3-4.1-5.3-9.3-5.3-15c0-13.2,10.7-23.9,23.9-23.9
					C166.5,60.9,177.2,71.6,177.2,84.8z"/>
			</g>
		</g>
	</g>
	<g>
		<g>
			<g>
				<path class="st36" d="M149.9,130.7c0,3.7,0.9,7.3,2.4,10.4c-1.7,1.5-3.5,2.8-5.6,3.8c0,0,0,0,0,0c-2.6,0.3-5.2,1.1-7.5,2.3
					c0,0,0,0,0,0c-1,0.1-2.1,0.2-3.2,0.2c-7.8,0-14.7-3.7-19.1-9.5c-3.1-4-4.9-9-4.9-14.4c0-4.5,1.2-8.7,3.4-12.3
					c1.2-1.9,2.6-3.7,4.3-5.2c0.2-0.1,0.3-0.3,0.4-0.4c3.9-3.4,8.9-5.6,14.3-5.9c0.5,0,1-0.1,1.4-0.1c7.5,0,14.2,3.5,18.6,8.9
					c1.1,1.4,2.1,2.9,2.9,4.5C152.8,117.5,149.9,123.8,149.9,130.7z"/>
			</g>
		</g>
	</g>
	<g>
		<g>
			<g>
				<path class="st36" d="M197.7,130.7c0,2-0.2,3.9-0.7,5.7c-2.2,9.2-9.8,16.2-19.2,17.8c-1.3,0.2-2.7,0.4-4.1,0.4
					c-1.7,0-3.4-0.2-5-0.5c-3.4-4.4-8.3-7.6-14-8.8c-1-1.3-1.9-2.7-2.6-4.1c-1.5-3.1-2.4-6.7-2.4-10.4c0-6.9,3-13.2,7.7-17.6
					c4-3.6,9.2-6,14.9-6.3c0.4,0,0.9,0,1.3,0c12.6,0,23,9.8,23.8,22.1C197.7,129.5,197.7,130.1,197.7,130.7z"/>
			</g>
		</g>
	</g>
	<g>
		<g>
			<g>
				<path class="st36" d="M173.8,168.6c0,13.2-10.7,23.9-23.9,23.9c-8.7,0-16.3-4.6-20.5-11.5c-2.2-3.6-3.4-7.8-3.4-12.3
					c0-3.4,0.7-6.7,2-9.6c2.3-5.1,6.3-9.3,11.3-11.7c0,0,0,0,0,0c2.3-1.1,4.8-1.9,7.5-2.3c0,0,0,0,0,0c1-0.1,2.1-0.2,3.1-0.2
					c1.7,0,3.4,0.2,5,0.5c5.7,1.2,10.6,4.4,14,8.8C171.9,158.1,173.8,163.1,173.8,168.6z"/>
			</g>
		</g>
	</g>
	<g class="st38">
		<g>
			<g>
				<path class="st7" d="M93.8,173.3c-1.1,0-2-0.9-2-2c0-8.7,7.1-15.7,15.7-15.7c1.1,0,2,0.9,2,2c0,1.1-0.9,2-2,2
					c-6.4,0-11.7,5.2-11.7,11.7C95.8,172.4,94.9,173.3,93.8,173.3z"/>
			</g>
		</g>
	</g>
	<g class="st38">
		<g>
			<g>
				<path class="st7" d="M50,161.9c-1.1,0-2-0.9-2-2c0-8.7,7.1-15.7,15.7-15.7c1.1,0,2,0.9,2,2c0,1.1-0.9,2-2,2
					c-6.4,0-11.7,5.2-11.7,11.7C52,161,51.1,161.9,50,161.9z"/>
			</g>
		</g>
	</g>
	<g class="st38">
		<g>
			<g>
				<path class="st7" d="M14.3,148.2c-1.1,0-2-0.9-2-2c0-8.7,7.1-15.7,15.7-15.7c1.1,0,2,0.9,2,2c0,1.1-0.9,2-2,2
					c-6.4,0-11.7,5.2-11.7,11.7C16.3,147.3,15.4,148.2,14.3,148.2z"/>
			</g>
		</g>
	</g>
	<g class="st38">
		<g>
			<g>
				<path class="st7" d="M44.3,110.7c-1.1,0-2-0.9-2-2c0-8.7,7.1-15.7,15.7-15.7c1.1,0,2,0.9,2,2c0,1.1-0.9,2-2,2
					c-6.4,0-11.7,5.2-11.7,11.7C46.3,109.8,45.4,110.7,44.3,110.7z"/>
			</g>
		</g>
	</g>
	<g class="st38">
		<g>
			<g>
				<path class="st7" d="M82.8,127.7c-1.1,0-2-0.9-2-2c0-8.7,7.1-15.7,15.7-15.7c1.1,0,2,0.9,2,2c0,1.1-0.9,2-2,2
					c-6.4,0-11.7,5.2-11.7,11.7C84.8,126.8,83.9,127.7,82.8,127.7z"/>
			</g>
		</g>
	</g>
	<g class="st38">
		<g>
			<g>
				<path class="st7" d="M90.3,90.1c-1.1,0-2-0.9-2-2c0-8.7,7.1-15.7,15.7-15.7c1.1,0,2,0.9,2,2c0,1.1-0.9,2-2,2
					c-6.4,0-11.7,5.2-11.7,11.7C92.4,89.2,91.4,90.1,90.3,90.1z"/>
			</g>
		</g>
	</g>
	<g class="st38">
		<g>
			<g>
				<path class="st7" d="M139.5,86.8c-1.1,0-2-0.9-2-2c0-8.7,7.1-15.7,15.7-15.7c1.1,0,2,0.9,2,2c0,1.1-0.9,2-2,2
					c-6.4,0-11.7,5.2-11.7,11.7C141.6,85.9,140.6,86.8,139.5,86.8z"/>
			</g>
		</g>
	</g>
	<g class="st38">
		<g>
			<g>
				<path class="st7" d="M122.3,125.6c-1.1,0-2-0.9-2-2c0-8.7,7.1-15.7,15.7-15.7c1.1,0,2,0.9,2,2c0,1.1-0.9,2-2,2
					c-6.4,0-11.7,5.2-11.7,11.7C124.4,124.7,123.5,125.6,122.3,125.6z"/>
			</g>
		</g>
	</g>
	<g class="st38">
		<g>
			<g>
				<path class="st7" d="M160.1,132.7c-1.1,0-2-0.9-2-2c0-8.7,7.1-15.7,15.7-15.7c1.1,0,2,0.9,2,2c0,1.1-0.9,2-2,2
					c-6.4,0-11.7,5.2-11.7,11.7C162.1,131.8,161.2,132.7,160.1,132.7z"/>
			</g>
		</g>
	</g>
	<g class="st38">
		<g>
			<g>
				<path class="st7" d="M136.1,170.6c-1.1,0-2-0.9-2-2c0-8.7,7.1-15.7,15.7-15.7c1.1,0,2,0.9,2,2c0,1.1-0.9,2-2,2
					c-6.4,0-11.7,5.2-11.7,11.7C138.2,169.7,137.3,170.6,136.1,170.6z"/>
			</g>
		</g>
	</g>
	<g>
		<g>
			<g>
				<g>
					<path class="st1" d="M197.6,133c-2.1,0-3.8-1.6-4-3.7c-0.7-10.3-9.5-18.4-19.9-18.4c-0.3,0-0.7,0-1,0c-2.2,0.2-4.1-1.4-4.3-3.6
						c-0.1-0.6-0.1-1.3-0.1-2.1c0-3.4,0.6-6.6,1.8-9.7c0-0.1,0.1-0.2,0.1-0.2c0.5-1.3,1.1-2.6,1.8-3.9c0-0.1,0.1-0.1,0.1-0.2
						c5-8.6,14.2-13.9,24.1-13.9c0,0,0,0,0,0c7.5,0,14.5,2.9,19.7,8.2c5.3,5.3,8.2,12.3,8.2,19.7c0,0,0,0,0,0c0,2.6-0.3,5.1-1,7.5
						c-0.3,1.2-1.2,2.2-2.4,2.6c-5.7,2.3-10.2,7.2-11.8,13.1c-0.3,1.2-1.2,2.2-2.4,2.6c-2.8,1.1-5.8,1.8-8.8,1.9
						C197.7,133,197.7,133,197.6,133z M176.5,103c11.9,1.2,21.8,10,24.5,21.5c0.3-0.1,0.7-0.2,1-0.3c2.5-6.7,7.5-12.3,14-15.5
						c0.2-1.2,0.3-2.4,0.3-3.6c0-5.3-2.1-10.3-5.8-14c-3.8-3.8-8.8-5.8-14.1-5.8c0,0,0,0,0,0c-7,0-13.6,3.7-17.1,9.8
						c0,0.1-0.1,0.1-0.1,0.2c-0.5,0.9-1,1.9-1.4,2.9c0,0.1-0.1,0.1-0.1,0.2C177.1,99.8,176.7,101.4,176.5,103z M220.2,105.1
						L220.2,105.1L220.2,105.1z"/>
				</g>
			</g>
		</g>
		<g>
			<g>
				<g>
					<path class="st1" d="M228.2,161.6C228.2,161.6,228.2,161.6,228.2,161.6c-1.3,0-2.6-0.1-3.9-0.3c-1.8-0.3-3.2-1.7-3.4-3.5
						c-1-9.1-8-16.3-17-17.6c-1.8-0.3-3.2-1.7-3.4-3.5c-0.1-1-0.2-1.9-0.2-2.9c0-2.6,0.3-5.1,1-7.5c2.3-8.3,8.5-15.2,16.6-18.4
						c3.2-1.3,6.7-2,10.3-2c7.5,0,14.5,2.9,19.7,8.2c5.3,5.3,8.2,12.3,8.2,19.7C256.1,149.1,243.6,161.6,228.2,161.6z M208.3,133
						c10,2.6,17.7,10.6,20,20.7c10.9,0,19.8-8.9,19.8-19.9l4,0l-4,0c0-5.3-2.1-10.3-5.8-14c-3.8-3.8-8.8-5.8-14.1-5.8
						c-2.6,0-5,0.5-7.3,1.4c-5.8,2.3-10.2,7.2-11.8,13.1C208.6,129.9,208.3,131.4,208.3,133z"/>
				</g>
			</g>
		</g>
		<g>
			<g>
				<g>
					<path class="st1" d="M201.1,187.8C201.1,187.8,201.1,187.8,201.1,187.8c-7.5,0-14.5-2.9-19.7-8.2c-5.3-5.3-8.2-12.3-8.2-19.7
						c0-2.2,0.3-4.5,0.8-6.6c0.4-1.5,1.6-2.7,3.2-3c7.8-1.3,14.1-7.2,16-14.8c0.4-1.5,1.6-2.7,3.2-3c1.6-0.3,3.2-0.4,4.8-0.4
						c1.3,0,2.6,0.1,3.9,0.3c12.7,1.8,22.5,11.9,23.9,24.7c0.1,1,0.2,1.9,0.2,2.9c0,0,0,0,0,0C229,175.3,216.5,187.8,201.1,187.8z
						 M181.3,157.5c-0.1,0.8-0.1,1.6-0.1,2.4c0,5.3,2.1,10.3,5.8,14c3.8,3.8,8.8,5.8,14.1,5.8c11,0,19.9-8.9,19.9-19.9
						c0-0.7,0-1.4-0.1-2.1c-1-9.1-8-16.3-17-17.6c-0.9-0.1-1.8-0.2-2.8-0.2c0,0,0,0,0,0c-0.3,0-0.7,0-1,0
						C197,148.6,190,155.1,181.3,157.5z M225,159.9L225,159.9L225,159.9z"/>
				</g>
			</g>
		</g>
		<g>
			<g>
				<g>
					<path class="st1" d="M107.5,199.2C107.5,199.2,107.5,199.2,107.5,199.2c-14.5,0-26.8-11.3-27.8-25.8c0,0,0,0,0,0
						c-0.1-0.7-0.1-1.4-0.1-2c0-5.4,1.6-10.7,4.5-15.2c0-0.1,0.1-0.1,0.1-0.2c2.9-4.4,7-7.9,11.9-10c0.5-0.2,0.9-0.3,1.4-0.3
						c2.5-0.1,4.9-0.7,7.1-1.7c0.4-0.2,0.9-0.3,1.3-0.3c0.5,0,1-0.1,1.5-0.1c9.9,0,18.8,5,23.9,13.5c0.7,1.1,0.8,2.5,0.2,3.7
						c-1.1,2.5-1.7,5.2-1.7,8c0,3.6,1,7.2,2.9,10.3c0.7,1.1,0.8,2.5,0.2,3.7C128.6,192.6,118.5,199.2,107.5,199.2z M87.6,172.8
						c0.8,10.3,9.5,18.3,19.8,18.3c7.2,0,13.9-3.9,17.4-10.1c-1.9-3.8-2.9-8.1-2.9-12.4c0-3.1,0.5-6.2,1.5-9.2
						c-3.8-5.1-9.8-8.1-16.3-8c-2.7,1.1-5.5,1.8-8.5,2c-3.1,1.5-5.8,3.8-7.7,6.7c0,0.1-0.1,0.1-0.1,0.2c-2.2,3.2-3.3,7-3.3,11
						c0,0.5,0,1,0.1,1.5C87.6,172.8,87.6,172.8,87.6,172.8z"/>
				</g>
			</g>
		</g>
		<g>
			<g>
				<g>
					<path class="st1" d="M63.7,187.8C63.7,187.8,63.7,187.8,63.7,187.8c-12.4,0-23.5-8.3-26.9-20.2c-0.7-2.5-1.1-5.1-1.1-7.6
						c0-9.6,4.9-18.5,13.1-23.6c4.4-2.8,9.6-4.3,14.8-4.3c0,0,0,0,0,0c6,0,11.8,1.9,16.6,5.5c0,0,0.1,0,0.1,0.1
						c1.8,1.4,3.5,2.9,4.9,4.7c0,0,0,0.1,0.1,0.1c3.6,4.5,5.7,9.8,6.1,15.5c0,0.1,0,0.2,0,0.3c0,0.8-0.2,1.6-0.7,2.2
						c-2.2,3.2-3.3,7-3.3,11c0,0.5,0,1,0.1,1.5c0,0.1,0,0.2,0,0.3c0,0.8-0.2,1.6-0.7,2.2C81.8,183.1,73.1,187.8,63.7,187.8z
						 M63.7,140c-3.8,0-7.4,1.1-10.6,3c-5.9,3.7-9.3,10-9.3,16.8c0,1.8,0.3,3.7,0.8,5.4c2.4,8.5,10.3,14.4,19.2,14.4
						c6.3,0,12.1-2.9,15.9-7.9c0-0.2,0-0.4,0-0.6c0-5,1.3-9.9,3.9-14.1c-0.5-3.6-1.9-6.9-4.2-9.7c0,0,0,0,0-0.1l0,0
						c-1-1.3-2.3-2.4-3.6-3.4l0,0c0,0-0.1,0-0.1-0.1C72.1,141.3,68,140,63.7,140C63.7,140,63.7,140,63.7,140z M87.6,158.1
						L87.6,158.1L87.6,158.1z"/>
				</g>
			</g>
		</g>
		<g>
			<g>
				<g>
					<path class="st1" d="M28,174.1C28,174.1,28,174.1,28,174.1c-7.5,0-14.5-2.9-19.7-8.2c-5.3-5.3-8.2-12.3-8.2-19.7
						c0-15.4,12.5-27.9,27.9-27.9c0,0,0,0,0,0c12.4,0,23.5,8.3,26.8,20.3c0.5,1.7-0.2,3.5-1.7,4.5c-5.8,3.7-9.3,9.9-9.3,16.8
						c0,1.8,0.3,3.7,0.8,5.4c0.5,1.7-0.2,3.5-1.7,4.5C38.4,172.6,33.3,174.1,28,174.1z M28,126.3c-11,0-19.9,8.9-19.9,19.9
						c0,5.3,2.1,10.3,5.8,14.1c3.8,3.8,8.8,5.8,14.1,5.8c0,0,0,0,0,0c2.8,0,5.6-0.6,8.1-1.7c-0.2-1.5-0.4-3-0.4-4.4l0,0
						c0-8.6,3.8-16.5,10.4-21.7C43.1,131.1,35.9,126.3,28,126.3z"/>
				</g>
			</g>
		</g>
		<g>
			<g>
				<g>
					<path class="st1" d="M58,136.5c-15.4,0-27.9-12.5-27.9-27.9c0-15.4,12.5-27.9,27.9-27.9c0,0,0,0,0,0
						c14.5,0,26.7,11.3,27.8,25.7c0.1,1.3-0.5,2.6-1.5,3.5c-4.9,3.8-7.7,9.5-7.7,15.7c0,0.5,0,1,0.1,1.5c0.1,1.4-0.5,2.7-1.5,3.5
						C70.2,134.5,64.3,136.5,58,136.5z M58,88.8c-11,0-19.9,8.9-19.9,19.9c0,11,8.9,19.9,19.9,19.9c3.8,0,7.4-1,10.6-3
						c0.1-7.8,3.3-15.1,9-20.3C76,95.8,67.7,88.8,58,88.8z"/>
				</g>
			</g>
		</g>
		<g>
			<g>
				<g>
					<path class="st1" d="M96.5,153.5c-6,0-11.8-1.9-16.6-5.5l0,0c-0.3-0.2-0.5-0.4-0.7-0.7l0,0c-1-1.3-2.3-2.4-3.6-3.4l0,0
						c-0.3-0.2-0.5-0.4-0.7-0.7l0,0c-3.6-4.4-5.7-9.8-6.2-15.5c-0.1-0.6-0.1-1.3-0.1-2.1c0-8.7,3.9-16.7,10.8-22
						c1.6-1.2,3.3-2.3,5.2-3.2c3.7-1.8,7.7-2.7,11.9-2.7c0,0,0,0,0,0c7.9,0,15.5,3.4,20.7,9.2c0.5,0.5,1,1.2,1.5,1.9
						c1,1.3,1.1,3.1,0.2,4.5c-1.9,3.1-2.8,6.6-2.8,10.2c0,4.4,1.4,8.5,4,12c1,1.3,1.1,3.1,0.2,4.5c-3,4.9-7.3,8.8-12.5,11.1
						c-3.1,1.4-6.5,2.2-10,2.4C97.5,153.5,97,153.5,96.5,153.5z M85,141.9c3.4,2.4,7.3,3.6,11.5,3.6c0.3,0,0.7,0,1,0
						c2.5-0.1,4.9-0.7,7.1-1.7c3-1.3,5.5-3.3,7.5-5.9c-2.6-4.3-4-9.2-4-14.4c0-4.1,0.9-8.1,2.6-11.8c-3.7-3.8-8.9-6-14.2-6
						c0,0,0,0,0,0c-3,0-5.9,0.6-8.5,1.9c-1.3,0.6-2.5,1.4-3.7,2.2c-4.9,3.8-7.7,9.5-7.7,15.7c0,0.5,0,1,0.1,1.5
						c0.3,4,1.7,7.6,4.1,10.7C82.3,139,83.8,140.4,85,141.9z"/>
				</g>
			</g>
		</g>
		<g>
			<g>
				<g>
					<path class="st1" d="M114.3,113.7c-1.1,0-2.2-0.5-3-1.3c-3.8-4.2-9.2-6.6-14.8-6.6c-3,0-5.8,0.6-8.5,1.9
						c-1.6,0.8-3.5,0.4-4.7-0.9c-4.6-5.1-7.2-11.8-7.2-18.7c0-15.4,12.5-27.9,27.9-27.9c0,0,0,0,0,0c7.5,0,14.5,2.9,19.7,8.2
						c5.3,5.3,8.2,12.3,8.2,19.7l0,0l0,0c0,7.7-3.2,15.2-8.9,20.4c-0.2,0.2-0.3,0.3-0.5,0.5c-2,1.8-4.2,3.2-6.5,4.3
						C115.4,113.6,114.9,113.7,114.3,113.7z M96.5,97.8c6.8,0,13.4,2.5,18.4,6.9c0.8-0.5,1.5-1.1,2.2-1.7c0.1-0.1,0.2-0.2,0.3-0.2
						c0,0,0.1-0.1,0.1-0.1c4.1-3.7,6.4-9.1,6.4-14.6l0,0c0-5.3-2.1-10.3-5.8-14c-3.8-3.8-8.8-5.8-14.1-5.8c-11,0-19.9,8.9-19.9,19.9
						c0,4,1.2,7.9,3.4,11.2C90.4,98.3,93.4,97.8,96.5,97.8z"/>
				</g>
			</g>
		</g>
		<g>
			<g>
				<g>
					<path class="st1" d="M154.7,112.6c-1.2,0-2.4-0.5-3.1-1.5c-3.8-4.7-9.5-7.4-15.5-7.4c-0.4,0-0.8,0-1.2,0
						c-1.3,0.1-2.6-0.5-3.4-1.5c-4-4.9-6.2-11.1-6.2-17.5c0-15.4,12.5-27.9,27.9-27.9c0,0,0,0,0,0c7.5,0,14.5,2.9,19.7,8.2
						c5.3,5.3,8.2,12.3,8.2,19.7v0c0,0,0,0,0,0c0,3.3-0.6,6.6-1.7,9.7c0,0,0,0.1,0,0.1c-0.5,1.4-1.2,2.9-2,4.2c0,0-0.1,0.1-0.1,0.1
						c-4.7,8-13.1,13.1-22.4,13.7C154.8,112.6,154.8,112.6,154.7,112.6z M136.6,95.7c7.5,0.1,14.6,3.3,19.7,8.7
						c5.9-0.9,11.1-4.4,14.1-9.7h0c0,0,0.1-0.1,0.1-0.1c0.5-0.9,0.9-1.8,1.3-2.7c0-0.1,0-0.1,0.1-0.2c0.8-2.2,1.3-4.5,1.3-7
						c0,0,0,0,0,0c0-5.3-2.1-10.3-5.8-14c-3.8-3.8-8.8-5.8-14.1-5.8c-11,0-19.9,8.9-19.9,19.9C133.3,88.7,134.5,92.5,136.6,95.7z
						 M175.6,93.2L175.6,93.2L175.6,93.2z"/>
				</g>
			</g>
		</g>
		<g>
			<g>
				<g>
					<path class="st1" d="M136.1,151.4c-8.8,0-16.9-4-22.2-11c-3.7-4.8-5.7-10.7-5.7-16.8c0-5.1,1.4-10.1,4-14.4
						c1.4-2.3,3-4.3,5-6.1c0,0,0.1-0.1,0.1-0.1c0.1-0.1,0.2-0.1,0.2-0.2c0.1-0.1,0.1-0.1,0.2-0.2c4.6-4.1,10.6-6.5,16.7-6.9
						c0.5,0,1.1-0.1,1.7-0.1c8.5,0,16.4,3.8,21.7,10.4c1.3,1.6,2.5,3.4,3.4,5.3c0.8,1.6,0.4,3.5-0.9,4.7c-4.1,3.8-6.4,9.1-6.4,14.6
						c0,3,0.7,6,2,8.7c0.8,1.6,0.4,3.5-0.9,4.7c-2,1.8-4.2,3.3-6.5,4.5c0,0,0,0,0,0c-0.4,0.2-0.8,0.3-1.2,0.4
						c-2.2,0.3-4.2,0.9-6.2,1.9c-0.4,0.2-0.9,0.3-1.3,0.4C138.5,151.3,137.3,151.4,136.1,151.4z M123,108.6
						c-0.2,0.1-0.3,0.3-0.5,0.4c-1.4,1.3-2.6,2.7-3.5,4.3c-1.9,3.1-2.9,6.6-2.9,10.2c0,4.4,1.4,8.5,4,12c3.8,5,9.6,7.9,15.9,7.9
						c0.7,0,1.4,0,2-0.1c2.3-1.1,4.8-1.8,7.4-2.2c0.7-0.4,1.3-0.7,1.9-1.2c-1-2.9-1.6-6-1.6-9.2c0,0,0,0,0,0
						c0-6.7,2.4-13.2,6.8-18.2c-0.3-0.5-0.7-0.9-1-1.4c-3.8-4.7-9.5-7.4-15.5-7.4c-0.4,0-0.8,0-1.2,0
						C130.4,104,126.3,105.7,123,108.6z"/>
				</g>
			</g>
		</g>
		<g>
			<g>
				<g>
					<path class="st1" d="M173.8,158.6C173.8,158.6,173.8,158.6,173.8,158.6c-1.9,0-3.9-0.2-5.8-0.6c-0.9-0.2-1.8-0.7-2.4-1.5
						c-2.9-3.8-7-6.4-11.6-7.3c-0.9-0.2-1.7-0.7-2.3-1.5c-1.2-1.5-2.2-3.1-3-4.8c-1.9-3.8-2.8-7.9-2.8-12.2c0-7.8,3.3-15.2,9-20.5
						c4.8-4.4,10.9-7,17.3-7.3c0.5,0,1-0.1,1.6-0.1c14.6,0,26.8,11.4,27.8,25.9c0.1,0.6,0.1,1.2,0.1,2c0,2.2-0.3,4.5-0.8,6.6
						c-2.6,10.8-11.4,19-22.4,20.8C177,158.4,175.4,158.6,173.8,158.6z M171,150.4c0.9,0.1,1.9,0.2,2.8,0.2c0,0,0,0,0,0
						c1.1,0,2.3-0.1,3.4-0.3c7.8-1.3,14.1-7.2,16-14.9c0.4-1.5,0.6-3.1,0.6-4.7c0-0.5,0-1-0.1-1.4c-0.7-10.4-9.5-18.5-19.9-18.5
						c-0.3,0-0.7,0-1,0c0,0-0.1,0-0.1,0c-4.6,0.2-9,2.1-12.4,5.2c-4.1,3.8-6.4,9.1-6.4,14.6c0,3,0.7,6,2,8.7
						c0.4,0.8,0.8,1.6,1.3,2.3C162.5,143.2,167.3,146.2,171,150.4z"/>
				</g>
			</g>
		</g>
		<g>
			<g>
				<g>
					<path class="st1" d="M149.9,196.5C149.9,196.5,149.9,196.5,149.9,196.5c-9.9,0-18.8-5-23.9-13.5c-2.6-4.3-4-9.3-4-14.4
						c0-3.9,0.8-7.7,2.4-11.3c2.6-5.9,7.3-10.8,13.1-13.7c0.1,0,0.1-0.1,0.2-0.1c2.6-1.3,5.4-2.1,8.4-2.6c0.1,0,0.1,0,0.2,0v0
						c3.1-0.4,6.3-0.3,9.5,0.4c6.5,1.4,12.3,5,16.3,10.3c3.8,4.9,5.8,10.8,5.8,17c0,0,0,0,0,0C177.8,184,165.2,196.5,149.9,196.5z
						 M140.9,150.9c-4.1,2.1-7.4,5.5-9.2,9.7c-1.1,2.5-1.7,5.2-1.7,8c0,3.6,1,7.2,2.9,10.3c3.6,6,10,9.6,17.1,9.6
						c11,0,19.9-8.9,19.9-19.9c0-4.4-1.4-8.6-4.1-12.1c-2.9-3.8-7-6.4-11.6-7.3c-2.2-0.5-4.5-0.5-6.6-0.3c-0.1,0-0.1,0-0.2,0
						c-2.2,0.3-4.2,0.9-6.2,1.9C141,150.8,140.9,150.8,140.9,150.9z M173.8,168.6L173.8,168.6L173.8,168.6z"/>
				</g>
			</g>
		</g>
	</g>
</g>
</svg>
