<?xml version="1.0" encoding="utf-8"?>
<!-- Generator: Adobe Illustrator 22.1.0, SVG Export Plug-In . SVG Version: 6.00 Build 0)  -->
<svg version="1.1" id="Layer_1" xmlns="http://www.w3.org/2000/svg" xmlns:xlink="http://www.w3.org/1999/xlink" x="0px" y="0px"
	 viewBox="0 0 256 256" style="enable-background:new 0 0 256 256;" xml:space="preserve">
<style type="text/css">
	.st0{fill:#F5B31F;}
	.st1{fill:#464646;}
	.st2{opacity:0.15;}
	.st3{fill:#AC6535;}
	.st4{fill:#EB573B;}
	.st5{fill:#90C056;}
	.st6{opacity:0.35;}
	.st7{fill:#FFFFFF;}
	.st8{opacity:0.2;}
	.st9{fill:#F6D67A;}
	.st10{opacity:0.3;}
	.st11{fill:#FFA755;}
	.st12{fill:#8FAE3C;}
	.st13{fill:#BE6BB2;}
	.st14{fill:#B7C536;}
	.st15{opacity:0.1;}
	.st16{fill:#9D5A96;}
	.st17{fill:#EA615D;}
	.st18{opacity:0.4;}
	.st19{fill:#F79932;}
	.st20{fill:#FFEC97;}
	.st21{fill:#FFD11D;}
	.st22{fill:#F7F2D5;}
	.st23{fill:#F6AF72;}
	.st24{fill:#BA6C45;}
	.st25{opacity:0.5;}
	.st26{fill:#E4C074;}
	.st27{fill:#656566;}
	.st28{fill:#FACD1F;}
	.st29{fill:#FFDF66;}
	.st30{fill:#6D6E71;}
	.st31{fill:#E77CAE;}
	.st32{fill:#FFE5C4;}
	.st33{fill:#F68455;}
	.st34{opacity:0.7;}
	.st35{fill:#ADEDFF;}
	.st36{fill:#EC754B;}
	.st37{fill:#4AA5BA;}
	.st38{opacity:0.8;}
	.st39{fill:#92A5AC;}
	.st40{fill:#D06E3C;}
	.st41{fill:#DA4F4B;}
	.st42{fill:#BDF3FF;}
	.st43{fill:#F18BB4;}
	.st44{fill:#F9D97A;}
	.st45{fill:none;}
	.st46{fill:#AF6535;}
	.st47{fill:#B93226;}
	.st48{fill:#FF6050;}
	.st49{fill:#EA7CB1;}
	.st50{fill:#00B0E0;}
	.st51{fill:#EA7DAE;}
	.st52{fill:#BC7532;}
	.st53{fill:#876C6C;}
	.st54{fill:#F9F6CD;}
	.st55{fill:#FFE37B;}
	.st56{fill:#1DDCFF;}
	.st57{fill:#60ACF7;}
	.st58{fill:#C3755A;}
	.st59{fill:#96557A;}
	.st60{fill:#66625D;}
	.st61{fill:#D68032;}
	.st62{fill:#F2A355;}
	.st63{fill:#7E9E6A;}
	.st64{fill:#965A85;}
	.st65{fill:#90CAD3;}
	.st66{fill:#94B57F;}
	.st67{fill:#B2E2E7;}
	.st68{fill:#FFDF8F;}
	.st69{fill:#FFFAEB;}
	.st70{fill:#F88916;}
	.st71{fill:#FFC86E;}
	.st72{fill:#AFA51D;}
	.st73{fill:#968A1C;}
	.st74{fill:#C3556D;}
</style>
<g>
	<g>
		<g>
			<path class="st26" d="M198.6,4.9c-23.1-5-72,9.6-90.1,20.1S85.9,57.7,66.1,66.6s-51.7,40.7-55.9,74.3s9.7,71.2,20.9,82.3
				c42.3,38.9,130.9,38.9,158.6-3.9s36-87.1,52-114.6s-0.6-58.7-10-72.3S221.7,10,198.6,4.9z"/>
		</g>
	</g>
	<g class="st15">
		<g>
			<path d="M170.5,23.7c0,0,1-3.3,3.2-4.3c8.5-3,47.4,4.1,62.1,18.2l-1.8,5.8C216.1,30.3,195.1,23.6,170.5,23.7z"/>
		</g>
	</g>
	<g class="st15">
		<g>
			<path d="M203,104.1c9.9,10.7,16.4,23.1,18.6,37.6l-2.5,7.6c-4.1-16.9-12.3-32.7-24.6-47.4C197.8,102.4,201.4,102.8,203,104.1z"/>
		</g>
	</g>
	<g class="st15">
		<g>
			<path d="M159.2,142.6c18.3,0,30.7,18.6,25.5,29.6l-3.8,1.4c2.1-16.5-10.2-23.9-27.7-28C153.1,145.6,155.3,142.6,159.2,142.6z"/>
		</g>
	</g>
	<g class="st15">
		<g>
			<path d="M57,118c5-3.8,28.1-11.2,44.1-0.7c1.2,0.6,0.3,3.9-0.8,5.2c-16.2-6.9-28.1-5.5-47,0.4C53.4,122.8,53.6,120.3,57,118z"/>
		</g>
	</g>
	<g class="st15">
		<g>
			<path d="M44.6,83.3c19.4-9.4,34.9-9.2,50.8,1.3c1.2,0.6,0.3,3.9-0.8,5.2c-16.2-6.9-34.6-7-53.5-1.1L44.6,83.3z"/>
		</g>
	</g>
	<g class="st15">
		<g>
			<path d="M197.7,4.9c23.1,5,23.6,13.9,33,27.4s26,44.8,10,72.3s-24.3,71.8-52,114.6s-116.3,42.8-158.6,3.9
				C19,212.1,5.1,174.5,9.3,140.9c13.4,34,58.5,132.5,143.5,50.3C237,109.6,208.5,27.1,197.7,4.9z"/>
		</g>
	</g>
	<g>
		<g>
			<path class="st1" d="M112.5,255.9c-32.5,0-64.5-11-85-29.8c0,0-0.1-0.1-0.1-0.1c-11.9-11.8-26.4-51-22-85.6
				c4.4-35,37.2-68,58.3-77.4c9.6-4.3,15.3-12.1,21.4-20.4c5.6-7.7,11.5-15.7,20.7-21c18-10.4,68.4-26,93-20.6l0,0
				c20.2,4.4,24.9,12.1,30.8,21.8c1.4,2.3,2.8,4.7,4.6,7.2c4.1,5.9,11.4,17.8,15.1,32.2c4.2,16.5,2.6,31.4-4.9,44.4
				c-6.4,11-11.5,24.7-17.4,40.6c-8.5,22.8-18.1,48.6-34.6,74.2c-11.6,17.9-33.5,29.7-61.8,33.3
				C124.4,255.5,118.4,255.9,112.5,255.9z M32.9,220.3c22.6,20.7,60.4,31.2,96.4,26.6c25.9-3.3,45.9-13.9,56.1-29.8
				c16.1-24.8,25.5-50.2,33.9-72.6c5.8-15.5,11.3-30.2,18-41.8c5.1-8.8,14.4-33.1-9.8-68c-1.9-2.7-3.5-5.3-4.9-7.6
				c-5.5-9-8.8-14.5-25.7-18.2l0,0c-21-4.6-68.5,8.8-87.3,19.7C101.9,33,96.8,40,91.4,47.3c-6.4,8.8-13,17.8-24.5,23
				c-19.8,8.9-49.7,40.2-53.6,71.1C10.6,162.4,17.1,204.6,32.9,220.3z"/>
		</g>
	</g>
	<g>
		<g>
			<path class="st1" d="M26.2,105.3c-1.2,0-2.3-0.5-3.1-1.5c-1.4-1.7-1.1-4.2,0.6-5.6C47.1,79,70.4,75.2,92.8,87
				c2,1,2.7,3.4,1.7,5.4c-1,2-3.4,2.7-5.4,1.7c-19.6-10.3-39.3-6.9-60.4,10.3C28,105,27.1,105.3,26.2,105.3z"/>
		</g>
	</g>
	<g>
		<g>
			<path class="st1" d="M216.2,168c-0.3,0-0.6,0-0.8-0.1c-2.2-0.5-3.5-2.6-3.1-4.8c4-18.5-3-37.5-20.8-56.4
				c-1.5-1.6-1.4-4.1,0.2-5.7c1.6-1.5,4.1-1.4,5.7,0.2c19.7,20.9,27.4,42.3,22.8,63.6C219.7,166.7,218,168,216.2,168z"/>
		</g>
	</g>
	<g>
		<g>
			<path class="st1" d="M244.4,64c-1.4,0-2.8-0.8-3.5-2.1c-11.4-21.6-33.7-31.8-68.2-31.2c0,0,0,0-0.1,0c-2.2,0-4-1.7-4-3.9
				c0-2.2,1.7-4,3.9-4.1c37.3-0.7,62.6,11.2,75.4,35.4c1,2,0.3,4.4-1.7,5.4C245.6,63.9,245,64,244.4,64z"/>
		</g>
	</g>
	<g>
		<g>
			<path class="st1" d="M55.2,129.8c-1.6,0-3.1-0.9-3.7-2.5c-0.8-2,0.1-4.4,2.2-5.2c17.3-7.2,32.6-8.1,46.5-3
				c2.1,0.8,3.1,3.1,2.4,5.1s-3.1,3.1-5.1,2.4c-12-4.4-25.3-3.5-40.7,2.9C56.2,129.7,55.7,129.8,55.2,129.8z"/>
		</g>
	</g>
	<g>
		<g>
			<path class="st1" d="M179.7,178.9c-0.2,0-0.5,0-0.7-0.1c-2.2-0.4-3.6-2.5-3.2-4.6c0.9-5.3,0.3-9.4-2-12.5
				c-3.2-4.3-10-7.2-20.1-8.5c-2.2-0.3-3.7-2.3-3.5-4.5c0.3-2.2,2.3-3.8,4.5-3.5c12.6,1.6,20.9,5.4,25.5,11.6
				c3.6,4.9,4.8,11.2,3.5,18.6C183.3,177.6,181.6,178.9,179.7,178.9z"/>
		</g>
	</g>
	<g>
		<g>
			<path class="st1" d="M84.9,136.1c-1.1,0-2.1-0.4-2.9-1.3c-1.8-1.9-3.5-2.9-5.1-2.9c-1.6-0.1-3.5,1-5.6,3c-1.6,1.6-4.1,1.6-5.7,0
				c-1.6-1.6-1.6-4.1,0-5.7c3.6-3.6,7.5-5.5,11.3-5.4c3.8,0.1,7.4,1.9,10.8,5.5c1.5,1.6,1.4,4.1-0.2,5.7
				C86.9,135.7,85.9,136.1,84.9,136.1z"/>
		</g>
	</g>
	<g>
		<g>
			<path class="st1" d="M172.6,173.5c-0.1,0-0.2,0-0.4,0c-6.9-0.6-11.8-4.5-14.3-11.3c-0.8-2.1,0.3-4.4,2.4-5.1
				c2.1-0.8,4.4,0.3,5.1,2.4c1.4,3.9,3.7,5.7,7.5,6.1c2.2,0.2,3.8,2.1,3.6,4.3C176.4,171.9,174.6,173.5,172.6,173.5z"/>
		</g>
	</g>
	<g>
		<g>
			<path class="st1" d="M191.6,83.9c-1.5,0-2.9-0.8-3.6-2.2c-4.7-9.6-14-16.6-27.5-20.9c-2.1-0.7-3.3-2.9-2.6-5
				c0.7-2.1,2.9-3.3,5-2.6c15.7,5,26.6,13.4,32.3,25c1,2,0.2,4.4-1.8,5.4C192.8,83.8,192.2,83.9,191.6,83.9z"/>
		</g>
	</g>
	<g>
		<g>
			<path class="st1" d="M191.6,71c-1.8,0-3.4-1.2-3.9-3c-1.1-4.1-4-7.1-9-9c-2.1-0.8-3.1-3.1-2.3-5.2c0.8-2.1,3.1-3.1,5.2-2.3
				c7.4,2.9,12.1,7.8,13.8,14.5c0.6,2.1-0.7,4.3-2.9,4.9C192.3,71,191.9,71,191.6,71z"/>
		</g>
	</g>
	<g>
		<g>
			<path class="st1" d="M127.4,64.8c-4.6,0-9.3-1.9-12.1-5.2c-2.9-3.5-3.2-7.9-0.7-11.8h0c2.4-3.8,6.6-6.4,11.6-7.4
				c3.9-0.7,9.1-0.6,12,1.5c2.9,2.1,3.8,6.8,3.3,10.5c-0.6,5.3-3.7,9.4-8.4,11.3C131.4,64.5,129.4,64.8,127.4,64.8z M121.4,52.1
				c-0.6,1-0.6,1.6,0.1,2.4c1.6,1.9,5.6,3.1,8.7,1.8c1.6-0.6,2.6-1.8,3.2-3.5c0.6-1.9,0.3-3.7,0-4.4
				C131.3,47.7,124.3,47.7,121.4,52.1L121.4,52.1z M133.3,48.1L133.3,48.1C133.3,48.1,133.3,48.1,133.3,48.1z"/>
		</g>
	</g>
	<g>
		<g>
			<path class="st1" d="M46.6,205.1c-4.3,0-7.9-2.2-10.1-6.3c-3.2-5.9-2.7-14.1,1.2-17.9c3.8-3.8,10.7-4.2,15.5-3.3
				c5.9,1.1,10.4,4.1,12.3,8.3c2,4.3,1.2,7.7,0.1,9.7c-2.2,4.4-7.6,7.5-16.4,9.3C48.3,205,47.5,205.1,46.6,205.1z M48.8,185.2
				c-2.7,0-4.8,0.7-5.5,1.4c-1,1-1.4,5.4,0.2,8.5c1.2,2.3,2.8,2.3,4.1,2c8.6-1.8,10.5-4.3,10.9-5.1c0.1-0.3,0.5-1-0.3-2.8
				c-0.8-1.7-3.3-3.2-6.5-3.7C50.7,185.3,49.7,185.2,48.8,185.2z"/>
		</g>
	</g>
	<g>
		<g>
			<path class="st1" d="M108,238.9c-1.3,0-2.6-0.7-3.4-1.9c-3.7-5.9-8.7-7.6-16.7-5.8c-2.2,0.5-4.3-0.8-4.8-3
				c-0.5-2.2,0.8-4.3,3-4.8c11.2-2.6,19.7,0.5,25.3,9.3c1.2,1.9,0.6,4.3-1.2,5.5C109.5,238.7,108.7,238.9,108,238.9z"/>
		</g>
	</g>
	<g>
		<g>
			<path class="st1" d="M141.4,228.5c-2,0-3.9-0.5-5.6-1.4c-3.7-2.1-6.2-7.5-5.6-12.2c0.5-3.8,2.9-6.7,6.5-7.7c3.6-1,7.1-0.3,10,1.8
				c3.2,2.4,5.1,6.4,5.1,10.4c0,3.1-1.6,5.9-4.5,7.5C145.6,228,143.5,228.5,141.4,228.5z M139.9,214.7c-0.3,0-0.7,0.1-1.1,0.2
				c-0.4,0.1-0.7,0.2-0.7,1c-0.2,1.8,1,3.9,1.6,4.3c1,0.5,2.6,0.5,3.6-0.1c0.5-0.3,0.5-0.5,0.5-0.6c0-1.5-0.8-3.1-2-4
				C141.3,214.9,140.6,214.7,139.9,214.7z"/>
		</g>
	</g>
	<g>
		<g>
			<path class="st1" d="M8.6,155.8c-1.8,0-3.5-1.3-3.9-3.2c-0.5-2.2,0.9-4.3,3.1-4.7c4-0.9,9.1-2.9,10.3-7.6
				c1.1-4.4-1.4-10.1-6.5-14.4c-1.7-1.4-1.9-4-0.4-5.6c1.4-1.7,4-1.9,5.6-0.4c7.5,6.4,10.9,15,9,22.5c-1,3.9-4.5,10.9-16.4,13.5
				C9.1,155.8,8.8,155.8,8.6,155.8z"/>
		</g>
	</g>
	<g>
		<g>
			<path class="st1" d="M239.8,105.5c-5.5,0-11.1-2.1-12.3-8.4c-1.5-7.6,5.4-17.9,19-21.1c2.2-0.5,4.3,0.8,4.8,3
				c0.5,2.1-0.8,4.3-3,4.8c-9.6,2.3-13.6,8.9-13,11.8c0.4,2,3.7,2.2,6.6,1.7c2.2-0.3,4.2,1.2,4.6,3.3s-1.2,4.2-3.3,4.6
				C242,105.4,240.9,105.5,239.8,105.5z"/>
		</g>
	</g>
</g>
</svg>
