<?xml version="1.0" encoding="utf-8"?>
<!-- Generator: Adobe Illustrator 22.1.0, SVG Export Plug-In . SVG Version: 6.00 Build 0)  -->
<svg version="1.1" id="Layer_1" xmlns="http://www.w3.org/2000/svg" xmlns:xlink="http://www.w3.org/1999/xlink" x="0px" y="0px"
	 viewBox="0 0 256 256" style="enable-background:new 0 0 256 256;" xml:space="preserve">
<style type="text/css">
	.st0{fill:#F5B31F;}
	.st1{fill:#464646;}
	.st2{opacity:0.15;}
	.st3{fill:#AC6535;}
	.st4{fill:#EB573B;}
	.st5{fill:#90C056;}
	.st6{opacity:0.35;}
	.st7{fill:#FFFFFF;}
	.st8{opacity:0.2;}
	.st9{fill:#F6D67A;}
	.st10{opacity:0.3;}
	.st11{fill:#FFA755;}
	.st12{fill:#8FAE3C;}
	.st13{fill:#BE6BB2;}
	.st14{fill:#B7C536;}
	.st15{opacity:0.1;}
	.st16{fill:#9D5A96;}
	.st17{fill:#EA615D;}
	.st18{opacity:0.4;}
	.st19{fill:#F79932;}
	.st20{fill:#FFEC97;}
	.st21{fill:#FFD11D;}
	.st22{fill:#F7F2D5;}
	.st23{fill:#F6AF72;}
	.st24{fill:#BA6C45;}
	.st25{opacity:0.5;}
	.st26{fill:#E4C074;}
	.st27{fill:#656566;}
	.st28{fill:#FACD1F;}
	.st29{fill:#FFDF66;}
	.st30{fill:#6D6E71;}
	.st31{fill:#E77CAE;}
	.st32{fill:#FFE5C4;}
	.st33{fill:#F68455;}
	.st34{opacity:0.7;}
	.st35{fill:#ADEDFF;}
	.st36{fill:#EC754B;}
	.st37{fill:#4AA5BA;}
	.st38{opacity:0.8;}
	.st39{fill:#92A5AC;}
	.st40{fill:#D06E3C;}
	.st41{fill:#DA4F4B;}
	.st42{fill:#BDF3FF;}
	.st43{fill:#F18BB4;}
	.st44{fill:#F9D97A;}
	.st45{fill:none;}
	.st46{fill:#AF6535;}
	.st47{fill:#B93226;}
	.st48{fill:#FF6050;}
	.st49{fill:#EA7CB1;}
	.st50{fill:#00B0E0;}
	.st51{fill:#EA7DAE;}
	.st52{fill:#BC7532;}
	.st53{fill:#876C6C;}
	.st54{fill:#F9F6CD;}
	.st55{fill:#FFE37B;}
	.st56{fill:#1DDCFF;}
	.st57{fill:#60ACF7;}
	.st58{fill:#C3755A;}
	.st59{fill:#96557A;}
	.st60{fill:#66625D;}
	.st61{fill:#D68032;}
	.st62{fill:#F2A355;}
	.st63{fill:#7E9E6A;}
	.st64{fill:#965A85;}
	.st65{fill:#90CAD3;}
	.st66{fill:#94B57F;}
	.st67{fill:#B2E2E7;}
	.st68{fill:#FFDF8F;}
	.st69{fill:#FFFAEB;}
	.st70{fill:#F88916;}
	.st71{fill:#FFC86E;}
	.st72{fill:#AFA51D;}
	.st73{fill:#968A1C;}
	.st74{fill:#C3556D;}
</style>
<g>
	<g>
		<g>
			<path class="st0" d="M128.1,12.2L89.6,50.8L61.9,23.2C79,12.4,98.8,5.6,120.1,4.3L128.1,12.2z"/>
		</g>
	</g>
	<g class="st2">
		<g>
			<path class="st1" d="M120.1,4.3C98.8,5.6,79,12.4,61.9,23.2l27.6,27.7c0,0-5.9-12.4-9-24S120.1,4.3,120.1,4.3z"/>
		</g>
	</g>
	<g>
		<g>
			<path class="st0" d="M194.3,23.2l-27.6,27.7l-38.5-38.6l8-8C157.4,5.6,177.2,12.4,194.3,23.2z"/>
		</g>
	</g>
	<g class="st2">
		<g>
			<path class="st1" d="M148.5,5.7c-4.1-0.7-8.2-1.2-12.5-1.4l-8,8l38.5,38.6l5.5-5.5C148.3,24.8,137.7,10.4,148.5,5.7z"/>
		</g>
	</g>
	<g>
		<g>
			<path class="st0" d="M136.1,4.3l-8,8l-8-8c2.6-0.2,5.3-0.3,8-0.3C130.8,4,133.4,4.1,136.1,4.3z"/>
		</g>
	</g>
	<g>
		<g>
			<path class="st0" d="M232.8,61.8l-27.6,27.7l-38.6-38.6l27.6-27.7C209.8,33,223,46.2,232.8,61.8z"/>
		</g>
	</g>
	<g class="st2">
		<g>
			<path class="st1" d="M201.9,28.4c-2.5-1.8-5-3.6-7.6-5.2l-27.6,27.7l38.6,38.6l5.3-5.3c-14.5-14.4-25.7-23.8-25.6-30.7
				C185,46.5,192.9,39.1,201.9,28.4z"/>
		</g>
	</g>
	<g>
		<g>
			<path class="st0" d="M251.7,120l-8,8l-38.5-38.6l27.6-27.7C243.6,78.8,250.4,98.7,251.7,120z"/>
		</g>
	</g>
	<g class="st2">
		<g>
			<path class="st1" d="M237.3,69.3c-1.4-2.6-2.9-5.1-4.4-7.6l-27.6,27.7l38.5,38.6l5.3-5.3c0,0-26.3-24.7-25.3-32.5
				C224.7,82.5,237.3,69.3,237.3,69.3z"/>
		</g>
	</g>
	<g>
		<g>
			<polygon class="st0" points="205.2,89.4 166.7,128 128.1,89.4 166.7,50.8 			"/>
		</g>
	</g>
	<g>
		<g>
			<path class="st0" d="M251.7,136c-1.4,21.3-8.1,41.2-18.9,58.3l-27.6-27.7l38.5-38.6L251.7,136z"/>
		</g>
	</g>
	<g class="st2">
		<g>
			<path class="st1" d="M250,134.3l-6.3-6.3l-38.5,38.6l27.6,27.7c1.1-1.8,2.2-3.6,3.3-5.5c0,0-13.6-12.9-12.4-21.8
				C224.9,158,250,134.3,250,134.3z"/>
		</g>
	</g>
	<g>
		<g>
			<path class="st0" d="M232.8,194.2c-9.8,15.5-23,28.8-38.6,38.6l-27.6-27.7l38.6-38.6L232.8,194.2z"/>
		</g>
	</g>
	<g class="st2">
		<g>
			<path class="st1" d="M212.5,173.9l-7.3-7.3l-38.6,38.6l27.6,27.7c2.4-1.5,4.7-3.1,6.9-4.7c0,0-19-15.3-17-23
				S212.5,173.9,212.5,173.9z"/>
		</g>
	</g>
	<g>
		<g>
			<path class="st0" d="M194.3,232.8c-17,10.8-36.9,17.6-58.2,18.9l-8-8l38.5-38.6L194.3,232.8z"/>
		</g>
	</g>
	<g class="st2">
		<g>
			<path class="st1" d="M172,210.5l-5.3-5.3l-38.5,38.6l8,8c3-0.2,6-0.5,8.9-0.9c0,0-3.1-5.9-0.6-11.3
				C147,234.1,172,210.5,172,210.5z"/>
		</g>
	</g>
	<g>
		<g>
			<path class="st0" d="M128.1,243.8l-8,8c-21.3-1.4-41.2-8.1-58.2-18.9l27.6-27.7L128.1,243.8z"/>
		</g>
	</g>
	<g class="st2">
		<g>
			<path class="st1" d="M97.2,212.8l-7.6-7.6l-27.6,27.7c17,10.8,36.9,17.6,58.2,18.9l3.4-3.4c0,0-39.9-7.4-40.2-17.5
				S97.2,212.8,97.2,212.8z"/>
		</g>
	</g>
	<g>
		<g>
			<path class="st0" d="M136.1,251.7c-2.6,0.2-5.3,0.3-8,0.3c-2.7,0-5.3-0.1-8-0.3l8-8L136.1,251.7z"/>
		</g>
	</g>
	<g>
		<g>
			<path class="st0" d="M89.5,205.2l-27.6,27.7c-15.5-9.8-28.7-23.1-38.5-38.6L51,166.6L89.5,205.2z"/>
		</g>
	</g>
	<g class="st2">
		<g>
			<path class="st1" d="M56.5,172.1l-5.5-5.5l-27.6,27.7c9.8,15.5,23,28.8,38.5,38.6l5.2-5.2c0,0-26.7-21.6-25.3-30.1
				C43.3,188.9,56.5,172.1,56.5,172.1z"/>
		</g>
	</g>
	<g>
		<g>
			<path class="st0" d="M51,166.6l-27.6,27.7C12.6,177.2,5.8,157.3,4.5,136l8-8L51,166.6z"/>
		</g>
	</g>
	<g class="st2">
		<g>
			<path class="st1" d="M20.4,136l-8-8l-8,8c1.4,21.3,8.1,41.2,18.9,58.3l5.5-5.5c0,0-9.6-19.5-11.2-30.4
				C16.1,147.5,20.4,136,20.4,136z"/>
		</g>
	</g>
	<g>
		<g>
			<path class="st0" d="M51,89.4L12.5,128l-8-8c1.4-21.3,8.1-41.2,18.9-58.3L51,89.4z"/>
		</g>
	</g>
	<g class="st2">
		<g>
			<path class="st1" d="M30.8,69.2l-7.5-7.5C12.6,78.8,5.8,98.7,4.5,120l8,8C14.1,107.4,20.1,87.8,30.8,69.2z"/>
		</g>
	</g>
	<g>
		<g>
			<polygon class="st0" points="166.7,128 128.1,166.6 89.6,128 128.1,89.4 			"/>
		</g>
	</g>
	<g>
		<g>
			<path class="st0" d="M252,128c0,2.7-0.1,5.3-0.3,8l-8-8l8-8C251.9,122.7,252,125.3,252,128z"/>
		</g>
	</g>
	<g>
		<g>
			<g>
				<polygon class="st0" points="166.6,205.2 128.1,243.8 89.5,205.2 128.1,166.6 				"/>
			</g>
		</g>
		<g>
			<g>
				
					<rect x="139.4" y="139.3" transform="matrix(0.7069 -0.7073 0.7073 0.7069 -68.9851 166.705)" class="st0" width="54.5" height="54.5"/>
			</g>
		</g>
		<g>
			<g>
				<polygon class="st0" points="166.7,50.8 128.1,89.4 89.6,50.8 128.1,12.2 				"/>
			</g>
		</g>
	</g>
	<g>
		<g>
			<polygon class="st0" points="243.7,128 205.2,166.6 166.7,128 205.2,89.4 			"/>
		</g>
	</g>
	<g>
		<g>
			<polygon class="st0" points="128.1,89.4 89.6,128 51,89.4 89.6,50.8 			"/>
		</g>
	</g>
	<g>
		<g>
			<path class="st0" d="M89.6,50.8L51,89.4L23.4,61.7c9.8-15.5,23-28.8,38.6-38.6L89.6,50.8z"/>
		</g>
	</g>
	<g class="st2">
		<g>
			<path class="st1" d="M61.9,23.2c-15.5,9.8-28.7,23-38.6,38.6L51,89.4c0,0-11.5-20-11.5-29.3S61.9,23.2,61.9,23.2z"/>
		</g>
	</g>
	<g>
		<g>
			<polygon class="st0" points="128.1,166.6 89.5,205.2 51,166.6 89.6,128 			"/>
		</g>
	</g>
	<g>
		<g>
			<polygon class="st0" points="89.6,128 51,166.6 12.5,128 51,89.4 			"/>
		</g>
	</g>
	<g class="st2">
		<g>
			<path class="st1" d="M57.7,96.1L51,89.4L12.5,128L51,166.6c0,0-19.9-28.2-19.9-37.4C31.1,120,57.7,96.1,57.7,96.1z"/>
		</g>
	</g>
	<g class="st2">
		<g>
			<path class="st1" d="M96.2,57.5l-6.7-6.7L51,89.4L89.5,128c0,0-19.9-28.2-19.9-37.4C69.6,81.4,96.2,57.5,96.2,57.5z"/>
		</g>
	</g>
	<g class="st2">
		<g>
			<path class="st1" d="M134.8,18.9l-6.7-6.7L89.6,50.8l38.5,38.6c0,0-19.9-28.2-19.9-37.4C108.2,42.8,134.8,18.9,134.8,18.9z"/>
		</g>
	</g>
	<g class="st2">
		<g>
			<path class="st1" d="M173.3,57.5l-6.7-6.7l-38.5,38.6l38.5,38.6c0,0-19.9-28.2-19.9-37.4S173.3,57.5,173.3,57.5z"/>
		</g>
	</g>
	<g class="st2">
		<g>
			<path class="st1" d="M136.1,96.1l-6.7-6.7L90.8,128l38.5,38.6c0,0-19.9-28.2-19.9-37.4C109.4,120,136.1,96.1,136.1,96.1z"/>
		</g>
	</g>
	<g class="st2">
		<g>
			<path class="st1" d="M96.2,134.7l-6.7-6.7L51,166.6l38.5,38.6c0,0-19.9-28.2-19.9-37.4C69.6,158.6,96.2,134.7,96.2,134.7z"/>
		</g>
	</g>
	<g class="st2">
		<g>
			<path class="st1" d="M134.8,173.3l-6.7-6.7l-38.5,38.6l38.5,38.6c0,0-19.9-28.2-19.9-37.4C108.2,197.2,134.8,173.3,134.8,173.3z"
				/>
		</g>
	</g>
	<g class="st2">
		<g>
			<path class="st1" d="M173.3,134.7l-6.7-6.7l-38.5,38.6l38.5,38.6c0,0-19.9-28.2-19.9-37.4C146.7,158.6,173.3,134.7,173.3,134.7z"
				/>
		</g>
	</g>
	<g class="st2">
		<g>
			<path class="st1" d="M211.9,96.1l-6.7-6.7L166.6,128l38.5,38.6c0,0-19.9-28.2-19.9-37.4C185.3,120,211.9,96.1,211.9,96.1z"/>
		</g>
	</g>
	<g>
		<g>
			<path class="st1" d="M89.6,54.8L89.6,54.8c-1.1,0-2.1-0.4-2.8-1.2L59.1,26c-0.9-0.9-1.3-2.1-1.1-3.3s0.8-2.3,1.8-2.9
				c18-11.4,38.8-18.2,60.1-19.5c1.2-0.1,2.3,0.4,3.1,1.2l8,8c1.6,1.6,1.6,4.1,0,5.7L92.4,53.6C91.6,54.4,90.6,54.8,89.6,54.8z
				 M68.4,23.9l21.2,21.2l32.9-32.9l-3.9-3.9C100.9,9.8,83.7,15.1,68.4,23.9z"/>
		</g>
	</g>
	<g>
		<g>
			<path class="st1" d="M166.7,54.8L166.7,54.8c-1.1,0-2.1-0.4-2.8-1.2l-38.5-38.6c-1.6-1.6-1.6-4.1,0-5.7l8-8
				c0.8-0.8,1.9-1.2,3.1-1.2c21.3,1.4,42.1,8.1,60.1,19.5c1,0.6,1.7,1.7,1.8,2.9c0.1,1.2-0.3,2.4-1.1,3.3l-27.6,27.7
				C168.7,54.4,167.7,54.8,166.7,54.8z M133.8,12.2l32.9,32.9l21.2-21.2c-15.3-8.8-32.6-14.2-50.2-15.6L133.8,12.2z"/>
		</g>
	</g>
	<g>
		<g>
			<path class="st1" d="M128.1,16.2c-1.1,0-2.1-0.4-2.8-1.2l-8-8c-1.1-1.1-1.5-2.8-0.9-4.2c0.6-1.5,1.9-2.5,3.5-2.6
				c5.5-0.3,10.9-0.3,16.4,0c1.6,0.1,2.9,1.1,3.5,2.6c0.6,1.5,0.2,3.1-0.9,4.2l-8,8C130.2,15.8,129.2,16.2,128.1,16.2L128.1,16.2z"
				/>
		</g>
	</g>
	<g>
		<g>
			<path class="st1" d="M205.2,93.4c-1.1,0-2.1-0.4-2.8-1.2l-38.6-38.6c-1.6-1.6-1.6-4.1,0-5.7l27.6-27.7c1.3-1.3,3.4-1.6,5-0.6
				c15.9,10.1,29.7,23.9,39.8,39.8c1,1.6,0.8,3.6-0.6,5L208,92.2C207.3,93,206.3,93.4,205.2,93.4z M172.3,50.8l32.9,32.9l22.5-22.5
				c-8.7-12.9-20-24.2-32.9-32.9L172.3,50.8z"/>
		</g>
	</g>
	<g>
		<g>
			<path class="st1" d="M243.7,132c-1.1,0-2.1-0.4-2.8-1.2l-38.5-38.6c-1.6-1.6-1.6-4.1,0-5.7L230,58.9c0.9-0.9,2.1-1.3,3.3-1.1
				c1.2,0.1,2.3,0.8,2.9,1.8c11.4,18,18.1,38.8,19.5,60.1c0.1,1.1-0.4,2.3-1.2,3.1l-8,8C245.8,131.6,244.8,132,243.7,132L243.7,132z
				 M210.9,89.4l32.9,32.9l3.9-3.9c-1.4-17.7-6.7-34.9-15.6-50.3L210.9,89.4z"/>
		</g>
	</g>
	<g>
		<g>
			<path class="st1" d="M166.7,132L166.7,132c-1.1,0-2.1-0.4-2.8-1.2l-38.6-38.6c-1.6-1.6-1.6-4.1,0-5.7L163.8,48
				c0.8-0.8,1.8-1.2,2.8-1.2l0,0c1.1,0,2.1,0.4,2.8,1.2L208,86.6c1.6,1.6,1.6,4.1,0,5.7l-38.5,38.6C168.7,131.6,167.7,132,166.7,132
				z M133.8,89.4l32.9,32.9l32.9-32.9l-32.9-32.9L133.8,89.4z"/>
		</g>
	</g>
	<g>
		<g>
			<path class="st1" d="M232.8,198.2c-1.1,0-2.1-0.4-2.8-1.2l-27.6-27.7c-1.6-1.6-1.6-4.1,0-5.7l38.5-38.6c0.8-0.8,1.8-1.2,2.8-1.2
				l0,0c1.1,0,2.1,0.4,2.8,1.2l8,8c0.8,0.8,1.2,1.9,1.2,3.1c-1.4,21.3-8.1,42.1-19.5,60.1c-0.7,1-1.7,1.7-2.9,1.8
				C233.1,198.2,233,198.2,232.8,198.2z M210.9,166.6l21.2,21.2c8.8-15.3,14.2-32.6,15.6-50.3l-3.9-3.9L210.9,166.6z"/>
		</g>
	</g>
	<g>
		<g>
			<path class="st1" d="M194.3,236.8c-1,0-2.1-0.4-2.8-1.2L163.8,208c-1.6-1.6-1.6-4.1,0-5.7l38.6-38.6c0.8-0.8,1.8-1.2,2.8-1.2
				c0,0,0,0,0,0c1.1,0,2.1,0.4,2.8,1.2l27.6,27.7c1.3,1.3,1.5,3.4,0.6,5c-10.1,16-23.9,29.7-39.8,39.8
				C195.8,236.6,195,236.8,194.3,236.8z M172.3,205.2l22.5,22.5c12.9-8.7,24.2-20,32.9-32.9l-22.5-22.5L172.3,205.2z"/>
		</g>
	</g>
	<g>
		<g>
			<path class="st1" d="M136.1,255.7c-1.1,0-2.1-0.4-2.8-1.2l-8-8c-1.6-1.6-1.6-4.1,0-5.7l38.5-38.6c0.8-0.8,1.8-1.2,2.8-1.2
				s2.1,0.4,2.8,1.2l27.6,27.7c0.9,0.9,1.3,2.1,1.1,3.3s-0.8,2.3-1.8,2.9c-18,11.4-38.8,18.2-60.1,19.5
				C136.2,255.7,136.2,255.7,136.1,255.7z M133.7,243.8l3.9,3.9c17.7-1.4,34.9-6.7,50.2-15.6l-21.2-21.2L133.7,243.8z"/>
		</g>
	</g>
	<g>
		<g>
			<path class="st1" d="M120.1,255.7c-0.1,0-0.2,0-0.3,0c-21.3-1.4-42.1-8.1-60.1-19.5c-1-0.7-1.7-1.7-1.8-2.9s0.3-2.4,1.1-3.3
				l27.6-27.7c0.8-0.8,1.8-1.2,2.8-1.2c0,0,0,0,0,0c1.1,0,2.1,0.4,2.8,1.2l38.5,38.6c1.6,1.6,1.6,4.1,0,5.7l-8,8
				C122.2,255.3,121.2,255.7,120.1,255.7z M68.3,232.1c15.3,8.8,32.6,14.2,50.2,15.6l3.9-3.9l-32.9-32.9L68.3,232.1z"/>
		</g>
	</g>
	<g>
		<g>
			<path class="st1" d="M128.1,256c-2.7,0-5.5-0.1-8.2-0.3c-1.6-0.1-2.9-1.1-3.5-2.6c-0.6-1.5-0.2-3.1,0.9-4.2l8-8
				c0.8-0.7,1.8-1.2,2.8-1.2c0,0,0,0,0,0c1.1,0,2.1,0.4,2.8,1.2l8,8c1.1,1.1,1.5,2.8,0.9,4.2c-0.6,1.5-1.9,2.5-3.5,2.6
				C133.6,255.9,130.8,256,128.1,256z"/>
		</g>
	</g>
	<g>
		<g>
			<path class="st1" d="M61.9,236.8c-0.7,0-1.5-0.2-2.1-0.6c-15.9-10.1-29.7-23.9-39.8-39.8c-1-1.6-0.8-3.6,0.6-5l27.6-27.7
				c0.8-0.8,1.8-1.2,2.8-1.2l0,0c1.1,0,2.1,0.4,2.8,1.2l38.6,38.6c1.6,1.6,1.6,4.1,0,5.7l-27.6,27.7C64,236.4,62.9,236.8,61.9,236.8
				z M28.5,194.8c8.7,12.9,20,24.2,32.9,32.9l22.5-22.5L51,172.2L28.5,194.8z"/>
		</g>
	</g>
	<g>
		<g>
			<path class="st1" d="M23.4,198.2c-0.1,0-0.3,0-0.4,0c-1.2-0.1-2.3-0.8-2.9-1.8c-11.4-18-18.1-38.8-19.5-60.2
				c-0.1-1.1,0.4-2.3,1.2-3.1l8-8c0.8-0.7,1.8-1.2,2.8-1.2c0,0,0,0,0,0c1.1,0,2.1,0.4,2.8,1.2l38.5,38.6c1.6,1.6,1.6,4.1,0,5.7
				l-27.6,27.7C25.4,197.8,24.4,198.2,23.4,198.2z M8.6,137.5c1.4,17.7,6.7,35,15.5,50.3l21.2-21.2l-32.9-32.9L8.6,137.5z"/>
		</g>
	</g>
	<g>
		<g>
			<path class="st1" d="M12.5,132c-1.1,0-2.1-0.4-2.8-1.2l-8-8c-0.8-0.8-1.2-1.9-1.2-3.1C1.8,98.4,8.6,77.6,20,59.6
				c0.7-1,1.7-1.7,2.9-1.8c1.2-0.1,2.4,0.3,3.3,1.1l27.6,27.7c1.6,1.6,1.6,4.1,0,5.7l-38.5,38.6C14.5,131.6,13.5,132,12.5,132z
				 M8.6,118.5l3.9,3.9l32.9-32.9L24.2,68.2C15.3,83.5,10,100.8,8.6,118.5z"/>
		</g>
	</g>
	<g>
		<g>
			<path class="st1" d="M4.5,140c-0.5,0-1-0.1-1.4-0.3c-1.5-0.6-2.5-1.9-2.6-3.5c-0.2-2.8-0.3-5.5-0.3-8.2c0-2.7,0.1-5.5,0.3-8.2
				c0.1-1.6,1.1-2.9,2.6-3.5c1.5-0.6,3.1-0.2,4.2,0.9l8,8c1.6,1.6,1.6,4.1,0,5.7l-8,8C6.5,139.6,5.5,140,4.5,140z"/>
		</g>
	</g>
	<g>
		<g>
			<path class="st1" d="M128.1,170.6C128.1,170.6,128.1,170.6,128.1,170.6c-1.1,0-2.1-0.4-2.8-1.2l-38.5-38.6
				c-1.6-1.6-1.6-4.1,0-5.7l38.5-38.6c0.8-0.8,1.8-1.2,2.8-1.2s2.1,0.4,2.8,1.2l38.6,38.6c1.6,1.6,1.6,4.1,0,5.7l-38.6,38.6
				C130.2,170.2,129.2,170.6,128.1,170.6z M95.2,128l32.9,32.9L161,128l-32.9-32.9L95.2,128z"/>
		</g>
	</g>
	<g>
		<g>
			<path class="st1" d="M251.7,140c-1,0-2.1-0.4-2.8-1.2l-8-8c-1.6-1.6-1.6-4.1,0-5.7l8-8c1.1-1.1,2.8-1.5,4.2-0.9
				c1.5,0.6,2.5,1.9,2.6,3.5c0.2,2.8,0.3,5.5,0.3,8.2c0,2.7-0.1,5.5-0.3,8.2c-0.1,1.6-1.1,2.9-2.6,3.5
				C252.7,139.9,252.2,140,251.7,140z"/>
		</g>
	</g>
	<g>
		<g>
			<g>
				<path class="st1" d="M128.1,247.8c-1.1,0-2.1-0.4-2.8-1.2L86.7,208c-1.6-1.6-1.6-4.1,0-5.7l38.5-38.6c0.8-0.8,1.8-1.2,2.8-1.2
					s2.1,0.4,2.8,1.2l38.5,38.6c1.6,1.6,1.6,4.1,0,5.7l-38.5,38.6C130.2,247.3,129.2,247.8,128.1,247.8z M95.2,205.2l32.9,32.9
					l32.9-32.9l-32.9-32.9L95.2,205.2z"/>
			</g>
		</g>
		<g>
			<g>
				<path class="st1" d="M166.6,209.2C166.6,209.2,166.6,209.2,166.6,209.2c-1.1,0-2.1-0.4-2.8-1.2l-38.5-38.6
					c-1.6-1.6-1.6-4.1,0-5.7l38.6-38.6c0.8-0.8,1.8-1.2,2.8-1.2c0,0,0,0,0,0c1.1,0,2.1,0.4,2.8,1.2l38.5,38.6c1.6,1.6,1.6,4.1,0,5.7
					L169.5,208C168.7,208.8,167.7,209.2,166.6,209.2z M133.8,166.6l32.9,32.9l32.9-32.9l-32.9-32.9L133.8,166.6z"/>
			</g>
		</g>
		<g>
			<g>
				<path class="st1" d="M128.1,93.4L128.1,93.4c-1.1,0-2.1-0.4-2.8-1.2L86.7,53.6c-1.6-1.6-1.6-4.1,0-5.7l38.5-38.6
					c0.8-0.8,1.8-1.2,2.8-1.2l0,0c1.1,0,2.1,0.4,2.8,1.2L169.5,48c1.6,1.6,1.6,4.1,0,5.7l-38.5,38.6C130.2,93,129.2,93.4,128.1,93.4
					z M95.2,50.8l32.9,32.9L161,50.8l-32.9-32.9L95.2,50.8z"/>
			</g>
		</g>
	</g>
	<g>
		<g>
			<g>
				<path class="st1" d="M205.2,170.6L205.2,170.6c-1.1,0-2.1-0.4-2.8-1.2l-38.5-38.6c-1.6-1.6-1.6-4.1,0-5.7l38.5-38.6
					c0.8-0.8,1.8-1.2,2.8-1.2l0,0c1.1,0,2.1,0.4,2.8,1.2l38.5,38.6c1.6,1.6,1.6,4.1,0,5.7L208,169.4
					C207.3,170.2,206.3,170.6,205.2,170.6z M172.3,128l32.9,32.9l32.9-32.9l-32.9-32.9L172.3,128z"/>
			</g>
		</g>
		<g>
			<g>
				<path class="st1" d="M89.6,132c-1.1,0-2.1-0.4-2.8-1.2L48.2,92.2c-1.6-1.6-1.6-4.1,0-5.7L86.7,48c0.8-0.8,1.8-1.2,2.8-1.2
					c0,0,0,0,0,0c1.1,0,2.1,0.4,2.8,1.2l38.5,38.6c1.6,1.6,1.6,4.1,0,5.7l-38.5,38.6C91.6,131.6,90.6,132,89.6,132z M56.7,89.4
					l32.9,32.9l32.9-32.9L89.6,56.5L56.7,89.4z"/>
			</g>
		</g>
		<g>
			<g>
				<path class="st1" d="M51,93.4L51,93.4c-1.1,0-2.1-0.4-2.8-1.2L20.5,64.6c-1.3-1.3-1.5-3.4-0.6-5c10.1-16,23.9-29.7,39.8-39.8
					c1.6-1,3.6-0.8,5,0.6L92.4,48c1.6,1.6,1.6,4.1,0,5.7L53.8,92.2C53.1,93,52.1,93.4,51,93.4z M28.5,61.2L51,83.7l32.9-32.9
					L61.4,28.3C48.5,37,37.2,48.3,28.5,61.2z"/>
			</g>
		</g>
		<g>
			<g>
				<path class="st1" d="M89.5,209.2c-1.1,0-2.1-0.4-2.8-1.2l-38.6-38.6c-1.6-1.6-1.6-4.1,0-5.7l38.6-38.6c0.8-0.8,1.8-1.2,2.8-1.2
					c0,0,0,0,0,0c1.1,0,2.1,0.4,2.8,1.2l38.5,38.6c1.6,1.6,1.6,4.1,0,5.7L92.4,208C91.6,208.8,90.6,209.2,89.5,209.2z M56.6,166.6
					l32.9,32.9l32.9-32.9l-32.9-32.9L56.6,166.6z"/>
			</g>
		</g>
		<g>
			<g>
				<path class="st1" d="M51,170.6C51,170.6,51,170.6,51,170.6c-1.1,0-2.1-0.4-2.8-1.2L9.6,130.8c-1.6-1.6-1.6-4.1,0-5.7l38.5-38.6
					c0.8-0.8,1.8-1.2,2.8-1.2s2.1,0.4,2.8,1.2l38.6,38.6c1.6,1.6,1.6,4.1,0,5.7l-38.6,38.6C53.1,170.2,52.1,170.6,51,170.6z
					 M18.1,128L51,160.9L83.9,128L51,95.1L18.1,128z"/>
			</g>
		</g>
	</g>
</g>
</svg>
