<?xml version="1.0" encoding="utf-8"?>
<!-- Generator: Adobe Illustrator 22.1.0, SVG Export Plug-In . SVG Version: 6.00 Build 0)  -->
<svg version="1.1" id="Layer_1" xmlns="http://www.w3.org/2000/svg" xmlns:xlink="http://www.w3.org/1999/xlink" x="0px" y="0px"
	 viewBox="0 0 256 256" style="enable-background:new 0 0 256 256;" xml:space="preserve">
<style type="text/css">
	.st0{fill:#F5B31F;}
	.st1{fill:#464646;}
	.st2{opacity:0.15;}
	.st3{fill:#AC6535;}
	.st4{fill:#EB573B;}
	.st5{fill:#90C056;}
	.st6{opacity:0.35;}
	.st7{fill:#FFFFFF;}
	.st8{opacity:0.2;}
	.st9{fill:#F6D67A;}
	.st10{opacity:0.3;}
	.st11{fill:#FFA755;}
	.st12{fill:#8FAE3C;}
	.st13{fill:#BE6BB2;}
	.st14{fill:#B7C536;}
	.st15{opacity:0.1;}
	.st16{fill:#9D5A96;}
	.st17{fill:#EA615D;}
	.st18{opacity:0.4;}
	.st19{fill:#F79932;}
	.st20{fill:#FFEC97;}
	.st21{fill:#FFD11D;}
	.st22{fill:#F7F2D5;}
	.st23{fill:#F6AF72;}
	.st24{fill:#BA6C45;}
	.st25{opacity:0.5;}
	.st26{fill:#E4C074;}
	.st27{fill:#656566;}
	.st28{fill:#FACD1F;}
	.st29{fill:#FFDF66;}
	.st30{fill:#6D6E71;}
	.st31{fill:#E77CAE;}
	.st32{fill:#FFE5C4;}
	.st33{fill:#F68455;}
	.st34{opacity:0.7;}
	.st35{fill:#ADEDFF;}
	.st36{fill:#EC754B;}
	.st37{fill:#4AA5BA;}
	.st38{opacity:0.8;}
	.st39{fill:#92A5AC;}
	.st40{fill:#D06E3C;}
	.st41{fill:#DA4F4B;}
	.st42{fill:#BDF3FF;}
	.st43{fill:#F18BB4;}
	.st44{fill:#F9D97A;}
	.st45{fill:none;}
	.st46{fill:#AF6535;}
	.st47{fill:#B93226;}
	.st48{fill:#FF6050;}
	.st49{fill:#EA7CB1;}
	.st50{fill:#00B0E0;}
	.st51{fill:#EA7DAE;}
	.st52{fill:#BC7532;}
	.st53{fill:#876C6C;}
	.st54{fill:#F9F6CD;}
	.st55{fill:#FFE37B;}
	.st56{fill:#1DDCFF;}
	.st57{fill:#60ACF7;}
	.st58{fill:#C3755A;}
	.st59{fill:#96557A;}
	.st60{fill:#66625D;}
	.st61{fill:#D68032;}
	.st62{fill:#F2A355;}
	.st63{fill:#7E9E6A;}
	.st64{fill:#965A85;}
	.st65{fill:#90CAD3;}
	.st66{fill:#94B57F;}
	.st67{fill:#B2E2E7;}
	.st68{fill:#FFDF8F;}
	.st69{fill:#FFFAEB;}
	.st70{fill:#F88916;}
	.st71{fill:#FFC86E;}
	.st72{fill:#AFA51D;}
	.st73{fill:#968A1C;}
	.st74{fill:#C3556D;}
</style>
<g>
	<g>
		<g>
			<path class="st7" d="M140.6,24.2c0,0,0.7,19,2,35.9l-28.8,0c1.4-16.9,2.1-35.9,2.1-35.9s-2.1-1.7-2.7-3.4c-0.7-1.7,3-9,3-9
				c-2.4,0-2.4-7.7,0-7.7l24.2,0c2.4,0,2.4,7.7,0,7.7c0,0,3.7,7.3,3,9C142.7,22.5,140.6,24.2,140.6,24.2z"/>
		</g>
	</g>
	<g class="st15">
		<g>
			<path d="M132.4,4l7.9,0c2.4,0,2.4,7.7,0,7.7c0,0,3.7,7.3,3,9c-0.7,1.7-2.7,3.4-2.7,3.4s0.7,19,2,35.9l-7.8,0L132.4,4z"/>
		</g>
	</g>
	<g>
		<g>
			<path class="st52" d="M163.3,128.2l-70.1,0c0-4.8,2.4-16.6,6.3-23.6c3.9-7,7.8-10.4,11.3-21.2c1.3-4,2.3-13.3,3.1-23.3l28.8,0
				c0.8,10,1.8,19.3,3.1,23.3c3.4,10.8,7.4,14.2,11.3,21.2C160.9,111.6,163.3,123.3,163.3,128.2z"/>
		</g>
	</g>
	<g class="st10">
		<g>
			<path class="st7" d="M120.7,60.1l-6.9,0c-0.8,10-1.8,19.3-3.1,23.3c-3.4,10.8-7.4,14.2-11.3,21.2c-3.9,7-6.3,18.7-6.3,23.6
				l11.3,0c0,0,4.1-22.8,10-29.5S120.7,60.1,120.7,60.1z"/>
		</g>
	</g>
	<g>
		<g>
			<path class="st52" d="M163.3,194.6l0,44.4c0,8.3-4.9,13-11.4,13s-23.7,0-23.7,0s-17.2,0-23.7,0s-11.4-4.7-11.4-13l0-44.4
				L163.3,194.6z"/>
		</g>
	</g>
	<g class="st10">
		<g>
			<path class="st7" d="M104.5,252c-6.5,0-11.4-4.7-11.4-13l0-44.4l11.9,0c0,0,0.4,17.3,0.4,36.5s9.2,20.9,9.2,20.9L104.5,252z"/>
		</g>
	</g>
	<g class="st15">
		<g>
			<path d="M135.7,60.1l6.9,0c0.8,10,1.8,19.3,3.1,23.3c3.4,10.8,7.4,14.2,11.3,21.2c3.9,7,6.3,18.7,6.3,23.6l-11.3,0
				c0,0-4.1-22.8-10-29.5C136.1,91.9,135.7,60.1,135.7,60.1z"/>
		</g>
	</g>
	<g class="st15">
		<g>
			<path d="M151.9,252c6.5,0,11.4-4.7,11.4-13l0-44.4l-11.9,0L151.9,252z"/>
		</g>
	</g>
	<g>
		<g>
			<rect x="93.1" y="128.2" class="st9" width="70.1" height="66.4"/>
		</g>
	</g>
	<g class="st10">
		<g>
			<rect x="93.1" y="128.2" class="st7" width="11.4" height="66.4"/>
		</g>
	</g>
	<g class="st15">
		<g>
			<rect x="151.6" y="128.2" width="11.4" height="66.4"/>
		</g>
	</g>
	<g>
		<g>
			<path class="st1" d="M142.6,64.1C142.6,64.1,142.6,64.1,142.6,64.1l-28.8,0c-1.1,0-2.2-0.5-2.9-1.3c-0.8-0.8-1.1-1.9-1-3
				c1.1-13.6,1.8-28.8,2-33.9c-0.9-0.9-1.9-2.2-2.4-3.6c-0.4-1-1.1-2.9,1.9-9.6c-1.4-2.8-1.3-7.1,0.2-9.7c1-1.8,2.7-2.8,4.6-2.8
				c0,0,0,0,0,0l24.2,0c1.9,0,3.6,1,4.7,2.8c1.5,2.6,1.6,7,0.2,9.7c3,6.8,2.3,8.7,1.9,9.6c-0.5,1.4-1.5,2.7-2.4,3.6
				c0.2,5.1,0.9,20.3,2,33.9c0.1,1.1-0.3,2.2-1,3S143.7,64.1,142.6,64.1z M118.1,56.1l20.2,0c-1.1-15.6-1.7-31.6-1.7-31.8
				c0-1.2,0.5-2.4,1.5-3.2c0.4-0.4,0.9-0.9,1.3-1.3c-0.3-1.3-1.4-4-2.6-6.3c-0.6-1.2-0.5-2.7,0.2-3.9c0.3-0.5,0.7-0.9,1.2-1.2
				c0-0.1,0-0.2,0-0.4l-19.8,0c0,0.1,0,0.3,0,0.4c0.5,0.3,0.9,0.7,1.2,1.2c0.7,1.2,0.8,2.6,0.2,3.9c-1.1,2.3-2.2,5-2.6,6.3
				c0.3,0.4,0.8,0.9,1.3,1.3c1,0.8,1.5,2,1.5,3.2C119.9,24.5,119.3,40.5,118.1,56.1z M139.4,20.3L139.4,20.3L139.4,20.3z M117,20.3
				L117,20.3L117,20.3z M116.1,8C116.1,8,116.1,8,116.1,8L116.1,8z M140.3,7.7C140.3,7.7,140.3,7.7,140.3,7.7
				C140.3,7.7,140.3,7.7,140.3,7.7z M116.1,7.7C116.1,7.7,116.1,7.7,116.1,7.7C116.1,7.7,116.1,7.7,116.1,7.7z"/>
		</g>
	</g>
	<g>
		<g>
			<path class="st1" d="M163.3,132.2C163.3,132.2,163.3,132.2,163.3,132.2l-70.1,0c-1.1,0-2.1-0.4-2.8-1.2c-0.8-0.8-1.2-1.8-1.2-2.8
				c0-5.6,2.6-18,6.8-25.5c1.3-2.3,2.5-4.2,3.8-6c2.6-3.9,5-7.5,7.2-14.5c0.7-2.2,1.8-7.9,3-22.4c0.2-2.1,1.9-3.7,4-3.7c0,0,0,0,0,0
				l28.8,0c2.1,0,3.8,1.6,4,3.7c1.2,14.5,2.2,20.2,2.9,22.4c2.2,7,4.6,10.6,7.2,14.5c1.2,1.8,2.5,3.7,3.8,6
				c4.2,7.5,6.8,19.9,6.8,25.5c0,1.1-0.4,2.1-1.2,2.8C165.4,131.8,164.3,132.2,163.3,132.2z M97.5,124.2l61.4,0
				c-0.8-5.3-2.7-12.9-5.4-17.6c-1.1-2-2.2-3.7-3.4-5.5c-2.8-4.2-5.6-8.5-8.2-16.5c-1.1-3.5-2.1-10.2-3-20.5l-21.5,0
				c-0.9,10.3-1.9,17.1-3,20.5c-2.5,8-5.4,12.3-8.2,16.5c-1.2,1.8-2.3,3.5-3.4,5.5C100.2,111.3,98.3,118.9,97.5,124.2z"/>
		</g>
	</g>
	<g>
		<g>
			<path class="st1" d="M151.9,256C151.9,256,151.9,256,151.9,256l-47.4,0c-9,0-15.4-7-15.4-17l0-44.4c0-1.1,0.4-2.1,1.2-2.8
				c0.8-0.8,1.8-1.2,2.8-1.2c0,0,0,0,0,0l70.1,0c2.2,0,4,1.8,4,4l0,44.4c0,5-1.5,9.2-4.3,12.3C160.2,254.3,156.3,256,151.9,256z
				 M97.1,198.6l0,40.4c0,5.6,2.8,9,7.4,9l47.4,0h0c2.1,0,3.9-0.7,5.2-2.1c1.4-1.6,2.2-3.9,2.2-6.9l0-40.4L97.1,198.6z"/>
		</g>
	</g>
	<g>
		<g>
			<path class="st1" d="M163.3,198.6C163.3,198.6,163.3,198.6,163.3,198.6l-70.1,0c-2.2,0-4-1.8-4-4l0-66.4c0-1.1,0.4-2.1,1.2-2.8
				c0.8-0.8,1.8-1.2,2.8-1.2c0,0,0,0,0,0l70.1,0c1.1,0,2.1,0.4,2.8,1.2c0.8,0.8,1.2,1.8,1.2,2.8l0,66.4c0,1.1-0.4,2.1-1.2,2.8
				C165.4,198.2,164.3,198.6,163.3,198.6z M97.1,190.6l62.1,0l0-58.4l-62.1,0L97.1,190.6z"/>
		</g>
	</g>
</g>
</svg>
