<?xml version="1.0" encoding="utf-8"?>
<!-- Generator: Adobe Illustrator 22.1.0, SVG Export Plug-In . SVG Version: 6.00 Build 0)  -->
<svg version="1.1" id="Layer_1" xmlns="http://www.w3.org/2000/svg" xmlns:xlink="http://www.w3.org/1999/xlink" x="0px" y="0px"
	 viewBox="0 0 256 256" style="enable-background:new 0 0 256 256;" xml:space="preserve">
<style type="text/css">
	.st0{fill:#F5B31F;}
	.st1{fill:#464646;}
	.st2{opacity:0.15;}
	.st3{fill:#AC6535;}
	.st4{fill:#EB573B;}
	.st5{fill:#90C056;}
	.st6{opacity:0.35;}
	.st7{fill:#FFFFFF;}
	.st8{opacity:0.2;}
	.st9{fill:#F6D67A;}
	.st10{opacity:0.3;}
	.st11{fill:#FFA755;}
	.st12{fill:#8FAE3C;}
	.st13{fill:#BE6BB2;}
	.st14{fill:#B7C536;}
	.st15{opacity:0.1;}
	.st16{fill:#9D5A96;}
	.st17{fill:#EA615D;}
	.st18{opacity:0.4;}
	.st19{fill:#F79932;}
	.st20{fill:#FFEC97;}
	.st21{fill:#FFD11D;}
	.st22{fill:#F7F2D5;}
	.st23{fill:#F6AF72;}
	.st24{fill:#BA6C45;}
	.st25{opacity:0.5;}
	.st26{fill:#E4C074;}
	.st27{fill:#656566;}
	.st28{fill:#FACD1F;}
	.st29{fill:#FFDF66;}
	.st30{fill:#6D6E71;}
	.st31{fill:#E77CAE;}
	.st32{fill:#FFE5C4;}
	.st33{fill:#F68455;}
	.st34{opacity:0.7;}
	.st35{fill:#ADEDFF;}
	.st36{fill:#EC754B;}
	.st37{fill:#4AA5BA;}
	.st38{opacity:0.8;}
	.st39{fill:#92A5AC;}
	.st40{fill:#D06E3C;}
	.st41{fill:#DA4F4B;}
	.st42{fill:#BDF3FF;}
	.st43{fill:#F18BB4;}
	.st44{fill:#F9D97A;}
	.st45{fill:none;}
	.st46{fill:#AF6535;}
	.st47{fill:#B93226;}
	.st48{fill:#FF6050;}
	.st49{fill:#EA7CB1;}
	.st50{fill:#00B0E0;}
	.st51{fill:#EA7DAE;}
	.st52{fill:#BC7532;}
	.st53{fill:#876C6C;}
	.st54{fill:#F9F6CD;}
	.st55{fill:#FFE37B;}
	.st56{fill:#1DDCFF;}
	.st57{fill:#60ACF7;}
	.st58{fill:#C3755A;}
	.st59{fill:#96557A;}
	.st60{fill:#66625D;}
	.st61{fill:#D68032;}
	.st62{fill:#F2A355;}
	.st63{fill:#7E9E6A;}
	.st64{fill:#965A85;}
	.st65{fill:#90CAD3;}
	.st66{fill:#94B57F;}
	.st67{fill:#B2E2E7;}
	.st68{fill:#FFDF8F;}
	.st69{fill:#FFFAEB;}
	.st70{fill:#F88916;}
	.st71{fill:#FFC86E;}
	.st72{fill:#AFA51D;}
	.st73{fill:#968A1C;}
	.st74{fill:#C3556D;}
</style>
<g>
	<g>
		<g>
			<path class="st12" d="M159,98.3c17.9-8.3,33.5-10,45,0c-7.1,9.5-3.6,12.8,7.2,11.7c-5.1,8.7-3.2,12.2,5.3,10.5
				c-3.3,16.1,11.6,19.1,14.9,3c3.9,14.2,18,10.3,14.1-3.9c8.8,0,8.8-15.7,0-15.7c6.6-6.2-2.5-15.9-9.1-9.7
				c3.9-9-12.7-16.2-16.6-7.2C195.7,79.9,175.7,84.4,159,98.3z"/>
		</g>
	</g>
	<g>
		<g>
			<path class="st12" d="M159,98.3c11.8-13.5,24.5-21.7,38.9-20.4c12,10.6,28.5-8.2,16.6-18.8c13.3,12.7,25.1,0.2,11.9-12.4
				c14.7,7.5,21.9-6.6,7.2-14.1c14.3-11.5,4.1-24.2-10.2-12.7c-8.4-9.7-22.2,2.1-13.8,11.9c-9.2-9-22.5,4.5-13.2,13.5
				c-6.3-8.4-23.2,4.3-16.9,12.7C179.7,71.3,171.3,84.8,159,98.3z"/>
		</g>
	</g>
	<g>
		<g>
			<path class="st12" d="M159,98.3c3.7-17.5,4.6-33.8-2-46.9c-5.2,8.6-14.8,2.8-9.7-5.8c-4.9,7.7-16.2,0.5-11.3-7.2
				c-11.2,4.6-16.4-8.1-5.3-12.7c-10.6-3.4-5-20.5,5.5-17.1c1.5-6.4,17.8-2.5,16.3,3.9c5.2-7.3,16.5,0.7,11.3,8
				c8.6-3.7,15.5,12.3,6.9,16C181.3,57.8,176.2,78.3,159,98.3z"/>
		</g>
	</g>
	<g class="st15">
		<g>
			<path d="M176.3,82.2c10.1-8.8,12.5-19.4,5.4-32.1l-6.2,0L176.3,82.2z"/>
		</g>
	</g>
	<g>
		<g>
			<path class="st70" d="M179.3,138c-0.6,5.6-10.2,15.3-24.6,26.8c-11.2,8.9-25.4,18.9-40.6,28.8c-11.9,7.8-24.4,15.5-36.5,22.7
				c-35.3,20.8-67.5,36.6-72.6,33.6c-5.4-3.1,11.3-36.2,33.5-72.6c7.4-12,15.3-24.4,23.3-36.2C72.2,126,82.5,112,91.5,101
				c10.1-12.2,18.6-20.5,23.8-22.2c12.8-4,30.3,5.8,43.7,19.5C171.5,110.9,180.5,126.7,179.3,138z"/>
		</g>
	</g>
	<g class="st8">
		<g>
			<path class="st7" d="M115.3,78.8c-5.2,1.7-13.7,10-23.8,22.2c-9,11-19.3,25-29.6,40.1c-8,11.8-16,24.1-23.3,36.2
				c-22.2,36.3-38.9,69.5-33.5,72.6c2,1.1,8-0.5,16.7-4.2c0,0-10.5,5.1,7-30.5S115.3,78.8,115.3,78.8z"/>
		</g>
	</g>
	<g class="st15">
		<g>
			<path d="M115.3,78.8c12.8-4,30.3,5.8,43.7,19.5c12.4,12.6,21.5,28.4,20.3,39.7c-0.6,5.6-10.2,15.3-24.6,26.8
				c-11.2,8.9-25.4,18.9-40.6,28.8c-11.9,7.8-24.4,15.5-36.5,22.7c-35.3,20.8-67.5,36.6-72.6,33.6c0,0,107.2-60.3,136.2-101.1
				S115.3,78.8,115.3,78.8z"/>
		</g>
	</g>
	<g>
		<g>
			<path class="st1" d="M6.8,254.3c-1.8,0-2.8-0.4-3.7-0.9c-1-0.6-2.2-1.7-2.8-3.8c-0.8-3-0.4-9,9.1-28.5
				c6.2-12.6,15.1-28.5,25.7-45.9c7.4-12.1,15.5-24.7,23.4-36.3C69.4,123,79.7,109,88.4,98.5c11.5-14,19.9-21.6,25.6-23.5
				c15.5-4.9,34.9,7.4,47.8,20.5c17.3,17.5,22.4,33.6,21.4,42.9c0,0,0,0,0,0c-0.4,4.1-3.6,11.6-26,29.5
				c-10.7,8.5-24.9,18.6-40.9,29.1c-11.6,7.6-24.3,15.5-36.7,22.8c-18,10.6-35,19.8-48,25.9C17.3,252.4,10.5,254.3,6.8,254.3z
				 M6.6,246.2 M121.5,81.9c-1.8,0-3.5,0.2-5,0.7c-1.9,0.6-7.8,3.8-21.9,20.9c-8.5,10.4-18.7,24.1-29.3,39.8
				c-7.8,11.5-15.9,24-23.2,36c-24,39.2-33.1,60.4-33.9,66.8c6.5-1,28.3-10.2,67.5-33.4c12.2-7.2,24.8-15,36.4-22.6
				c15.8-10.4,29.7-20.3,40.3-28.6c21.3-17,23-23,23.1-24c0.9-9.2-6.8-23.9-19.2-36.4C144.2,89,131.2,81.9,121.5,81.9z M179.3,138
				L179.3,138L179.3,138z"/>
		</g>
	</g>
	<g>
		<g>
			<path class="st1" d="M222.5,138.1c-2.3,0-4.5-0.8-6.3-2.4c-2.8-2.4-4.2-6.3-4.2-10.9c-2.3-0.1-4.7-0.9-6.3-3.1
				c-1.6-2.3-1.5-5-0.7-7.7c-3.2-0.4-6.1-1.5-7.7-4.2c-1.9-3.4-0.6-7.3,1.3-10.6c-9-5.8-21.5-4.9-37.9,2.7c-1.8,0.8-4,0.2-5.1-1.5
				c-1.1-1.7-0.7-3.9,0.8-5.2c17.6-14.7,38.3-19,61.6-12.8c3.3-3.7,8.9-4.6,14.5-2.2c4,1.7,6.8,4.7,7.8,8c1.2-0.1,2.4,0.1,3.5,0.4
				c3.7,1.1,6.6,4.2,7.5,8c0.4,1.7,0.4,3.4-0.1,5.1c2.9,2,4.7,5.7,4.7,10c0,5-2.4,9-6,10.8c0.2,2.6-0.1,5-0.9,7.1
				c-1.3,3.2-3.7,5.6-6.8,6.4c-3.1,0.8-6.4,0.1-9.1-2c-0.5-0.4-1-0.8-1.4-1.3c-1.7,2.4-3.8,4.1-6.3,4.9
				C224.6,138,223.5,138.1,222.5,138.1z M216.4,116.5c1.1,0,2.1,0.4,2.8,1.2c0.9,0.9,1.3,2.3,1.1,3.6c-1,4.7,0,7.5,1.1,8.5
				c0.5,0.4,1,0.5,1.6,0.3c1.4-0.5,3.4-2.7,4.4-7.4c0.4-1.8,1.9-3.1,3.8-3.2c1.8,0,3.5,1.2,4,2.9c0.7,2.4,1.7,4.3,3,5.3
				c0.7,0.6,1.5,0.8,2.1,0.6c1.3-0.4,2.6-3,1.3-7.7c-0.3-1.2-0.1-2.5,0.7-3.5c0.8-1,1.9-1.6,3.2-1.6l0,0c2.6,0,2.6-3.5,2.6-3.9
				s-0.1-3.9-2.6-3.9c-1.6,0-3.1-1-3.7-2.5c-0.6-1.5-0.2-3.3,1-4.4c0.7-0.7,1-1.3,1-2c0-0.6-0.3-1.3-0.8-1.8c-0.5-0.6-2-1.7-3.9,0
				c-1.4,1.3-3.5,1.5-5,0.4s-2.1-3.1-1.4-4.9c1.3-3.1-3.1-5-3.3-5.1c-0.2-0.1-4.6-2-6,1.1c-0.8,1.9-2.9,2.8-4.8,2.2
				c-9.6-2.9-18.6-3.8-27-2.9c5.6,1,10.6,3.5,15,7.3c1.6,1.4,1.8,3.7,0.6,5.4c-2.2,2.9-2.7,4.5-2.8,5.1c0.7,0.2,2.4,0.6,6.4,0.2
				c1.5-0.1,3,0.5,3.8,1.8s0.9,2.9,0.1,4.2c-1.5,2.6-2,4.1-2.2,4.9c0.6,0,1.6,0,3.2-0.3C215.9,116.5,216.2,116.5,216.4,116.5z"/>
		</g>
	</g>
	<g>
		<g>
			<path class="st1" d="M159,102.3c-0.9,0-1.9-0.3-2.7-1c-1.6-1.5-1.8-4-0.3-5.6c0.5-0.6,1-1.2,1.6-1.8c12-13.6,17.7-24.6,17.9-34.7
				c-3-5.4-1-12.3,5.3-17c2.7-2.1,5.7-3.2,8.5-3.5c0-1.1,0.1-2.2,0.4-3.4c1.2-4.7,5-8.6,9.7-10c1.2-0.3,2.4-0.5,3.6-0.5
				c0.2-3.7,2-7,4.6-9.3c4.2-3.6,10.7-4.7,16.1-0.8c5.2-3.3,10.3-4.2,14.5-2.6c3.4,1.3,5.6,4.1,6.1,7.6c0.6,4-0.9,8.2-4.4,12.2
				c3.5,2.9,5.5,6.3,5.7,10c0.2,3.6-1.5,6.9-4.5,8.9c-1.7,1.1-3.6,1.7-5.8,1.9c1.8,5.1,0.6,9.6-2,12.4c-2.4,2.5-6.2,3.9-10.7,3
				c0,0.9-0.1,1.8-0.3,2.7c-1.2,6-5.9,11.4-11.8,13.3c-4.9,1.6-10,0.8-14.2-2.4c-10.8-0.6-21.6,5.1-32.9,17.4
				c-0.5,0.6-1,1.1-1.5,1.7C161.2,101.8,160.1,102.3,159,102.3z M190.6,46.6c-1.7,0-3.7,1-5.1,2c-2.1,1.6-4.6,4.8-2.9,7
				c0.5,0.7,0.8,1.5,0.8,2.3c0.1,6.2-1.4,12.6-4.7,19.5c6.4-3,12.9-4.1,19.5-3.5c0.8,0.1,1.6,0.4,2.3,1c2.9,2.5,5.6,2.3,7.5,1.7
				c3.1-1.1,5.8-4.1,6.5-7.3c0.5-2.5-0.2-4.8-2.2-6.7c-0.2-0.2-0.4-0.4-0.6-0.5c-1.6-1.5-1.7-4-0.2-5.6c1.5-1.6,4-1.7,5.6-0.3
				c0.2,0.2,0.4,0.4,0.6,0.6c4.6,4.2,8.4,4.3,9.7,2.9c1.3-1.4,1-5.4-3.9-10c-1.4-1.4-1.6-3.6-0.5-5.2c1.1-1.6,3.3-2.2,5.1-1.3
				c4.2,2.1,7.2,2,8.5,1.1c0.6-0.4,0.9-1,0.9-1.8c-0.1-1.6-1.7-4.1-5.9-6.3c-1.2-0.6-2-1.8-2.2-3.2c-0.1-1.4,0.4-2.7,1.5-3.5
				c5.2-4.2,6-8,5-9.3c-1.1-1.3-5-1.3-10.2,2.9c-1.7,1.4-4.1,1.1-5.5-0.5c-2.7-3.2-5.8-2.5-7.6-0.9c-1.8,1.5-2.9,4.4-0.2,7.6
				c1.4,1.6,1.3,4.1-0.3,5.5s-4,1.4-5.5-0.1c-1.7-1.6-3.4-2.2-5.3-1.7c-2,0.6-3.6,2.3-4.1,4.2c-0.4,1.5-0.1,3,1,4.3
				c0.4,0.4,0.8,0.9,1.2,1.3c1.3,1.7,1,4-0.5,5.4c-1.6,1.4-3.9,1.3-5.4-0.1c-0.3-0.3-0.7-0.7-1-1C192,46.8,191.3,46.6,190.6,46.6z"
				/>
		</g>
	</g>
	<g>
		<g>
			<path class="st1" d="M159,102.3c-0.6,0-1.2-0.1-1.8-0.4c-1.6-0.8-2.5-2.6-2.1-4.4c3.5-16.6,3.7-29.2,0.5-39.1
				c-3.2,1.8-6.7,1.6-9.3,0c-1.9-1.2-3.4-3.1-4.1-5.5c-2,0.1-4.2-0.4-6.3-1.7c-3.1-2-4.6-4.8-4.9-7.7c-2.4-0.1-4.7-0.8-6.5-2.3
				c-2.9-2.2-4.3-5.6-3.8-9.2c0.3-2.3,1.4-4.5,3.1-6.3c-0.7-0.9-1.3-1.9-1.8-3c-1.1-2.8-1.2-6.1-0.2-9.2c1-3.1,3-5.7,5.5-7.4
				c2.1-1.3,4.5-2,7-1.8c1.1-1.1,2.6-2,4.4-2.5c2.3-0.6,5-0.5,7.8,0.1c2.8,0.7,5.2,1.9,7,3.4c0.3,0.3,0.7,0.6,0.9,0.9
				c1.4-0.5,2.9-0.7,4.4-0.5c4,0.4,7.7,3,9.4,6.7c0.6,1.3,0.9,2.6,0.9,4c1.3,0.4,2.5,1,3.6,1.8c4,3,6.4,8.5,5.8,13.5
				c-0.3,2.4-1.3,4.6-2.9,6.2c8.9,20.9,4.3,42.1-13.8,63.1C161.3,101.8,160.2,102.3,159,102.3z M157,47.4c0,0,0.1,0,0.1,0
				c1.5,0.1,2.8,0.9,3.4,2.2c4.4,8.8,6.1,19.4,4.9,32.7c8.4-14.9,8.9-29.4,1.7-44.1c-0.5-1-0.5-2.1-0.2-3.2c0.4-1,1.2-1.9,2.2-2.3
				c0.8-0.3,1.2-0.9,1.4-1.8c0.2-1.1,0-2.5-0.5-3.8c0,0-1.9-4.3-4.7-3.1c-1.6,0.7-3.6,0.2-4.7-1.2c-1.1-1.4-1.2-3.4-0.2-4.8
				c0.6-0.9,0.7-1.7,0.4-2.5c-0.5-1.1-1.7-1.9-2.9-2.1c-0.9-0.1-1.6,0.3-2.3,1.2c-1.1,1.6-3.2,2.1-4.9,1.3c-1.7-0.8-2.6-2.6-2.3-4.4
				c-0.3-0.5-1.7-1.5-4-2.1c-2.3-0.5-4-0.3-4.5,0c-0.3,1-1,1.9-1.9,2.4c-1,0.5-2.1,0.7-3.2,0.3c-1.3-0.4-2.4-0.3-3.4,0.3
				c-1,0.6-1.8,1.8-2.2,3.1c-0.3,0.8-1.3,4.8,2.6,6.1c1.6,0.5,2.7,2,2.8,3.6c0.1,1.7-0.9,3.2-2.5,3.9c-2.2,0.9-3.5,2.2-3.7,3.6
				c-0.1,0.7,0.2,1.4,0.8,1.8c1.1,0.8,3,0.8,5.2-0.1c1.6-0.7,3.5-0.2,4.6,1.1c1.1,1.3,1.2,3.2,0.3,4.7c-1.4,2.1,0.1,3.4,0.8,3.8
				c0.6,0.4,1.4,0.6,2,0.5c0.7-0.1,1.3-0.6,1.8-1.4c1.2-1.8,3.6-2.4,5.5-1.3c1.9,1.2,2.5,3.6,1.3,5.5c-1.2,2-1.1,3.5-0.4,3.9
				c0.7,0.4,2-0.2,3.2-2.2C154.3,48.2,155.6,47.4,157,47.4z"/>
		</g>
	</g>
	<g>
		<g>
			<path class="st1" d="M68.7,225.5c-1.5,0-2.9-0.8-3.6-2.2c-4.9-9.5-11.8-18-20.2-24.6c-1.7-1.4-2-3.9-0.6-5.6
				c1.4-1.7,3.9-2,5.6-0.6c9.2,7.4,16.9,16.8,22.3,27.2c1,2,0.2,4.4-1.7,5.4C70,225.3,69.3,225.5,68.7,225.5z"/>
		</g>
	</g>
	<g>
		<g>
			<path class="st1" d="M114.2,197.6c-1.4,0-2.8-0.8-3.6-2.2c-2.4-4.6-5.1-9.2-8.1-13.5c-1.3-1.8-0.8-4.3,1-5.6
				c1.8-1.3,4.3-0.8,5.6,1c3.2,4.6,6.1,9.4,8.7,14.4c1,2,0.2,4.4-1.7,5.4C115.5,197.4,114.8,197.6,114.2,197.6z"/>
		</g>
	</g>
	<g>
		<g>
			<path class="st1" d="M91.5,166.7c-1,0-2-0.4-2.8-1.2c-8.5-8.4-18.1-15.4-28.6-20.9c-2-1-2.7-3.4-1.7-5.4c1-2,3.4-2.7,5.4-1.7
				c11.2,5.9,21.5,13.4,30.5,22.3c1.6,1.6,1.6,4.1,0,5.7C93.6,166.3,92.5,166.7,91.5,166.7z"/>
		</g>
	</g>
	<g>
		<g>
			<path class="st1" d="M154.8,168.7c-1.4,0-2.7-0.7-3.5-2c-5-8.7-10.8-17-17.2-24.7c-1.4-1.7-1.2-4.2,0.5-5.6
				c1.7-1.4,4.2-1.2,5.6,0.5c6.8,8.1,12.8,16.8,18,25.9c1.1,1.9,0.4,4.4-1.5,5.5C156.1,168.6,155.5,168.7,154.8,168.7z"/>
		</g>
	</g>
	<g>
		<g>
			<path class="st1" d="M111.9,118.9c-0.9,0-1.7-0.3-2.5-0.9c-6.3-5-13-9.6-20-13.6c-1.9-1.1-2.6-3.6-1.5-5.5
				c1.1-1.9,3.6-2.6,5.5-1.5c7.3,4.2,14.3,9,20.9,14.2c1.7,1.4,2,3.9,0.7,5.6C114.3,118.4,113.1,118.9,111.9,118.9z"/>
		</g>
	</g>
	<g>
		<g>
			<path class="st1" d="M192.9,67.2c-1.1,0-2.3-0.5-3.1-1.4c-1.4-1.7-1.2-4.2,0.5-5.6c12.4-10.3,22-21.5,29-30.1
				c1.4-1.7,3.9-2,5.6-0.6c1.7,1.4,2,3.9,0.6,5.6c-7.2,8.9-17.2,20.5-30.1,31.2C194.7,66.9,193.8,67.2,192.9,67.2z"/>
		</g>
	</g>
	<g>
		<g>
			<path class="st1" d="M161.2,45.4c-1.4,0-2.7-0.7-3.4-1.9c-5.7-9.4-13.5-16.4-23.2-21c-2-0.9-2.9-3.3-1.9-5.3
				c0.9-2,3.3-2.9,5.3-1.9c11.1,5.2,20.1,13.3,26.6,24.1c1.1,1.9,0.5,4.3-1.3,5.5C162.6,45.3,161.9,45.4,161.2,45.4z"/>
		</g>
	</g>
	<g>
		<g>
			<path class="st1" d="M235.7,118.9c-1.4,0-2.8-0.8-3.5-2.1c-4.4-8.2-11.3-14.1-21-18.3c-2-0.9-3-3.2-2.1-5.2c0.9-2,3.2-3,5.2-2.1
				c11.3,4.8,19.7,12.1,24.9,21.8c1,1.9,0.3,4.4-1.6,5.4C237,118.8,236.3,118.9,235.7,118.9z"/>
		</g>
	</g>
</g>
</svg>
