<?xml version="1.0" encoding="utf-8"?>
<!-- Generator: Adobe Illustrator 22.1.0, SVG Export Plug-In . SVG Version: 6.00 Build 0)  -->
<svg version="1.1" id="Layer_1" xmlns="http://www.w3.org/2000/svg" xmlns:xlink="http://www.w3.org/1999/xlink" x="0px" y="0px"
	 viewBox="0 0 256 256" style="enable-background:new 0 0 256 256;" xml:space="preserve">
<style type="text/css">
	.st0{fill:#F5B31F;}
	.st1{fill:#464646;}
	.st2{opacity:0.15;}
	.st3{fill:#AC6535;}
	.st4{fill:#EB573B;}
	.st5{fill:#90C056;}
	.st6{opacity:0.35;}
	.st7{fill:#FFFFFF;}
	.st8{opacity:0.2;}
	.st9{fill:#F6D67A;}
	.st10{opacity:0.3;}
	.st11{fill:#FFA755;}
	.st12{fill:#8FAE3C;}
	.st13{fill:#BE6BB2;}
	.st14{fill:#B7C536;}
	.st15{opacity:0.1;}
	.st16{fill:#9D5A96;}
	.st17{fill:#EA615D;}
	.st18{opacity:0.4;}
	.st19{fill:#F79932;}
	.st20{fill:#FFEC97;}
	.st21{fill:#FFD11D;}
	.st22{fill:#F7F2D5;}
	.st23{fill:#F6AF72;}
	.st24{fill:#BA6C45;}
	.st25{opacity:0.5;}
	.st26{fill:#E4C074;}
	.st27{fill:#656566;}
	.st28{fill:#FACD1F;}
	.st29{fill:#FFDF66;}
	.st30{fill:#6D6E71;}
	.st31{fill:#E77CAE;}
	.st32{fill:#FFE5C4;}
	.st33{fill:#F68455;}
	.st34{opacity:0.7;}
	.st35{fill:#ADEDFF;}
	.st36{fill:#EC754B;}
	.st37{fill:#4AA5BA;}
	.st38{opacity:0.8;}
	.st39{fill:#92A5AC;}
	.st40{fill:#D06E3C;}
	.st41{fill:#DA4F4B;}
	.st42{fill:#BDF3FF;}
	.st43{fill:#F18BB4;}
	.st44{fill:#F9D97A;}
	.st45{fill:none;}
	.st46{fill:#AF6535;}
	.st47{fill:#B93226;}
	.st48{fill:#FF6050;}
	.st49{fill:#EA7CB1;}
	.st50{fill:#00B0E0;}
	.st51{fill:#EA7DAE;}
	.st52{fill:#BC7532;}
	.st53{fill:#876C6C;}
	.st54{fill:#F9F6CD;}
	.st55{fill:#FFE37B;}
	.st56{fill:#1DDCFF;}
	.st57{fill:#60ACF7;}
	.st58{fill:#C3755A;}
	.st59{fill:#96557A;}
	.st60{fill:#66625D;}
	.st61{fill:#D68032;}
	.st62{fill:#F2A355;}
	.st63{fill:#7E9E6A;}
	.st64{fill:#965A85;}
	.st65{fill:#90CAD3;}
	.st66{fill:#94B57F;}
	.st67{fill:#B2E2E7;}
	.st68{fill:#FFDF8F;}
	.st69{fill:#FFFAEB;}
	.st70{fill:#F88916;}
	.st71{fill:#FFC86E;}
	.st72{fill:#AFA51D;}
	.st73{fill:#968A1C;}
	.st74{fill:#C3556D;}
</style>
<g>
	<g>
		<g>
			<path class="st31" d="M241.8,180.1l0,17.8l-224.9,0l0-41.8c0,0,8.5,3.8,14.4,3.8c5.9,0,26.9-8.6,33.2-8.6s22.6,8.6,22.6,8.6
				l0,18.2c0,9,15.9,9,15.9,0l0-20.2c0,0,14.4-6.7,22.2-6.7s22.5,8.6,31.1,8.6s23.9-10.1,32.2-10.1c8.3,0,29.8,8.6,29.8,8.6l0,21.6
				C218.2,192.9,241.8,192.9,241.8,180.1z"/>
		</g>
	</g>
	<g>
		<g>
			<path class="st31" d="M203.1,60l0,29.8l-149.5,0l0-29.9c6.5,1.9,12.7,1.9,18.7-0.5l0,18c0,9.9,18,9.9,18,0c0,0,0-15.6,0-19.4
				s2.6-8.9,7.2-8.9c4.6,0,23.1,12.5,30.8,12.5c7.7,0,22.6-11.2,30.3-11.2c7.7,0,21.4,10.4,31.7,10.4
				C195.9,60.8,200.3,60.4,203.1,60z"/>
		</g>
	</g>
	<g>
		<g>
			<rect x="16.8" y="197.8" class="st9" width="224.9" height="35"/>
		</g>
	</g>
	<g class="st15">
		<g>
			<path class="st1" d="M241.8,197.8l0,35l-224.9,0c0,0,190.4-8.4,207.9-12S241.8,197.8,241.8,197.8z"/>
		</g>
	</g>
	<g>
		<g>
			<rect x="53.6" y="89.8" class="st9" width="149.5" height="31.7"/>
		</g>
	</g>
	<g class="st15">
		<g>
			<path class="st1" d="M203.1,89.8l0,31.7l-149.5,0c0,0,120.9-2.7,135.2-12.4C203.1,99.4,203.1,89.8,203.1,89.8z"/>
		</g>
	</g>
	<g>
		<g>
			<path class="st1" d="M241.8,201.8L241.8,201.8l-224.9,0c-2.2,0-4-1.8-4-4l0-41.8c0-1.4,0.7-2.6,1.8-3.4c1.1-0.7,2.6-0.8,3.8-0.3
				c2.1,1,8.6,3.5,12.8,3.5c2.3,0,9.3-2.2,15-4c9-2.9,14.6-4.6,18.2-4.6c0,0,0,0,0,0c6.9,0,21.6,7.6,24.5,9.1
				c1.3,0.7,2.1,2.1,2.1,3.5l0,18.2c0,2.6,3.5,2.7,3.9,2.7s3.9-0.1,3.9-2.7l0-20.2c0-1.6,0.9-3,2.3-3.6c1.6-0.7,15.4-7.1,23.9-7.1
				c0,0,0,0,0,0c4.6,0,10.3,2.2,16.3,4.4c5.5,2.1,11.1,4.2,14.8,4.2c3.6,0,9.5-2.5,14.8-4.8c6.4-2.7,12.4-5.3,17.4-5.3c0,0,0,0,0,0
				c8.9,0,29,8,31.3,8.9c1.5,0.6,2.5,2.1,2.5,3.7l0,21.6c0,4.4,4.9,5.6,7.8,5.6s7.8-1.2,7.8-5.6c0-2.2,1.8-4,4-4l0,0
				c2.2,0,4,1.8,4,4l0,17.8c0,1.1-0.4,2.1-1.2,2.8S242.8,201.8,241.8,201.8z M20.8,193.8l216.9,0V192c-2.4,1.1-5.1,1.6-7.8,1.6
				c0,0,0,0,0,0c-7.8,0-15.8-4.7-15.8-13.6l0-18.9c-7.1-2.7-20.3-7.4-25.8-7.4c-3.3,0-8.9,2.4-14.3,4.6c-6.6,2.8-12.8,5.4-18,5.4
				c0,0,0,0,0,0c-5.2,0-11.5-2.4-17.7-4.7c-5.1-1.9-10.3-3.9-13.4-3.9c-4.8,0-13.4,3.2-18.2,5.3l0,17.6c0,6.2-5,10.7-11.9,10.7
				c-6.9,0-11.9-4.5-11.9-10.7l0-15.8c-6.4-3.2-15.3-7.1-18.6-7.1c-2.5,0-9.9,2.3-15.8,4.2c-8.6,2.8-14.1,4.4-17.4,4.4
				c-3.4,0-7.3-1-10.4-2L20.8,193.8z"/>
		</g>
	</g>
	<g>
		<g>
			<path class="st1" d="M241.8,236.9L241.8,236.9l-224.9,0c-1.1,0-2.1-0.4-2.8-1.2c-0.8-0.8-1.2-1.8-1.2-2.8l0-35c0-2.2,1.8-4,4-4
				l0,0l224.9,0c1.1,0,2.1,0.4,2.8,1.2c0.8,0.8,1.2,1.8,1.2,2.8l0,35C245.8,235.1,244,236.9,241.8,236.9z M20.8,228.9l216.9,0l0-27
				l-216.9,0L20.8,228.9z"/>
		</g>
	</g>
	<g>
		<g>
			<path class="st1" d="M203.1,93.8L203.1,93.8l-149.5,0c-2.2,0-4-1.8-4-4l0-29.9c0-1.3,0.6-2.5,1.6-3.2c1-0.8,2.3-1,3.5-0.6
				c5.9,1.7,11.1,1.6,16.1-0.4c1.2-0.5,2.6-0.4,3.7,0.4c1.1,0.7,1.8,2,1.8,3.3l0,18c0,3.4,4.8,3.4,5,3.4c0.2,0,5,0,5-3.4l0-19.4
				c0-2.8,1-5.8,2.6-8.2c2.1-3,5.2-4.7,8.6-4.7c0,0,0,0,0,0c2.8,0,6.6,1.9,13.7,5.5c5.8,3,13.7,7,17.1,7c2.9,0,8.5-2.7,13.4-5.2
				c6.2-3.1,12.1-6,16.9-6c0,0,0,0,0,0c4.4,0,9.7,2.4,15.3,5c5.5,2.5,11.8,5.4,16.4,5.4c0,0,0,0,0,0c5.4,0,9.6-0.4,12.2-0.8
				c1.1-0.2,2.3,0.2,3.2,1c0.9,0.8,1.4,1.9,1.4,3l0,29.8C207.1,92,205.3,93.8,203.1,93.8z M90.4,85.8l108.7,0l0-21.4
				c-2.4,0.2-5.4,0.3-8.7,0.3c0,0,0,0,0,0c-6.4,0-13.5-3.3-19.8-6.2c-4.6-2.1-9.3-4.3-12-4.3c-2.9,0-8.5,2.7-13.4,5.2
				c-6.2,3.1-12.1,6-16.9,6c0,0,0,0,0,0c-5.3,0-13.2-4-20.7-7.9c-3.7-1.9-8.7-4.4-10.1-4.6c-0.7,0-1.3,0.4-2,1.3
				c-0.7,1-1.2,2.4-1.2,3.6l0,19.4C94.4,80.8,92.9,83.8,90.4,85.8z M57.6,85.8l14.8,0c-2.5-2-4-5-4-8.5l0-12.6
				c-3.5,0.7-7.1,0.7-10.7,0.2L57.6,85.8z"/>
		</g>
	</g>
	<g>
		<g>
			<path class="st1" d="M203.1,125.5L203.1,125.5l-149.5,0c-2.2,0-4-1.8-4-4l0-31.7c0-1.1,0.4-2.1,1.2-2.8s1.8-1.2,2.8-1.2l0,0
				l149.5,0c2.2,0,4,1.8,4,4l0,31.7c0,1.1-0.4,2.1-1.2,2.8S204.2,125.5,203.1,125.5z M57.6,117.5l141.5,0l0-23.7l-141.5,0
				L57.6,117.5z"/>
		</g>
	</g>
	<g class="st8">
		<g>
			<path class="st1" d="M203.1,65.8l0,9.6c0,0-7.2,0.8-12.7,0.8c-10.3,0-24-10.4-31.7-10.4c-7.7,0-22.6,11.2-30.3,11.2
				c-7.7,0-26-12.4-28.2-11.8c-2.2,0.5-0.5,8.1-0.5,11.9c0,3.8-2.7,11.3-2.7,11.3c0,9.9-30,4.9-30.8-0.2c-0.8-5-4.4-11.6-4.4-11.6
				s-1.6,0.7-8.1-1.2c-0.6-0.2-1.7-0.5-1.7-0.5l0-36l155,1.5L203.1,65.8z"/>
		</g>
	</g>
	<g>
		<g>
			<path class="st3" d="M207,59.3c0,0-1.4,0.3-3.8,0.6c-2.9,0.4-7.2,0.8-12.7,0.8c-10.3,0-24-10.4-31.7-10.4
				c-7.7,0-22.6,11.2-30.3,11.2c-7.7,0-26.2-12.5-30.8-12.5c-4.6,0-7.2,5-7.2,8.9s0,19.4,0,19.4c0,9.9-18,9.9-18,0l0-18
				c-6,2.4-12.3,2.5-18.7,0.5c-0.6-0.2-1.1-0.3-1.7-0.5c-17.9,0-17.9-36,0-36l155,1.5C221.1,24.8,221.1,59.3,207,59.3z"/>
		</g>
	</g>
	<g class="st2">
		<g>
			<path class="st7" d="M207,24.8L52,23.3c-17.9,0-17.9,36,0,36c0,0-6.2-14.4,8.7-22.8S207,24.8,207,24.8z"/>
		</g>
	</g>
	<g>
		<g>
			<path class="st1" d="M81.4,88.8C81.4,88.8,81.4,88.8,81.4,88.8c-7.5,0-13-4.8-13-11.4l0-12.6c-5,1-10.4,0.7-15.9-1
				c-0.4-0.1-0.8-0.2-1.2-0.4c-5.6-0.2-10.4-3.2-13.4-8.5c-4.4-7.7-4.4-19.3,0-27C41,22.3,46,19.3,52,19.3c0,0,0,0,0,0l155,1.4
				c8.5,0,14.5,8.8,14.5,21.3c0,12.3-5.8,21-14.1,21.3c-0.6,0.1-1.9,0.4-3.8,0.6c-2.8,0.4-7.4,0.8-13.3,0.8c0,0,0,0,0,0
				c-6.4,0-13.5-3.3-19.8-6.2c-4.6-2.1-9.3-4.3-12-4.3c-2.9,0-8.5,2.7-13.4,5.2c-6.2,3.1-12.1,6-16.9,6c0,0,0,0,0,0
				c-5.3,0-13.2-4-20.7-7.9c-3.7-1.9-8.7-4.4-10.1-4.6c-0.7,0-1.3,0.4-2,1.3c-0.7,1-1.2,2.4-1.2,3.6l0,19.4
				C94.4,84,88.9,88.8,81.4,88.8z M72.4,55.3c0.8,0,1.6,0.2,2.2,0.7c1.1,0.7,1.8,2,1.8,3.3l0,18c0,3.4,4.8,3.4,5,3.4
				c0.2,0,5,0,5-3.4l0-19.4c0-2.8,1-5.8,2.6-8.2c2.1-3,5.2-4.7,8.6-4.7c0,0,0,0,0,0c2.8,0,6.6,1.9,13.7,5.5c5.8,3,13.7,7,17.1,7
				c2.9,0,8.5-2.7,13.4-5.2c6.2-3.1,12.1-6,16.9-6l0,0c4.4,0,9.7,2.4,15.3,5c5.5,2.5,11.8,5.4,16.4,5.4c0,0,0,0,0,0
				c5.4,0,9.6-0.4,12.2-0.8c2.2-0.3,3.5-0.6,3.5-0.6c0.3-0.1,0.6-0.1,0.9-0.1l0,0c4.1,0,6.6-6.8,6.6-13.3c0-6.5-2.5-13.3-6.6-13.3
				l-155-1.4c-3,0-5.4,1.5-7.1,4.5c-3,5.2-3,13.8,0,19c1.7,3,4.1,4.5,7.2,4.5c0.4,0,0.9,0.1,1.3,0.2c0.5,0.2,1,0.3,1.5,0.5
				c5.9,1.8,11.1,1.6,16.1-0.4C71.4,55.4,71.9,55.3,72.4,55.3z"/>
		</g>
	</g>
	<g class="st8">
		<g>
			<path class="st1" d="M241.8,164.8l0,27.8c0,12.8-32.8,12-32.8-0.8l0-21.6c0,0-12.2-7.9-20.5-7.9c-8.3,0-23.6,10.1-32.2,10.1
				s-23.2-8.6-31.1-8.6c-7.9,0-13.3,5.7-13.3,5.7l0,20.2c0,10.5-33.7,10.5-33.7,0l-0.2-16.8c0,0-7.3-9-13.5-9s-27.2,8.6-33.2,8.6
				s-14.4-3.8-14.4-3.8l0-34.6l224.9,0L241.8,164.8z"/>
		</g>
	</g>
	<g>
		<g>
			<path class="st3" d="M241.8,152.2l0,27.8c0,12.8-23.6,12.8-23.6,0l0-21.6c0,0-21.5-8.6-29.8-8.6c-8.3,0-23.6,10.1-32.2,10.1
				s-23.2-8.6-31.1-8.6s-22.2,6.7-22.2,6.7l0,20.2c0,9-15.9,9-15.9,0l0-18.2c0,0-16.3-8.6-22.6-8.6s-27.2,8.6-33.2,8.6
				c-5.9,0-14.4-3.8-14.4-3.8c-17.1,0-17.1-34.6,0-34.6l224.9,0C255.4,121.5,255.4,152.2,241.8,152.2z"/>
		</g>
	</g>
	<g class="st2">
		<g>
			<path class="st7" d="M241.8,121.5l-224.9,0c-17.1,0-17.1,34.6,0,34.6c0,0-11-13.6,4.3-22.8C36.4,124.1,241.8,121.5,241.8,121.5z"
				/>
		</g>
	</g>
	<g>
		<g>
			<path class="st1" d="M230,193.7C230,193.7,230,193.7,230,193.7c-7.8,0-15.8-4.7-15.8-13.6l0-18.9c-7.1-2.7-20.3-7.4-25.8-7.4
				c-3.3,0-8.9,2.4-14.3,4.6c-6.6,2.8-12.8,5.4-18,5.4c0,0,0,0,0,0c-5.2,0-11.5-2.4-17.7-4.7c-5.1-1.9-10.3-3.9-13.4-3.9
				c-4.8,0-13.4,3.2-18.2,5.3l0,17.6c0,6.2-5,10.7-11.9,10.7c-2.9,0-5.7-0.9-7.9-2.5c-2.6-2-4.1-4.9-4.1-8.2l0-15.8
				c-6.4-3.2-15.3-7.1-18.6-7.1c-2.5,0-9.9,2.3-15.8,4.2c-8.6,2.8-14.1,4.4-17.4,4.4c-5.7,0-12.9-2.8-15.3-3.9
				C5.5,159.5,0,149.1,0,138.8c0-10.6,5.8-21.3,16.8-21.3c0,0,0,0,0,0l224.9,0c4.7,0,8.7,2.5,11.2,6.9c4,7,4,17.9,0,24.8
				c-1.8,3.1-4.3,5.3-7.2,6.3l0,24.5C245.8,189,237.8,193.7,230,193.7z M188.4,145.8C188.4,145.8,188.4,145.8,188.4,145.8
				c8.9,0,29,8,31.3,8.9c1.5,0.6,2.5,2.1,2.5,3.7l0,21.6c0,4.4,4.9,5.6,7.8,5.6s7.8-1.2,7.8-5.6l0-27.8c0-1.1,0.4-2.1,1.2-2.8
				s1.8-1.2,2.8-1.2l0,0c0,0,0,0,0,0c0.7,0,2.6,0,4.3-2.9c2.6-4.5,2.6-12.4,0-16.8c-1.7-2.9-3.7-2.9-4.3-2.9l-224.9,0
				c-6.1,0-8.8,6.9-8.8,13.3c0,6.4,2.8,13.3,8.8,13.3c0.6,0,1.1,0.1,1.6,0.4c2.1,1,8.6,3.5,12.8,3.5c2.3,0,9.3-2.2,15-4
				c9-2.9,14.6-4.6,18.2-4.6l0,0c6.9,0,21.6,7.6,24.5,9.1c1.3,0.7,2.1,2.1,2.1,3.5l0,18.2c0,0.8,0.3,1.4,0.9,1.8
				c0.7,0.5,1.9,0.9,3,0.9c0.4,0,3.9-0.1,3.9-2.7l0-20.2c0-1.6,0.9-3,2.3-3.6c1.6-0.7,15.4-7.1,23.9-7.1c0,0,0,0,0,0
				c4.6,0,10.3,2.2,16.3,4.4c5.5,2.1,11.1,4.2,14.8,4.2c3.6,0,9.5-2.5,14.8-4.8C177.4,148.4,183.5,145.8,188.4,145.8z"/>
		</g>
	</g>
</g>
</svg>
