<?xml version="1.0" encoding="utf-8"?>
<!-- Generator: Adobe Illustrator 22.1.0, SVG Export Plug-In . SVG Version: 6.00 Build 0)  -->
<svg version="1.1" id="Layer_1" xmlns="http://www.w3.org/2000/svg" xmlns:xlink="http://www.w3.org/1999/xlink" x="0px" y="0px"
	 viewBox="0 0 256 256" style="enable-background:new 0 0 256 256;" xml:space="preserve">
<style type="text/css">
	.st0{fill:#F5B31F;}
	.st1{fill:#464646;}
	.st2{opacity:0.15;}
	.st3{fill:#AC6535;}
	.st4{fill:#EB573B;}
	.st5{fill:#90C056;}
	.st6{opacity:0.35;}
	.st7{fill:#FFFFFF;}
	.st8{opacity:0.2;}
	.st9{fill:#F6D67A;}
	.st10{opacity:0.3;}
	.st11{fill:#FFA755;}
	.st12{fill:#8FAE3C;}
	.st13{fill:#BE6BB2;}
	.st14{fill:#B7C536;}
	.st15{opacity:0.1;}
	.st16{fill:#9D5A96;}
	.st17{fill:#EA615D;}
	.st18{opacity:0.4;}
	.st19{fill:#F79932;}
	.st20{fill:#FFEC97;}
	.st21{fill:#FFD11D;}
	.st22{fill:#F7F2D5;}
	.st23{fill:#F6AF72;}
	.st24{fill:#BA6C45;}
	.st25{opacity:0.5;}
	.st26{fill:#E4C074;}
	.st27{fill:#656566;}
	.st28{fill:#FACD1F;}
	.st29{fill:#FFDF66;}
	.st30{fill:#6D6E71;}
	.st31{fill:#E77CAE;}
	.st32{fill:#FFE5C4;}
	.st33{fill:#F68455;}
	.st34{opacity:0.7;}
	.st35{fill:#ADEDFF;}
	.st36{fill:#EC754B;}
	.st37{fill:#4AA5BA;}
	.st38{opacity:0.8;}
	.st39{fill:#92A5AC;}
	.st40{fill:#D06E3C;}
	.st41{fill:#DA4F4B;}
	.st42{fill:#BDF3FF;}
	.st43{fill:#F18BB4;}
	.st44{fill:#F9D97A;}
	.st45{fill:none;}
	.st46{fill:#AF6535;}
	.st47{fill:#B93226;}
	.st48{fill:#FF6050;}
	.st49{fill:#EA7CB1;}
	.st50{fill:#00B0E0;}
	.st51{fill:#EA7DAE;}
	.st52{fill:#BC7532;}
	.st53{fill:#876C6C;}
	.st54{fill:#F9F6CD;}
	.st55{fill:#FFE37B;}
	.st56{fill:#1DDCFF;}
	.st57{fill:#60ACF7;}
	.st58{fill:#C3755A;}
	.st59{fill:#96557A;}
	.st60{fill:#66625D;}
	.st61{fill:#D68032;}
	.st62{fill:#F2A355;}
	.st63{fill:#7E9E6A;}
	.st64{fill:#965A85;}
	.st65{fill:#90CAD3;}
	.st66{fill:#94B57F;}
	.st67{fill:#B2E2E7;}
	.st68{fill:#FFDF8F;}
	.st69{fill:#FFFAEB;}
	.st70{fill:#F88916;}
	.st71{fill:#FFC86E;}
	.st72{fill:#AFA51D;}
	.st73{fill:#968A1C;}
	.st74{fill:#C3556D;}
</style>
<g>
	<g>
		<g>
			<g>
				<path class="st21" d="M92.1,100.7c0.5,1.6,0.7,3.4,0.7,5.1c0,10.6-9.1,19.2-20.4,19.2c-11.3,0-20.4-8.6-20.4-19.2
					c0-3.8,1.2-7.3,3.2-10.3L4,88.3l0,28.9c2.2-0.5,4.4-0.8,6.7-0.8c14.9,0,27.1,11.4,27.1,25.5c0,14.1-12.1,25.5-27.1,25.5
					c-2.3,0-4.6-0.3-6.7-0.8l0,24.7l248,33.8l0-102L92.1,100.7z M109.5,189c-8.3,0-15-6.3-15-14.1c0-7.8,6.7-14.1,15-14.1
					c8.3,0,15,6.3,15,14.1C124.5,182.7,117.8,189,109.5,189z M196.2,182.2c-12.6,0-22.8-9.6-22.8-21.5c0-11.9,10.2-21.5,22.8-21.5
					c12.6,0,22.8,9.6,22.8,21.5C219,172.6,208.8,182.2,196.2,182.2z"/>
			</g>
		</g>
	</g>
	<g>
		<g>
			<g>
				<path class="st21" d="M197.7,79.3l-59.5-48.1C71.8,32.3,29.2,53.1,4,88.3l51.2,7.2c8.2-16.4,50-13.6,36.9,5.2L252,123.1
					l-34.5-27.8C207.2,96.1,192.4,89.5,197.7,79.3z M130.5,50.3c12.4,0,22.5,5.4,22.5,12c0,6.6-10.1,12-22.5,12
					c-12.4,0-22.5-5.4-22.5-12C108.1,55.7,118.1,50.3,130.5,50.3z"/>
			</g>
		</g>
	</g>
	<g>
		<g>
			<g>
				<path class="st21" d="M219,160.8c0,11.9-10.2,21.5-22.8,21.5c-12.6,0-22.8-9.6-22.8-21.5c0-11.9,10.2-21.5,22.8-21.5
					C208.8,139.3,219,148.9,219,160.8z"/>
			</g>
		</g>
	</g>
	<g class="st8">
		<g>
			<g>
				<path class="st1" d="M210.7,144.2c-3.9-3.1-9-4.9-14.5-4.9c-12.6,0-22.8,9.6-22.8,21.5c0,11.9,10.2,21.5,22.8,21.5
					c4.1,0,7.9-1,11.3-2.8C179.4,182,184.3,139.3,210.7,144.2z"/>
			</g>
		</g>
	</g>
	<g>
		<g>
			<g>
				<path class="st21" d="M124.5,174.9c0,7.8-6.7,14.1-15,14.1c-8.3,0-15-6.3-15-14.1c0-7.8,6.7-14.1,15-14.1
					C117.8,160.8,124.5,167.1,124.5,174.9z"/>
			</g>
		</g>
	</g>
	<g class="st8">
		<g>
			<g>
				<path class="st1" d="M118.2,163.3c-2.4-1.6-5.4-2.6-8.6-2.6c-8.3,0-15,6.3-15,14.1c0,7.8,6.7,14.1,15,14.1c1.8,0,3.4-0.3,5-0.8
					C98.3,183.4,101.5,166,118.2,163.3z"/>
			</g>
		</g>
	</g>
	<g>
		<g>
			<g>
				<path class="st21" d="M92.1,100.7c0.5,1.6,0.7,3.4,0.7,5.1c0,10.6-9.1,19.2-20.4,19.2c-11.3,0-20.4-8.6-20.4-19.2
					c0-3.8,1.2-7.3,3.2-10.3C63.5,79.2,105.3,81.9,92.1,100.7z"/>
			</g>
		</g>
	</g>
	<g class="st8">
		<g>
			<g>
				<path class="st1" d="M89.6,87c-9.4-4.7-29-2.2-34.4,8.5c-2,3-3.2,6.5-3.2,10.3c0,10.6,9.1,19.2,20.4,19.2
					C57.8,116.5,66.1,86.2,89.6,87z"/>
			</g>
		</g>
	</g>
	<g>
		<g>
			<g>
				<path class="st21" d="M108.1,62.3c0,6.6,10.1,12,22.5,12c12.4,0,22.5-5.4,22.5-12c0-6.6-10.1-12-22.5-12
					C118.1,50.3,108.1,55.7,108.1,62.3z"/>
			</g>
		</g>
	</g>
	<g class="st8">
		<g>
			<g>
				<path class="st1" d="M146.9,54.1c-4.1-2.3-9.9-3.8-16.4-3.8c-12.4,0-22.5,5.4-22.5,12c0,6.6,10.1,12,22.5,12
					c3,0,5.9-0.3,8.5-0.9C110.5,72.2,117.5,48.2,146.9,54.1z"/>
			</g>
		</g>
	</g>
	<g>
		<g>
			<g>
				<path class="st21" d="M37.8,142c0,14.1-12.1,25.5-27.1,25.5c6.6-17,6.6-34,0-51C25.7,116.5,37.8,127.9,37.8,142z"/>
			</g>
		</g>
	</g>
	<g class="st8">
		<g>
			<g>
				<path class="st1" d="M37.8,142c0,14.1-12.1,25.5-27.1,25.5c21.4-15.3,20.7-35.6,0-51C25.7,116.5,37.8,127.9,37.8,142z"/>
			</g>
		</g>
	</g>
	<g>
		<g>
			<g>
				<path class="st1" d="M252,229.2c-0.2,0-0.4,0-0.5,0l-248-33.8c-2-0.3-3.5-2-3.5-4v-24.7c0-1.2,0.6-2.4,1.5-3.1
					c1-0.8,2.2-1,3.4-0.7c1.9,0.5,3.9,0.7,5.8,0.7c12.7,0,23.1-9.6,23.1-21.5c0-11.9-10.3-21.5-23-21.5c-2,0-3.9,0.2-5.8,0.7
					c-1.2,0.3-2.4,0-3.4-0.8c-1-0.8-1.5-1.9-1.5-3.1v-29c0-1.2,0.5-2.3,1.4-3c0.9-0.8,2-1.1,3.2-0.9l51.2,7.2
					c1.4,0.2,2.5,1.1,3.1,2.3c0.6,1.3,0.4,2.7-0.3,3.9c-1.6,2.4-2.5,5.2-2.5,8.1c0,8.4,7.4,15.2,16.4,15.2c9,0,16.4-6.8,16.4-15.2
					c0-1.4-0.2-2.7-0.6-4c-0.4-1.3-0.1-2.7,0.8-3.7c0.9-1,2.2-1.5,3.6-1.3l159.9,22.4c2,0.3,3.4,2,3.4,4v102c0,1.2-0.5,2.3-1.4,3
					C253.9,228.8,253,229.2,252,229.2z M8,187.9l240,32.7v-94L96.9,105.4c0,0.1,0,0.3,0,0.4c0,12.8-11,23.2-24.4,23.2
					c-13.5,0-24.4-10.4-24.4-23.2c0-2.4,0.4-4.8,1.2-7.1L8,92.9v19.7c0.9-0.1,1.8-0.1,2.8-0.1c17.1,0,31,13.2,31,29.5
					c0,16.3-13.9,29.5-31.1,29.5c-0.9,0-1.8,0-2.7-0.1V187.9z M109.5,193c-10.5,0-19-8.1-19-18.1c0-10,8.5-18.1,19-18.1
					c10.5,0,19,8.1,19,18.1C128.5,184.9,120,193,109.5,193z M109.5,164.8c-6.1,0-11,4.5-11,10.1c0,5.6,4.9,10.1,11,10.1
					c6.1,0,11-4.5,11-10.1C120.5,169.3,115.6,164.8,109.5,164.8z M196.2,186.2c-7.1,0-13.8-2.6-18.8-7.4c-5.1-4.8-7.9-11.2-7.9-18.1
					c0-14,12-25.5,26.8-25.5c14.8,0,26.8,11.4,26.8,25.5C223,174.8,211,186.2,196.2,186.2z M196.2,143.3c-10.3,0-18.8,7.8-18.8,17.5
					c0,4.6,1.9,9,5.4,12.3c3.6,3.4,8.3,5.2,13.4,5.2c10.3,0,18.8-7.8,18.8-17.5C215,151.1,206.6,143.3,196.2,143.3z"/>
			</g>
		</g>
	</g>
	<g>
		<g>
			<g>
				<path class="st1" d="M252,127.1c-0.2,0-0.4,0-0.6,0L91.6,104.7c-1.4-0.2-2.6-1.1-3.1-2.4c-0.6-1.3-0.4-2.7,0.4-3.9
					c1.2-1.7,2.4-4,1.5-5.6c-1-1.9-5.2-4-12.1-4c-0.1,0-0.2,0-0.3,0c-7.2,0.1-16.3,2.8-19.2,8.5c-0.8,1.5-2.4,2.4-4.1,2.2L3.5,92.3
					c-1.4-0.2-2.6-1.1-3.1-2.4C-0.2,88.6,0,87.1,0.8,86C14.1,67.4,32,53,54,43.3c23-10.1,51.3-15.6,84.1-16.1c0.9,0,1.8,0.3,2.6,0.9
					l59.5,48.1c1.5,1.2,1.9,3.3,1,5c-1.1,2.2-0.6,3.6,0,4.5c2.3,3.5,9.8,6.2,16,5.7c1-0.1,2,0.2,2.8,0.9l34.5,27.8
					c1.4,1.1,1.9,3.1,1.2,4.7C255.1,126.2,253.6,127.1,252,127.1z M98.2,97.5l140.1,19.7l-22-17.8c-7.7,0.1-17.4-3-21.6-9.3
					c-1.9-2.9-2.5-6.1-1.6-9.4l-56.2-45.3C78.5,36.5,37.4,52.9,11.3,85.3l41.9,5.9c5.5-7.5,16.4-10.4,24.7-10.4
					c9.5-0.1,16.7,3,19.5,8.3C98.5,91,99.2,93.9,98.2,97.5z M130.5,78.4c-15.1,0-26.5-6.9-26.5-16c0-9.1,11.4-16,26.5-16
					s26.5,6.9,26.5,16C157,71.5,145.6,78.4,130.5,78.4z M130.5,54.3c-11.3,0-18.5,4.7-18.5,8c0,3.3,7.2,8,18.5,8s18.5-4.7,18.5-8
					C149,59.1,141.8,54.3,130.5,54.3z"/>
			</g>
		</g>
	</g>
	<g>
		<g>
			<g>
				<path class="st1" d="M196.2,186.2C196.2,186.2,196.2,186.2,196.2,186.2c-7.1,0-13.8-2.6-18.8-7.4c-5.1-4.8-7.9-11.2-7.9-18.1
					c0-14,12-25.5,26.8-25.5c0,0,0,0,0,0c7.1,0,13.8,2.6,18.8,7.4c5.1,4.8,7.9,11.2,7.9,18.1C223,174.8,211,186.2,196.2,186.2z
					 M196.2,143.3c-10.3,0-18.8,7.8-18.8,17.5c0,4.6,1.9,9,5.4,12.3c3.6,3.4,8.3,5.2,13.4,5.2c10.3,0,18.8-7.8,18.8-17.5l4,0l-4,0
					c0-4.6-1.9-9-5.4-12.3C206,145.2,201.3,143.3,196.2,143.3z"/>
			</g>
		</g>
	</g>
	<g>
		<g>
			<g>
				<path class="st1" d="M109.5,193C109.5,193,109.5,193,109.5,193c-10.5,0-19-8.1-19-18.1c0-10,8.5-18.1,19-18.1c0,0,0,0,0,0
					c5,0,9.8,1.9,13.3,5.2c3.6,3.4,5.6,8,5.6,12.9l0,0c0,0,0,0,0,0c0,4.9-2,9.5-5.6,12.9C119.3,191.2,114.6,193,109.5,193z
					 M109.5,164.8c-6.1,0-11,4.5-11,10.1c0,5.6,4.9,10.1,11,10.1h0c3,0,5.8-1.1,7.8-3c2-1.9,3.1-4.4,3.1-7.1v0
					c0-2.7-1.1-5.2-3.1-7.1C115.3,165.9,112.5,164.8,109.5,164.8z"/>
			</g>
		</g>
	</g>
	<g>
		<g>
			<g>
				<path class="st1" d="M72.5,129.1C72.5,129.1,72.5,129.1,72.5,129.1c-6.5,0-12.6-2.4-17.2-6.7c-4.7-4.4-7.2-10.3-7.2-16.5
					c0-4.4,1.3-8.6,3.7-12.3c4.8-9.3,17.1-12.6,26.2-12.7c9.5-0.1,16.7,3,19.5,8.3c1.4,2.6,2.2,6.8-1,12.4c0.3,1.5,0.4,2.9,0.4,4.4
					C96.9,118.6,85.9,129.1,72.5,129.1z M78.3,88.8c-0.1,0-0.2,0-0.3,0c-7.2,0.1-16.3,2.8-19.2,8.5c-0.1,0.1-0.2,0.3-0.3,0.4
					c-1.6,2.4-2.5,5.2-2.5,8.1c0,4,1.7,7.8,4.7,10.7c3.1,2.9,7.3,4.5,11.7,4.5c9,0,16.4-6.8,16.4-15.2c0-1.3-0.2-2.7-0.6-4
					c-0.3-1.2-0.1-2.4,0.6-3.4c1.2-1.7,2.4-4,1.5-5.6C89.3,90.8,85.1,88.8,78.3,88.8z"/>
			</g>
		</g>
	</g>
	<g>
		<g>
			<g>
				<path class="st1" d="M130.5,78.3C130.5,78.3,130.5,78.3,130.5,78.3c-15.1,0-26.5-6.9-26.5-16c0-4.8,3.1-9,8.7-12
					c4.8-2.6,11.1-4,17.8-4c0,0,0,0,0,0c6.7,0,13,1.4,17.8,4c5.6,3,8.7,7.3,8.7,12c0,4.8-3.1,9-8.7,12
					C143.5,76.9,137.2,78.3,130.5,78.3z M130.5,54.3c-5.3,0-10.4,1.1-14,3c-2.8,1.5-4.5,3.4-4.5,5c0,3.3,7.2,8,18.5,8c0,0,0,0,0,0
					c5.3,0,10.4-1.1,14-3c2.8-1.5,4.5-3.4,4.5-5c0-1.6-1.7-3.5-4.5-5C140.9,55.4,135.8,54.3,130.5,54.3
					C130.5,54.3,130.5,54.3,130.5,54.3z"/>
			</g>
		</g>
	</g>
	<g>
		<g>
			<g>
				<path class="st1" d="M10.8,171.5C10.8,171.5,10.8,171.5,10.8,171.5c-1.3,0-2.6-0.7-3.3-1.7c-0.7-1.1-0.9-2.5-0.4-3.7
					c6.2-16,6.2-32.2,0-48.1c-0.5-1.2-0.3-2.6,0.4-3.7c0.7-1.1,2-1.7,3.3-1.7l0,0c8.3,0,16,3,21.9,8.6c5.9,5.6,9.2,13,9.2,21
					C41.8,158.3,27.9,171.5,10.8,171.5z M16.6,121.2c4.1,13.8,4.1,27.8,0,41.6c9.9-2.4,17.2-10.8,17.2-20.8l4,0l-4,0
					c0-5.7-2.4-11.1-6.7-15.1C24.2,124.1,20.6,122.1,16.6,121.2z"/>
			</g>
		</g>
	</g>
</g>
</svg>
