<?xml version="1.0" encoding="utf-8"?>
<!-- Generator: Adobe Illustrator 22.1.0, SVG Export Plug-In . SVG Version: 6.00 Build 0)  -->
<svg version="1.1" id="Layer_1" xmlns="http://www.w3.org/2000/svg" xmlns:xlink="http://www.w3.org/1999/xlink" x="0px" y="0px"
	 viewBox="0 0 256 256" style="enable-background:new 0 0 256 256;" xml:space="preserve">
<style type="text/css">
	.st0{fill:#F5B31F;}
	.st1{fill:#464646;}
	.st2{opacity:0.15;}
	.st3{fill:#AC6535;}
	.st4{fill:#EB573B;}
	.st5{fill:#90C056;}
	.st6{opacity:0.35;}
	.st7{fill:#FFFFFF;}
	.st8{opacity:0.2;}
	.st9{fill:#F6D67A;}
	.st10{opacity:0.3;}
	.st11{fill:#FFA755;}
	.st12{fill:#8FAE3C;}
	.st13{fill:#BE6BB2;}
	.st14{fill:#B7C536;}
	.st15{opacity:0.1;}
	.st16{fill:#9D5A96;}
	.st17{fill:#EA615D;}
	.st18{opacity:0.4;}
	.st19{fill:#F79932;}
	.st20{fill:#FFEC97;}
	.st21{fill:#FFD11D;}
	.st22{fill:#F7F2D5;}
	.st23{fill:#F6AF72;}
	.st24{fill:#BA6C45;}
	.st25{opacity:0.5;}
	.st26{fill:#E4C074;}
	.st27{fill:#656566;}
	.st28{fill:#FACD1F;}
	.st29{fill:#FFDF66;}
	.st30{fill:#6D6E71;}
	.st31{fill:#E77CAE;}
	.st32{fill:#FFE5C4;}
	.st33{fill:#F68455;}
	.st34{opacity:0.7;}
	.st35{fill:#ADEDFF;}
	.st36{fill:#EC754B;}
	.st37{fill:#4AA5BA;}
	.st38{opacity:0.8;}
	.st39{fill:#92A5AC;}
	.st40{fill:#D06E3C;}
	.st41{fill:#DA4F4B;}
	.st42{fill:#BDF3FF;}
	.st43{fill:#F18BB4;}
	.st44{fill:#F9D97A;}
	.st45{fill:none;}
	.st46{fill:#AF6535;}
	.st47{fill:#B93226;}
	.st48{fill:#FF6050;}
	.st49{fill:#EA7CB1;}
	.st50{fill:#00B0E0;}
	.st51{fill:#EA7DAE;}
	.st52{fill:#BC7532;}
	.st53{fill:#876C6C;}
	.st54{fill:#F9F6CD;}
	.st55{fill:#FFE37B;}
	.st56{fill:#1DDCFF;}
	.st57{fill:#60ACF7;}
	.st58{fill:#C3755A;}
	.st59{fill:#96557A;}
	.st60{fill:#66625D;}
	.st61{fill:#D68032;}
	.st62{fill:#F2A355;}
	.st63{fill:#7E9E6A;}
	.st64{fill:#965A85;}
	.st65{fill:#90CAD3;}
	.st66{fill:#94B57F;}
	.st67{fill:#B2E2E7;}
	.st68{fill:#FFDF8F;}
	.st69{fill:#FFFAEB;}
	.st70{fill:#F88916;}
	.st71{fill:#FFC86E;}
	.st72{fill:#AFA51D;}
	.st73{fill:#968A1C;}
	.st74{fill:#C3556D;}
</style>
<g>
	<g>
		<g>
			<polygon class="st42" points="95.2,60.9 95.2,113.6 120.8,113.6 120.8,144.6 133.1,172.5 133.1,251.9 201.1,251.9 201.1,60.1 
				212.9,29.1 212.9,3.9 108,3.9 108,28.3 			"/>
		</g>
	</g>
	<g class="st34">
		<g>
			<path class="st7" d="M163.6,251.9l-68,0l0-191.8l12.1-0.1c0,0,0.9,116.4,0.9,155.7C108.8,254.9,163.6,251.9,163.6,251.9z"/>
		</g>
	</g>
	<g>
		<g class="st15">
			<g>
				<path d="M38.2,169.1l0,78l77.9,0l0,4.7l25.4,0c0,0,0-78,0-83.9c0-5.9-12.5-24.9-12.5-29.5s2.3-24.5,0-26.6
					c-2.3-2.1-76.7,0-76.7,0l0,24.6L38.2,169.1z"/>
			</g>
		</g>
	</g>
	<g class="st34">
		<g>
			<polygon class="st7" points="201.1,60.1 212.9,29.1 108,28.3 95.2,60.9 			"/>
		</g>
	</g>
	<g>
		<g>
			<polygon class="st67" points="201.1,60.1 201.1,251.9 225.2,251.9 225.3,58.5 212.9,29.1 			"/>
		</g>
	</g>
	<g>
		<g>
			<path class="st1" d="M201.1,255.9C201.1,255.9,201.1,255.9,201.1,255.9l-68,0c-1.1,0-2.1-0.4-2.8-1.2c-0.8-0.8-1.2-1.8-1.2-2.8
				l0-78.6l-12-27.1c-0.2-0.5-0.3-1.1-0.3-1.6l0-27l-21.5,0c-1.1,0-2.1-0.4-2.8-1.2c-0.8-0.8-1.2-1.8-1.2-2.8l0-52.7
				c0-0.5,0.1-1,0.3-1.5L104,27.6l0-23.7c0-1.1,0.4-2.1,1.2-2.8c0.8-0.8,1.8-1.2,2.8-1.2c0,0,0,0,0,0l104.9,0c1.1,0,2.1,0.4,2.8,1.2
				c0.8,0.8,1.2,1.8,1.2,2.8l0,25.2c0,0.5-0.1,1-0.3,1.4l-11.5,30.3l0,191.1c0,1.1-0.4,2.1-1.2,2.8
				C203.2,255.5,202.2,255.9,201.1,255.9z M137.1,247.9l60,0l0-187.8c0-0.5,0.1-1,0.3-1.4l11.5-30.3l0-20.5l-96.9,0l0,20.4
				c0,0.5-0.1,1-0.3,1.5L99.2,61.6l0,47.9l21.5,0c1.1,0,2.1,0.4,2.8,1.2c0.8,0.8,1.2,1.8,1.2,2.8l0,30.2l12,27.1
				c0.2,0.5,0.3,1.1,0.3,1.6L137.1,247.9z"/>
		</g>
	</g>
	<g>
		<g>
			<path class="st1" d="M225.2,255.9C225.2,255.9,225.2,255.9,225.2,255.9l-24.1,0c-1.1,0-2.1-0.4-2.8-1.2c-0.8-0.8-1.2-1.8-1.2-2.8
				l0-191.8c0-0.5,0.1-1,0.3-1.4l11.7-31c0.6-1.5,2-2.6,3.7-2.6c1.6,0,3.1,0.9,3.8,2.4L228.9,57c0.2,0.5,0.3,1,0.3,1.6l0,193.4
				C229.2,254.1,227.5,255.9,225.2,255.9z M205.1,247.9l16.1,0l0-188.6l-8.2-19.5l-7.9,21L205.1,247.9z"/>
		</g>
	</g>
	<g>
		<g>
			<polygon class="st42" points="31,172.1 31,251.9 108,251.9 108,172.1 120.8,144.6 120.8,113.6 44.9,113.6 44.9,138.7 			"/>
		</g>
	</g>
	<g class="st34">
		<g>
			<path class="st7" d="M108,251.9l-77,0l0-79.8l10.9,0c0,0,0.3,51.2,0.3,63.7S108,251.9,108,251.9z"/>
		</g>
	</g>
	<g class="st34">
		<g>
			<polygon class="st7" points="108,172.1 120.8,142.4 43.8,141.4 31,172.1 			"/>
		</g>
	</g>
	<g>
		<g>
			<polygon class="st67" points="108,172.1 108,251.9 133.1,251.9 133.1,172.5 120.8,144.6 			"/>
		</g>
	</g>
	<g>
		<g>
			<path class="st1" d="M108,255.9L108,255.9l-77,0c-2.2,0-4-1.8-4-4l0-79.8c0-0.5,0.1-1.1,0.3-1.5l13.6-32.6l0-24.4
				c0-1.1,0.4-2.1,1.2-2.8c0.8-0.8,1.8-1.2,2.8-1.2c0,0,0,0,0,0l75.9,0c2.2,0,4,1.8,4,4l0,31c0,0.6-0.1,1.2-0.4,1.7L112,173l0,78.9
				c0,1.1-0.4,2.1-1.2,2.8C110.1,255.5,109,255.9,108,255.9z M35,247.9l69,0l0-75.8c0-0.6,0.1-1.2,0.4-1.7l12.4-26.7l0-26.1l-67.9,0
				l0,21.2c0,0.5-0.1,1.1-0.3,1.5L35,172.9L35,247.9z"/>
		</g>
	</g>
	<g>
		<g>
			<path class="st1" d="M133.1,255.9L133.1,255.9l-25.2,0c-1.1,0-2.1-0.4-2.8-1.2c-0.8-0.8-1.2-1.8-1.2-2.8l0-79.8
				c0-0.6,0.1-1.2,0.4-1.7l12.8-27.5c0.7-1.4,2.1-2.3,3.6-2.3c0,0,0,0,0,0c1.6,0,3,0.9,3.6,2.4l12.4,27.9c0.2,0.5,0.3,1.1,0.3,1.6
				l0,79.4C137.1,254.1,135.3,255.9,133.1,255.9z M112,247.9l17.2,0l0-74.6l-8.5-19.1L112,173L112,247.9z"/>
		</g>
	</g>
</g>
</svg>
