<?xml version="1.0" encoding="utf-8"?>
<!-- Generator: Adobe Illustrator 22.1.0, SVG Export Plug-In . SVG Version: 6.00 Build 0)  -->
<svg version="1.1" id="Layer_1" xmlns="http://www.w3.org/2000/svg" xmlns:xlink="http://www.w3.org/1999/xlink" x="0px" y="0px"
	 viewBox="0 0 256 256" style="enable-background:new 0 0 256 256;" xml:space="preserve">
<style type="text/css">
	.st0{fill:#F5B31F;}
	.st1{fill:#464646;}
	.st2{opacity:0.15;}
	.st3{fill:#AC6535;}
	.st4{fill:#EB573B;}
	.st5{fill:#90C056;}
	.st6{opacity:0.35;}
	.st7{fill:#FFFFFF;}
	.st8{opacity:0.2;}
	.st9{fill:#F6D67A;}
	.st10{opacity:0.3;}
	.st11{fill:#FFA755;}
	.st12{fill:#8FAE3C;}
	.st13{fill:#BE6BB2;}
	.st14{fill:#B7C536;}
	.st15{opacity:0.1;}
	.st16{fill:#9D5A96;}
	.st17{fill:#EA615D;}
	.st18{opacity:0.4;}
	.st19{fill:#F79932;}
	.st20{fill:#FFEC97;}
	.st21{fill:#FFD11D;}
	.st22{fill:#F7F2D5;}
	.st23{fill:#F6AF72;}
	.st24{fill:#BA6C45;}
	.st25{opacity:0.5;}
	.st26{fill:#E4C074;}
	.st27{fill:#656566;}
	.st28{fill:#FACD1F;}
	.st29{fill:#FFDF66;}
	.st30{fill:#6D6E71;}
	.st31{fill:#E77CAE;}
	.st32{fill:#FFE5C4;}
	.st33{fill:#F68455;}
	.st34{opacity:0.7;}
	.st35{fill:#ADEDFF;}
	.st36{fill:#EC754B;}
	.st37{fill:#4AA5BA;}
	.st38{opacity:0.8;}
	.st39{fill:#92A5AC;}
	.st40{fill:#D06E3C;}
	.st41{fill:#DA4F4B;}
	.st42{fill:#BDF3FF;}
	.st43{fill:#F18BB4;}
	.st44{fill:#F9D97A;}
	.st45{fill:none;}
	.st46{fill:#AF6535;}
	.st47{fill:#B93226;}
	.st48{fill:#FF6050;}
	.st49{fill:#EA7CB1;}
	.st50{fill:#00B0E0;}
	.st51{fill:#EA7DAE;}
	.st52{fill:#BC7532;}
	.st53{fill:#876C6C;}
	.st54{fill:#F9F6CD;}
	.st55{fill:#FFE37B;}
	.st56{fill:#1DDCFF;}
	.st57{fill:#60ACF7;}
	.st58{fill:#C3755A;}
	.st59{fill:#96557A;}
	.st60{fill:#66625D;}
	.st61{fill:#D68032;}
	.st62{fill:#F2A355;}
	.st63{fill:#7E9E6A;}
	.st64{fill:#965A85;}
	.st65{fill:#90CAD3;}
	.st66{fill:#94B57F;}
	.st67{fill:#B2E2E7;}
	.st68{fill:#FFDF8F;}
	.st69{fill:#FFFAEB;}
	.st70{fill:#F88916;}
	.st71{fill:#FFC86E;}
	.st72{fill:#AFA51D;}
	.st73{fill:#968A1C;}
	.st74{fill:#C3556D;}
</style>
<g>
	<g>
		<g>
			<path class="st12" d="M130.6,40.3c-42.9,19.8-63,3.5-68.3-36.4c0,0,10.5,8.8,39.6,6.7S130.6,40.3,130.6,40.3z"/>
		</g>
	</g>
	<g class="st10">
		<g>
			<path class="st7" d="M102,10.6c-29.1,2.1-39.6-6.7-39.6-6.7C64.9,23,70.8,36.7,81,43.6c0,0-6.2-11.9-2.5-21.6
				C82.1,12.3,102,10.6,102,10.6z"/>
		</g>
	</g>
	<g>
		<g>
			<path class="st0" d="M128.1,53.3c18,0,36,12.7,39.5,42.5s26.7,21.5,36.8,66.2s-30.8,89.9-76.3,89.9S41.8,206.8,51.9,162
				s33.3-36.4,36.8-66.2C92.2,66,110.1,53.3,128.1,53.3z"/>
		</g>
	</g>
	<g class="st10">
		<g>
			<path class="st7" d="M128.1,53.3c-18,0-36,12.7-39.5,42.5C85.2,125.6,62,117.3,51.9,162c-4.8,21.2,1.9,42.6,15.1,59.1
				c0,0-10.5-33.2-1.8-63.2s27.4-30.8,31.2-41.7s0.4-21.8,6.2-36.8C108.4,64.5,128.1,53.3,128.1,53.3z"/>
		</g>
	</g>
	<g class="st15">
		<g>
			<path d="M172.9,111.7c8.4,12.9,23.8,16.1,31.5,50.3c10.1,44.7-30.8,89.9-76.3,89.9c-14.5,0-28.5-4.6-40.5-12.2
				c0,0,53.4,8.7,82.1-30.4S172.9,111.7,172.9,111.7z"/>
		</g>
	</g>
	<g>
		<g>
			<path class="st1" d="M128.1,255.9C128.1,255.9,128.1,255.9,128.1,255.9c-24.1,0-48.1-12-64.2-32.2c-14.9-18.6-20.7-41.4-16-62.6
				c5.7-25.1,15.6-34.6,23.6-42.2c6.8-6.5,11.7-11.2,13.1-23.6c1.7-14.7,7.1-26.8,15.5-34.9c7.5-7.2,17.4-11.2,27.9-11.2
				c0,0,0,0,0,0h0c0,0,0,0,0,0c10.5,0,20.4,4,27.9,11.2c8.4,8.1,13.8,20.1,15.5,34.9c1.5,12.4,6.4,17.1,13.1,23.6
				c8,7.6,17.9,17.1,23.6,42.2c4.8,21.1-1.1,43.9-16,62.6C176.2,243.9,152.2,255.9,128.1,255.9z M128.1,57.3
				c-22.8,0-33.3,20.1-35.5,39c-1.8,15.3-8.5,21.7-15.6,28.4c-7.6,7.2-16.2,15.4-21.3,38.2c-4.2,18.8,1,39.1,14.4,55.8
				c14.6,18.3,36.3,29.2,57.9,29.2c0,0,0,0,0,0c21.6,0,43.3-10.9,57.9-29.2c13.4-16.7,18.6-37.1,14.4-55.8
				c-5.1-22.8-13.7-31-21.3-38.2c-7.1-6.8-13.8-13.1-15.6-28.4C161.4,77.4,150.9,57.3,128.1,57.3C128.1,57.3,128.1,57.3,128.1,57.3z
				"/>
		</g>
	</g>
	<g>
		<g>
			<path class="st1" d="M128.1,57.3c-0.1,0-0.3,0-0.4,0c-2.2-0.2-3.8-2.2-3.6-4.4c1.5-14.3,14.7-34.6,25.1-42.5
				c1.8-1.3,4.3-1,5.6,0.8c1.3,1.8,1,4.3-0.8,5.6c-8.9,6.7-20.7,25.1-22,37C131.9,55.7,130.2,57.3,128.1,57.3z"/>
		</g>
	</g>
	<g>
		<g>
			<path class="st1" d="M99,52.7c-6.7,0-12.5-1.4-17.8-4.3c-12.4-6.8-19.9-21.2-22.9-44c-0.2-1.6,0.6-3.2,2-4
				c1.4-0.8,3.2-0.6,4.5,0.4c0.1,0,10.1,7.7,36.8,5.8c9.3-0.7,16.9,1.7,22.6,7.1c10.4,9.8,10.3,25.9,10.3,26.6
				c0,1.5-0.9,2.9-2.3,3.6C119.5,49.8,108.5,52.7,99,52.7z M67.6,11c3.1,15.5,9,25.7,17.5,30.4c9.7,5.3,23.6,4.1,41.4-3.7
				c-0.4-4.2-1.9-12.8-7.7-18.2c-4-3.8-9.6-5.4-16.6-4.9c-12.6,0.9-23.4,0-32.2-2.7C69.2,11.6,68.3,11.3,67.6,11z M130.6,40.3
				L130.6,40.3L130.6,40.3z M130.6,40.3L130.6,40.3L130.6,40.3z"/>
		</g>
	</g>
	<g>
		<g>
			<path class="st1" d="M102.6,230.6c-0.6,0-1.3-0.1-1.9-0.5c-21.5-11.2-32.3-31.4-32.1-60c0-2.2,1.8-4,4-4c2.2,0,4,1.8,4,4
				c-0.1,25.7,9,43,27.9,52.9c2,1,2.7,3.4,1.7,5.4C105.5,229.9,104.1,230.6,102.6,230.6z"/>
		</g>
	</g>
</g>
</svg>
