<?xml version="1.0" encoding="utf-8"?>
<!-- Generator: Adobe Illustrator 22.1.0, SVG Export Plug-In . SVG Version: 6.00 Build 0)  -->
<svg version="1.1" id="Layer_1" xmlns="http://www.w3.org/2000/svg" xmlns:xlink="http://www.w3.org/1999/xlink" x="0px" y="0px"
	 viewBox="0 0 256 256" style="enable-background:new 0 0 256 256;" xml:space="preserve">
<style type="text/css">
	.st0{fill:#F5B31F;}
	.st1{fill:#464646;}
	.st2{opacity:0.15;}
	.st3{fill:#AC6535;}
	.st4{fill:#EB573B;}
	.st5{fill:#90C056;}
	.st6{opacity:0.35;}
	.st7{fill:#FFFFFF;}
	.st8{opacity:0.2;}
	.st9{fill:#F6D67A;}
	.st10{opacity:0.3;}
	.st11{fill:#FFA755;}
	.st12{fill:#8FAE3C;}
	.st13{fill:#BE6BB2;}
	.st14{fill:#B7C536;}
	.st15{opacity:0.1;}
	.st16{fill:#9D5A96;}
	.st17{fill:#EA615D;}
	.st18{opacity:0.4;}
	.st19{fill:#F79932;}
	.st20{fill:#FFEC97;}
	.st21{fill:#FFD11D;}
	.st22{fill:#F7F2D5;}
	.st23{fill:#F6AF72;}
	.st24{fill:#BA6C45;}
	.st25{opacity:0.5;}
	.st26{fill:#E4C074;}
	.st27{fill:#656566;}
	.st28{fill:#FACD1F;}
	.st29{fill:#FFDF66;}
	.st30{fill:#6D6E71;}
	.st31{fill:#E77CAE;}
	.st32{fill:#FFE5C4;}
	.st33{fill:#F68455;}
	.st34{opacity:0.7;}
	.st35{fill:#ADEDFF;}
	.st36{fill:#EC754B;}
	.st37{fill:#4AA5BA;}
	.st38{opacity:0.8;}
	.st39{fill:#92A5AC;}
	.st40{fill:#D06E3C;}
	.st41{fill:#DA4F4B;}
	.st42{fill:#BDF3FF;}
	.st43{fill:#F18BB4;}
	.st44{fill:#F9D97A;}
	.st45{fill:none;}
	.st46{fill:#AF6535;}
	.st47{fill:#B93226;}
	.st48{fill:#FF6050;}
	.st49{fill:#EA7CB1;}
	.st50{fill:#00B0E0;}
	.st51{fill:#EA7DAE;}
	.st52{fill:#BC7532;}
	.st53{fill:#876C6C;}
	.st54{fill:#F9F6CD;}
	.st55{fill:#FFE37B;}
	.st56{fill:#1DDCFF;}
	.st57{fill:#60ACF7;}
	.st58{fill:#C3755A;}
	.st59{fill:#96557A;}
	.st60{fill:#66625D;}
	.st61{fill:#D68032;}
	.st62{fill:#F2A355;}
	.st63{fill:#7E9E6A;}
	.st64{fill:#965A85;}
	.st65{fill:#90CAD3;}
	.st66{fill:#94B57F;}
	.st67{fill:#B2E2E7;}
	.st68{fill:#FFDF8F;}
	.st69{fill:#FFFAEB;}
	.st70{fill:#F88916;}
	.st71{fill:#FFC86E;}
	.st72{fill:#AFA51D;}
	.st73{fill:#968A1C;}
	.st74{fill:#C3556D;}
</style>
<g>
	<g>
		<g>
			<path class="st0" d="M172.9,123c0,0,0,3.8,0,9.4c-6.9,0.9-14.1,1.6-21.6,2.1c0-7.2,0-14.7,0-14.7s0.2-4.3,2-8.3
				c1.3-0.1,2.5-0.2,3.8-0.3c1.3-0.1,2.6-0.2,3.9-0.3c1.1-0.1,2.2-0.2,3.3-0.3c1.9-0.2,3.7-0.4,5.6-0.6
				C172.9,115.3,172.9,123,172.9,123z"/>
		</g>
	</g>
	<g>
		<g>
			<path class="st0" d="M252.1,93.9c0,3.9-1.7,7.8-4.8,11.4c-3.5,4.1-8.9,7.9-15.7,11.4c-7.8,4-17.7,7.4-29,10.3l0-22.8
				c0.7-0.2,1.4-0.4,2.1-0.5c0.5-0.1,1-0.3,1.5-0.4c0.9-0.3,1.9-0.5,2.8-0.8c0.6-0.2,1.2-0.4,1.8-0.5c0.7-0.2,1.3-0.4,2-0.6
				c0.6-0.2,1.3-0.4,1.9-0.6c2.5-0.8,5-1.7,7.3-2.6c0.6-0.2,1.1-0.4,1.7-0.7c0,0,0,0,0.1,0c0.6-0.2,1.1-0.5,1.7-0.7
				c2.2-0.9,4.3-1.9,6.2-2.9c6.9-3.5,12.2-7.3,15.7-11.4C250.4,86.1,252.1,89.9,252.1,93.9z"/>
		</g>
	</g>
	<g>
		<g>
			<path class="st0" d="M172.9,132.4l0,22.8c-8.3,1.1-16.9,1.8-25.9,2.3c3.3-5.1,4.4-12.7,4.4-17.7l0-5.3
				C158.8,134,166,133.3,172.9,132.4z"/>
		</g>
	</g>
	<g>
		<g>
			<path class="st0" d="M252.1,116.6c0,3.9-1.7,7.8-4.8,11.4c-3.5,4.1-8.9,7.9-15.7,11.4h0c-7.8,4-17.7,7.4-29,10.3l0-22.8
				c11.3-2.8,21.2-6.3,29-10.3c6.9-3.5,12.2-7.3,15.7-11.4C250.4,108.9,252.1,112.7,252.1,116.6z"/>
		</g>
	</g>
	<g>
		<g>
			<path class="st0" d="M252.1,139.4c0,3.9-1.7,7.8-4.8,11.4c-3.5,4.1-8.9,7.9-15.7,11.4c-7.8,4-17.7,7.4-29,10.3l0-22.8
				c11.4-2.8,21.2-6.3,29-10.3h0c6.9-3.5,12.2-7.3,15.7-11.4C250.4,131.6,252.1,135.4,252.1,139.4z"/>
		</g>
	</g>
	<g>
		<g>
			<path class="st0" d="M252.1,162.2c0,4-1.7,7.8-4.8,11.4c-7.7,9-24.2,16.7-46.3,22c1.5-5.1,1.5-10,1.5-10l0-13.1
				c11.4-2.9,21.2-6.3,29-10.3c6.9-3.5,12.2-7.3,15.7-11.4C250.4,154.4,252.1,158.2,252.1,162.2z"/>
		</g>
	</g>
	<g>
		<g>
			<path class="st0" d="M125.5,123c0,0,0,6.1,0,12.2c-7.6,0-15.1-0.3-22.3-0.8c0-7.2,0-11.3,0-11.3
				C103.3,109.9,125.5,109.9,125.5,123z"/>
		</g>
	</g>
	<g>
		<g>
			<path class="st0" d="M128.9,158c-0.3,0-0.6,0-0.9,0c-11,0-21.7-0.5-31.8-1.4c5.3-5.9,7-14.6,7-19.9l0-2.3
				c7.2,0.5,14.7,0.8,22.3,0.8l0,10.2C125.5,148.6,126.2,154,128.9,158z"/>
		</g>
	</g>
	<g>
		<g>
			<path class="st0" d="M162.4,105.2c-4.8,0-7.5,3-9,6.3c1.3-0.1,2.5-0.2,3.8-0.3c1.3-0.1,2.6-0.2,3.9-0.3c1.1-0.1,2.2-0.2,3.3-0.3
				c1.9-0.2,3.7-0.4,5.6-0.6C168.3,107.3,165.9,105.2,162.4,105.2z M128.1,29.7c-68.5,0-124,18.5-124,41.4c0,3.9,1.7,7.8,4.8,11.4
				c3.5,4.1,8.9,7.9,15.7,11.4c8.9,4.5,20.3,8.4,33.6,11.4c1.9,0.4,3.9,0.9,5.9,1.2l0-9.7c-1.4,0.4-2.6,0.4-3.9-0.2
				c-3.6-1.8-16.5-4.1-20.7-11.4c-4.2-7.3-2.6-14.7,4.2-25.9s32.1-14.2,70.5-6c4.8,1,9.6,2.1,14.3,3.2c6.6-5.2,17.1-8.9,33.4-7.8
				c42.4,2.6,66.4,19.8,66.4,29.2c0,1.6-8.7,4.7-10,6.2c-1.4,1.7-3.7,3.3-6.5,4.7c-2.6,1.3-5.7,2.5-9.2,3.5l0,11.7
				c0.7-0.2,1.4-0.4,2.1-0.5c0.5-0.1,1-0.3,1.5-0.4c0.9-0.3,1.9-0.5,2.8-0.8c0.6-0.2,1.2-0.4,1.8-0.5c0.7-0.2,1.3-0.4,2-0.6
				c0.6-0.2,1.3-0.4,1.9-0.6c2.5-0.8,5-1.7,7.3-2.6c0.6-0.2,1.1-0.4,1.7-0.7c0,0,0,0,0.1,0c0.6-0.2,1.1-0.5,1.7-0.7
				c2.2-0.9,4.3-1.9,6.2-2.9c6.9-3.5,12.2-7.3,15.7-11.4c3.1-3.6,4.8-7.4,4.8-11.4C252.1,48.2,196.6,29.7,128.1,29.7z M162.4,105.2
				c-4.8,0-7.5,3-9,6.3c1.3-0.1,2.5-0.2,3.8-0.3c1.3-0.1,2.6-0.2,3.9-0.3c1.1-0.1,2.2-0.2,3.3-0.3c1.9-0.2,3.7-0.4,5.6-0.6
				C168.3,107.3,165.9,105.2,162.4,105.2z M162.4,105.2c-4.8,0-7.5,3-9,6.3c1.3-0.1,2.5-0.2,3.8-0.3c1.3-0.1,2.6-0.2,3.9-0.3
				c1.1-0.1,2.2-0.2,3.3-0.3c1.9-0.2,3.7-0.4,5.6-0.6C168.3,107.3,165.9,105.2,162.4,105.2z"/>
		</g>
	</g>
	<g>
		<g>
			<path class="st0" d="M64,106.5l0,22.8c-2-0.4-4-0.8-5.9-1.3c-13.3-3-24.7-6.9-33.6-11.4c-6.9-3.5-12.2-7.3-15.7-11.4
				c-3.1-3.6-4.8-7.4-4.8-11.4c0-4,1.7-7.8,4.8-11.4c3.5,4.1,8.9,7.9,15.7,11.4c8.9,4.5,20.3,8.4,33.6,11.4
				C60.1,105.7,62,106.1,64,106.5z"/>
		</g>
	</g>
	<g>
		<g>
			<path class="st0" d="M64,139.6c0,4.8,1.1,9.2,3.1,13c-3.1-0.6-6-1.2-8.9-1.9h0c-13.3-3-24.7-6.9-33.6-11.4h0
				c-6.9-3.5-12.2-7.3-15.7-11.4c-3.1-3.6-4.7-7.4-4.7-11.4c0-4,1.7-7.8,4.8-11.4c3.5,4.1,8.9,7.9,15.7,11.4
				c8.9,4.5,20.3,8.4,33.6,11.4c1.9,0.4,3.9,0.9,5.9,1.3L64,139.6z"/>
		</g>
	</g>
	<g>
		<g>
			<path class="st0" d="M172.9,178c-13.9,1.8-29,2.8-44.8,2.8c-43.3,0-81.3-7.4-103.5-18.6c-6.9-3.5-12.2-7.3-15.7-11.4
				c-3.1-3.6-4.8-7.5-4.8-11.4c0-3.9,1.7-7.8,4.7-11.4c3.5,4.1,8.9,7.9,15.7,11.4h0c8.9,4.5,20.3,8.4,33.6,11.4h0
				c2.9,0.7,5.9,1.3,8.9,1.9c3.2,6.1,8.5,10.2,14.9,10.2c6.4,0,11-2.6,14.3-6.3c10.2,0.9,20.8,1.4,31.8,1.4c0.3,0,0.6,0,0.9,0
				c1.9,2.8,4.8,4.8,9.1,4.8c4,0,6.9-2.1,8.9-5.3c9-0.5,17.7-1.2,25.9-2.3l0,22C172.9,177.4,172.9,177.7,172.9,178z"/>
		</g>
	</g>
	<g>
		<g>
			<path class="st0" d="M178.6,199.9c-15.4,2.3-32.6,3.6-50.6,3.6c-56.6,0-104.4-12.7-119.2-30c-3.1-3.6-4.8-7.4-4.8-11.4
				c0-4,1.7-7.8,4.8-11.4c3.5,4.1,8.9,7.9,15.7,11.4c22.2,11.2,60.3,18.6,103.5,18.6c15.8,0,30.9-1,44.8-2.8
				C173,184.1,174.5,193.6,178.6,199.9z"/>
		</g>
	</g>
	<g>
		<g>
			<path class="st0" d="M252.1,184.9c0,22.8-55.5,41.3-124,41.3c-68.5,0-124-18.5-124-41.4c0-3.9,1.7-7.8,4.8-11.4
				c14.8,17.3,62.6,30,119.2,30c18,0,35.1-1.3,50.6-3.6c2.5,3.8,6,6.5,10.8,6.5c6.7,0,10-5.5,11.6-10.8c22-5.4,38.6-13.1,46.3-22
				C250.4,177.2,252.1,181,252.1,184.9z"/>
		</g>
	</g>
	<g class="st2">
		<g>
			<path class="st1" d="M247.3,173.6c-7.7,9-24.2,16.7-46.3,22c-1.6,5.3-4.9,10.8-11.6,10.8c-4.8,0-8.3-2.6-10.8-6.5
				c-15.4,2.3-32.6,3.6-50.6,3.6c-56.6,0-104.4-12.7-119.2-30C8.8,227,247.3,227.1,247.3,173.6z"/>
		</g>
	</g>
	<g class="st2">
		<g>
			<path class="st1" d="M247.3,150.8c-7.7,9-24.2,16.7-46.3,22c-1.6,5.3-4.9,10.8-11.6,10.8c-4.8,0-8.3-2.6-10.8-6.5
				c-15.4,2.3-32.6,3.6-50.6,3.6c-56.6,0-104.4-12.7-119.2-30C8.8,204.3,247.3,204.3,247.3,150.8z"/>
		</g>
	</g>
	<g>
		<g>
			<path class="st1" d="M151.3,138.5c-1,0-2-0.4-2.7-1.1c-0.8-0.8-1.3-1.8-1.3-2.9l0-14.7c0,0,0-0.1,0-0.1c0-0.5,0.2-5.3,2.4-9.8
				c0.6-1.3,1.9-2.2,3.4-2.3c1.2-0.1,2.5-0.2,3.7-0.3c1.4-0.1,2.6-0.2,3.9-0.3c1.1-0.1,2.1-0.2,3.2-0.3c1.9-0.2,3.7-0.4,5.5-0.6
				c1.6-0.2,3.2,0.6,4,2c3.5,6,3.6,14.1,3.6,15v9.4c0,2-1.5,3.7-3.5,4c-7.1,0.9-14.4,1.6-21.8,2.1
				C151.5,138.5,151.4,138.5,151.3,138.5z M172.9,132.4L172.9,132.4L172.9,132.4z M155.3,119.9l0,10.3c4.6-0.3,9.1-0.8,13.6-1.3V123
				c0-1.5-0.3-5.4-1.5-8.7c-0.9,0.1-1.8,0.2-2.7,0.3c-1.1,0.1-2.2,0.2-3.3,0.3c-1.3,0.1-2.7,0.2-4,0.3c-0.4,0-0.8,0.1-1.2,0.1
				C155.5,117.6,155.3,119.6,155.3,119.9z"/>
		</g>
	</g>
	<g>
		<g>
			<path class="st1" d="M202.6,130.9c-0.9,0-1.8-0.3-2.5-0.8c-1-0.8-1.5-1.9-1.5-3.2l0-22.8c0-1.8,1.3-3.4,3-3.9
				c0.7-0.2,1.4-0.3,2-0.5c0.5-0.1,1-0.2,1.4-0.4c1-0.3,1.9-0.5,2.8-0.8c0.6-0.2,1.2-0.3,1.8-0.5c0.7-0.2,1.3-0.4,1.9-0.6
				c0,0,0.1,0,0.1,0c0.6-0.2,1.2-0.4,1.8-0.6c2.5-0.8,4.8-1.6,7.1-2.5l1.6-0.6c0,0,0.1,0,0.1-0.1l0,0c0.5-0.2,1-0.4,1.6-0.6
				c2.2-0.9,4.2-1.9,6-2.8c6.5-3.3,11.4-6.8,14.5-10.4c0.8-0.9,1.9-1.4,3-1.4c0,0,0,0,0,0c1.2,0,2.3,0.5,3,1.4
				c3.8,4.4,5.7,9.1,5.7,14l0,0c0,0,0,0,0,0c0,4.8-1.9,9.6-5.7,14c-3.8,4.4-9.5,8.6-17,12.4c-8.1,4.1-18.2,7.7-29.9,10.6
				C203.2,130.9,202.9,130.9,202.6,130.9z M206.6,107.2l0,14.5c9-2.5,16.8-5.4,23.2-8.7c6.5-3.3,11.4-6.8,14.5-10.4
				c2.5-2.9,3.8-5.9,3.8-8.8c0,0,0,0,0,0c0-1.7-0.4-3.4-1.3-5.2c-3.5,3.1-8,6-13.4,8.7c-2,1-4.2,2-6.5,3c-0.5,0.2-1.1,0.4-1.6,0.7
				c-0.1,0-0.2,0.1-0.2,0.1l-1.7,0.7c-2.4,0.9-5,1.8-7.5,2.7c-0.6,0.2-1.3,0.4-2,0.6c-0.7,0.2-1.4,0.4-2,0.6
				c-0.6,0.2-1.2,0.4-1.9,0.6c-0.9,0.3-1.9,0.5-2.8,0.8C207,107.1,206.8,107.2,206.6,107.2z"/>
		</g>
	</g>
	<g>
		<g>
			<path class="st1" d="M146.9,161.5c-1.4,0-2.8-0.8-3.5-2c-0.8-1.3-0.7-2.9,0.1-4.2c2.8-4.2,3.7-11,3.7-15.6l0-5.3
				c0-2.1,1.6-3.9,3.7-4c7.2-0.5,14.4-1.1,21.3-2c1.1-0.1,2.3,0.2,3.2,1c0.9,0.8,1.4,1.9,1.4,3l0,22.8c0,2-1.5,3.7-3.5,4
				c-8.3,1.1-17.2,1.9-26.2,2.3C147.1,161.5,147,161.5,146.9,161.5z M155.3,138.2v1.5c0,2-0.2,7.7-2,13.3c5.3-0.4,10.5-0.9,15.5-1.5
				l0-14.7C164.4,137.5,159.9,137.9,155.3,138.2z"/>
		</g>
	</g>
	<g>
		<g>
			<path class="st1" d="M202.6,153.7c-0.9,0-1.8-0.3-2.5-0.8c-1-0.8-1.5-1.9-1.5-3.2l0-22.8c0-1.8,1.2-3.4,3-3.9
				c11.1-2.8,20.6-6.1,28.2-10c6.5-3.3,11.4-6.8,14.5-10.4c0.8-0.9,1.9-1.4,3-1.4l0,0c1.2,0,2.3,0.5,3,1.4c3.8,4.4,5.7,9.1,5.7,14
				c0,4.8-1.9,9.5-5.7,14c-3.8,4.4-9.5,8.6-17,12.4c-0.1,0-0.1,0.1-0.2,0.1c-8.1,4.1-18.1,7.6-29.7,10.5
				C203.2,153.6,202.9,153.7,202.6,153.7z M206.6,130l0,14.5c9-2.5,16.8-5.4,23.2-8.7c0.1,0,0.1,0,0.2-0.1
				c6.4-3.3,11.3-6.7,14.3-10.4c2.5-2.9,3.8-5.9,3.8-8.8c0-1.7-0.4-3.4-1.3-5.2c-3.5,3.1-8,6-13.4,8.7
				C226,123.9,216.9,127.2,206.6,130z M231.6,139.4L231.6,139.4L231.6,139.4z"/>
		</g>
	</g>
	<g>
		<g>
			<path class="st1" d="M202.6,176.5c-0.9,0-1.8-0.3-2.5-0.8c-1-0.8-1.5-1.9-1.5-3.2l0-22.8c0-1.8,1.2-3.4,3-3.9
				c11.1-2.8,20.6-6.1,28.2-10c0.1,0,0.1,0,0.2-0.1c6.4-3.3,11.3-6.7,14.3-10.4c0.8-0.9,1.9-1.4,3-1.4c0,0,0,0,0,0
				c1.2,0,2.3,0.5,3,1.4c3.8,4.4,5.7,9.2,5.7,14l0,0c0,0,0,0,0,0c0,4.8-1.9,9.5-5.7,14c-3.8,4.4-9.5,8.6-17,12.3
				c-8.1,4.1-18.1,7.7-29.9,10.6C203.2,176.4,202.9,176.5,202.6,176.5z M206.6,152.8l0,14.5c9-2.5,16.8-5.4,23.2-8.7
				c6.5-3.3,11.4-6.8,14.5-10.4c2.5-2.9,3.8-5.9,3.8-8.8c0,0,0,0,0,0c0-1.7-0.4-3.4-1.3-5.2c-3.5,3.1-8,6-13.3,8.7
				c-0.1,0-0.1,0.1-0.2,0.1C225.8,146.8,216.9,150,206.6,152.8z"/>
		</g>
	</g>
	<g>
		<g>
			<path class="st1" d="M201,199.6c-1.1,0-2.1-0.4-2.9-1.2c-1-1-1.3-2.5-0.9-3.9c1.3-4.4,1.4-8.8,1.4-8.9l0-13.1
				c0-1.8,1.2-3.4,3-3.9c11.2-2.8,20.6-6.2,28.2-10c6.5-3.3,11.4-6.8,14.5-10.4c0.8-0.9,1.9-1.4,3-1.4l0,0c1.2,0,2.3,0.5,3,1.4
				c3.8,4.4,5.7,9.1,5.7,14c0,4.9-1.9,9.6-5.7,14c-10.4,12.1-32,19.4-48.4,23.3C201.7,199.6,201.3,199.6,201,199.6z M206.6,175.6
				l0,10.1c0,0.1,0,1.9-0.3,4.5c18.3-5.1,31.7-11.8,38-19.2c2.5-2.9,3.8-5.9,3.8-8.8c0-1.7-0.4-3.4-1.3-5.2c-3.5,3.1-8,6-13.4,8.7
				C226,169.5,217,172.8,206.6,175.6z"/>
		</g>
	</g>
	<g>
		<g>
			<path class="st1" d="M153.3,115.6c-1.3,0-2.5-0.6-3.3-1.7c-0.5-0.7-0.7-1.5-0.7-2.3c0-0.6,0.1-1.1,0.4-1.7
				c2.6-5.6,7.1-8.6,12.7-8.6c0,0,0,0,0,0c3.2,0,7.7,1.2,11,6.8c0.4,0.6,0.5,1.3,0.5,2c0,0.6-0.1,1.2-0.4,1.8
				c-0.6,1.2-1.8,2-3.1,2.2c-1.9,0.2-3.7,0.4-5.7,0.6c-1.1,0.1-2.2,0.2-3.3,0.3c-1.3,0.1-2.7,0.2-4,0.3c-1.2,0.1-2.5,0.2-3.8,0.3
				C153.5,115.6,153.4,115.6,153.3,115.6z M64,110.5c-0.3,0-0.5,0-0.8-0.1c-2-0.4-4-0.8-6-1.3C43.6,106,32,102.1,22.7,97.4
				c-7.4-3.8-13.1-7.9-16.9-12.4c-3.8-4.4-5.7-9.1-5.7-14c0-12.9,13.9-24.6,39.1-33c23.8-7.9,55.4-12.3,88.9-12.3c0,0,0,0,0,0
				c33.5,0,65.1,4.4,88.9,12.3c25.2,8.4,39.1,20.1,39.1,33c0,4.8-1.9,9.6-5.7,14c-3.8,4.4-9.5,8.6-16.9,12.4c-2,1-4.2,2-6.5,3
				c-0.5,0.2-1,0.4-1.6,0.7c-0.1,0-0.2,0.1-0.2,0.1l-1.7,0.7c-2.4,0.9-5,1.8-7.5,2.7c-0.6,0.2-1.3,0.4-2,0.6c-0.6,0.2-1.3,0.4-2,0.6
				c-0.6,0.2-1.2,0.4-1.9,0.6c-0.9,0.3-1.9,0.5-2.8,0.8c-0.5,0.1-1,0.3-1.6,0.4c-0.7,0.2-1.4,0.4-2.1,0.5c-1.2,0.3-2.5,0-3.4-0.7
				s-1.5-1.9-1.5-3.1V92.5c0-1.8,1.2-3.3,2.9-3.8c3.3-1,6.2-2.1,8.5-3.2c3-1.5,4.5-2.9,5.3-3.7c1-1.2,2.6-2,5.6-3.5
				c0.9-0.4,2.1-1,3-1.5c-1.2-2.8-5.6-7.5-14.8-12.2c-12.4-6.4-29.3-10.5-47.5-11.6c-13.4-0.8-23.8,1.5-30.7,7c-1,0.8-2.2,1-3.4,0.8
				c-4.4-1-9.1-2.1-14.2-3.2c-41.6-8.9-61.7-3.3-66.3,4.1c-7.2,11.7-6.9,17-4.2,21.8c2.4,4.1,9.6,6.5,14.3,8c2,0.6,3.5,1.2,4.7,1.7
				c0.2,0.1,0.7,0,1-0.1c1.2-0.3,2.5-0.1,3.5,0.7c1,0.8,1.6,1.9,1.6,3.2l0,9.7c0,1.2-0.5,2.3-1.5,3.1
				C65.8,110.2,64.9,110.5,64,110.5z M128.1,33.7c-32.7,0-63.4,4.2-86.4,11.9c-21,7-33.6,16.5-33.6,25.5c0,2.9,1.3,5.8,3.8,8.8
				c3.1,3.6,8,7.1,14.5,10.4c8.7,4.4,19.7,8.1,32.7,11.1c0.3,0.1,0.6,0.1,1,0.2v-0.7c-0.6-0.1-1.1-0.4-1.7-0.6
				c-0.6-0.3-2.1-0.8-3.6-1.3C48.9,97,39.9,94.1,36,87.3c-6-10.4-1.5-20.5,4.2-30c8.2-13.4,35.4-16.2,74.8-7.8
				c4.4,0.9,8.6,1.9,12.5,2.8c8.4-5.9,20-8.4,34.6-7.5c41.3,2.6,70.1,19.6,70.1,33.2c0,3.4-3.3,5.1-7.8,7.3
				c-1.1,0.5-2.7,1.3-3.2,1.7c-1.8,2-4.3,3.9-7.6,5.5c-2,1-4.4,2-7,2.9v3.5c0.4-0.1,0.9-0.2,1.3-0.4c0.6-0.2,1.2-0.3,1.8-0.5
				c0.7-0.2,1.3-0.4,1.9-0.6c0.7-0.2,1.2-0.4,1.8-0.6c2.5-0.8,4.8-1.6,7.1-2.5l1.6-0.6c0,0,0.1,0,0.1-0.1l0,0c0.5-0.2,1-0.4,1.6-0.6
				c2.2-0.9,4.2-1.9,6-2.8c6.5-3.3,11.4-6.8,14.5-10.4c2.5-2.9,3.8-5.9,3.8-8.8c0-8.9-12.6-18.4-33.6-25.5
				C191.5,37.9,160.8,33.7,128.1,33.7C128.1,33.7,128.1,33.7,128.1,33.7z"/>
		</g>
	</g>
	<g>
		<g>
			<path class="st1" d="M64,133.3c-0.3,0-0.5,0-0.8-0.1c-1.9-0.4-3.9-0.8-6-1.3c-13.7-3.1-25.3-7.1-34.5-11.7
				c-7.4-3.8-13.1-7.9-17-12.4c-3.8-4.4-5.7-9.1-5.7-14c0-4.9,1.9-9.6,5.7-14c0.8-0.9,1.9-1.4,3-1.4c0,0,0,0,0,0
				c1.2,0,2.3,0.5,3,1.4c3.1,3.6,8,7.1,14.5,10.4c8.7,4.4,19.7,8.1,32.7,11.1c1.8,0.4,3.8,0.8,5.8,1.2c1.9,0.4,3.2,2,3.2,3.9l0,22.8
				c0,1.2-0.5,2.3-1.5,3.1C65.8,132.9,64.9,133.3,64,133.3z M9.4,88.7c-0.9,1.7-1.3,3.5-1.3,5.2c0,2.9,1.3,5.8,3.8,8.8
				c3.1,3.6,8,7.1,14.5,10.4c8.6,4.4,19.6,8.1,32.7,11.1c0.3,0.1,0.7,0.1,1,0.2l0-14.6c-0.9-0.2-1.8-0.4-2.7-0.6
				C43.6,106,32,102.1,22.7,97.4C17.4,94.7,12.9,91.8,9.4,88.7z"/>
		</g>
	</g>
	<g>
		<g>
			<path class="st1" d="M125.5,139.2C125.5,139.2,125.5,139.2,125.5,139.2c-7.6,0-15.1-0.3-22.6-0.8c-2.1-0.1-3.7-1.9-3.7-4V123
				c0-9.1,7.6-13.8,15.1-13.8h0c3.8,0,7.4,1.2,10.1,3.3c3.2,2.5,5,6.3,5,10.5v0v12.2c0,1.1-0.4,2.1-1.2,2.8
				C127.6,138.8,126.6,139.2,125.5,139.2z M107.3,130.6c4.7,0.3,9.5,0.4,14.3,0.5V123c0,0,0,0,0,0c0-4.6-4.5-5.8-7.1-5.8
				c0,0,0,0,0,0c-2,0-3.9,0.6-5.2,1.6c-1.3,1-2,2.4-2,4.2V130.6z"/>
		</g>
	</g>
	<g>
		<g>
			<path class="st1" d="M67.1,156.6c-0.2,0-0.5,0-0.7-0.1c-3.1-0.6-6.1-1.2-9-1.9c0,0-0.1,0-0.1,0c-13.6-3.1-25.1-7-34.4-11.6
				c-0.1,0-0.1-0.1-0.2-0.1c-7.4-3.8-13.2-7.9-17-12.4c-3.8-4.4-5.7-9.1-5.7-14c0-4.9,1.9-9.6,5.7-14c0.8-0.9,1.9-1.4,3-1.4
				s2.3,0.5,3,1.4c3.1,3.6,8,7.1,14.5,10.4c8.6,4.4,19.6,8.1,32.7,11.1c2,0.4,3.9,0.9,5.8,1.2c1.9,0.4,3.2,2,3.2,3.9l0,10.4
				c0,4,0.9,7.8,2.6,11.2c0.7,1.4,0.6,3-0.3,4.2C69.5,156.1,68.3,156.6,67.1,156.6z M58.9,146.9c0,0,0.1,0,0.1,0
				c0.6,0.1,1.2,0.3,1.8,0.4c-0.6-2.5-0.9-5-0.9-7.6v0l0-7.1c-0.9-0.2-1.8-0.4-2.8-0.6c-13.7-3.1-25.3-7.1-34.5-11.7
				c-5.4-2.7-9.9-5.6-13.4-8.7c-0.9,1.7-1.3,3.5-1.3,5.2c0,2.9,1.3,5.8,3.8,8.8c3.1,3.6,7.9,7.1,14.3,10.3c0.1,0,0.1,0,0.2,0.1
				C35,140.2,45.9,143.9,58.9,146.9z"/>
		</g>
	</g>
	<g>
		<g>
			<path class="st1" d="M128.1,162c-11,0-21.8-0.5-32.2-1.4c-1.5-0.1-2.8-1.1-3.4-2.5c-0.6-1.4-0.3-3,0.7-4.1c4.2-4.6,6-12,6-17.2
				l0-2.3c0-1.1,0.5-2.2,1.3-2.9c0.8-0.8,1.9-1.1,3-1.1c7.3,0.5,14.7,0.8,22,0.8c2.2,0,4,1.8,4,4l0,10.2c0,3.1,0.7,7.4,2.7,10.3
				c0.8,1.2,0.9,2.8,0.3,4.1s-2,2.1-3.4,2.2C128.7,162,128.4,162,128.1,162z M103.3,153.1c6.3,0.4,12.8,0.7,19.4,0.8
				c-1.1-3.8-1.2-7.2-1.2-8.5l0-6.2c-4.8-0.1-9.6-0.3-14.3-0.5C106.9,142.9,105.8,148.3,103.3,153.1z"/>
		</g>
	</g>
	<g>
		<g>
			<path class="st1" d="M128.1,184.7C128.1,184.7,128.1,184.7,128.1,184.7c-42.4,0-81.8-7.1-105.4-19c-7.4-3.8-13.1-7.9-16.9-12.3
				c-3.8-4.4-5.7-9.2-5.7-14c0-4.8,1.9-9.5,5.7-14c0.8-0.9,1.9-1.4,3-1.4c0,0,0,0,0,0c1.2,0,2.3,0.5,3,1.4
				c3.1,3.6,7.9,7.1,14.3,10.4c0.1,0,0.1,0,0.2,0.1c8.6,4.3,19.6,8.1,32.6,11c0,0,0.1,0,0.1,0c2.8,0.6,5.7,1.3,8.8,1.8
				c1.2,0.2,2.2,1,2.8,2.1c2.7,5.1,6.8,8.1,11.3,8.1c4.7,0,8.3-1.6,11.3-4.9c0.8-0.9,2.1-1.4,3.3-1.3c10.1,0.9,20.7,1.4,31.5,1.4
				c0.2,0,0.5,0,0.7,0c1.4-0.1,2.7,0.6,3.4,1.8c1.4,2.1,3.2,3,5.8,3h0c1.4,0,3.6-0.4,5.6-3.4c0.7-1.1,1.9-1.7,3.1-1.8
				c8.9-0.5,17.5-1.2,25.6-2.3c1.1-0.1,2.3,0.2,3.2,1c0.9,0.8,1.4,1.9,1.4,3l0,22c0,0.2,0,0.4,0,0.7c0.1,2.1-1.4,3.8-3.5,4.1
				C159,183.8,143.7,184.7,128.1,184.7z M9.4,134.2c-0.9,1.7-1.3,3.5-1.3,5.2c0,2.9,1.3,5.8,3.8,8.8c3.1,3.6,8,7.1,14.5,10.4
				c22.5,11.4,60.6,18.2,101.7,18.2c0,0,0,0,0,0c14,0,27.7-0.8,40.8-2.3l0-14.7c-6.4,0.7-13,1.3-19.8,1.7c-2.9,3.5-6.7,5.4-11,5.4
				c0,0,0,0,0,0c-4.4,0-8.2-1.6-11-4.8c-10,0-19.8-0.4-29.2-1.2c-4.2,4-9.7,6.1-15.8,6.1c-6.9,0-13.3-3.9-17.4-10.7
				c-2.5-0.5-4.8-1-7.1-1.5c0,0-0.1,0-0.1,0c-13.6-3.1-25.1-7-34.4-11.6c-0.1,0-0.1-0.1-0.2-0.1C17.4,140.2,12.9,137.3,9.4,134.2z"
				/>
		</g>
	</g>
	<g>
		<g>
			<path class="st1" d="M128.1,207.5C128.1,207.5,128.1,207.5,128.1,207.5c-57.1,0-106.2-12.6-122.3-31.4c-3.8-4.4-5.7-9.1-5.7-14
				c0-4.9,1.9-9.6,5.7-14c0.8-0.9,1.9-1.4,3-1.4l0,0c1.2,0,2.3,0.5,3,1.4c3.1,3.6,8,7.1,14.5,10.4c22.5,11.4,60.6,18.2,101.7,18.2
				c0,0,0,0,0,0c15.3,0,30.2-0.9,44.3-2.8c1.1-0.1,2.3,0.2,3.1,0.9c0.9,0.7,1.4,1.8,1.4,3c0.1,5.8,1.5,14.4,5.1,19.9
				c0.8,1.1,0.9,2.6,0.3,3.8s-1.7,2.1-3.1,2.3C163.1,206.3,145.9,207.5,128.1,207.5z M9.4,157c-0.9,1.7-1.3,3.5-1.3,5.2
				c0,2.9,1.3,5.9,3.8,8.8c14.4,16.8,62.2,28.6,116.2,28.6c0,0,0,0,0,0c15.4,0,30.3-0.9,44.4-2.8c-1.9-4.6-2.9-9.7-3.4-14.3
				c-13.1,1.5-26.9,2.3-41.1,2.3c0,0,0,0,0,0c-42.4,0-81.7-7.1-105.3-19C17.4,163,12.9,160.1,9.4,157z"/>
		</g>
	</g>
	<g>
		<g>
			<path class="st1" d="M128.1,230.3C128.1,230.3,128.1,230.3,128.1,230.3c-33.6,0-65.2-4.4-89-12.3c-25.2-8.4-39-20.1-39-33
				c0-4.9,1.9-9.6,5.7-14c0.8-0.9,1.9-1.4,3-1.4c0,0,0,0,0,0c1.2,0,2.3,0.5,3,1.4c14.4,16.8,62.2,28.6,116.2,28.6c0,0,0,0,0,0
				c17.4,0,34.2-1.2,49.9-3.5c1.5-0.2,3.1,0.5,3.9,1.8c2.1,3.1,4.5,4.7,7.5,4.7c0,0,0,0,0,0c1.3,0,5.4,0,7.7-7.9
				c0.4-1.4,1.5-2.4,2.9-2.8c21.5-5.2,37.2-12.6,44.2-20.8c0.8-0.9,1.9-1.4,3-1.4c0,0,0,0,0,0c1.2,0,2.3,0.5,3,1.4
				c3.8,4.4,5.7,9.1,5.7,14l0,0c0,0,0,0,0,0c0,12.9-13.9,24.6-39.1,33C193.2,225.9,161.6,230.3,128.1,230.3z M9.4,179.8
				c-0.9,1.7-1.3,3.4-1.3,5.2c0,8.9,12.6,18.4,33.6,25.4c23,7.7,53.7,11.9,86.4,11.9c0,0,0,0,0,0c32.7,0,63.4-4.2,86.4-11.9
				c21-7,33.6-16.5,33.6-25.4c0,0,0,0,0,0c0-1.7-0.4-3.4-1.3-5.1c-10.7,9.5-28.3,15.5-42.6,19.2c-2.8,7.4-8,11.4-14.6,11.4h0
				c-4.9,0-9.2-2.1-12.6-6.2c-15.4,2.2-31.8,3.3-48.8,3.3c0,0,0,0,0,0C74.8,207.5,28.4,196.5,9.4,179.8z"/>
		</g>
	</g>
	<g>
		<g class="st2">
			<g>
				<path class="st1" d="M247.3,105.2c-6.4,7.5-19.1,14.2-36,19.3l0-10.7c21.7-6.7,36-16.6,36-29.7c-6.4,7.5-19.1,14.2-36,19.3
					l0-2.8c3.5-1,6.6-2.2,9.2-3.5c2.8-1.4,5.1-3,6.5-4.7c1.3-1.5,5-12.6,5-14.2c0-9.5-19.1-18.6-61.4-21.2
					c-16.3-1-26.8,2.6-33.4,7.8c-4.7-1.1-9.4-2.1-14.3-3.2c-38.4-8.2-63.7-5.2-70.5,6S44,86.1,48.2,93.4c4.2,7.3,17.1,9.5,20.7,11.4
					c1.2,0.6,2.5,0.6,3.9,0.2l0,4.8C42,104.6,18.5,95.3,8.8,84.1c0,18.2,27.5,30.2,63.9,36l0,10.8c-30.8-5.1-54.3-14.4-63.9-25.6
					c0,18.2,27.5,30.2,63.9,36l0,6.5c0,3.3-2.3,4.6-3.1,6.3c-29.3-5.2-51.5-14.3-60.8-25.1c0,18.5,28.4,30.6,65.6,36.3
					c2.3,3.1,5.4,5.5,10.7,5.5c6.7,0,10.9-0.9,13.9-2.7h0c12.7,1,25.8,1.3,38.8,1c4-0.1,8-0.3,11.9-0.5c0,0,0,0,0,0
					c7.5-0.4,14.8-1,22-1.9L169,174c0,0.3,0.7,11.4,0.7,11.7c0.1,6.2,2.8,14.9,6.9,21.2c2.5,3.8,9.7,6.9,14.5,6.9
					c6.7,0,15.4-6.9,17-12.3c1.5-5.1,3.1-17.7,3.1-17.7l0-25c21.7-6.7,36-16.6,36-29.7c-6.4,7.5-19.1,14.2-36,19.3l0-13.3
					C233,128.3,247.3,118.4,247.3,105.2z M134.3,153.5c0,2.9-5.3,2.6-4.3,5.4c-0.6,0-1.3,0-1.9,0c-7,0-13.9-0.2-20.6-0.6
					c1.6-3.1,2.2-6,2.2-9.2l0.1-4.2c8.1,0.4,16.3,0.5,24.5,0.4L134.3,153.5z M134.3,135.2c-2.1,0-4.1,0-6.2,0
					c-6.1,0-12-0.1-17.9-0.4c0.3-4,0.9-6.8,0.9-6.8c0-1.6,0.3-3,1-4.1c6.5,0.3,13,0.4,19.5,0.3c1.6,1.8,2.7,4.1,2.7,6.9
					C134.3,131.1,134.3,132.7,134.3,135.2z M175.9,155.7c-5.7,0.8-11.6,1.5-17.7,2c1.2-3.4,1.8-6.8,1.8-9.9l0-3.8
					c7.3-0.6,14.3-1.4,21.1-2.5L175.9,155.7z M181.6,135.1c-1.1-1-2.1-2.1-3-3.5c-6,0.9-12.2,1.6-18.6,2.2c0-3.5,0-5.9,0-5.9
					s0.1-2.3,0.8-5.1c6.5-0.6,12.8-1.3,18.9-2.2c1.8,4.9,1.8,10.5,1.8,10.5S181.6,132.6,181.6,135.1z"/>
			</g>
		</g>
		<g class="st2">
			<g>
				<path class="st1" d="M149.8,168.5c-1.9,0.8-4.4,1.4-7.7,1.4c-1.6,0-3-0.3-4.2-0.9C141.9,168.8,145.9,168.7,149.8,168.5z"/>
			</g>
		</g>
	</g>
	<g>
		<g>
			<path class="st4" d="M228.2,78c0,1.6-8.7,4.7-10,6.2c-1.4,1.7-3.7,3.3-6.5,4.7c-2.6,1.3-5.7,2.5-9.2,3.5l0,93.2c0,0,0,4.9-1.5,10
				c-1.6,5.3-4.9,10.8-11.6,10.8c-4.8,0-8.3-2.6-10.8-6.5c-4.2-6.3-5.6-15.8-5.8-22c0-0.3,0-0.5,0-0.8l0-44.7c0-5.6,0-9.4,0-9.4
				s0-7.7-3-13c-1.6-2.7-3.9-4.8-7.5-4.8c-4.8,0-7.5,3-9,6.3c-1.8,3.9-2,8.3-2,8.3s0,7.5,0,14.7l0,5.3c0,5.1-1.1,12.7-4.4,17.7
				c-2,3.1-4.9,5.3-8.9,5.3c-4.3,0-7.2-2-9.1-4.8c-2.7-3.9-3.4-9.4-3.4-12.6l0-10.2c0-6,0-12.2,0-12.2c0-13.1-22.3-13.1-22.3,0
				c0,0,0,4.1,0,11.3l0,2.3c0,5.3-1.8,14-7,19.9c-3.3,3.7-7.9,6.3-14.3,6.3c-6.3,0-11.7-4.1-14.9-10.2c-1.9-3.8-3.1-8.2-3.1-13
				l0-42.8c-1.4,0.4-2.6,0.4-3.9-0.2c-3.6-1.8-16.5-4.1-20.7-11.4c-4.2-7.3-2.6-14.7,4.2-25.9s32.1-14.2,70.5-6
				c4.8,1,9.6,2.1,14.3,3.2c6.6-5.2,17.1-8.9,33.4-7.8C204.2,51.4,228.2,68.6,228.2,78z"/>
		</g>
	</g>
	<g>
		<g>
			<path class="st1" d="M189.5,210.4C189.5,210.4,189.5,210.4,189.5,210.4c-5.7,0-10.6-2.9-14.2-8.3c-4.5-6.8-6.3-16.9-6.4-24.1
				c0-0.3,0-0.6,0-0.9l0-54.1c0-1.9-0.5-7.5-2.5-11c-1.4-2.5-2.9-2.8-4-2.8c-1.7,0-3.8,0.5-5.4,4c-1.4,2.9-1.6,6.2-1.6,6.7l0,19.8
				c0,2.9-0.4,12.8-5,19.9c-3,4.6-7.3,7.1-12.3,7.1c0,0,0,0,0,0c-5.2,0-9.5-2.3-12.4-6.5c-3.8-5.5-4.1-12.7-4.1-14.8l0-22.4
				c0-1.8-0.6-3.2-2-4.2c-1.3-1-3.2-1.6-5.2-1.6c0,0,0,0,0,0c-2.7,0-7.1,1.2-7.1,5.8l0,13.6c0,6.3-2.1,15.9-8,22.6
				c-4.4,5-10.4,7.6-17.3,7.6c-7.5,0-14.4-4.6-18.4-12.4c-2.3-4.4-3.5-9.6-3.5-14.8l0-38.8c-0.6-0.1-1.1-0.4-1.7-0.6
				c-0.6-0.3-2.1-0.8-3.6-1.3C48.9,97,39.9,94.1,36,87.3c-6-10.4-1.5-20.5,4.2-30c8.2-13.4,35.4-16.2,74.8-7.8
				c4.4,0.9,8.6,1.9,12.5,2.8c8.4-5.9,20-8.4,34.6-7.5c41.3,2.6,70.1,19.6,70.1,33.2v0c0,0,0,0,0,0c0,3.4-3.3,5.1-7.8,7.3
				c-1.1,0.5-2.7,1.3-3.2,1.7c-1.8,2-4.3,3.9-7.6,5.5c-2,1-4.4,2-7,2.9l0,90.2c0,0.2,0,5.6-1.7,11.2
				C202.3,205.6,196.8,210.4,189.5,210.4z M162.4,101.2c3.2,0,7.7,1.2,11,6.8c3.5,6,3.6,14.1,3.6,15l0,54.1c0,0.2,0,0.4,0,0.7
				c0.1,5.8,1.5,14.5,5.1,19.9c2.1,3.1,4.5,4.7,7.5,4.7c0,0,0,0,0,0c1.3,0,5.4,0,7.7-7.9c1.3-4.4,1.4-8.8,1.4-8.9l0-93.2
				c0-1.8,1.2-3.3,2.9-3.8c3.3-1,6.2-2.1,8.5-3.2c3-1.5,4.5-2.9,5.3-3.7c1-1.2,2.6-2,5.6-3.5c0.9-0.4,2.1-1,3-1.5
				c-1.2-2.8-5.6-7.5-14.8-12.2c-12.4-6.4-29.3-10.5-47.5-11.6c-13.4-0.8-23.8,1.5-30.7,7c-1,0.8-2.2,1-3.4,0.8
				c-4.4-1-9.1-2.1-14.2-3.2c-41.6-8.9-61.7-3.3-66.3,4.1c-7.2,11.7-6.9,17-4.2,21.8c2.4,4.1,9.6,6.5,14.3,8c2,0.6,3.5,1.2,4.7,1.7
				c0.2,0.1,0.7,0,1-0.1c1.2-0.3,2.5-0.1,3.5,0.7c1,0.8,1.6,1.9,1.6,3.2l0,42.8c0,4,0.9,7.8,2.6,11.2c2.7,5.1,6.8,8.1,11.3,8.1
				c4.7,0,8.3-1.6,11.3-4.9c4.2-4.7,6-12,6-17.3l0-13.6c0-9.1,7.6-13.8,15.1-13.8h0c3.8,0,7.4,1.2,10.1,3.3c3.2,2.5,5,6.3,5,10.5
				l0,22.4c0,3.1,0.7,7.4,2.7,10.3c1.4,2.1,3.3,3.1,5.8,3.1h0c1.4,0,3.6-0.4,5.6-3.4c2.8-4.2,3.7-11,3.7-15.6l0-19.9
				c0,0,0-0.1,0-0.1c0-0.5,0.2-5.3,2.4-9.8C152.3,104.3,156.8,101.2,162.4,101.2z"/>
		</g>
	</g>
</g>
</svg>
