<?xml version="1.0" encoding="utf-8"?>
<!-- Generator: Adobe Illustrator 22.1.0, SVG Export Plug-In . SVG Version: 6.00 Build 0)  -->
<svg version="1.1" id="Layer_1" xmlns="http://www.w3.org/2000/svg" xmlns:xlink="http://www.w3.org/1999/xlink" x="0px" y="0px"
	 viewBox="0 0 256 256" style="enable-background:new 0 0 256 256;" xml:space="preserve">
<style type="text/css">
	.st0{fill:#F5B31F;}
	.st1{fill:#464646;}
	.st2{opacity:0.15;}
	.st3{fill:#AC6535;}
	.st4{fill:#EB573B;}
	.st5{fill:#90C056;}
	.st6{opacity:0.35;}
	.st7{fill:#FFFFFF;}
	.st8{opacity:0.2;}
	.st9{fill:#F6D67A;}
	.st10{opacity:0.3;}
	.st11{fill:#FFA755;}
	.st12{fill:#8FAE3C;}
	.st13{fill:#BE6BB2;}
	.st14{fill:#B7C536;}
	.st15{opacity:0.1;}
	.st16{fill:#9D5A96;}
	.st17{fill:#EA615D;}
	.st18{opacity:0.4;}
	.st19{fill:#F79932;}
	.st20{fill:#FFEC97;}
	.st21{fill:#FFD11D;}
	.st22{fill:#F7F2D5;}
	.st23{fill:#F6AF72;}
	.st24{fill:#BA6C45;}
	.st25{opacity:0.5;}
	.st26{fill:#E4C074;}
	.st27{fill:#656566;}
	.st28{fill:#FACD1F;}
	.st29{fill:#FFDF66;}
	.st30{fill:#6D6E71;}
	.st31{fill:#E77CAE;}
	.st32{fill:#FFE5C4;}
	.st33{fill:#F68455;}
	.st34{opacity:0.7;}
	.st35{fill:#ADEDFF;}
	.st36{fill:#EC754B;}
	.st37{fill:#4AA5BA;}
	.st38{opacity:0.8;}
	.st39{fill:#92A5AC;}
	.st40{fill:#D06E3C;}
	.st41{fill:#DA4F4B;}
	.st42{fill:#BDF3FF;}
	.st43{fill:#F18BB4;}
	.st44{fill:#F9D97A;}
	.st45{fill:none;}
	.st46{fill:#AF6535;}
	.st47{fill:#B93226;}
	.st48{fill:#FF6050;}
	.st49{fill:#EA7CB1;}
	.st50{fill:#00B0E0;}
	.st51{fill:#EA7DAE;}
	.st52{fill:#BC7532;}
	.st53{fill:#876C6C;}
	.st54{fill:#F9F6CD;}
	.st55{fill:#FFE37B;}
	.st56{fill:#1DDCFF;}
	.st57{fill:#60ACF7;}
	.st58{fill:#C3755A;}
	.st59{fill:#96557A;}
	.st60{fill:#66625D;}
	.st61{fill:#D68032;}
	.st62{fill:#F2A355;}
	.st63{fill:#7E9E6A;}
	.st64{fill:#965A85;}
	.st65{fill:#90CAD3;}
	.st66{fill:#94B57F;}
	.st67{fill:#B2E2E7;}
	.st68{fill:#FFDF8F;}
	.st69{fill:#FFFAEB;}
	.st70{fill:#F88916;}
	.st71{fill:#FFC86E;}
	.st72{fill:#AFA51D;}
	.st73{fill:#968A1C;}
	.st74{fill:#C3556D;}
</style>
<g>
	<g>
		<g>
			<g>
				<path class="st66" d="M177.7,252.1c6.1,0,9.4-3.6,9.4-9c0-5.4,0-154.3,0-154.3l-88.9,0c0,0,0,148.9,0,154.3s3,9,9,9
					C113.2,252.1,171.6,252.1,177.7,252.1z M111.9,186.1l9.2-26.2l23.7,17.7C134.8,186.2,123.9,189,111.9,186.1z M156.8,234.4
					l-22.4-17.2c9.5-8.1,20-10.7,31.5-7.8L156.8,234.4z M165.7,144.5L133.3,134c7.5-13,18.4-20.2,32.5-21.5L165.7,144.5z"/>
			</g>
		</g>
	</g>
	<g class="st15">
		<g>
			<g>
				<path d="M175.5,252.1c2.2,0,1.5,0,2.2,0c6.1,0,9.4-3.6,9.4-9c0-5.4,0-154.3,0-154.3l-11.6,0L175.5,252.1z"/>
			</g>
		</g>
	</g>
	<g class="st8">
		<g>
			<g>
				<path class="st7" d="M109.9,88.8l-11.6,0c0,0,0,148.9,0,154.3s3.3,9,9.4,9c0.8,0,0,0,2.2,0l34.9,0c0,0-34.9-2.3-34.9-22.5
					C109.9,209.4,109.9,88.8,109.9,88.8z"/>
			</g>
		</g>
	</g>
	<g>
		<g>
			<g>
				<polygon class="st7" points="138.6,88.8 98.2,88.8 98.2,47.6 125.2,47.6 129.6,62.2 				"/>
			</g>
		</g>
	</g>
	<g>
		<g>
			<g>
				<polygon class="st7" points="187.1,47.6 187.1,88.8 150.4,88.8 141.1,62.2 136.3,47.6 				"/>
			</g>
		</g>
	</g>
	<g class="st15">
		<g>
			<g>
				<rect x="175.5" y="47.6" width="11.6" height="41.3"/>
			</g>
		</g>
	</g>
	<g>
		<g>
			<g>
				<path class="st63" d="M165.9,112.5l-0.2,32L133.3,134C140.9,121,151.7,113.8,165.9,112.5z"/>
			</g>
		</g>
	</g>
	<g>
		<g>
			<g>
				<path class="st63" d="M144.7,177.6c-9.9,8.6-20.8,11.4-32.8,8.5l9.2-26.2L144.7,177.6z"/>
			</g>
		</g>
	</g>
	<g>
		<g>
			<g>
				<path class="st63" d="M165.8,209.4l-9,25l-22.4-17.2C143.9,209.1,154.4,206.5,165.8,209.4z"/>
			</g>
		</g>
	</g>
	<g>
		<g>
			<g>
				<polygon class="st54" points="150.4,88.8 138.6,88.8 129.6,62.2 125.2,47.6 119.9,30.1 119.9,30.1 127.4,19.6 136.3,47.6 
					141.1,62.2 				"/>
			</g>
		</g>
	</g>
	<g class="st15">
		<g>
			<g>
				<polyline points="126.9,47.6 131.6,62.2 140.9,88.8 129.1,88.8 120.1,62.2 115.7,47.6 				"/>
			</g>
		</g>
	</g>
	<g>
		<g>
			<g>
				<polygon class="st54" points="124.4,9.2 127.4,19.6 119.9,30.1 116.4,17.8 				"/>
			</g>
		</g>
	</g>
	<g>
		<g>
			<g>
				<polygon class="st54" points="124.4,9.2 116.4,17.8 69.1,13.6 70.5,4.1 				"/>
			</g>
		</g>
	</g>
	<g>
		<g>
			<g>
				<path class="st1" d="M150.4,92.8L150.4,92.8l-11.8,0c-1.7,0-3.2-1.1-3.8-2.7l-9-26.6c0,0,0-0.1,0-0.1L116,31.3
					c-0.1-0.4-0.2-0.8-0.2-1.2c0-0.8,0.3-1.7,0.7-2.3l7.5-10.5c0.9-1.2,2.4-1.9,3.9-1.6c1.5,0.2,2.7,1.3,3.2,2.7l13.7,42.6l9.4,26.6
					c0.4,1.2,0.2,2.6-0.5,3.6S151.7,92.8,150.4,92.8z M141.5,84.8l3.3,0l-7.5-21.3c0,0,0-0.1,0-0.1l-11.3-35l-1.7,2.4l9.2,30.2
					L141.5,84.8z"/>
			</g>
		</g>
	</g>
	<g>
		<g>
			<g>
				<path class="st1" d="M119.9,34.1c-0.2,0-0.5,0-0.7-0.1c-1.5-0.3-2.7-1.4-3.2-2.9l-3.4-12.3c-0.4-1.3,0-2.8,0.9-3.8l8-8.6
					c1-1.1,2.5-1.5,3.9-1.2c1.4,0.3,2.5,1.4,2.9,2.8l2.9,10.4c0.3,1.2,0.1,2.4-0.6,3.4l-7.5,10.5C122.4,33.5,121.1,34.1,119.9,34.1z
					 M120.9,18.9l0.6,2.1l1.5-2.1l-0.5-1.7L120.9,18.9z"/>
			</g>
		</g>
	</g>
	<g>
		<g>
			<g>
				<path class="st1" d="M116.4,21.8c-0.1,0-0.2,0-0.4,0l-47.3-4.2c-1.1-0.1-2.1-0.6-2.8-1.5s-1-2-0.8-3.1l1.4-9.6
					c0.3-2.1,2.2-3.6,4.3-3.4l53.9,5.2c1.5,0.1,2.8,1.1,3.4,2.6c0.5,1.4,0.2,3-0.8,4.1l-8,8.6C118.6,21.4,117.5,21.8,116.4,21.8z
					 M73.7,10l41.1,3.7l1.2-1.2l-42.1-4L73.7,10z"/>
			</g>
		</g>
	</g>
	<g>
		<g>
			<g>
				<path class="st1" d="M138.6,92.8L138.6,92.8l-40.4,0c-2.2,0-4-1.8-4-4l0-41.3c0-2.2,1.8-4,4-4l0,0l26.9,0c1.8,0,3.3,1.2,3.8,2.8
					l4.4,14.6l9,26.5c0.4,1.2,0.2,2.6-0.5,3.6C141.1,92.2,139.9,92.8,138.6,92.8z M102.2,84.8l30.8,0l-7.2-21.3c0,0,0-0.1,0-0.1
					l-3.6-11.8l-20,0L102.2,84.8z"/>
			</g>
		</g>
	</g>
	<g>
		<g>
			<g>
				<path class="st1" d="M187.1,92.8L187.1,92.8l-36.7,0c-1.7,0-3.2-1.1-3.8-2.7l-9.4-26.6c0,0,0-0.1,0-0.1l-4.7-14.7
					c-0.4-1.2-0.2-2.5,0.6-3.6c0.8-1,2-1.6,3.2-1.6l0,0l50.8,0c1.1,0,2.1,0.4,2.8,1.2c0.8,0.8,1.2,1.8,1.2,2.8l0,41.3
					C191.1,91,189.4,92.8,187.1,92.8z M153.3,84.8l29.9,0l0-33.3l-41.3,0l3,9.4L153.3,84.8z"/>
			</g>
		</g>
	</g>
	<g>
		<g>
			<g>
				<path class="st1" d="M177.7,256.1h-70.6c-7.9,0-12.9-5.1-12.9-13c0-5.4,0-154.3,0-154.3c0-1.1,0.4-2.1,1.2-2.8s1.8-1.2,2.8-1.2
					l0,0l88.9,0c2.2,0,4,1.8,4,4c0,0,0,148.9,0,154.3C191.1,251,185.9,256.1,177.7,256.1z M102.2,92.8c0,23.8,0,145.4,0,150.3
					c0,3.5,1.5,5,4.9,5h70.6c3.7,0,5.4-1.6,5.4-5c0-4.9,0-126.5,0-150.3L102.2,92.8z M156.8,238.4c-0.9,0-1.7-0.3-2.4-0.8
					l-22.4-17.2c-1-0.7-1.5-1.9-1.6-3.1c0-1.2,0.5-2.4,1.4-3.1c10.5-9,22.3-11.9,35-8.6c1.1,0.3,2,1,2.5,2c0.5,1,0.6,2.2,0.2,3.2
					l-9,25c-0.4,1.2-1.4,2.1-2.6,2.5C157.5,238.4,157.2,238.4,156.8,238.4z M141,217.3l13.9,10.7l5.6-15.4
					C153.5,211.7,147.1,213.2,141,217.3z M120.9,191.2c-3.2,0-6.5-0.4-9.9-1.2c-1.1-0.3-2-1-2.6-2c-0.5-1-0.6-2.2-0.3-3.2l9.2-26.2
					c0.4-1.2,1.4-2.1,2.6-2.5c1.2-0.4,2.5-0.1,3.6,0.6l23.7,17.7c1,0.7,1.6,1.8,1.6,3.1c0,1.2-0.5,2.4-1.4,3.2
					C139.2,187.6,130.3,191.2,120.9,191.2z M117.2,183c7.5,0.9,14.4-0.9,20.9-5.4L123,166.3L117.2,183z M165.7,148.5
					c-0.4,0-0.8-0.1-1.2-0.2l-32.3-10.4c-1.1-0.4-2.1-1.2-2.5-2.4s-0.3-2.4,0.3-3.4c8.2-14.2,20.2-22.1,35.6-23.5
					c1.1-0.1,2.2,0.3,3.1,1s1.3,1.8,1.3,3l-0.2,32c0,1.3-0.6,2.5-1.7,3.2C167.3,148.2,166.5,148.5,165.7,148.5z M139.5,131.8
					l22.2,7.2l0.1-21.9C152.6,119,145.3,123.8,139.5,131.8z"/>
			</g>
		</g>
	</g>
	<g>
		<g>
			<g>
				<path class="st1" d="M150.4,92.8L150.4,92.8l-11.8,0c-1.7,0-3.2-1.1-3.8-2.7l-9-26.6c0,0,0-0.1,0-0.1l-4.5-14.7
					c-0.4-1.2-0.1-2.5,0.6-3.5c0.8-1,1.9-1.6,3.2-1.6l0,0l11.2,0c1.7,0,3.3,1.1,3.8,2.8l4.7,14.6l9.4,26.6c0.4,1.2,0.2,2.6-0.5,3.6
					S151.7,92.8,150.4,92.8z M141.5,84.8l3.3,0l-7.5-21.3c0,0,0-0.1,0-0.1l-3.8-11.9h-2.9l2.9,9.4L141.5,84.8z"/>
			</g>
		</g>
	</g>
	<g>
		<g>
			<g>
				<path class="st1" d="M165.7,148.5c-0.4,0-0.8-0.1-1.2-0.2l-32.3-10.4c-1.2-0.4-2.1-1.2-2.5-2.4s-0.3-2.4,0.3-3.4
					c8.2-14.2,20.2-22.1,35.6-23.5c1.1-0.1,2.2,0.3,3.1,1c0.8,0.8,1.3,1.8,1.3,3l-0.2,32c0,1.3-0.6,2.5-1.7,3.2
					C167.3,148.2,166.5,148.5,165.7,148.5z M139.5,131.8l22.2,7.2l0.1-21.9C152.6,119,145.3,123.8,139.5,131.8z"/>
			</g>
		</g>
	</g>
	<g>
		<g>
			<g>
				<path class="st1" d="M120.8,191.2c-3.2,0-6.5-0.4-9.9-1.2c-1.1-0.3-2-1-2.6-2s-0.6-2.2-0.3-3.2l9.2-26.2
					c0.4-1.2,1.4-2.1,2.6-2.5c1.2-0.4,2.5-0.1,3.6,0.6l23.7,17.7c1,0.7,1.6,1.8,1.6,3.1c0,1.2-0.5,2.4-1.4,3.2
					C139.2,187.6,130.3,191.2,120.8,191.2z M117.2,183c7.5,0.9,14.4-0.9,20.9-5.4L123,166.3L117.2,183z"/>
			</g>
		</g>
	</g>
	<g>
		<g>
			<g>
				<path class="st1" d="M156.8,238.4c-0.9,0-1.7-0.3-2.4-0.8l-22.4-17.2c-1-0.7-1.5-1.9-1.6-3.1c0-1.2,0.5-2.4,1.4-3.1
					c10.5-9,22.3-11.9,35-8.6c1.1,0.3,2,1,2.5,2c0.5,1,0.6,2.2,0.2,3.2l-9,25c-0.4,1.2-1.4,2.1-2.6,2.5
					C157.5,238.4,157.2,238.4,156.8,238.4z M141,217.3l13.9,10.7l5.6-15.4C153.5,211.7,147.1,213.2,141,217.3z"/>
			</g>
		</g>
	</g>
</g>
</svg>
