<?xml version="1.0" encoding="utf-8"?>
<!-- Generator: Adobe Illustrator 22.1.0, SVG Export Plug-In . SVG Version: 6.00 Build 0)  -->
<svg version="1.1" id="Layer_1" xmlns="http://www.w3.org/2000/svg" xmlns:xlink="http://www.w3.org/1999/xlink" x="0px" y="0px"
	 viewBox="0 0 256 256" style="enable-background:new 0 0 256 256;" xml:space="preserve">
<style type="text/css">
	.st0{fill:#F5B31F;}
	.st1{fill:#464646;}
	.st2{opacity:0.15;}
	.st3{fill:#AC6535;}
	.st4{fill:#EB573B;}
	.st5{fill:#90C056;}
	.st6{opacity:0.35;}
	.st7{fill:#FFFFFF;}
	.st8{opacity:0.2;}
	.st9{fill:#F6D67A;}
	.st10{opacity:0.3;}
	.st11{fill:#FFA755;}
	.st12{fill:#8FAE3C;}
	.st13{fill:#BE6BB2;}
	.st14{fill:#B7C536;}
	.st15{opacity:0.1;}
	.st16{fill:#9D5A96;}
	.st17{fill:#EA615D;}
	.st18{opacity:0.4;}
	.st19{fill:#F79932;}
	.st20{fill:#FFEC97;}
	.st21{fill:#FFD11D;}
	.st22{fill:#F7F2D5;}
	.st23{fill:#F6AF72;}
	.st24{fill:#BA6C45;}
	.st25{opacity:0.5;}
	.st26{fill:#E4C074;}
	.st27{fill:#656566;}
	.st28{fill:#FACD1F;}
	.st29{fill:#FFDF66;}
	.st30{fill:#6D6E71;}
	.st31{fill:#E77CAE;}
	.st32{fill:#FFE5C4;}
	.st33{fill:#F68455;}
	.st34{opacity:0.7;}
	.st35{fill:#ADEDFF;}
	.st36{fill:#EC754B;}
	.st37{fill:#4AA5BA;}
	.st38{opacity:0.8;}
	.st39{fill:#92A5AC;}
	.st40{fill:#D06E3C;}
	.st41{fill:#DA4F4B;}
	.st42{fill:#BDF3FF;}
	.st43{fill:#F18BB4;}
	.st44{fill:#F9D97A;}
	.st45{fill:none;}
	.st46{fill:#AF6535;}
	.st47{fill:#B93226;}
	.st48{fill:#FF6050;}
	.st49{fill:#EA7CB1;}
	.st50{fill:#00B0E0;}
	.st51{fill:#EA7DAE;}
	.st52{fill:#BC7532;}
	.st53{fill:#876C6C;}
	.st54{fill:#F9F6CD;}
	.st55{fill:#FFE37B;}
	.st56{fill:#1DDCFF;}
	.st57{fill:#60ACF7;}
	.st58{fill:#C3755A;}
	.st59{fill:#96557A;}
	.st60{fill:#66625D;}
	.st61{fill:#D68032;}
	.st62{fill:#F2A355;}
	.st63{fill:#7E9E6A;}
	.st64{fill:#965A85;}
	.st65{fill:#90CAD3;}
	.st66{fill:#94B57F;}
	.st67{fill:#B2E2E7;}
	.st68{fill:#FFDF8F;}
	.st69{fill:#FFFAEB;}
	.st70{fill:#F88916;}
	.st71{fill:#FFC86E;}
	.st72{fill:#AFA51D;}
	.st73{fill:#968A1C;}
	.st74{fill:#C3556D;}
</style>
<g>
	<g>
		<g>
			<polygon class="st0" points="114.8,251.9 88.4,251.9 80.8,166.7 113.3,166.7 113.6,179.2 			"/>
		</g>
	</g>
	<g>
		<g>
			<polygon class="st0" points="88.4,251.9 61.3,251.9 46.9,166.7 80.8,166.7 			"/>
		</g>
	</g>
	<g>
		<g>
			<polygon class="st0" points="144.3,166.7 144.1,178.8 142.9,251.9 114.8,251.9 113.6,179.2 113.3,166.7 			"/>
		</g>
	</g>
	<g>
		<g>
			<polygon class="st0" points="175.1,166.7 170.3,251.9 142.9,251.9 144.1,178.8 144.3,166.7 			"/>
		</g>
	</g>
	<g>
		<g>
			<polygon class="st0" points="208.9,166.7 195.3,251.9 170.3,251.9 175.1,166.7 			"/>
		</g>
	</g>
	<g class="st15">
		<g>
			<path class="st1" d="M208.9,166.7l-13.7,85.2l-129.9,0l-2.7-10.6c0,0,94.7,1.1,112.4-10.2c14.6-9.3,24.1-64.4,24.1-64.4
				L208.9,166.7z"/>
		</g>
	</g>
	<g>
		<g>
			<path class="st31" d="M208.9,166.7l-162,0c-35.6-11.7-40.9-62.2,11.9-84c0-30.8,21.9-49.3,48.2-55.5C108.2,37.7,117.1,46,128,46
				c10.7,0,19.6-8,20.8-18.4c25.7,6.5,46.8,24.8,46.8,55.1C249.9,104.4,245.3,155.1,208.9,166.7z"/>
		</g>
	</g>
	<g class="st10">
		<g>
			<path class="st7" d="M107.1,27.2c-26.3,6.1-48.2,24.6-48.2,55.5C6.1,104.5,11.4,155,47,166.7c0,0-14.5-18.7-11.6-41.8
				s32.3-38.4,32.3-38.4s-1.7-15,7.6-30.7S107.8,25.9,107.1,27.2z"/>
		</g>
	</g>
	<g class="st8">
		<g>
			<path class="st1" d="M195.6,82.7c54.3,21.7,49.6,72.5,13.3,84l-162,0c0,0,151.6,6.6,164.7-28.9
				C224.8,102.2,195.6,82.7,195.6,82.7z"/>
		</g>
	</g>
	<g class="st8">
		<g>
			<polygon class="st1" points="47,166.7 50.3,179.6 205.2,179.6 208.9,166.7 			"/>
		</g>
	</g>
	<g>
		<g>
			<path class="st1" d="M208.9,170.7C208.9,170.7,208.9,170.7,208.9,170.7l-162,0c-0.4,0-0.8-0.1-1.3-0.2
				c-17.5-5.8-29.3-20.9-30-38.6c-0.3-8.1,1.7-35.3,39.2-51.9c0.6-14.3,5.8-27.1,15.3-37.1c8.9-9.4,21.4-16.2,36-19.6
				c1.1-0.3,2.3,0,3.2,0.6s1.5,1.7,1.7,2.8C112,35.4,119.3,42,128,42c0,0,0,0,0,0c8.6,0,15.8-6.4,16.9-14.9c0.1-1.1,0.8-2.2,1.7-2.8
				c0.9-0.6,2.1-0.9,3.2-0.6c30.2,7.6,48.7,28.6,49.8,56.3c38.9,16.7,41,44.3,40.7,52.4c-0.6,17.5-12.5,32.5-30.1,38.1
				C209.8,170.7,209.4,170.7,208.9,170.7z M47.6,162.7l160.7,0c14.3-4.8,23.5-16.5,24-30.6c0.7-18.8-13.6-35.9-38.2-45.8
				c-1.5-0.6-2.5-2.1-2.5-3.7c0-24-14.8-42.5-39.8-50.1C148.5,42.7,139,50,128,50c0,0,0,0,0,0c-11.2,0-20.8-7.4-24-17.8
				c-25.8,7.4-41.1,26.1-41.1,50.5c0,1.6-1,3.1-2.5,3.7c-23.6,9.8-37.3,26.7-36.6,45.3C24.3,145.9,33.4,157.8,47.6,162.7z"/>
		</g>
	</g>
	<g>
		<g>
			<path class="st1" d="M114.8,255.9C114.8,255.9,114.8,255.9,114.8,255.9l-26.3,0c-2.1,0-3.8-1.6-4-3.6l-7.6-85.2
				c-0.1-1.1,0.3-2.2,1-3.1c0.8-0.8,1.8-1.3,3-1.3c0,0,0,0,0,0l32.5,0c2.2,0,4,1.8,4,3.9l1.4,85.2c0,1.1-0.4,2.1-1.1,2.9
				C116.9,255.4,115.8,255.9,114.8,255.9z M92.1,247.9l18.6,0l-1.3-77.2l-24.2,0L92.1,247.9z"/>
		</g>
	</g>
	<g>
		<g>
			<path class="st1" d="M88.4,255.9L88.4,255.9l-27.1,0c-2,0-3.6-1.4-3.9-3.3L43,167.4c-0.2-1.2,0.1-2.3,0.9-3.2
				c0.8-0.9,1.9-1.4,3.1-1.4l0,0l33.9,0c2.1,0,3.8,1.6,4,3.6l7.6,85.2c0.1,1.1-0.3,2.2-1,3.1C90.6,255.4,89.5,255.9,88.4,255.9z
				 M64.7,247.9l19.3,0l-6.8-77.2l-25.5,0L64.7,247.9z"/>
		</g>
	</g>
	<g>
		<g>
			<path class="st1" d="M142.9,255.9L142.9,255.9l-28.1,0c-2.2,0-4-1.8-4-3.9l-1.4-85.2c0-1.1,0.4-2.1,1.1-2.9
				c0.8-0.8,1.8-1.2,2.9-1.2c0,0,0,0,0,0l31,0c1.1,0,2.1,0.4,2.9,1.2c0.8,0.8,1.2,1.8,1.1,2.9l-1.4,85.2
				C146.9,254.1,145.1,255.9,142.9,255.9z M118.7,247.9l20.3,0l1.3-77.2l-22.8,0L118.7,247.9z"/>
		</g>
	</g>
	<g>
		<g>
			<path class="st1" d="M170.3,255.9C170.3,255.9,170.3,255.9,170.3,255.9l-27.4,0c-1.1,0-2.1-0.4-2.9-1.2s-1.2-1.8-1.1-2.9
				l1.4-85.2c0-2.2,1.8-3.9,4-3.9c0,0,0,0,0,0l30.8,0c1.1,0,2.2,0.5,2.9,1.3c0.8,0.8,1.1,1.9,1.1,3l-4.8,85.2
				C174.2,254.2,172.4,255.9,170.3,255.9z M147,247.9l19.6,0l4.3-77.2l-22.6,0L147,247.9z"/>
		</g>
	</g>
	<g>
		<g>
			<path class="st1" d="M195.3,255.9L195.3,255.9l-24.9,0c-1.1,0-2.2-0.5-2.9-1.3c-0.8-0.8-1.1-1.9-1.1-3l4.8-85.2
				c0.1-2.1,1.9-3.8,4-3.8l0,0l33.9,0c1.2,0,2.3,0.5,3,1.4c0.8,0.9,1.1,2.1,0.9,3.2l-13.7,85.2C198.9,254.5,197.2,255.9,195.3,255.9
				z M174.5,247.9l17.3,0l12.4-77.2l-25.4,0L174.5,247.9z"/>
		</g>
	</g>
	<g>
		<g>
			<line class="st7" x1="50.3" y1="121" x2="68.8" y2="137.8"/>
		</g>
		<g>
			<path class="st1" d="M68.8,141.8c-1,0-1.9-0.3-2.7-1L47.6,124c-1.6-1.5-1.8-4-0.3-5.6s4-1.8,5.6-0.3l18.5,16.8
				c1.6,1.5,1.8,4,0.3,5.6C71,141.3,69.9,141.8,68.8,141.8z"/>
		</g>
	</g>
	<g>
		<g>
			<line class="st7" x1="108" y1="67.2" x2="92.7" y2="88.9"/>
		</g>
		<g>
			<path class="st1" d="M92.7,92.9c-0.8,0-1.6-0.2-2.3-0.7c-1.8-1.3-2.2-3.8-1-5.6l15.3-21.8c1.3-1.8,3.8-2.2,5.6-1
				c1.8,1.3,2.2,3.8,1,5.6L96,91.2C95.2,92.3,93.9,92.9,92.7,92.9z"/>
		</g>
	</g>
	<g>
		<g>
			<line class="st7" x1="155.7" y1="84.3" x2="176.7" y2="95.3"/>
		</g>
		<g>
			<path class="st1" d="M176.7,99.3c-0.6,0-1.3-0.1-1.9-0.5l-21-11.1c-2-1-2.7-3.4-1.7-5.4c1-2,3.4-2.7,5.4-1.7l21,11.1
				c2,1,2.7,3.4,1.7,5.4C179.6,98.6,178.2,99.3,176.7,99.3z"/>
		</g>
	</g>
	<g>
		<g>
			<line class="st7" x1="138.6" y1="121" x2="119.4" y2="137.8"/>
		</g>
		<g>
			<path class="st1" d="M119.4,141.8c-1.1,0-2.2-0.5-3-1.4c-1.5-1.7-1.3-4.2,0.4-5.6L136,118c1.7-1.5,4.2-1.3,5.6,0.4
				c1.5,1.7,1.3,4.2-0.4,5.6L122,140.8C121.3,141.4,120.3,141.8,119.4,141.8z"/>
		</g>
	</g>
	<g>
		<g>
			<line class="st7" x1="200.6" y1="126.7" x2="184.6" y2="139.6"/>
		</g>
		<g>
			<path class="st1" d="M184.6,143.6c-1.2,0-2.3-0.5-3.1-1.5c-1.4-1.7-1.1-4.2,0.6-5.6l16-12.8c1.7-1.4,4.2-1.1,5.6,0.6
				c1.4,1.7,1.1,4.2-0.6,5.6l-16,12.8C186.3,143.3,185.5,143.6,184.6,143.6z"/>
		</g>
	</g>
	<g>
		<g>
			<path class="st4" d="M149,24.9c0,0.9-0.1,1.8-0.2,2.6C147.5,37.9,138.7,46,128,46c-10.8,0-19.7-8.2-20.9-18.7
				c-0.1-0.7-0.1-1.5-0.1-2.3c0-11.6,9.4-21,21-21C139.6,3.9,149,13.3,149,24.9z"/>
		</g>
	</g>
	<g class="st8">
		<g>
			<path class="st1" d="M142.8,10c3.8,3.8,6.2,9.1,6.2,14.9c0,0.9-0.1,1.8-0.2,2.6C147.5,37.9,138.7,46,128,46
				c-5.2,0-10-1.9-13.7-5.1c0,0,14-2.1,21.2-9.3C142.6,24.5,142.8,10,142.8,10z"/>
		</g>
	</g>
	<g>
		<g>
			<path class="st1" d="M128,50C128,50,128,50,128,50c-12.8,0-23.5-9.6-24.9-22.3c-0.1-0.9-0.2-1.8-0.2-2.7c0-6.7,2.6-13,7.3-17.7
				c4.7-4.7,11-7.3,17.7-7.3c0,0,0,0,0,0c13.8,0,25,11.2,25,25c0,0,0,0,0,0c0,1.1-0.1,2.2-0.2,3.2C151.2,40.5,140.6,50,128,50z
				 M128,7.9c-4.5,0-8.8,1.8-12,5c-3.2,3.2-5,7.5-5,12c0,0.6,0,1.2,0.1,1.8C112,35.4,119.3,42,128,42c0,0,0,0,0,0
				c8.6,0,15.8-6.4,16.9-14.9c0.1-0.7,0.1-1.4,0.1-2.1C145,15.5,137.3,7.9,128,7.9z M149,24.9L149,24.9L149,24.9z"/>
		</g>
	</g>
	<g class="st8">
		<g>
			<path class="st1" d="M51.2,117.2c0,0,21,10.8,23.8,16.8c2.8,6-1.1,7.5-3.9,7.9c-2.8,0.4-4.7-0.7-4.7-0.7L51.2,117.2z"/>
		</g>
	</g>
	<g class="st8">
		<g>
			<path class="st1" d="M116.9,141.4c0.4,0,7.2,4.8,10.5,2.9c3.3-1.9,18.9-16.7,18.9-19.4c0-2.7-4.6-6.8-4.6-6.8"/>
		</g>
	</g>
	<g class="st8">
		<g>
			<path class="st1" d="M91.4,92.5c0,0,6.3,3.9,11.2-0.7s15.5-19.1,13-23.3c-2.5-4.1-5.5-4.5-5.5-4.5"/>
		</g>
	</g>
	<g class="st8">
		<g>
			<path class="st1" d="M156.4,80.3c0,0,8.3,1.4,12.8,3.3c4.5,1.9,13.6,4.1,14.6,9.1c1,5-4.3,7.6-7.6,6.7S156.4,80.3,156.4,80.3z"/>
		</g>
	</g>
	<g class="st8">
		<g>
			<path class="st1" d="M182.1,142.5c0,0,4.4,4.1,8.9,2.8c4.5-1.3,16.1-10.1,16.7-13.9c0.6-3.8-4.3-7.3-4.3-7.3L182.1,142.5z"/>
		</g>
	</g>
</g>
</svg>
