<?xml version="1.0" encoding="utf-8"?>
<!-- Generator: Adobe Illustrator 22.1.0, SVG Export Plug-In . SVG Version: 6.00 Build 0)  -->
<svg version="1.1" id="Layer_1" xmlns="http://www.w3.org/2000/svg" xmlns:xlink="http://www.w3.org/1999/xlink" x="0px" y="0px"
	 viewBox="0 0 256 256" style="enable-background:new 0 0 256 256;" xml:space="preserve">
<style type="text/css">
	.st0{fill:#F5B31F;}
	.st1{fill:#464646;}
	.st2{opacity:0.15;}
	.st3{fill:#AC6535;}
	.st4{fill:#EB573B;}
	.st5{fill:#90C056;}
	.st6{opacity:0.35;}
	.st7{fill:#FFFFFF;}
	.st8{opacity:0.2;}
	.st9{fill:#F6D67A;}
	.st10{opacity:0.3;}
	.st11{fill:#FFA755;}
	.st12{fill:#8FAE3C;}
	.st13{fill:#BE6BB2;}
	.st14{fill:#B7C536;}
	.st15{opacity:0.1;}
	.st16{fill:#9D5A96;}
	.st17{fill:#EA615D;}
	.st18{opacity:0.4;}
	.st19{fill:#F79932;}
	.st20{fill:#FFEC97;}
	.st21{fill:#FFD11D;}
	.st22{fill:#F7F2D5;}
	.st23{fill:#F6AF72;}
	.st24{fill:#BA6C45;}
	.st25{opacity:0.5;}
	.st26{fill:#E4C074;}
	.st27{fill:#656566;}
	.st28{fill:#FACD1F;}
	.st29{fill:#FFDF66;}
	.st30{fill:#6D6E71;}
	.st31{fill:#E77CAE;}
	.st32{fill:#FFE5C4;}
	.st33{fill:#F68455;}
	.st34{opacity:0.7;}
	.st35{fill:#ADEDFF;}
	.st36{fill:#EC754B;}
	.st37{fill:#4AA5BA;}
	.st38{opacity:0.8;}
	.st39{fill:#92A5AC;}
	.st40{fill:#D06E3C;}
	.st41{fill:#DA4F4B;}
	.st42{fill:#BDF3FF;}
	.st43{fill:#F18BB4;}
	.st44{fill:#F9D97A;}
	.st45{fill:none;}
	.st46{fill:#AF6535;}
	.st47{fill:#B93226;}
	.st48{fill:#FF6050;}
	.st49{fill:#EA7CB1;}
	.st50{fill:#00B0E0;}
	.st51{fill:#EA7DAE;}
	.st52{fill:#BC7532;}
	.st53{fill:#876C6C;}
	.st54{fill:#F9F6CD;}
	.st55{fill:#FFE37B;}
	.st56{fill:#1DDCFF;}
	.st57{fill:#60ACF7;}
	.st58{fill:#C3755A;}
	.st59{fill:#96557A;}
	.st60{fill:#66625D;}
	.st61{fill:#D68032;}
	.st62{fill:#F2A355;}
	.st63{fill:#7E9E6A;}
	.st64{fill:#965A85;}
	.st65{fill:#90CAD3;}
	.st66{fill:#94B57F;}
	.st67{fill:#B2E2E7;}
	.st68{fill:#FFDF8F;}
	.st69{fill:#FFFAEB;}
	.st70{fill:#F88916;}
	.st71{fill:#FFC86E;}
	.st72{fill:#AFA51D;}
	.st73{fill:#968A1C;}
	.st74{fill:#C3556D;}
</style>
<g>
	<g>
		<g>
			<g>
				<path class="st49" d="M163.2,66.8l0,46.1l-69.1,69.3c-1.1-2.3-1.8-4.9-1.8-7.8l0-36.5L163.2,66.8z"/>
			</g>
		</g>
		<g>
			<g>
				<path class="st4" d="M163.2,29.5l0,37.2l-70.8,71.1l0-46.1L161.9,22C162.7,24.3,163.2,26.8,163.2,29.5z"/>
			</g>
		</g>
		<g>
			<g>
				<path class="st49" d="M161.9,22L92.4,91.8l0-46.1l41.1-41.3C146.3,5.8,158.1,11.6,161.9,22z"/>
			</g>
		</g>
		<g>
			<g>
				<path class="st4" d="M133.5,4.5L92.4,45.7l0-16.2C92.4,10.8,114.1,2.5,133.5,4.5z"/>
			</g>
		</g>
		<g>
			<g>
				<path class="st4" d="M163.2,112.8l0,46.1l-29.1,29.2l-8.8,8.9c-3.4-0.1-6.7-0.6-9.9-1.2c-9.6-2.1-17.7-6.6-21.2-13.6
					L163.2,112.8z"/>
			</g>
		</g>
		<g>
			<g>
				<path class="st49" d="M163.2,158.9l0,15.5c0,11.5-10.3,18.6-23,21.4c-4.8,1-9.9,1.5-15,1.2l8.8-8.9L163.2,158.9z"/>
			</g>
		</g>
	</g>
	<g>
		<g>
			<path class="st44" d="M140.2,195.8l0,43.7c0,17-24.9,17-24.9,0l0-43.7c3.2,0.7,6.5,1.1,9.9,1.2
				C130.3,197.2,135.4,196.8,140.2,195.8z"/>
		</g>
	</g>
	<g class="st2">
		<g>
			<path class="st1" d="M140.2,195.8l0,12.1l-24.9,0l0-12.1c3.2,0.2,6.5,0.3,9.9,0.3C130.3,196.2,135.4,196,140.2,195.8z"/>
		</g>
	</g>
	<g>
		<g>
			<path class="st1" d="M94.1,186.1c-0.2,0-0.4,0-0.6-0.1c-1.3-0.2-2.4-1-2.9-2.2c-1.5-2.9-2.2-6.1-2.2-9.5l0-36.5
				c0-1.1,0.4-2.1,1.2-2.8l70.8-71.1c1.1-1.1,2.9-1.5,4.4-0.9c1.5,0.6,2.5,2.1,2.5,3.7l0,46.1c0,1.1-0.4,2.1-1.2,2.8L97,184.9
				C96.2,185.7,95.2,186.1,94.1,186.1z M96.4,139.5l0,34.7l62.8-63l0-34.7L96.4,139.5z"/>
		</g>
	</g>
	<g>
		<g>
			<path class="st1" d="M92.4,141.8c-0.5,0-1-0.1-1.5-0.3c-1.5-0.6-2.5-2.1-2.5-3.7l0-46.1c0-1.1,0.4-2.1,1.2-2.8l69.5-69.8
				c1-1,2.3-1.4,3.7-1.1c1.3,0.3,2.4,1.2,2.9,2.5c1,2.8,1.6,5.8,1.6,8.9l0,0l0,37.2c0,1.1-0.4,2.1-1.2,2.8l-70.8,71.1
				C94.4,141.4,93.4,141.8,92.4,141.8z M96.4,93.4l0,34.7l62.8-63l0-34.7L96.4,93.4z M163.2,29.5L163.2,29.5L163.2,29.5z"/>
		</g>
	</g>
	<g>
		<g>
			<path class="st1" d="M92.4,95.8c-0.5,0-1-0.1-1.5-0.3c-1.5-0.6-2.5-2.1-2.5-3.7l0-46.1c0-1.1,0.4-2.1,1.2-2.8l41.1-41.3
				c0.9-0.9,2-1.3,3.2-1.2c15.8,1.6,27.7,9.2,31.7,20.1c0.5,1.5,0.2,3.1-0.9,4.2L95.2,94.6C94.4,95.4,93.4,95.8,92.4,95.8z
				 M96.4,47.4l0,34.7l60.7-60.9c-3.6-6.5-11.6-11-22.2-12.5L96.4,47.4z"/>
		</g>
	</g>
	<g>
		<g>
			<path class="st1" d="M92.4,49.7c-0.5,0-1-0.1-1.5-0.3c-1.5-0.6-2.5-2.1-2.5-3.7l0-16.2c0-7.4,3-14.1,8.6-19.1
				c8.4-7.6,22.6-11.4,36.9-9.9c1.5,0.2,2.8,1.2,3.4,2.6s0.2,3.1-0.9,4.2L95.2,48.5C94.4,49.3,93.4,49.7,92.4,49.7z M124,8.3
				c-8.7,0.7-16.7,3.5-21.6,8c-4,3.6-6,8-6,13.2V36L124,8.3z"/>
		</g>
	</g>
	<g>
		<g>
			<path class="st1" d="M125.2,201c-0.1,0-0.1,0-0.2,0c-3.6-0.2-7.2-0.6-10.6-1.3c-11.7-2.5-20.2-8.1-23.9-15.8
				c-0.8-1.5-0.5-3.4,0.8-4.6l69.1-69.3c1.1-1.1,2.9-1.5,4.4-0.9c1.5,0.6,2.5,2.1,2.5,3.7l0,46.1c0,1.1-0.4,2.1-1.2,2.8l-38,38.1
				C127.3,200.6,126.3,201,125.2,201z M99.2,182.7c3.3,4.2,9.3,7.5,17,9.1c2.4,0.5,4.9,0.9,7.5,1.1l35.5-35.7l0-34.7L99.2,182.7z"/>
		</g>
	</g>
	<g>
		<g>
			<path class="st1" d="M127.8,256.2C127.8,256.2,127.8,256.2,127.8,256.2c-8.2,0-16.4-5.7-16.4-16.7l0-43.7c0-1.2,0.5-2.4,1.5-3.1
				c0.9-0.8,2.2-1.1,3.4-0.8c2.9,0.6,6,1,9.2,1.2c4.8,0.2,9.6-0.2,14-1.2c1.2-0.3,2.4,0,3.4,0.8c0.9,0.8,1.5,1.9,1.5,3.1l0,43.7
				C144.2,250.4,135.9,256.2,127.8,256.2z M119.3,200.5l0,38.9c0,2.8,0.9,5,2.6,6.6c1.5,1.4,3.6,2.1,5.9,2.1c4.2,0,8.4-2.7,8.4-8.7
				l0-38.9c-3.6,0.5-7.4,0.6-11.2,0.5C123.1,200.9,121.2,200.7,119.3,200.5z"/>
		</g>
	</g>
	<g>
		<g>
			<path class="st1" d="M127.8,201c-0.9,0-1.8,0-2.7-0.1c-1.6-0.1-3-1.1-3.6-2.5c-0.6-1.5-0.2-3.2,0.9-4.3l38-38.1
				c1.1-1.1,2.9-1.5,4.4-0.9c1.5,0.6,2.5,2.1,2.5,3.7l0,15.5c0,12.3-9.8,21.8-26.1,25.3C136.9,200.6,132.3,201,127.8,201z
				 M159.2,168.6l-23.9,24c1.4-0.2,2.8-0.4,4.1-0.7c17.9-3.9,19.8-13.5,19.8-17.5V168.6z"/>
		</g>
	</g>
</g>
</svg>
