<?xml version="1.0" encoding="utf-8"?>
<!-- Generator: Adobe Illustrator 22.1.0, SVG Export Plug-In . SVG Version: 6.00 Build 0)  -->
<svg version="1.1" id="Layer_1" xmlns="http://www.w3.org/2000/svg" xmlns:xlink="http://www.w3.org/1999/xlink" x="0px" y="0px"
	 viewBox="0 0 256 256" style="enable-background:new 0 0 256 256;" xml:space="preserve">
<style type="text/css">
	.st0{fill:#F5B31F;}
	.st1{fill:#464646;}
	.st2{opacity:0.15;}
	.st3{fill:#AC6535;}
	.st4{fill:#EB573B;}
	.st5{fill:#90C056;}
	.st6{opacity:0.35;}
	.st7{fill:#FFFFFF;}
	.st8{opacity:0.2;}
	.st9{fill:#F6D67A;}
	.st10{opacity:0.3;}
	.st11{fill:#FFA755;}
	.st12{fill:#8FAE3C;}
	.st13{fill:#BE6BB2;}
	.st14{fill:#B7C536;}
	.st15{opacity:0.1;}
	.st16{fill:#9D5A96;}
	.st17{fill:#EA615D;}
	.st18{opacity:0.4;}
	.st19{fill:#F79932;}
	.st20{fill:#FFEC97;}
	.st21{fill:#FFD11D;}
	.st22{fill:#F7F2D5;}
	.st23{fill:#F6AF72;}
	.st24{fill:#BA6C45;}
	.st25{opacity:0.5;}
	.st26{fill:#E4C074;}
	.st27{fill:#656566;}
	.st28{fill:#FACD1F;}
	.st29{fill:#FFDF66;}
	.st30{fill:#6D6E71;}
	.st31{fill:#E77CAE;}
	.st32{fill:#FFE5C4;}
	.st33{fill:#F68455;}
	.st34{opacity:0.7;}
	.st35{fill:#ADEDFF;}
	.st36{fill:#EC754B;}
	.st37{fill:#4AA5BA;}
	.st38{opacity:0.8;}
	.st39{fill:#92A5AC;}
	.st40{fill:#D06E3C;}
	.st41{fill:#DA4F4B;}
	.st42{fill:#BDF3FF;}
	.st43{fill:#F18BB4;}
	.st44{fill:#F9D97A;}
	.st45{fill:none;}
	.st46{fill:#AF6535;}
	.st47{fill:#B93226;}
	.st48{fill:#FF6050;}
	.st49{fill:#EA7CB1;}
	.st50{fill:#00B0E0;}
	.st51{fill:#EA7DAE;}
	.st52{fill:#BC7532;}
	.st53{fill:#876C6C;}
	.st54{fill:#F9F6CD;}
	.st55{fill:#FFE37B;}
	.st56{fill:#1DDCFF;}
	.st57{fill:#60ACF7;}
	.st58{fill:#C3755A;}
	.st59{fill:#96557A;}
	.st60{fill:#66625D;}
	.st61{fill:#D68032;}
	.st62{fill:#F2A355;}
	.st63{fill:#7E9E6A;}
	.st64{fill:#965A85;}
	.st65{fill:#90CAD3;}
	.st66{fill:#94B57F;}
	.st67{fill:#B2E2E7;}
	.st68{fill:#FFDF8F;}
	.st69{fill:#FFFAEB;}
	.st70{fill:#F88916;}
	.st71{fill:#FFC86E;}
	.st72{fill:#AFA51D;}
	.st73{fill:#968A1C;}
	.st74{fill:#C3556D;}
</style>
<g>
	<g>
		<g>
			<path class="st4" d="M186.1,27.2c9.5,9.5,17,20.4,22.4,32c7.7,16.5,11.2,34.4,10.4,52.3c-0.7,16.6-5,33.1-13.1,48.2
				c-5.1,9.6-11.7,18.6-19.8,26.7c-8.1,8.1-17.1,14.7-26.7,19.8c-15,8-31.5,12.4-48.2,13.1c-17.8,0.7-35.7-2.7-52.2-10.4
				c-11.6-5.4-22.4-12.9-31.9-22.4L186.1,27.2z"/>
		</g>
	</g>
	<g class="st10">
		<g>
			<path class="st7" d="M186.1,27.2l-159,159.1c9.5,9.5,20.4,17,31.9,22.4C61.5,164.2,121.8,96.5,186.1,27.2z"/>
		</g>
	</g>
	<g>
		<g>
			<path class="st12" d="M209.2,4.1c12.3,12.3,21.9,26.3,28.9,41.2c9.9,21.3,14.4,44.5,13.5,67.5c-0.9,21.5-6.5,42.8-16.9,62.2
				c-6.6,12.4-15.1,24-25.5,34.5c-10.4,10.4-22.1,19-34.5,25.6c-19.4,10.4-40.7,16-62.2,16.9c-23,0.9-46.1-3.6-67.4-13.5
				c-14.9-7-28.9-16.6-41.2-29l23.1-23.2c9.5,9.5,20.4,17,31.9,22.4c16.5,7.7,34.4,11.2,52.2,10.4c16.6-0.7,33.1-5,48.2-13.1
				c9.6-5.1,18.6-11.7,26.7-19.8c8.1-8.1,14.7-17.1,19.8-26.7c8-15.1,12.4-31.6,13.1-48.2c0.7-17.8-2.7-35.8-10.4-52.3
				c-5.4-11.6-12.9-22.4-22.4-32L209.2,4.1z"/>
		</g>
	</g>
	<g>
		<g>
			<path class="st12" d="M209.2,4.1c12.3,12.3,21.9,26.3,28.9,41.2c9.9,21.3,14.4,44.5,13.5,67.5c-0.9,21.5-6.5,42.8-16.9,62.2
				c-6.6,12.4-15.1,24-25.5,34.5c-10.4,10.4-22.1,19-34.5,25.6c-19.4,10.4-40.7,16-62.2,16.9c-23,0.9-46.1-3.6-67.4-13.5
				c-14.9-7-28.9-16.6-41.2-29l23.1-23.2c9.5,9.5,20.4,17,31.9,22.4c16.5,7.7,34.4,11.2,52.2,10.4c16.6-0.7,33.1-5,48.2-13.1
				c9.6-5.1,18.6-11.7,26.7-19.8c8.1-8.1,14.7-17.1,19.8-26.7c8-15.1,12.4-31.6,13.1-48.2c0.7-17.8-2.7-35.8-10.4-52.3
				c-5.4-11.6-12.9-22.4-22.4-32L209.2,4.1z"/>
		</g>
	</g>
	<g class="st15">
		<g>
			<path d="M209.2,4.1c12.3,12.3,21.9,26.3,28.9,41.2c9.9,21.3,14.4,44.5,13.5,67.5c-0.9,21.5-6.5,42.8-16.9,62.2
				c-6.6,12.4-15.1,24-25.5,34.5c-10.4,10.4-22.1,19-34.5,25.6C243.4,165.6,257,88.9,209.2,4.1z"/>
		</g>
	</g>
	<g class="st10">
		<g>
			<path class="st7" d="M65.2,246c-6.8-2-13.5-4.5-20-7.6c-14.9-7-28.9-16.6-41.2-29l23.1-23.2c9.5,9.5,20.4,17,31.9,22.4
				C59.5,222.7,61.2,235.5,65.2,246z"/>
		</g>
	</g>
	<g>
		<g>
			<path class="st1" d="M106.7,256.1c-21.8,0-43.5-4.8-63.2-14c-15.7-7.4-30-17.4-42.3-29.7c-1.6-1.6-1.6-4.1,0-5.7l23.1-23.2
				c0.8-0.8,1.8-1.2,2.8-1.2l0,0c1.1,0,2.1,0.4,2.8,1.2c9,9,19.4,16.3,30.8,21.6c15.6,7.3,33,10.8,50.3,10.1
				c16.2-0.7,32.2-5,46.4-12.6c9.4-5,18.1-11.4,25.7-19.1c7.6-7.6,14.1-16.3,19.1-25.8c7.6-14.2,11.9-30.3,12.6-46.5
				c0.7-17.3-2.8-34.8-10.1-50.4c-5.3-11.4-12.6-21.8-21.6-30.8c-1.6-1.6-1.6-4.1,0-5.7l23.1-23.2c0.8-0.8,1.8-1.2,2.8-1.2l0,0
				c1.1,0,2.1,0.4,2.8,1.2c12.4,12.4,22.4,26.6,29.7,42.4c10,21.5,14.8,45.5,13.8,69.3c-0.9,22.3-6.9,44.4-17.3,64
				c-6.9,13-15.7,24.9-26.2,35.4c-10.5,10.5-22.4,19.3-35.4,26.3C157.1,249,135,255,112.8,255.9C110.7,256,108.7,256.1,106.7,256.1z
				 M9.7,209.5c11,10.4,23.5,19,37.2,25.4c20.3,9.5,43,14,65.5,13.1c21.1-0.9,42-6.5,60.5-16.4c12.3-6.5,23.6-14.9,33.5-24.9
				c9.9-9.9,18.3-21.2,24.8-33.5c9.8-18.5,15.5-39.4,16.4-60.5c0.9-22.6-3.6-45.3-13.1-65.6c-6.4-13.7-14.9-26.2-25.3-37.2
				l-17.5,17.5c8.4,9,15.3,19.1,20.4,30.2c7.8,16.8,11.6,35.5,10.8,54.1c-0.7,17.4-5.4,34.7-13.5,49.9
				c-5.4,10.1-12.3,19.4-20.5,27.7c-8.2,8.2-17.5,15.1-27.6,20.5c-15.3,8.1-32.5,12.8-49.9,13.5c-18.6,0.8-37.3-3-54.1-10.8
				c-11.1-5.2-21.2-12-30.2-20.4L9.7,209.5z"/>
		</g>
	</g>
	<g>
		<g>
			<path class="st1" d="M106.6,223.3c-17,0-33.9-3.7-49.3-10.9c-12.3-5.7-23.4-13.5-33.1-23.2c-1.6-1.6-1.6-4.1,0-5.7l159-159.1
				c0.8-0.8,1.8-1.2,2.8-1.2l0,0c1.1,0,2.1,0.4,2.8,1.2c9.7,9.7,17.5,20.8,23.2,33.1c7.8,16.8,11.6,35.5,10.8,54.1
				c-0.7,17.4-5.4,34.7-13.5,49.9c-5.4,10.1-12.3,19.4-20.5,27.7c-8.2,8.2-17.5,15.1-27.6,20.5c-15.3,8.1-32.5,12.8-49.9,13.5
				C109.8,223.3,108.2,223.3,106.6,223.3z M32.8,186.3c8.3,7.7,17.7,14.1,27.9,18.8c15.6,7.3,33,10.8,50.3,10.1
				c16.2-0.7,32.2-5,46.4-12.6c9.4-5,18.1-11.4,25.7-19.1c7.6-7.6,14.1-16.3,19.1-25.8c7.6-14.2,11.9-30.3,12.6-46.5
				c0.7-17.3-2.8-34.8-10.1-50.4c-4.8-10.2-11.1-19.6-18.8-27.9L32.8,186.3z"/>
		</g>
	</g>
	<g>
		<g>
			<g>
				<path class="st1" d="M78.6,186.7L78.6,186.7c-2.2,0-4-1.8-4-4l0-13.4c0-2.2,1.8-4,4-4l0,0c2.2,0,4,1.8,4,4l0,13.4
					C82.6,185,80.8,186.7,78.6,186.7z"/>
			</g>
		</g>
		<g>
			<g>
				<path class="st1" d="M111.4,185.8c-1.7,0-3.3-1.1-3.8-2.8l-3.9-12.9c-0.6-2.1,0.5-4.3,2.7-5c2.1-0.6,4.3,0.5,5,2.7l3.9,12.9
					c0.6,2.1-0.5,4.3-2.7,5C112.2,185.7,111.8,185.8,111.4,185.8z"/>
			</g>
		</g>
		<g>
			<g>
				<path class="st1" d="M143.4,171.1c-1.2,0-2.4-0.5-3.2-1.6l-8.1-10.7c-1.3-1.8-1-4.3,0.8-5.6c1.8-1.3,4.3-1,5.6,0.8l8.1,10.7
					c1.3,1.8,1,4.3-0.8,5.6C145.1,170.9,144.2,171.1,143.4,171.1z"/>
			</g>
		</g>
		<g>
			<g>
				<path class="st1" d="M182.5,82.8L182.5,82.8l-13.4,0c-2.2,0-4-1.8-4-4s1.8-4,4-4l0,0l13.4,0c2.2,0,4,1.8,4,4
					S184.7,82.8,182.5,82.8z"/>
			</g>
		</g>
		<g>
			<g>
				<path class="st1" d="M181.5,115.6c-0.4,0-0.8-0.1-1.2-0.2l-12.8-3.9c-2.1-0.6-3.3-2.9-2.7-5c0.6-2.1,2.9-3.3,5-2.7l12.8,3.9
					c2.1,0.6,3.3,2.9,2.7,5C184.8,114.5,183.2,115.6,181.5,115.6z"/>
			</g>
		</g>
		<g>
			<g>
				<path class="st1" d="M166.9,147.6c-0.8,0-1.7-0.3-2.4-0.8l-10.7-8.2c-1.8-1.3-2.1-3.9-0.8-5.6c1.3-1.8,3.9-2.1,5.6-0.8l10.7,8.2
					c1.8,1.3,2.1,3.9,0.8,5.6C169.3,147.1,168.1,147.6,166.9,147.6z"/>
			</g>
		</g>
	</g>
	<g>
		<g>
			<g>
				<path class="st1" d="M95.8,156.1c-0.1,0-0.2,0-0.3,0c-2.2-0.2-3.9-2.1-3.7-4.3l0.6-7.7c0.2-2.2,2.1-3.9,4.3-3.7
					c2.2,0.2,3.9,2.1,3.7,4.3l-0.6,7.7C99.7,154.4,97.9,156.1,95.8,156.1z"/>
			</g>
		</g>
		<g>
			<g>
				<path class="st1" d="M119.7,143.4c-1.6,0-3-0.9-3.7-2.4l-3.4-7.8c-0.9-2,0.1-4.4,2.1-5.3c2-0.9,4.4,0.1,5.3,2.1l3.4,7.8
					c0.9,2-0.1,4.4-2.1,5.3C120.7,143.3,120.2,143.4,119.7,143.4z"/>
			</g>
		</g>
		<g>
			<g>
				<path class="st1" d="M144.2,100.6c-2.1,0-3.8-1.6-4-3.7c-0.2-2.2,1.5-4.1,3.7-4.3l7.6-0.6c2.2-0.2,4.1,1.5,4.3,3.7
					c0.2,2.2-1.5,4.1-3.7,4.3l-7.6,0.6C144.4,100.6,144.3,100.6,144.2,100.6z"/>
			</g>
		</g>
		<g>
			<g>
				<path class="st1" d="M139.2,123.9c-0.5,0-1.1-0.1-1.6-0.3l-7.8-3.4c-2-0.9-3-3.2-2.1-5.3c0.9-2,3.2-3,5.3-2.1l7.8,3.4
					c2,0.9,3,3.2,2.1,5.3C142.2,122.9,140.7,123.9,139.2,123.9z"/>
			</g>
		</g>
	</g>
</g>
</svg>
