<?xml version="1.0" encoding="utf-8"?>
<!-- Generator: Adobe Illustrator 22.1.0, SVG Export Plug-In . SVG Version: 6.00 Build 0)  -->
<svg version="1.1" id="Layer_1" xmlns="http://www.w3.org/2000/svg" xmlns:xlink="http://www.w3.org/1999/xlink" x="0px" y="0px"
	 viewBox="0 0 256 256" style="enable-background:new 0 0 256 256;" xml:space="preserve">
<style type="text/css">
	.st0{fill:#F5B31F;}
	.st1{fill:#464646;}
	.st2{opacity:0.15;}
	.st3{fill:#AC6535;}
	.st4{fill:#EB573B;}
	.st5{fill:#90C056;}
	.st6{opacity:0.35;}
	.st7{fill:#FFFFFF;}
	.st8{opacity:0.2;}
	.st9{fill:#F6D67A;}
	.st10{opacity:0.3;}
	.st11{fill:#FFA755;}
	.st12{fill:#8FAE3C;}
	.st13{fill:#BE6BB2;}
	.st14{fill:#B7C536;}
	.st15{opacity:0.1;}
	.st16{fill:#9D5A96;}
	.st17{fill:#EA615D;}
	.st18{opacity:0.4;}
	.st19{fill:#F79932;}
	.st20{fill:#FFEC97;}
	.st21{fill:#FFD11D;}
	.st22{fill:#F7F2D5;}
	.st23{fill:#F6AF72;}
	.st24{fill:#BA6C45;}
	.st25{opacity:0.5;}
	.st26{fill:#E4C074;}
	.st27{fill:#656566;}
	.st28{fill:#FACD1F;}
	.st29{fill:#FFDF66;}
	.st30{fill:#6D6E71;}
	.st31{fill:#E77CAE;}
	.st32{fill:#FFE5C4;}
	.st33{fill:#F68455;}
	.st34{opacity:0.7;}
	.st35{fill:#ADEDFF;}
	.st36{fill:#EC754B;}
	.st37{fill:#4AA5BA;}
	.st38{opacity:0.8;}
	.st39{fill:#92A5AC;}
	.st40{fill:#D06E3C;}
	.st41{fill:#DA4F4B;}
	.st42{fill:#BDF3FF;}
	.st43{fill:#F18BB4;}
	.st44{fill:#F9D97A;}
	.st45{fill:none;}
	.st46{fill:#AF6535;}
	.st47{fill:#B93226;}
	.st48{fill:#FF6050;}
	.st49{fill:#EA7CB1;}
	.st50{fill:#00B0E0;}
	.st51{fill:#EA7DAE;}
	.st52{fill:#BC7532;}
	.st53{fill:#876C6C;}
	.st54{fill:#F9F6CD;}
	.st55{fill:#FFE37B;}
	.st56{fill:#1DDCFF;}
	.st57{fill:#60ACF7;}
	.st58{fill:#C3755A;}
	.st59{fill:#96557A;}
	.st60{fill:#66625D;}
	.st61{fill:#D68032;}
	.st62{fill:#F2A355;}
	.st63{fill:#7E9E6A;}
	.st64{fill:#965A85;}
	.st65{fill:#90CAD3;}
	.st66{fill:#94B57F;}
	.st67{fill:#B2E2E7;}
	.st68{fill:#FFDF8F;}
	.st69{fill:#FFFAEB;}
	.st70{fill:#F88916;}
	.st71{fill:#FFC86E;}
	.st72{fill:#AFA51D;}
	.st73{fill:#968A1C;}
	.st74{fill:#C3556D;}
</style>
<g>
	<g>
		<g>
			<path class="st23" d="M127.2,242.8C-9.7,235.5-28.7,75.4,79,49.3c33.4-10,25.1-45.5,25.1-45.5c3.9,3.7,7.3,7.8,11,16.2
				c1.2,2.7,3.9,6.9,5.3,10.1c3.8-6.9,3.9-12.5,7.8-18.3c1.5-2.2,5.6-6,7.1-8c0,0-9.3,31.5,29.7,41.8
				C289.5,71.5,266.6,246.7,127.2,242.8z"/>
		</g>
	</g>
	<g class="st10">
		<g>
			<path class="st7" d="M164.9,45.7C126,35.3,135.2,3.8,135.2,3.8c-1.5,2.1-5.6,5.8-7.1,8c-3.9,5.8-4,11.4-7.8,18.3
				c-1.3-3.2-4.1-7.4-5.3-10.1c-3.7-8.4-7-12.6-11-16.2c0,0,8.3,35.5-25.1,45.5C107.6,40.9,136.3,39.7,164.9,45.7z"/>
		</g>
	</g>
	<g class="st15">
		<g>
			<path d="M164.9,45.7c124.6,25.9,101.6,201-37.7,197.2c-59.3-3.2-96.4-35-110.8-72.1c0,0,105,99.3,173.4,17.2
				S164.9,45.7,164.9,45.7z"/>
		</g>
	</g>
	<g>
		<g>
			<path class="st1" d="M131.7,246.9c-1.5,0-3.1,0-4.6-0.1c0,0-0.1,0-0.1,0c-34.9-1.9-65-13.7-86.9-34.3
				c-19.5-18.3-31.6-42.6-34-68.4c-2-21.9,3.3-43.5,14.9-60.7c12.7-18.8,32.4-31.9,56.9-37.9c29.2-8.8,22.6-39.4,22.3-40.7
				c-0.4-1.7,0.4-3.5,1.9-4.4c1.5-0.9,3.4-0.7,4.7,0.5c4.3,4,8,8.6,11.9,17.6c0.3,0.6,0.7,1.5,1.2,2.3c0.1-0.3,0.2-0.6,0.3-0.9
				c1.1-3.3,2.2-6.8,4.6-10.3c1-1.4,2.5-3.1,4.2-4.8c1.1-1.2,2.4-2.6,3-3.3c1.1-1.6,3.3-2.1,5-1.3c1.8,0.9,2.6,2.9,2.1,4.7
				c0,0.1-3,10.8,2.7,20.7c4.3,7.5,12.4,12.9,24.1,16.1c29.1,6.1,52.4,20.6,67.3,42c13.5,19.3,19.3,43.3,16.5,67.6
				c-3.1,26.2-15.7,50.1-35.7,67.4C192.5,237.2,164.2,246.9,131.7,246.9z M127.4,238.8c32.4,0.9,60.5-8.2,81.3-26.2
				c18.5-15.9,30.2-38.1,33-62.2c4.8-41.2-17.3-88.3-77.6-100.9c-0.1,0-0.1,0-0.2,0c-14-3.7-23.8-10.4-29.1-20
				c-2.7-4.8-3.9-9.6-4.3-13.8c-1.1,2.1-1.9,4.3-2.7,6.7c-0.9,2.9-2,6.1-4,9.7c-0.7,1.3-2.2,2.1-3.7,2c-1.5-0.1-2.9-1-3.5-2.5
				c-0.6-1.5-1.7-3.4-2.7-5.2c-1-1.7-1.9-3.4-2.5-4.8c-0.9-2-1.7-3.7-2.5-5.2c-0.7,12.4-6,30-28.7,36.8c-0.1,0-0.1,0-0.2,0.1
				c-22.6,5.5-40.6,17.4-52.3,34.6C17,103.6,12.2,123.3,14,143.4c2.2,23.9,13.4,46.4,31.5,63.3C66.1,226,94.4,237.1,127.4,238.8z"/>
		</g>
	</g>
	<g>
		<g>
			<path class="st1" d="M127.2,246.8c-0.7,0-1.5-0.2-2.2-0.6C74.1,213.5,47.2,179.3,45,144.5c-2.7-42.6,31.1-76.2,56.7-97.8
				c1.7-1.4,4.2-1.2,5.6,0.5c1.4,1.7,1.2,4.2-0.5,5.6C82.5,73.2,50.4,105,52.9,144c1.8,27.3,20.6,54.7,56.2,81.5
				c-31.4-48.9-19.8-91.7-7.6-136.6c3.5-12.7,7-25.9,9.7-39.3c0.4-2.2,2.5-3.6,4.7-3.2c2.2,0.4,3.6,2.5,3.2,4.7
				c-2.7,13.7-6.3,27-9.8,39.9c-6.8,25.1-13.3,48.8-12.2,73.2c1.2,27.1,11.8,51.3,33.1,76.1c1.3,1.5,1.3,3.7,0,5.2
				C129.5,246.4,128.3,246.8,127.2,246.8z"/>
		</g>
	</g>
	<g>
		<g>
			<path class="st1" d="M127.2,246.8c-1.1,0-2.2-0.5-3-1.4c-1.3-1.5-1.3-3.7,0-5.2c55.4-64.5,25-147.2,2-190.8c-1-2-0.3-4.4,1.7-5.4
				c2-1,4.4-0.3,5.4,1.7c17.7,33.5,28.1,67.4,30,97.9c1.9,31-4.6,58.9-19.4,83.2c39-28.3,58.9-57.4,59.1-86.8
				c0.2-21-10.1-52.7-59.7-84.8c-1.9-1.2-2.4-3.7-1.2-5.5c1.2-1.9,3.7-2.4,5.5-1.2c41.7,27,63.6,58.7,63.3,91.6
				c-0.3,36.6-27.7,72.3-81.5,106.1C128.7,246.6,128,246.8,127.2,246.8z"/>
		</g>
	</g>
	<g>
		<g>
			<path class="st1" d="M148.8,255.8c-0.5,0-1-0.1-1.5-0.3l-20.2-8.4l-19.5,6.4c-2.1,0.7-4.4-0.5-5.1-2.5c-0.7-2.1,0.5-4.4,2.5-5.1
				L126,239c0.9-0.3,1.9-0.3,2.8,0.1l21.5,9c2,0.9,3,3.2,2.1,5.2C151.8,254.9,150.3,255.8,148.8,255.8z"/>
		</g>
	</g>
	<g>
		<g>
			<path class="st1" d="M137.9,255.8c-0.9,0-1.8-0.3-2.6-0.9l-7.9-6.6l-6.2,6.3c-1.5,1.6-4.1,1.6-5.7,0.1c-1.6-1.5-1.6-4.1-0.1-5.7
				l8.8-9c1.5-1.5,3.8-1.6,5.4-0.3l10.7,9c1.7,1.4,1.9,3.9,0.5,5.6C140.2,255.4,139.1,255.8,137.9,255.8z"/>
		</g>
	</g>
</g>
</svg>
