<?xml version="1.0" encoding="utf-8"?>
<!-- Generator: Adobe Illustrator 22.1.0, SVG Export Plug-In . SVG Version: 6.00 Build 0)  -->
<svg version="1.1" id="Layer_1" xmlns="http://www.w3.org/2000/svg" xmlns:xlink="http://www.w3.org/1999/xlink" x="0px" y="0px"
	 viewBox="0 0 256 256" style="enable-background:new 0 0 256 256;" xml:space="preserve">
<style type="text/css">
	.st0{fill:#F5B31F;}
	.st1{fill:#464646;}
	.st2{opacity:0.15;}
	.st3{fill:#AC6535;}
	.st4{fill:#EB573B;}
	.st5{fill:#90C056;}
	.st6{opacity:0.35;}
	.st7{fill:#FFFFFF;}
	.st8{opacity:0.2;}
	.st9{fill:#F6D67A;}
	.st10{opacity:0.3;}
	.st11{fill:#FFA755;}
	.st12{fill:#8FAE3C;}
	.st13{fill:#BE6BB2;}
	.st14{fill:#B7C536;}
	.st15{opacity:0.1;}
	.st16{fill:#9D5A96;}
	.st17{fill:#EA615D;}
	.st18{opacity:0.4;}
	.st19{fill:#F79932;}
	.st20{fill:#FFEC97;}
	.st21{fill:#FFD11D;}
	.st22{fill:#F7F2D5;}
	.st23{fill:#F6AF72;}
	.st24{fill:#BA6C45;}
	.st25{opacity:0.5;}
	.st26{fill:#E4C074;}
	.st27{fill:#656566;}
	.st28{fill:#FACD1F;}
	.st29{fill:#FFDF66;}
	.st30{fill:#6D6E71;}
	.st31{fill:#E77CAE;}
	.st32{fill:#FFE5C4;}
	.st33{fill:#F68455;}
	.st34{opacity:0.7;}
	.st35{fill:#ADEDFF;}
	.st36{fill:#EC754B;}
	.st37{fill:#4AA5BA;}
	.st38{opacity:0.8;}
	.st39{fill:#92A5AC;}
	.st40{fill:#D06E3C;}
	.st41{fill:#DA4F4B;}
	.st42{fill:#BDF3FF;}
	.st43{fill:#F18BB4;}
	.st44{fill:#F9D97A;}
	.st45{fill:none;}
	.st46{fill:#AF6535;}
	.st47{fill:#B93226;}
	.st48{fill:#FF6050;}
	.st49{fill:#EA7CB1;}
	.st50{fill:#00B0E0;}
	.st51{fill:#EA7DAE;}
	.st52{fill:#BC7532;}
	.st53{fill:#876C6C;}
	.st54{fill:#F9F6CD;}
	.st55{fill:#FFE37B;}
	.st56{fill:#1DDCFF;}
	.st57{fill:#60ACF7;}
	.st58{fill:#C3755A;}
	.st59{fill:#96557A;}
	.st60{fill:#66625D;}
	.st61{fill:#D68032;}
	.st62{fill:#F2A355;}
	.st63{fill:#7E9E6A;}
	.st64{fill:#965A85;}
	.st65{fill:#90CAD3;}
	.st66{fill:#94B57F;}
	.st67{fill:#B2E2E7;}
	.st68{fill:#FFDF8F;}
	.st69{fill:#FFFAEB;}
	.st70{fill:#F88916;}
	.st71{fill:#FFC86E;}
	.st72{fill:#AFA51D;}
	.st73{fill:#968A1C;}
	.st74{fill:#C3556D;}
</style>
<g>
	<g>
		<g>
			<path class="st0" d="M35.6,174.5c5.1,10.7,20.7,19.8,41.8,19.8l110.5,0c21.3,0,36.6-5.8,40.7-18.8c-2.4,0.4-5,0.8-8,1.1
				c-19.7,1.8-39.4,0.4-46-8.4c-6,6.9-19,13.5-47.3,12c-22.5-1.2-35-6.8-41.9-13c-6.8,4.7-16.7,8.7-30.9,9.1
				C47.1,176.4,40.8,175.8,35.6,174.5z"/>
		</g>
	</g>
	<g>
		<g>
			<path class="st1" d="M187.9,198.2C187.9,198.2,187.9,198.2,187.9,198.2l-110.5,0c-20.8,0-39.1-8.9-45.4-22
				c-0.7-1.4-0.5-3.1,0.5-4.3s2.6-1.7,4.1-1.4c5,1.2,11,1.8,17.8,1.6c11.5-0.3,21.2-3.1,28.7-8.4c1.5-1.1,3.6-0.9,5,0.3
				c7.7,7,21,11,39.4,12c27.5,1.5,39.1-5,44.1-10.7c0.8-0.9,2-1.4,3.2-1.4c1.2,0,2.3,0.6,3.1,1.6c4.7,6.3,20.6,8.8,42.4,6.8
				c2.7-0.2,5.2-0.6,7.6-1c1.4-0.3,2.8,0.2,3.7,1.3c0.9,1,1.2,2.5,0.8,3.8C229.3,186.4,219.1,198.2,187.9,198.2z M44.9,180
				c6.6,5.8,17.7,10.3,32.4,10.3l110.5,0c0,0,0,0,0,0c19,0,28.6-4.5,33.3-9.8c-0.1,0-0.2,0-0.2,0c-26.9,2.5-40-1.7-46.4-6.8
				c-9.5,8.1-25.4,11.6-47.5,10.4c-18.6-1-32.7-5-41.9-12c-8.4,5.1-18.7,7.8-30.6,8.1C51.2,180.3,48,180.2,44.9,180z"/>
		</g>
	</g>
	<g class="st2">
		<g>
			<path class="st1" d="M243.7,150.3l-23.2,35.9c-19.7,1.8-39.4,0.4-46-8.4c-6,6.9-19,13.5-47.3,12c-22.5-1.2-35-6.8-41.9-13
				c-6.8,4.7-15.9,8.6-30.9,9.1c-15,0.5-21.8-22.8-21.8-22.8s33.8-2.1,43.8-0.3c0.3,0,0.5,0.1,0.8,0.2c5.2,1,11.2,3.1,17.4,4.8
				c5.9,1.6,11.9,3,17.7,3c12.3,0,25.9-6.1,35-6.1c5.9,0,15.1,3,24.8,5.2c2,0.4,4.1,0.8,6.2,1.2c3.2,0.5,6.4,0.8,9.6,0.8
				C199.5,171.8,230,163.3,243.7,150.3z"/>
		</g>
	</g>
	<g>
		<g>
			<path class="st3" d="M174.6,168.1c6.6,8.8,26.3,10.2,46,8.4c2.9-0.3,5.6-0.6,8-1.1h0c18.9-3.5,22.2-12.1,23.4-19.9
				c0.8-5.5-4.3-11.3-8.2-14.9c-13.7,13-44.2,21.6-55.6,21.6c-3.1,0-6.4-0.3-9.6-0.8c-2.1-0.3-4.2-0.7-6.2-1.2
				C172.1,163.3,172.9,165.9,174.6,168.1z"/>
		</g>
	</g>
	<g>
		<g>
			<path class="st4" d="M77.4,153.3c0.7,3.8,2.7,9,8.1,13.8c6.9,6.2,19.4,11.8,41.9,13c28.3,1.5,41.3-5.2,47.3-12
				c-1.6-2.2-2.4-4.8-2.2-7.9c-9.8-2.1-18.9-5.2-24.8-5.2c-9.1,0-22.7,6.1-35,6.1c-5.8,0-11.9-1.4-17.7-3
				C88.5,156.4,82.5,154.3,77.4,153.3z"/>
		</g>
	</g>
	<g>
		<g>
			<path class="st3" d="M35.6,174.5c5.2,1.3,11.5,1.9,18.9,1.7c14.3-0.4,24.2-4.4,30.9-9.1c-5.4-4.8-7.4-10-8.1-13.8
				c-0.3-0.1-0.6-0.1-0.8-0.2c-10.1-1.9-43.8,0.3-43.8,0.3c-8.1,0-14.5-2.2-19.2-5.7C12.5,159.1,18.4,170.3,35.6,174.5z"/>
		</g>
	</g>
	<g>
		<g>
			<path class="st1" d="M206.2,181.2c-21.7,0-30.9-5.6-34.8-10.7l0,0c-2.3-3-3.3-6.6-3-10.6c0.1-1.2,0.6-2.2,1.6-2.9
				c0.9-0.7,2.1-1,3.2-0.7c2.2,0.5,4.2,0.8,6,1.1c3.3,0.5,6.2,0.8,9,0.8c11,0,40.2-8.4,52.8-20.5c1.5-1.4,3.9-1.5,5.5,0
				c4.9,4.5,10.5,11.3,9.4,18.5c-2.5,16.6-14.9,21-26.6,23.2c0,0-0.1,0-0.1,0c-2.6,0.5-5.3,0.8-8.2,1.1
				C215.5,180.9,210.6,181.2,206.2,181.2z M177.8,165.7c4.7,6.3,20.6,8.8,42.4,6.8c2.7-0.2,5.2-0.6,7.6-1c0,0,0.1,0,0.1,0
				c16.6-3.1,19-9.9,20-16.5c0.3-2.2-1.3-5.4-4.4-8.9c-15.7,12.5-44,20.1-55.4,20.1c0,0,0,0,0,0c-3.2,0-6.5-0.3-10.2-0.9
				c-0.2,0-0.3,0-0.5-0.1C177.6,165.3,177.7,165.5,177.8,165.7L177.8,165.7z"/>
		</g>
	</g>
	<g>
		<g>
			<path class="st1" d="M135.1,184.3c-2.6,0-5.3-0.1-8.1-0.2c-20.3-1.1-35.2-5.8-44.3-14c-6.3-5.7-8.6-11.9-9.3-16.1
				c-0.2-1.3,0.2-2.6,1.1-3.6c0.9-0.9,2.3-1.3,3.6-1.1c3.6,0.7,7.5,1.9,11.6,3.1c2,0.6,4,1.2,6.1,1.8c5.1,1.4,11,2.8,16.6,2.8
				c0,0,0,0,0,0c6.1,0,12.7-1.7,19.1-3.3c5.8-1.5,11.2-2.8,16-2.8c0,0,0,0,0,0c4.5,0,10.1,1.4,16.6,3.1c3,0.8,6,1.5,9.1,2.2
				c1.9,0.4,3.3,2.2,3.1,4.2c-0.1,2.1,0.3,3.8,1.5,5.3c1.1,1.5,1.1,3.6-0.2,5C169.7,179.7,155.5,184.3,135.1,184.3z M83.8,159
				c1,1.7,2.4,3.4,4.3,5.1c7.7,7,21,11,39.4,12c24.3,1.3,36.3-3.6,42.1-8.7c-0.6-1.3-0.9-2.6-1.1-4c-2.2-0.5-4.3-1.1-6.4-1.6
				c-5.7-1.4-11.1-2.8-14.6-2.8c0,0,0,0,0,0c-3.7,0-8.7,1.3-14,2.6c-6.5,1.6-13.9,3.5-21,3.5c0,0,0,0,0,0c-6.6,0-13.2-1.6-18.8-3.1
				c-2.1-0.6-4.2-1.2-6.2-1.8C86.2,159.8,85,159.4,83.8,159z"/>
		</g>
	</g>
	<g>
		<g>
			<path class="st1" d="M51.9,180.2c-6.5,0-12.3-0.6-17.3-1.9c-17-4.2-26.4-15.8-25.1-31c0.1-1.4,1-2.7,2.4-3.3
				c1.3-0.6,2.9-0.4,4,0.4c4.3,3.2,10,4.9,16.7,4.9c2.6-0.2,34.4-2.1,44.7-0.2l0.8,0.2c1.6,0.3,2.9,1.6,3.2,3.2
				c0.5,3,2.2,7.4,6.8,11.6c0.9,0.8,1.4,2,1.3,3.2c-0.1,1.2-0.7,2.3-1.7,3c-8.8,6.2-20,9.5-33.1,9.8
				C53.7,180.2,52.8,180.2,51.9,180.2z M17.9,154.7c1.7,7.8,8.2,13.4,18.6,15.9c0,0,0,0,0,0c5,1.2,11,1.8,17.8,1.6
				c9.6-0.2,17.9-2.2,24.7-5.9c-2.7-3.3-4.2-6.6-5-9.5c-9.3-1.1-32.5,0-41.2,0.6c-0.1,0-0.2,0-0.3,0
				C27.3,157.4,22.3,156.4,17.9,154.7z"/>
		</g>
	</g>
	<g class="st2">
		<g>
			<path class="st1" d="M13.9,157c4.7,3.5,11.1,5.7,19.2,5.7c0,0,33.7-2.1,43.8-0.3c0.3,0.1,0.5,0.1,0.8,0.2
				c5.2,1,11.2,3.1,17.4,4.8c5.9,1.6,11.9,3,17.7,3c12.3,0,25.9-6.1,35-6.1c6,0,15.1,3,24.8,5.2c2.1,0.4,4.1,0.8,6.2,1.2
				c3.2,0.5,6.4,0.8,9.6,0.8c11.4,0,41.9-8.5,55.6-21.6c4.2-4-1.3-8.2-1.3-12.9c0-13.8-3.7-20.9-11.2-23.8
				c-1.4,22.9-20.1,33.2-35.8,33.2l-130.2,0c-28.3,0-40.6-32.1-40.6-32.1S2.1,145.1,13.9,157z"/>
		</g>
	</g>
	<g>
		<g>
			<path class="st5" d="M13.5,147.7c4.7,3.5,11.1,5.7,19.2,5.7c0,0,33.7-2.1,43.8-0.3c0.3,0.1,0.5,0.1,0.8,0.2
				c5.2,1,11.2,3.1,17.4,4.8c5.9,1.6,11.9,3,17.7,3c12.3,0,25.9-6.1,35-6.1c6,0,15.1,3,24.8,5.2c2.1,0.4,4.1,0.8,6.2,1.2
				c3.2,0.5,6.4,0.8,9.6,0.8c11.4,0,41.9-8.5,55.6-21.6c4.2-4,6.9-8.4,6.9-13.2c0-13.8-11.9-20.6-19.4-23.6
				c-1.4,22.9-20.1,33.2-35.8,33.2l-130.2,0c-28.3,0-38.8-15.9-40.6-32.1C1.5,109.9-2.1,136,13.5,147.7z"/>
		</g>
	</g>
	<g class="st2">
		<g>
			<path class="st1" d="M240,112c0,0.9,0,1.8-0.1,2.7c-1.5,22.9-21.8,33.2-38.9,33.2l-141.2,0c-30.7,0-42.1-15.9-44.1-32.1
				c-0.2-1.8-0.3-3.6-0.3-5.3C94.2,86.5,169.7,83.2,240,112z"/>
		</g>
	</g>
	<g>
		<g>
			<path class="st0" d="M24.2,99.6c0,1.8,0.1,3.5,0.3,5.3c1.8,16.3,12.3,32.1,40.6,32.1l130.2,0c15.7,0,34.5-10.3,35.8-33.2
				c0.1-0.9,0.1-1.8,0.1-2.7c0-24.7-19.6-38.6-39.3-38.6c-19.6,0-30.3,5.5-40.4,10c-16.4-13.6-40.9-15.7-62,0
				c-5.9-3.3-15.8-11.7-34.7-7.8C37,69.2,24.2,81.7,24.2,99.6z"/>
		</g>
	</g>
	<g class="st6">
		<g>
			<path class="st7" d="M89.6,72.6c-5.9-3.3-15.8-11.7-34.7-7.8C37,69.2,24.2,81.7,24.2,99.6c0,1.8,0.1,3.5,0.3,5.3
				c1.8,16.3,12.3,32.1,40.6,32.1c0,0-43-19.1-23.8-49.7S89.6,72.6,89.6,72.6z"/>
		</g>
	</g>
	<g class="st2">
		<g>
			<path class="st1" d="M217.6,71.4c8.1,6.6,13.7,16.6,13.7,29.8c0,0.9,0,1.8-0.1,2.7c-1.4,22.9-20.1,33.2-35.8,33.2l-130.2,0
				c0,0,96.4-9.1,128.7-14.4C226,117.3,217.6,71.4,217.6,71.4"/>
		</g>
	</g>
	<g>
		<g>
			<path class="st1" d="M195.3,141C195.3,141,195.3,141,195.3,141l-130.2,0c-36.7,0-43.4-25-44.6-35.7c-0.2-1.9-0.3-3.8-0.3-5.8l0,0
				c0-18.7,12.9-33.5,33.7-38.7c0.1,0,0.1,0,0.2,0c18.1-3.7,28.8,2.9,35.2,6.8c0.1,0,0.1,0.1,0.2,0.1c20.2-13.8,44.3-13.7,62.8,0.1
				c0.1,0,0.2-0.1,0.2-0.1c9.7-4.3,20.6-9.3,39.6-9.3c0,0,0,0,0,0c11,0,21.8,4,29.7,11.1c8.9,7.9,13.6,18.8,13.6,31.6
				c0,1.1,0,2-0.1,2.9C233.7,128.3,214,141,195.3,141z M28.2,99.6c0,1.6,0.1,3.3,0.3,4.9c2.7,24.9,24.1,28.6,36.6,28.6l130.2,0
				c12.1,0,30.6-7.8,31.8-29.4c0-0.7,0.1-1.5,0.1-2.4c0-10.4-3.8-19.2-10.9-25.6c-6.4-5.7-15.3-9-24.3-9c0,0,0,0,0,0
				c-17.2,0-26.9,4.4-36.3,8.6c-0.8,0.4-1.7,0.7-2.5,1.1c-1.4,0.6-3,0.4-4.2-0.6c-16.4-13.5-38.8-13.5-57.1,0.1
				c-1.3,0.9-3,1.1-4.3,0.3c-0.8-0.4-1.7-1-2.6-1.6c-6.1-3.7-14.3-8.8-29.3-5.8C38.5,73,28.2,84.5,28.2,99.6L28.2,99.6z"/>
		</g>
	</g>
	<g>
		<g>
			<path class="st1" d="M188.1,166.1C188.1,166.1,188.1,166.1,188.1,166.1c-3.2,0-6.5-0.3-10.2-0.9c-1.9-0.3-4-0.7-6.4-1.2
				c-3.3-0.7-6.4-1.5-9.4-2.3c-5.7-1.4-11.1-2.8-14.6-2.8c0,0,0,0,0,0c-3.7,0-8.7,1.3-14,2.6c-6.5,1.6-13.9,3.5-21,3.5c0,0,0,0,0,0
				c-6.6,0-13.2-1.6-18.8-3.1c-2.1-0.6-4.2-1.2-6.2-1.8c-3.9-1.2-7.7-2.3-10.9-2.9l-0.8-0.2c-7.8-1.4-33.6-0.3-42.8,0.3
				c-0.1,0-0.2,0-0.3,0c-8.4,0-15.9-2.3-21.6-6.5c-8.7-6.5-12.8-17.5-10.5-28c2.4-11.1,11-19.2,23-21.8c1.1-0.2,2.3,0,3.2,0.7
				c0.9,0.7,1.5,1.7,1.6,2.8c2.7,24.9,24.1,28.6,36.6,28.6l130.2,0c12.1,0,30.6-7.8,31.8-29.4c0.1-1.3,0.8-2.4,1.8-3.1
				c1.1-0.7,2.4-0.8,3.6-0.4c14.2,5.6,22,15.2,22,27.3c0,5.6-2.7,11-8.1,16.1C231.7,157.5,200.3,166.1,188.1,166.1z M147.5,151
				C147.5,151,147.5,151,147.5,151c4.5,0,10.1,1.4,16.6,3.1c3,0.8,6,1.5,9.1,2.2c2.2,0.5,4.2,0.8,6,1.1c3.3,0.5,6.2,0.8,9,0.8
				c11,0,40.2-8.4,52.8-20.5c3.7-3.5,5.6-7,5.6-10.3c0-8.7-5.9-14.2-12.1-17.6c-3.9,20.5-21.9,31.3-39.1,31.3c0,0,0,0,0,0l-130.2,0
				c-32,0-41.2-19-43.8-31c-6.7,2.6-11.4,7.8-12.8,14.5c-1.7,7.6,1.2,15.3,7.5,19.9c0,0,0,0,0,0c4.3,3.2,10,4.9,16.7,4.9
				c2.6-0.2,34.4-2.1,44.7-0.2l0.8,0.2c3.7,0.7,7.6,1.9,11.7,3.1c2,0.6,4,1.2,6.1,1.8c5.1,1.4,11,2.8,16.6,2.8c0,0,0,0,0,0
				c6.1,0,12.7-1.7,19.1-3.3C137.3,152.4,142.8,151,147.5,151z"/>
		</g>
	</g>
	<g>
		<g>
			<path class="st1" d="M109.3,114.4C109.3,114.4,109.3,114.4,109.3,114.4c-2.3,0-4-1.8-4-4.1c0.2-14.4-5.7-25.7-18.1-34.5
				c-1.8-1.3-2.2-3.8-0.9-5.6c1.3-1.8,3.8-2.2,5.6-0.9c14.4,10.3,21.6,24.2,21.4,41.1C113.3,112.7,111.5,114.4,109.3,114.4z"/>
		</g>
	</g>
	<g>
		<g>
			<path class="st1" d="M167.5,114.4c-0.1,0-0.2,0-0.3,0c-2.2-0.2-3.8-2.1-3.7-4.3c1.2-14.2-3.5-25.4-14.5-34.4
				c-1.7-1.4-2-3.9-0.6-5.6c1.4-1.7,3.9-2,5.6-0.6c12.9,10.6,18.8,24.5,17.4,41.3C171.3,112.8,169.6,114.4,167.5,114.4z"/>
		</g>
	</g>
</g>
</svg>
