<?xml version="1.0" encoding="utf-8"?>
<!-- Generator: Adobe Illustrator 22.1.0, SVG Export Plug-In . SVG Version: 6.00 Build 0)  -->
<svg version="1.1" id="Layer_1" xmlns="http://www.w3.org/2000/svg" xmlns:xlink="http://www.w3.org/1999/xlink" x="0px" y="0px"
	 viewBox="0 0 256 256" style="enable-background:new 0 0 256 256;" xml:space="preserve">
<style type="text/css">
	.st0{fill:#F5B31F;}
	.st1{fill:#464646;}
	.st2{opacity:0.15;}
	.st3{fill:#AC6535;}
	.st4{fill:#EB573B;}
	.st5{fill:#90C056;}
	.st6{opacity:0.35;}
	.st7{fill:#FFFFFF;}
	.st8{opacity:0.2;}
	.st9{fill:#F6D67A;}
	.st10{opacity:0.3;}
	.st11{fill:#FFA755;}
	.st12{fill:#8FAE3C;}
	.st13{fill:#BE6BB2;}
	.st14{fill:#B7C536;}
	.st15{opacity:0.1;}
	.st16{fill:#9D5A96;}
	.st17{fill:#EA615D;}
	.st18{opacity:0.4;}
	.st19{fill:#F79932;}
	.st20{fill:#FFEC97;}
	.st21{fill:#FFD11D;}
	.st22{fill:#F7F2D5;}
	.st23{fill:#F6AF72;}
	.st24{fill:#BA6C45;}
	.st25{opacity:0.5;}
	.st26{fill:#E4C074;}
	.st27{fill:#656566;}
	.st28{fill:#FACD1F;}
	.st29{fill:#FFDF66;}
	.st30{fill:#6D6E71;}
	.st31{fill:#E77CAE;}
	.st32{fill:#FFE5C4;}
	.st33{fill:#F68455;}
	.st34{opacity:0.7;}
	.st35{fill:#ADEDFF;}
	.st36{fill:#EC754B;}
	.st37{fill:#4AA5BA;}
	.st38{opacity:0.8;}
	.st39{fill:#92A5AC;}
	.st40{fill:#D06E3C;}
	.st41{fill:#DA4F4B;}
	.st42{fill:#BDF3FF;}
	.st43{fill:#F18BB4;}
	.st44{fill:#F9D97A;}
	.st45{fill:none;}
	.st46{fill:#AF6535;}
	.st47{fill:#B93226;}
	.st48{fill:#FF6050;}
	.st49{fill:#EA7CB1;}
	.st50{fill:#00B0E0;}
	.st51{fill:#EA7DAE;}
	.st52{fill:#BC7532;}
	.st53{fill:#876C6C;}
	.st54{fill:#F9F6CD;}
	.st55{fill:#FFE37B;}
	.st56{fill:#1DDCFF;}
	.st57{fill:#60ACF7;}
	.st58{fill:#C3755A;}
	.st59{fill:#96557A;}
	.st60{fill:#66625D;}
	.st61{fill:#D68032;}
	.st62{fill:#F2A355;}
	.st63{fill:#7E9E6A;}
	.st64{fill:#965A85;}
	.st65{fill:#90CAD3;}
	.st66{fill:#94B57F;}
	.st67{fill:#B2E2E7;}
	.st68{fill:#FFDF8F;}
	.st69{fill:#FFFAEB;}
	.st70{fill:#F88916;}
	.st71{fill:#FFC86E;}
	.st72{fill:#AFA51D;}
	.st73{fill:#968A1C;}
	.st74{fill:#C3556D;}
</style>
<g>
	<g>
		<g>
			<path class="st0" d="M231.3,121.6c-9.7,5.3-33.6,18.4-46,28.9s-39.5,28.2-39.5,28.2c-13,8.7-27.8,33.3-47.8,45
				c-20,11.6-28.7,10.2-47.3,12.4c-18.6,2.2-45-25.5-42-57.4c14.1,15.1,52,13.8,71.4,4c20.5-10.4,34.6-34.3,60.7-47.8
				c26.1-13.5,44.8-17.7,69.8-27.6c21.1-8.3,35.4-27,39.4-44C257.6,81.1,241,116.3,231.3,121.6z"/>
		</g>
	</g>
	<g>
		<g>
			<path class="st1" d="M48.5,240.2c-8.1,0-17.2-4.3-25.2-12.1C13,218,2.7,199.7,4.7,178.3c0.1-1.6,1.2-2.9,2.7-3.4
				c1.5-0.5,3.1-0.1,4.2,1.1c12,12.9,47.8,12.7,66.7,3.1c9.2-4.6,17.2-12.4,25.8-20.6c9.7-9.3,20.7-19.8,34.9-27.2
				c17.4-9,31.5-13.9,46.4-19.1c7.5-2.6,15.3-5.4,23.8-8.7c20.8-8.2,33.6-26.6,36.9-41.2c0.4-1.7,1.8-2.9,3.5-3.1
				c1.7-0.2,3.3,0.8,4,2.4c8.5,19.7-9.2,57.3-20.4,63.4c-9.1,5-33.2,18.1-45.3,28.5c-12.5,10.6-38.8,27.8-39.9,28.5
				c-5.1,3.4-10.9,9.9-17,16.8c-8.9,10-18.9,21.3-31,28.3c-17,9.9-26.4,10.8-39.5,11.9c-3,0.3-6,0.5-9.4,1
				C50.3,240.1,49.4,240.2,48.5,240.2z M12.5,186.8c1,15.2,8.7,28,16.4,35.5c7,6.9,15,10.5,21.3,9.7c3.5-0.4,6.6-0.7,9.6-1
				c12.4-1.1,20.7-1.9,36.2-10.9c10.9-6.4,20.5-17.2,29-26.7c6.5-7.3,12.6-14.2,18.6-18.2c0.3-0.2,27.1-17.6,39.2-27.9
				c12.8-10.9,36.5-23.8,46.6-29.4l0,0c5.7-3.1,16-21.9,18.2-38c-7.7,13.6-20.4,24.9-35.5,30.9c-8.6,3.4-16.5,6.2-24.1,8.8
				c-14.6,5.1-28.4,9.9-45.3,18.7c-13.3,6.8-23.3,16.5-33.1,25.8c-9,8.6-17.5,16.7-27.7,21.9C64.7,195,31.2,197.8,12.5,186.8z"/>
		</g>
	</g>
	<g class="st8">
		<g>
			<path class="st1" d="M253.8,67.2c0,2.9-0.4,6-1.1,9.1c-3.9,17-18.3,35.7-39.4,44c-25,9.9-43.7,14.2-69.8,27.6
				c-26.1,13.5-40.2,37.3-60.7,47.8c-19.5,9.9-57.3,11.2-71.4-4v0c-0.8-0.8-1.5-1.7-2.1-2.6c-11.9-17.9,18.7-63.9,53.3-76.4
				s27.2-8.2,67.4-38.2c40.2-30,64.1-41.3,86.1-41.3C238.1,33.2,253.8,48.2,253.8,67.2z"/>
		</g>
	</g>
	<g>
		<g>
			<path class="st3" d="M251.1,54.1c0,2.9-0.4,6-1.1,9.1c-3.9,17-18.3,35.7-39.4,44c-25,9.9-43.7,14.2-69.8,27.6
				c-26.1,13.5-40.2,37.3-60.7,47.8c-19.5,9.9-57.3,11.2-71.4-4l0,0c-0.8-0.8-1.5-1.7-2.1-2.6c-11.9-17.9,18.7-63.9,53.3-76.4
				s27.2-8.2,67.4-38.2c40.2-30,64.1-41.3,86.1-41.3S251.1,35.1,251.1,54.1z"/>
		</g>
	</g>
	<g>
		<g>
			<path class="st3" d="M251.1,54.1c0,2.9-0.4,6-1.1,9.1c-3.9,17-18.3,35.7-39.4,44c-25,9.9-43.7,14.2-69.8,27.6
				c-26.1,13.5-40.2,37.3-60.7,47.8c-19.5,9.9-57.3,11.2-71.4-4l0,0c-0.8-0.8-1.5-1.7-2.1-2.6c-11.9-17.9,18.7-63.9,53.3-76.4
				s27.2-8.2,67.4-38.2c40.2-30,64.1-41.3,86.1-41.3S251.1,35.1,251.1,54.1z"/>
		</g>
	</g>
	<g class="st2">
		<g>
			<path class="st7" d="M213.4,20.1c-22.1,0-46,11.3-86.1,41.3c-40.2,30-32.8,25.7-67.4,38.2S-5.4,158.2,6.6,176
				c0.6,0.9,1.3,1.8,2.1,2.6l0,0c14.1,15.1,52,13.8,71.4,4c0,0-73.3-0.8-54.4-32.9s46.8-34.3,83-56.3
				C128.5,81.4,170.1,36.4,213.4,20.1z"/>
		</g>
	</g>
	<g class="st15">
		<g>
			<path class="st1" d="M213.4,20.1c22.1,0,37.7,15,37.7,34c0,2.9-0.4,6-1.1,9.1c-3.9,17-18.3,35.7-39.4,44
				c-25,9.9-43.7,14.2-69.8,27.6c0,0,77.2-38.8,87.3-65S213.4,20.1,213.4,20.1z"/>
		</g>
	</g>
	<g>
		<g>
			<path class="st1" d="M44.4,194c-15.3,0-30.4-3.6-38.7-12.6c-0.1-0.1-0.1-0.1-0.2-0.2c-0.9-1-1.7-1.9-2.3-3c-4-6-4.4-14.5-1-24.7
				C9,132.8,32,105.5,58.5,95.9c3.3-1.2,6.2-2.2,8.8-3.2c21.9-7.8,21.9-7.8,48.1-27.4c2.8-2.1,6-4.5,9.5-7.1
				c40.6-30.3,65.4-42.1,88.5-42.1c0,0,0,0,0,0c11.6,0,22.2,3.9,29.8,10.9c7.7,7,11.9,16.6,11.9,27.1v0c0,0,0,0,0,0
				c0,3.2-0.4,6.6-1.2,10c-4.7,20.3-21.1,38.7-41.8,46.8c-8.6,3.4-16.5,6.2-24.1,8.8c-14.6,5.1-28.4,9.9-45.3,18.7
				c-13.3,6.8-23.3,16.5-33.1,25.8c-9,8.6-17.5,16.7-27.7,21.9C72.5,191,58.4,194,44.4,194z M11.7,176.1c12.2,12.8,47.7,12.5,66.6,3
				c9.2-4.6,17.2-12.4,25.8-20.6c9.7-9.3,20.7-19.8,34.9-27.2c17.4-9,31.5-13.9,46.4-19.1c7.5-2.6,15.3-5.4,23.8-8.7
				c20.8-8.2,33.6-26.6,36.9-41.2c0.7-2.9,1-5.6,1-8.2v0c0-8.2-3.3-15.7-9.3-21.2c-6.2-5.7-14.9-8.8-24.4-8.8c0,0,0,0,0,0
				c-21.2,0-44.7,11.4-83.7,40.5c-3.5,2.6-6.6,5-9.4,7.1C93.3,91.9,92.8,92.1,70,100.3c-2.6,0.9-5.5,2-8.8,3.1
				c-23.9,8.6-45.3,34.1-51.5,52.7c-2.5,7.6-2.5,13.9,0.1,17.7c0.5,0.7,1.1,1.4,1.7,2.1C11.6,176,11.7,176.1,11.7,176.1z"/>
		</g>
	</g>
	<g>
		<g>
			<path class="st1" d="M45.6,179.1c-1.4,0-2.9-0.1-4.3-0.2c-2.2-0.2-3.8-2.2-3.6-4.4c0.2-2.2,2.2-3.8,4.4-3.6
				c18,1.8,34.7-10.8,55.9-31.8c1.6-1.6,4.1-1.5,5.7,0c1.6,1.6,1.5,4.1,0,5.7C82.4,165.9,65,179.1,45.6,179.1z"/>
		</g>
	</g>
</g>
</svg>
