<?xml version="1.0" encoding="utf-8"?>
<!-- Generator: Adobe Illustrator 22.1.0, SVG Export Plug-In . SVG Version: 6.00 Build 0)  -->
<svg version="1.1" id="Layer_1" xmlns="http://www.w3.org/2000/svg" xmlns:xlink="http://www.w3.org/1999/xlink" x="0px" y="0px"
	 viewBox="0 0 256 256" style="enable-background:new 0 0 256 256;" xml:space="preserve">
<style type="text/css">
	.st0{fill:#F5B31F;}
	.st1{fill:#464646;}
	.st2{opacity:0.15;}
	.st3{fill:#AC6535;}
	.st4{fill:#EB573B;}
	.st5{fill:#90C056;}
	.st6{opacity:0.35;}
	.st7{fill:#FFFFFF;}
	.st8{opacity:0.2;}
	.st9{fill:#F6D67A;}
	.st10{opacity:0.3;}
	.st11{fill:#FFA755;}
	.st12{fill:#8FAE3C;}
	.st13{fill:#BE6BB2;}
	.st14{fill:#B7C536;}
	.st15{opacity:0.1;}
	.st16{fill:#9D5A96;}
	.st17{fill:#EA615D;}
	.st18{opacity:0.4;}
	.st19{fill:#F79932;}
	.st20{fill:#FFEC97;}
	.st21{fill:#FFD11D;}
	.st22{fill:#F7F2D5;}
	.st23{fill:#F6AF72;}
	.st24{fill:#BA6C45;}
	.st25{opacity:0.5;}
	.st26{fill:#E4C074;}
	.st27{fill:#656566;}
	.st28{fill:#FACD1F;}
	.st29{fill:#FFDF66;}
	.st30{fill:#6D6E71;}
	.st31{fill:#E77CAE;}
	.st32{fill:#FFE5C4;}
	.st33{fill:#F68455;}
	.st34{opacity:0.7;}
	.st35{fill:#ADEDFF;}
	.st36{fill:#EC754B;}
	.st37{fill:#4AA5BA;}
	.st38{opacity:0.8;}
	.st39{fill:#92A5AC;}
	.st40{fill:#D06E3C;}
	.st41{fill:#DA4F4B;}
	.st42{fill:#BDF3FF;}
	.st43{fill:#F18BB4;}
	.st44{fill:#F9D97A;}
	.st45{fill:none;}
	.st46{fill:#AF6535;}
	.st47{fill:#B93226;}
	.st48{fill:#FF6050;}
	.st49{fill:#EA7CB1;}
	.st50{fill:#00B0E0;}
	.st51{fill:#EA7DAE;}
	.st52{fill:#BC7532;}
	.st53{fill:#876C6C;}
	.st54{fill:#F9F6CD;}
	.st55{fill:#FFE37B;}
	.st56{fill:#1DDCFF;}
	.st57{fill:#60ACF7;}
	.st58{fill:#C3755A;}
	.st59{fill:#96557A;}
	.st60{fill:#66625D;}
	.st61{fill:#D68032;}
	.st62{fill:#F2A355;}
	.st63{fill:#7E9E6A;}
	.st64{fill:#965A85;}
	.st65{fill:#90CAD3;}
	.st66{fill:#94B57F;}
	.st67{fill:#B2E2E7;}
	.st68{fill:#FFDF8F;}
	.st69{fill:#FFFAEB;}
	.st70{fill:#F88916;}
	.st71{fill:#FFC86E;}
	.st72{fill:#AFA51D;}
	.st73{fill:#968A1C;}
	.st74{fill:#C3556D;}
</style>
<g>
	<g>
		<g>
			<ellipse class="st0" cx="200.1" cy="97.1" rx="52" ry="51.9"/>
		</g>
	</g>
	<g class="st8">
		<g>
			<path class="st1" d="M177.9,118.6c0,0,8.7,7.1,14,2.5c5.3-4.6-1.1-12.8-1.1-12.8L177.9,118.6z"/>
		</g>
	</g>
	<g class="st8">
		<g>
			<path class="st1" d="M192,88.7c0,0,15.7,12.8,25.4,4.5C227,85,215.3,70,215.3,70L192,88.7z"/>
		</g>
	</g>
	<g>
		<g>
			<ellipse class="st0" cx="112.5" cy="188.8" rx="52" ry="51.9"/>
		</g>
	</g>
	<g class="st8">
		<g>
			<path class="st1" d="M80.5,207.5c0,0,14.8,12.1,24,4.3s-2-22-2-22L80.5,207.5z"/>
		</g>
	</g>
	<g class="st8">
		<g>
			<path class="st1" d="M98.4,172.8c0,0,8.7,7.1,14,2.5c5.3-4.6-1.1-12.8-1.1-12.8L98.4,172.8z"/>
		</g>
	</g>
	<g>
		<g>
			<ellipse class="st0" cx="56" cy="67.2" rx="52" ry="51.9"/>
		</g>
	</g>
	<g class="st8">
		<g>
			<path class="st1" d="M23.8,64.3c0,0,15.4,12.6,24.9,4.5s-2-22.9-2-22.9L23.8,64.3z"/>
		</g>
	</g>
	<g class="st8">
		<g>
			<path class="st1" d="M72.9,55.6c0,0,8.8,7.2,14.2,2.5c5.4-4.6-1.2-13-1.2-13L72.9,55.6z"/>
		</g>
	</g>
	<g class="st8">
		<g>
			<path class="st1" d="M36.4,99.6c0,0,9.7,12.2,19.6,4.3s-2.1-18.3-2.1-18.3L36.4,99.6z"/>
		</g>
	</g>
	<g class="st8">
		<g>
			<path class="st1" d="M92.8,30.5c9.4,9.4,15.2,22.4,15.2,36.7c0,28.7-23.3,51.9-52,51.9c-11.8,0-22.7-3.9-31.4-10.5
				c0,0,38,5.1,58.4-18.1S92.8,30.5,92.8,30.5z"/>
		</g>
	</g>
	<g class="st8">
		<g>
			<path class="st1" d="M149.2,152.1c9.4,9.4,15.2,22.4,15.2,36.7c0,28.7-23.3,51.9-52,51.9c-14.8,0-28.2-6.2-37.7-16.1
				c0,0,42.8,11.6,62.3-10.2S149.2,152.1,149.2,152.1z"/>
		</g>
	</g>
	<g class="st8">
		<g>
			<path class="st1" d="M236.5,60c9.6,9.4,15.6,22.5,15.6,37c0,28.7-23.3,51.9-52,51.9c-13.8,0-26.3-5.4-35.6-14.1
				c0,0,42,7.2,60.6-12.6S236.5,60,236.5,60z"/>
		</g>
	</g>
	<g>
		<g>
			<path class="st1" d="M56,123.1C56,123.1,56,123.1,56,123.1c-30.9,0-56-25.1-56-55.9c0-30.8,25.1-55.9,56-55.9c0,0,0,0,0,0
				c15,0,29,5.8,39.6,16.4C106.2,38.2,112,52.3,112,67.2l-4,0l4,0C112,98.1,86.9,123.1,56,123.1z M56,19.3c-26.5,0-48,21.5-48,47.9
				c0,26.4,21.5,47.9,48,47.9c26.5,0,48-21.5,48-47.9c0-12.8-5-24.8-14.1-33.9C80.9,24.3,68.9,19.3,56,19.3z"/>
		</g>
	</g>
	<g>
		<g>
			<path class="st1" d="M112.5,244.8C112.5,244.8,112.5,244.8,112.5,244.8c-15,0-29-5.8-39.6-16.4c-10.6-10.6-16.4-24.6-16.4-39.6
				c0-30.8,25.1-55.9,56-55.9c0,0,0,0,0,0c30.9,0,56,25.1,56,55.9c0,0,0,0,0,0C168.4,219.7,143.3,244.8,112.5,244.8z M112.5,140.9
				c-26.5,0-48,21.5-48,47.9c0,12.8,5,24.8,14.1,33.9c9.1,9.1,21.1,14,33.9,14c26.5,0,48-21.5,48-47.9
				C160.4,162.4,138.9,140.9,112.5,140.9z M164.4,188.8L164.4,188.8L164.4,188.8z"/>
		</g>
	</g>
	<g>
		<g>
			<path class="st1" d="M200.1,153C200.1,153,200.1,153,200.1,153c-15,0-29-5.8-39.6-16.4c-10.6-10.6-16.4-24.6-16.4-39.6
				c0-14.9,5.8-29,16.4-39.5c10.6-10.6,24.6-16.4,39.6-16.4c0,0,0,0,0,0c15,0,29,5.8,39.6,16.4c10.6,10.6,16.4,24.6,16.4,39.5v0
				c0,0,0,0,0,0c0,14.9-5.8,29-16.4,39.5C229.1,147.2,215,153,200.1,153z M200.1,49.2c-12.8,0-24.9,5-33.9,14
				c-9.1,9.1-14.1,21.1-14.1,33.9c0,12.8,5,24.8,14.1,33.9c9.1,9.1,21.1,14,33.9,14c0,0,0,0,0,0c12.8,0,24.9-5,33.9-14
				c9.1-9.1,14.1-21.1,14.1-33.9c0,0,0,0,0,0c0-12.8-5-24.8-14.1-33.9C224.9,54.2,212.9,49.2,200.1,49.2
				C200.1,49.2,200.1,49.2,200.1,49.2z"/>
		</g>
	</g>
	<g>
		<g>
			<ellipse class="st3" cx="35.1" cy="54.5" rx="10.5" ry="10.5"/>
		</g>
		<g>
			<path class="st1" d="M35.1,68.9C35.1,68.9,35.1,68.9,35.1,68.9c-3.9,0-7.5-1.5-10.2-4.2c-2.7-2.7-4.2-6.4-4.2-10.2
				c0-3.9,1.5-7.5,4.2-10.2c2.7-2.7,6.4-4.2,10.2-4.2c0,0,0,0,0,0c8,0,14.5,6.5,14.5,14.5c0,3.9-1.5,7.5-4.2,10.2
				C42.6,67.4,39,68.9,35.1,68.9z M35.1,48c-1.7,0-3.4,0.7-4.6,1.9c-1.2,1.2-1.9,2.8-1.9,4.6c0,1.7,0.7,3.3,1.9,4.6
				c1.2,1.2,2.8,1.9,4.6,1.9h0c1.7,0,3.4-0.7,4.6-1.9c1.2-1.2,1.9-2.8,1.9-4.6C41.6,50.9,38.7,48,35.1,48L35.1,48z"/>
		</g>
	</g>
	<g>
		<g>
			<ellipse class="st3" cx="45.6" cy="92.8" rx="7" ry="7"/>
		</g>
		<g>
			<path class="st1" d="M45.6,103.8C45.6,103.8,45.6,103.8,45.6,103.8c-6,0-11-4.9-11-11c0-6,4.9-11,11-11c6,0,11,4.9,11,11
				c0,0,0,0,0,0C56.5,98.9,51.6,103.8,45.6,103.8z M45.6,89.9c-1.6,0-3,1.3-3,3c0,1.6,1.3,3,3,3l0,0c1.6,0,3-1.3,3-3
				C48.5,91.2,47.2,89.9,45.6,89.9z M52.5,92.8L52.5,92.8L52.5,92.8z"/>
		</g>
	</g>
	<g>
		<g>
			<ellipse class="st30" cx="78.9" cy="49.3" rx="4.1" ry="4.1"/>
		</g>
		<g>
			<path class="st1" d="M78.9,57.4c-4.5,0-8.1-3.6-8.1-8.1c0-4.5,3.6-8.1,8.1-8.1s8.1,3.6,8.1,8.1C87.1,53.8,83.4,57.4,78.9,57.4z
				 M78.9,49.2c-0.1,0-0.1,0.1-0.1,0.1c0,0.1,0.3,0.1,0.3,0C79.1,49.2,79,49.2,78.9,49.2z"/>
		</g>
	</g>
	<g>
		<g>
			<ellipse class="st3" cx="139.3" cy="182.2" rx="10.5" ry="10.5"/>
		</g>
		<g>
			<path class="st1" d="M139.3,196.7c-8,0-14.5-6.5-14.5-14.5c0-3.9,1.5-7.5,4.2-10.2c2.7-2.7,6.4-4.2,10.2-4.2c0,0,0,0,0,0
				c8,0,14.5,6.5,14.5,14.5C153.8,190.2,147.3,196.7,139.3,196.7z M139.3,175.8c-1.7,0-3.4,0.7-4.6,1.9c-1.2,1.2-1.9,2.8-1.9,4.6
				c0,3.6,2.9,6.5,6.5,6.5c3.6,0,6.5-2.9,6.5-6.5C145.8,178.7,142.9,175.8,139.3,175.8C139.3,175.8,139.3,175.8,139.3,175.8z"/>
		</g>
	</g>
	<g>
		<g>
			<ellipse class="st3" cx="89.3" cy="196.2" rx="10.5" ry="10.5"/>
		</g>
		<g>
			<path class="st1" d="M89.3,210.6C89.3,210.6,89.3,210.6,89.3,210.6c-3.9,0-7.5-1.5-10.2-4.2c-2.7-2.7-4.2-6.4-4.2-10.2
				c0-3.9,1.5-7.5,4.2-10.2c2.7-2.7,6.4-4.2,10.2-4.2c0,0,0,0,0,0c8,0,14.5,6.5,14.5,14.5v0C103.8,204.1,97.3,210.6,89.3,210.6z
				 M89.3,189.7c-1.7,0-3.4,0.7-4.6,1.9c-1.2,1.2-1.9,2.8-1.9,4.6c0,1.7,0.7,3.3,1.9,4.6c1.2,1.2,2.8,1.9,4.6,1.9
				c3.6,0,6.5-2.9,6.5-6.5C95.8,192.6,92.9,189.7,89.3,189.7L89.3,189.7z M99.8,196.2L99.8,196.2L99.8,196.2z"/>
		</g>
	</g>
	<g>
		<g>
			<ellipse class="st30" cx="103.9" cy="166.6" rx="4.1" ry="4.1"/>
		</g>
		<g>
			<path class="st1" d="M103.9,174.7c-4.5,0-8.1-3.6-8.1-8.1c0-4.5,3.6-8.1,8.1-8.1s8.1,3.6,8.1,8.1
				C112,171.1,108.4,174.7,103.9,174.7z M103.9,166.5c-0.1,0-0.1,0.1-0.1,0.1c0,0.1,0.3,0.1,0.3,0C104,166.5,104,166.5,103.9,166.5z
				"/>
		</g>
	</g>
	<g>
		<g>
			<ellipse class="st30" cx="128.8" cy="218.6" rx="4.1" ry="4.1"/>
		</g>
		<g>
			<path class="st1" d="M128.8,226.7c-2.2,0-4.2-0.8-5.8-2.4c-1.5-1.5-2.4-3.6-2.4-5.8c0-2.2,0.8-4.2,2.4-5.7
				c1.5-1.5,3.6-2.4,5.8-2.4c0,0,0,0,0,0c2.2,0,4.2,0.8,5.8,2.4c1.5,1.5,2.4,3.6,2.4,5.8C136.9,223.1,133.3,226.7,128.8,226.7z
				 M128.8,218.5c-0.1,0-0.1,0.1-0.1,0.1c0,0.1,0.3,0.1,0.3,0c0,0,0,0,0,0C129,218.5,128.9,218.5,128.8,218.5L128.8,218.5z"/>
		</g>
	</g>
	<g>
		<g>
			<ellipse class="st3" cx="202.3" cy="77.7" rx="10.5" ry="10.5"/>
		</g>
		<g>
			<path class="st1" d="M202.3,92.1c-3.9,0-7.5-1.5-10.2-4.2c-2.7-2.7-4.2-6.4-4.2-10.2c0-3.9,1.5-7.5,4.2-10.2
				c2.7-2.7,6.4-4.2,10.2-4.2c0,0,0,0,0,0c8,0,14.5,6.5,14.5,14.5C216.8,85.7,210.3,92.1,202.3,92.1z M202.3,71.2
				c-1.7,0-3.4,0.7-4.6,1.9c-1.2,1.2-1.9,2.8-1.9,4.6c0,1.7,0.7,3.3,1.9,4.6c1.2,1.2,2.8,1.9,4.6,1.9c3.6,0,6.5-2.9,6.5-6.5
				C208.8,74.1,205.9,71.2,202.3,71.2C202.3,71.2,202.3,71.2,202.3,71.2z"/>
		</g>
	</g>
	<g>
		<g>
			<ellipse class="st30" cx="183.6" cy="112.4" rx="4.1" ry="4.1"/>
		</g>
		<g>
			<path class="st1" d="M183.6,120.5c-4.5,0-8.1-3.6-8.1-8.1c0-4.5,3.6-8.1,8.1-8.1s8.1,3.6,8.1,8.1
				C191.8,116.9,188.1,120.5,183.6,120.5z M183.6,112.2c-0.1,0-0.1,0.1-0.1,0.1c0,0.1,0.3,0.1,0.3,0
				C183.8,112.3,183.7,112.2,183.6,112.2z"/>
		</g>
	</g>
	<g>
		<g>
			<ellipse class="st30" cx="225" cy="108.2" rx="4.1" ry="4.1"/>
		</g>
		<g>
			<path class="st1" d="M225,116.4c-2.2,0-4.2-0.8-5.8-2.4c-1.5-1.5-2.4-3.6-2.4-5.8c0-2.2,0.8-4.2,2.4-5.7c1.5-1.5,3.6-2.4,5.8-2.4
				c0,0,0,0,0,0c4.5,0,8.1,3.6,8.1,8.1c0,0,0,0,0,0C233.1,112.7,229.5,116.4,225,116.4z M225,108.1c-0.1,0-0.1,0.1-0.1,0.1
				c0,0.1,0.3,0.1,0.3,0C225.1,108.2,225.1,108.1,225,108.1L225,108.1z M229.1,108.2L229.1,108.2L229.1,108.2z"/>
		</g>
	</g>
</g>
</svg>
