<?xml version="1.0" encoding="utf-8"?>
<!-- Generator: Adobe Illustrator 22.1.0, SVG Export Plug-In . SVG Version: 6.00 Build 0)  -->
<svg version="1.1" id="Layer_1" xmlns="http://www.w3.org/2000/svg" xmlns:xlink="http://www.w3.org/1999/xlink" x="0px" y="0px"
	 viewBox="0 0 256 256" style="enable-background:new 0 0 256 256;" xml:space="preserve">
<style type="text/css">
	.st0{fill:#F5B31F;}
	.st1{fill:#464646;}
	.st2{opacity:0.15;}
	.st3{fill:#AC6535;}
	.st4{fill:#EB573B;}
	.st5{fill:#90C056;}
	.st6{opacity:0.35;}
	.st7{fill:#FFFFFF;}
	.st8{opacity:0.2;}
	.st9{fill:#F6D67A;}
	.st10{opacity:0.3;}
	.st11{fill:#FFA755;}
	.st12{fill:#8FAE3C;}
	.st13{fill:#BE6BB2;}
	.st14{fill:#B7C536;}
	.st15{opacity:0.1;}
	.st16{fill:#9D5A96;}
	.st17{fill:#EA615D;}
	.st18{opacity:0.4;}
	.st19{fill:#F79932;}
	.st20{fill:#FFEC97;}
	.st21{fill:#FFD11D;}
	.st22{fill:#F7F2D5;}
	.st23{fill:#F6AF72;}
	.st24{fill:#BA6C45;}
	.st25{opacity:0.5;}
	.st26{fill:#E4C074;}
	.st27{fill:#656566;}
	.st28{fill:#FACD1F;}
	.st29{fill:#FFDF66;}
	.st30{fill:#6D6E71;}
	.st31{fill:#E77CAE;}
	.st32{fill:#FFE5C4;}
	.st33{fill:#F68455;}
	.st34{opacity:0.7;}
	.st35{fill:#ADEDFF;}
	.st36{fill:#EC754B;}
	.st37{fill:#4AA5BA;}
	.st38{opacity:0.8;}
	.st39{fill:#92A5AC;}
	.st40{fill:#D06E3C;}
	.st41{fill:#DA4F4B;}
	.st42{fill:#BDF3FF;}
	.st43{fill:#F18BB4;}
	.st44{fill:#F9D97A;}
	.st45{fill:none;}
	.st46{fill:#AF6535;}
	.st47{fill:#B93226;}
	.st48{fill:#FF6050;}
	.st49{fill:#EA7CB1;}
	.st50{fill:#00B0E0;}
	.st51{fill:#EA7DAE;}
	.st52{fill:#BC7532;}
	.st53{fill:#876C6C;}
	.st54{fill:#F9F6CD;}
	.st55{fill:#FFE37B;}
	.st56{fill:#1DDCFF;}
	.st57{fill:#60ACF7;}
	.st58{fill:#C3755A;}
	.st59{fill:#96557A;}
	.st60{fill:#66625D;}
	.st61{fill:#D68032;}
	.st62{fill:#F2A355;}
	.st63{fill:#7E9E6A;}
	.st64{fill:#965A85;}
	.st65{fill:#90CAD3;}
	.st66{fill:#94B57F;}
	.st67{fill:#B2E2E7;}
	.st68{fill:#FFDF8F;}
	.st69{fill:#FFFAEB;}
	.st70{fill:#F88916;}
	.st71{fill:#FFC86E;}
	.st72{fill:#AFA51D;}
	.st73{fill:#968A1C;}
	.st74{fill:#C3556D;}
</style>
<g>
	<g>
		<g>
			<path class="st0" d="M153.8,9.7c29.4-29.4,121.8,63.2,92.4,92.5l-142,142.1C70.5,278.1-22,185.5,11.8,151.8L153.8,9.7z"/>
		</g>
	</g>
	<g class="st2">
		<g>
			<polygon class="st1" points="54.2,235.6 237.5,52.2 239.6,64.4 62.5,241.6 			"/>
		</g>
	</g>
	<g class="st2">
		<g>
			<path class="st1" d="M246,66.2c7,14.3,8.5,27.6,0.2,36l-142,142.1c-8.2,8.2-19.8,9-32.3,4.9C100.1,241.6,221.7,113.7,246,66.2z"
				/>
		</g>
	</g>
	<g class="st6">
		<g>
			<path class="st7" d="M183.6,7.2c-11.9-4.6-22.7-4.6-29.8,2.5l-142,142.1c-12.1,12.1-8,31.8,3.9,50.5
				C38.1,140.5,106,74.3,183.6,7.2z"/>
		</g>
	</g>
	<g>
		<g>
			<path class="st1" d="M85.7,255.6c-5,0-10.4-1-16.2-3c-13-4.5-27.1-13.8-39.6-26.4c-23.7-23.7-40.4-58-21-77.4l142-142.1l2.8,2.8
				l-2.8-2.8c6.6-6.7,16.4-8.5,28.1-5.4c29.4,7.9,67.4,45.9,75.3,75.3c3.2,11.8,1.3,21.6-5.3,28.2L107,247.1
				C101.4,252.8,94.2,255.6,85.7,255.6z M168.6,8c-4.4,0-8.7,1.2-12,4.5l-142,142.1c-14.8,14.8-0.6,44.4,21,66
				c11.5,11.5,24.8,20.4,36.5,24.4c8.7,3,20.8,4.8,29.2-3.6l142-142.1c7.1-7.1,4.5-18.4,1.2-26.7c-4.6-11.3-13.9-24.5-25.5-36
				c-11.6-11.6-24.6-20.8-35.9-25.3C178.8,9.5,173.6,8,168.6,8z"/>
		</g>
	</g>
	<g>
		<g>
			<path class="st3" d="M211.4,10.8c18.1-18.1,51.8,15.7,33.7,33.8L42.6,247.2c-17.1,17.1-50.9-16.7-33.7-33.8L211.4,10.8z"/>
		</g>
	</g>
	<g class="st2">
		<g>
			<path class="st1" d="M211.4,10.8c18.1-18.1,51.8,15.7,33.7,33.8L42.6,247.2c0,0,182.1-194.8,186.6-212
				C233.7,18,211.4,10.8,211.4,10.8z"/>
		</g>
	</g>
	<g class="st8">
		<g>
			<path class="st7" d="M42.6,247.2c-17.1,17.1-50.9-16.7-33.7-33.8l33.9-33.9c0,0-19.3,23.6-19.3,46.8
				C23.4,249.5,42.6,247.2,42.6,247.2z"/>
		</g>
	</g>
	<g>
		<g>
			<path class="st1" d="M31.4,255.9c-7.6,0-15.5-4-21.3-9.9c-9.8-9.8-14.4-25.1-4.1-35.4L208.5,7.9c10.8-10.8,26.3-6.5,36.1,3.3
				c9.8,9.8,14.1,25.4,3.3,36.2L45.4,250.1C41.3,254.2,36.4,255.9,31.4,255.9z M214.2,13.6L11.7,216.3c-6.9,6.9-2.7,17.3,4.1,24.1
				c3.8,3.8,8.4,6.5,12.7,7.3c4.5,0.9,8.3-0.2,11.3-3.3L242.3,41.7c7.4-7.4,3.5-18.1-3.3-24.8C229.3,7.2,219.3,8.4,214.2,13.6
				L214.2,13.6z M211.4,10.8L211.4,10.8L211.4,10.8z"/>
		</g>
	</g>
	<g>
		<g>
			<path class="st1" d="M59,203.6c-1,0-2-0.4-2.8-1.2c-3.2-3.2-4.4-7.3-3.3-11.4c1.1-4.3,4.6-7.8,8.9-8.9c4.1-1.1,8.2,0.1,11.4,3.3
				c2.4,2.4,5,0,5.5-0.5c0.5-0.5,2.9-3.2,0.6-5.6c-3.2-3.2-4.4-7.3-3.3-11.4c1.1-4.3,4.6-7.8,8.9-8.9c4.1-1.1,8.2,0.1,11.4,3.3
				c1.4,1.4,4-0.5,4.9-1.4c0.9-0.9,2.8-3.5,1.4-4.9c-4.2-4.2-5.6-11.5,0-17c4.2-4.2,11.4-5.6,17,0c0.9,0.9,1.9,1.2,3.1,0.9
				c1.7-0.5,3.4-2.1,3.9-3.9c0.3-1.2,0-2.2-0.9-3.1c-4.2-4.2-5.6-11.5,0-17c4.2-4.2,11.4-5.6,17,0c0.4,0.4,0.9,0.7,2,0.4
				c2-0.5,4.1-2.7,4.7-4.7c0.3-1.1,0-1.6-0.4-2c-4.2-4.2-5.6-11.5,0-17c2.2-2.2,5-3.5,7.9-3.6c3.3-0.2,6.6,1.1,9.1,3.7
				c0.8,0.8,1.6,1.1,2.6,1c1-0.1,2.1-0.7,3-1.6c0.5-0.5,2.9-3.2,0.6-5.5c-4.2-4.2-5.6-11.5,0-17c2.2-2.2,5-3.5,7.9-3.6
				c3.3-0.2,6.6,1.1,9.1,3.7c0.4,0.4,0.9,0.7,2,0.4c2-0.5,4.1-2.7,4.7-4.7c0.3-1.1,0-1.6-0.4-2c-1.6-1.6-1.6-4.1,0-5.7
				c1.6-1.6,4.1-1.6,5.7,0c2.6,2.6,3.5,6.1,2.5,9.8c-1.3,4.7-5.6,9.1-10.3,10.3c-3.6,1-7.2,0.1-9.7-2.5c-2.7-2.7-5.2-0.5-5.7,0
				c-0.8,0.8-1.3,1.8-1.3,2.7c-0.1,1,0.4,2,1.3,3c4.1,4.1,5.2,11.1-0.6,16.9c-2.2,2.2-4.9,3.5-7.8,3.8c-3.4,0.4-6.6-0.8-9.1-3.3
				c-0.9-0.9-1.9-1.4-3-1.3c-1,0.1-2,0.5-2.7,1.3c-0.8,0.8-1.3,1.8-1.3,2.7c-0.1,1,0.4,2,1.3,3c2.6,2.6,3.5,6.1,2.5,9.8
				c-1.3,4.7-5.6,9.1-10.3,10.3c-3.6,1-7.2,0.1-9.7-2.5c-2.7-2.7-5.2-0.5-5.7,0c-0.5,0.5-2.7,3,0,5.7c2.9,3,4,6.9,3,10.9
				c-1.2,4.5-5,8.3-9.5,9.5c-3.9,1.1-7.9,0-10.8-3c-2.7-2.7-5.2-0.5-5.7,0c-0.5,0.5-2.7,3,0,5.7c4.3,4.3,3.7,11.1-1.4,16.2
				c-5.1,5.1-11.9,5.7-16.2,1.4c-1.1-1.1-2.4-1.6-3.7-1.2c-1.5,0.4-2.8,1.7-3.2,3.2c-0.3,1.3,0.1,2.5,1.2,3.7
				c4.1,4.1,5.2,11.2-0.6,16.9c-5.7,5.7-12.8,4.6-16.8,0.5c-1.1-1.1-2.4-1.6-3.7-1.2c-1.5,0.4-2.8,1.7-3.2,3.2
				c-0.3,1.3,0.1,2.5,1.2,3.7c1.6,1.6,1.6,4.1,0,5.7C61,203.2,60,203.6,59,203.6z"/>
		</g>
	</g>
</g>
</svg>
