<?xml version="1.0" encoding="utf-8"?>
<!-- Generator: Adobe Illustrator 22.1.0, SVG Export Plug-In . SVG Version: 6.00 Build 0)  -->
<svg version="1.1" id="Layer_1" xmlns="http://www.w3.org/2000/svg" xmlns:xlink="http://www.w3.org/1999/xlink" x="0px" y="0px"
	 viewBox="0 0 256 256" style="enable-background:new 0 0 256 256;" xml:space="preserve">
<style type="text/css">
	.st0{fill:#F5B31F;}
	.st1{fill:#464646;}
	.st2{opacity:0.15;}
	.st3{fill:#AC6535;}
	.st4{fill:#EB573B;}
	.st5{fill:#90C056;}
	.st6{opacity:0.35;}
	.st7{fill:#FFFFFF;}
	.st8{opacity:0.2;}
	.st9{fill:#F6D67A;}
	.st10{opacity:0.3;}
	.st11{fill:#FFA755;}
	.st12{fill:#8FAE3C;}
	.st13{fill:#BE6BB2;}
	.st14{fill:#B7C536;}
	.st15{opacity:0.1;}
	.st16{fill:#9D5A96;}
	.st17{fill:#EA615D;}
	.st18{opacity:0.4;}
	.st19{fill:#F79932;}
	.st20{fill:#FFEC97;}
	.st21{fill:#FFD11D;}
	.st22{fill:#F7F2D5;}
	.st23{fill:#F6AF72;}
	.st24{fill:#BA6C45;}
	.st25{opacity:0.5;}
	.st26{fill:#E4C074;}
	.st27{fill:#656566;}
	.st28{fill:#FACD1F;}
	.st29{fill:#FFDF66;}
	.st30{fill:#6D6E71;}
	.st31{fill:#E77CAE;}
	.st32{fill:#FFE5C4;}
	.st33{fill:#F68455;}
	.st34{opacity:0.7;}
	.st35{fill:#ADEDFF;}
	.st36{fill:#EC754B;}
	.st37{fill:#4AA5BA;}
	.st38{opacity:0.8;}
	.st39{fill:#92A5AC;}
	.st40{fill:#D06E3C;}
	.st41{fill:#DA4F4B;}
	.st42{fill:#BDF3FF;}
	.st43{fill:#F18BB4;}
	.st44{fill:#F9D97A;}
	.st45{fill:none;}
	.st46{fill:#AF6535;}
	.st47{fill:#B93226;}
	.st48{fill:#FF6050;}
	.st49{fill:#EA7CB1;}
	.st50{fill:#00B0E0;}
	.st51{fill:#EA7DAE;}
	.st52{fill:#BC7532;}
	.st53{fill:#876C6C;}
	.st54{fill:#F9F6CD;}
	.st55{fill:#FFE37B;}
	.st56{fill:#1DDCFF;}
	.st57{fill:#60ACF7;}
	.st58{fill:#C3755A;}
	.st59{fill:#96557A;}
	.st60{fill:#66625D;}
	.st61{fill:#D68032;}
	.st62{fill:#F2A355;}
	.st63{fill:#7E9E6A;}
	.st64{fill:#965A85;}
	.st65{fill:#90CAD3;}
	.st66{fill:#94B57F;}
	.st67{fill:#B2E2E7;}
	.st68{fill:#FFDF8F;}
	.st69{fill:#FFFAEB;}
	.st70{fill:#F88916;}
	.st71{fill:#FFC86E;}
	.st72{fill:#AFA51D;}
	.st73{fill:#968A1C;}
	.st74{fill:#C3556D;}
</style>
<g>
	<g>
		<g>
			<g>
				<path class="st3" d="M215.2,90.8l0,19.2l-174.3,0l0-19.2c0-10.7,6.8-20,16.3-23.6c2.8-1.1,5.8-1.7,9-1.7l123.8,0
					C203.8,65.5,215.2,76.8,215.2,90.8z"/>
			</g>
		</g>
	</g>
	<g>
		<g>
			<path class="st3" d="M215.2,212.6l0,14.2c0,13.9-11.4,25.3-25.3,25.3l-123.8,0c-13.9,0-25.3-11.4-25.3-25.3l0-14.2L215.2,212.6z"
				/>
		</g>
	</g>
	<g>
		<g>
			<g>
				<path class="st9" d="M40.9,110l0,102.7l174.3,0l0-102.7L40.9,110z M162.8,166.4c-4.2,2-9.6,1.8-13.7,3.4
					c-4.1,1.6-8.4,2.8-15.8,7.9c-7.3,5.1-7.9,9.3-14.1,12.2c-14,6.7-29.6,3.4-34.7-7.4c-5.1-10.7,2.2-24.9,16.2-31.6
					c5.8-2.8,10.8-2.8,17.4-3.3c6.6-0.6,14.9-6.3,18.8-8.4c3.9-2.1,5.9-5.4,9.8-7.2c12.3-5.9,26-3,30.5,6.5
					C181.5,148.1,175.1,160.5,162.8,166.4z"/>
			</g>
		</g>
	</g>
	<g>
		<g>
			<path class="st0" d="M162.8,166.4c-4.2,2-9.6,1.9-13.7,3.4c-4.1,1.6-8.4,2.8-15.8,7.9c-7.3,5.1-7.9,9.3-14.1,12.2
				c-14,6.7-29.6,3.4-34.7-7.4c-5.1-10.7,2.2-24.9,16.2-31.5c5.8-2.8,10.8-2.8,17.3-3.3c6.6-0.6,14.9-6.3,18.8-8.4
				c3.9-2.1,5.9-5.4,9.8-7.2c12.3-5.9,26-3,30.5,6.5C181.5,148.1,175.1,160.5,162.8,166.4z"/>
		</g>
	</g>
	<g>
		<g>
			<path class="st1" d="M104.4,197.5c-2.3,0-4.6-0.2-6.8-0.7c-7.8-1.7-13.8-6.1-16.8-12.4c-6-12.7,2.1-29.3,18.1-36.9
				c5.7-2.7,10.5-3.1,16-3.5c0.9-0.1,1.8-0.1,2.7-0.2c4.3-0.4,10.3-3.9,14.2-6.2c1.2-0.7,2.2-1.3,3-1.7c1.4-0.8,2.6-1.8,3.9-3
				c1.6-1.5,3.5-3.1,6-4.3c8-3.8,16.7-4.5,24-1.9c5.4,1.9,9.5,5.6,11.8,10.2c5.4,11.4-1.8,26.3-16.1,33.1c-2.8,1.3-5.7,1.8-8.5,2.3
				c-2,0.3-3.9,0.7-5.4,1.3c-0.6,0.2-1.2,0.5-1.8,0.7c-3.6,1.3-7.2,2.7-13.1,6.8c-3,2.1-4.8,4.1-6.4,5.9c-2.1,2.3-4.2,4.7-8.2,6.6
				C115.5,196.2,109.8,197.5,104.4,197.5z M159.6,133.1c-3.7,0-7.6,0.9-11.3,2.6c-1.5,0.7-2.7,1.8-4.1,3c-1.5,1.3-3.2,2.9-5.5,4.1
				c-0.7,0.4-1.7,0.9-2.7,1.6c-4.5,2.7-11.4,6.7-17.6,7.3c-0.9,0.1-1.9,0.2-2.8,0.2c-5.2,0.4-8.9,0.7-13.2,2.7
				c-12,5.7-18.5,17.5-14.3,26.2c1.9,4,5.9,6.9,11.2,8c5.7,1.2,12.1,0.3,18.1-2.5c2.6-1.2,3.9-2.7,5.7-4.7c1.8-2,4-4.5,7.8-7.1
				c6.7-4.7,11.3-6.4,14.9-7.7c0.6-0.2,1.2-0.4,1.7-0.7c2.2-0.9,4.7-1.3,7-1.7c2.4-0.4,4.7-0.8,6.5-1.6c0,0,0,0,0,0
				c10.3-4.9,15.9-15,12.4-22.4c-1.7-3.5-4.9-5.3-7.2-6.1C164.1,133.5,161.9,133.1,159.6,133.1z"/>
		</g>
	</g>
	<g>
		<g>
			<rect x="63.4" y="47.3" class="st3" width="129.3" height="18.2"/>
		</g>
	</g>
	<g class="st2">
		<g>
			<rect x="63.4" y="47.3" class="st1" width="129.3" height="9.1"/>
		</g>
	</g>
	<g class="st2">
		<g>
			<g>
				<path class="st7" d="M121.1,252.1l-54.9,0c-13.9,0-25.3-11.4-25.3-25.3l0-136.1c0-10.7,6.8-20,16.3-23.6l0,145.5
					c0,0-2.4,18,5.3,26.7C70.3,248.1,121.1,252.1,121.1,252.1z"/>
			</g>
		</g>
	</g>
	<g class="st2">
		<g>
			<path class="st1" d="M216.9,226.8l0-136.1c0-10.7-6.8-20-16.3-23.6l0,145.5l0,35.2C207.8,244.7,213.3,237.7,216.9,226.8z"/>
		</g>
	</g>
	<g>
		<g>
			<g>
				<rect x="49.9" y="4.1" class="st50" width="156.3" height="43.2"/>
			</g>
		</g>
		<g>
			<g>
				<g>
					<line class="st3" x1="84.7" y1="4.1" x2="84.7" y2="47.3"/>
				</g>
			</g>
			<g>
				<g>
					<line class="st3" x1="119.4" y1="4.1" x2="119.4" y2="47.3"/>
				</g>
			</g>
			<g>
				<g>
					<line class="st3" x1="154.1" y1="4.1" x2="154.1" y2="47.3"/>
				</g>
			</g>
			<g>
				<g>
					<line class="st3" x1="188.8" y1="4.1" x2="188.8" y2="47.3"/>
				</g>
			</g>
			<g>
				<g>
					<line class="st3" x1="171.5" y1="4.1" x2="171.5" y2="47.3"/>
				</g>
			</g>
			<g>
				<g>
					<line class="st3" x1="136.8" y1="4.1" x2="136.8" y2="47.3"/>
				</g>
			</g>
			<g>
				<g>
					<line class="st3" x1="102" y1="4.1" x2="102" y2="47.3"/>
				</g>
			</g>
			<g>
				<g>
					<line class="st3" x1="67.3" y1="4.1" x2="67.3" y2="47.3"/>
				</g>
			</g>
		</g>
	</g>
	<g>
		<g>
			<path class="st1" d="M192.7,69.5L192.7,69.5l-129.3,0c-2.2,0-4-1.8-4-4l0-18.2c0-1.1,0.4-2.1,1.2-2.8s1.8-1.2,2.8-1.2l0,0
				l129.3,0c2.2,0,4,1.8,4,4l0,18.2c0,1.1-0.4,2.1-1.2,2.8S193.8,69.5,192.7,69.5z M67.4,61.5l121.3,0l0-10.2l-121.3,0L67.4,61.5z"
				/>
		</g>
	</g>
	<g>
		<g>
			<g>
				<path class="st1" d="M206.2,51.3L206.2,51.3l-156.3,0c-1.1,0-2.1-0.4-2.8-1.2c-0.8-0.8-1.2-1.8-1.2-2.8l0-43.2c0-2.2,1.8-4,4-4
					l0,0l156.3,0c1.1,0,2.1,0.4,2.8,1.2c0.8,0.8,1.2,1.8,1.2,2.8l0,43.2C210.2,49.5,208.4,51.3,206.2,51.3z M53.9,43.3l148.3,0
					l0-35.2l-148.3,0L53.9,43.3z"/>
			</g>
		</g>
		<g>
			<g>
				<g>
					<path class="st1" d="M84.7,51.3L84.7,51.3c-2.2,0-4-1.8-4-4l0-43.2c0-2.2,1.8-4,4-4l0,0c2.2,0,4,1.8,4,4l0,43.2
						C88.7,49.5,86.9,51.3,84.7,51.3z"/>
				</g>
			</g>
			<g>
				<g>
					<path class="st1" d="M119.4,51.3L119.4,51.3c-2.2,0-4-1.8-4-4l0-43.2c0-2.2,1.8-4,4-4l0,0c2.2,0,4,1.8,4,4l0,43.2
						C123.4,49.5,121.6,51.3,119.4,51.3z"/>
				</g>
			</g>
			<g>
				<g>
					<path class="st1" d="M154.1,51.3L154.1,51.3c-2.2,0-4-1.8-4-4l0-43.2c0-2.2,1.8-4,4-4l0,0c2.2,0,4,1.8,4,4l0,43.2
						C158.1,49.5,156.3,51.3,154.1,51.3z"/>
				</g>
			</g>
			<g>
				<g>
					<path class="st1" d="M188.8,51.3L188.8,51.3c-2.2,0-4-1.8-4-4l0-43.2c0-2.2,1.8-4,4-4l0,0c2.2,0,4,1.8,4,4l0,43.2
						C192.8,49.5,191,51.3,188.8,51.3z"/>
				</g>
			</g>
			<g>
				<g>
					<path class="st1" d="M171.5,51.3L171.5,51.3c-2.2,0-4-1.8-4-4l0-43.2c0-2.2,1.8-4,4-4l0,0c2.2,0,4,1.8,4,4l0,43.2
						C175.5,49.5,173.7,51.3,171.5,51.3z"/>
				</g>
			</g>
			<g>
				<g>
					<path class="st1" d="M136.8,51.3L136.8,51.3c-2.2,0-4-1.8-4-4l0-43.2c0-2.2,1.8-4,4-4l0,0c2.2,0,4,1.8,4,4l0,43.2
						C140.8,49.5,139,51.3,136.8,51.3z"/>
				</g>
			</g>
			<g>
				<g>
					<path class="st1" d="M102,51.3L102,51.3c-2.2,0-4-1.8-4-4l0-43.2c0-2.2,1.8-4,4-4l0,0c2.2,0,4,1.8,4,4l0,43.2
						C106,49.5,104.2,51.3,102,51.3z"/>
				</g>
			</g>
			<g>
				<g>
					<path class="st1" d="M67.3,51.3L67.3,51.3c-2.2,0-4-1.8-4-4l0-43.2c0-2.2,1.8-4,4-4l0,0c2.2,0,4,1.8,4,4l0,43.2
						C71.3,49.5,69.5,51.3,67.3,51.3z"/>
				</g>
			</g>
		</g>
	</g>
	<g>
		<g>
			<path class="st1" d="M189.9,256.1C189.9,256.1,189.9,256.1,189.9,256.1l-123.8,0c-16.1,0-29.3-13.1-29.3-29.3l0-14.2
				c0-2.2,1.8-4,4-4l0,0l174.3,0c2.2,0,4,1.8,4,4v14.2c0,7.8-3.1,15.1-8.6,20.7C205.1,253,197.7,256.1,189.9,256.1z M44.9,216.6
				l0,10.2c0,11.7,9.5,21.3,21.3,21.3l123.8,0c0,0,0,0,0,0c5.6,0,11-2.2,15-6.3c4-4,6.3-9.4,6.3-15v-10.2L44.9,216.6z"/>
		</g>
	</g>
	<g>
		<g>
			<g>
				<path class="st1" d="M215.2,216.6L215.2,216.6l-174.3,0c-1.1,0-2.1-0.4-2.8-1.2c-0.8-0.8-1.2-1.8-1.2-2.8l0-102.7
					c0-2.2,1.8-4,4-4l0,0l174.3,0c1.1,0,2.1,0.4,2.8,1.2c0.8,0.8,1.2,1.8,1.2,2.8l0,102.7C219.2,214.9,217.4,216.6,215.2,216.6z
					 M44.9,208.6l166.3,0l0-94.7l-166.3,0L44.9,208.6z M104.4,197.5c-2.3,0-4.6-0.2-6.7-0.7c-7.8-1.7-13.8-6.1-16.8-12.4
					c-6-12.7,2.1-29.3,18.1-36.9c5.7-2.7,10.5-3.1,16.1-3.5c0.9-0.1,1.7-0.1,2.7-0.2c4.3-0.4,10.3-3.9,14.2-6.2
					c1.2-0.7,2.2-1.3,3-1.7c1.4-0.8,2.6-1.8,3.9-3c1.6-1.5,3.5-3.1,6-4.3c6.8-3.2,14.1-4.2,20.7-2.8c7,1.5,12.4,5.5,15.1,11.2
					c5.4,11.4-1.8,26.3-16.1,33.1l0,0c-2.8,1.3-5.7,1.8-8.6,2.3c-2,0.3-3.9,0.7-5.4,1.3c-0.6,0.2-1.2,0.5-1.8,0.7
					c-3.6,1.3-7.2,2.7-13.1,6.8c-3.1,2.1-4.8,4.1-6.4,5.9c-2.1,2.3-4.2,4.7-8.2,6.6C115.5,196.2,109.8,197.5,104.4,197.5z
					 M159.5,133.1c-3.7,0-7.6,0.9-11.3,2.7c-1.5,0.7-2.7,1.8-4.1,3c-1.5,1.3-3.2,2.9-5.5,4.1c-0.7,0.4-1.6,0.9-2.7,1.6
					c-4.5,2.7-11.4,6.7-17.6,7.3c-0.9,0.1-1.9,0.2-2.7,0.2c-5.2,0.4-8.9,0.7-13.2,2.7c-12,5.7-18.4,17.5-14.3,26.2
					c1.9,4,5.9,6.9,11.2,8c5.7,1.2,12.1,0.3,18.1-2.6c2.6-1.2,3.8-2.6,5.7-4.7c1.8-2,4-4.5,7.8-7.1c6.7-4.7,11.3-6.4,14.9-7.7
					c0.6-0.2,1.2-0.4,1.7-0.7c2.3-0.9,4.7-1.3,7-1.7c2.4-0.4,4.7-0.8,6.5-1.6c0,0,0,0,0,0c10.3-4.9,15.9-15,12.3-22.4
					c-1.6-3.4-5-5.8-9.5-6.8C162.5,133.3,161,133.1,159.5,133.1z"/>
			</g>
		</g>
	</g>
	<g>
		<g>
			<g>
				<path class="st1" d="M215.2,114L215.2,114l-174.3,0c-2.2,0-4-1.8-4-4l0-19.2c0-12,7.6-23,18.8-27.4c3.3-1.3,6.8-1.9,10.4-1.9
					l123.8,0c16.1,0,29.3,13.1,29.3,29.3l0,0l0,19.2C219.2,112.2,217.4,114,215.2,114z M44.9,106l166.3,0l0-15.2
					c0-11.7-9.5-21.3-21.3-21.3l-123.8,0c-2.6,0-5.1,0.5-7.5,1.4C50.4,74,44.9,82,44.9,90.7L44.9,106z M215.2,90.8L215.2,90.8
					L215.2,90.8z"/>
			</g>
		</g>
	</g>
</g>
</svg>
