<?xml version="1.0" encoding="utf-8"?>
<!-- Generator: Adobe Illustrator 22.1.0, SVG Export Plug-In . SVG Version: 6.00 Build 0)  -->
<svg version="1.1" id="Layer_1" xmlns="http://www.w3.org/2000/svg" xmlns:xlink="http://www.w3.org/1999/xlink" x="0px" y="0px"
	 viewBox="0 0 256 256" style="enable-background:new 0 0 256 256;" xml:space="preserve">
<style type="text/css">
	.st0{fill:#F5B31F;}
	.st1{fill:#464646;}
	.st2{opacity:0.15;}
	.st3{fill:#AC6535;}
	.st4{fill:#EB573B;}
	.st5{fill:#90C056;}
	.st6{opacity:0.35;}
	.st7{fill:#FFFFFF;}
	.st8{opacity:0.2;}
	.st9{fill:#F6D67A;}
	.st10{opacity:0.3;}
	.st11{fill:#FFA755;}
	.st12{fill:#8FAE3C;}
	.st13{fill:#BE6BB2;}
	.st14{fill:#B7C536;}
	.st15{opacity:0.1;}
	.st16{fill:#9D5A96;}
	.st17{fill:#EA615D;}
	.st18{opacity:0.4;}
	.st19{fill:#F79932;}
	.st20{fill:#FFEC97;}
	.st21{fill:#FFD11D;}
	.st22{fill:#F7F2D5;}
	.st23{fill:#F6AF72;}
	.st24{fill:#BA6C45;}
	.st25{opacity:0.5;}
	.st26{fill:#E4C074;}
	.st27{fill:#656566;}
	.st28{fill:#FACD1F;}
	.st29{fill:#FFDF66;}
	.st30{fill:#6D6E71;}
	.st31{fill:#E77CAE;}
	.st32{fill:#FFE5C4;}
	.st33{fill:#F68455;}
	.st34{opacity:0.7;}
	.st35{fill:#ADEDFF;}
	.st36{fill:#EC754B;}
	.st37{fill:#4AA5BA;}
	.st38{opacity:0.8;}
	.st39{fill:#92A5AC;}
	.st40{fill:#D06E3C;}
	.st41{fill:#DA4F4B;}
	.st42{fill:#BDF3FF;}
	.st43{fill:#F18BB4;}
	.st44{fill:#F9D97A;}
	.st45{fill:none;}
	.st46{fill:#AF6535;}
	.st47{fill:#B93226;}
	.st48{fill:#FF6050;}
	.st49{fill:#EA7CB1;}
	.st50{fill:#00B0E0;}
	.st51{fill:#EA7DAE;}
	.st52{fill:#BC7532;}
	.st53{fill:#876C6C;}
	.st54{fill:#F9F6CD;}
	.st55{fill:#FFE37B;}
	.st56{fill:#1DDCFF;}
	.st57{fill:#60ACF7;}
	.st58{fill:#C3755A;}
	.st59{fill:#96557A;}
	.st60{fill:#66625D;}
	.st61{fill:#D68032;}
	.st62{fill:#F2A355;}
	.st63{fill:#7E9E6A;}
	.st64{fill:#965A85;}
	.st65{fill:#90CAD3;}
	.st66{fill:#94B57F;}
	.st67{fill:#B2E2E7;}
	.st68{fill:#FFDF8F;}
	.st69{fill:#FFFAEB;}
	.st70{fill:#F88916;}
	.st71{fill:#FFC86E;}
	.st72{fill:#AFA51D;}
	.st73{fill:#968A1C;}
	.st74{fill:#C3556D;}
</style>
<g>
	<g>
		<g>
			<g>
				<path class="st0" d="M239.6,43.7c-0.2,0.8-2.3,5.2-5.7,12.3C160.4,27.2,89.8,27.2,22.1,56c-3.4-7-5.5-11.5-5.7-12.3
					C14.9,38,12.9,33,18.7,29.9C54.6,12.7,91,4,128,4c37,0.1,73.5,8.7,109.3,25.9C243.1,33,241.1,38,239.6,43.7z"/>
			</g>
		</g>
	</g>
	<g class="st2">
		<g>
			<g>
				<path class="st1" d="M237.3,29.9c5.7,3.1,3.7,8.1,2.2,13.8c-0.2,0.8-2.3,5.2-5.7,12.3c-23.4-9.2-46.5-15.4-69.4-18.8
					c0,0,52.3,5.6,62.2,3.1S237.3,29.9,237.3,29.9z"/>
			</g>
		</g>
	</g>
	<g class="st6">
		<g>
			<g>
				<path class="st7" d="M128,4C91,4,54.6,12.7,18.7,29.9c-5.7,3.1-3.7,8.1-2.2,13.8c0.2,0.8,2.3,5.2,5.7,12.3
					c0,0,8.3-13.6,21.5-24.3S128,4,128,4z"/>
			</g>
		</g>
	</g>
	<g>
		<g>
			<g>
				<path class="st1" d="M233.9,60c-0.5,0-1-0.1-1.5-0.3c-36.1-14.2-72-21.4-106.6-21.4c0,0,0,0,0,0c-34.6,0-68.9,7.2-102.1,21.3
					c-2,0.8-4.2,0-5.2-1.9c-5.6-11.5-5.8-12.4-5.9-13c-0.1-0.5-0.3-1-0.4-1.4c-1.4-5-3.4-12.6,4.6-16.9c0.1,0,0.1-0.1,0.2-0.1
					C53.3,8.9,90.7,0,128,0c37.3,0.1,74.7,8.9,111.1,26.3c0.1,0,0.1,0.1,0.2,0.1c8,4.4,6,11.9,4.6,16.9c-0.1,0.5-0.3,1-0.4,1.4
					c-0.2,0.6-0.4,1.5-5.9,13C236.8,59.2,235.4,60,233.9,60z M125.8,30.5c34.8,0,70.2,6.8,106.1,20.5c3-6.3,3.7-7.9,3.8-8.3
					c0.1-0.5,0.3-1,0.4-1.4c1.6-5.9,1.4-6.7-0.6-7.7C200.3,16.6,164.1,8,128,8C91.9,8,55.7,16.6,20.5,33.5c-2,1.1-2.2,1.9-0.6,7.7
					c0.1,0.5,0.3,0.9,0.4,1.4c0.2,0.4,0.8,2,3.8,8.2C57.2,37.2,91.2,30.5,125.8,30.5z"/>
			</g>
		</g>
	</g>
	<g>
		<g>
			<g>
				<path class="st9" d="M22.1,56c6.5,13.5,18.1,36.8,30.8,62.5c4.6-2.6,10-4,15.7-4c17.9,0,32.4,14.5,32.4,32.5
					c0,13.2-7.8,24.5-19.1,29.6c18.8,37.5,34.5,68.7,35.2,70.4c2,4.2,5.9,5.1,10.8,5.1c4.8,0,8.8-0.9,10.8-5.1
					c0.5-1.1,7.1-14.3,16.8-33.5c-12.2-4.7-20.9-16.5-20.9-30.3c0-17.9,14.5-32.5,32.4-32.5c6.4,0,12.3,1.8,17.4,5.1
					c19.4-38.8,39.8-79.7,49.4-99.6C160.4,27.2,89.8,27.2,22.1,56z M141.9,122.5c-17.9,0-32.4-14.5-32.4-32.5
					c0-17.9,14.5-32.5,32.4-32.5c17.9,0,32.4,14.5,32.4,32.5C174.3,108,159.8,122.5,141.9,122.5z"/>
			</g>
		</g>
	</g>
	<g>
		<g>
			<g>
				<path class="st1" d="M128,256c-3,0-10.9,0-14.4-7.4c-0.4-0.8-4.9-9.8-11.2-22.3c-6.3-12.6-14.8-29.5-24-48
					c-0.5-1-0.6-2.1-0.2-3.1c0.4-1,1.1-1.9,2.1-2.3c10.2-4.6,16.7-14.8,16.7-25.9c0-7.6-3-14.8-8.3-20.1c-5.4-5.4-12.5-8.3-20.1-8.3
					c-4.8,0-9.6,1.2-13.7,3.5c-1,0.5-2.1,0.6-3.1,0.3c-1-0.3-1.9-1.1-2.4-2C38,97.4,25.5,72.1,18.5,57.7c-0.5-1-0.5-2.1-0.1-3.1
					c0.4-1,1.2-1.8,2.2-2.3c68.4-29.1,140.7-29.1,214.8,0c1,0.4,1.9,1.2,2.3,2.3s0.4,2.2-0.1,3.2c-10.1,20.9-31.7,64.2-49.4,99.6
					c-0.5,1-1.4,1.8-2.5,2.1c-1.1,0.3-2.3,0.1-3.2-0.5c-4.5-2.9-9.8-4.4-15.2-4.4c-15.7,0-28.5,12.8-28.5,28.5
					c0,11.7,7.4,22.4,18.3,26.6c1.1,0.4,1.9,1.2,2.3,2.3c0.4,1.1,0.4,2.2-0.2,3.2c-13.3,26.4-16.4,32.8-16.7,33.4
					C138.9,256,131,256,128,256z M87.3,178.2c8.5,17.1,16.4,32.6,22.3,44.5c7.3,14.6,10.8,21.6,11.3,22.5c0.8,1.8,2.3,2.8,7.1,2.8
					c4.9,0,6.3-1,7.2-2.8c0.2-0.4,0.7-1.4,15-29.9c-11.8-6.2-19.4-18.7-19.4-32.3c0-20.1,16.4-36.5,36.5-36.5
					c5.5,0,10.8,1.2,15.6,3.5c16.3-32.5,35.3-70.7,45.6-91.9C193.7,45,159.2,38.4,125.8,38.4c0,0,0,0,0,0C92.6,38.4,59.6,45,27.6,58
					c6.8,13.9,17.3,35.2,27.2,55.1c4.4-1.8,9.1-2.7,13.8-2.7c9.7,0,18.9,3.8,25.8,10.7c6.9,6.9,10.7,16.1,10.7,25.8
					C105.1,159.8,98.2,171.7,87.3,178.2z M141.9,126.5c-20.1,0-36.5-16.4-36.5-36.5s16.4-36.5,36.5-36.5c20.1,0,36.4,16.4,36.4,36.5
					S162,126.5,141.9,126.5z M141.9,61.5c-15.7,0-28.5,12.8-28.5,28.5s12.8,28.5,28.5,28.5c15.7,0,28.4-12.8,28.4-28.5
					S157.6,61.5,141.9,61.5z"/>
			</g>
		</g>
	</g>
	<g class="st2">
		<g>
			<g>
				<ellipse class="st1" cx="150.9" cy="94.8" rx="32.4" ry="32.5"/>
			</g>
		</g>
	</g>
	<g>
		<g>
			<g>
				<ellipse class="st3" cx="141.7" cy="90.1" rx="32.4" ry="32.5"/>
			</g>
		</g>
	</g>
	<g class="st8">
		<g>
			<g>
				<path class="st7" d="M158.3,62.2c-4.8-2.9-10.5-4.5-16.6-4.5c-17.9,0-32.4,14.5-32.4,32.5c0,9.8,4.3,18.6,11.2,24.5
					c0,0-10.8-19.5,2.5-37.5S158.3,62.2,158.3,62.2z"/>
			</g>
		</g>
	</g>
	<g class="st2">
		<g>
			<g>
				<path class="st1" d="M85.8,177.9c30.5,1.5,34.2-55.6,0-61.5L85.8,177.9z"/>
			</g>
		</g>
	</g>
	<g>
		<g>
			<g>
				<path class="st3" d="M100.9,147c0,13.2-7.8,24.5-19.1,29.6c-9.4-18.7-19.5-39.1-29-58c4.6-2.6,10-4,15.7-4
					C86.4,114.5,100.9,129.1,100.9,147z"/>
			</g>
		</g>
	</g>
	<g class="st8">
		<g>
			<g>
				<path class="st7" d="M83.2,118.1c-4.4-2.3-9.4-3.5-14.7-3.5c-5.7,0-11,1.5-15.7,4c9.5,19,19.6,39.3,29,58
					c0,0-14.7-39.1-16.3-49.3C63.9,117.1,83.2,118.1,83.2,118.1z"/>
			</g>
		</g>
	</g>
	<g>
		<g>
			<g>
				<path class="st3" d="M184.5,155.6c-10.5,21.1-20.8,41.6-28.9,57.8c-12.2-4.7-20.9-16.5-20.9-30.3c0-17.9,14.5-32.5,32.4-32.5
					C173.5,150.5,179.5,152.4,184.5,155.6z"/>
			</g>
		</g>
	</g>
	<g class="st8">
		<g>
			<g>
				<path class="st7" d="M167.1,150.5c-17.9,0-32.4,14.5-32.4,32.5c0,13.8,8.7,25.7,20.9,30.3c0,0-11.8-13.6-9.8-33.9
					S167.1,150.5,167.1,150.5z"/>
			</g>
		</g>
	</g>
	<g>
		<g>
			<g>
				<path class="st1" d="M141.7,126.6C141.7,126.6,141.7,126.6,141.7,126.6c-20.1,0-36.4-16.4-36.4-36.5c0-20.1,16.4-36.5,36.4-36.5
					c0,0,0,0,0,0c20.1,0,36.4,16.4,36.4,36.5l0,0C178.2,110.2,161.8,126.6,141.7,126.6z M141.7,61.7c-15.7,0-28.4,12.8-28.4,28.5
					c0,15.7,12.8,28.5,28.4,28.5c15.7,0,28.4-12.8,28.4-28.5C170.2,74.4,157.4,61.7,141.7,61.7z M174.2,90.1L174.2,90.1L174.2,90.1z
					"/>
			</g>
		</g>
	</g>
	<g>
		<g>
			<g>
				<path class="st1" d="M81.8,180.6c-1.5,0-2.9-0.8-3.6-2.2c-9.4-18.8-19.5-39.1-29-58c-1-1.9-0.2-4.2,1.6-5.3
					c5.3-3,11.4-4.5,17.6-4.5c0,0,0,0,0,0c20.1,0,36.4,16.4,36.4,36.5l0,0c0,14.3-8.4,27.3-21.4,33.2
					C83,180.5,82.4,180.6,81.8,180.6z M58.2,120.4c8.3,16.7,17.1,34.2,25.3,50.7c8.2-5.2,13.4-14.3,13.4-24.1
					c0-15.7-12.8-28.5-28.4-28.5c0,0,0,0,0,0C65,118.5,61.5,119.2,58.2,120.4z M100.9,147L100.9,147L100.9,147z"/>
			</g>
		</g>
	</g>
	<g>
		<g>
			<g>
				<path class="st1" d="M155.5,217.4c-0.5,0-1-0.1-1.4-0.3c-14-5.4-23.4-19.1-23.4-34.1c0-9.7,3.8-18.9,10.7-25.8
					c6.9-6.9,16-10.7,25.8-10.7c0,0,0,0,0,0c6.9,0,13.7,2,19.5,5.7c1.7,1.1,2.3,3.3,1.4,5.2c-7.5,15-14.9,29.7-21.4,42.7l-7.5,15
					C158.4,216.5,157,217.4,155.5,217.4z M167.1,154.5c-7.6,0-14.7,3-20.1,8.3c-5.4,5.4-8.3,12.5-8.3,20.1c0,10.5,5.9,20.2,15,25.1
					l5.8-11.6c6-12.1,12.8-25.5,19.7-39.3C175.4,155.5,171.3,154.5,167.1,154.5C167.1,154.5,167.1,154.5,167.1,154.5z"/>
			</g>
		</g>
	</g>
</g>
</svg>
