<?xml version="1.0" encoding="utf-8"?>
<!-- Generator: Adobe Illustrator 22.1.0, SVG Export Plug-In . SVG Version: 6.00 Build 0)  -->
<svg version="1.1" id="Layer_1" xmlns="http://www.w3.org/2000/svg" xmlns:xlink="http://www.w3.org/1999/xlink" x="0px" y="0px"
	 viewBox="0 0 256 256" style="enable-background:new 0 0 256 256;" xml:space="preserve">
<style type="text/css">
	.st0{fill:#F5B31F;}
	.st1{fill:#464646;}
	.st2{opacity:0.15;}
	.st3{fill:#AC6535;}
	.st4{fill:#EB573B;}
	.st5{fill:#90C056;}
	.st6{opacity:0.35;}
	.st7{fill:#FFFFFF;}
	.st8{opacity:0.2;}
	.st9{fill:#F6D67A;}
	.st10{opacity:0.3;}
	.st11{fill:#FFA755;}
	.st12{fill:#8FAE3C;}
	.st13{fill:#BE6BB2;}
	.st14{fill:#B7C536;}
	.st15{opacity:0.1;}
	.st16{fill:#9D5A96;}
	.st17{fill:#EA615D;}
	.st18{opacity:0.4;}
	.st19{fill:#F79932;}
	.st20{fill:#FFEC97;}
	.st21{fill:#FFD11D;}
	.st22{fill:#F7F2D5;}
	.st23{fill:#F6AF72;}
	.st24{fill:#BA6C45;}
	.st25{opacity:0.5;}
	.st26{fill:#E4C074;}
	.st27{fill:#656566;}
	.st28{fill:#FACD1F;}
	.st29{fill:#FFDF66;}
	.st30{fill:#6D6E71;}
	.st31{fill:#E77CAE;}
	.st32{fill:#FFE5C4;}
	.st33{fill:#F68455;}
	.st34{opacity:0.7;}
	.st35{fill:#ADEDFF;}
	.st36{fill:#EC754B;}
	.st37{fill:#4AA5BA;}
	.st38{opacity:0.8;}
	.st39{fill:#92A5AC;}
	.st40{fill:#D06E3C;}
	.st41{fill:#DA4F4B;}
	.st42{fill:#BDF3FF;}
	.st43{fill:#F18BB4;}
	.st44{fill:#F9D97A;}
	.st45{fill:none;}
	.st46{fill:#AF6535;}
	.st47{fill:#B93226;}
	.st48{fill:#FF6050;}
	.st49{fill:#EA7CB1;}
	.st50{fill:#00B0E0;}
	.st51{fill:#EA7DAE;}
	.st52{fill:#BC7532;}
	.st53{fill:#876C6C;}
	.st54{fill:#F9F6CD;}
	.st55{fill:#FFE37B;}
	.st56{fill:#1DDCFF;}
	.st57{fill:#60ACF7;}
	.st58{fill:#C3755A;}
	.st59{fill:#96557A;}
	.st60{fill:#66625D;}
	.st61{fill:#D68032;}
	.st62{fill:#F2A355;}
	.st63{fill:#7E9E6A;}
	.st64{fill:#965A85;}
	.st65{fill:#90CAD3;}
	.st66{fill:#94B57F;}
	.st67{fill:#B2E2E7;}
	.st68{fill:#FFDF8F;}
	.st69{fill:#FFFAEB;}
	.st70{fill:#F88916;}
	.st71{fill:#FFC86E;}
	.st72{fill:#AFA51D;}
	.st73{fill:#968A1C;}
	.st74{fill:#C3556D;}
</style>
<g>
	<g>
		<g>
			<path class="st4" d="M181.9,75.8c0,0-1.6,30.5-3.4,65.6l-101.1,0C75.6,106.3,74,75.8,74,75.8L181.9,75.8z"/>
		</g>
	</g>
	<g>
		<g>
			<path class="st4" d="M175.7,196.3c-1.4,26.7-2.5,47.4-2.5,48.4c-0.1,2.8-2.4,7.1-7.9,7.1c-5.6,0-37.3,0-37.3,0s-31.7,0-37.3,0
				c-5.6,0-7.8-4.4-7.9-7.1c0-1-1.1-21.7-2.5-48.4L175.7,196.3z"/>
		</g>
	</g>
	<g>
		<g>
			<path class="st57" d="M178.5,141.4c-0.9,18.3-2,37.8-2.8,54.9l-95.4,0c-0.9-17.1-1.9-36.6-2.8-54.9L178.5,141.4z"/>
		</g>
	</g>
	<g class="st10">
		<g>
			<path class="st7" d="M86.5,75.8l-12.5,0c0,0,8.6,166.1,8.7,168.9c0.1,2.8,2.4,7.2,7.9,7.2c5.6,0,37.3,0,37.3,0
				s-33.4-0.8-35.7-18.2C90,216.3,86.5,75.8,86.5,75.8z"/>
		</g>
	</g>
	<g>
		<g>
			<polygon class="st57" points="192.5,75.8 63.5,75.8 72.3,61.1 185.3,61.1 			"/>
		</g>
	</g>
	<g class="st25">
		<g>
			<path class="st7" d="M81.1,67.2c-12.6,2.9-17.6,8.5-17.6,8.5l3.3-14.7l118.5,0C185.3,61.1,93.7,64.3,81.1,67.2z"/>
		</g>
	</g>
	<g class="st15">
		<g>
			<path d="M182.6,83l-1,0c-1.7,31.9-8.3,159.3-8.4,161.7c-0.1,2.8-2.4,7.1-7.9,7.1L167.7,83l-94.3,0l1.8-7.2l106.7,0
				c0,0-0.1,1.7-0.3,4.8L182.6,83z"/>
		</g>
	</g>
	<g>
		<g>
			<polygon class="st54" points="133.1,30.1 133.1,61.1 122.2,61.1 122.2,38.8 			"/>
		</g>
	</g>
	<g>
		<g>
			<polygon class="st54" points="133.1,18.4 133.1,30.1 122.2,38.8 122.2,25 			"/>
		</g>
	</g>
	<g>
		<g>
			<polygon class="st54" points="133.1,18.4 122.2,25 92.3,13.4 96.6,3.8 			"/>
		</g>
	</g>
	<g>
		<g>
			<path class="st1" d="M192.5,79.8C192.5,79.8,192.5,79.8,192.5,79.8l-128.9,0c-1.4,0-2.8-0.8-3.5-2c-0.7-1.2-0.7-2.8,0-4L68.8,59
				c0.7-1.2,2-2,3.4-2c0,0,0,0,0,0l113.1,0c1.5,0,2.9,0.9,3.6,2.3l7.1,14.7c0.6,1.2,0.5,2.7-0.2,3.9S193.8,79.8,192.5,79.8z
				 M70.6,71.8l115.5,0l-3.3-6.7l-108.3,0L70.6,71.8z"/>
		</g>
	</g>
	<g>
		<g>
			<path class="st1" d="M133.1,65.1C133.1,65.1,133.1,65.1,133.1,65.1l-10.8,0c-2.2,0-4-1.8-4-4l0-22.3c0-1.2,0.5-2.4,1.5-3.1
				l10.8-8.7c1.2-1,2.8-1.2,4.2-0.5c1.4,0.7,2.3,2.1,2.3,3.6l0,31c0,1.1-0.4,2.1-1.2,2.8C135.1,64.7,134.1,65.1,133.1,65.1z
				 M126.2,57.1h2.8l0-18.6l-2.8,2.3L126.2,57.1z"/>
		</g>
	</g>
	<g>
		<g>
			<path class="st1" d="M122.2,42.8c-0.6,0-1.2-0.1-1.7-0.4c-1.4-0.7-2.3-2.1-2.3-3.6l0-13.8c0-1.4,0.7-2.7,1.9-3.4L131,15
				c1.2-0.8,2.8-0.8,4-0.1c1.3,0.7,2,2,2,3.5l0,11.7c0,1.2-0.5,2.4-1.5,3.1l-10.8,8.7C124,42.5,123.1,42.8,122.2,42.8z M126.2,27.3
				l0,3.2l2.8-2.3v-2.6L126.2,27.3z"/>
		</g>
	</g>
	<g>
		<g>
			<path class="st1" d="M122.2,29c-0.5,0-1-0.1-1.5-0.3L90.9,17.1c-1-0.4-1.8-1.2-2.2-2.2c-0.4-1-0.4-2.1,0-3.1l4.2-9.5
				c0.9-2,3.1-2.9,5.1-2.1l36.5,14.6c1.4,0.6,2.4,1.9,2.5,3.4s-0.6,3-1.9,3.8l-10.8,6.6C123.7,28.8,122.9,29,122.2,29z M97.7,11.2
				l24.1,9.4l2.3-1.4L98.7,9L97.7,11.2z"/>
		</g>
	</g>
	<g>
		<g>
			<path class="st1" d="M178.5,145.4C178.5,145.4,178.5,145.4,178.5,145.4l-101.1,0c-2.1,0-3.9-1.7-4-3.8
				C71.6,106.5,70.1,76,70.1,76c-0.1-1.1,0.3-2.2,1.1-3c0.8-0.8,1.8-1.2,2.9-1.2c0,0,0,0,0,0l107.9,0c1.1,0,2.1,0.5,2.9,1.2
				c0.8,0.8,1.2,1.9,1.1,3c0,0-1.6,30.5-3.4,65.6C182.4,143.7,180.7,145.4,178.5,145.4z M81.2,137.4l93.5,0
				c1.3-25.8,2.5-48.5,3-57.6l-99.5,0C78.7,88.9,79.9,111.6,81.2,137.4z"/>
		</g>
	</g>
	<g>
		<g>
			<path class="st1" d="M165.3,255.8C165.3,255.8,165.3,255.8,165.3,255.8l-74.6,0c-7.4,0-11.7-5.6-11.9-11c0-0.9-0.9-17.1-2.5-48.4
				c-0.1-1.1,0.3-2.2,1.1-3c0.8-0.8,1.8-1.2,2.9-1.2c0,0,0,0,0,0l95.4,0c1.1,0,2.1,0.5,2.9,1.2c0.8,0.8,1.2,1.9,1.1,3
				c-1.4,26.7-2.5,47.4-2.5,48.4C177,250.2,172.7,255.8,165.3,255.8z M86.8,244.5c0,0,0.2,3.3,3.9,3.3l74.6,0c3.7,0,3.9-3.3,3.9-3.3
				c0-0.9,1-19.6,2.3-44.2l-87,0C86,229.2,86.7,243.7,86.8,244.5L86.8,244.5z"/>
		</g>
	</g>
	<g>
		<g>
			<path class="st1" d="M175.7,200.3C175.7,200.3,175.7,200.3,175.7,200.3l-95.4,0c-2.1,0-3.9-1.7-4-3.8
				c-0.9-17.1-1.9-36.6-2.8-54.9c-0.1-1.1,0.3-2.2,1.1-3c0.8-0.8,1.8-1.2,2.9-1.2c0,0,0,0,0,0l101.1,0c1.1,0,2.1,0.5,2.9,1.2
				s1.2,1.9,1.1,3c-0.9,18.3-2,37.8-2.8,54.9C179.6,198.6,177.8,200.3,175.7,200.3z M84.1,192.3l87.8,0c0.8-14.8,1.6-31.2,2.4-46.9
				l-92.7,0C82.5,161.1,83.3,177.5,84.1,192.3z"/>
		</g>
	</g>
</g>
</svg>
