<?xml version="1.0" encoding="utf-8"?>
<!-- Generator: Adobe Illustrator 22.1.0, SVG Export Plug-In . SVG Version: 6.00 Build 0)  -->
<svg version="1.1" id="Layer_1" xmlns="http://www.w3.org/2000/svg" xmlns:xlink="http://www.w3.org/1999/xlink" x="0px" y="0px"
	 viewBox="0 0 256 256" style="enable-background:new 0 0 256 256;" xml:space="preserve">
<style type="text/css">
	.st0{fill:#F5B31F;}
	.st1{fill:#464646;}
	.st2{opacity:0.15;}
	.st3{fill:#AC6535;}
	.st4{fill:#EB573B;}
	.st5{fill:#90C056;}
	.st6{opacity:0.35;}
	.st7{fill:#FFFFFF;}
	.st8{opacity:0.2;}
	.st9{fill:#F6D67A;}
	.st10{opacity:0.3;}
	.st11{fill:#FFA755;}
	.st12{fill:#8FAE3C;}
	.st13{fill:#BE6BB2;}
	.st14{fill:#B7C536;}
	.st15{opacity:0.1;}
	.st16{fill:#9D5A96;}
	.st17{fill:#EA615D;}
	.st18{opacity:0.4;}
	.st19{fill:#F79932;}
	.st20{fill:#FFEC97;}
	.st21{fill:#FFD11D;}
	.st22{fill:#F7F2D5;}
	.st23{fill:#F6AF72;}
	.st24{fill:#BA6C45;}
	.st25{opacity:0.5;}
	.st26{fill:#E4C074;}
	.st27{fill:#656566;}
	.st28{fill:#FACD1F;}
	.st29{fill:#FFDF66;}
	.st30{fill:#6D6E71;}
	.st31{fill:#E77CAE;}
	.st32{fill:#FFE5C4;}
	.st33{fill:#F68455;}
	.st34{opacity:0.7;}
	.st35{fill:#ADEDFF;}
	.st36{fill:#EC754B;}
	.st37{fill:#4AA5BA;}
	.st38{opacity:0.8;}
	.st39{fill:#92A5AC;}
	.st40{fill:#D06E3C;}
	.st41{fill:#DA4F4B;}
	.st42{fill:#BDF3FF;}
	.st43{fill:#F18BB4;}
	.st44{fill:#F9D97A;}
	.st45{fill:none;}
	.st46{fill:#AF6535;}
	.st47{fill:#B93226;}
	.st48{fill:#FF6050;}
	.st49{fill:#EA7CB1;}
	.st50{fill:#00B0E0;}
	.st51{fill:#EA7DAE;}
	.st52{fill:#BC7532;}
	.st53{fill:#876C6C;}
	.st54{fill:#F9F6CD;}
	.st55{fill:#FFE37B;}
	.st56{fill:#1DDCFF;}
	.st57{fill:#60ACF7;}
	.st58{fill:#C3755A;}
	.st59{fill:#96557A;}
	.st60{fill:#66625D;}
	.st61{fill:#D68032;}
	.st62{fill:#F2A355;}
	.st63{fill:#7E9E6A;}
	.st64{fill:#965A85;}
	.st65{fill:#90CAD3;}
	.st66{fill:#94B57F;}
	.st67{fill:#B2E2E7;}
	.st68{fill:#FFDF8F;}
	.st69{fill:#FFFAEB;}
	.st70{fill:#F88916;}
	.st71{fill:#FFC86E;}
	.st72{fill:#AFA51D;}
	.st73{fill:#968A1C;}
	.st74{fill:#C3556D;}
</style>
<g>
	<g>
		<g>
			<g>
				<path class="st32" d="M4.1,150.2c-0.3-6.1,40-37,67.9-27.3s38.6,17.6,63.5,34.3s49.1,9.2,70.3-15.1s18.9-46.3,7.4-57.4
					s-33.1-24-51.2-5.2s3.1,43.1,7.6,46.9s17.9,7.7,15.3,9.8c-2.5,2.1-18.1,4.5-34.1-8.6s-19.5-39.2-4.6-61
					C161,44.8,193,40.8,220,63.4c0,0-1.5,3.9,1.1,7.5s8,8.7,12.1,10.9s3.9-2.2,7.9-0.7c4,1.5,10.6,17.9,11,20.8
					c0.5,3-5.6,4.5-6.3,7.5c-0.7,3-4,11-3,13.7s5.9,2.2,7.9,6.7c2.1,4.4-6.2,16.5-10.4,16c-4.2-0.5-6.8-2-9.8-1.3
					c-2.9,0.7-6.8,7.5-8.2,10.1c-1.3,2.6,0.4,3.3,4.5,10.3c4,7-8,21.9-16,19s-6.8-6.1-10.5-6.9c-3.6-0.7-17.4,7.4-17.4,7.4
					s3.3,8.7-0.3,14.1c-6.4,10.4-24.3,12.4-30.9,4.1c-3-3.9,0.8-8.7-2.5-11.7s-15-6.2-18.6-4.1c-3.6,2.1-5.9,7.6-11.4,10.8
					c-7.1,4.2-22.9-8.3-21.8-17.2c0.9-4.7,7.8-6.3,6-10.4c-1.8-4.1-10.6-12-14.6-13c0,0-11.3-1.5-8.6,9.3
					c3.7,16.9-30.5,24.7-31.4,6.1s-8.7-12.8-11.7-9.1c-3,3.8-2.1,10.3-8,9.9S4.4,156.3,4.1,150.2z"/>
			</g>
		</g>
	</g>
	<g class="st34">
		<g>
			<g>
				<path class="st7" d="M189.8,48.9c-29.5,0-37.5,8.7-43.6,17.7c-14.9,21.8-12.3,56.1,15.8,68.2c0,0-23.9-17.4-18-47.7
					C149.8,56.9,189.8,48.9,189.8,48.9z"/>
			</g>
		</g>
	</g>
	<g class="st15">
		<g>
			<g>
				<path d="M48.8,171.8c4.8,18.4,31.6,12,29.8-3.7C69.1,176.8,59.1,178,48.8,171.8z"/>
			</g>
		</g>
	</g>
	<g class="st15">
		<g>
			<g>
				<path d="M101.8,176.5c-8.6,12.6,5.5,24.3,21,18.4C112.6,190.5,105.4,184.5,101.8,176.5z"/>
			</g>
		</g>
	</g>
	<g class="st15">
		<g>
			<g>
				<path d="M151.6,194.3c0.8,18.5,31.1,14.8,31.3-5.7C168.1,205.9,157.7,198.6,151.6,194.3z"/>
			</g>
		</g>
	</g>
	<g class="st15">
		<g>
			<g>
				<path d="M202.5,176.6c5.5,12.8,32.7,2.7,21.5-16.4C213.8,183.5,204.4,179,202.5,176.6z"/>
			</g>
		</g>
	</g>
	<g class="st15">
		<g>
			<g>
				<path d="M233.7,142.9c13.1,6.8,24.4-7,10.9-18C242.4,132.8,238.9,138.9,233.7,142.9z"/>
			</g>
		</g>
	</g>
	<g class="st15">
		<g>
			<g>
				<path d="M243.1,108.5c15-4.8,3.1-32.9-9.4-24C239.4,91.3,244.2,101.9,243.1,108.5z"/>
			</g>
		</g>
	</g>
	<g class="st25">
		<g>
			<g>
				<path class="st7" d="M135.5,157.2c-25-16.7-35.6-24.6-63.5-34.3S3.7,144.2,4.1,150.2c0.1,2.3,6,9.1,9.8,13
					C35,124.1,74.9,122.9,135.5,157.2z"/>
			</g>
		</g>
	</g>
	<g>
		<g>
			<g>
				<path class="st1" d="M164.3,211.7c-6.6,0-12.2-2.4-15.6-6.6c-2.5-3.2-2.2-6.7-2-8.9c0.1-1,0.2-2.1-0.1-2.3
					c-2.3-2.1-11.7-4.5-13.9-3.5c-0.9,0.6-2.1,1.9-3.3,3.4c-2,2.3-4.4,5.3-8.1,7.4c-4.2,2.5-10.1,1.6-16.2-2.4
					c-6.4-4.2-12.4-11.6-11.6-18.7c0-0.1,0-0.2,0-0.2c0.6-3.5,3-5.6,4.8-7.2c0.4-0.4,1-0.9,1.3-1.2c-1.8-3.2-8.9-9.4-11.4-10.2
					c-1.3-0.1-3.2,0.1-3.9,0.9c-0.5,0.5-0.5,1.8-0.1,3.6c1.3,6-0.9,11.9-6.1,16.1c-6.8,5.5-17.4,7.3-24.6,4.1c-5.3-2.3-8.3-7-8.6-13
					c-0.3-6.4-1.4-8.5-1.8-9.1c-0.6,0.2-1.7,1-2.7,2.4c-0.6,0.8-1.1,2-1.5,3.4c-1,3-3,8.5-9.8,8c-7.7-0.6-28.4-18.6-28.8-26.8
					c-0.1-1.3-0.3-5.4,12-14.7c15.9-12,41.4-23.5,61.2-16.6c26.4,9.2,38.1,17.1,59.4,31.3l5.1,3.4c22,14.7,43.8,9.9,65-14.4
					c14-16,21.7-38.2,7.6-51.9c-4.3-4.2-15.6-13.8-28-13.6c-6.4,0.1-12.3,2.9-17.6,8.3c-4.4,4.5-6.4,9.6-6,15.5
					c0.6,12.4,11.3,23.9,13.4,25.6c1.5,1.2,4.9,2.8,7.6,4.1c5.6,2.6,9,4.2,9.4,7.6c0.2,1.6-0.4,3.2-1.7,4.3
					c-4.1,3.4-21.7,5.7-39.2-8.6c-18.6-15.2-20.9-43.7-5.4-66.4c7.4-10.9,18.8-17.8,32-19.7c16.1-2.2,33,3.3,47.7,15.6
					c1.3,1.1,1.8,2.9,1.2,4.5c0,0-0.6,2,0.6,3.7c2.1,3,7.2,7.7,10.7,9.7c1.2-0.8,3.6-2.4,7.4-0.9c6.7,2.6,13.2,22.1,13.5,24
					c0.6,4-2.7,6.4-4.7,7.8c-0.5,0.4-1.4,1-1.7,1.4c-0.2,1-0.6,2.2-1.1,3.7c-0.6,1.9-1.8,5.6-1.9,7.3c0.3,0.1,0.6,0.3,0.9,0.4
					c2,0.9,5.1,2.4,6.8,6.1c2.5,5.4-2.4,12.8-3.9,14.9c-2,2.8-6.1,7.3-10.6,6.7c-1.7-0.2-3.2-0.6-4.4-0.9c-1.8-0.4-2.8-0.7-3.7-0.5
					c-1.1,0.6-3.6,4-5.5,7.8c0.3,0.5,0.7,1.1,1.1,1.8c0.8,1.2,1.8,2.8,3.1,5c3.3,5.8-0.1,13.3-4.1,18c-5.1,6.1-11.6,8.7-16.8,6.8
					c-5.5-2-7.5-4.3-8.9-5.9c-0.5-0.6-0.7-0.7-0.8-0.8c-1.6,0.1-6.8,2.5-12.1,5.3c0.8,3.7,1.4,9.6-1.6,14.3
					c-3.9,6.2-11.6,10.5-20.1,11C165.4,211.6,164.9,211.7,164.3,211.7z M134.3,182.1c6.5,0,14.9,3.2,17.7,5.8
					c3.1,2.8,2.8,6.5,2.6,8.9c-0.1,1.9-0.2,2.7,0.3,3.4c2,2.4,5.9,3.8,10.5,3.5c5.8-0.4,11.3-3.2,13.8-7.3c2.1-3.2,0.5-9.1-0.1-10.5
					c-0.7-1.8,0-3.9,1.7-4.9c6.9-4,16-8.7,20.2-7.8c2.9,0.6,4.3,2.2,5.3,3.3c1,1.2,2.1,2.4,5.7,3.7c1.8,0.7,5.2-1.2,7.9-4.4
					c3.1-3.6,4.1-7.4,3.2-8.8c-1.1-2-2.1-3.4-2.9-4.6c-2-3-3.7-5.6-1.7-9.5c1.6-3.3,6-11,10.7-12.2c2.8-0.7,5.3-0.1,7.7,0.4
					c1,0.2,2.1,0.5,3.2,0.7c2.4-1,6.9-8.1,6.5-10.4c-0.5-1-1.4-1.4-2.9-2.2c-1.8-0.8-4.2-2-5.1-4.8c-1-3,0.2-7.1,1.9-12.6
					c0.4-1.3,0.8-2.5,1-3.2c0.6-2.9,2.9-4.5,4.8-5.9c0.4-0.3,0.9-0.6,1.2-0.9c-1.1-4-6-14.8-8.4-16.9c0,0-0.1,0.1-0.1,0.1
					c-1.2,0.8-4,2.7-8.2,0.3c-4.8-2.7-10.7-8.4-13.4-12.1c-2.1-3-2.4-6-2.2-8.2c-12.4-9.8-26.4-14.2-39.6-12.4
					c-11,1.5-20.4,7.3-26.5,16.2c-13.1,19.2-11.5,43.1,3.9,55.6c7.8,6.4,15.4,8.7,21,9.2c-2.8-1.3-5.5-2.7-7.3-4.3
					c-3.2-2.7-15.4-15.9-16.2-31.3c-0.4-8.1,2.4-15.3,8.3-21.5c6.8-7,14.6-10.6,23.2-10.7c15.5-0.2,28.7,11,33.7,15.9
					c12.9,12.5,15.6,36.8-7.2,62.9c-23.9,27.4-50,32.8-75.5,15.8l-5.1-3.4c-21.4-14.4-32.1-21.6-57.5-30.4
					c-24.2-8.4-59,17.2-62.5,23.6c1.6,4.6,17,18.4,21.4,19c0.4,0,0.5,0,0.5,0c0.3-0.3,0.8-1.8,1.1-2.7c0.6-1.7,1.4-3.9,2.8-5.7
					c3.5-4.4,7.8-6.3,11.5-5.1c6,1.9,7.1,10.3,7.3,16.4c0.1,3,1.4,4.9,3.9,6c4.5,2,11.8,0.7,16.3-3c2.9-2.3,4-5.1,3.3-8.1
					c-1.3-5.5,0.3-8.9,2-10.7c3.8-4.3,10.4-3.6,11.1-3.5c0.2,0,0.3,0,0.5,0.1c5.5,1.4,15.1,10.4,17.2,15.3c2.2,4.9-1.5,8.2-3.5,10
					c-1,0.9-2.1,1.9-2.3,2.6c-0.2,3,3.3,7.9,8.1,10.9c3.6,2.3,6.6,2.9,7.8,2.2c2.5-1.4,4.3-3.6,6-5.6c1.6-1.9,3.3-3.9,5.5-5.2
					C130.1,182.5,132.1,182.1,134.3,182.1z M231.7,148.2L231.7,148.2L231.7,148.2z M247,131.2C247,131.2,247,131.2,247,131.2
					S247,131.2,247,131.2z M246.6,122L246.6,122L246.6,122z M239.3,84.7C239.3,84.7,239.3,84.7,239.3,84.7
					C239.3,84.7,239.3,84.7,239.3,84.7z"/>
			</g>
		</g>
	</g>
</g>
</svg>
