<?xml version="1.0" encoding="utf-8"?>
<!-- Generator: Adobe Illustrator 22.1.0, SVG Export Plug-In . SVG Version: 6.00 Build 0)  -->
<svg version="1.1" id="Layer_1" xmlns="http://www.w3.org/2000/svg" xmlns:xlink="http://www.w3.org/1999/xlink" x="0px" y="0px"
	 viewBox="0 0 256 256" style="enable-background:new 0 0 256 256;" xml:space="preserve">
<style type="text/css">
	.st0{fill:#F5B31F;}
	.st1{fill:#464646;}
	.st2{opacity:0.15;}
	.st3{fill:#AC6535;}
	.st4{fill:#EB573B;}
	.st5{fill:#90C056;}
	.st6{opacity:0.35;}
	.st7{fill:#FFFFFF;}
	.st8{opacity:0.2;}
	.st9{fill:#F6D67A;}
	.st10{opacity:0.3;}
	.st11{fill:#FFA755;}
	.st12{fill:#8FAE3C;}
	.st13{fill:#BE6BB2;}
	.st14{fill:#B7C536;}
	.st15{opacity:0.1;}
	.st16{fill:#9D5A96;}
	.st17{fill:#EA615D;}
	.st18{opacity:0.4;}
	.st19{fill:#F79932;}
	.st20{fill:#FFEC97;}
	.st21{fill:#FFD11D;}
	.st22{fill:#F7F2D5;}
	.st23{fill:#F6AF72;}
	.st24{fill:#BA6C45;}
	.st25{opacity:0.5;}
	.st26{fill:#E4C074;}
	.st27{fill:#656566;}
	.st28{fill:#FACD1F;}
	.st29{fill:#FFDF66;}
	.st30{fill:#6D6E71;}
	.st31{fill:#E77CAE;}
	.st32{fill:#FFE5C4;}
	.st33{fill:#F68455;}
	.st34{opacity:0.7;}
	.st35{fill:#ADEDFF;}
	.st36{fill:#EC754B;}
	.st37{fill:#4AA5BA;}
	.st38{opacity:0.8;}
	.st39{fill:#92A5AC;}
	.st40{fill:#D06E3C;}
	.st41{fill:#DA4F4B;}
	.st42{fill:#BDF3FF;}
	.st43{fill:#F18BB4;}
	.st44{fill:#F9D97A;}
	.st45{fill:none;}
	.st46{fill:#AF6535;}
	.st47{fill:#B93226;}
	.st48{fill:#FF6050;}
	.st49{fill:#EA7CB1;}
	.st50{fill:#00B0E0;}
	.st51{fill:#EA7DAE;}
	.st52{fill:#BC7532;}
	.st53{fill:#876C6C;}
	.st54{fill:#F9F6CD;}
	.st55{fill:#FFE37B;}
	.st56{fill:#1DDCFF;}
	.st57{fill:#60ACF7;}
	.st58{fill:#C3755A;}
	.st59{fill:#96557A;}
	.st60{fill:#66625D;}
	.st61{fill:#D68032;}
	.st62{fill:#F2A355;}
	.st63{fill:#7E9E6A;}
	.st64{fill:#965A85;}
	.st65{fill:#90CAD3;}
	.st66{fill:#94B57F;}
	.st67{fill:#B2E2E7;}
	.st68{fill:#FFDF8F;}
	.st69{fill:#FFFAEB;}
	.st70{fill:#F88916;}
	.st71{fill:#FFC86E;}
	.st72{fill:#AFA51D;}
	.st73{fill:#968A1C;}
	.st74{fill:#C3556D;}
</style>
<g>
	<g>
		<g>
			<path class="st12" d="M132.3,45.2c-20.7-27.4-75.9-60.5-86.2-27.4S92.7,50.1,132.3,45.2z"/>
		</g>
	</g>
	<g class="st10">
		<g>
			<path class="st7" d="M78.1,6.1C63.3,1.5,50.6,3.5,46.1,17.8c-3.5,11.3,0.8,18.6,9.4,23.2c0,0-2.5-10.6,3.7-21.3
				S78.1,6.1,78.1,6.1z"/>
		</g>
	</g>
	<g>
		<g>
			<path class="st4" d="M128.1,243.8c48.7,28.7,109.9-21.1,111.5-109.5c1.6-88.3-85.5-73.2-111.5-61.8C102.1,61.1,15,46,16.6,134.3
				C18.2,222.6,79.4,272.5,128.1,243.8z"/>
		</g>
	</g>
	<g class="st8">
		<g>
			<path class="st7" d="M128.1,72.5C102.1,61.1,15,46,16.6,134.3c0.5,25.8,6,48.4,14.9,66.6c0,0-10.9-54.1,7.3-93.4
				S128.1,72.5,128.1,72.5z"/>
		</g>
	</g>
	<g class="st15">
		<g>
			<path d="M179.4,63.9c30.4,1.8,61.2,17.6,60.2,70.4c-1.6,88.3-62.8,138.2-111.5,109.5c0,0,41.3,29.7,81.6-59
				S179.4,63.9,179.4,63.9z"/>
		</g>
	</g>
	<g>
		<g>
			<path class="st1" d="M157.1,256c-9.9,0-19.7-2.5-29-7.6c-19.2,10.4-40.5,10.1-60.4-1c-25.9-14.5-53.9-51.8-55.1-113
				c-0.5-29.6,8.5-50.9,26.9-63.1c16-10.7,35.8-12,49.6-11.3c15.9,0.9,30.3,4.7,39,8.2c8.7-3.5,23-7.4,39-8.2
				c13.8-0.7,33.6,0.6,49.6,11.3c18.4,12.3,27.5,33.5,26.9,63.1c-1.1,61.2-29.2,98.5-55.1,113C178.3,253.1,167.6,255.9,157.1,256z
				 M128.1,239.8c0.7,0,1.4,0.2,2,0.6c17.1,10.1,36.5,10.1,54.5,0c30.6-17.1,50.1-57.7,51-106.1c0.5-26.7-7.4-45.7-23.4-56.3
				c-25.9-17.3-66.8-8.6-82.5-1.7c-1,0.4-2.2,0.4-3.2,0c-15.8-6.9-56.7-15.6-82.5,1.7c-16,10.7-23.8,29.6-23.4,56.3
				c0.9,48.4,20.4,89,51,106.1c18,10.1,37.4,10.1,54.5,0C126.7,240,127.4,239.8,128.1,239.8z"/>
		</g>
	</g>
	<g>
		<g>
			<path class="st1" d="M128.1,76.5C128.1,76.5,128.1,76.5,128.1,76.5c-2.3,0-4-1.9-4-4.1c0.5-28.4,9.9-48,28-58.2
				c1.9-1.1,4.4-0.4,5.4,1.5c1.1,1.9,0.4,4.4-1.5,5.4c-15.7,8.8-23.5,25.6-23.9,51.3C132.1,74.8,130.3,76.5,128.1,76.5z"/>
		</g>
	</g>
	<g>
		<g>
			<path class="st1" d="M95.2,51.8c-30.7,0-44-6.9-49.6-13.6c-4.8-5.7-5.9-13-3.2-21.6c2.8-9.1,9-14.7,17.7-16.3
				c23.4-4.1,60.3,22.4,75.4,42.4c0.9,1.1,1,2.7,0.5,4s-1.8,2.2-3.2,2.4C118,51,105.6,51.8,95.2,51.8z M65.2,7.9
				c-1.3,0-2.6,0.1-3.7,0.3c-5.8,1-9.6,4.5-11.5,10.8c-1.8,5.9-1.3,10.5,1.7,14c8.3,9.9,34.6,13.1,72.8,9C117,33.7,107,25.4,96.4,19
				C84.5,11.8,73.4,7.9,65.2,7.9z"/>
		</g>
	</g>
	<g>
		<g>
			<path class="st1" d="M73.6,223.9c-1.1,0-2.1-0.4-2.9-1.2c-25.7-26.8-29.4-44-29.8-56.1c-0.1-2.2,1.7-4,3.9-4.1
				c2.2-0.1,4,1.7,4.1,3.9c0.5,15.9,8.7,31.1,27.6,50.8c1.5,1.6,1.5,4.1-0.1,5.7C75.6,223.5,74.6,223.9,73.6,223.9z"/>
		</g>
	</g>
</g>
</svg>
