<?xml version="1.0" encoding="utf-8"?>
<!-- Generator: Adobe Illustrator 22.1.0, SVG Export Plug-In . SVG Version: 6.00 Build 0)  -->
<svg version="1.1" id="Layer_1" xmlns="http://www.w3.org/2000/svg" xmlns:xlink="http://www.w3.org/1999/xlink" x="0px" y="0px"
	 viewBox="0 0 256 256" style="enable-background:new 0 0 256 256;" xml:space="preserve">
<style type="text/css">
	.st0{fill:#F5B31F;}
	.st1{fill:#464646;}
	.st2{opacity:0.15;}
	.st3{fill:#AC6535;}
	.st4{fill:#EB573B;}
	.st5{fill:#90C056;}
	.st6{opacity:0.35;}
	.st7{fill:#FFFFFF;}
	.st8{opacity:0.2;}
	.st9{fill:#F6D67A;}
	.st10{opacity:0.3;}
	.st11{fill:#FFA755;}
	.st12{fill:#8FAE3C;}
	.st13{fill:#BE6BB2;}
	.st14{fill:#B7C536;}
	.st15{opacity:0.1;}
	.st16{fill:#9D5A96;}
	.st17{fill:#EA615D;}
	.st18{opacity:0.4;}
	.st19{fill:#F79932;}
	.st20{fill:#FFEC97;}
	.st21{fill:#FFD11D;}
	.st22{fill:#F7F2D5;}
	.st23{fill:#F6AF72;}
	.st24{fill:#BA6C45;}
	.st25{opacity:0.5;}
	.st26{fill:#E4C074;}
	.st27{fill:#656566;}
	.st28{fill:#FACD1F;}
	.st29{fill:#FFDF66;}
	.st30{fill:#6D6E71;}
	.st31{fill:#E77CAE;}
	.st32{fill:#FFE5C4;}
	.st33{fill:#F68455;}
	.st34{opacity:0.7;}
	.st35{fill:#ADEDFF;}
	.st36{fill:#EC754B;}
	.st37{fill:#4AA5BA;}
	.st38{opacity:0.8;}
	.st39{fill:#92A5AC;}
	.st40{fill:#D06E3C;}
	.st41{fill:#DA4F4B;}
	.st42{fill:#BDF3FF;}
	.st43{fill:#F18BB4;}
	.st44{fill:#F9D97A;}
	.st45{fill:none;}
	.st46{fill:#AF6535;}
	.st47{fill:#B93226;}
	.st48{fill:#FF6050;}
	.st49{fill:#EA7CB1;}
	.st50{fill:#00B0E0;}
	.st51{fill:#EA7DAE;}
	.st52{fill:#BC7532;}
	.st53{fill:#876C6C;}
	.st54{fill:#F9F6CD;}
	.st55{fill:#FFE37B;}
	.st56{fill:#1DDCFF;}
	.st57{fill:#60ACF7;}
	.st58{fill:#C3755A;}
	.st59{fill:#96557A;}
	.st60{fill:#66625D;}
	.st61{fill:#D68032;}
	.st62{fill:#F2A355;}
	.st63{fill:#7E9E6A;}
	.st64{fill:#965A85;}
	.st65{fill:#90CAD3;}
	.st66{fill:#94B57F;}
	.st67{fill:#B2E2E7;}
	.st68{fill:#FFDF8F;}
	.st69{fill:#FFFAEB;}
	.st70{fill:#F88916;}
	.st71{fill:#FFC86E;}
	.st72{fill:#AFA51D;}
	.st73{fill:#968A1C;}
	.st74{fill:#C3556D;}
</style>
<g>
	<g>
		<g>
			<g>
				<rect x="34.3" y="28.9" class="st0" width="162.6" height="42.6"/>
			</g>
		</g>
	</g>
	<g>
		<g>
			<g>
				<path class="st9" d="M34.3,71.5l0,180.6l162.6,0l0-180.6L34.3,71.5z M153.8,179.5c-1-4-1.5-6.9-6.2-9.6
					c-13.1-7.6-41.1,59.1-63.4,46.1c-21.8-12.6,16.8-62.9,6.2-70.3c-3.2-1.7-8.3,0.8-13.7,3.9c15-18.8,25.5-19.1,26.9,1.3
					c13.4-23.2,31.7-43.6,41.3-38c9.1,5.3,1.8,29-10.4,51.2c8.2-4.6,14.8-6.8,17.5-5.2S157.9,172.3,153.8,179.5z"/>
			</g>
		</g>
	</g>
	<g>
		<g>
			<g>
				<polygon class="st9" points="221.7,46.8 221.7,227.4 196.9,252.2 197,71.5 				"/>
			</g>
		</g>
	</g>
	<g>
		<g>
			<g>
				<polygon class="st0" points="221.7,4.2 197,28.9 34.3,28.9 59.1,4.1 				"/>
			</g>
		</g>
	</g>
	<g>
		<g>
			<g>
				<polygon class="st0" points="221.7,4.2 221.7,46.8 197,71.5 197,28.9 221.7,4.2 				"/>
			</g>
		</g>
	</g>
	<g class="st8">
		<g>
			<g>
				<polygon class="st1" points="221.7,46.8 221.7,227.4 196.9,252.2 197,71.5 				"/>
			</g>
		</g>
	</g>
	<g class="st8">
		<g>
			<g>
				<polygon class="st1" points="221.7,4.2 221.7,46.8 197,71.5 197,28.9 221.7,4.2 				"/>
			</g>
		</g>
	</g>
	<g>
		<g>
			<g>
				<path class="st12" d="M153.8,179.5c-1-4-1.5-6.9-6.2-9.6c-13.1-7.6-41.1,59.1-63.4,46.1c1.4-3.7,3.4-7.5,5.8-11.3
					c2.1-3.3,4.6-6.6,7.3-9.7c10.9-12.9,25.6-24.4,37.3-30.9c8.2-4.6,14.8-6.8,17.5-5.2S157.9,172.3,153.8,179.5z"/>
			</g>
		</g>
	</g>
	<g>
		<g>
			<g>
				<path class="st12" d="M99.4,191.5l-2.2,3.6c-2.7,3.2-5.1,6.4-7.3,9.7c-2.4,3.7-4.4,7.5-5.8,11.3c-21.8-12.6,16.8-62.9,6.2-70.3
					c-3.2-1.7-8.3,0.8-13.7,3.9c15-18.8,25.5-19.1,26.9,1.3C104.3,160.1,103,173.6,99.4,191.5z"/>
			</g>
		</g>
	</g>
	<g>
		<g>
			<g>
				<path class="st21" d="M134.5,164.1c-11.6,6.5-26.3,18-37.3,30.9l2.2-3.6c3.6-17.9,4.8-31.3,4.2-40.5
					c13.4-23.2,31.7-43.6,41.3-38C154,118.2,146.7,141.9,134.5,164.1z"/>
			</g>
		</g>
	</g>
	<g>
		<g>
			<g>
				<path class="st1" d="M197,75.5L197,75.5l-162.6,0c-1.1,0-2.1-0.4-2.8-1.2c-0.8-0.8-1.2-1.8-1.2-2.8l0-42.6c0-2.2,1.8-4,4-4l0,0
					l162.6,0c1.1,0,2.1,0.4,2.8,1.2c0.8,0.8,1.2,1.8,1.2,2.8l0,42.6C201,73.7,199.2,75.5,197,75.5z M38.3,67.5l154.6,0l0-34.6
					l-154.6,0L38.3,67.5z"/>
			</g>
		</g>
	</g>
	<g>
		<g>
			<g>
				<path class="st1" d="M196.9,256.2L196.9,256.2l-162.6,0c-2.2,0-4-1.8-4-4l0-180.6c0-1.1,0.4-2.1,1.2-2.8s1.8-1.2,2.8-1.2l0,0
					l162.6,0c2.2,0,4,1.8,4,4l0,180.6c0,1.1-0.4,2.1-1.2,2.8S198,256.2,196.9,256.2z M38.3,248.2l154.6,0l0-172.6l-154.6,0
					L38.3,248.2z M90.3,221.8c-2.7,0-5.4-0.7-8.2-2.3c-15.7-9.1-6.9-31.6,0.1-49.6c2.7-6.8,7.1-18.2,5.9-20.8
					c-0.9-0.1-3.3,0.4-9.4,4c-1.7,1-3.8,0.6-5-0.8c-1.3-1.5-1.3-3.6-0.1-5.1c9.8-12.2,17.8-17.2,24.5-15.1c3.4,1.1,5.9,3.8,7.5,8.1
					c9.6-14.7,21.9-28.9,32.1-31.6c3.4-0.9,6.6-0.6,9.2,1c12.2,7.1,3.6,30.9-3.6,46.2c7-2.3,9.6-0.8,10.7-0.2
					c5.3,3.1,8,17.8,3.3,26.1c-0.8,1.4-2.4,2.2-4,2c-1.6-0.2-2.9-1.4-3.3-3l-0.1-0.6c-0.9-3.5-1.2-4.8-4.2-6.5c-0.3-0.2-2,0-5.7,3.4
					c-3.8,3.6-8.3,9.2-13,15.1C115.6,206,103.1,221.8,90.3,221.8z M90.6,141.5c0.6,0.2,1.2,0.4,1.7,0.7c0.1,0.1,0.3,0.2,0.4,0.3
					c6.9,4.9,2.6,16.1-3,30.4c-7.3,18.7-12.6,34.5-3.5,39.8c9.6,5.6,23.4-11.8,34.5-25.7c11.3-14.2,20.2-25.5,28.9-20.4
					c0.7,0.4,1.3,0.8,1.9,1.3c-0.4-2.4-1.1-4.4-1.6-5.3c-1.3-0.1-5.4,0.7-13.4,5.2c-1.6,0.9-3.5,0.6-4.8-0.6
					c-1.3-1.3-1.6-3.2-0.7-4.8c6.2-11.3,10.8-22.3,12.8-31c1.8-7.8,1.5-13.5-0.9-14.9c-0.3-0.2-1.2-0.7-3.1-0.2
					c-7.9,2.1-21.4,17.2-32.7,36.8c-0.9,1.5-2.7,2.3-4.4,1.9c-1.7-0.4-3-1.9-3.1-3.6c-0.5-7.8-2.4-11.1-3.9-11.5
					C94.9,139.4,93.1,139.7,90.6,141.5z"/>
			</g>
		</g>
	</g>
	<g>
		<g>
			<g>
				<path class="st1" d="M196.9,256.2c-0.5,0-1-0.1-1.5-0.3c-1.5-0.6-2.5-2.1-2.5-3.7l0-180.6c0-1.1,0.4-2.1,1.2-2.8l24.7-24.8
					c1.1-1.1,2.9-1.5,4.4-0.9c1.5,0.6,2.5,2.1,2.5,3.7l0,180.6c0,1.1-0.4,2.1-1.2,2.8L199.8,255C199,255.8,198,256.2,196.9,256.2z
					 M201,73.2l0,169.3l16.7-16.8l0-169.3L201,73.2z"/>
			</g>
		</g>
	</g>
	<g>
		<g>
			<g>
				<path class="st1" d="M197,32.9L197,32.9l-162.6,0c-1.6,0-3.1-1-3.7-2.5c-0.6-1.5-0.3-3.2,0.9-4.4L56.2,1.3
					C57,0.6,58,0.1,59.1,0.1l0,0l162.6,0c1.6,0,3.1,1,3.7,2.5c0.6,1.5,0.3,3.2-0.9,4.4l-24.7,24.8C199,32.5,198,32.9,197,32.9z
					 M44,24.9l151.3,0L212,8.2l-151.3,0L44,24.9z"/>
			</g>
		</g>
	</g>
	<g>
		<g>
			<g>
				<path class="st1" d="M196.9,75.5c-0.5,0-1-0.1-1.5-0.3c-1.5-0.6-2.5-2.1-2.5-3.7l0-42.6c0-1.1,0.4-2.1,1.2-2.8l24.7-24.8
					c0.8-0.8,1.8-1.2,2.8-1.2c1.1,0,2.1,0.4,2.8,1.2c0.8,0.8,1.2,1.8,1.2,2.8l0,42.6c0,1.1-0.4,2.1-1.2,2.8l-24.7,24.8
					C199,75.1,198,75.5,196.9,75.5z M201,30.6l0,31.3l16.7-16.8l0-31.3L201,30.6z"/>
			</g>
		</g>
	</g>
	<g>
		<g>
			<g>
				<path class="st1" d="M90.3,221.8c-2.7,0-5.4-0.7-8.2-2.3c-1.7-1-2.4-3-1.7-4.9c1.5-3.9,3.5-7.9,6.2-12c2.1-3.3,4.7-6.7,7.6-10.2
					c12.2-14.4,27.8-25.9,38.4-31.8c15.4-8.7,20-6.1,21.5-5.2c4.8,2.8,8.3,17.3,3.3,26.1c-0.8,1.4-2.4,2.2-4,2
					c-1.6-0.2-2.9-1.4-3.3-3l-0.1-0.6c-0.9-3.5-1.2-4.8-4.2-6.6c-0.3-0.2-2,0-5.7,3.4c-3.8,3.6-8.3,9.1-13,15.1
					C115.6,206,103.1,221.8,90.3,221.8z M89.5,213.6c9.3,0.7,21.3-14.4,31.1-26.7c11.3-14.2,20.2-25.5,28.9-20.4
					c0.7,0.4,1.3,0.8,1.9,1.3c-0.4-2.4-1.1-4.4-1.6-5.3c-1.3-0.1-5.4,0.7-13.4,5.2c-9.9,5.6-24.7,16.4-36.2,30c-2.7,3.2-5,6.3-7,9.3
					C91.8,209.2,90.6,211.4,89.5,213.6z M150.1,162.4C150.1,162.4,150.1,162.4,150.1,162.4L150.1,162.4z M149.6,162.1L149.6,162.1
					L149.6,162.1z"/>
			</g>
		</g>
	</g>
	<g>
		<g>
			<g>
				<path class="st1" d="M84.1,220c-0.7,0-1.4-0.2-2-0.5c-15.7-9.1-6.9-31.6,0.1-49.6c2.7-6.8,7.1-18.2,5.9-20.8
					c-0.9-0.1-3.3,0.4-9.4,4c-1.7,1-3.8,0.6-5-0.8c-1.3-1.5-1.3-3.6-0.1-5.1c9.8-12.2,17.8-17.2,24.5-15.1c5.6,1.8,8.8,8,9.5,18.6
					c0.7,10-0.8,24-4.3,41.6c-0.1,0.5-0.3,0.9-0.5,1.3l-2.2,3.6c-0.1,0.2-0.2,0.3-0.3,0.5c-2.7,3.2-5,6.3-7,9.3
					c-2.3,3.6-4.2,7.2-5.4,10.5c-0.4,1.1-1.3,2-2.4,2.4C85.1,219.9,84.6,220,84.1,220z M90.6,141.5c0.6,0.2,1.2,0.4,1.7,0.7
					c0.1,0.1,0.3,0.2,0.4,0.3c7,4.9,2.6,16.1-3,30.4c-6.1,15.6-10.8,29.2-6.9,36.4c1.1-2.2,2.3-4.3,3.8-6.6c2.1-3.2,4.6-6.6,7.4-9.9
					l1.7-2.7c3.3-16.6,4.6-29.6,4-38.8c-0.5-7.8-2.4-11.1-3.9-11.5C94.9,139.4,93.1,139.7,90.6,141.5z M99.4,191.5L99.4,191.5
					L99.4,191.5z"/>
			</g>
		</g>
	</g>
	<g>
		<g>
			<g>
				<path class="st1" d="M97.2,199c-0.8,0-1.6-0.3-2.4-0.8c-1.7-1.2-2.1-3.6-1-5.3l1.8-2.9c3.3-16.6,4.6-29.6,4-38.8
					c-0.1-0.8,0.1-1.6,0.5-2.3c10.1-17.4,25.2-37.2,37.5-40.5c3.4-0.9,6.6-0.6,9.2,1c6,3.5,7.6,11.4,4.7,23.6c-2.2,9.3-7,21-13.6,33
					c-0.4,0.7-0.9,1.2-1.5,1.6c-9.9,5.6-24.7,16.4-36.2,30C99.5,198.5,98.4,199,97.2,199z M107.7,151.9c0.4,7.5-0.4,17.2-2.2,28.8
					c9.1-8.5,18.7-15.2,26.1-19.5c13.1-24.2,16.2-42.1,11.4-44.9c-0.3-0.2-1.2-0.7-3.1-0.2C132,118.3,118.9,132.9,107.7,151.9z
					 M134.5,164.1L134.5,164.1L134.5,164.1z"/>
			</g>
		</g>
	</g>
</g>
</svg>
