<?xml version="1.0" encoding="utf-8"?>
<!-- Generator: Adobe Illustrator 22.1.0, SVG Export Plug-In . SVG Version: 6.00 Build 0)  -->
<svg version="1.1" id="Layer_1" xmlns="http://www.w3.org/2000/svg" xmlns:xlink="http://www.w3.org/1999/xlink" x="0px" y="0px"
	 viewBox="0 0 256 256" style="enable-background:new 0 0 256 256;" xml:space="preserve">
<style type="text/css">
	.st0{fill:#F5B31F;}
	.st1{fill:#464646;}
	.st2{opacity:0.15;}
	.st3{fill:#AC6535;}
	.st4{fill:#EB573B;}
	.st5{fill:#90C056;}
	.st6{opacity:0.35;}
	.st7{fill:#FFFFFF;}
	.st8{opacity:0.2;}
	.st9{fill:#F6D67A;}
	.st10{opacity:0.3;}
	.st11{fill:#FFA755;}
	.st12{fill:#8FAE3C;}
	.st13{fill:#BE6BB2;}
	.st14{fill:#B7C536;}
	.st15{opacity:0.1;}
	.st16{fill:#9D5A96;}
	.st17{fill:#EA615D;}
	.st18{opacity:0.4;}
	.st19{fill:#F79932;}
	.st20{fill:#FFEC97;}
	.st21{fill:#FFD11D;}
	.st22{fill:#F7F2D5;}
	.st23{fill:#F6AF72;}
	.st24{fill:#BA6C45;}
	.st25{opacity:0.5;}
	.st26{fill:#E4C074;}
	.st27{fill:#656566;}
	.st28{fill:#FACD1F;}
	.st29{fill:#FFDF66;}
	.st30{fill:#6D6E71;}
	.st31{fill:#E77CAE;}
	.st32{fill:#FFE5C4;}
	.st33{fill:#F68455;}
	.st34{opacity:0.7;}
	.st35{fill:#ADEDFF;}
	.st36{fill:#EC754B;}
	.st37{fill:#4AA5BA;}
	.st38{opacity:0.8;}
	.st39{fill:#92A5AC;}
	.st40{fill:#D06E3C;}
	.st41{fill:#DA4F4B;}
	.st42{fill:#BDF3FF;}
	.st43{fill:#F18BB4;}
	.st44{fill:#F9D97A;}
	.st45{fill:none;}
	.st46{fill:#AF6535;}
	.st47{fill:#B93226;}
	.st48{fill:#FF6050;}
	.st49{fill:#EA7CB1;}
	.st50{fill:#00B0E0;}
	.st51{fill:#EA7DAE;}
	.st52{fill:#BC7532;}
	.st53{fill:#876C6C;}
	.st54{fill:#F9F6CD;}
	.st55{fill:#FFE37B;}
	.st56{fill:#1DDCFF;}
	.st57{fill:#60ACF7;}
	.st58{fill:#C3755A;}
	.st59{fill:#96557A;}
	.st60{fill:#66625D;}
	.st61{fill:#D68032;}
	.st62{fill:#F2A355;}
	.st63{fill:#7E9E6A;}
	.st64{fill:#965A85;}
	.st65{fill:#90CAD3;}
	.st66{fill:#94B57F;}
	.st67{fill:#B2E2E7;}
	.st68{fill:#FFDF8F;}
	.st69{fill:#FFFAEB;}
	.st70{fill:#F88916;}
	.st71{fill:#FFC86E;}
	.st72{fill:#AFA51D;}
	.st73{fill:#968A1C;}
	.st74{fill:#C3556D;}
</style>
<g>
	<g>
		<g>
			<path class="st4" d="M228.5,215.1l0,6c0,15-7.5,30.4-30.5,30.4c-23,0-70,0-70,0s-47,0-70,0c-23,0-30.5-15.5-30.5-30.4l0-6
				L228.5,215.1z"/>
		</g>
	</g>
	<g>
		<g>
			<rect x="27.6" y="113.9" class="st54" width="200.9" height="101.2"/>
		</g>
	</g>
	<g>
		<g>
			<path class="st4" d="M228.5,85.5l0,28.4l-200.9,0l0-27.2c10.3,0,20-16.2,33.3-16.1s18.6,16.2,33.3,16.2
				c14.7,0,26.6-16.2,38.1-16.1c11.6,0,19.1,16.2,33.6,16.2c14.5,0,23-16.2,35.2-16.1C211.2,70.6,220.7,81.7,228.5,85.5z"/>
		</g>
	</g>
	<g class="st2">
		<g>
			<path class="st7" d="M43.5,215.1l0-137.2l-15.8,0l0,137.2l0,6c0,15,7.5,30.4,30.5,30.4c8.2,0,19.4,0,30.4,0c20,0,39.5,0,39.5,0
				C53.6,251.6,43.5,247.6,43.5,215.1z"/>
		</g>
	</g>
	<g>
		<g>
			<path class="st1" d="M198,255.6C198,255.6,198,255.6,198,255.6l-139.9,0c-11.8,0-20.9-3.7-26.9-11.1c-6.2-7.5-7.5-16.9-7.5-23.4
				l0-6c0-2.2,1.8-4,4-4l0,0l200.9,0c2.2,0,4,1.8,4,4v6c0,6.5-1.3,15.9-7.5,23.4C218.9,251.9,209.8,255.6,198,255.6z M31.6,219.1v2
				c0,5.2,1,12.6,5.7,18.3c4.5,5.4,11.5,8.2,20.8,8.2l139.9,0c23,0,26.5-16.6,26.5-26.4v-2L31.6,219.1z"/>
		</g>
	</g>
	<g>
		<g>
			<path class="st1" d="M228.5,219.1L228.5,219.1l-200.9,0c-2.2,0-4-1.8-4-4l0-101.2c0-1.1,0.4-2.1,1.2-2.8s1.8-1.2,2.8-1.2l0,0
				l200.9,0c1.1,0,2.1,0.4,2.8,1.2c0.8,0.8,1.2,1.8,1.2,2.8l0,101.2C232.5,217.3,230.7,219.1,228.5,219.1z M31.6,211.1l192.9,0
				l0-93.2l-192.9,0L31.6,211.1z"/>
		</g>
	</g>
	<g>
		<g>
			<path class="st1" d="M228.5,117.9L228.5,117.9l-200.9,0c-1.1,0-2.1-0.4-2.8-1.2c-0.8-0.8-1.2-1.8-1.2-2.8l0-27.2
				c0-1.1,0.4-2.1,1.2-2.8s1.8-1.2,2.8-1.2l0,0c3.5,0,7.7-3.2,12.1-6.5c6-4.5,12.8-9.6,21.2-9.6c0,0,0,0,0,0
				c7.9,0,13.4,4.6,18.3,8.7c4.8,4,8.9,7.4,15,7.4c6.6,0,13-4.1,19.2-8.2c6.3-4.1,12.3-8,19-8c0,0,0,0,0,0c6.8,0,12.2,4.2,17.3,8.2
				c5.2,4.1,10,7.9,16.3,7.9c6.3,0,11.4-3.8,16.8-7.8c5.5-4.1,11.2-8.3,18.4-8.3c0,0,0,0,0,0c8,0,15,5.3,21.2,10
				c2.9,2.2,5.6,4.2,7.9,5.3c1.4,0.7,2.3,2.1,2.3,3.6l0,28.4c0,1.1-0.4,2.1-1.2,2.8S229.5,117.9,228.5,117.9z M31.6,109.9l192.9,0
				l0-22.1c-2.3-1.4-4.6-3.1-7-4.9c-5.2-3.9-11.1-8.4-16.4-8.4c-4.5,0-8.7,3.1-13.6,6.8c-5.9,4.4-12.7,9.4-21.6,9.4h0
				c-9.1,0-15.5-5.1-21.3-9.6c-4.4-3.5-8.3-6.5-12.3-6.5c-4.3,0-9.3,3.3-14.6,6.7c-6.8,4.4-14.6,9.4-23.5,9.4h0
				c-9,0-14.9-5-20.1-9.3c-4.4-3.7-8.2-6.8-13.2-6.8c-5.7,0-11.1,4.1-16.4,8c-4.1,3.1-8.3,6.3-12.9,7.6L31.6,109.9z"/>
		</g>
	</g>
	<g>
		<g>
			<g>
				<path class="st4" d="M101.6,191.8c-6.7-6.7-2.6-36.3,8.2-45c5.2-4.2,10.7-4.9,16-3.7c1.8,4.4,7.5,7.3,15.2,9.4
					c3,6.6,6,13.8,9.5,15.8c1,5.1,0.2,10.4-3.8,15.4C137.9,194.4,108.3,198.6,101.6,191.8z"/>
			</g>
		</g>
	</g>
	<g>
		<g>
			<g>
				<path class="st1" d="M114.1,199.1c-5.5,0-11.8-0.9-15.4-4.4c-4.2-4.2-4.7-12.3-4.3-18.3c0.9-16.1,7.1-28,12.9-32.6
					c5.7-4.6,12.4-6.1,19.4-4.5c1.3,0.3,2.3,1.2,2.8,2.4c0.7,1.8,3.5,4.5,12.5,7c1.1,0.3,2.1,1.1,2.6,2.2l0.9,2
					c2.1,4.6,4.9,10.8,7,12c1,0.6,1.7,1.5,1.9,2.7c1.4,6.7-0.2,13.2-4.6,18.7c-4.6,5.8-16.5,12-32.6,12.8
					C116.1,199.1,115.1,199.1,114.1,199.1z M121.2,146.6c-3.2,0-6.2,1.1-9,3.4c-5,4-9.3,15.5-9.9,26.8c-0.4,7.7,1.1,11.3,2,12.3
					s4.6,2.4,12.3,2c11.2-0.6,22.8-4.9,26.8-9.9c2.6-3.3,3.7-6.8,3.3-10.6c-3.4-3-5.9-8.6-8.5-14.4l-0.1-0.3
					c-7.6-2.3-12.5-5.2-15-9.1C122.5,146.7,121.9,146.6,121.2,146.6z"/>
			</g>
		</g>
		<g>
			<g>
				<path class="st1" d="M150.4,172.3c-0.6,0-1.3-0.2-1.8-0.4c-0.1,0-0.1-0.1-0.2-0.1v0c-4.3-2.5-7.2-8.9-10.2-15.6l-0.1-0.3
					c-8.9-2.7-14-6.3-16-11.2c-0.3-0.8-0.5-1.6-0.7-2.4c-0.3-1.9,0.8-3.8,2.6-4.4c3.7-1.4,7.4-0.5,10.6,1.1c0.6-2,1.5-4.1,2.9-6.3
					c0.6-1,1.7-1.7,2.9-1.8c1.2-0.2,2.4,0.2,3.2,1c5.2,4.8,6.1,9.7,5.7,13.5c7.4,0.5,10.2,2.8,11.1,3.9c1.3,1.5,1.7,3.5,1.3,5.4
					c-0.2,1-0.8,1.8-1.6,2.4c-1.7,1.2-4.1,1.7-6.4,1.8c1.6,4.2,1.8,7.9,0.6,11c-0.5,1.3-1.6,2.2-2.9,2.4
					C151,172.3,150.7,172.3,150.4,172.3z"/>
			</g>
		</g>
		<g>
			<g>
				<path class="st1" d="M142.9,154.5c-1.1,0-2.2-0.4-2.9-1.3c-1.5-1.6-1.4-4.2,0.2-5.7c2.3-2.1,9.3-8.6,17.3-6
					c2.1,0.7,3.3,2.9,2.6,5c-0.7,2.1-2.9,3.3-5,2.6c-0.9-0.3-3.6-1.1-9.4,4.3C144.9,154.2,143.9,154.5,142.9,154.5z"/>
			</g>
		</g>
	</g>
	<g>
		<g>
			<path class="st54" d="M252.1,70.6c-0.6,4.9-2.6,8.6-5.5,11.2c-3.6,3.3-8.5,4.9-13.3,4.9c-1.4,0-2.9-0.5-4.5-1.2
				c-7.8-3.8-17.3-14.9-27.4-14.9c-12.2,0-20.6,16.2-35.2,16.1c-14.5,0-22-16.2-33.6-16.2c-11.6,0-23.4,16.2-38.1,16.1
				c-14.7,0-20-16.2-33.3-16.2c-13.3,0-23,16.2-33.3,16.1c-4.7,0-10-2.9-14.4-6c-5.4-3.8-9.5-8-9.5-8C16,68.1,23,62.3,22.2,54.4
				l211.1,0C233.4,63,239.9,68.3,252.1,70.6z"/>
		</g>
	</g>
	<g class="st2">
		<g>
			<path class="st1" d="M228.5,85.3l0,135.8c0,15-7.5,30.4-30.5,30.4l-30.4,0c-20,0-39.5,0-39.5,0c74.4,0,84.6-3.9,84.6-36.4
				l0-128.2c-3.6-2.2-7.4-3.8-11.2-3.8c-12.2,0-20.6,16.2-35.2,16.1c-14.5,0-22-16.2-33.6-16.2c-11.6,0-23.4,16.2-38.1,16.1
				c-14.7,0-20-16.2-33.3-16.2c-13.3,0-23,16.2-33.3,16.1l0-12.6c10.3,0,20-16.2,33.3-16.1c13.3,0,18.6,16.2,33.3,16.2
				c14.7,0,26.6-16.2,38.1-16.1c11.6,0,19.1,16.2,33.6,16.2c14.5,0,23-16.2,35.2-16.1c5.8,0,11.3,3.6,16.5,7.4
				C221.7,80.8,225.2,83.7,228.5,85.3z"/>
		</g>
	</g>
	<g>
		<g>
			<path class="st1" d="M233.3,90.7L233.3,90.7c-1.9,0-4-0.5-6.2-1.6c-3-1.5-6-3.7-9.2-6.2c-5.2-3.9-11.1-8.4-16.4-8.4
				c-4.5,0-8.7,3.1-13.6,6.8c-5.9,4.4-12.7,9.4-21.6,9.4c0,0,0,0,0,0c-9.1,0-15.5-5.1-21.3-9.6c-4.4-3.5-8.3-6.5-12.3-6.5
				c-4.3,0-9.3,3.3-14.6,6.7c-6.8,4.4-14.6,9.4-23.5,9.4h0c-9,0-14.9-5-20.1-9.3c-4.4-3.7-8.2-6.8-13.2-6.8c-5.7,0-11.1,4.1-16.4,8
				c-5.3,4-10.8,8.1-16.9,8.1c0,0,0,0,0,0C16.3,90.7,2.7,77,1.2,75.4c-0.9-1-1.3-2.3-1-3.6c0.3-1.3,1.2-2.4,2.5-2.9
				c10.9-4.2,16.1-8.9,15.6-14.1c-0.1-1.1,0.3-2.2,1-3.1c0.8-0.8,1.8-1.3,3-1.3l0,0l211.1,0c2.2,0,4,1.8,4,3.9
				c0.1,4,1.7,9.7,15.5,12.3c2.1,0.4,3.5,2.3,3.2,4.4C254.4,84.6,243.5,90.7,233.3,90.7z M201.4,66.6
				C201.4,66.6,201.4,66.6,201.4,66.6c8,0,15,5.3,21.2,10c2.9,2.2,5.6,4.2,7.9,5.3c1.4,0.7,2.2,0.8,2.7,0.8c5.3,0,11.6-2.5,14-9.1
				c-11.8-3.2-16.2-9.4-17.5-15.2L26,58.4c-1.2,6-6.1,11.2-14.8,15.5c5.1,4.3,12,8.8,16.7,8.8c3.5,0,7.7-3.2,12.1-6.5
				c6-4.5,12.8-9.6,21.2-9.6h0c7.9,0,13.4,4.6,18.3,8.7c4.8,4,8.9,7.4,15,7.4c6.6,0,13-4.1,19.2-8.2c6.3-4.1,12.3-8,19-8
				c0,0,0,0,0,0c6.8,0,12.2,4.2,17.3,8.2c5.2,4.1,10,7.9,16.3,7.9c6.3,0,11.4-3.8,16.8-7.8C188.6,70.8,194.3,66.6,201.4,66.6z"/>
		</g>
	</g>
	<g>
		<g>
			<path class="st54" d="M233.6,41.7l0-1.2l-211.1,0l0,1.2C9.4,30.3,14.5,4.4,38,4.4l180.2,0C241.6,4.4,246.7,30.3,233.6,41.7z"/>
		</g>
	</g>
	<g>
		<g>
			<rect x="22.5" y="40.5" class="st9" width="211.1" height="13.9"/>
		</g>
	</g>
	<g class="st2">
		<g>
			<rect x="23.5" y="54.4" class="st1" width="209.2" height="8.7"/>
		</g>
	</g>
	<g>
		<g>
			<path class="st1" d="M233.6,45.7c-0.6,0-1.1-0.1-1.7-0.4c-0.4-0.2-0.8-0.5-1.2-0.8l-205.4,0c-0.3,0.3-0.7,0.6-1.2,0.8
				c-1.4,0.7-3.1,0.4-4.3-0.6c-7.8-6.8-10.6-18.1-6.8-28.1C16.8,6.5,26.1,0.4,37.9,0.4c0,0,0,0,0,0l180.2,0c11.8,0,21.1,6,24.9,16.1
				c3.7,10.1,1,21.4-6.8,28.1C235.5,45.3,234.5,45.7,233.6,45.7z M23.1,36.5l210,0c3.6-4.6,4.7-11.3,2.5-17.1
				c-2.6-6.9-8.9-10.9-17.4-10.9L38,8.4c0,0,0,0,0,0c-8.5,0-14.8,4-17.4,10.9C18.4,25.2,19.5,31.8,23.1,36.5z"/>
		</g>
	</g>
	<g>
		<g>
			<path class="st1" d="M233.6,58.4L233.6,58.4l-211.1,0c-2.2,0-4-1.8-4-4V40.5c0-1.1,0.4-2.1,1.2-2.8c0.8-0.8,1.8-1.2,2.8-1.2l0,0
				l211.1,0c1.1,0,2.1,0.4,2.8,1.2c0.8,0.8,1.2,1.8,1.2,2.8l0,13.9C237.6,56.6,235.8,58.4,233.6,58.4z M26.5,50.4l203.1,0l0-5.9
				l-203.1,0V50.4z"/>
		</g>
	</g>
</g>
</svg>
