<?xml version="1.0" encoding="utf-8"?>
<!-- Generator: Adobe Illustrator 22.1.0, SVG Export Plug-In . SVG Version: 6.00 Build 0)  -->
<svg version="1.1" id="Layer_1" xmlns="http://www.w3.org/2000/svg" xmlns:xlink="http://www.w3.org/1999/xlink" x="0px" y="0px"
	 viewBox="0 0 256 256" style="enable-background:new 0 0 256 256;" xml:space="preserve">
<style type="text/css">
	.st0{fill:#F5B31F;}
	.st1{fill:#464646;}
	.st2{opacity:0.15;}
	.st3{fill:#AC6535;}
	.st4{fill:#EB573B;}
	.st5{fill:#90C056;}
	.st6{opacity:0.35;}
	.st7{fill:#FFFFFF;}
	.st8{opacity:0.2;}
	.st9{fill:#F6D67A;}
	.st10{opacity:0.3;}
	.st11{fill:#FFA755;}
	.st12{fill:#8FAE3C;}
	.st13{fill:#BE6BB2;}
	.st14{fill:#B7C536;}
	.st15{opacity:0.1;}
	.st16{fill:#9D5A96;}
	.st17{fill:#EA615D;}
	.st18{opacity:0.4;}
	.st19{fill:#F79932;}
	.st20{fill:#FFEC97;}
	.st21{fill:#FFD11D;}
	.st22{fill:#F7F2D5;}
	.st23{fill:#F6AF72;}
	.st24{fill:#BA6C45;}
	.st25{opacity:0.5;}
	.st26{fill:#E4C074;}
	.st27{fill:#656566;}
	.st28{fill:#FACD1F;}
	.st29{fill:#FFDF66;}
	.st30{fill:#6D6E71;}
	.st31{fill:#E77CAE;}
	.st32{fill:#FFE5C4;}
	.st33{fill:#F68455;}
	.st34{opacity:0.7;}
	.st35{fill:#ADEDFF;}
	.st36{fill:#EC754B;}
	.st37{fill:#4AA5BA;}
	.st38{opacity:0.8;}
	.st39{fill:#92A5AC;}
	.st40{fill:#D06E3C;}
	.st41{fill:#DA4F4B;}
	.st42{fill:#BDF3FF;}
	.st43{fill:#F18BB4;}
	.st44{fill:#F9D97A;}
	.st45{fill:none;}
	.st46{fill:#AF6535;}
	.st47{fill:#B93226;}
	.st48{fill:#FF6050;}
	.st49{fill:#EA7CB1;}
	.st50{fill:#00B0E0;}
	.st51{fill:#EA7DAE;}
	.st52{fill:#BC7532;}
	.st53{fill:#876C6C;}
	.st54{fill:#F9F6CD;}
	.st55{fill:#FFE37B;}
	.st56{fill:#1DDCFF;}
	.st57{fill:#60ACF7;}
	.st58{fill:#C3755A;}
	.st59{fill:#96557A;}
	.st60{fill:#66625D;}
	.st61{fill:#D68032;}
	.st62{fill:#F2A355;}
	.st63{fill:#7E9E6A;}
	.st64{fill:#965A85;}
	.st65{fill:#90CAD3;}
	.st66{fill:#94B57F;}
	.st67{fill:#B2E2E7;}
	.st68{fill:#FFDF8F;}
	.st69{fill:#FFFAEB;}
	.st70{fill:#F88916;}
	.st71{fill:#FFC86E;}
	.st72{fill:#AFA51D;}
	.st73{fill:#968A1C;}
	.st74{fill:#C3556D;}
</style>
<g>
	<g>
		<g>
			<g>
				<g>
					<g>
						<path class="st20" d="M4.1,209.6c56.7,56.7,148.6,56.7,205.2,0c56.7-56.7,56.7-148.7,0-205.5L4.1,209.6z M215.5,106.8
							c0,27.9-10.6,55.8-31.9,77s-49.1,31.9-77,31.9c-27.9,0-55.7-10.6-77-31.9L183.7,29.8C204.9,51.1,215.6,79,215.5,106.8z"/>
					</g>
				</g>
			</g>
		</g>
	</g>
	<g>
		<g>
			<g>
				<g>
					<g>
						<path class="st29" d="M183.7,29.8c21.3,21.3,31.9,49.2,31.9,77l-108.8,0L183.7,29.8z"/>
					</g>
				</g>
			</g>
		</g>
		<g>
			<g>
				<g>
					<g>
						<path class="st29" d="M106.7,106.8l0,109c-27.9,0-55.7-10.6-77-31.9L106.7,106.8z"/>
					</g>
				</g>
			</g>
		</g>
		<g>
			<g>
				<g>
					<g>
						<path class="st29" d="M106.7,106.8l77,77c-21.3,21.3-49.1,31.9-77,31.9L106.7,106.8z"/>
					</g>
				</g>
			</g>
		</g>
		<g>
			<g>
				<g>
					<g>
						<path class="st29" d="M215.5,106.8c0,27.9-10.6,55.8-31.9,77l-77-77L215.5,106.8z"/>
					</g>
				</g>
			</g>
		</g>
	</g>
	<g>
		<g>
			<g>
				<g>
					<path class="st1" d="M106.7,256.1C106.7,256.1,106.7,256.1,106.7,256.1c-39.8,0-77.3-15.5-105.5-43.7c-1.6-1.6-1.6-4.1,0-5.7
						L26.9,181c0.8-0.8,1.8-1.2,2.8-1.2s2.1,0.4,2.8,1.2c19.8,19.8,46.1,30.7,74.1,30.7c0,0,0,0,0,0c28,0,54.3-10.9,74.1-30.7
						c19.8-19.8,30.7-46.2,30.7-74.2c0-28-10.9-54.4-30.7-74.2c-1.6-1.6-1.6-4.1,0-5.7l25.7-25.7c0.8-0.8,1.8-1.2,2.8-1.2
						s2.1,0.4,2.8,1.2c58.1,58.2,58.1,152.9,0,211.1h0C184,240.6,146.5,256.1,106.7,256.1z M9.8,209.5
						c26.3,24.9,60.6,38.6,96.9,38.6c0,0,0,0,0,0c37.7,0,73.1-14.7,99.8-41.4h0c54.1-54.1,55-141.6,2.8-196.9l-20,20
						c19.6,21,30.3,48.2,30.3,77c0,30.2-11.7,58.5-33,79.9c-21.3,21.3-49.6,33.1-79.8,33.1c0,0,0,0,0,0c-28.8,0-56-10.7-76.9-30.3
						L9.8,209.5z M209.3,209.6L209.3,209.6L209.3,209.6z"/>
				</g>
			</g>
		</g>
	</g>
	<g>
		<g>
			<g>
				<g>
					<path class="st1" d="M106.7,219.8c-30.1,0-58.5-11.7-79.8-33.1c-1.6-1.6-1.6-4.1,0-5.7l77-77c1.1-1.1,2.9-1.5,4.4-0.9
						c1.5,0.6,2.5,2.1,2.5,3.7l0,109C110.7,218,108.9,219.8,106.7,219.8C106.7,219.8,106.7,219.8,106.7,219.8z M35.4,183.8
						c18.5,17.2,42.1,27,67.3,27.9l0-95.2L35.4,183.8z"/>
				</g>
			</g>
		</g>
	</g>
	<g>
		<g>
			<g>
				<g>
					<path class="st1" d="M106.7,219.8C106.7,219.8,106.7,219.8,106.7,219.8c-2.2,0-4-1.8-4-4l0-109c0-1.6,1-3.1,2.5-3.7
						c1.5-0.6,3.2-0.3,4.4,0.9l77,77c1.6,1.6,1.6,4.1,0,5.7C165.2,208,136.9,219.8,106.7,219.8z M110.7,116.5l0,95.2
						c25.2-0.9,48.8-10.7,67.3-27.9L110.7,116.5z"/>
				</g>
			</g>
		</g>
	</g>
	<g>
		<g>
			<g>
				<g>
					<path class="st1" d="M183.7,187.9L183.7,187.9c-1.1,0-2.1-0.4-2.8-1.2l-77-77c-1.1-1.1-1.5-2.9-0.9-4.4
						c0.6-1.5,2.1-2.5,3.7-2.5l0,0l108.8,0c2.2,0,4,1.8,4,4c0,30.2-11.7,58.5-33.1,79.9C185.7,187.5,184.7,187.9,183.7,187.9z
						 M116.4,110.8l67.3,67.3c17.1-18.5,26.9-42.1,27.9-67.3L116.4,110.8z"/>
				</g>
			</g>
		</g>
	</g>
	<g>
		<g>
			<g>
				<g>
					<path class="st1" d="M215.5,110.8L215.5,110.8l-108.8,0c-1.6,0-3.1-1-3.7-2.5s-0.3-3.2,0.9-4.4l77-77c0.8-0.8,1.8-1.2,2.8-1.2
						l0,0c1.1,0,2.1,0.4,2.8,1.2c21.3,21.3,33.1,49.7,33,79.9C219.5,109,217.8,110.8,215.5,110.8z M116.4,102.8l95.1,0
						c-0.9-25.2-10.7-48.8-27.9-67.3L116.4,102.8z"/>
				</g>
			</g>
		</g>
	</g>
	<g>
		<g>
			<g>
				<g>
					<path class="st1" d="M106.7,219.8c-30.1,0-58.5-11.7-79.8-33.1c-1.6-1.6-1.6-4.1,0-5.7l77-77c1.1-1.1,2.9-1.5,4.4-0.9
						c1.5,0.6,2.5,2.1,2.5,3.7l0,109C110.7,218,108.9,219.8,106.7,219.8C106.7,219.8,106.7,219.8,106.7,219.8z M35.4,183.8
						c18.5,17.2,42.1,27,67.3,27.9l0-95.2L35.4,183.8z"/>
				</g>
			</g>
		</g>
	</g>
	<g>
		<g>
			<g>
				<g>
					<path class="st1" d="M106.7,219.8C106.7,219.8,106.7,219.8,106.7,219.8c-2.2,0-4-1.8-4-4l0-109c0-1.6,1-3.1,2.5-3.7
						c1.5-0.6,3.2-0.3,4.4,0.9l77,77c1.6,1.6,1.6,4.1,0,5.7C165.2,208,136.9,219.8,106.7,219.8z M110.7,116.5l0,95.2
						c25.2-0.9,48.8-10.7,67.3-27.9L110.7,116.5z"/>
				</g>
			</g>
		</g>
	</g>
	<g>
		<g>
			<g>
				<g>
					<path class="st1" d="M183.7,187.9L183.7,187.9c-1.1,0-2.1-0.4-2.8-1.2l-77-77c-1.1-1.1-1.5-2.9-0.9-4.4
						c0.6-1.5,2.1-2.5,3.7-2.5l0,0l108.8,0c2.2,0,4,1.8,4,4c0,30.2-11.7,58.5-33.1,79.9C185.7,187.5,184.7,187.9,183.7,187.9z
						 M116.4,110.8l67.3,67.3c17.1-18.5,26.9-42.1,27.9-67.3L116.4,110.8z"/>
				</g>
			</g>
		</g>
	</g>
</g>
</svg>
