<?xml version="1.0" encoding="utf-8"?>
<!-- Generator: Adobe Illustrator 22.1.0, SVG Export Plug-In . SVG Version: 6.00 Build 0)  -->
<svg version="1.1" id="Layer_1" xmlns="http://www.w3.org/2000/svg" xmlns:xlink="http://www.w3.org/1999/xlink" x="0px" y="0px"
	 viewBox="0 0 256 256" style="enable-background:new 0 0 256 256;" xml:space="preserve">
<style type="text/css">
	.st0{fill:#F5B31F;}
	.st1{fill:#464646;}
	.st2{opacity:0.15;}
	.st3{fill:#AC6535;}
	.st4{fill:#EB573B;}
	.st5{fill:#90C056;}
	.st6{opacity:0.35;}
	.st7{fill:#FFFFFF;}
	.st8{opacity:0.2;}
	.st9{fill:#F6D67A;}
	.st10{opacity:0.3;}
	.st11{fill:#FFA755;}
	.st12{fill:#8FAE3C;}
	.st13{fill:#BE6BB2;}
	.st14{fill:#B7C536;}
	.st15{opacity:0.1;}
	.st16{fill:#9D5A96;}
	.st17{fill:#EA615D;}
	.st18{opacity:0.4;}
	.st19{fill:#F79932;}
	.st20{fill:#FFEC97;}
	.st21{fill:#FFD11D;}
	.st22{fill:#F7F2D5;}
	.st23{fill:#F6AF72;}
	.st24{fill:#BA6C45;}
	.st25{opacity:0.5;}
	.st26{fill:#E4C074;}
	.st27{fill:#656566;}
	.st28{fill:#FACD1F;}
	.st29{fill:#FFDF66;}
	.st30{fill:#6D6E71;}
	.st31{fill:#E77CAE;}
	.st32{fill:#FFE5C4;}
	.st33{fill:#F68455;}
	.st34{opacity:0.7;}
	.st35{fill:#ADEDFF;}
	.st36{fill:#EC754B;}
	.st37{fill:#4AA5BA;}
	.st38{opacity:0.8;}
	.st39{fill:#92A5AC;}
	.st40{fill:#D06E3C;}
	.st41{fill:#DA4F4B;}
	.st42{fill:#BDF3FF;}
	.st43{fill:#F18BB4;}
	.st44{fill:#F9D97A;}
	.st45{fill:none;}
	.st46{fill:#AF6535;}
	.st47{fill:#B93226;}
	.st48{fill:#FF6050;}
	.st49{fill:#EA7CB1;}
	.st50{fill:#00B0E0;}
	.st51{fill:#EA7DAE;}
	.st52{fill:#BC7532;}
	.st53{fill:#876C6C;}
	.st54{fill:#F9F6CD;}
	.st55{fill:#FFE37B;}
	.st56{fill:#1DDCFF;}
	.st57{fill:#60ACF7;}
	.st58{fill:#C3755A;}
	.st59{fill:#96557A;}
	.st60{fill:#66625D;}
	.st61{fill:#D68032;}
	.st62{fill:#F2A355;}
	.st63{fill:#7E9E6A;}
	.st64{fill:#965A85;}
	.st65{fill:#90CAD3;}
	.st66{fill:#94B57F;}
	.st67{fill:#B2E2E7;}
	.st68{fill:#FFDF8F;}
	.st69{fill:#FFFAEB;}
	.st70{fill:#F88916;}
	.st71{fill:#FFC86E;}
	.st72{fill:#AFA51D;}
	.st73{fill:#968A1C;}
	.st74{fill:#C3556D;}
</style>
<g>
	<g>
		<g>
			<g>
				<g>
					<path class="st20" d="M127.9,4.2C59.5,4.2,4,59.7,4,128.2c0,68.5,55.5,124,123.9,124c68.4,0,123.9-55.5,123.9-124
						S196.3,4.2,127.9,4.2z M193.6,193.9c-16.8,16.8-40,27.2-65.7,27.2S79,210.8,62.2,193.9C45.4,177.1,35,153.8,35,128.2
						s10.4-48.9,27.2-65.8c16.8-16.8,40-27.2,65.7-27.2c25.7,0,48.9,10.4,65.7,27.2c16.8,16.8,27.2,40.1,27.2,65.8
						S210.4,177.1,193.6,193.9z"/>
				</g>
			</g>
		</g>
	</g>
	<g>
		<g>
			<g>
				<path class="st29" d="M220.8,128.2l-92.9,0l65.7-65.8C210.4,79.2,220.8,102.5,220.8,128.2z"/>
			</g>
		</g>
	</g>
	<g>
		<g>
			<g>
				<path class="st29" d="M193.6,62.4l-65.7,65.8l0-93C153.5,35.2,176.8,45.6,193.6,62.4z"/>
			</g>
		</g>
	</g>
	<g>
		<g>
			<g>
				<path class="st29" d="M127.9,35.2l0,93L62.2,62.4C79,45.6,102.2,35.2,127.9,35.2z"/>
			</g>
		</g>
	</g>
	<g>
		<g>
			<g>
				<path class="st29" d="M127.9,128.2l-92.9,0c0-25.7,10.4-48.9,27.2-65.8L127.9,128.2z"/>
			</g>
		</g>
	</g>
	<g>
		<g>
			<g>
				<path class="st29" d="M127.9,128.2l-65.7,65.8C45.4,177.1,35,153.8,35,128.2L127.9,128.2z"/>
			</g>
		</g>
	</g>
	<g>
		<g>
			<g>
				<path class="st29" d="M127.9,128.2l0,93c-25.7,0-48.9-10.4-65.7-27.2L127.9,128.2z"/>
			</g>
		</g>
	</g>
	<g>
		<g>
			<g>
				<path class="st29" d="M193.6,193.9c-16.8,16.8-40,27.2-65.7,27.2l0-93L193.6,193.9z"/>
			</g>
		</g>
	</g>
	<g>
		<g>
			<g>
				<path class="st29" d="M220.8,128.2c0,25.7-10.4,48.9-27.2,65.8l-65.7-65.8L220.8,128.2z"/>
			</g>
		</g>
	</g>
	<g>
		<g>
			<g>
				<path class="st1" d="M127.9,256.2C127.9,256.2,127.9,256.2,127.9,256.2c-34.2,0-66.3-13.3-90.4-37.5C13.3,194.5,0,162.4,0,128.2
					s13.3-66.3,37.5-90.5C61.6,13.5,93.7,0.2,127.9,0.2c0,0,0,0,0,0l0,0c70.5,0,127.9,57.4,127.9,128c0,34.2-13.3,66.3-37.5,90.5
					C194.1,242.9,162,256.2,127.9,256.2z M127.9,8.2c-32,0-62.1,12.5-84.8,35.1C20.5,66,8,96.1,8,128.2c0,32.1,12.5,62.2,35.1,84.9
					c22.6,22.7,52.7,35.1,84.8,35.2c0,0,0,0,0,0c32,0,62.1-12.5,84.8-35.1c22.6-22.7,35.1-52.8,35.1-84.9
					C247.8,62,194,8.2,127.9,8.2C127.9,8.2,127.9,8.2,127.9,8.2z M127.9,225.2C127.9,225.2,127.9,225.2,127.9,225.2
					c-25.9,0-50.2-10.1-68.5-28.4C41,178.4,31,154.1,31,128.2c0-25.9,10.1-50.3,28.4-68.6c18.3-18.3,42.6-28.4,68.5-28.4
					c0,0,0,0,0,0c25.9,0,50.2,10.1,68.5,28.4c18.3,18.3,28.4,42.7,28.4,68.6c0,25.9-10.1,50.3-28.4,68.6
					C178.1,215.1,153.8,225.2,127.9,225.2z M127.9,39.2c-23.8,0-46.1,9.3-62.9,26.1C48.2,82,39,104.4,39,128.2
					c0,23.8,9.2,46.1,26,62.9c16.8,16.8,39.1,26.1,62.9,26.1c0,0,0,0,0,0c23.8,0,46.1-9.3,62.9-26.1c0,0,0,0,0,0
					c16.8-16.8,26-39.1,26-62.9c0-23.8-9.2-46.1-26-62.9C174,48.4,151.6,39.2,127.9,39.2z"/>
			</g>
		</g>
	</g>
	<g>
		<g>
			<g>
				<path class="st1" d="M220.8,132.2L220.8,132.2l-92.9,0c-1.6,0-3.1-1-3.7-2.5s-0.3-3.2,0.9-4.4l65.7-65.8
					c0.8-0.8,1.8-1.2,2.8-1.2c1.1,0,2.1,0.4,2.8,1.2c18.3,18.3,28.4,42.7,28.4,68.6c0,1.1-0.4,2.1-1.2,2.8S221.8,132.2,220.8,132.2z
					 M137.5,124.2l79.2,0c-0.9-20.9-9-40.6-23.2-56L137.5,124.2z"/>
			</g>
		</g>
	</g>
	<g>
		<g>
			<g>
				<path class="st1" d="M127.9,132.2c-0.5,0-1-0.1-1.5-0.3c-1.5-0.6-2.5-2.1-2.5-3.7l0-93c0-1.1,0.4-2.1,1.2-2.8
					c0.8-0.8,1.8-1.2,2.8-1.2l0,0c25.9,0,50.2,10.1,68.5,28.4c1.6,1.6,1.6,4.1,0,5.7L130.7,131C129.9,131.8,128.9,132.2,127.9,132.2
					z M131.9,39.3l0,79.2l56-56C172.4,48.3,152.8,40.2,131.9,39.3z"/>
			</g>
		</g>
	</g>
	<g>
		<g>
			<g>
				<path class="st1" d="M127.9,132.2c-1,0-2.1-0.4-2.8-1.2L59.4,65.2c-1.6-1.6-1.6-4.1,0-5.7c18.3-18.3,42.6-28.4,68.5-28.4
					c0,0,0,0,0,0c1.1,0,2.1,0.4,2.8,1.2c0.8,0.8,1.2,1.8,1.2,2.8l0,93c0,1.6-1,3.1-2.5,3.7C128.9,132.1,128.4,132.2,127.9,132.2z
					 M67.9,62.5l56,56l0-79.2C103,40.2,83.3,48.3,67.9,62.5z"/>
			</g>
		</g>
	</g>
	<g>
		<g>
			<g>
				<path class="st1" d="M127.9,132.2L127.9,132.2l-92.9,0c-2.2,0-4-1.8-4-4c0-25.9,10.1-50.3,28.4-68.6c0.8-0.8,1.8-1.2,2.8-1.2h0
					c1.1,0,2.1,0.4,2.8,1.2l65.7,65.8c1.1,1.1,1.5,2.9,0.9,4.4C130.9,131.2,129.5,132.2,127.9,132.2z M39.1,124.2l79.2,0l-56-56
					C48.1,83.6,40,103.2,39.1,124.2z"/>
			</g>
		</g>
	</g>
	<g>
		<g>
			<g>
				<path class="st1" d="M62.2,197.9c-1.1,0-2.1-0.4-2.8-1.2C41,178.4,31,154.1,31,128.2c0-2.2,1.8-4,4-4l0,0l92.9,0
					c1.6,0,3.1,1,3.7,2.5s0.3,3.2-0.9,4.4L65,196.8C64.3,197.5,63.2,197.9,62.2,197.9z M39.1,132.2c0.9,20.9,9,40.6,23.2,56l56-56
					L39.1,132.2z"/>
			</g>
		</g>
	</g>
	<g>
		<g>
			<g>
				<path class="st1" d="M127.9,225.2L127.9,225.2c-25.9,0-50.2-10.1-68.5-28.4c-1.6-1.6-1.6-4.1,0-5.7l65.7-65.8
					c1.1-1.1,2.9-1.5,4.4-0.9c1.5,0.6,2.5,2.1,2.5,3.7l0,93C131.9,223.4,130.1,225.2,127.9,225.2z M67.9,193.9
					c15.4,14.2,35.1,22.3,56,23.2l0-79.2L67.9,193.9z"/>
			</g>
		</g>
	</g>
	<g>
		<g>
			<g>
				<path class="st1" d="M127.9,225.2C127.9,225.2,127.9,225.2,127.9,225.2c-2.2,0-4-1.8-4-4l0-93c0-1.6,1-3.1,2.5-3.7
					c1.5-0.6,3.2-0.3,4.4,0.9l65.7,65.8c1.6,1.6,1.6,4.1,0,5.7C178.1,215.1,153.8,225.2,127.9,225.2z M131.9,137.8l0,79.2
					c20.9-0.9,40.5-9.1,56-23.2L131.9,137.8z"/>
			</g>
		</g>
	</g>
	<g>
		<g>
			<g>
				<path class="st1" d="M193.6,197.9L193.6,197.9c-1.1,0-2.1-0.4-2.8-1.2L125,131c-1.1-1.1-1.5-2.9-0.9-4.4
					c0.6-1.5,2.1-2.5,3.7-2.5l0,0l92.9,0c1.1,0,2.1,0.4,2.8,1.2c0.8,0.8,1.2,1.8,1.2,2.8c0,25.9-10.1,50.3-28.4,68.6
					C195.6,197.5,194.6,197.9,193.6,197.9z M137.5,132.2l56,56c14.1-15.5,22.3-35.1,23.2-56L137.5,132.2z"/>
			</g>
		</g>
	</g>
</g>
</svg>
