<?xml version="1.0" encoding="utf-8"?>
<!-- Generator: Adobe Illustrator 22.1.0, SVG Export Plug-In . SVG Version: 6.00 Build 0)  -->
<svg version="1.1" id="Layer_1" xmlns="http://www.w3.org/2000/svg" xmlns:xlink="http://www.w3.org/1999/xlink" x="0px" y="0px"
	 viewBox="0 0 256 256" style="enable-background:new 0 0 256 256;" xml:space="preserve">
<style type="text/css">
	.st0{fill:#F5B31F;}
	.st1{fill:#464646;}
	.st2{opacity:0.15;}
	.st3{fill:#AC6535;}
	.st4{fill:#EB573B;}
	.st5{fill:#90C056;}
	.st6{opacity:0.35;}
	.st7{fill:#FFFFFF;}
	.st8{opacity:0.2;}
	.st9{fill:#F6D67A;}
	.st10{opacity:0.3;}
	.st11{fill:#FFA755;}
	.st12{fill:#8FAE3C;}
	.st13{fill:#BE6BB2;}
	.st14{fill:#B7C536;}
	.st15{opacity:0.1;}
	.st16{fill:#9D5A96;}
	.st17{fill:#EA615D;}
	.st18{opacity:0.4;}
	.st19{fill:#F79932;}
	.st20{fill:#FFEC97;}
	.st21{fill:#FFD11D;}
	.st22{fill:#F7F2D5;}
	.st23{fill:#F6AF72;}
	.st24{fill:#BA6C45;}
	.st25{opacity:0.5;}
	.st26{fill:#E4C074;}
	.st27{fill:#656566;}
	.st28{fill:#FACD1F;}
	.st29{fill:#FFDF66;}
	.st30{fill:#6D6E71;}
	.st31{fill:#E77CAE;}
	.st32{fill:#FFE5C4;}
	.st33{fill:#F68455;}
	.st34{opacity:0.7;}
	.st35{fill:#ADEDFF;}
	.st36{fill:#EC754B;}
	.st37{fill:#4AA5BA;}
	.st38{opacity:0.8;}
	.st39{fill:#92A5AC;}
	.st40{fill:#D06E3C;}
	.st41{fill:#DA4F4B;}
	.st42{fill:#BDF3FF;}
	.st43{fill:#F18BB4;}
	.st44{fill:#F9D97A;}
	.st45{fill:none;}
	.st46{fill:#AF6535;}
	.st47{fill:#B93226;}
	.st48{fill:#FF6050;}
	.st49{fill:#EA7CB1;}
	.st50{fill:#00B0E0;}
	.st51{fill:#EA7DAE;}
	.st52{fill:#BC7532;}
	.st53{fill:#876C6C;}
	.st54{fill:#F9F6CD;}
	.st55{fill:#FFE37B;}
	.st56{fill:#1DDCFF;}
	.st57{fill:#60ACF7;}
	.st58{fill:#C3755A;}
	.st59{fill:#96557A;}
	.st60{fill:#66625D;}
	.st61{fill:#D68032;}
	.st62{fill:#F2A355;}
	.st63{fill:#7E9E6A;}
	.st64{fill:#965A85;}
	.st65{fill:#90CAD3;}
	.st66{fill:#94B57F;}
	.st67{fill:#B2E2E7;}
	.st68{fill:#FFDF8F;}
	.st69{fill:#FFFAEB;}
	.st70{fill:#F88916;}
	.st71{fill:#FFC86E;}
	.st72{fill:#AFA51D;}
	.st73{fill:#968A1C;}
	.st74{fill:#C3556D;}
</style>
<g>
	<g>
		<g>
			<polygon class="st50" points="179.5,108.8 179.5,223 73.1,223 73.1,79 76.8,80 99,86.2 99,197.3 154.4,197.3 154.4,101.8 
				175.3,107.6 			"/>
		</g>
	</g>
	<g class="st10">
		<g>
			<path class="st7" d="M99,86.2L76.8,80L73.1,79l0,144.1c0,0,5.2-119.7,9.9-126.1C87.7,90.6,99,86.2,99,86.2z"/>
		</g>
	</g>
	<g class="st8">
		<g>
			<path class="st1" d="M179.5,108.8l0,114.2l-106.4,0c0,0,85.3-3.6,94.8-12.5C177.4,201.7,179.5,108.8,179.5,108.8z"/>
		</g>
	</g>
	<g>
		<g>
			<polygon class="st50" points="185.8,247.2 69.8,247.2 73.1,223 179.5,223 			"/>
		</g>
	</g>
	<g class="st8">
		<g>
			<path class="st1" d="M179.5,223l6.3,24.1l-115.9,0c0,0,96.1-5.2,102.4-8.6C178.6,235.1,179.5,223,179.5,223z"/>
		</g>
	</g>
	<g>
		<g>
			<polygon class="st3" points="175.3,4.1 175.3,107.6 154.4,101.8 126.7,94 99,86.2 76.8,80 76.8,4.1 			"/>
		</g>
	</g>
	<g class="st8">
		<g>
			<polygon class="st1" points="175.3,98.6 175.3,107.6 154.4,101.8 126.7,94 99,86.2 76.8,80 76.8,70 			"/>
		</g>
	</g>
	<g class="st2">
		<g>
			<path class="st7" d="M175.3,4.1l-98.5,0l0,75.9c0,0-3-41.9,13.8-58S175.3,4.1,175.3,4.1z"/>
		</g>
	</g>
	<g>
		<g>
			<path class="st1" d="M154.4,39.5L154.4,39.5l-55.4,0c-2.2,0-4-1.8-4-4s1.8-4,4-4l0,0l55.4,0c2.2,0,4,1.8,4,4
				S156.7,39.5,154.4,39.5z"/>
		</g>
	</g>
	<g>
		<g>
			<path class="st1" d="M154.4,72.5L154.4,72.5l-55.4,0c-2.2,0-4-1.8-4-4s1.8-4,4-4l0,0l55.4,0c2.2,0,4,1.8,4,4
				S156.7,72.5,154.4,72.5z"/>
		</g>
	</g>
	<g>
		<g>
			<polygon class="st7" points="154.4,101.8 154.4,197.3 99,197.3 99,86.2 126.7,94 			"/>
		</g>
	</g>
	<g>
		<g>
			<path class="st1" d="M179.5,227L179.5,227l-106.4,0c-1.1,0-2.1-0.4-2.8-1.2c-0.8-0.8-1.2-1.8-1.2-2.8l0-144.1
				c0-1.3,0.6-2.4,1.6-3.2s2.3-1,3.5-0.7l26,7.3c1.7,0.5,2.9,2.1,2.9,3.9l0,107.1l47.4,0l0-91.6c0-1.3,0.6-2.4,1.6-3.2
				s2.3-1,3.5-0.7l25,7c1.7,0.5,2.9,2.1,2.9,3.8l0,114.2C183.5,225.3,181.7,227,179.5,227z M77.1,219l98.4,0l0-107.2l-17-4.8l0,90.3
				c0,1.1-0.4,2.1-1.2,2.8c-0.8,0.8-1.8,1.2-2.8,1.2l0,0l-55.4,0c-2.2,0-4-1.8-4-4l0-108.1l-18-5L77.1,219z"/>
		</g>
	</g>
	<g>
		<g>
			<path class="st1" d="M185.8,251.2L185.8,251.2l-115.9,0c-1.2,0-2.2-0.5-3-1.4c-0.8-0.9-1.1-2-1-3.2l3.2-24.1c0.3-2,2-3.5,4-3.5
				l0,0l106.4,0c1.8,0,3.4,1.2,3.9,3l6.3,24.1c0.3,1.2,0.1,2.5-0.7,3.5S187,251.2,185.8,251.2z M74.4,243.2l106.2,0l-4.2-16.1
				l-99.8,0L74.4,243.2z"/>
		</g>
	</g>
	<g>
		<g>
			<path class="st1" d="M175.3,111.6c-0.4,0-0.7,0-1.1-0.1L75.8,83.9c-1.7-0.5-2.9-2.1-2.9-3.9l0-75.9C72.8,3,73.3,2,74,1.2
				s1.8-1.2,2.8-1.2l0,0l98.5,0c1.1,0,2.1,0.4,2.8,1.2c0.8,0.8,1.2,1.8,1.2,2.8l0,103.6c0,1.3-0.6,2.4-1.6,3.2
				C177,111.4,176.2,111.6,175.3,111.6z M80.8,77l90.5,25.4l0-94.3l-90.5,0L80.8,77z"/>
		</g>
	</g>
	<g>
		<g>
			<path class="st1" d="M154.4,201.3L154.4,201.3l-55.4,0c-2.2,0-4-1.8-4-4l0-111.1c0-1.3,0.6-2.4,1.6-3.2c1-0.8,2.3-1,3.5-0.7
				l55.4,15.5c1.7,0.5,2.9,2.1,2.9,3.9l0,95.6c0,1.1-0.4,2.1-1.2,2.8C156.5,200.9,155.5,201.3,154.4,201.3z M103,193.3l47.4,0
				l0-88.5L103,91.5L103,193.3z"/>
		</g>
	</g>
	<g>
		<g>
			<path class="st1" d="M126.7,171.2L126.7,171.2c-2.2,0-4-1.8-4-4l0-73.3c0-2.2,1.8-4,4-4l0,0c2.2,0,4,1.8,4,4l0,73.3
				C130.7,169.4,128.9,171.2,126.7,171.2z"/>
		</g>
	</g>
	<g>
		<g>
			<path class="st1" d="M73.7,256.1c-2.2,0-4-1.8-4-4v-4.9c0-2.2,1.8-4,4-4s4,1.8,4,4v4.9C77.7,254.3,75.9,256.1,73.7,256.1z"/>
		</g>
	</g>
	<g>
		<g>
			<path class="st1" d="M95.2,256.1c-2.2,0-4-1.8-4-4v-4.9c0-2.2,1.8-4,4-4s4,1.8,4,4v4.9C99.2,254.3,97.4,256.1,95.2,256.1z"/>
		</g>
	</g>
	<g>
		<g>
			<path class="st1" d="M116.7,256.1c-2.2,0-4-1.8-4-4v-4.9c0-2.2,1.8-4,4-4s4,1.8,4,4v4.9C120.7,254.3,118.9,256.1,116.7,256.1z"/>
		</g>
	</g>
	<g>
		<g>
			<path class="st1" d="M138.2,256.1L138.2,256.1c-2.2,0-4-1.8-4-4l0-4.9c0-2.2,1.8-4,4-4c0,0,0,0,0,0c2.2,0,4,1.8,4,4l0,4.9
				C142.2,254.3,140.4,256.1,138.2,256.1z"/>
		</g>
	</g>
	<g>
		<g>
			<path class="st1" d="M159.7,256.1c-2.2,0-4-1.8-4-4v-4.9c0-2.2,1.8-4,4-4s4,1.8,4,4v4.9C163.7,254.3,161.9,256.1,159.7,256.1z"/>
		</g>
	</g>
	<g>
		<g>
			<path class="st1" d="M181.2,256.1c-2.2,0-4-1.8-4-4v-4.9c0-2.2,1.8-4,4-4s4,1.8,4,4v4.9C185.2,254.3,183.4,256.1,181.2,256.1z"/>
		</g>
	</g>
</g>
</svg>
