<?xml version="1.0" encoding="utf-8"?>
<!-- Generator: Adobe Illustrator 22.1.0, SVG Export Plug-In . SVG Version: 6.00 Build 0)  -->
<svg version="1.1" id="Layer_1" xmlns="http://www.w3.org/2000/svg" xmlns:xlink="http://www.w3.org/1999/xlink" x="0px" y="0px"
	 viewBox="0 0 256 256" style="enable-background:new 0 0 256 256;" xml:space="preserve">
<style type="text/css">
	.st0{fill:#F5B31F;}
	.st1{fill:#464646;}
	.st2{opacity:0.15;}
	.st3{fill:#AC6535;}
	.st4{fill:#EB573B;}
	.st5{fill:#90C056;}
	.st6{opacity:0.35;}
	.st7{fill:#FFFFFF;}
	.st8{opacity:0.2;}
	.st9{fill:#F6D67A;}
	.st10{opacity:0.3;}
	.st11{fill:#FFA755;}
	.st12{fill:#8FAE3C;}
	.st13{fill:#BE6BB2;}
	.st14{fill:#B7C536;}
	.st15{opacity:0.1;}
	.st16{fill:#9D5A96;}
	.st17{fill:#EA615D;}
	.st18{opacity:0.4;}
	.st19{fill:#F79932;}
	.st20{fill:#FFEC97;}
	.st21{fill:#FFD11D;}
	.st22{fill:#F7F2D5;}
	.st23{fill:#F6AF72;}
	.st24{fill:#BA6C45;}
	.st25{opacity:0.5;}
	.st26{fill:#E4C074;}
	.st27{fill:#656566;}
	.st28{fill:#FACD1F;}
	.st29{fill:#FFDF66;}
	.st30{fill:#6D6E71;}
	.st31{fill:#E77CAE;}
	.st32{fill:#FFE5C4;}
	.st33{fill:#F68455;}
	.st34{opacity:0.7;}
	.st35{fill:#ADEDFF;}
	.st36{fill:#EC754B;}
	.st37{fill:#4AA5BA;}
	.st38{opacity:0.8;}
	.st39{fill:#92A5AC;}
	.st40{fill:#D06E3C;}
	.st41{fill:#DA4F4B;}
	.st42{fill:#BDF3FF;}
	.st43{fill:#F18BB4;}
	.st44{fill:#F9D97A;}
	.st45{fill:none;}
	.st46{fill:#AF6535;}
	.st47{fill:#B93226;}
	.st48{fill:#FF6050;}
	.st49{fill:#EA7CB1;}
	.st50{fill:#00B0E0;}
	.st51{fill:#EA7DAE;}
	.st52{fill:#BC7532;}
	.st53{fill:#876C6C;}
	.st54{fill:#F9F6CD;}
	.st55{fill:#FFE37B;}
	.st56{fill:#1DDCFF;}
	.st57{fill:#60ACF7;}
	.st58{fill:#C3755A;}
	.st59{fill:#96557A;}
	.st60{fill:#66625D;}
	.st61{fill:#D68032;}
	.st62{fill:#F2A355;}
	.st63{fill:#7E9E6A;}
	.st64{fill:#965A85;}
	.st65{fill:#90CAD3;}
	.st66{fill:#94B57F;}
	.st67{fill:#B2E2E7;}
	.st68{fill:#FFDF8F;}
	.st69{fill:#FFFAEB;}
	.st70{fill:#F88916;}
	.st71{fill:#FFC86E;}
	.st72{fill:#AFA51D;}
	.st73{fill:#968A1C;}
	.st74{fill:#C3556D;}
</style>
<g>
	<g>
		<g>
			<g>
				<path class="st20" d="M195.1,18.6C205.7,29.1,214,41.2,220,54c8.5,18.3,12.4,38.2,11.6,58c-0.8,18.5-5.6,36.8-14.5,53.5
					c-5.7,10.7-13,20.7-22,29.6c-9,9-19,16.3-29.7,22c-16.7,8.9-35.1,13.7-53.5,14.5c-19.8,0.8-39.7-3-58-11.6
					c-12.9-6-24.9-14.3-35.5-24.9L195.1,18.6z"/>
			</g>
		</g>
	</g>
	<g>
		<g>
			<g>
				<path class="st0" d="M159.6,53.9c5.3,5.3,9.2,11.4,11.8,18.1c3.7,9.6,4.8,20.3,3.3,31.2c-1.4,10.2-5,20.4-10.7,30.1
					c-3.7,6.1-8.2,12-13.6,17.4c-5.4,5.4-11.3,9.9-17.4,13.6c-9.6,5.7-19.9,9.3-30.1,10.7c-10.9,1.5-21.6,0.4-31.2-3.3
					c-6.7-2.6-12.9-6.5-18.2-11.8L159.6,53.9z"/>
			</g>
		</g>
	</g>
	<g>
		<g>
			<g>
				<path class="st1" d="M106.6,235.7c-18.8,0-37.6-4.1-54.6-12.1c-13.6-6.3-25.9-15-36.6-25.7c-0.8-0.8-1.2-1.8-1.2-2.8
					s0.4-2.1,1.2-2.8L192.2,15.7c1.6-1.6,4.1-1.6,5.7,0c10.7,10.7,19.3,23,25.7,36.6c8.7,18.6,12.8,39.3,12,59.9
					c-0.8,19.3-6,38.4-15,55.2c-6,11.2-13.6,21.5-22.7,30.6c-9.1,9.1-19.4,16.7-30.6,22.7c-16.9,9-36,14.2-55.3,14.9
					C110.2,235.7,108.4,235.7,106.6,235.7z M24,195.1c9.4,8.8,19.9,15.9,31.5,21.3c17.4,8.1,36.9,12,56.2,11.2
					c18.1-0.7,36-5.6,51.8-14c10.5-5.6,20.2-12.7,28.7-21.3c8.5-8.5,15.7-18.2,21.3-28.7c8.5-15.8,13.3-33.7,14-51.8
					c0.8-19.3-3.1-38.7-11.2-56.1c-5.4-11.5-12.6-22.1-21.3-31.5L24,195.1z"/>
			</g>
		</g>
	</g>
	<g>
		<g>
			<g>
				<path class="st21" d="M209.4,4.2c12.3,12.3,22,26.3,28.9,41.2c9.9,21.3,14.4,44.4,13.5,67.4c-0.9,21.5-6.5,42.8-16.9,62.2
					c-6.6,12.4-15.1,24-25.6,34.4s-22.1,18.9-34.5,25.5c-19.5,10.3-40.8,16-62.2,16.8c-23,0.9-46.2-3.5-67.5-13.5
					c-14.9-7-28.9-16.6-41.2-28.9l14.3-14.3C28.9,205.7,40.9,214,53.8,220c18.3,8.5,38.3,12.4,58,11.6c18.5-0.8,36.8-5.6,53.5-14.5
					c10.7-5.7,20.7-13,29.7-22c9-9,16.3-19,22-29.6c8.9-16.7,13.8-35,14.5-53.5c0.8-19.8-3-39.7-11.6-58
					c-6-12.8-14.3-24.9-24.9-35.5L209.4,4.2z"/>
			</g>
		</g>
	</g>
	<g>
		<g>
			<g>
				<path class="st1" d="M106.7,256c-21.8,0-43.6-4.8-63.3-14c-15.7-7.3-30-17.3-42.4-29.7c-0.8-0.8-1.2-1.8-1.2-2.8
					s0.4-2.1,1.2-2.8l14.3-14.3c1.6-1.6,4.1-1.6,5.7,0c10.1,10,21.6,18.2,34.4,24.1c17.4,8.1,36.9,12,56.2,11.2
					c18.1-0.7,36-5.6,51.8-14c10.5-5.6,20.2-12.8,28.7-21.3c8.5-8.5,15.7-18.2,21.3-28.7c8.5-15.8,13.3-33.7,14-51.8
					c0.8-19.3-3.1-38.7-11.2-56.1c-6-12.7-14.1-24.3-24.1-34.3c-0.8-0.8-1.2-1.8-1.2-2.8s0.4-2.1,1.2-2.8l14.3-14.3
					c1.6-1.6,4.1-1.6,5.7,0C224.6,13.8,234.6,28,242,43.7c10,21.5,14.8,45.4,13.8,69.3c-0.9,22.3-6.9,44.4-17.3,63.9
					c-6.9,13-15.8,24.9-26.3,35.4c-10.5,10.5-22.4,19.3-35.4,26.2c-19.6,10.4-41.7,16.4-64,17.3C110.8,255.9,108.8,256,106.7,256z
					 M9.6,209.4c11,10.4,23.5,18.9,37.2,25.3c20.3,9.5,43,14,65.6,13.1c21.1-0.9,42-6.5,60.5-16.4c12.3-6.5,23.6-14.9,33.5-24.8
					c9.9-9.9,18.3-21.2,24.9-33.5c9.9-18.5,15.5-39.4,16.4-60.5c0.9-22.6-3.6-45.2-13.1-65.6c-6.4-13.7-14.9-26.2-25.4-37.2
					l-8.7,8.7c9.4,10,17.1,21.3,22.9,33.7c8.7,18.6,12.8,39.3,12,59.9c-0.8,19.3-6,38.4-15,55.2c-6,11.2-13.6,21.5-22.7,30.6
					c-9.1,9.1-19.4,16.7-30.6,22.7c-16.9,9-36,14.2-55.3,14.9c-20.6,0.9-41.3-3.3-59.9-12c-12.4-5.8-23.7-13.5-33.8-22.9L9.6,209.4z
					"/>
			</g>
		</g>
	</g>
	<g>
		<g>
			<g>
				<path class="st1" d="M93.8,179.6c-8.2,0-16.2-1.4-23.4-4.3c-7.4-2.9-14-7.2-19.5-12.7c-0.8-0.8-1.2-1.8-1.2-2.8s0.4-2.1,1.2-2.8
					l106-105.9c1.6-1.6,4.1-1.6,5.7,0c5.5,5.5,9.8,12.1,12.7,19.5c3.9,10.1,5.2,21.5,3.6,33.2c-1.5,10.8-5.3,21.7-11.2,31.6
					c-3.9,6.5-8.7,12.6-14.2,18.1c-5.5,5.5-11.6,10.3-18.2,14.2c-9.9,5.9-20.8,9.8-31.6,11.2C100.3,179.3,97,179.6,93.8,179.6z
					 M59.4,159.7c4.1,3.5,8.7,6.2,13.8,8.2c8.8,3.4,18.9,4.5,29.2,3.1c9.7-1.3,19.6-4.8,28.6-10.2c6-3.6,11.6-7.9,16.6-13
					c5-5,9.4-10.6,13-16.6c5.4-8.9,8.9-18.8,10.2-28.5c1.4-10.3,0.3-20.4-3.1-29.2c-2-5.1-4.7-9.7-8.2-13.8L59.4,159.7z"/>
			</g>
		</g>
	</g>
	<g>
		<g>
			<g>
				<g>
					<g>
						<path class="st1" d="M88.8,167.8L88.8,167.8c-2.2,0-4-1.8-4-4l0-13.4c0-2.2,1.8-4,4-4l0,0c2.2,0,4,1.8,4,4l0,13.4
							C92.8,166,91,167.8,88.8,167.8z"/>
					</g>
				</g>
			</g>
			<g>
				<g>
					<g>
						<path class="st1" d="M163.6,93h-13.4c-2.2,0-4-1.8-4-4s1.8-4,4-4h13.4c2.2,0,4,1.8,4,4S165.9,93,163.6,93z"/>
					</g>
				</g>
			</g>
		</g>
		<g>
			<g>
				<g>
					<g>
						<path class="st1" d="M107.9,164.7c-1.7,0-3.3-1.1-3.8-2.8l-3.9-12.8c-0.6-2.1,0.5-4.3,2.7-5c2.1-0.6,4.3,0.5,5,2.7l3.9,12.8
							c0.6,2.1-0.5,4.3-2.7,5C108.7,164.7,108.3,164.7,107.9,164.7z"/>
					</g>
				</g>
			</g>
			<g>
				<g>
					<g>
						<path class="st1" d="M160.6,112.2c-0.4,0-0.8-0.1-1.2-0.2l-12.9-3.9c-2.1-0.6-3.3-2.9-2.7-5c0.6-2.1,2.9-3.3,5-2.7l12.9,3.9
							c2.1,0.6,3.3,2.9,2.7,5C163.9,111,162.3,112.2,160.6,112.2z"/>
					</g>
				</g>
			</g>
		</g>
		<g>
			<g>
				<g>
					<g>
						<path class="st1" d="M125.7,157.3c-1.4,0-2.8-0.8-3.5-2.1l-6.4-11.8c-1-1.9-0.3-4.4,1.6-5.4c1.9-1,4.4-0.3,5.4,1.6l6.4,11.8
							c1,1.9,0.3,4.4-1.6,5.4C127,157.1,126.3,157.3,125.7,157.3z"/>
					</g>
				</g>
			</g>
			<g>
				<g>
					<g>
						<path class="st1" d="M153.1,129.9c-0.6,0-1.3-0.2-1.9-0.5l-11.8-6.4c-1.9-1-2.7-3.5-1.6-5.4c1-1.9,3.5-2.7,5.4-1.6l11.8,6.4
							c1.9,1,2.7,3.5,1.6,5.4C155.9,129.1,154.5,129.9,153.1,129.9z"/>
					</g>
				</g>
			</g>
		</g>
		<g>
			<g>
				<g>
					<path class="st1" d="M141.8,146.1c-1,0-2.1-0.4-2.9-1.2l-9.4-9.6c-1.5-1.6-1.5-4.1,0-5.7c1.6-1.5,4.1-1.5,5.7,0l9.4,9.6
						c1.5,1.6,1.5,4.1,0,5.7C143.8,145.7,142.8,146.1,141.8,146.1z"/>
				</g>
			</g>
		</g>
	</g>
	<g>
		<g>
			<g>
				<g>
					<path class="st1" d="M100,137.1c-0.1,0-0.2,0-0.3,0c-2.2-0.2-3.9-2.1-3.7-4.3l0.3-4.5c0.2-2.2,2.1-3.9,4.3-3.7
						c2.2,0.2,3.9,2.1,3.7,4.3l-0.3,4.5C103.8,135.5,102.1,137.1,100,137.1z"/>
				</g>
			</g>
		</g>
		<g>
			<g>
				<g>
					<path class="st1" d="M114,129.7c-1.6,0-3-0.9-3.7-2.4l-2-4.6c-0.9-2,0.1-4.4,2.1-5.3c2-0.9,4.4,0.1,5.3,2.1l2,4.6
						c0.9,2-0.1,4.4-2.1,5.3C115.1,129.6,114.5,129.7,114,129.7z"/>
				</g>
			</g>
		</g>
		<g>
			<g>
				<g>
					<path class="st1" d="M128.4,104.5c-2.1,0-3.8-1.6-4-3.7c-0.2-2.2,1.5-4.1,3.7-4.3l4.5-0.3c2.2-0.2,4.1,1.5,4.3,3.7
						c0.2,2.2-1.5,4.1-3.7,4.3l-4.5,0.3C128.6,104.5,128.5,104.5,128.4,104.5z"/>
				</g>
			</g>
		</g>
		<g>
			<g>
				<g>
					<path class="st1" d="M125.5,118.2c-0.5,0-1.1-0.1-1.6-0.3l-4.6-2c-2-0.9-3-3.2-2.1-5.3c0.9-2,3.2-3,5.3-2.1l4.6,2
						c2,0.9,3,3.2,2.1,5.3C128.5,117.3,127.1,118.2,125.5,118.2z"/>
				</g>
			</g>
		</g>
	</g>
</g>
</svg>
