<?xml version="1.0" encoding="utf-8"?>
<!-- Generator: Adobe Illustrator 22.1.0, SVG Export Plug-In . SVG Version: 6.00 Build 0)  -->
<svg version="1.1" id="Layer_1" xmlns="http://www.w3.org/2000/svg" xmlns:xlink="http://www.w3.org/1999/xlink" x="0px" y="0px"
	 viewBox="0 0 256 256" style="enable-background:new 0 0 256 256;" xml:space="preserve">
<style type="text/css">
	.st0{fill:#F5B31F;}
	.st1{fill:#464646;}
	.st2{opacity:0.15;}
	.st3{fill:#AC6535;}
	.st4{fill:#EB573B;}
	.st5{fill:#90C056;}
	.st6{opacity:0.35;}
	.st7{fill:#FFFFFF;}
	.st8{opacity:0.2;}
	.st9{fill:#F6D67A;}
	.st10{opacity:0.3;}
	.st11{fill:#FFA755;}
	.st12{fill:#8FAE3C;}
	.st13{fill:#BE6BB2;}
	.st14{fill:#B7C536;}
	.st15{opacity:0.1;}
	.st16{fill:#9D5A96;}
	.st17{fill:#EA615D;}
	.st18{opacity:0.4;}
	.st19{fill:#F79932;}
	.st20{fill:#FFEC97;}
	.st21{fill:#FFD11D;}
	.st22{fill:#F7F2D5;}
	.st23{fill:#F6AF72;}
	.st24{fill:#BA6C45;}
	.st25{opacity:0.5;}
	.st26{fill:#E4C074;}
	.st27{fill:#656566;}
	.st28{fill:#FACD1F;}
	.st29{fill:#FFDF66;}
	.st30{fill:#6D6E71;}
	.st31{fill:#E77CAE;}
	.st32{fill:#FFE5C4;}
	.st33{fill:#F68455;}
	.st34{opacity:0.7;}
	.st35{fill:#ADEDFF;}
	.st36{fill:#EC754B;}
	.st37{fill:#4AA5BA;}
	.st38{opacity:0.8;}
	.st39{fill:#92A5AC;}
	.st40{fill:#D06E3C;}
	.st41{fill:#DA4F4B;}
	.st42{fill:#BDF3FF;}
	.st43{fill:#F18BB4;}
	.st44{fill:#F9D97A;}
	.st45{fill:none;}
	.st46{fill:#AF6535;}
	.st47{fill:#B93226;}
	.st48{fill:#FF6050;}
	.st49{fill:#EA7CB1;}
	.st50{fill:#00B0E0;}
	.st51{fill:#EA7DAE;}
	.st52{fill:#BC7532;}
	.st53{fill:#876C6C;}
	.st54{fill:#F9F6CD;}
	.st55{fill:#FFE37B;}
	.st56{fill:#1DDCFF;}
	.st57{fill:#60ACF7;}
	.st58{fill:#C3755A;}
	.st59{fill:#96557A;}
	.st60{fill:#66625D;}
	.st61{fill:#D68032;}
	.st62{fill:#F2A355;}
	.st63{fill:#7E9E6A;}
	.st64{fill:#965A85;}
	.st65{fill:#90CAD3;}
	.st66{fill:#94B57F;}
	.st67{fill:#B2E2E7;}
	.st68{fill:#FFDF8F;}
	.st69{fill:#FFFAEB;}
	.st70{fill:#F88916;}
	.st71{fill:#FFC86E;}
	.st72{fill:#AFA51D;}
	.st73{fill:#968A1C;}
	.st74{fill:#C3556D;}
</style>
<g>
	<g>
		<g>
			<path class="st4" d="M117.7,7.6c-1.9,1.5-7,5.9-11.3,5.9c-4.3,0-9.6-5.9-9.6-5.9s-5.8,24.7-19.4,29.6C24.1,53.6,4.2,79.2,4.2,141
				c0,71,58.4,111,118.1,111c62.2,0,126.9-47.4,129.2-106.7c1.8-24.9-1.8-40.7-7.2-58.4c-6.4-25.2-44.6-42.3-49.6-44
				c-14.8-5.3-32.5-4.3-46.7-16.6C138.2,15.6,138.6,4,138.6,4s-5.4,0.6-10.5,0.3S119.7,6.1,117.7,7.6z"/>
		</g>
	</g>
	<g class="st2">
		<g>
			<path class="st7" d="M77.5,37.2C24.1,53.6,4.2,79.2,4.2,141c0,24.2,6.8,44.9,18.2,61.5c0,0-16.2-58,4.1-107.1
				S77.5,37.2,77.5,37.2z"/>
		</g>
	</g>
	<g class="st15">
		<g>
			<path d="M194.7,43c5,1.7,43.2,18.7,49.6,44c5.4,17.7,9,33.5,7.2,58.4c-2.3,59.3-67,106.7-129.2,106.7c-15,0-30-2.6-44-7.5
				c0,0,103-13.5,134.6-71.6S194.7,43,194.7,43z"/>
		</g>
	</g>
	<g>
		<g>
			<path class="st1" d="M122.2,256C122.2,256,122.2,256,122.2,256c-31.2,0-61.8-10.9-84-29.9C13.3,204.9,0.2,175.4,0.2,141
				c0-62.2,19.9-90.3,76.1-107.6C85.7,29.9,91.5,13,93,6.7c0.3-1.4,1.5-2.6,2.9-3c1.4-0.4,3,0.1,4,1.2c2,2.1,5.2,4.6,6.6,4.6
				c0,0,0,0,0,0c2.5,0,6.6-3.3,8.1-4.5c0.3-0.2,0.5-0.4,0.7-0.6c2.5-2,6.6-4.5,13-4.1c4.8,0.3,9.8-0.3,9.9-0.3
				c1.2-0.1,2.3,0.3,3.2,1c0.8,0.8,1.3,1.9,1.3,3.1c0,0.4-0.1,10,8.2,19.4c8.7,7.4,18.8,9.5,29.4,11.7c5.3,1.1,10.7,2.2,15.8,4
				c0.4,0.1,44.6,17.3,52.1,46.7c5,16.2,9.2,33.1,7.3,59.7c-1.2,29.2-16.7,57-43.7,78.5C186.2,244.4,153.5,256,122.2,256z
				 M98.9,14.7c-0.8,2.2-1.8,4.8-3,7.5c-4.6,10-10.4,16.3-17.1,18.7c-0.1,0-0.1,0-0.2,0.1C25.9,57.2,8.2,82.4,8.2,141
				c0,32,12.2,59.3,35.3,79.1c20.7,17.8,49.5,27.9,78.8,27.9c0,0,0,0,0,0c29.6,0,60.4-11,84.6-30.2c25.2-20,39.6-45.8,40.7-72.6
				c0,0,0-0.1,0-0.1c1.7-23.1-1.2-37.8-7-56.9c0-0.1,0-0.1-0.1-0.2c-5.7-22.5-40.8-39.1-47-41.2c-4.7-1.7-9.6-2.7-14.8-3.7
				c-11.3-2.3-22.9-4.7-33.2-13.6c-0.1-0.1-0.2-0.2-0.4-0.4c-7-7.8-9.3-15.9-10-20.7c-2,0.1-4.6,0.2-7.1,0c-3.6-0.2-5.8,1.1-7.6,2.5
				v0c-0.2,0.1-0.4,0.3-0.6,0.5c-2.7,2.2-7.8,6.2-13.1,6.2c0,0,0,0,0,0C103.8,17.5,101.1,16.2,98.9,14.7z M117.7,7.6L117.7,7.6
				L117.7,7.6z"/>
		</g>
	</g>
	<g>
		<g>
			<path class="st1" d="M67.9,220.8c-0.8,0-1.7-0.3-2.4-0.8c-20.6-15.3-34.3-35.9-40.8-61.3c-0.6-2.1,0.7-4.3,2.9-4.9
				c2.1-0.6,4.3,0.7,4.9,2.9c6.2,23.9,18.6,42.5,37.9,56.9c1.8,1.3,2.1,3.8,0.8,5.6C70.3,220.3,69.1,220.8,67.9,220.8z"/>
		</g>
	</g>
</g>
</svg>
