<?xml version="1.0" encoding="utf-8"?>
<!-- Generator: Adobe Illustrator 22.1.0, SVG Export Plug-In . SVG Version: 6.00 Build 0)  -->
<svg version="1.1" id="Layer_1" xmlns="http://www.w3.org/2000/svg" xmlns:xlink="http://www.w3.org/1999/xlink" x="0px" y="0px"
	 viewBox="0 0 256 256" style="enable-background:new 0 0 256 256;" xml:space="preserve">
<style type="text/css">
	.st0{fill:#F5B31F;}
	.st1{fill:#464646;}
	.st2{opacity:0.15;}
	.st3{fill:#AC6535;}
	.st4{fill:#EB573B;}
	.st5{fill:#90C056;}
	.st6{opacity:0.35;}
	.st7{fill:#FFFFFF;}
	.st8{opacity:0.2;}
	.st9{fill:#F6D67A;}
	.st10{opacity:0.3;}
	.st11{fill:#FFA755;}
	.st12{fill:#8FAE3C;}
	.st13{fill:#BE6BB2;}
	.st14{fill:#B7C536;}
	.st15{opacity:0.1;}
	.st16{fill:#9D5A96;}
	.st17{fill:#EA615D;}
	.st18{opacity:0.4;}
	.st19{fill:#F79932;}
	.st20{fill:#FFEC97;}
	.st21{fill:#FFD11D;}
	.st22{fill:#F7F2D5;}
	.st23{fill:#F6AF72;}
	.st24{fill:#BA6C45;}
	.st25{opacity:0.5;}
	.st26{fill:#E4C074;}
	.st27{fill:#656566;}
	.st28{fill:#FACD1F;}
	.st29{fill:#FFDF66;}
	.st30{fill:#6D6E71;}
	.st31{fill:#E77CAE;}
	.st32{fill:#FFE5C4;}
	.st33{fill:#F68455;}
	.st34{opacity:0.7;}
	.st35{fill:#ADEDFF;}
	.st36{fill:#EC754B;}
	.st37{fill:#4AA5BA;}
	.st38{opacity:0.8;}
	.st39{fill:#92A5AC;}
	.st40{fill:#D06E3C;}
	.st41{fill:#DA4F4B;}
	.st42{fill:#BDF3FF;}
	.st43{fill:#F18BB4;}
	.st44{fill:#F9D97A;}
	.st45{fill:none;}
	.st46{fill:#AF6535;}
	.st47{fill:#B93226;}
	.st48{fill:#FF6050;}
	.st49{fill:#EA7CB1;}
	.st50{fill:#00B0E0;}
	.st51{fill:#EA7DAE;}
	.st52{fill:#BC7532;}
	.st53{fill:#876C6C;}
	.st54{fill:#F9F6CD;}
	.st55{fill:#FFE37B;}
	.st56{fill:#1DDCFF;}
	.st57{fill:#60ACF7;}
	.st58{fill:#C3755A;}
	.st59{fill:#96557A;}
	.st60{fill:#66625D;}
	.st61{fill:#D68032;}
	.st62{fill:#F2A355;}
	.st63{fill:#7E9E6A;}
	.st64{fill:#965A85;}
	.st65{fill:#90CAD3;}
	.st66{fill:#94B57F;}
	.st67{fill:#B2E2E7;}
	.st68{fill:#FFDF8F;}
	.st69{fill:#FFFAEB;}
	.st70{fill:#F88916;}
	.st71{fill:#FFC86E;}
	.st72{fill:#AFA51D;}
	.st73{fill:#968A1C;}
	.st74{fill:#C3556D;}
</style>
<g>
	<g>
		<g>
			<path class="st3" d="M159.4,169.3C173.7,100,92.3,51.8,50.1,75.4c0,0,31.1-23.7,64.8-46.3c48.9-31.4,117.3,13.5,126.7,74.3
				L159.4,169.3z"/>
		</g>
	</g>
	<g class="st2">
		<g>
			<path class="st1" d="M226.5,64.5c7.5,11.6,12.9,24.9,15.1,39l-82.2,65.9c0,0,46.4-47.1,57.5-65.3
				C227.9,85.9,226.5,64.5,226.5,64.5z"/>
		</g>
	</g>
	<g class="st2">
		<g>
			<path class="st7" d="M156.3,19.1c-14.2-1.2-28.4,1.7-41.4,10C81.2,51.7,50.1,75.4,50.1,75.4c16.1-9,37.9-7.6,58,1.6
				c0,0-12.8-10.4-8.3-21.2S156.3,19.1,156.3,19.1z"/>
		</g>
	</g>
	<g>
		<g>
			<path class="st9" d="M144,218.6c-1.9,1.2-3.9,2.3-5.8,3.4c-16.3,8.9-37.4,15-58.7,15C38.8,237,4,204.2,4,163.9S21.7,97,50.1,75.4
				c42.2-23.6,123.6,24.6,109.3,93.9C176.9,184.2,166.5,204.2,144,218.6z"/>
		</g>
	</g>
	<g class="st10">
		<g>
			<path class="st7" d="M103.2,74.9c-18.6-7.2-38.3-7.8-53.1,0.5C21.7,97,4,123.6,4,163.9c0,23.5,11.8,44.4,29.6,57.7
				c0,0-27.8-54.5-5.7-100.4S103.2,74.9,103.2,74.9z"/>
		</g>
	</g>
	<g>
		<g>
			<path class="st3" d="M249.8,129.8c-26.1,35.9-63.8,63.8-105.8,88.8c22.6-14.4,33-34.4,15.4-49.3l82.2-65.9
				C250.8,109.7,254.9,117.9,249.8,129.8z"/>
		</g>
	</g>
	<g class="st2">
		<g>
			<path class="st1" d="M241.6,103.4c9.2,6.2,13.3,14.5,8.2,26.4c-26.1,35.9-63.8,63.8-105.8,88.8c0,0,87.8-70.1,92.7-88.8
				C241.6,111.1,241.6,103.4,241.6,103.4z"/>
		</g>
	</g>
	<g>
		<g>
			<path class="st1" d="M159.4,173.3c-0.7,0-1.4-0.2-2.1-0.6c-1.4-0.9-2.2-2.6-1.8-4.2c6.1-29.6-6.1-58.9-32.6-78.3
				C99.3,72.9,70.8,68.4,52.1,78.9c-1.8,1-4.1,0.5-5.3-1.3c-1.2-1.8-0.8-4.1,0.9-5.4c0.3-0.2,31.6-24.1,65-46.4
				c21-13.5,46.4-14.6,71.5-3.3c31.9,14.4,56,45.9,61.4,80.3c0.2,1.4-0.3,2.8-1.5,3.7l-82.2,65.9C161.2,173,160.3,173.3,159.4,173.3
				z M75.2,65.3c17,0,35.9,6.3,52.4,18.4c26.1,19.1,39.5,47,37.2,76.1l72.5-58.1c-5.6-30.9-27.5-59-56.4-72
				c-22.6-10.2-45.2-9.2-63.8,2.7C99.3,44.3,82.2,56.6,70,65.6C71.7,65.4,73.5,65.3,75.2,65.3z"/>
		</g>
	</g>
	<g>
		<g>
			<path class="st1" d="M88.5,218C88.5,218,88.5,218,88.5,218c-17.1,0-31.9-6.3-42.8-18.3c-8.6-9.5-14.6-22.5-16.3-35.8
				c-1.8-13.2,2.1-32.9,14.7-47.3c9.9-11.3,23.3-17.2,39-17.2c0,0,0,0,0,0c14.6,0,26.3,4.4,34.7,13.1c13.3,13.7,13.7,33.1,13.6,38.7
				c-0.5,16.7-15.1,34.9-35.1,34.4C75.4,185,65.9,171,63.9,158.1c-1.5-9.5,5.7-17.9,13.4-20.5c7.7-2.6,15.1,0.3,19.1,7.6
				c1.1,1.9,0.4,4.4-1.6,5.4c-1.9,1.1-4.4,0.4-5.4-1.6c-2.8-5-6.7-4.9-9.5-3.9c-4.5,1.5-8.9,6.5-8.1,11.7
				c1.9,12.6,11.2,20.3,24.7,20.7c14.9,0.4,26.5-13.7,26.9-26.6c0.3-9.9-2.5-23.7-11.3-32.9c-6.9-7.1-16.6-10.7-29-10.7c0,0,0,0,0,0
				c-13.4,0-24.5,4.9-32.9,14.5c-11,12.5-14.3,29.6-12.8,41c2.3,17.5,15.7,47.2,51.2,47.2c38.7,0,67.3-42.5,67.5-42.9
				c1.2-1.8,3.7-2.3,5.5-1.1c1.8,1.2,2.3,3.7,1.1,5.5c-0.3,0.5-7.8,11.8-20.6,23.2C124.9,210,106.4,218,88.5,218z"/>
		</g>
	</g>
	<g>
		<g>
			<path class="st1" d="M79.5,241C79.5,241,79.5,241,79.5,241c-20.8,0-40.6-8-55.8-22.5C8.4,203.8,0,184.4,0,163.9
				C0,126.1,15.2,97,47.7,72.2c0.1-0.1,0.3-0.2,0.5-0.3c21.4-12,53.4-7.2,79.4,11.9c28.4,20.8,41.8,52.1,36.1,84.1
				c6,5.8,8.9,12.7,8.4,20.1c-0.8,11.8-10.1,23.9-26,34c0,0-0.1,0-0.1,0.1c-1.9,1.2-3.9,2.3-5.8,3.5C122.1,235.3,100.1,241,79.5,241
				z M52.3,78.7C21.7,102.2,8,128.4,8,163.9c0,18.3,7.5,35.6,21.2,48.8C42.9,225.8,60.7,233,79.5,233c0,0,0,0,0,0
				c19.3,0,40-5.3,56.8-14.5c1.8-1.1,3.7-2.2,5.6-3.3c13.6-8.7,21.7-18.8,22.3-27.8c0.4-5.5-2.1-10.5-7.4-15
				c-1.1-0.9-1.6-2.4-1.3-3.9c6.1-29.6-6.1-58.9-32.6-78.3C99.4,73,71.1,68.4,52.3,78.7z M144,218.6L144,218.6L144,218.6z"/>
		</g>
	</g>
	<g>
		<g>
			<path class="st1" d="M138.2,226c-1.4,0-2.8-0.8-3.5-2.1c-1.1-1.9-0.4-4.4,1.6-5.4c2-1.1,3.9-2.2,5.6-3.3c1.9-1.2,4.3-0.6,5.5,1.2
				c1.2,1.9,0.6,4.3-1.2,5.5c-1.9,1.2-3.9,2.4-6,3.6C139.5,225.8,138.8,226,138.2,226z"/>
		</g>
	</g>
	<g>
		<g>
			<path class="st1" d="M137.9,226.1c-1.4,0-2.7-0.7-3.5-2c-1.1-1.9-0.4-4.4,1.5-5.5l0.2-0.1c1.9-1.1,4.4-0.4,5.5,1.5
				c1.1,1.9,0.4,4.4-1.5,5.4l-0.2,0.1C139.3,226,138.6,226.1,137.9,226.1z"/>
		</g>
	</g>
	<g>
		<g>
			<path class="st1" d="M144,222.6c-1.3,0-2.7-0.7-3.4-1.9c-1.1-1.9-0.6-4.3,1.3-5.5c13.6-8.7,21.7-18.8,22.4-27.8
				c0.4-5.5-2.1-10.5-7.4-15c-0.9-0.8-1.4-1.9-1.4-3.1s0.6-2.3,1.5-3.1l82.2-65.9c1.4-1.1,3.3-1.2,4.7-0.2
				c11.9,8,15.1,18.5,9.6,31.3c-0.1,0.3-0.3,0.5-0.4,0.8c-23,31.5-57,60.1-107,89.8C145.4,222.4,144.7,222.6,144,222.6z
				 M165.4,169.6c4.9,5.4,7.2,11.7,6.7,18.3c-0.2,3.2-1.1,6.5-2.6,9.8c34.1-22.9,58.9-45.5,76.7-69.9c3.3-8,1.9-14.1-4.6-19.4
				L165.4,169.6z M249.8,129.8L249.8,129.8L249.8,129.8z"/>
		</g>
	</g>
	<g>
		<g>
			<path class="st1" d="M181.7,126.9c-1.8,0-3.4-1.2-3.9-3.1c-11.2-46.6-49.1-58-67.3-63.5c-7.4-2.2-10.8-3.2-11.9-6.4
				c-0.5-1.5-0.3-3.1,0.7-4.5c5.5-7.9,18.3-10.9,34.1-7.9c25.7,4.8,55.3,24.6,63.6,57.8c1.3,3,4.1,4.9,6.3,4.3
				c1-0.3,1.7-0.8,2.2-1.7c0.9-1.8,1.7-6.4-2.5-18c-6.2-16.7-25-33.7-54.4-49.1c-2-1-2.7-3.4-1.7-5.4c1-2,3.4-2.7,5.4-1.7
				c31.1,16.4,51.2,34.9,58.1,53.4c4.1,11.1,4.9,19.1,2.2,24.4c-1.5,2.9-3.9,4.9-7.1,5.8c-6.2,1.8-13.3-2.3-16-9.3
				c-0.1-0.2-0.1-0.3-0.2-0.5c-7.3-29.9-34.1-47.7-57.4-52.1c-9.8-1.9-18.4-1.1-23.2,2c1.3,0.4,2.7,0.8,4.1,1.3
				c18.1,5.4,60.5,18.2,72.7,69.3c0.5,2.1-0.8,4.3-3,4.8C182.3,126.8,182,126.9,181.7,126.9z"/>
		</g>
	</g>
</g>
</svg>
