<?xml version="1.0" encoding="utf-8"?>
<!-- Generator: Adobe Illustrator 22.1.0, SVG Export Plug-In . SVG Version: 6.00 Build 0)  -->
<svg version="1.1" id="Layer_1" xmlns="http://www.w3.org/2000/svg" xmlns:xlink="http://www.w3.org/1999/xlink" x="0px" y="0px"
	 viewBox="0 0 256 256" style="enable-background:new 0 0 256 256;" xml:space="preserve">
<style type="text/css">
	.st0{fill:#F5B31F;}
	.st1{fill:#464646;}
	.st2{opacity:0.15;}
	.st3{fill:#AC6535;}
	.st4{fill:#EB573B;}
	.st5{fill:#90C056;}
	.st6{opacity:0.35;}
	.st7{fill:#FFFFFF;}
	.st8{opacity:0.2;}
	.st9{fill:#F6D67A;}
	.st10{opacity:0.3;}
	.st11{fill:#FFA755;}
	.st12{fill:#8FAE3C;}
	.st13{fill:#BE6BB2;}
	.st14{fill:#B7C536;}
	.st15{opacity:0.1;}
	.st16{fill:#9D5A96;}
	.st17{fill:#EA615D;}
	.st18{opacity:0.4;}
	.st19{fill:#F79932;}
	.st20{fill:#FFEC97;}
	.st21{fill:#FFD11D;}
	.st22{fill:#F7F2D5;}
	.st23{fill:#F6AF72;}
	.st24{fill:#BA6C45;}
	.st25{opacity:0.5;}
	.st26{fill:#E4C074;}
	.st27{fill:#656566;}
	.st28{fill:#FACD1F;}
	.st29{fill:#FFDF66;}
	.st30{fill:#6D6E71;}
	.st31{fill:#E77CAE;}
	.st32{fill:#FFE5C4;}
	.st33{fill:#F68455;}
	.st34{opacity:0.7;}
	.st35{fill:#ADEDFF;}
	.st36{fill:#EC754B;}
	.st37{fill:#4AA5BA;}
	.st38{opacity:0.8;}
	.st39{fill:#92A5AC;}
	.st40{fill:#D06E3C;}
	.st41{fill:#DA4F4B;}
	.st42{fill:#BDF3FF;}
	.st43{fill:#F18BB4;}
	.st44{fill:#F9D97A;}
	.st45{fill:none;}
	.st46{fill:#AF6535;}
	.st47{fill:#B93226;}
	.st48{fill:#FF6050;}
	.st49{fill:#EA7CB1;}
	.st50{fill:#00B0E0;}
	.st51{fill:#EA7DAE;}
	.st52{fill:#BC7532;}
	.st53{fill:#876C6C;}
	.st54{fill:#F9F6CD;}
	.st55{fill:#FFE37B;}
	.st56{fill:#1DDCFF;}
	.st57{fill:#60ACF7;}
	.st58{fill:#C3755A;}
	.st59{fill:#96557A;}
	.st60{fill:#66625D;}
	.st61{fill:#D68032;}
	.st62{fill:#F2A355;}
	.st63{fill:#7E9E6A;}
	.st64{fill:#965A85;}
	.st65{fill:#90CAD3;}
	.st66{fill:#94B57F;}
	.st67{fill:#B2E2E7;}
	.st68{fill:#FFDF8F;}
	.st69{fill:#FFFAEB;}
	.st70{fill:#F88916;}
	.st71{fill:#FFC86E;}
	.st72{fill:#AFA51D;}
	.st73{fill:#968A1C;}
	.st74{fill:#C3556D;}
</style>
<g>
	<g>
		<g>
			<path class="st5" d="M236.2,86.2c2.5-9.7,1.7-19.4-2.6-27.3h0c-1.4-2.5-3.1-4.8-5.1-6.9c-6.3-6.3-14.8-9.2-23.9-9.1
				c0-4.9-1.1-9.5-3.4-13.6c-1.1-1.9-2.4-3.7-4-5.3c-9.3-9.3-24.8-9.7-38.2-2c-0.1-0.7-0.1-1.4-0.2-2.1c5.7-4.7,18.9-15,22.8-14.8
				c5.2,0.3,2.7,6.2,6,7.7c3.3,1.5,11.1-8.7,14.1-6.8c3.1,1.8,2.8,14.7,6.5,16c3.7,1.3,15.3-12.9,22.1-6.1c6.8,6.8-3.3,15.1-1,18.3
				c2.2,3.3,17.1-1.7,20.6,2.6c3.5,4.3-4,15.6-4.1,21.4c-0.1,5.8,6.3,8.6,6.3,8.6L236.2,86.2z"/>
		</g>
	</g>
	<g>
		<g>
			<path class="st1" d="M236.2,90.2c-0.6,0-1.2-0.1-1.8-0.4c-1.7-0.9-2.5-2.7-2.1-4.6c2.3-8.8,1.5-17.4-2.1-24.1
				c0-0.1-0.1-0.1-0.1-0.2c-1.2-2.2-2.7-4.2-4.4-6c-5.2-5.2-12.3-7.9-20.4-7.9c-0.2,0-0.4,0-0.5,0c-1.1,0-2.1-0.4-2.9-1.1
				c-0.8-0.7-1.2-1.8-1.2-2.8c0-4.4-1-8.3-2.9-11.7c-0.9-1.6-2-3.1-3.3-4.4c-7.8-7.8-21.2-8.3-33.4-1.3c-1.2,0.7-2.6,0.7-3.8,0.1
				c-1.2-0.6-2-1.8-2.1-3.2l-0.2-2.1c-0.1-1.3,0.4-2.6,1.5-3.5c19.6-16,23.8-15.8,25.6-15.7c5.9,0.4,7,5.1,7.5,7.2
				c0.9-0.6,2-1.5,2.8-2.1c3.6-2.8,7.7-6,11.6-3.6c3,1.7,3.8,5.7,4.8,10.2c0.3,1.4,0.7,3.4,1.2,4.7c0.9-0.5,2-1.2,2.8-1.8
				c5.2-3.4,13.9-9.2,20.6-2.6c6.2,6.2,2.8,13.4,1,17.3c-0.1,0.3-0.3,0.7-0.5,1l0,0c1.3,0,3-0.1,4.3-0.2c5.9-0.4,11.9-0.8,15.1,3.1
				c3.5,4.4,1.2,10.7-1.1,16.8c-1,2.6-2.1,5.6-2.1,7.2c-0.1,3,3.8,4.8,3.9,4.8c1.2,0.5,2,1.5,2.3,2.7c0.3,1.2,0,2.5-0.8,3.5
				l-15.8,19.2C238.5,89.7,237.4,90.2,236.2,90.2z M237,56.8c0,0.1,0.1,0.2,0.1,0.2c2.7,4.9,4.2,10.5,4.4,16.4l4.5-5.5
				c-2.4-2.2-4.5-5.4-4.4-9.5c0.1-2.9,1.3-6.3,2.6-9.8c0.9-2.5,2.8-7.5,2.3-9c-1.3-0.7-5.8-0.4-8.3-0.2c-5.4,0.4-10.1,0.7-12.4-2.7
				c-2.2-3.1-0.5-6.7,0.9-9.5c2.1-4.5,2.5-6.4,0.6-8.2c-1.9-1.9-5.9,0.5-10.5,3.6c-3.8,2.5-6.8,4.5-10,3.4
				c-4.1-1.4-5.2-6.5-6.2-11.4c-0.2-1.1-0.6-2.7-0.9-3.9c-0.9,0.6-2,1.4-2.7,2c-1.5,1.2-3.1,2.4-4.6,3.2c2.8,1.4,5.3,3.2,7.6,5.4
				c1.8,1.8,3.4,3.9,4.7,6.1c2,3.5,3.2,7.4,3.7,11.7c8.9,0.7,17,4.2,22.9,10.2C233.6,51.5,235.5,54,237,56.8z M246.8,39.7
				L246.8,39.7L246.8,39.7z M178.2,12.7c1.4,0,2.8,0.1,4.2,0.2c-0.4-1-0.6-1.9-0.8-2.7c-0.1-0.3-0.2-0.7-0.2-1
				c-0.9,0.2-3,1.3-6.4,3.6C176,12.8,177.1,12.7,178.2,12.7z"/>
		</g>
	</g>
	<g>
		<g>
			<path class="st1" d="M236.2,90.2c-0.6,0-1.2-0.1-1.8-0.4c-1.7-0.9-2.5-2.7-2.1-4.6c2.3-8.8,1.5-17.4-2.1-24.1
				c0-0.1-0.1-0.1-0.1-0.2c-1.2-2.2-2.7-4.2-4.4-6c-5.2-5.2-12.3-7.9-20.4-7.9c-0.2,0-0.4,0-0.5,0c-1.1,0-2.1-0.4-2.9-1.1
				c-0.8-0.7-1.2-1.8-1.2-2.8c0-4.4-1-8.3-2.9-11.7c-0.9-1.6-2-3.1-3.3-4.4c-7.8-7.8-21.2-8.3-33.4-1.3c-1.2,0.7-2.6,0.7-3.8,0.1
				c-1.2-0.6-2-1.8-2.1-3.2l-0.2-2.1c-0.1-1.3,0.4-2.6,1.5-3.5c19.6-16,23.8-15.8,25.6-15.7c5.9,0.4,7,5.1,7.5,7.2
				c0.9-0.6,2-1.5,2.8-2.1c3.6-2.8,7.7-6,11.6-3.6c3,1.7,3.8,5.7,4.8,10.2c0.3,1.4,0.7,3.4,1.2,4.7c0.9-0.5,2-1.2,2.8-1.8
				c5.2-3.4,13.9-9.2,20.6-2.6c6.2,6.2,2.8,13.4,1,17.3c-0.1,0.3-0.3,0.7-0.5,1l0,0c1.3,0,3-0.1,4.3-0.2c5.9-0.4,11.9-0.8,15.1,3.1
				c3.5,4.4,1.2,10.7-1.1,16.8c-1,2.6-2.1,5.6-2.1,7.2c-0.1,3,3.8,4.8,3.9,4.8c1.2,0.5,2,1.5,2.3,2.7c0.3,1.2,0,2.5-0.8,3.5
				l-15.8,19.2C238.5,89.7,237.4,90.2,236.2,90.2z M237,56.8c0,0.1,0.1,0.2,0.1,0.2c2.7,4.9,4.2,10.5,4.4,16.4l4.5-5.5
				c-2.4-2.2-4.5-5.4-4.4-9.5c0.1-2.9,1.3-6.3,2.6-9.8c0.9-2.5,2.8-7.5,2.3-9c-1.3-0.7-5.8-0.4-8.3-0.2c-5.4,0.4-10.1,0.7-12.4-2.7
				c-2.2-3.1-0.5-6.7,0.9-9.5c2.1-4.5,2.5-6.4,0.6-8.2c-1.9-1.9-5.9,0.5-10.5,3.6c-3.8,2.5-6.8,4.5-10,3.4
				c-4.1-1.4-5.2-6.5-6.2-11.4c-0.2-1.1-0.6-2.7-0.9-3.9c-0.9,0.6-2,1.4-2.7,2c-1.5,1.2-3.1,2.4-4.6,3.2c2.8,1.4,5.3,3.2,7.6,5.4
				c1.8,1.8,3.4,3.9,4.7,6.1c2,3.5,3.2,7.4,3.7,11.7c8.9,0.7,17,4.2,22.9,10.2C233.6,51.5,235.5,54,237,56.8z M246.8,39.7
				L246.8,39.7L246.8,39.7z M178.2,12.7c1.4,0,2.8,0.1,4.2,0.2c-0.4-1-0.6-1.9-0.8-2.7c-0.1-0.3-0.2-0.7-0.2-1
				c-0.9,0.2-3,1.3-6.4,3.6C176,12.8,177.1,12.7,178.2,12.7z"/>
		</g>
	</g>
	<g class="st2">
		<g>
			<g>
				<path class="st1" d="M243.9,69c0,3.5-0.5,7.2-1.4,10.8c-0.6,2.5-1.5,4.9-2.5,7.3c-6.6-1.4-14.4-2.2-23.1-2.3l7.7-20l-21.7,6.6
					c0.9-4.3,1.2-8.6,0.8-12.7c-0.7-7.2-3.3-13.9-8.1-19.2c-0.3-0.4-0.7-0.8-1.2-1.2c-7.3-7.3-17.5-10.3-28.2-9.2
					c-0.2-4.4-0.5-8.9-0.9-13.3c13.3-7.7,28.8-7.4,38.2,2c1.6,1.6,2.9,3.3,4,5.3c2.3,4,3.4,8.7,3.4,13.6c9.1-0.1,17.6,2.8,23.9,9.1
					c2.1,2.1,3.8,4.4,5.1,6.9C242.6,57.4,243.9,63.1,243.9,69z"/>
			</g>
		</g>
	</g>
	<g>
		<g>
			<path class="st3" d="M236.2,86.2c-0.6,2.5-1.5,4.9-2.5,7.3c-6.6-1.4-14.4-2.2-23.1-2.3l7.7-19.9l-21.7,6.6
				c0.9-4.3,1.2-8.6,0.8-12.7c-0.7-7.2-3.3-13.9-8.1-19.2c2.3-0.9,4.7-1.5,7-2c2.8-0.6,5.6-0.9,8.3-0.9c9.1-0.1,17.6,2.8,23.9,9.1
				c2.1,2.1,3.8,4.4,5.1,6.9h0C237.9,66.8,238.7,76.5,236.2,86.2z"/>
		</g>
	</g>
	<g class="st2">
		<g>
			<polygon class="st1" points="187.7,74.3 187.4,75.9 186.6,74.7 			"/>
		</g>
	</g>
	<g>
		<g>
			<path class="st11" d="M218.3,71.3l-7.7,19.9c-6-0.1-12.3,0.1-19.1,0.5c-3.9,0.2-8,0.5-12.1,0.9c-4.5,0.4-9.1,0.9-13.8,1.5
				c-3.4,0.4-6.8,0.8-10.2,1.3c0.2-0.9,0.3-1.8,0.5-2.7c0.2-0.9,0.3-1.7,0.5-2.6l24.8-7.5l15.5-4.7L218.3,71.3z"/>
		</g>
	</g>
	<g class="st2">
		<g>
			<path class="st1" d="M213.6,83.4l-3,7.8c-6-0.1-12.3,0.1-19.1,0.5c-3.9,0.2-8,0.5-12.1,0.9c-4.5,0.4-9.1,0.9-13.8,1.5
				c-3.4,0.4-6.8,0.8-10.2,1.3c0.2-0.9,0.3-1.8,0.5-2.7c0.2-0.9,0.3-1.7,0.5-2.6C177.6,86.3,197.4,83.6,213.6,83.4z"/>
		</g>
	</g>
	<g>
		<g>
			<path class="st4" d="M204.6,43c-2.7,0-5.5,0.3-8.3,0.9c-2.3,0.5-4.7,1.2-7,2c-0.4-0.4-0.8-0.8-1.2-1.2
				c-7.3-7.3-17.5-10.2-28.2-9.2c-0.2-4.5-0.5-8.9-0.9-13.3c13.4-7.7,28.9-7.4,38.2,2c1.6,1.6,2.9,3.3,4,5.3
				C203.5,33.4,204.6,38.1,204.6,43z"/>
		</g>
	</g>
	<g>
		<g>
			<path class="st11" d="M187.3,46.4l-0.1,0.4l-5.6,32.8l-0.5,3L156.3,90c0.3-2,0.6-3.9,0.9-5.9c0.5-3.2,0.9-6.3,1.2-9.5
				c0.8-7.3,1.4-14.6,1.6-21.9C169.7,50.4,187.3,46.4,187.3,46.4z"/>
		</g>
	</g>
	<g class="st2">
		<g>
			<path class="st1" d="M182.3,74.3l-0.7,5.2l-0.5,3L156.3,90c0.3-2,0.6-3.9,0.9-5.9c0.5-3.2,0.9-6.3,1.2-9.5
				c0.8-7.3,1.4-14.6,1.6-21.9c1.8-0.4,6.4-1.5,8.1-2.3l-1.4,27.2L182.3,74.3z"/>
		</g>
	</g>
	<g class="st2">
		<g>
			<path class="st1" d="M219.5,89.4l-7.5-1.9l5-14.4l-26.9,6.7l-0.3-0.5l-2.4-3.4l0.3-1.6l5.7-33.2l0.1-0.4c0,0-19.3,4.5-29.9,7
				c0.2-6.3,0.2-12.6-0.1-18.9c11.8-1.1,23,2.1,30.9,10.1c0.4,0.4,0.9,0.9,1.3,1.4c5.2,5.8,8.1,13.1,8.9,21c0.2,2.2,0.3,4.5,0.1,6.8
				c3.5-1.1,18.1-5.8,21.1-3.3C229.1,67.4,219.5,89.4,219.5,89.4z"/>
		</g>
	</g>
	<g class="st2">
		<g>
			<polygon class="st1" points="189.8,79.3 186.7,80.2 187.2,77 187.4,75.9 			"/>
		</g>
	</g>
	<g>
		<g>
			<path class="st3" d="M196.6,77.8l-15.5,4.7l0.5-3l5.6-32.8l0.1-0.4c0,0-17.6,4.1-27.3,6.4c0.2-5.8,0.2-11.5-0.1-17.3
				c10.7-1,21,1.9,28.2,9.2c0.4,0.4,0.8,0.8,1.2,1.2c4.8,5.3,7.4,12,8.1,19.2C197.8,69.2,197.5,73.5,196.6,77.8z"/>
		</g>
	</g>
	<g>
		<g>
			<path class="st9" d="M233.7,93.5c0,0-139,138.9-147.7,147.5c-8.7,8.7-24.8,13.8-32.7,5.9L9.9,203.5c-9-9-7.8-27,4.4-39.2
				l20.3-20.3c42.3-23.6,83.1-41.9,120.7-48.7c3.5-0.5,6.9-0.9,10.2-1.3c4.7-0.6,9.4-1.1,13.8-1.5c4.2-0.4,8.2-0.7,12.1-0.9
				c6.7-0.4,13.1-0.6,19.1-0.5C219.3,91.4,227.1,92.1,233.7,93.5z"/>
		</g>
	</g>
	<g class="st6">
		<g>
			<path class="st7" d="M155.3,95.3c-37.6,6.8-78.4,25.2-120.7,48.7l-20.3,20.3c-12.2,12.2-13.5,30.2-4.4,39.2L53.3,247
				c0,0-33.8-41.1-27.9-64.7S155.3,95.3,155.3,95.3z"/>
		</g>
	</g>
	<g class="st2">
		<g>
			<path class="st1" d="M53.3,247c7.9,7.9,24,2.7,32.7-5.9c8.7-8.6,147.7-147.5,147.7-147.5c-6.6-1.4-14.4-2.2-23.1-2.3
				C182.4,138.2,126.2,190.9,53.3,247z"/>
		</g>
	</g>
	<g>
		<g>
			<path class="st9" d="M160,52.7c-0.2,7.3-0.7,14.6-1.6,21.9c-0.3,3.1-0.8,6.3-1.2,9.5c-0.3,2-0.6,3.9-0.9,5.9
				c-0.2,0.9-0.3,1.7-0.5,2.6c-0.2,0.9-0.3,1.8-0.5,2.7c-37.6,6.8-78.4,25.2-120.7,48.7C74.9,103.8,158.8,20,158.8,20
				c0.1,0.7,0.1,1.4,0.2,2.1c0.4,4.4,0.7,8.9,0.9,13.3C160.1,41.2,160.2,46.9,160,52.7z"/>
		</g>
	</g>
	<g class="st2">
		<g>
			<path class="st1" d="M157.2,84.1c-0.3,2-0.6,3.9-0.9,5.9c-0.2,0.9-0.3,1.7-0.5,2.6c-0.2,0.9-0.3,1.8-0.5,2.7
				c-37.6,6.8-78.4,25.2-120.7,48.7l23.9-23.9C91.8,102.8,124.8,90.7,157.2,84.1z"/>
		</g>
	</g>
	<g>
		<g>
			<path class="st1" d="M233.7,97.5c-0.3,0-0.6,0-0.9-0.1c-6.1-1.3-13.6-2.1-22.3-2.2c-1.3,0-2.5-0.7-3.3-1.8
				c-0.7-1.1-0.9-2.5-0.4-3.7l4.8-12.3l-13.9,4.2c-1.3,0.4-2.8,0.1-3.9-0.9c-1-1-1.5-2.4-1.2-3.8c0.8-4,1.1-7.9,0.7-11.5
				c-0.6-6.6-3.1-12.4-7.1-16.9c-0.9-1-1.2-2.3-0.9-3.6c0.3-1.3,1.3-2.3,2.5-2.8c2.6-1,5.1-1.7,7.6-2.2c3-0.6,6-1,9-1
				c10.5-0.1,20,3.5,26.8,10.3c2.2,2.3,4.2,4.8,5.7,7.6c0,0.1,0.1,0.2,0.1,0.2c4.7,8.6,5.7,19.3,2.9,30.2c-0.7,2.7-1.6,5.3-2.7,7.9
				C236.7,96.6,235.3,97.5,233.7,97.5z M216.4,87.4c5.4,0.3,10.4,0.8,14.8,1.6c0.4-1.2,0.8-2.5,1.1-3.7c0,0,0,0,0,0
				c2.3-8.8,1.5-17.4-2.1-24.1c0-0.1-0.1-0.1-0.1-0.2c-1.2-2.2-2.7-4.2-4.4-6c-5.2-5.2-12.3-7.9-20.4-7.9c-0.2,0-0.4,0-0.5,0
				c-2.5,0-5,0.3-7.5,0.8c-0.4,0.1-0.8,0.2-1.2,0.3c3,4.9,4.9,10.5,5.5,16.6c0.2,2.4,0.3,4.9,0.1,7.5l15.7-4.7
				c1.5-0.4,3.1,0,4.1,1.1s1.3,2.7,0.8,4.2L216.4,87.4z"/>
		</g>
	</g>
	<g>
		<g>
			<path class="st1" d="M155.3,99.3c-1.1,0-2.1-0.4-2.9-1.2c-0.9-0.9-1.3-2.2-1-3.5l0.1-0.6c0.1-0.7,0.3-1.4,0.4-2.1
				c0.1-0.6,0.2-1.1,0.3-1.6l0.2-1c0.3-1.5,1.3-2.7,2.8-3.1l62.1-18.7c1.5-0.4,3.1,0,4.1,1.1s1.3,2.7,0.8,4.2l-7.7,19.9
				c-0.6,1.5-2.1,2.6-3.7,2.6c0,0,0,0-0.1,0c-5.7-0.1-12,0.1-18.8,0.5c-3.8,0.2-7.9,0.5-12,0.9c-4.3,0.4-8.9,0.9-13.7,1.4
				c-3.5,0.4-6.8,0.8-10.1,1.3C155.7,99.3,155.5,99.3,155.3,99.3z M211.6,77.5l-39,11.8c2.2-0.2,4.3-0.4,6.4-0.6
				c4.2-0.4,8.4-0.7,12.3-0.9c5.9-0.3,11.4-0.5,16.6-0.5L211.6,77.5z"/>
		</g>
	</g>
	<g>
		<g>
			<path class="st1" d="M189.3,49.9c-1.2,0-2.3-0.5-3.1-1.4c-0.3-0.3-0.6-0.7-0.9-1c-6.2-6.2-15.1-9-25-8.1c-1.1,0.1-2.2-0.2-3-1
				s-1.3-1.8-1.4-2.9c-0.2-4.4-0.5-8.8-0.9-13.1c-0.2-1.6,0.6-3.1,2-3.9c15.3-8.8,32.6-7.8,43,2.6c1.8,1.8,3.4,3.9,4.7,6.1
				c2.6,4.6,3.9,9.8,3.9,15.5c0,2.2-1.8,4-4,4c-2.5,0-5,0.3-7.5,0.8c-2.1,0.4-4.3,1-6.5,1.9C190.2,49.8,189.8,49.9,189.3,49.9z
				 M164.1,31.3c10.3,0,19.5,3.5,26.4,10c1.7-0.5,3.4-1,5.1-1.3c1.6-0.3,3.2-0.6,4.8-0.8c-0.4-2.9-1.3-5.5-2.6-7.9
				c-0.9-1.6-2-3.1-3.3-4.4c-7.3-7.3-19.6-8.3-31.1-2.5c0.2,2.3,0.4,4.5,0.5,6.8C163.8,31.3,163.9,31.3,164.1,31.3z"/>
		</g>
	</g>
	<g>
		<g>
			<path class="st1" d="M156.3,94c-1,0-1.9-0.3-2.6-1c-1-0.9-1.5-2.3-1.3-3.7c0.3-1.8,0.6-3.7,0.9-5.8c0.5-3.2,0.9-6.4,1.2-9.3
				c0.8-7.2,1.3-14.4,1.6-21.6c0.1-1.8,1.3-3.4,3.1-3.8c9.7-2.3,27.3-6.4,27.3-6.4c1.3-0.3,2.6,0.1,3.6,1c1,0.9,1.4,2.2,1.3,3.5
				l-0.1,0.4c0,0,0,0.1,0,0.1L185,83.2c-0.3,1.5-1.3,2.7-2.8,3.1l-24.8,7.5C157,93.9,156.6,94,156.3,94z M163.9,55.9
				c-0.3,6.4-0.8,12.8-1.5,19.2c-0.3,3-0.7,6.1-1.2,9.3l16.4-5l0.1-0.5l4.7-27.2C177.2,52.8,169.8,54.5,163.9,55.9z"/>
		</g>
	</g>
	<g>
		<g>
			<path class="st1" d="M181.1,86.5c-1,0-1.9-0.3-2.7-1c-1-0.9-1.5-2.3-1.3-3.7l0.5-3l4.7-27.2c-6,1.4-15.3,3.6-21.4,5
				c-1.2,0.3-2.5,0-3.5-0.8c-1-0.8-1.5-2-1.5-3.2c0.2-5.6,0.2-11.3-0.1-17c-0.1-2.1,1.5-3.9,3.6-4.1c12.4-1.2,23.6,2.5,31.4,10.4
				c0.4,0.4,0.9,0.9,1.4,1.4c5.1,5.7,8.3,13.1,9.1,21.4c0.4,4.5,0.1,9.2-0.8,13.9c-0.3,1.4-1.4,2.6-2.8,3l-15.5,4.7
				C181.9,86.4,181.5,86.5,181.1,86.5z M196.6,77.8L196.6,77.8L196.6,77.8z M190.1,53.9l-3.9,22.9l7-2.1c0.5-3.2,0.6-6.3,0.3-9.2
				C193,61.3,191.9,57.4,190.1,53.9z M164,39.3c0.1,2.8,0.1,5.6,0.1,8.4c5.6-1.3,12-2.8,16.6-3.9C175.9,40.8,170.3,39.3,164,39.3z"
				/>
		</g>
	</g>
	<g>
		<g>
			<path class="st1" d="M233.7,97.5c-0.3,0-0.6,0-0.9-0.1c-6.1-1.3-13.6-2.1-22.3-2.2c-1.3,0-2.5-0.7-3.3-1.8
				c-0.7-1.1-0.9-2.5-0.4-3.7l4.8-12.3l-13.9,4.2c-1.3,0.4-2.8,0.1-3.9-0.9c-1-1-1.5-2.4-1.2-3.8c0.8-4,1.1-7.9,0.7-11.5
				c-0.6-6.6-3.1-12.4-7.1-16.9c-0.9-1-1.2-2.3-0.9-3.6c0.3-1.3,1.3-2.3,2.5-2.8c2.6-1,5.1-1.7,7.6-2.2c3-0.6,6-1,9-1
				c10.5-0.1,20,3.5,26.8,10.3c2.2,2.3,4.2,4.8,5.7,7.6c0,0.1,0.1,0.2,0.1,0.2c4.7,8.6,5.7,19.3,2.9,30.2c-0.7,2.7-1.6,5.3-2.7,7.9
				C236.7,96.6,235.3,97.5,233.7,97.5z M216.4,87.4c5.4,0.3,10.4,0.8,14.8,1.6c0.4-1.2,0.8-2.5,1.1-3.7c0,0,0,0,0,0
				c2.3-8.8,1.5-17.4-2.1-24.1c0-0.1-0.1-0.1-0.1-0.2c-1.2-2.2-2.7-4.2-4.4-6c-5.2-5.2-12.3-7.9-20.4-7.9c-0.2,0-0.4,0-0.5,0
				c-2.5,0-5,0.3-7.5,0.8c-0.4,0.1-0.8,0.2-1.2,0.3c3,4.9,4.9,10.5,5.5,16.6c0.2,2.4,0.3,4.9,0.1,7.5l15.7-4.7
				c1.5-0.4,3.1,0,4.1,1.1s1.3,2.7,0.8,4.2L216.4,87.4z"/>
		</g>
	</g>
	<g>
		<g>
			<path class="st1" d="M155.3,99.3c-1.1,0-2.1-0.4-2.9-1.2c-0.9-0.9-1.3-2.2-1-3.5l0.1-0.6c0.1-0.7,0.3-1.4,0.4-2.1
				c0.1-0.6,0.2-1.1,0.3-1.6l0.2-1c0.3-1.5,1.3-2.7,2.8-3.1l62.1-18.7c1.5-0.4,3.1,0,4.1,1.1s1.3,2.7,0.8,4.2l-7.7,19.9
				c-0.6,1.5-2.1,2.6-3.7,2.6c0,0,0,0-0.1,0c-5.7-0.1-12,0.1-18.8,0.5c-3.8,0.2-7.9,0.5-12,0.9c-4.3,0.4-8.9,0.9-13.7,1.4
				c-3.5,0.4-6.8,0.8-10.1,1.3C155.7,99.3,155.5,99.3,155.3,99.3z M211.6,77.5l-39,11.8c2.2-0.2,4.3-0.4,6.4-0.6
				c4.2-0.4,8.4-0.7,12.3-0.9c5.9-0.3,11.4-0.5,16.6-0.5L211.6,77.5z"/>
		</g>
	</g>
	<g>
		<g>
			<path class="st1" d="M189.3,49.9c-1.2,0-2.3-0.5-3.1-1.4c-0.3-0.3-0.6-0.7-0.9-1c-6.2-6.2-15.1-9-25-8.1c-1.1,0.1-2.2-0.2-3-1
				s-1.3-1.8-1.4-2.9c-0.2-4.4-0.5-8.8-0.9-13.1c-0.2-1.6,0.6-3.1,2-3.9c15.3-8.8,32.6-7.8,43,2.6c1.8,1.8,3.4,3.9,4.7,6.1
				c2.6,4.6,3.9,9.8,3.9,15.5c0,2.2-1.8,4-4,4c-2.5,0-5,0.3-7.5,0.8c-2.1,0.4-4.3,1-6.5,1.9C190.2,49.8,189.8,49.9,189.3,49.9z
				 M164.1,31.3c10.3,0,19.5,3.5,26.4,10c1.7-0.5,3.4-1,5.1-1.3c1.6-0.3,3.2-0.6,4.8-0.8c-0.4-2.9-1.3-5.5-2.6-7.9
				c-0.9-1.6-2-3.1-3.3-4.4c-7.3-7.3-19.6-8.3-31.1-2.5c0.2,2.3,0.4,4.5,0.5,6.8C163.8,31.3,163.9,31.3,164.1,31.3z"/>
		</g>
	</g>
	<g>
		<g>
			<path class="st1" d="M156.3,94c-1,0-1.9-0.3-2.6-1c-1-0.9-1.5-2.3-1.3-3.7c0.3-1.8,0.6-3.7,0.9-5.8c0.5-3.2,0.9-6.4,1.2-9.3
				c0.8-7.2,1.3-14.4,1.6-21.6c0.1-1.8,1.3-3.4,3.1-3.8c9.7-2.3,27.3-6.4,27.3-6.4c1.3-0.3,2.6,0.1,3.6,1c1,0.9,1.4,2.2,1.3,3.5
				l-0.1,0.4c0,0,0,0.1,0,0.1L185,83.2c-0.3,1.5-1.3,2.7-2.8,3.1l-24.8,7.5C157,93.9,156.6,94,156.3,94z M163.9,55.9
				c-0.3,6.4-0.8,12.8-1.5,19.2c-0.3,3-0.7,6.1-1.2,9.3l16.4-5l0.1-0.5l4.7-27.2C177.2,52.8,169.8,54.5,163.9,55.9z"/>
		</g>
	</g>
	<g>
		<g>
			<path class="st1" d="M181.1,86.5c-1,0-1.9-0.3-2.7-1c-1-0.9-1.5-2.3-1.3-3.7l0.5-3l4.7-27.2c-6,1.4-15.3,3.6-21.4,5
				c-1.2,0.3-2.5,0-3.5-0.8c-1-0.8-1.5-2-1.5-3.2c0.2-5.6,0.2-11.3-0.1-17c-0.1-2.1,1.5-3.9,3.6-4.1c12.4-1.2,23.6,2.5,31.4,10.4
				c0.4,0.4,0.9,0.9,1.4,1.4c5.1,5.7,8.3,13.1,9.1,21.4c0.4,4.5,0.1,9.2-0.8,13.9c-0.3,1.4-1.4,2.6-2.8,3l-15.5,4.7
				C181.9,86.4,181.5,86.5,181.1,86.5z M196.6,77.8L196.6,77.8L196.6,77.8z M190.1,53.9l-3.9,22.9l7-2.1c0.5-3.2,0.6-6.3,0.3-9.2
				C193,61.3,191.9,57.4,190.1,53.9z M164,39.3c0.1,2.8,0.1,5.6,0.1,8.4c5.6-1.3,12-2.8,16.6-3.9C175.9,40.8,170.3,39.3,164,39.3z"
				/>
		</g>
	</g>
	<g>
		<g>
			<path class="st1" d="M63.8,254.9c-5.4,0-10-1.7-13.3-5.1L7.1,206.4c-5.2-5.2-7.7-13.1-6.9-21.6c0.8-8.5,4.9-16.8,11.3-23.2
				l20.3-20.3c0.3-0.3,0.6-0.5,0.9-0.7c49.1-27.4,87.9-43,122-49.2c0.1,0,0.1,0,0.2,0c3.3-0.4,6.7-0.9,10.3-1.3
				c4.9-0.6,9.6-1.1,14-1.5c4.2-0.4,8.4-0.7,12.3-0.9c6.9-0.4,13.5-0.6,19.4-0.5c9.2,0.2,17.2,1,23.9,2.4c1.4,0.3,2.6,1.4,3,2.8
				s0,2.9-1,4c0,0-139,138.9-147.7,147.5c-4.9,4.9-11.8,8.7-18.6,10.2C68,254.6,65.9,254.9,63.8,254.9z M37,147.3l-19.9,19.9
				c-5.2,5.2-8.4,11.7-9,18.4c-0.6,6.1,1.1,11.7,4.6,15.2l43.5,43.4c5.8,5.8,19.6,1.5,27-5.9c7.6-7.6,116.3-116.2,142.2-142
				c-4.5-0.6-9.4-0.9-14.8-1c-5.7-0.1-12,0.1-18.8,0.5c-3.8,0.2-7.9,0.5-12,0.9c-4.3,0.4-8.9,0.9-13.7,1.4
				c-3.5,0.4-6.8,0.8-10.1,1.3C122.9,105.3,85.1,120.6,37,147.3z"/>
		</g>
	</g>
	<g>
		<g>
			<path class="st1" d="M34.6,148.1c-1.2,0-2.4-0.6-3.2-1.6c-1.2-1.6-1-3.8,0.4-5.2L156,17.2c1.1-1.1,2.7-1.5,4.2-0.9
				c1.5,0.5,2.5,1.8,2.6,3.4l0.2,2.1c0.4,4.4,0.7,9,0.9,13.5c0.2,5.8,0.3,11.7,0.1,17.5c-0.2,7.4-0.8,14.9-1.6,22.2
				c-0.3,3.1-0.8,6.3-1.2,9.6c-0.3,2.1-0.6,4.1-0.9,6l-0.2,1c-0.1,0.6-0.2,1.1-0.3,1.7c-0.1,0.7-0.2,1.4-0.4,2.1l-0.1,0.6
				c-0.3,1.6-1.6,2.9-3.2,3.2c-33.2,6-71.2,21.4-119.5,48.3C35.9,147.9,35.3,148.1,34.6,148.1z M155.5,28.9l-98.9,98.8
				c36.9-18.9,67.6-30.4,95.3-35.8c0.1-0.6,0.2-1.1,0.3-1.6l0.2-1c0.3-1.8,0.6-3.7,0.9-5.8c0.5-3.2,0.9-6.4,1.2-9.3
				c0.8-7.2,1.3-14.4,1.6-21.6c0,0,0,0,0,0c0.2-5.6,0.2-11.3-0.1-17C155.8,33.4,155.7,31.1,155.5,28.9z M155.3,95.3L155.3,95.3
				L155.3,95.3z"/>
		</g>
	</g>
</g>
</svg>
