<?xml version="1.0" encoding="utf-8"?>
<!-- Generator: Adobe Illustrator 22.1.0, SVG Export Plug-In . SVG Version: 6.00 Build 0)  -->
<svg version="1.1" id="Layer_1" xmlns="http://www.w3.org/2000/svg" xmlns:xlink="http://www.w3.org/1999/xlink" x="0px" y="0px"
	 viewBox="0 0 256 256" style="enable-background:new 0 0 256 256;" xml:space="preserve">
<style type="text/css">
	.st0{fill:#F5B31F;}
	.st1{fill:#464646;}
	.st2{opacity:0.15;}
	.st3{fill:#AC6535;}
	.st4{fill:#EB573B;}
	.st5{fill:#90C056;}
	.st6{opacity:0.35;}
	.st7{fill:#FFFFFF;}
	.st8{opacity:0.2;}
	.st9{fill:#F6D67A;}
	.st10{opacity:0.3;}
	.st11{fill:#FFA755;}
	.st12{fill:#8FAE3C;}
	.st13{fill:#BE6BB2;}
	.st14{fill:#B7C536;}
	.st15{opacity:0.1;}
	.st16{fill:#9D5A96;}
	.st17{fill:#EA615D;}
	.st18{opacity:0.4;}
	.st19{fill:#F79932;}
	.st20{fill:#FFEC97;}
	.st21{fill:#FFD11D;}
	.st22{fill:#F7F2D5;}
	.st23{fill:#F6AF72;}
	.st24{fill:#BA6C45;}
	.st25{opacity:0.5;}
	.st26{fill:#E4C074;}
	.st27{fill:#656566;}
	.st28{fill:#FACD1F;}
	.st29{fill:#FFDF66;}
	.st30{fill:#6D6E71;}
	.st31{fill:#E77CAE;}
	.st32{fill:#FFE5C4;}
	.st33{fill:#F68455;}
	.st34{opacity:0.7;}
	.st35{fill:#ADEDFF;}
	.st36{fill:#EC754B;}
	.st37{fill:#4AA5BA;}
	.st38{opacity:0.8;}
	.st39{fill:#92A5AC;}
	.st40{fill:#D06E3C;}
	.st41{fill:#DA4F4B;}
	.st42{fill:#BDF3FF;}
	.st43{fill:#F18BB4;}
	.st44{fill:#F9D97A;}
	.st45{fill:none;}
	.st46{fill:#AF6535;}
	.st47{fill:#B93226;}
	.st48{fill:#FF6050;}
	.st49{fill:#EA7CB1;}
	.st50{fill:#00B0E0;}
	.st51{fill:#EA7DAE;}
	.st52{fill:#BC7532;}
	.st53{fill:#876C6C;}
	.st54{fill:#F9F6CD;}
	.st55{fill:#FFE37B;}
	.st56{fill:#1DDCFF;}
	.st57{fill:#60ACF7;}
	.st58{fill:#C3755A;}
	.st59{fill:#96557A;}
	.st60{fill:#66625D;}
	.st61{fill:#D68032;}
	.st62{fill:#F2A355;}
	.st63{fill:#7E9E6A;}
	.st64{fill:#965A85;}
	.st65{fill:#90CAD3;}
	.st66{fill:#94B57F;}
	.st67{fill:#B2E2E7;}
	.st68{fill:#FFDF8F;}
	.st69{fill:#FFFAEB;}
	.st70{fill:#F88916;}
	.st71{fill:#FFC86E;}
	.st72{fill:#AFA51D;}
	.st73{fill:#968A1C;}
	.st74{fill:#C3556D;}
</style>
<g>
	<g>
		<g>
			<path class="st12" d="M161.9,68.9L161.9,68.9c-6.2,0.9-11.8,2.5-17.2,3.8c-5.5,1.3-10.9,2.4-16.7,2.4c-6.6,0-12.7-1.4-19.1-3
				c-6.4-1.6-13-3.3-20.7-3.8c-8.4-8.9-10.7-17-6.5-24.3c9.8,7.8,20.4,10.2,31.9,7.4c2.1-29.2,12.2-45.5,31.6-46.7l7.7,12.6
				C131.8,17,128,44.9,135.7,51c7.7,6.1,18.3,2,26.4-5.8C164,55,166.6,62.5,161.9,68.9z"/>
		</g>
	</g>
	<g class="st15">
		<g>
			<path d="M162,45.2c2,9.8,4.5,17.3-0.1,23.7l0,0c-6.2,0.9-11.7,2.5-17.2,3.8c-5.5,1.3-10.9,2.4-16.7,2.4c-6.6,0-12.7-1.4-19.1-3
				c-6.4-1.6-13-3.3-20.7-3.8c-8.4-8.9-10.7-17-6.5-24.3c0,0,9.2,20.8,43,21S162,45.2,162,45.2z"/>
		</g>
	</g>
	<g>
		<g>
			<path class="st19" d="M250.5,188.1c-7.7,35.3-40.6,52.1-76.1,59c-9.7,1.9-19.5,3-29.1,3.6c0,0,0,0,0,0
				c-5.6,0.3-11.1,0.5-16.4,0.5c-6.3,0-12.9-0.2-19.6-0.7c-4.4-0.3-8.9-0.8-13.3-1.4c-2.3-0.3-4.5-0.6-6.7-1c0,0,0,0,0,0
				c-37.7-6.2-73.8-22.8-81.9-60.1c-11-50.6,18.4-104.6,52-115.7c11.9-3.9,21.5-4.7,29.9-4.1c7.7,0.5,14.3,2.3,20.7,3.8
				c6.4,1.6,12.5,3,19.1,3c5.8,0,11.2-1.1,16.7-2.4c5.5-1.3,11-2.8,17.2-3.8l0,0c3-0.5,6.2-0.8,9.6-0.8c7.5-0.1,16,0.9,26.2,4.3
				C232.1,83.5,261.6,137.5,250.5,188.1z"/>
		</g>
	</g>
	<g class="st15">
		<g>
			<path d="M78.1,72.1c-42.8,32.6-60.3,110.2-13.3,167.4l-10-2.4C14.2,189.7,28.5,103.3,68.2,71.9L78.1,72.1z"/>
		</g>
	</g>
	<g class="st15">
		<g>
			<path d="M102.8,75.2c-30,37-31.8,120.2,0.6,172.3l-8.3,0c-24.7-46.8-28.6-137.3,1.3-174L102.8,75.2z"/>
		</g>
	</g>
	<g class="st15">
		<g>
			<path d="M150.1,75.2c30,37,31.8,120.2-0.6,172.3l10.8-1.1c27-46.5,34.8-134.6-1.3-173L150.1,75.2z"/>
		</g>
	</g>
	<g class="st15">
		<g>
			<path d="M178.7,68.3c51.8,3.7,82,69.2,71,119.8c-7.7,35.3-40.6,52.1-76.1,59c-9.7,1.9-19.5,3-29.1,3.6c0,0,0,0,0,0
				c-5.6,0.3-11.1,0.5-16.4,0.5c-6.3,0-12.9-0.2-19.6-0.7c-4.4-0.3-8.9-0.8-13.3-1.4c-2.3-0.3-4.5-0.6-6.7-1c0,0,0,0,0,0
				c-37.7-6.2-73.8-22.8-81.9-60.1c-4.7-21.4-2.1-43.5,5-62.7c-5,62.7,71.7,127.5,159.8,96.4S221.9,103,178.7,68.3z"/>
		</g>
	</g>
	<g>
		<g>
			<path class="st1" d="M128,255.2c-6.7,0-13.4-0.2-19.9-0.7c-4.7-0.3-9.2-0.8-13.6-1.4c-2.5-0.3-4.8-0.7-6.9-1v0
				c-0.1,0-0.1,0-0.2,0c-48.4-7.9-77.8-29.8-85-63.1c-5.3-24.5-2-51.2,9.6-75.2c10.8-22.5,27.6-39.3,45.1-45.1
				c11-3.6,21.3-5,31.5-4.3c7.6,0.5,14.1,2.1,20.3,3.7l1.1,0.3c6.6,1.6,12.2,2.9,18.1,2.9c0,0,0,0,0,0c5.1,0,10-0.9,15.7-2.3
				c1.1-0.3,2.3-0.6,3.4-0.8c4.4-1.1,9-2.2,14-3c0.1,0,0.1,0,0.1,0c3.5-0.5,6.8-0.8,10.1-0.9c8.9-0.2,17.8,1.3,27.5,4.5
				c17.4,5.7,34.3,22.6,45,45.1c11.5,24,14.9,50.7,9.5,75.2c0,0,0,0,0,0c-7,31.9-34.4,53.4-79.2,62.1c-9.2,1.8-19.1,3-29.4,3.7
				c-0.1,0-0.2,0-0.3,0C139.2,255,133.6,255.2,128,255.2z M89.1,244.2c2,0.3,4.1,0.6,6.5,0.9c4.2,0.6,8.6,1,13.1,1.3
				c11.5,0.9,23.6,0.9,35.3,0.2c0.1,0,0.2,0,0.3,0c10.1-0.6,19.7-1.8,28.6-3.5c28.9-5.6,65.1-19.9,72.9-55.9l0,0
				c8.7-40-11.3-98.5-49.3-111c-8.8-2.9-16.9-4.2-24.8-4.1c-2.9,0-5.9,0.3-9,0.8c0,0-0.1,0-0.1,0c-4.7,0.7-9.1,1.8-13.4,2.9
				c-1.2,0.3-2.3,0.6-3.5,0.8c-6.3,1.5-11.7,2.5-17.6,2.5c0,0,0,0,0,0c-6.8,0-13.1-1.4-20-3.1l-1.1-0.3c-5.9-1.5-12-3-19-3.5
				c-9.3-0.7-18.3,0.6-28.4,3.9c-31.1,10.2-60,62-49.3,111c8.2,37.8,47.3,51.8,78.7,57C89,244.2,89,244.2,89.1,244.2z M249.6,188.1
				L249.6,188.1L249.6,188.1z"/>
		</g>
	</g>
	<g>
		<g>
			<path class="st1" d="M128,79.2C128,79.2,128,79.2,128,79.2c-6.9,0-13.1-1.4-20-3.1l-1.1-0.3c-5.9-1.5-12-3-19-3.5
				c-1-0.1-1.9-0.5-2.6-1.3c-9.8-10.4-12.2-20.2-7-29.1c0.6-1,1.6-1.7,2.7-1.9c1.1-0.2,2.3,0.1,3.2,0.8c8.1,6.4,16.5,8.8,25.6,7.2
				c2.8-30.1,14.6-46.1,35.1-47.4c1.5-0.1,2.9,0.6,3.7,1.9l7.7,12.6c0.8,1.2,0.8,2.8,0.1,4.1c-0.7,1.2-2,2-3.5,2c-0.1,0-0.2,0-0.3,0
				c-9.6,0-13.6,7.1-15.2,11.4c-2.5,7-1.2,13.6,0.8,15.2c6.2,5,15.2,0.1,21.1-5.6c1-1,2.6-1.4,4-1c1.4,0.4,2.4,1.6,2.7,3
				c0.3,1.3,0.5,2.5,0.8,3.7c1.8,8.3,3.5,16.2-1.6,23.2c-0.6,0.8-1.4,1.3-2.3,1.5l0,0c-0.1,0-0.2,0-0.3,0.1
				c-4.7,0.7-9.1,1.8-13.4,2.9c-1.2,0.3-2.3,0.6-3.5,0.8C139.3,78.1,133.9,79.2,128,79.2z M90.1,64.4c6.9,0.6,12.9,2.1,18.7,3.6
				l1.1,0.3c6.6,1.6,12.2,2.9,18.1,2.9c0,0,0,0,0,0c5.1,0,10-0.9,15.7-2.3c1.1-0.3,2.3-0.6,3.4-0.8c3.9-1,8-2,12.3-2.7
				c1.6-3.2,1.2-7.1,0-12.8c-9.4,6.6-19.2,7.3-26.3,1.6c-5.3-4.2-6.7-14.6-3.3-24.2c3-8.3,8.9-13.9,16.4-15.9l-3.1-5.2
				c-15.2,2.2-23.6,16.2-25.5,42.7c-0.1,1.7-1.3,3.2-3,3.6c-10.9,2.7-21.3,1.1-30.9-5C83.4,53.4,84.5,58.1,90.1,64.4z M161.9,68.9
				L161.9,68.9L161.9,68.9z"/>
		</g>
	</g>
	<g>
		<g>
			<path class="st1" d="M95,253.1c-0.1,0-0.2,0-0.3,0c-15.5-1.2-29.4-8.9-40.2-22.4c-9.8-12.2-16.7-28.4-20-46.9
				C27,141.1,40.1,85.7,86.6,64.6c2-0.9,4.4,0,5.3,2c0.9,2,0,4.4-2,5.3C60,85.5,32.4,125.8,42.4,182.4c3,17.2,9.4,32.2,18.3,43.3
				c9.4,11.7,21.4,18.4,34.6,19.4c2.2,0.2,3.8,2.1,3.7,4.3C98.9,251.5,97.1,253.1,95,253.1z"/>
		</g>
	</g>
	<g>
		<g>
			<path class="st1" d="M164.5,252.6c-2.1,0-3.8-1.6-4-3.7c-0.2-2.2,1.5-4.1,3.7-4.3c13.2-1,25.2-7.8,34.7-19.4
				c9-11.1,15.4-26.1,18.4-43.3c7-39.5-4.9-90.8-47.5-110.1c-2-0.9-2.9-3.3-2-5.3c0.9-2,3.3-2.9,5.3-2c46.4,21,59.5,76.3,52,118.8
				c-3.3,18.5-10.2,34.8-20,46.9c-10.9,13.5-24.8,21.2-40.3,22.4C164.8,252.6,164.6,252.6,164.5,252.6z"/>
		</g>
	</g>
	<g>
		<g>
			<path class="st1" d="M108.4,254.5c-0.7,0-1.3-0.2-2-0.5c-12.6-7.1-19.5-29.4-23.1-46.8c-4.7-22.4-6.3-48.9-4.5-72.7
				c1.6-21.2,7.5-57.9,28.7-66c2.1-0.8,4.4,0.2,5.2,2.3c0.8,2.1-0.2,4.4-2.3,5.2c-12.3,4.7-21.1,26.8-23.6,59.2
				c-3.7,48.6,7.8,103,23.6,112c1.9,1.1,2.6,3.5,1.5,5.5C111.1,253.7,109.8,254.5,108.4,254.5z"/>
		</g>
	</g>
	<g>
		<g>
			<path class="st1" d="M144.4,254.7c-1.4,0-2.7-0.7-3.5-2c-1.1-1.9-0.4-4.4,1.5-5.5c16.1-9.1,27.7-63.9,24-112.7
				c-2.4-32.2-10.9-53.3-23.2-58c-2.1-0.8-3.1-3.1-2.3-5.2c0.8-2.1,3.1-3.1,5.2-2.3c21,8,26.8,44.1,28.4,64.9
				c1.8,23.8,0.1,50.4-4.7,73.1c-6.7,31.8-16.4,43.2-23.4,47.2C145.8,254.5,145.1,254.7,144.4,254.7z"/>
		</g>
	</g>
</g>
</svg>
