<?xml version="1.0" encoding="utf-8"?>
<!-- Generator: Adobe Illustrator 22.1.0, SVG Export Plug-In . SVG Version: 6.00 Build 0)  -->
<svg version="1.1" id="Layer_1" xmlns="http://www.w3.org/2000/svg" xmlns:xlink="http://www.w3.org/1999/xlink" x="0px" y="0px"
	 viewBox="0 0 256 256" style="enable-background:new 0 0 256 256;" xml:space="preserve">
<style type="text/css">
	.st0{fill:#F5B31F;}
	.st1{fill:#464646;}
	.st2{opacity:0.15;}
	.st3{fill:#AC6535;}
	.st4{fill:#EB573B;}
	.st5{fill:#90C056;}
	.st6{opacity:0.35;}
	.st7{fill:#FFFFFF;}
	.st8{opacity:0.2;}
	.st9{fill:#F6D67A;}
	.st10{opacity:0.3;}
	.st11{fill:#FFA755;}
	.st12{fill:#8FAE3C;}
	.st13{fill:#BE6BB2;}
	.st14{fill:#B7C536;}
	.st15{opacity:0.1;}
	.st16{fill:#9D5A96;}
	.st17{fill:#EA615D;}
	.st18{opacity:0.4;}
	.st19{fill:#F79932;}
	.st20{fill:#FFEC97;}
	.st21{fill:#FFD11D;}
	.st22{fill:#F7F2D5;}
	.st23{fill:#F6AF72;}
	.st24{fill:#BA6C45;}
	.st25{opacity:0.5;}
	.st26{fill:#E4C074;}
	.st27{fill:#656566;}
	.st28{fill:#FACD1F;}
	.st29{fill:#FFDF66;}
	.st30{fill:#6D6E71;}
	.st31{fill:#E77CAE;}
	.st32{fill:#FFE5C4;}
	.st33{fill:#F68455;}
	.st34{opacity:0.7;}
	.st35{fill:#ADEDFF;}
	.st36{fill:#EC754B;}
	.st37{fill:#4AA5BA;}
	.st38{opacity:0.8;}
	.st39{fill:#92A5AC;}
	.st40{fill:#D06E3C;}
	.st41{fill:#DA4F4B;}
	.st42{fill:#BDF3FF;}
	.st43{fill:#F18BB4;}
	.st44{fill:#F9D97A;}
	.st45{fill:none;}
	.st46{fill:#AF6535;}
	.st47{fill:#B93226;}
	.st48{fill:#FF6050;}
	.st49{fill:#EA7CB1;}
	.st50{fill:#00B0E0;}
	.st51{fill:#EA7DAE;}
	.st52{fill:#BC7532;}
	.st53{fill:#876C6C;}
	.st54{fill:#F9F6CD;}
	.st55{fill:#FFE37B;}
	.st56{fill:#1DDCFF;}
	.st57{fill:#60ACF7;}
	.st58{fill:#C3755A;}
	.st59{fill:#96557A;}
	.st60{fill:#66625D;}
	.st61{fill:#D68032;}
	.st62{fill:#F2A355;}
	.st63{fill:#7E9E6A;}
	.st64{fill:#965A85;}
	.st65{fill:#90CAD3;}
	.st66{fill:#94B57F;}
	.st67{fill:#B2E2E7;}
	.st68{fill:#FFDF8F;}
	.st69{fill:#FFFAEB;}
	.st70{fill:#F88916;}
	.st71{fill:#FFC86E;}
	.st72{fill:#AFA51D;}
	.st73{fill:#968A1C;}
	.st74{fill:#C3556D;}
</style>
<g>
	<g>
		<g>
			<path class="st37" d="M250,128c-13.6,42.3-70.7,95.4-120.4,120.5C152.8,218.2,44.1,94.9,8.5,120.7c28.6-52,85.1-97.1,121.6-114.5
				S263.6,85.7,250,128z"/>
		</g>
	</g>
	<g class="st15">
		<g>
			<path d="M238.6,82.4c10.1,17,15.3,33.5,11.4,45.6c-13.6,42.3-70.7,95.4-120.4,120.5c3.3-4.4,3.9-10.7,2.4-18.2
				c0,0,60.1-44.2,86.7-80.3S238.6,82.4,238.6,82.4z"/>
		</g>
	</g>
	<g class="st10">
		<g>
			<path class="st7" d="M165,10.9c-13.2-6.5-25.4-8.9-34-4.8C94.5,23.5,38,68.7,9.4,120.7c13.4-9.7,37,1.6,60.1,21.1
				c0,0-27.2-24.2-7.3-56.1S165,10.9,165,10.9z"/>
		</g>
	</g>
	<g>
		<g>
			<path class="st32" d="M129.6,248.5C99.2,273.6-16.8,159.4,8.5,120.7C44.1,94.9,152.8,218.2,129.6,248.5z"/>
		</g>
	</g>
	<g class="st15">
		<g>
			<path d="M126.1,213.5c6.9,14.8,9.1,27.6,3.4,35c-20.4,16.9-79.5-29.2-108.4-73c0,0,66,58.1,87.3,59.4
				C129.9,236.2,126.1,213.5,126.1,213.5z"/>
		</g>
	</g>
	<g>
		<g>
			<path class="st1" d="M118.6,256.1c-17.5,0-41.5-15.5-61.1-33c-18.6-16.6-35-36.4-45.2-54.2c-12.2-21.5-14.7-38.9-7.2-50.3
				c0.3-0.4,0.6-0.8,1-1.1c19.8-14.3,55.4,9.9,82.1,37.3c32.9,33.8,58.7,77.7,44.5,96.3c-0.2,0.2-0.4,0.5-0.6,0.7
				C128.4,254.7,123.8,256.1,118.6,256.1z M129.6,248.5L129.6,248.5L129.6,248.5z M11.4,123.5c-5.1,8.7-2.3,23.4,7.9,41.4
				c9.8,17.2,25.6,36.2,43.6,52.2c28,25,53.5,36.4,63.8,28.7c9-13-10.7-51.1-44.2-85.5C52.8,129.8,24.4,115.2,11.4,123.5z"/>
		</g>
	</g>
	<g>
		<g>
			<path class="st1" d="M129.6,252.5c-1.2,0-2.3-0.5-3.1-1.4c-1.2-1.4-1.2-3.5-0.1-5c9.6-12.6-10.1-51.1-43.9-85.8
				c-30.2-31-59-45.6-71.7-36.4c-1.5,1.1-3.6,1-5-0.2c-1.4-1.2-1.8-3.3-0.9-4.9C32.8,68.1,89.3,21.1,128.3,2.5
				C144.3-5,171,5.6,200,30.9c33.1,29,62.3,72.1,53.8,98.3c-6.6,20.4-23.5,44.7-47.7,68.3c-22.5,22-49.8,41.9-74.7,54.5
				C130.8,252.4,130.2,252.5,129.6,252.5z M20.1,113.1c20.1,0,46.9,19.7,68.1,41.5c16.3,16.7,30.6,35.9,39.2,52.5
				c6.9,13.3,10,24.4,9.2,33c55.1-30.7,99.2-81.6,109.5-113.4c3.2-10-0.7-24.9-10.9-42.2c-9.6-16.1-24.4-33.5-40.6-47.7
				C169,14.5,144.3,3.8,131.8,9.8c-35.5,16.9-85.9,58-114.3,103.5C18.3,113.2,19.2,113.1,20.1,113.1z"/>
		</g>
	</g>
	<g>
		<g>
			<path class="st1" d="M73.2,213.1c-2,0-3.8-1.5-4-3.6l-2.5-24.6l-18.2-18.3c-1.6-1.6-1.6-4.1,0-5.7c1.6-1.6,4.1-1.6,5.7,0
				l19.2,19.3c0.6,0.6,1.1,1.5,1.1,2.4l2.7,26c0.2,2.2-1.4,4.2-3.6,4.4C73.5,213.1,73.3,213.1,73.2,213.1z"/>
		</g>
	</g>
	<g>
		<g>
			<path class="st1" d="M89.3,191.6c-0.3,0-0.6,0-0.9-0.1L69.6,187c-2.1-0.5-3.5-2.7-3-4.8c0.5-2.1,2.7-3.5,4.8-3l18.8,4.5
				c2.1,0.5,3.5,2.7,3,4.8C92.8,190.4,91.1,191.6,89.3,191.6z"/>
		</g>
	</g>
	<g>
		<g>
			<path class="st1" d="M224.6,101c-1.4,0-2.8-0.8-3.5-2.1c-9.1-16.6-22.8-32-42-46.9c-1.7-1.4-2.1-3.9-0.7-5.6
				c1.4-1.7,3.9-2.1,5.6-0.7c20.1,15.7,34.5,31.8,44.1,49.4c1.1,1.9,0.3,4.4-1.6,5.4C225.9,100.9,225.2,101,224.6,101z"/>
		</g>
	</g>
</g>
</svg>
