<?xml version="1.0" encoding="utf-8"?>
<!-- Generator: Adobe Illustrator 22.1.0, SVG Export Plug-In . SVG Version: 6.00 Build 0)  -->
<svg version="1.1" id="Layer_1" xmlns="http://www.w3.org/2000/svg" xmlns:xlink="http://www.w3.org/1999/xlink" x="0px" y="0px"
	 viewBox="0 0 256 256" style="enable-background:new 0 0 256 256;" xml:space="preserve">
<style type="text/css">
	.st0{fill:#F5B31F;}
	.st1{fill:#464646;}
	.st2{opacity:0.15;}
	.st3{fill:#AC6535;}
	.st4{fill:#EB573B;}
	.st5{fill:#90C056;}
	.st6{opacity:0.35;}
	.st7{fill:#FFFFFF;}
	.st8{opacity:0.2;}
	.st9{fill:#F6D67A;}
	.st10{opacity:0.3;}
	.st11{fill:#FFA755;}
	.st12{fill:#8FAE3C;}
	.st13{fill:#BE6BB2;}
	.st14{fill:#B7C536;}
	.st15{opacity:0.1;}
	.st16{fill:#9D5A96;}
	.st17{fill:#EA615D;}
	.st18{opacity:0.4;}
	.st19{fill:#F79932;}
	.st20{fill:#FFEC97;}
	.st21{fill:#FFD11D;}
	.st22{fill:#F7F2D5;}
	.st23{fill:#F6AF72;}
	.st24{fill:#BA6C45;}
	.st25{opacity:0.5;}
	.st26{fill:#E4C074;}
	.st27{fill:#656566;}
	.st28{fill:#FACD1F;}
	.st29{fill:#FFDF66;}
	.st30{fill:#6D6E71;}
	.st31{fill:#E77CAE;}
	.st32{fill:#FFE5C4;}
	.st33{fill:#F68455;}
	.st34{opacity:0.7;}
	.st35{fill:#ADEDFF;}
	.st36{fill:#EC754B;}
	.st37{fill:#4AA5BA;}
	.st38{opacity:0.8;}
	.st39{fill:#92A5AC;}
	.st40{fill:#D06E3C;}
	.st41{fill:#DA4F4B;}
	.st42{fill:#BDF3FF;}
	.st43{fill:#F18BB4;}
	.st44{fill:#F9D97A;}
	.st45{fill:none;}
	.st46{fill:#AF6535;}
	.st47{fill:#B93226;}
	.st48{fill:#FF6050;}
	.st49{fill:#EA7CB1;}
	.st50{fill:#00B0E0;}
	.st51{fill:#EA7DAE;}
	.st52{fill:#BC7532;}
	.st53{fill:#876C6C;}
	.st54{fill:#F9F6CD;}
	.st55{fill:#FFE37B;}
	.st56{fill:#1DDCFF;}
	.st57{fill:#60ACF7;}
	.st58{fill:#C3755A;}
	.st59{fill:#96557A;}
	.st60{fill:#66625D;}
	.st61{fill:#D68032;}
	.st62{fill:#F2A355;}
	.st63{fill:#7E9E6A;}
	.st64{fill:#965A85;}
	.st65{fill:#90CAD3;}
	.st66{fill:#94B57F;}
	.st67{fill:#B2E2E7;}
	.st68{fill:#FFDF8F;}
	.st69{fill:#FFFAEB;}
	.st70{fill:#F88916;}
	.st71{fill:#FFC86E;}
	.st72{fill:#AFA51D;}
	.st73{fill:#968A1C;}
	.st74{fill:#C3556D;}
</style>
<g>
	<g>
		<g>
			<path class="st4" d="M159.6,222.7c-3.5-3-7.5-7.7-11.3-13.5c7.9-1,15.4-3.1,20.2-5c3.3-1.3,7.1-3.5,11.3-6.2
				c9.8,3.8,20.3-0.2,27.8,2.6c4.3,1.3,8.8,4.3,10.9,8.3c1.1,2.1,1.5,4.5,0.7,7c-0.3,1.1-0.9,2.2-1.7,3.3
				C209.7,230.9,176.8,238.2,159.6,222.7z"/>
		</g>
	</g>
	<g class="st15">
		<g>
			<path d="M218.4,208.9c1.1,2.1,1.5,4.5,0.7,7c-0.3,1.1-0.9,2.2-1.7,3.3c-7.7,11.6-30.1,17.4-50.2,7.3c0,0,18.3,0,32.1-3.4
				C213,219.8,218.4,208.9,218.4,208.9z"/>
		</g>
	</g>
	<g class="st15">
		<g>
			<path d="M190.6,199.8c-3.6,0-7.3-0.4-10.9-1.7c-4.2,2.7-8,4.8-11.3,6.2c-4.8,1.9-12.3,4-20.2,5c3.9,5.8,4.8,7.6,8.3,10.7
				C168.6,214.6,179.9,207.8,190.6,199.8z"/>
		</g>
	</g>
	<g>
		<g>
			<path class="st4" d="M162.8,161.8c-3.6,2.1-7.6,3.9-12.9,5.7c-6.2,2.2-12.9,2.9-18.8,4.7c-1.3-4.3-2.3-8.6-3.1-13
				c-4.8-26.8,17.2-39.4,29-31.3C164.1,132.8,162.5,147.1,162.8,161.8z"/>
		</g>
	</g>
	<g>
		<g>
			<path class="st4" d="M234.3,124c-1.4-3.8-4.1-6.9-8.5-9.1c-4.9-2.5-9.5-1.7-13.9,1c-0.8-6.2-2.8-16.4-8.1-16.9
				c-7.7-0.7-10.1,9.7-16,15.6s-16.3,16.9-25.6,8.7c-9.3-8.2-14.1-25.8,8.6-45s50.1-16.6,65.3-7.8s16.8,27.3,15.6,34.2
				C250.7,110.5,246.2,125.6,234.3,124z"/>
		</g>
	</g>
	<g class="st15">
		<g>
			<path d="M187.8,114.6c-5.9,5.9-16.3,16.9-25.6,8.7c-5.6-4.9-9.5-13.2-6.9-23.1c0,0,4,12.3,13.4,14.9
				C178.2,117.6,187.8,114.6,187.8,114.6z"/>
		</g>
	</g>
	<g>
		<g>
			<path class="st4" d="M179.7,198c-4.2,2.7-8,4.8-11.3,6.2c-4.8,1.9-12.3,4-20.2,5c-16.2,2.1-34.1,0-33.3-15.9
				c0.8-14,7.5-18.6,16.1-21.1c5.9-1.7,12.6-2.5,18.8-4.7c5.2-1.8,9.3-3.7,12.9-5.7c6.8-3.9,11.9-8.6,20.2-15.2
				c9-7.1,18.3-24.3,28.9-30.8c4.4-2.6,9-3.5,13.9-1c4.3,2.2,7,5.4,8.5,9.1c4.1,10.9-2.6,26.7-12,37.4
				C212.5,172.7,194.2,188.7,179.7,198z"/>
		</g>
	</g>
	<g class="st15">
		<g>
			<path d="M179.7,198c-4.2,2.7-8,4.8-11.3,6.2c-4.8,1.9-12.3,4-20.2,5c-16.2,2.1-34.1,0-33.3-15.9c0.8-14,7.5-18.6,16.1-21.1
				c0,0-13,14.6-0.5,24.6C143.2,206.9,179.7,198,179.7,198z"/>
		</g>
	</g>
	<g>
		<g>
			<path class="st4" d="M65.5,222.4c-17.7-6.7-36.6-37.6-36.4-59.5c0.2-22,18.7-40.4,31.9-34.4c13.2,6,8.7,19.3,7.6,34.7
				c-1.2,15.4,8.9,19.4,20.2,14.3c11.3-5,19.4,0.9,23,6.4s2.5,21.5-7.1,29.7C95.1,221.8,83.2,229.2,65.5,222.4z"/>
		</g>
	</g>
	<g class="st15">
		<g>
			<path d="M111.9,202.6c-1.4,4.1-3.8,8-7.2,11c-9.6,8.2-21.5,15.5-39.2,8.8c-8.7-3.3-17.7-12.4-24.6-23.5c0,0,16.8,16,36.1,16.6
				C96.4,216.2,111.9,202.6,111.9,202.6z"/>
		</g>
	</g>
	<g>
		<g>
			<path class="st4" d="M71,131.2c-7.4-3.2-11.6-12.4-9-23.3c2.6-10.9,4.2-15.8-1.2-23.4c-5.1-7.2-42.3-18.4-43.2-40
				c-0.1-1.3,0-2.6,0.2-3.9c0.4-2.3,1-4.2,2-5.9c9.2-16.2,44.4-4.5,66,23.3c23.8,30.7,17.4,55.8,9.4,65.7
				C87.3,133.5,78.4,134.4,71,131.2z"/>
		</g>
	</g>
	<g class="st15">
		<g>
			<path d="M100.7,112.9c-1.4,4.5-3.4,8.2-5.4,10.7c-8,9.8-16.8,10.7-24.3,7.6c-7.4-3.2-11.6-12.4-9-23.3c0,0,1.3,12.4,15.8,14.6
				C92.4,124.7,100.7,112.9,100.7,112.9z"/>
		</g>
	</g>
	<g class="st8">
		<g>
			<path class="st7" d="M85.9,58c-21.6-27.9-56.8-39.5-66-23.3c-0.9,1.7-1.6,3.6-2,5.9c-0.2,1.3-0.3,2.7-0.2,3.9
				c0,0,7.6-9.2,24.4-7.2C58.9,39.3,85.9,58,85.9,58z"/>
		</g>
	</g>
	<g>
		<g>
			<path class="st1" d="M78.6,136.8c-3,0-6.1-0.6-9.1-1.9c-9.6-4.1-14.3-15.6-11.3-27.9l0.4-1.6c2.3-9.6,3.1-12.8-1-18.6
				c-1.1-1.5-6.2-4.4-10.7-6.9c-13.7-7.7-32.5-18.1-33.2-35.3c-0.1-1.6,0-3.1,0.3-4.7c0.4-2.7,1.2-5.1,2.5-7.2
				c3.2-5.6,8.8-8.8,16.2-9.3c17.3-1.2,41,12.3,56.4,32.2c25.7,33.1,18,60,9.4,70.6C92.7,133.2,85.8,136.8,78.6,136.8z M35,31.3
				c-0.6,0-1.2,0-1.8,0.1c-4.7,0.3-8,2.1-9.8,5.3c-0.7,1.3-1.2,2.8-1.5,4.5c-0.2,1.1-0.2,2.1-0.2,3.1c0.5,12.7,17,21.9,29.1,28.6
				c6.5,3.7,11.3,6.3,13.4,9.3c6.2,8.7,4.7,14.9,2.2,25.1l-0.4,1.6c-2,8.5,0.7,16.2,6.6,18.7c7.1,3,13.7,0.9,19.6-6.4
				c6.6-8.2,13.2-31.5-9.5-60.7C71.5,46,51.3,31.3,35,31.3z"/>
		</g>
	</g>
	<g>
		<g>
			<path class="st1" d="M78.7,229c-4.5,0-9.4-0.9-14.7-2.9c0,0,0,0,0,0c-19.1-7.3-39.2-39.8-39-63.3c0.1-14.3,7.5-28.6,18.4-35.6
				c6.5-4.2,13.3-5,19.2-2.4c13.6,6.1,12.1,18.8,10.7,31c-0.3,2.5-0.6,5.1-0.8,7.7c-0.4,5.3,0.7,9.2,3.2,10.9
				c2.5,1.8,6.7,1.6,11.4-0.5c13-5.8,23.2,0.6,28,7.8c4.7,7.1,3.4,25.3-7.8,34.9C100.1,222.8,90.9,229,78.7,229z M66.9,218.7
				c15.6,6,26.1-0.4,35.2-8.1c8.3-7.1,8.8-20.8,6.4-24.4c-1.6-2.4-7.4-9.7-18.1-4.9c-7.4,3.3-14.4,3.2-19.3-0.3
				c-3.4-2.4-7.3-7.5-6.5-18c0.2-2.8,0.5-5.4,0.8-8c1.5-12.5,1.8-19.2-6-22.8c-4.4-2-9.1,0.3-11.5,1.8c-7,4.5-14.7,15.5-14.7,28.9
				C32.9,183.3,50.6,212.5,66.9,218.7L66.9,218.7z"/>
		</g>
	</g>
	<g>
		<g>
			<path class="st1" d="M138.3,213.9c-8.1,0-16.5-1.5-21.9-6.5c-3.8-3.5-5.7-8.5-5.3-14.3c0.9-17.3,10.6-22.3,19-24.8
				c2.7-0.8,5.5-1.4,8.3-2c3.5-0.7,7.1-1.5,10.3-2.6c4.8-1.7,8.6-3.4,12.2-5.4c4.8-2.8,8.8-6,13.8-10.1c1.8-1.5,3.8-3,5.9-4.8
				c3.6-2.8,7.4-7.7,11.5-12.8c5.5-7,11.3-14.3,17.9-18.3c6-3.6,12-4,17.8-1.1c5,2.5,8.5,6.3,10.4,11.3c3.5,9.4,1,25.9-12.7,41.5
				c-10.7,12.1-29.3,28.2-43.4,37.3c0,0,0,0,0,0c-4.6,2.9-8.6,5.1-11.9,6.5c-5.6,2.3-13.5,4.3-21.1,5.3
				C145.6,213.6,141.9,213.9,138.3,213.9z M219.9,117.4c-1.9,0-3.8,0.6-5.9,1.9c-5.3,3.2-10.6,9.9-15.7,16.4
				c-4.3,5.5-8.5,10.7-12.8,14.1c-2.1,1.7-4,3.2-5.8,4.7c-5.3,4.3-9.5,7.7-14.8,10.8c-4,2.3-8.3,4.2-13.6,6.1
				c-3.8,1.3-7.6,2.1-11.3,2.9c-2.7,0.6-5.3,1.1-7.7,1.8c-7.7,2.3-12.6,6-13.3,17.5c-0.2,3.5,0.7,6.1,2.8,8c4.3,3.9,13.7,5.3,26,3.7
				c8.2-1.1,15.3-3.2,19.2-4.8c2.9-1.2,6.5-3.1,10.6-5.8c13.6-8.8,31.5-24.2,41.7-35.8c8.3-9.4,14.8-24,11.3-33.4
				c-1.2-3.1-3.3-5.3-6.5-7C222.6,117.8,221.3,117.4,219.9,117.4z M179.7,198L179.7,198L179.7,198z"/>
		</g>
	</g>
	<g>
		<g>
			<path class="st1" d="M169.4,130.2c-3.2,0-6.5-1.1-9.7-4c-5.9-5.1-9.2-12.5-9.1-20.2c0.1-7.3,3.2-18.5,17.7-30.9
				c23.4-19.9,52.6-18.2,69.9-8.3c17.8,10.3,18.7,31.7,17.6,38.3c-1.6,9.3-7.9,24.5-21.8,22.8c-1.5-0.2-2.7-1.2-3.2-2.6
				c-1.2-3.1-3.3-5.3-6.5-7c-3.3-1.7-6.4-1.4-10,0.8c-1.2,0.7-2.6,0.8-3.8,0.2c-1.2-0.6-2.1-1.8-2.2-3.1c-1.2-10-3.7-13.3-4.5-13.4
				c-2.4-0.2-4,1.9-7.1,6.8c-1.6,2.5-3.4,5.3-5.7,7.6l-0.5,0.5C185.8,122.3,177.9,130.2,169.4,130.2z M209.7,67.7
				c-11.8,0-24.8,3.9-36.3,13.6c-9.7,8.2-14.8,16.8-14.9,24.8c0,5.4,2.3,10.5,6.4,14.2c5.2,4.6,11.1,0.5,19.6-8l0.5-0.5
				c1.7-1.7,3.2-4,4.6-6.2c3.2-5,7.1-11.2,14.6-10.5c5.3,0.5,9,5.6,10.9,15.1c4.3-1.3,8.5-0.8,12.6,1.2c4.1,2.1,7.2,5,9.3,8.8
				c1.8-0.2,4.4-1.3,6.8-5.1c2.2-3.5,3.5-8,4.1-11c0.7-4.3,0.5-21.9-13.7-30.1C227.5,70.1,219,67.7,209.7,67.7z"/>
		</g>
	</g>
	<g>
		<g>
			<path class="st1" d="M131.2,176.2c-1.7,0-3.3-1.1-3.8-2.9c-1.4-4.5-2.4-9-3.2-13.4c-2.1-11.5,0.1-26.6,12.5-34.6
				c7.4-4.8,16.3-5.1,22.7-0.7c7.6,5.2,7.5,16.4,7.5,29.3c0,2.5,0,5.2,0,7.7c0,1.5-0.7,2.8-2,3.5c-4,2.3-8.3,4.2-13.5,6.1
				c-3.8,1.3-7.6,2.1-11.3,2.9c-2.7,0.6-5.3,1.1-7.7,1.8C131.9,176.1,131.6,176.2,131.2,176.2z M149,129.5c-2.6,0-5.4,0.9-8,2.5
				c-2.9,1.9-12,9.3-8.9,26.5c0.5,2.9,1.2,5.8,2,8.8c1.5-0.3,2.9-0.6,4.4-1c3.5-0.7,7.1-1.5,10.3-2.6c3.9-1.3,7.1-2.7,10.1-4.3
				c0-1.9,0-3.7,0-5.5c0-10.3,0-19.9-4-22.7C153.1,130.1,151.1,129.5,149,129.5z"/>
		</g>
	</g>
	<g>
		<g>
			<path class="st1" d="M185.6,235.6c-11.3,0-21.5-3.4-28.6-9.8c-3.8-3.2-8-8.2-12-14.3c-0.8-1.1-0.9-2.6-0.3-3.9
				c0.6-1.3,1.7-2.1,3.1-2.3c8.2-1.1,15.3-3.2,19.2-4.8c2.9-1.2,6.5-3.1,10.6-5.8c1.1-0.7,2.4-0.8,3.6-0.4c4.5,1.7,9.4,1.5,14.2,1.4
				c4.5-0.2,9.2-0.3,13.4,1.2c4.5,1.4,10.3,4.8,13.2,10.2c1.7,3.3,2,6.8,0.9,10.1c-0.5,1.5-1.2,3-2.3,4.3
				c-4.4,6.6-15.2,11.9-27.6,13.5C190.5,235.4,188,235.6,185.6,235.6z M155.3,212.1c2.4,3.2,4.8,5.7,7,7.6c0,0,0.1,0,0.1,0.1
				c6.9,6.2,17.7,8.9,29.7,7.4c9.9-1.3,18.9-5.4,22-10.1c0-0.1,0.1-0.1,0.1-0.2c0.5-0.7,0.9-1.4,1.1-2.1c0.4-1.3,0.3-2.6-0.4-4
				c-1.4-2.7-4.8-5.2-8.4-6.3c-0.1,0-0.2-0.1-0.3-0.1c-2.8-1-6.5-0.9-10.5-0.7c-4.7,0.2-10,0.4-15.4-1.2c-3.9,2.4-7.3,4.3-10.3,5.5
				C165.9,209.5,160.7,211,155.3,212.1z"/>
		</g>
	</g>
	<g>
		<g>
			<path class="st4" d="M17.7,44.4L4,47.5l4.5-23.2l11.4,10.4c-0.9,1.7-1.6,3.6-2,5.9C17.7,41.9,17.6,43.2,17.7,44.4z"/>
		</g>
	</g>
	<g>
		<g>
			<path class="st4" d="M232.1,224.4l-13.1-8.5c0.8-2.5,0.4-4.9-0.7-7c6.4-2.1,14.9-4.9,14.9-4.9L232.1,224.4z"/>
		</g>
	</g>
	<g>
		<g>
			<path class="st1" d="M4,51.5c-1,0-2-0.4-2.8-1.1c-1-0.9-1.4-2.3-1.1-3.6l4.5-23.2c0.3-1.4,1.3-2.6,2.7-3c1.4-0.5,2.9-0.1,4,0.8
				l11.4,10.4c1.4,1.3,1.7,3.3,0.8,4.9c-0.7,1.3-1.2,2.8-1.5,4.5c-0.2,1.1-0.2,2.1-0.2,3.1c0.1,1.9-1.2,3.7-3.1,4.1l-13.7,3
				C4.6,51.5,4.3,51.5,4,51.5z M11.1,32.1l-2,10.2l4.7-1c0-0.4,0.1-0.9,0.2-1.3c0.2-1.5,0.6-2.9,1.1-4.2L11.1,32.1z"/>
		</g>
	</g>
	<g>
		<g>
			<path class="st1" d="M232.1,228.4c-0.8,0-1.5-0.2-2.2-0.6l-13.1-8.5c-1.5-1-2.2-2.9-1.6-4.6c0.4-1.3,0.3-2.6-0.4-4
				c-0.5-1-0.6-2.3-0.1-3.4c0.4-1.1,1.3-1.9,2.5-2.3c6.4-2.1,14.8-4.9,14.8-4.9c1.3-0.4,2.6-0.2,3.7,0.6c1.1,0.8,1.6,2.1,1.6,3.4
				l-1.1,20.4c-0.1,1.4-0.9,2.7-2.2,3.3C233.4,228.3,232.7,228.4,232.1,228.4z M223.5,214.1l5,3.3l0.4-7.7c-1.7,0.6-3.6,1.2-5.6,1.8
				C223.5,212.4,223.5,213.2,223.5,214.1z"/>
		</g>
	</g>
</g>
</svg>
