<?xml version="1.0" encoding="utf-8"?>
<!-- Generator: Adobe Illustrator 22.1.0, SVG Export Plug-In . SVG Version: 6.00 Build 0)  -->
<svg version="1.1" id="Layer_1" xmlns="http://www.w3.org/2000/svg" xmlns:xlink="http://www.w3.org/1999/xlink" x="0px" y="0px"
	 viewBox="0 0 256 256" style="enable-background:new 0 0 256 256;" xml:space="preserve">
<style type="text/css">
	.st0{fill:#F5B31F;}
	.st1{fill:#464646;}
	.st2{opacity:0.15;}
	.st3{fill:#AC6535;}
	.st4{fill:#EB573B;}
	.st5{fill:#90C056;}
	.st6{opacity:0.35;}
	.st7{fill:#FFFFFF;}
	.st8{opacity:0.2;}
	.st9{fill:#F6D67A;}
	.st10{opacity:0.3;}
	.st11{fill:#FFA755;}
	.st12{fill:#8FAE3C;}
	.st13{fill:#BE6BB2;}
	.st14{fill:#B7C536;}
	.st15{opacity:0.1;}
	.st16{fill:#9D5A96;}
	.st17{fill:#EA615D;}
	.st18{opacity:0.4;}
	.st19{fill:#F79932;}
	.st20{fill:#FFEC97;}
	.st21{fill:#FFD11D;}
	.st22{fill:#F7F2D5;}
	.st23{fill:#F6AF72;}
	.st24{fill:#BA6C45;}
	.st25{opacity:0.5;}
	.st26{fill:#E4C074;}
	.st27{fill:#656566;}
	.st28{fill:#FACD1F;}
	.st29{fill:#FFDF66;}
	.st30{fill:#6D6E71;}
	.st31{fill:#E77CAE;}
	.st32{fill:#FFE5C4;}
	.st33{fill:#F68455;}
	.st34{opacity:0.7;}
	.st35{fill:#ADEDFF;}
	.st36{fill:#EC754B;}
	.st37{fill:#4AA5BA;}
	.st38{opacity:0.8;}
	.st39{fill:#92A5AC;}
	.st40{fill:#D06E3C;}
	.st41{fill:#DA4F4B;}
	.st42{fill:#BDF3FF;}
	.st43{fill:#F18BB4;}
	.st44{fill:#F9D97A;}
	.st45{fill:none;}
	.st46{fill:#AF6535;}
	.st47{fill:#B93226;}
	.st48{fill:#FF6050;}
	.st49{fill:#EA7CB1;}
	.st50{fill:#00B0E0;}
	.st51{fill:#EA7DAE;}
	.st52{fill:#BC7532;}
	.st53{fill:#876C6C;}
	.st54{fill:#F9F6CD;}
	.st55{fill:#FFE37B;}
	.st56{fill:#1DDCFF;}
	.st57{fill:#60ACF7;}
	.st58{fill:#C3755A;}
	.st59{fill:#96557A;}
	.st60{fill:#66625D;}
	.st61{fill:#D68032;}
	.st62{fill:#F2A355;}
	.st63{fill:#7E9E6A;}
	.st64{fill:#965A85;}
	.st65{fill:#90CAD3;}
	.st66{fill:#94B57F;}
	.st67{fill:#B2E2E7;}
	.st68{fill:#FFDF8F;}
	.st69{fill:#FFFAEB;}
	.st70{fill:#F88916;}
	.st71{fill:#FFC86E;}
	.st72{fill:#AFA51D;}
	.st73{fill:#968A1C;}
	.st74{fill:#C3556D;}
</style>
<g>
	<g>
		<g>
			<path class="st13" d="M128,252L128,252c100,0,131.3-214,18.1-214c-6.6,0-12.6,1.3-18.1,3.9c-5.4-2.5-11.5-3.9-18.1-3.9
				C-3.3,38,28,252,128,252z"/>
		</g>
	</g>
	<g class="st10">
		<g>
			<path class="st7" d="M128,41.9c-5.4-2.5-11.5-3.9-18.1-3.9c-83.1,0-88.4,115.3-45.7,176.7c0,0-26.6-91.6,2.3-135.6
				S128,41.9,128,41.9z"/>
		</g>
	</g>
	<g class="st10">
		<g>
			<path class="st7" d="M166.1,40.5c-75-12.9-84.9,64.8-56.1,172.2C99.6,116.2,109,49.9,166.1,40.5z"/>
		</g>
	</g>
	<g class="st15">
		<g>
			<path d="M107.7,214.6C83.5,129.9,89,72.6,123.5,42C69.5,60.6,75.2,157,107.7,214.6z"/>
		</g>
	</g>
	<g class="st15">
		<g>
			<path d="M187.6,51C248.4,97.4,213,252,128,252h0c-18,0-33.8-6.9-46.9-18.3c0,0,50.2,19.2,90.6-28S187.6,51,187.6,51z"/>
		</g>
	</g>
	<g>
		<g>
			<path class="st1" d="M128,256C128,256,128,256,128,256l0-4L128,256c-29,0-54.9-17.2-72.9-48.3c-11.8-20.5-19.2-45.6-20.8-70.8
				C32.6,111,37.4,86.8,47.7,69c13.2-22.9,34.8-35,62.2-35c0,0,0,0,0,0c6.4,0,12.5,1.2,18.1,3.5c5.6-2.3,11.7-3.5,18.1-3.5
				c27.5,0,49,12.1,62.3,35c10.3,17.8,15.1,41.9,13.4,67.9c-1.6,25.1-9,50.3-20.8,70.8C182.9,238.8,157,256,128,256z M128,248
				L128,248c26.1,0,49.5-15.7,66-44.3c23.6-40.9,26.8-97.1,7.4-130.7c-11.7-20.3-30.9-31-55.3-31c-5.9,0-11.4,1.2-16.4,3.5
				c-1.1,0.5-2.3,0.5-3.4,0c-5-2.3-10.5-3.5-16.4-3.5c0,0,0,0,0,0c-24.5,0-43.6,10.7-55.3,31c-19.4,33.6-16.2,89.8,7.4,130.7
				C78.5,232.3,101.9,248,128,248z"/>
		</g>
	</g>
	<g>
		<g>
			<path class="st1" d="M109.9,216.7c-1.6,0-3.1-1-3.7-2.6c-14.2-37.9-20-76.9-16.4-109.8c3.5-31.7,15.4-54.4,33.6-64.5
				c-4.2-20.2,3.7-33.8,23.1-39.6c2.1-0.6,4.3,0.6,5,2.7s-0.6,4.3-2.7,5c-16.2,4.8-21.5,15.3-16.9,33c0.5,1.9-0.4,3.8-2.2,4.6
				c-17.2,8-28.6,29.2-32,59.7c-3.5,31.7,2.2,69.4,15.9,106.1c0.8,2.1-0.3,4.4-2.3,5.1C110.9,216.6,110.4,216.7,109.9,216.7z"/>
		</g>
	</g>
</g>
</svg>
