<?xml version="1.0" encoding="utf-8"?>
<!-- Generator: Adobe Illustrator 22.1.0, SVG Export Plug-In . SVG Version: 6.00 Build 0)  -->
<svg version="1.1" id="Layer_1" xmlns="http://www.w3.org/2000/svg" xmlns:xlink="http://www.w3.org/1999/xlink" x="0px" y="0px"
	 viewBox="0 0 256 256" style="enable-background:new 0 0 256 256;" xml:space="preserve">
<style type="text/css">
	.st0{fill:#F5B31F;}
	.st1{fill:#464646;}
	.st2{opacity:0.15;}
	.st3{fill:#AC6535;}
	.st4{fill:#EB573B;}
	.st5{fill:#90C056;}
	.st6{opacity:0.35;}
	.st7{fill:#FFFFFF;}
	.st8{opacity:0.2;}
	.st9{fill:#F6D67A;}
	.st10{opacity:0.3;}
	.st11{fill:#FFA755;}
	.st12{fill:#8FAE3C;}
	.st13{fill:#BE6BB2;}
	.st14{fill:#B7C536;}
	.st15{opacity:0.1;}
	.st16{fill:#9D5A96;}
	.st17{fill:#EA615D;}
	.st18{opacity:0.4;}
	.st19{fill:#F79932;}
	.st20{fill:#FFEC97;}
	.st21{fill:#FFD11D;}
	.st22{fill:#F7F2D5;}
	.st23{fill:#F6AF72;}
	.st24{fill:#BA6C45;}
	.st25{opacity:0.5;}
	.st26{fill:#E4C074;}
	.st27{fill:#656566;}
	.st28{fill:#FACD1F;}
	.st29{fill:#FFDF66;}
	.st30{fill:#6D6E71;}
	.st31{fill:#E77CAE;}
	.st32{fill:#FFE5C4;}
	.st33{fill:#F68455;}
	.st34{opacity:0.7;}
	.st35{fill:#ADEDFF;}
	.st36{fill:#EC754B;}
	.st37{fill:#4AA5BA;}
	.st38{opacity:0.8;}
	.st39{fill:#92A5AC;}
	.st40{fill:#D06E3C;}
	.st41{fill:#DA4F4B;}
	.st42{fill:#BDF3FF;}
	.st43{fill:#F18BB4;}
	.st44{fill:#F9D97A;}
	.st45{fill:none;}
	.st46{fill:#AF6535;}
	.st47{fill:#B93226;}
	.st48{fill:#FF6050;}
	.st49{fill:#EA7CB1;}
	.st50{fill:#00B0E0;}
	.st51{fill:#EA7DAE;}
	.st52{fill:#BC7532;}
	.st53{fill:#876C6C;}
	.st54{fill:#F9F6CD;}
	.st55{fill:#FFE37B;}
	.st56{fill:#1DDCFF;}
	.st57{fill:#60ACF7;}
	.st58{fill:#C3755A;}
	.st59{fill:#96557A;}
	.st60{fill:#66625D;}
	.st61{fill:#D68032;}
	.st62{fill:#F2A355;}
	.st63{fill:#7E9E6A;}
	.st64{fill:#965A85;}
	.st65{fill:#90CAD3;}
	.st66{fill:#94B57F;}
	.st67{fill:#B2E2E7;}
	.st68{fill:#FFDF8F;}
	.st69{fill:#FFFAEB;}
	.st70{fill:#F88916;}
	.st71{fill:#FFC86E;}
	.st72{fill:#AFA51D;}
	.st73{fill:#968A1C;}
	.st74{fill:#C3556D;}
</style>
<g>
	<g>
		<g>
			<path class="st21" d="M205.8,206.2c61.4-61.5,51.1-125.8,27.5-149.4c0,0,11.9-26.1,0.8-37.2s-37.2,0.8-37.2,0.8
				C173.3-3.2,102-6.5,47.7,47.9S-3.4,173.7,20.2,197.3c0,0-11.9,26.1-0.8,37.2c11.1,11.1,37.2-0.8,37.2-0.8
				C80.1,257.3,144.4,267.7,205.8,206.2z"/>
		</g>
	</g>
	<g class="st15">
		<g>
			<path d="M233.3,56.8c23.6,23.6,33.9,87.9-27.5,149.4S80.1,257.3,56.5,233.7C164.1,228,223,169,233.3,56.8z"/>
		</g>
	</g>
	<g>
		<g>
			<path class="st1" d="M109,256.2c-21.1,0-40.8-6.5-53.4-17.8c-7.3,2.9-28.4,9.8-39.2-1c-5.6-5.6-7.2-14.5-4.8-26.4
				c1.1-5.4,2.7-10.1,3.8-12.8C3.5,184.4-2.2,160,0.7,133.7C4.2,101.5,19.9,70,44.8,45.1c28.5-28.5,65.7-44.9,102-44.9c0,0,0,0,0,0
				c20.9,0,39.7,5.8,50.9,15.5c7.3-2.9,28.4-9.8,39.2,1c5.6,5.6,7.2,14.5,4.8,26.4c-1.1,5.3-2.7,10.1-3.8,12.8
				c24.2,27,31.3,92.3-29.4,153.1c-35.4,35.5-69.2,45-91.3,46.8C114.5,256,111.7,256.2,109,256.2z M56.5,229.7c1,0,2.1,0.4,2.8,1.2
				c12.3,12.3,34.3,18.8,57.3,17c20.8-1.7,52.6-10.7,86.3-44.5c33.7-33.8,42.8-65.6,44.5-86.4c1.8-23-4.7-45-17-57.4
				c-1.2-1.2-1.5-3-0.8-4.5c3-6.6,9.1-25.3,1.7-32.8c-4.5-4.5-12.9-3.9-19.1-2.7c-7.4,1.5-13.5,4.3-13.6,4.3
				c-1.5,0.7-3.3,0.4-4.5-0.8c-9.4-9.4-27.1-15-47.2-15c0,0,0,0,0,0c-34.2,0-69.3,15.5-96.4,42.5C26.9,74.4,12,104.1,8.7,134.6
				C5.9,159.5,11.6,183,23,194.5c1.2,1.2,1.5,3,0.8,4.5c-3,6.6-9.1,25.3-1.7,32.8c4.5,4.5,12.9,3.9,19.1,2.7
				c7.4-1.5,13.5-4.3,13.6-4.3C55.4,229.8,56,229.7,56.5,229.7z"/>
		</g>
	</g>
	<g>
		<g>
			<path class="st1" d="M31.1,168.8c-1.7,0-3.3-1.1-3.8-2.9c-6.1-21.2-4.2-42.7,5.7-63.9c0.9-2,3.3-2.9,5.3-1.9
				c2,0.9,2.9,3.3,1.9,5.3c-9.1,19.4-10.8,39-5.3,58.2c0.6,2.1-0.6,4.3-2.7,5C31.9,168.7,31.5,168.8,31.1,168.8z"/>
		</g>
	</g>
</g>
</svg>
