<?xml version="1.0" encoding="utf-8"?>
<!-- Generator: Adobe Illustrator 22.1.0, SVG Export Plug-In . SVG Version: 6.00 Build 0)  -->
<svg version="1.1" id="Layer_1" xmlns="http://www.w3.org/2000/svg" xmlns:xlink="http://www.w3.org/1999/xlink" x="0px" y="0px"
	 viewBox="0 0 256 256" style="enable-background:new 0 0 256 256;" xml:space="preserve">
<style type="text/css">
	.st0{fill:#F5B31F;}
	.st1{fill:#464646;}
	.st2{opacity:0.15;}
	.st3{fill:#AC6535;}
	.st4{fill:#EB573B;}
	.st5{fill:#90C056;}
	.st6{opacity:0.35;}
	.st7{fill:#FFFFFF;}
	.st8{opacity:0.2;}
	.st9{fill:#F6D67A;}
	.st10{opacity:0.3;}
	.st11{fill:#FFA755;}
	.st12{fill:#8FAE3C;}
	.st13{fill:#BE6BB2;}
	.st14{fill:#B7C536;}
	.st15{opacity:0.1;}
	.st16{fill:#9D5A96;}
	.st17{fill:#EA615D;}
	.st18{opacity:0.4;}
	.st19{fill:#F79932;}
	.st20{fill:#FFEC97;}
	.st21{fill:#FFD11D;}
	.st22{fill:#F7F2D5;}
	.st23{fill:#F6AF72;}
	.st24{fill:#BA6C45;}
	.st25{opacity:0.5;}
	.st26{fill:#E4C074;}
	.st27{fill:#656566;}
	.st28{fill:#FACD1F;}
	.st29{fill:#FFDF66;}
	.st30{fill:#6D6E71;}
	.st31{fill:#E77CAE;}
	.st32{fill:#FFE5C4;}
	.st33{fill:#F68455;}
	.st34{opacity:0.7;}
	.st35{fill:#ADEDFF;}
	.st36{fill:#EC754B;}
	.st37{fill:#4AA5BA;}
	.st38{opacity:0.8;}
	.st39{fill:#92A5AC;}
	.st40{fill:#D06E3C;}
	.st41{fill:#DA4F4B;}
	.st42{fill:#BDF3FF;}
	.st43{fill:#F18BB4;}
	.st44{fill:#F9D97A;}
	.st45{fill:none;}
	.st46{fill:#AF6535;}
	.st47{fill:#B93226;}
	.st48{fill:#FF6050;}
	.st49{fill:#EA7CB1;}
	.st50{fill:#00B0E0;}
	.st51{fill:#EA7DAE;}
	.st52{fill:#BC7532;}
	.st53{fill:#876C6C;}
	.st54{fill:#F9F6CD;}
	.st55{fill:#FFE37B;}
	.st56{fill:#1DDCFF;}
	.st57{fill:#60ACF7;}
	.st58{fill:#C3755A;}
	.st59{fill:#96557A;}
	.st60{fill:#66625D;}
	.st61{fill:#D68032;}
	.st62{fill:#F2A355;}
	.st63{fill:#7E9E6A;}
	.st64{fill:#965A85;}
	.st65{fill:#90CAD3;}
	.st66{fill:#94B57F;}
	.st67{fill:#B2E2E7;}
	.st68{fill:#FFDF8F;}
	.st69{fill:#FFFAEB;}
	.st70{fill:#F88916;}
	.st71{fill:#FFC86E;}
	.st72{fill:#AFA51D;}
	.st73{fill:#968A1C;}
	.st74{fill:#C3556D;}
</style>
<g>
	<g>
		<g>
			<path class="st21" d="M251.7,128.1c0,68.5-55.5,124-123.9,124C59.4,252.1,4,196.6,4,128.1c0-68.5,55.5-124,123.9-124
				C196.3,4.1,251.7,59.7,251.7,128.1z"/>
		</g>
	</g>
	<g>
		<g>
			<path class="st11" d="M135.2,143.4l0,85.7c23.4,1.1,43.9-6.7,60.5-26.1L135.2,143.4z"/>
		</g>
	</g>
	<g>
		<g>
			<path class="st11" d="M121.8,113.7l0-85.7C98.4,26.9,78,34.7,61.4,54.2L121.8,113.7z"/>
		</g>
	</g>
	<g>
		<g>
			<path class="st11" d="M143.7,134.3l60.5,60.6c17.4-15.8,26.3-35.8,24.3-61.3L143.7,134.3z"/>
		</g>
	</g>
	<g>
		<g>
			<path class="st11" d="M113.3,122.8L52.8,62.2C35.4,78,26.5,98,28.5,123.5L113.3,122.8z"/>
		</g>
	</g>
	<g>
		<g>
			<path class="st11" d="M143.3,121.9l85.6,0c1.1-23.4-6.7-43.9-26.1-60.5L143.3,121.9z"/>
		</g>
	</g>
	<g>
		<g>
			<path class="st11" d="M113.7,135.2l-85.6,0c-1.1,23.4,6.7,43.9,26.1,60.5L113.7,135.2z"/>
		</g>
	</g>
	<g>
		<g>
			<path class="st11" d="M134.3,113.3l60.5-60.6C179,35.4,159,26.5,133.6,28.5L134.3,113.3z"/>
		</g>
	</g>
	<g>
		<g>
			<path class="st11" d="M122.7,143.8l-60.5,60.6c15.8,17.4,35.8,26.3,61.2,24.3L122.7,143.8z"/>
		</g>
	</g>
	<g>
		<g>
			<path class="st1" d="M127.9,256.1C127.9,256.1,127.9,256.1,127.9,256.1c-34.2,0-66.3-13.3-90.4-37.5C13.3,194.5,0,162.3,0,128.1
				c0-34.2,13.3-66.3,37.5-90.5C61.6,13.5,93.7,0.1,127.9,0.1c0,0,0,0,0,0c70.5,0,127.9,57.4,127.9,128l0,0
				c0,34.2-13.3,66.3-37.5,90.5C194.1,242.8,162,256.1,127.9,256.1z M127.9,8.1c-32,0-62.1,12.5-84.8,35.1C20.5,65.9,8,96.1,8,128.1
				c0,32.1,12.5,62.2,35.1,84.9c22.6,22.7,52.7,35.1,84.8,35.2c0,0,0,0,0,0c32,0,62.1-12.5,84.8-35.1c22.6-22.7,35.1-52.8,35.1-84.9
				C247.7,62,194,8.1,127.9,8.1C127.9,8.1,127.9,8.1,127.9,8.1z M251.7,128.1L251.7,128.1L251.7,128.1z"/>
		</g>
	</g>
	<g>
		<g>
			<path class="st1" d="M139.4,233.2c-1.5,0-3,0-4.5-0.1c-2.1-0.1-3.8-1.9-3.8-4l0-85.7c0-1.6,1-3.1,2.5-3.7
				c1.5-0.6,3.2-0.3,4.4,0.8l60.5,59.5c1.5,1.5,1.6,3.9,0.2,5.4C183,223.9,163.1,233.2,139.4,233.2z M139.1,225.2c0.1,0,0.3,0,0.4,0
				c20.2,0,36.8-7.2,50.6-22.1L139.2,153L139.1,225.2z"/>
		</g>
	</g>
	<g>
		<g>
			<path class="st1" d="M121.8,117.7c-1,0-2-0.4-2.8-1.1L58.6,57c-1.5-1.5-1.6-3.9-0.2-5.4C75,32.1,96.4,22.8,122,24
				c2.1,0.1,3.8,1.9,3.8,4l0,85.7c0,1.6-1,3.1-2.5,3.7C122.9,117.6,122.4,117.7,121.8,117.7z M66.9,54l50.9,50.2l0-72.2
				C97.5,31.8,80.8,39.1,66.9,54z"/>
		</g>
	</g>
	<g>
		<g>
			<path class="st1" d="M204.2,198.9c-1,0-2.1-0.4-2.8-1.2l-60.5-60.6c-1.1-1.1-1.5-2.9-0.9-4.3c0.6-1.5,2.1-2.5,3.7-2.5l84.8-0.7
				c0,0,0,0,0,0c2.1,0,3.8,1.6,4,3.7c2,25.6-6.6,47.3-25.6,64.6C206.1,198.6,205.2,198.9,204.2,198.9z M153.3,138.3l51,51.1
				c14.5-14.3,21.2-31.3,20.4-51.7L153.3,138.3z"/>
		</g>
	</g>
	<g>
		<g>
			<path class="st1" d="M28.5,127.5c-2.1,0-3.8-1.6-4-3.7c-2-25.6,6.6-47.3,25.6-64.6c1.6-1.4,4-1.4,5.5,0.1l60.5,60.6
				c1.1,1.1,1.5,2.9,0.9,4.3c-0.6,1.5-2.1,2.5-3.7,2.5L28.5,127.5C28.5,127.5,28.5,127.5,28.5,127.5z M52.7,67.8
				c-14.5,14.3-21.2,31.3-20.4,51.7l71.5-0.6L52.7,67.8z"/>
		</g>
	</g>
	<g>
		<g>
			<path class="st1" d="M228.9,125.9L228.9,125.9l-85.6,0c-1.6,0-3.1-1-3.7-2.5s-0.3-3.2,0.8-4.4l59.5-60.5c1.5-1.5,3.9-1.6,5.5-0.2
				c19.5,16.7,28.7,38.1,27.5,63.8C232.8,124.2,231.1,125.9,228.9,125.9z M152.9,117.9l72.2,0c0.1-20.4-7.1-37.1-22-51L152.9,117.9z
				"/>
		</g>
	</g>
	<g>
		<g>
			<path class="st1" d="M54.2,199.7c-0.9,0-1.8-0.3-2.6-1c-19.5-16.7-28.7-38.1-27.5-63.8c0.1-2.1,1.9-3.8,4-3.8l0,0l85.6,0
				c1.6,0,3.1,1,3.7,2.5s0.3,3.2-0.8,4.4L57,198.5C56.3,199.3,55.2,199.7,54.2,199.7z M32,139.2c-0.1,20.4,7.1,37.1,22,51l50.1-51
				L32,139.2z"/>
		</g>
	</g>
	<g>
		<g>
			<path class="st1" d="M134.3,117.3c-0.5,0-1-0.1-1.5-0.3c-1.5-0.6-2.5-2.1-2.5-3.7l-0.7-84.9c0-2.1,1.6-3.9,3.7-4
				c25.5-2,47.3,6.6,64.5,25.6c1.4,1.6,1.4,4-0.1,5.5l-60.5,60.6C136.3,116.9,135.3,117.3,134.3,117.3z M137.6,32.2l0.6,71.5
				l51-51.1C174.9,38.2,158,31.5,137.6,32.2z"/>
		</g>
	</g>
	<g>
		<g>
			<path class="st1" d="M116.6,232.9c-22.5,0-41.7-8.7-57.4-25.9c-1.4-1.6-1.4-4,0.1-5.5l60.5-60.6c1.1-1.1,2.9-1.5,4.3-0.9
				s2.5,2.1,2.5,3.7l0.7,84.9c0,2.1-1.6,3.9-3.7,4C121.3,232.8,118.9,232.9,116.6,232.9z M67.8,204.4c14.3,14.5,31.3,21.2,51.6,20.5
				l-0.6-71.5L67.8,204.4z"/>
		</g>
	</g>
</g>
</svg>
