<?xml version="1.0" encoding="utf-8"?>
<!-- Generator: Adobe Illustrator 22.1.0, SVG Export Plug-In . SVG Version: 6.00 Build 0)  -->
<svg version="1.1" id="Layer_1" xmlns="http://www.w3.org/2000/svg" xmlns:xlink="http://www.w3.org/1999/xlink" x="0px" y="0px"
	 viewBox="0 0 256 256" style="enable-background:new 0 0 256 256;" xml:space="preserve">
<style type="text/css">
	.st0{fill:#F5B31F;}
	.st1{fill:#464646;}
	.st2{opacity:0.15;}
	.st3{fill:#AC6535;}
	.st4{fill:#EB573B;}
	.st5{fill:#90C056;}
	.st6{opacity:0.35;}
	.st7{fill:#FFFFFF;}
	.st8{opacity:0.2;}
	.st9{fill:#F6D67A;}
	.st10{opacity:0.3;}
	.st11{fill:#FFA755;}
	.st12{fill:#8FAE3C;}
	.st13{fill:#BE6BB2;}
	.st14{fill:#B7C536;}
	.st15{opacity:0.1;}
	.st16{fill:#9D5A96;}
	.st17{fill:#EA615D;}
	.st18{opacity:0.4;}
	.st19{fill:#F79932;}
	.st20{fill:#FFEC97;}
	.st21{fill:#FFD11D;}
	.st22{fill:#F7F2D5;}
	.st23{fill:#F6AF72;}
	.st24{fill:#BA6C45;}
	.st25{opacity:0.5;}
	.st26{fill:#E4C074;}
	.st27{fill:#656566;}
	.st28{fill:#FACD1F;}
	.st29{fill:#FFDF66;}
	.st30{fill:#6D6E71;}
	.st31{fill:#E77CAE;}
	.st32{fill:#FFE5C4;}
	.st33{fill:#F68455;}
	.st34{opacity:0.7;}
	.st35{fill:#ADEDFF;}
	.st36{fill:#EC754B;}
	.st37{fill:#4AA5BA;}
	.st38{opacity:0.8;}
	.st39{fill:#92A5AC;}
	.st40{fill:#D06E3C;}
	.st41{fill:#DA4F4B;}
	.st42{fill:#BDF3FF;}
	.st43{fill:#F18BB4;}
	.st44{fill:#F9D97A;}
	.st45{fill:none;}
	.st46{fill:#AF6535;}
	.st47{fill:#B93226;}
	.st48{fill:#FF6050;}
	.st49{fill:#EA7CB1;}
	.st50{fill:#00B0E0;}
	.st51{fill:#EA7DAE;}
	.st52{fill:#BC7532;}
	.st53{fill:#876C6C;}
	.st54{fill:#F9F6CD;}
	.st55{fill:#FFE37B;}
	.st56{fill:#1DDCFF;}
	.st57{fill:#60ACF7;}
	.st58{fill:#C3755A;}
	.st59{fill:#96557A;}
	.st60{fill:#66625D;}
	.st61{fill:#D68032;}
	.st62{fill:#F2A355;}
	.st63{fill:#7E9E6A;}
	.st64{fill:#965A85;}
	.st65{fill:#90CAD3;}
	.st66{fill:#94B57F;}
	.st67{fill:#B2E2E7;}
	.st68{fill:#FFDF8F;}
	.st69{fill:#FFFAEB;}
	.st70{fill:#F88916;}
	.st71{fill:#FFC86E;}
	.st72{fill:#AFA51D;}
	.st73{fill:#968A1C;}
	.st74{fill:#C3556D;}
</style>
<g>
	<g>
		<g>
			<path class="st42" d="M164.4,219.2l0,20.6c0,5.1-3.1,12.3-12.2,12.3c-9.1,0-24.2,0-24.2,0s-15,0-24.1,0s-12.2-7.1-12.2-12.3
				l0-20.6L164.4,219.2z"/>
		</g>
	</g>
	<g>
		<g>
			<rect x="92" y="173.7" class="st56" width="72.8" height="45.5"/>
		</g>
	</g>
	<g>
		<g>
			<path class="st42" d="M164.7,136.9l0,36.9l-72.8,0l0-36.9l23.3,0c2.1,7.6,7.2,13,13.1,13c5.9,0,11-5.4,13.1-13L164.7,136.9z"/>
		</g>
	</g>
	<g>
		<g>
			<path class="st42" d="M164.7,117.4l0,3.5l-23.3,0c-2.1-7.6-7.2-13-13.1-13c-5.9,0-11,5.4-13.1,13l-23.3,0l0-3.5
				c0-1.7,0-3.3,0.2-4.8c0.7-9.6,4-14.6,11.4-22.6c8.6-9.2,12.9-12.2,12.9-20.4l0-9.1l23.8,0l0,9.1c0,8.2,4.3,11.2,12.9,20.4
				c7.5,8,10.7,13,11.4,22.6C164.7,114.1,164.7,115.7,164.7,117.4z"/>
		</g>
	</g>
	<g>
		<g>
			<path class="st56" d="M164.7,120.9l0,15.9l-23.3,0c-2.1,7.6-7.2,13-13.1,13c-5.9,0-11-5.4-13.1-13l-23.3,0l0-15.9l23.3,0
				c2.1-7.6,7.2-13,13.1-13c5.9,0,11,5.4,13.1,13L164.7,120.9z"/>
		</g>
	</g>
	<g class="st15">
		<g>
			<path d="M153.7,219.2l10.7,0l0,20.6c0,5.1-3.2,12.3-10.7,12.3L153.7,219.2z"/>
		</g>
	</g>
	<g class="st15">
		<g>
			<rect x="153.7" y="173.7" width="11" height="45.5"/>
		</g>
	</g>
	<g class="st15">
		<g>
			<rect x="154" y="136.9" width="10.7" height="36.9"/>
		</g>
	</g>
	<g class="st15">
		<g>
			<path d="M154,120.9l10.7,0l0-3.5c0-1.7,0-3.3-0.2-4.8c-0.7-9.6-4-14.6-11.4-22.6c-8.6-9.2-12.9-12.2-12.9-20.4l0-9.1l-8.8-0.3
				c0,0-0.8,11,2.1,20.3c2.9,9.4,14,15.3,17.5,22S154,120.9,154,120.9z"/>
		</g>
	</g>
	<g class="st15">
		<g>
			<rect x="154" y="120.9" width="10.7" height="15.9"/>
		</g>
	</g>
	<g class="st38">
		<g>
			<path class="st7" d="M102.5,219.2l-10.2,0l0,20.6c0,5.1,3,12.3,10.2,12.3l25.6,0c0,0-25.6,0.6-25.6-16.4
				C102.5,227,102.5,219.2,102.5,219.2z"/>
		</g>
	</g>
	<g class="st25">
		<g>
			<rect x="92" y="173.7" class="st7" width="10.5" height="45.5"/>
		</g>
	</g>
	<g class="st38">
		<g>
			<rect x="92" y="136.9" class="st7" width="10.2" height="36.9"/>
		</g>
	</g>
	<g class="st38">
		<g>
			<path class="st7" d="M109,84.3c-6.4,15.3-6.8,36.7-6.8,36.7l-10.2,0l0-3.5c0-1.7,0-3.3,0.1-4.8c0.6-9.6,4.9-13.9,10.8-21.9"/>
		</g>
	</g>
	<g class="st25">
		<g>
			<rect x="92" y="120.9" class="st7" width="10.2" height="15.9"/>
		</g>
	</g>
	<g>
		<g>
			<path class="st7" d="M140.3,23.3c0,0,0,23.1,0,37.2l-23.8,0c0-14.1,0-37.2,0-37.2L140.3,23.3z"/>
		</g>
	</g>
	<g>
		<g class="st15">
			<g>
				<path d="M140.3,23.3c0,0,0,0.1,0,0.2c-2.3-0.1-6-0.2-9.9-0.2c0,0,0,0,0,0L140.3,23.3z"/>
			</g>
		</g>
		<g class="st15">
			<g>
				<path d="M140.3,23.5l0,36.9l-8.8,0l-0.1-30.2l-17.9,0l0-6.5c0-0.4,8.9-0.6,16.9-0.5C134.3,23.3,138,23.4,140.3,23.5z"/>
			</g>
		</g>
	</g>
	<g>
		<g>
			<path class="st56" d="M142.6,5.5l0,17.8l-29.1,0l0-17.8C113.4,3.6,142.6,3.6,142.6,5.5z"/>
		</g>
	</g>
	<g>
		<g>
			<path class="st1" d="M152.1,256.1L152.1,256.1l-48.3,0c-10.7,0-16.2-8.2-16.2-16.3l0-20.6c0-1.1,0.4-2.1,1.2-2.8s1.8-1.2,2.8-1.2
				l0,0l72.8,0c2.2,0,4,1.8,4,4l0,20.6c0,3.8-1.3,7.7-3.6,10.6C162.7,252.9,158.9,256.1,152.1,256.1z M95.6,223.2l0,16.6
				c0,0.8,0.2,8.3,8.2,8.3l48.3,0h0c2.8,0,5-0.9,6.4-2.7c1.2-1.5,1.8-3.6,1.8-5.6l0-16.6L95.6,223.2z"/>
		</g>
	</g>
	<g>
		<g>
			<path class="st1" d="M164.7,223.2L164.7,223.2l-72.8,0c-2.2,0-4-1.8-4-4l0-45.5c0-2.2,1.8-4,4-4l0,0l72.8,0
				c1.1,0,2.1,0.4,2.8,1.2c0.8,0.8,1.2,1.8,1.2,2.8l0,45.5c0,1.1-0.4,2.1-1.2,2.8S165.8,223.2,164.7,223.2z M96,215.2l64.8,0l0-37.5
				l-64.8,0L96,215.2z"/>
		</g>
	</g>
	<g>
		<g>
			<path class="st1" d="M164.7,177.7L164.7,177.7l-72.8,0c-1.1,0-2.1-0.4-2.8-1.2c-0.8-0.8-1.2-1.8-1.2-2.8l0-36.9c0-2.2,1.8-4,4-4
				l0,0l23.3,0c1.8,0,3.4,1.2,3.9,2.9c1.7,6,5.4,10.1,9.3,10.1c3.9,0,7.6-4.1,9.3-10.1c0.5-1.7,2.1-2.9,3.9-2.9l0,0l23.3,0
				c1.1,0,2.1,0.4,2.8,1.2c0.8,0.8,1.2,1.8,1.2,2.8l0,36.9C168.7,175.9,166.9,177.7,164.7,177.7z M96,169.7l64.8,0l0-28.9l-16.4,0
				c-3.1,8-9.2,13-16,13c0,0,0,0,0,0c-6.8,0-12.9-5-16-13l-16.4,0L96,169.7z"/>
		</g>
	</g>
	<g>
		<g>
			<path class="st1" d="M164.7,124.9L164.7,124.9l-23.3,0c-1.8,0-3.4-1.2-3.9-2.9c-1.7-6-5.4-10.1-9.3-10.1c-3.9,0-7.6,4.1-9.3,10.1
				c-0.5,1.7-2.1,2.9-3.9,2.9l0,0l-23.3,0c-2.2,0-4-1.8-4-4v-3.5c0-1.9,0.1-3.6,0.2-5.1c0.8-10.8,4.7-16.6,12.5-25
				c1.3-1.4,2.6-2.7,3.7-3.9c6.3-6.6,8.1-8.7,8.1-13.8v-9.1c0-1.1,0.4-2.1,1.2-2.8c0.8-0.8,1.8-1.2,2.8-1.2l0,0l23.8,0
				c1.1,0,2.1,0.4,2.8,1.2c0.8,0.8,1.2,1.8,1.2,2.8l0,9.1c0,5.1,1.8,7.2,8.1,13.8c1.1,1.2,2.4,2.5,3.7,3.9
				c7.8,8.4,11.7,14.2,12.5,25c0.1,1.5,0.2,3.2,0.2,5.1v3.5c0,1.1-0.4,2.1-1.2,2.8C166.8,124.5,165.8,124.9,164.7,124.9z
				 M144.4,116.9l16.4,0c0-1.5-0.1-2.8-0.2-4c-0.6-8.4-3.3-12.6-10.3-20.2c-1.3-1.4-2.5-2.7-3.6-3.8c-6.5-6.7-10.4-10.8-10.4-19.3
				l0-5.1l-15.8,0v5.1c0,8.6-3.9,12.6-10.4,19.4c-1.1,1.1-2.3,2.4-3.6,3.8c-7.1,7.6-9.7,11.8-10.3,20.1c-0.1,1.2-0.1,2.5-0.2,4
				l16.4,0c3.1-8,9.2-13,16-13C135.2,103.9,141.3,108.9,144.4,116.9z"/>
		</g>
	</g>
	<g>
		<g>
			<path class="st1" d="M128.4,153.9C128.4,153.9,128.4,153.9,128.4,153.9c-6.8,0-12.9-5-16-13l-20.4,0c-2.2,0-4-1.8-4-4l0-15.9
				c0-1.1,0.4-2.1,1.2-2.8s1.8-1.2,2.8-1.2l0,0l20.4,0c3.1-8,9.2-13,16-13c6.8,0,12.9,5,16,13l20.4,0c2.2,0,4,1.8,4,4l0,15.9
				c0,1.1-0.4,2.1-1.2,2.8s-1.8,1.2-2.8,1.2l0,0l-20.4,0C141.3,148.9,135.2,153.9,128.4,153.9z M96,132.9l19.3,0
				c1.8,0,3.4,1.2,3.9,2.9c1.7,6,5.4,10.1,9.3,10.1c3.9,0,7.6-4.1,9.3-10.1c0.5-1.7,2.1-2.9,3.9-2.9l0,0l19.3,0l0-7.9l-19.3,0
				c-1.8,0-3.4-1.2-3.9-2.9c-1.7-6-5.4-10.1-9.3-10.1c-3.9,0-7.6,4.1-9.3,10.1c-0.5,1.7-2.1,2.9-3.9,2.9l0,0l-19.3,0L96,132.9z"/>
		</g>
	</g>
	<g>
		<g>
			<path class="st1" d="M140.3,64.5L140.3,64.5l-23.8,0c-1.1,0-2.1-0.4-2.8-1.2c-0.8-0.8-1.2-1.8-1.2-2.8l0-37.2c0-2.2,1.8-4,4-4
				l0,0l23.8,0c2.2,0,4,1.8,4,4l0,37.2C144.3,62.7,142.5,64.5,140.3,64.5z M120.4,56.5l15.8,0l0-29.2l-15.8,0L120.4,56.5z"/>
		</g>
	</g>
	<g>
		<g>
			<path class="st1" d="M142.6,27.3L142.6,27.3l-29.1,0c-1.1,0-2.1-0.4-2.8-1.2c-0.8-0.8-1.2-1.8-1.2-2.8l0-17.8
				c0-4.3,4.9-4.8,8.2-5.1c2.8-0.2,6.4-0.4,10.4-0.4c3.9,0,7.6,0.1,10.4,0.4c3.3,0.3,8.2,0.7,8.2,5.1l0,0l0,17.8
				C146.6,25.5,144.8,27.3,142.6,27.3z M117.4,19.3l21.1,0l0-10.8c-5-0.5-16.1-0.5-21.1,0L117.4,19.3z M142.6,5.5L142.6,5.5
				L142.6,5.5z"/>
		</g>
	</g>
</g>
</svg>
