<?xml version="1.0" encoding="utf-8"?>
<!-- Generator: Adobe Illustrator 22.1.0, SVG Export Plug-In . SVG Version: 6.00 Build 0)  -->
<svg version="1.1" id="Layer_1" xmlns="http://www.w3.org/2000/svg" xmlns:xlink="http://www.w3.org/1999/xlink" x="0px" y="0px"
	 viewBox="0 0 256 256" style="enable-background:new 0 0 256 256;" xml:space="preserve">
<style type="text/css">
	.st0{fill:#F5B31F;}
	.st1{fill:#464646;}
	.st2{opacity:0.15;}
	.st3{fill:#AC6535;}
	.st4{fill:#EB573B;}
	.st5{fill:#90C056;}
	.st6{opacity:0.35;}
	.st7{fill:#FFFFFF;}
	.st8{opacity:0.2;}
	.st9{fill:#F6D67A;}
	.st10{opacity:0.3;}
	.st11{fill:#FFA755;}
	.st12{fill:#8FAE3C;}
	.st13{fill:#BE6BB2;}
	.st14{fill:#B7C536;}
	.st15{opacity:0.1;}
	.st16{fill:#9D5A96;}
	.st17{fill:#EA615D;}
	.st18{opacity:0.4;}
	.st19{fill:#F79932;}
	.st20{fill:#FFEC97;}
	.st21{fill:#FFD11D;}
	.st22{fill:#F7F2D5;}
	.st23{fill:#F6AF72;}
	.st24{fill:#BA6C45;}
	.st25{opacity:0.5;}
	.st26{fill:#E4C074;}
	.st27{fill:#656566;}
	.st28{fill:#FACD1F;}
	.st29{fill:#FFDF66;}
	.st30{fill:#6D6E71;}
	.st31{fill:#E77CAE;}
	.st32{fill:#FFE5C4;}
	.st33{fill:#F68455;}
	.st34{opacity:0.7;}
	.st35{fill:#ADEDFF;}
	.st36{fill:#EC754B;}
	.st37{fill:#4AA5BA;}
	.st38{opacity:0.8;}
	.st39{fill:#92A5AC;}
	.st40{fill:#D06E3C;}
	.st41{fill:#DA4F4B;}
	.st42{fill:#BDF3FF;}
	.st43{fill:#F18BB4;}
	.st44{fill:#F9D97A;}
	.st45{fill:none;}
	.st46{fill:#AF6535;}
	.st47{fill:#B93226;}
	.st48{fill:#FF6050;}
	.st49{fill:#EA7CB1;}
	.st50{fill:#00B0E0;}
	.st51{fill:#EA7DAE;}
	.st52{fill:#BC7532;}
	.st53{fill:#876C6C;}
	.st54{fill:#F9F6CD;}
	.st55{fill:#FFE37B;}
	.st56{fill:#1DDCFF;}
	.st57{fill:#60ACF7;}
	.st58{fill:#C3755A;}
	.st59{fill:#96557A;}
	.st60{fill:#66625D;}
	.st61{fill:#D68032;}
	.st62{fill:#F2A355;}
	.st63{fill:#7E9E6A;}
	.st64{fill:#965A85;}
	.st65{fill:#90CAD3;}
	.st66{fill:#94B57F;}
	.st67{fill:#B2E2E7;}
	.st68{fill:#FFDF8F;}
	.st69{fill:#FFFAEB;}
	.st70{fill:#F88916;}
	.st71{fill:#FFC86E;}
	.st72{fill:#AFA51D;}
	.st73{fill:#968A1C;}
	.st74{fill:#C3556D;}
</style>
<g>
	<g>
		<g>
			<path class="st7" d="M189,99L67.3,99c0-38.8,29.5-58.5,59.5-59.1c4-0.1,7.9,0.2,11.8,0.8C165.2,44.7,189,64.1,189,99z"/>
		</g>
	</g>
	<g>
		<g>
			<path class="st1" d="M189,103C189,103,189,103,189,103l-121.7,0c-2.2,0-4-1.8-4-4c0-19.2,6.9-35.4,19.9-46.9
				c11.4-10.1,26.9-15.9,43.5-16.2c4.2-0.1,8.4,0.2,12.5,0.8C164,40.5,193,59,193,99C193,101.2,191.2,103,189,103z M71.4,95l113.4,0
				c-1.8-32.1-25-47.1-46.8-50.4c-3.7-0.6-7.4-0.8-11.1-0.7C101.1,44.4,73.4,60.6,71.4,95z"/>
		</g>
	</g>
	<g>
		<g>
			<polygon class="st47" points="146.2,3.9 138.6,40.6 126.7,99 114.8,99 126.8,39.9 134.1,3.9 			"/>
		</g>
	</g>
	<g class="st2">
		<g>
			<polygon class="st1" points="129.1,95.8 138.9,95.8 149.4,44.5 139.2,42.1 			"/>
		</g>
	</g>
	<g>
		<g>
			<path class="st1" d="M126.7,103L126.7,103l-11.8,0c-1.2,0-2.3-0.5-3.1-1.5s-1.1-2.2-0.8-3.3l19.3-95.1c0.4-1.9,2-3.2,3.9-3.2
				c0,0,0,0,0,0l12.1,0c1.2,0,2.3,0.5,3.1,1.5c0.8,0.9,1.1,2.2,0.8,3.3l-19.5,95.1C130.2,101.7,128.6,103,126.7,103z M119.7,95
				l3.7,0l17.9-87.1h-3.9L119.7,95z"/>
		</g>
	</g>
	<g>
		<g>
			<polygon class="st31" points="75.9,251.9 68.2,122.3 189.9,122.4 182.7,251.9 			"/>
		</g>
	</g>
	<g class="st6">
		<g>
			<polygon class="st7" points="87,251.9 74.3,251.9 68.2,122.3 80.6,122.4 			"/>
		</g>
	</g>
	<g class="st2">
		<g>
			<path class="st1" d="M74.9,251.9l106.8,0l7.2-129.5c0,0-11.8,97.3-20.6,110.1C159.4,245.2,74.9,251.9,74.9,251.9z"/>
		</g>
	</g>
	<g>
		<g>
			<path class="st1" d="M181.8,255.9C181.8,255.9,181.8,255.9,181.8,255.9l-106.8,0c-2.1,0-3.9-1.7-4-3.8l-7.6-129.5
				c-0.1-1.1,0.3-2.2,1.1-3c0.8-0.8,1.8-1.3,2.9-1.3c0,0,0,0,0,0l121.7,0c1.1,0,2.1,0.5,2.9,1.3c0.8,0.8,1.1,1.9,1.1,3l-7.2,129.5
				C185.6,254.2,183.9,255.9,181.8,255.9z M78.7,247.9l99.3,0l6.8-121.5l-113.2,0L78.7,247.9z"/>
		</g>
	</g>
	<g>
		<g>
			<rect x="56.7" y="99" class="st31" width="142.9" height="23.4"/>
		</g>
	</g>
	<g class="st2">
		<g>
			<polygon class="st1" points="68.4,122.3 68.8,132 188,132 188,122.4 			"/>
		</g>
	</g>
	<g class="st6">
		<g>
			<path class="st7" d="M199.6,99L56.7,99l0,23.4l6.2,0c0,0-0.7-8.3,8.2-13.4C80.1,103.9,199.6,99,199.6,99z"/>
		</g>
	</g>
	<g>
		<g>
			<path class="st1" d="M199.6,126.4L199.6,126.4l-142.9,0c-1.1,0-2.1-0.4-2.8-1.2c-0.8-0.8-1.2-1.8-1.2-2.8l0-23.4
				c0-1.1,0.4-2.1,1.2-2.8c0.8-0.8,1.8-1.2,2.8-1.2c0,0,0,0,0,0l142.9,0c2.2,0,4,1.8,4,4l0,23.4
				C203.6,124.6,201.8,126.4,199.6,126.4z M60.7,118.3l134.9,0l0-15.4l-134.9,0L60.7,118.3z"/>
		</g>
	</g>
</g>
</svg>
