<?xml version="1.0" encoding="utf-8"?>
<!-- Generator: Adobe Illustrator 22.1.0, SVG Export Plug-In . SVG Version: 6.00 Build 0)  -->
<svg version="1.1" id="Layer_1" xmlns="http://www.w3.org/2000/svg" xmlns:xlink="http://www.w3.org/1999/xlink" x="0px" y="0px"
	 viewBox="0 0 256 256" style="enable-background:new 0 0 256 256;" xml:space="preserve">
<style type="text/css">
	.st0{fill:#F5B31F;}
	.st1{fill:#464646;}
	.st2{opacity:0.15;}
	.st3{fill:#AC6535;}
	.st4{fill:#EB573B;}
	.st5{fill:#90C056;}
	.st6{opacity:0.35;}
	.st7{fill:#FFFFFF;}
	.st8{opacity:0.2;}
	.st9{fill:#F6D67A;}
	.st10{opacity:0.3;}
	.st11{fill:#FFA755;}
	.st12{fill:#8FAE3C;}
	.st13{fill:#BE6BB2;}
	.st14{fill:#B7C536;}
	.st15{opacity:0.1;}
	.st16{fill:#9D5A96;}
	.st17{fill:#EA615D;}
	.st18{opacity:0.4;}
	.st19{fill:#F79932;}
	.st20{fill:#FFEC97;}
	.st21{fill:#FFD11D;}
	.st22{fill:#F7F2D5;}
	.st23{fill:#F6AF72;}
	.st24{fill:#BA6C45;}
	.st25{opacity:0.5;}
	.st26{fill:#E4C074;}
	.st27{fill:#656566;}
	.st28{fill:#FACD1F;}
	.st29{fill:#FFDF66;}
	.st30{fill:#6D6E71;}
	.st31{fill:#E77CAE;}
	.st32{fill:#FFE5C4;}
	.st33{fill:#F68455;}
	.st34{opacity:0.7;}
	.st35{fill:#ADEDFF;}
	.st36{fill:#EC754B;}
	.st37{fill:#4AA5BA;}
	.st38{opacity:0.8;}
	.st39{fill:#92A5AC;}
	.st40{fill:#D06E3C;}
	.st41{fill:#DA4F4B;}
	.st42{fill:#BDF3FF;}
	.st43{fill:#F18BB4;}
	.st44{fill:#F9D97A;}
	.st45{fill:none;}
	.st46{fill:#AF6535;}
	.st47{fill:#B93226;}
	.st48{fill:#FF6050;}
	.st49{fill:#EA7CB1;}
	.st50{fill:#00B0E0;}
	.st51{fill:#EA7DAE;}
	.st52{fill:#BC7532;}
	.st53{fill:#876C6C;}
	.st54{fill:#F9F6CD;}
	.st55{fill:#FFE37B;}
	.st56{fill:#1DDCFF;}
	.st57{fill:#60ACF7;}
	.st58{fill:#C3755A;}
	.st59{fill:#96557A;}
	.st60{fill:#66625D;}
	.st61{fill:#D68032;}
	.st62{fill:#F2A355;}
	.st63{fill:#7E9E6A;}
	.st64{fill:#965A85;}
	.st65{fill:#90CAD3;}
	.st66{fill:#94B57F;}
	.st67{fill:#B2E2E7;}
	.st68{fill:#FFDF8F;}
	.st69{fill:#FFFAEB;}
	.st70{fill:#F88916;}
	.st71{fill:#FFC86E;}
	.st72{fill:#AFA51D;}
	.st73{fill:#968A1C;}
	.st74{fill:#C3556D;}
</style>
<g>
	<g>
		<g>
			<g>
				<path class="st4" d="M244.8,26.6c0,2.5-11.2,38.9-25.6,54.5c-14.5,15.6-15.4,8.7-23.1,20.3c-7.7,11.7-22.4,59.2-28.9,66.3
					c-6.5,7.1-12.2,18.6-18.6,22.6c-6.4,4-13.1,6.8-20.4,16.5c-7.2,9.7-9.2,25.9-18.6,34.9c-9.4,9-8.6,8.7-12.6,10.1
					c-1.7,0.6-4.6-2.6-8.9-6.8l0,0c-3.2-3.1-7.1-6.7-12-9.8c-3.9-2.5-8.4-4.6-13.5-5.8c0,0,0.2-5.2,6.9-11.8
					c6.8-6.5,8.9-5.6,14.6-15c5.8-9.4,6.5-20.2,16.6-29.8c10.1-9.6,22.9-14.7,33.2-29.9c10.3-15.2,14.7-35.9,19.4-44.4
					c4.7-8.5,6.8-21.5,27.1-36.4c20.3-14.8,13.9-32.7,18.2-43.8s5-9.1,5-9.1s4.1,0.2,10,1.6c3.8,0.9,8.3,2.3,12.8,4.6
					c1,0.5,1.9,0.9,2.8,1.4C239.2,21.5,244.8,24.3,244.8,26.6z"/>
			</g>
		</g>
		<g>
			<g>
				<path class="st1" d="M96.6,255.8c-3.1,0-5.9-2.8-9.5-6.4c-0.5-0.5-1-1-1.5-1.5c-0.1-0.1-0.1-0.1-0.2-0.2c-3-3-6.8-6.4-11.3-9.3
					c-4-2.6-8.1-4.3-12.3-5.3c-1.9-0.4-3.2-2.1-3.1-4c0-0.7,0.4-7.1,8.1-14.5c2.4-2.3,4.4-3.8,5.9-5c2.9-2.3,4.7-3.6,8.1-9.2
					c1.9-3.1,3.2-6.5,4.7-10c2.6-6.5,5.5-13.9,12.6-20.6c3.7-3.5,7.8-6.5,11.7-9.3c7.2-5.2,14.6-10.6,20.9-19.9
					c6.2-9.1,10.3-20.7,13.5-29.9c2-5.8,3.8-10.8,5.7-14.2c0.9-1.6,1.7-3.5,2.6-5.6c3.7-8.3,8.7-19.7,25.6-32.1
					c12.9-9.4,13.7-19.6,14.6-29.6c0.4-4.5,0.8-8.7,2.2-12.5c3.7-9.5,5.4-11.9,8.6-11.8c0.4,0,0.8,0.1,1.2,0.2
					c1.6,0.1,5.2,0.5,9.8,1.6c4.9,1.2,9.4,2.8,13.7,4.9c0.6,0.3,1.2,0.6,1.7,0.8l1.1,0.5c12.5,6.1,17.7,8.6,17.7,13.4
					c0,4.3-12,41.4-26.7,57.3c-7.7,8.3-12,10.7-15.1,12.5c-2.7,1.5-4.3,2.4-7.5,7.4c-3.5,5.2-8.7,19-13.8,32.3
					c-7.2,18.8-11.8,30.5-15.5,34.4c-2.4,2.6-4.8,6.1-7.2,9.4c-4,5.7-7.7,11-12.3,13.9c-1.2,0.8-2.5,1.5-3.7,2.2
					c-5.2,3.1-10.2,6-15.6,13.3c-2.8,3.8-4.8,8.8-6.9,14.2c-3,7.6-6.1,15.5-12.1,21.2c-1.6,1.5-2.9,2.8-4,3.9
					c-5.3,5.2-5.9,5.7-10.1,7.1C97.7,255.7,97.1,255.8,96.6,255.8z M95.8,248C95.8,248,95.8,248,95.8,248
					C95.8,248,95.8,248,95.8,248z M90.7,241.9c0.1,0.1,0.1,0.1,0.2,0.2c0.6,0.6,1.2,1.2,1.7,1.7c1.4,1.4,3.1,3.1,4.1,3.8
					c1.5-0.6,2.2-1.2,6-4.9c1.1-1.1,2.4-2.3,4-3.9c4.7-4.5,7.5-11.6,10.2-18.4c2.2-5.6,4.5-11.4,8-16c6.4-8.6,12.6-12.2,18-15.4
					c1.2-0.7,2.3-1.4,3.5-2.1c3.2-2,6.6-6.9,10-11.7c2.5-3.5,5.1-7.2,7.8-10.2c2.9-3.1,9-19,13.9-31.9c5.5-14.4,10.7-27.9,14.6-33.9
					c4.4-6.6,7.1-8.1,10.3-9.9c2.8-1.6,6.3-3.5,13.1-10.9c12.7-13.7,22.8-44.7,24.4-51.1c-1.9-1.5-7.8-4.4-13-7l-1.1-0.5
					c-0.6-0.3-1.2-0.6-1.8-0.9c-3.7-1.8-7.7-3.2-12-4.3c-3.2-0.8-5.9-1.2-7.5-1.3c-0.6,1.1-1.4,3-2.7,6.4c-1.1,2.8-1.4,6.2-1.7,10.3
					c-0.9,10-2.1,23.8-17.9,35.3c-15.2,11.1-19.5,20.9-23,28.8c-1,2.2-1.9,4.3-3,6.2c-1.6,2.9-3.2,7.6-5.2,13
					c-3.4,9.7-7.7,21.7-14.5,31.7c-7.1,10.5-15.4,16.5-22.8,21.9c-3.9,2.8-7.6,5.5-10.9,8.7c-5.8,5.5-8.2,11.4-10.7,17.7
					c-1.5,3.7-3,7.6-5.3,11.2c-4.2,6.8-6.9,8.9-10,11.3c-1.5,1.2-3.1,2.4-5.2,4.5c-2.5,2.4-3.9,4.5-4.7,6.1c3.6,1.2,7.2,3,10.7,5.2
					C83.4,235,87.6,238.9,90.7,241.9z M240.8,26.6C240.8,26.6,240.8,26.6,240.8,26.6C240.8,26.6,240.8,26.6,240.8,26.6z M199.9,10.4
					C199.9,10.4,199.9,10.4,199.9,10.4C199.9,10.4,199.9,10.4,199.9,10.4z M199.9,10.4C199.9,10.4,199.9,10.4,199.9,10.4
					C199.9,10.4,199.9,10.4,199.9,10.4z"/>
			</g>
		</g>
		<g>
			<g>
				<path class="st32" d="M229.3,16.7c0,0-13.7,46.7-20.6,55.1c-7,8.3-28.3,27.4-33.7,39.3c-5.4,11.9-13.6,39.7-23.8,53
					c-10.2,13.3-26.4,23-34,35.7c-7.6,12.6-18.7,37.8-29.1,45.2l0,0c-3.2-3.1-7.1-6.7-12-9.8c0,0,12.1-12.1,17.3-27.2
					c5.2-15.1,15.7-22.1,36.4-38.7s25-36.8,27.4-50.5c2.4-13.7,14-33.4,25.8-40.1s21.8-31.8,21.7-42.5c-0.1-10.7,8.9-25.3,8.9-25.3
					c3.8,0.9,8.3,2.3,12.8,4.6C227.5,15.8,228.4,16.3,229.3,16.7z"/>
			</g>
		</g>
		<g>
			<g>
				<path class="st1" d="M88.1,248.9c-1,0-2-0.4-2.8-1.1c-3-3-6.8-6.4-11.3-9.3c-1-0.7-1.7-1.7-1.8-2.9s0.3-2.4,1.1-3.3
					c0.1-0.1,11.5-11.7,16.3-25.7c5-14.5,14.3-21.9,31.2-35.4c2.1-1.6,4.2-3.4,6.5-5.2c18.8-15.1,23.3-32.7,26-48.1
					c2.5-14.2,14.5-35.4,27.7-42.9c9.9-5.6,19.8-29.1,19.7-39c-0.1-11.7,9.1-26.8,9.5-27.4c0.9-1.5,2.7-2.2,4.4-1.8
					c4.9,1.2,9.4,2.8,13.6,4.9c0.6,0.3,1.2,0.6,1.7,0.8l1.1,0.5c1.8,0.9,2.6,2.8,2.1,4.7c-1.4,4.9-14.1,47.8-21.4,56.5
					c-2.2,2.6-5.7,6.2-9.6,10.2c-8.4,8.6-20,20.5-23.5,28.2c-1.5,3.4-3.3,8.2-5.4,13.7c-5,13.5-11.3,30.2-18.9,40.1
					c-4.9,6.4-10.9,11.8-16.8,17.1c-6.7,6.1-13.1,11.8-16.9,18.2c-1.9,3.2-4.2,7.4-6.5,11.8c-7.2,13.4-15.3,28.6-23.7,34.6
					C89.8,248.7,88.9,248.9,88.1,248.9z M82.2,234.4c2.3,1.7,4.3,3.5,6.1,5.1c6.3-6.2,13.2-19.1,18.8-29.7c2.4-4.5,4.7-8.7,6.7-12.1
					c4.4-7.4,11.2-13.5,18.4-20c5.6-5.1,11.4-10.3,15.8-16c6.8-8.9,12.9-25,17.7-38c2.1-5.7,4-10.5,5.6-14.2
					c4-9,15.7-20.9,25.1-30.5c3.9-4,7.2-7.4,9.2-9.8c4.4-5.3,13.5-32.4,18.9-50.4c-2.8-1.3-5.8-2.5-8.9-3.4
					c-2.7,5.1-6.9,14.1-6.8,20.6c0.1,11.1-9.9,38.1-23.7,46c-10.8,6.1-21.7,25.1-23.8,37.3c-2.1,12.1-6.1,34.7-28.9,52.9
					c-2.3,1.9-4.5,3.6-6.6,5.2c-16.2,12.9-24.4,19.4-28.6,31.7C93.5,220.2,86.3,229.6,82.2,234.4z"/>
			</g>
		</g>
	</g>
	<g>
		<g>
			<g>
				<path class="st4" d="M184.8,23.1c1.2,4.7-1.3,15.4-8.9,23.1c-7.6,7.8-21,17.2-27.7,30.6c-6.7,13.4-7.2,28.1-17.1,41.7
					c-9.9,13.6-11.4,21.4-22.9,27.7c-11.6,6.3-24,8.3-27.1,19.8c-3.1,11.5-6.3,23-17.6,35.4c-11.3,12.4-9.8,5.5-15.4,13.7
					c-5.6,8.1-6.9,13.5-6.9,13.5s-5.2-4-11.4-7.7c-3.4-2-7.1-4-10.5-5.3c-2.9-1.1-5.5-1.6-7.6-1.2c0,0-2-14.4,3.3-23.3
					c5.3-8.9,17.7-16.2,21-22.2c3.3-6,8.8-23.7,13.9-32.8c5.1-9.1,33.8-31.1,39.2-37.4c5.4-6.3,14.7-47.1,24.2-58
					c9.4-10.9,13.8-6.1,20.8-16.7c7-10.6,8.3-18.9,8.3-18.9s8.4-2.3,16.5-0.7l0,0c2.4,0.5,4.7,1.3,6.9,2.5c2.5,1.5,4.9,3,7.2,4.5
					C179,15.5,183.9,19.6,184.8,23.1z"/>
			</g>
		</g>
		<g>
			<g>
				<path class="st1" d="M41.1,232.6c-0.9,0-1.7-0.3-2.4-0.8c0,0-5.1-3.9-11-7.5c-3.8-2.3-7.1-3.9-9.9-4.9c-3.3-1.2-4.9-1.1-5.4-1
					c-1.1,0.2-2.2,0-3.1-0.7c-0.9-0.6-1.5-1.6-1.6-2.7c-0.1-0.6-2.1-15.9,3.8-25.9c3.2-5.4,8.4-10,13.1-14c3.3-2.9,6.7-5.9,7.9-8
					c1.3-2.4,3.2-7.2,5.2-12.4c2.7-7,5.8-15,8.8-20.4c3.6-6.3,15.9-17,26.7-26.3c5.7-4.9,11.1-9.6,12.9-11.7
					c1.8-2.1,5.1-12,8.1-20.7c4.8-14.3,10.2-30.5,16.1-37.3c5.1-5.9,9.1-7.8,12.3-9.3c3-1.4,5.1-2.4,8.1-6.9
					c6.3-9.6,7.6-17.3,7.7-17.4c0.3-1.5,1.4-2.8,2.9-3.2c0.4-0.1,9.2-2.5,18.2-0.8c0.1,0,0.2,0,0.2,0c3,0.6,5.8,1.6,8.1,3
					c3,1.8,5.3,3.2,7.3,4.5c8.6,5.7,12.7,9.9,13.7,14.1c0,0,0,0,0,0c1.6,6.4-1.8,18.5-9.9,26.9c-2.1,2.1-4.5,4.3-7.1,6.7
					c-7.2,6.4-15.3,13.7-19.9,22.9c-2.6,5.1-4.2,10.4-5.9,16.1c-2.6,8.6-5.3,17.5-11.6,26.2c-3,4.1-5.2,7.6-7.1,10.8
					c-4.6,7.4-8.2,13.2-17.1,18.1c-3.1,1.7-6.2,3-9.2,4.4c-8.8,3.9-14.2,6.6-16,12.9c-3.2,11.8-6.5,23.9-18.5,37
					c-6,6.6-8.8,8.2-11.3,9.5c-1.1,0.6-1.7,0.8-3.7,3.8c-5,7.3-6.3,12.2-6.4,12.3c-0.3,1.3-1.3,2.3-2.6,2.8
					C42,232.5,41.5,232.6,41.1,232.6z M15.2,210.4c1.6,0.2,3.3,0.7,5.3,1.4c3.2,1.2,7,3,11.2,5.6c2.9,1.7,5.5,3.5,7.5,4.9
					c1.2-2.5,2.9-5.8,5.5-9.5c3-4.4,4.6-5.4,6.8-6.4c1.5-0.7,3.5-1.7,8.9-7.7C71.1,187,74,176.3,77.1,164.9
					c2.8-10.4,11.8-14.4,20.5-18.2c2.8-1.2,5.8-2.5,8.6-4.1c7.1-3.9,9.7-8.2,14.2-15.3c2-3.3,4.3-7,7.4-11.3
					c5.5-7.6,7.9-15.4,10.4-23.8c1.7-5.7,3.5-11.6,6.4-17.3c5.3-10.5,14.4-18.7,21.7-25.3c2.5-2.3,4.9-4.4,6.8-6.3
					c6.7-6.9,8.7-16.1,7.9-19.4l0,0c-0.2-0.9-1.7-3.6-10.4-9.3c-1.9-1.3-4.1-2.6-7-4.4c-1.5-0.9-3.3-1.6-5.4-2c-0.1,0-0.1,0-0.2,0
					c-4.7-0.9-9.7-0.3-12.4,0.2c-1,3.5-3.2,10.1-8.3,17.8c-4.2,6.4-7.9,8.1-11.4,9.8c-2.9,1.4-5.7,2.7-9.7,7.3
					c-4.9,5.6-10.3,21.7-14.6,34.6c-4.3,12.8-6.9,20.2-9.6,23.4c-2.2,2.6-7.3,7-13.8,12.6c-9.3,8.1-22.1,19.1-25,24.2
					c-2.7,4.9-5.7,12.5-8.3,19.3c-2.2,5.7-4,10.6-5.6,13.4c-1.8,3.3-5.4,6.5-9.6,10.2c-4.2,3.7-8.9,7.9-11.5,12.1
					C15.4,198,15,205.6,15.2,210.4z"/>
			</g>
		</g>
		<g>
			<g>
				<path class="st32" d="M172.7,11.4c0,0-3.8,21.5-17.6,34.2c-13.8,12.7-23.9,29.5-32.5,55.4c-8.7,25.9-22.9,20.3-35.5,33.2
					c-12.6,12.8-16.9,15.6-21,29.2c-4.1,13.6-4.9,19.2-14.1,27.6c-9.2,8.4-16.1,15-22.3,29.9c-3.4-2-7.1-4-10.5-5.3
					c0-0.5,0.1-11.7,6-20.4c6-8.8,10.3-5.3,21.4-19.6c11.1-14.3,4.5-23.9,15.8-38.3c11.3-14.4,22.9-13.7,37-33
					c14.1-19.3,10.3-30.2,20.2-43.8c9.9-13.6,8.2-14.5,25.4-28.4s13.7-27.7,13.7-27.7l0,0c2.4,0.5,4.7,1.3,6.9,2.5
					C168,8.4,170.5,9.9,172.7,11.4z"/>
			</g>
		</g>
		<g>
			<g>
				<path class="st1" d="M29.7,224.8c-0.7,0-1.4-0.2-2-0.6c-3.8-2.3-7.1-3.9-9.9-4.9c-1.6-0.6-2.6-2.1-2.6-3.8
					c0-1.3,0.2-13.1,6.7-22.6c3.2-4.7,6.2-6.6,9.1-8.4c3.2-2,6.8-4.2,12.4-11.4c4.9-6.3,5.9-11.4,7.1-17.3c1.2-6.1,2.5-13,8.8-21
					c5.5-7.1,11.2-10.8,16.7-14.5c6.3-4.2,12.9-8.5,20.2-18.5c7.3-10,9.5-17.4,11.6-24.6c1.9-6.4,3.7-12.4,8.6-19.2
					c2.3-3.1,3.9-5.5,5.3-7.6c4.9-7.2,7.1-10.5,20.8-21.5c14.8-11.9,12.4-23.2,12.3-23.6c-0.4-1.6,0.2-3.1,1.4-4.1
					c0.9-0.7,2.1-1,3.2-0.8c3,0.6,5.8,1.6,8.1,3c3,1.8,5.3,3.2,7.3,4.5c1.3,0.9,2,2.5,1.7,4c-0.2,0.9-4.2,22.9-18.8,36.4
					c-13.5,12.5-23.2,29-31.4,53.7c-6.1,18.2-15,22.4-23.7,26.5c-4.5,2.1-8.7,4.1-12.8,8.2c-1.7,1.7-3.3,3.3-4.7,4.7
					c-9,9-12.1,12-15.3,22.8c-0.5,1.5-0.9,3-1.3,4.3c-3.2,10.9-5,16.9-13.9,25.1c-9.5,8.6-15.6,14.9-21.3,28.5
					c-0.4,1.1-1.3,1.9-2.4,2.3C30.5,224.8,30.1,224.8,29.7,224.8z M23.3,213c1.4,0.6,2.9,1.4,4.5,2.2c5.9-12.4,12.5-19,21.5-27.2
					c7.3-6.7,8.6-11,11.7-21.5c0.4-1.4,0.8-2.8,1.3-4.4c3.9-12.7,8.1-17,17.3-26.2c1.4-1.4,3-2.9,4.7-4.7c5-5.1,10.4-7.6,15.1-9.8
					c8.1-3.8,14.5-6.8,19.5-21.8c8.7-26,19.1-43.6,33.6-57c9.9-9.2,14.4-23.6,15.8-29.4c-1.4-0.9-2.9-1.8-4.7-2.9
					c-0.2-0.1-0.4-0.2-0.6-0.4c-0.6,6.2-3.6,15.8-15.4,25.2c-12.8,10.3-14.7,13.1-19.2,19.8c-1.5,2.2-3.1,4.6-5.5,7.9
					c-4.1,5.7-5.6,10.8-7.4,16.7c-2.2,7.5-4.7,16-12.8,27.1c-8.1,11.1-15.6,16.1-22.2,20.4c-5.4,3.6-10.1,6.7-14.9,12.7
					c-5.1,6.5-6.1,11.9-7.2,17.6c-1.2,6-2.5,12.9-8.6,20.7c-6.5,8.4-11,11.1-14.6,13.3c-2.7,1.7-4.5,2.7-6.7,6.1
					C24.8,202.8,23.6,209.4,23.3,213z"/>
			</g>
		</g>
	</g>
</g>
</svg>
