<?xml version="1.0" encoding="utf-8"?>
<!-- Generator: Adobe Illustrator 22.1.0, SVG Export Plug-In . SVG Version: 6.00 Build 0)  -->
<svg version="1.1" id="Layer_1" xmlns="http://www.w3.org/2000/svg" xmlns:xlink="http://www.w3.org/1999/xlink" x="0px" y="0px"
	 viewBox="0 0 256 256" style="enable-background:new 0 0 256 256;" xml:space="preserve">
<style type="text/css">
	.st0{fill:#F5B31F;}
	.st1{fill:#464646;}
	.st2{opacity:0.15;}
	.st3{fill:#AC6535;}
	.st4{fill:#EB573B;}
	.st5{fill:#90C056;}
	.st6{opacity:0.35;}
	.st7{fill:#FFFFFF;}
	.st8{opacity:0.2;}
	.st9{fill:#F6D67A;}
	.st10{opacity:0.3;}
	.st11{fill:#FFA755;}
	.st12{fill:#8FAE3C;}
	.st13{fill:#BE6BB2;}
	.st14{fill:#B7C536;}
	.st15{opacity:0.1;}
	.st16{fill:#9D5A96;}
	.st17{fill:#EA615D;}
	.st18{opacity:0.4;}
	.st19{fill:#F79932;}
	.st20{fill:#FFEC97;}
	.st21{fill:#FFD11D;}
	.st22{fill:#F7F2D5;}
	.st23{fill:#F6AF72;}
	.st24{fill:#BA6C45;}
	.st25{opacity:0.5;}
	.st26{fill:#E4C074;}
	.st27{fill:#656566;}
	.st28{fill:#FACD1F;}
	.st29{fill:#FFDF66;}
	.st30{fill:#6D6E71;}
	.st31{fill:#E77CAE;}
	.st32{fill:#FFE5C4;}
	.st33{fill:#F68455;}
	.st34{opacity:0.7;}
	.st35{fill:#ADEDFF;}
	.st36{fill:#EC754B;}
	.st37{fill:#4AA5BA;}
	.st38{opacity:0.8;}
	.st39{fill:#92A5AC;}
	.st40{fill:#D06E3C;}
	.st41{fill:#DA4F4B;}
	.st42{fill:#BDF3FF;}
	.st43{fill:#F18BB4;}
	.st44{fill:#F9D97A;}
	.st45{fill:none;}
	.st46{fill:#AF6535;}
	.st47{fill:#B93226;}
	.st48{fill:#FF6050;}
	.st49{fill:#EA7CB1;}
	.st50{fill:#00B0E0;}
	.st51{fill:#EA7DAE;}
	.st52{fill:#BC7532;}
	.st53{fill:#876C6C;}
	.st54{fill:#F9F6CD;}
	.st55{fill:#FFE37B;}
	.st56{fill:#1DDCFF;}
	.st57{fill:#60ACF7;}
	.st58{fill:#C3755A;}
	.st59{fill:#96557A;}
	.st60{fill:#66625D;}
	.st61{fill:#D68032;}
	.st62{fill:#F2A355;}
	.st63{fill:#7E9E6A;}
	.st64{fill:#965A85;}
	.st65{fill:#90CAD3;}
	.st66{fill:#94B57F;}
	.st67{fill:#B2E2E7;}
	.st68{fill:#FFDF8F;}
	.st69{fill:#FFFAEB;}
	.st70{fill:#F88916;}
	.st71{fill:#FFC86E;}
	.st72{fill:#AFA51D;}
	.st73{fill:#968A1C;}
	.st74{fill:#C3556D;}
</style>
<g>
	<g>
		<g>
			<path class="st32" d="M227.3,49.1l-45.4,45.3c-0.5-5.4-2.4-10.7-6.2-14.6c-3.7-3.6-8.5-5.5-13.6-6.1L208,27.8
				c-10.8-20.6,14.4-33.8,25.2-13.2l-7.7,2.4C256,8.5,264.5,52.2,227.3,49.1z"/>
		</g>
	</g>
	<g>
		<g>
			<path class="st40" d="M178,115.6c-4.2,7.1-21,33.1-23.5,41.1c-2.5,8-15.7,50.9-38.2,73.3c-22.5,22.4-63.8,32.7-93.8,2.7
				c-30-30-19.7-71.2,2.7-93.7c22.5-22.4,65.5-35.6,73.4-38.1c8-2.5,34-19.3,41.1-23.5c4.5-2.6,13.6-5,22.3-3.8
				c5.1,0.7,10,2.5,13.6,6.1c3.9,3.9,5.7,9.2,6.2,14.6C182.8,102.7,180.5,111.3,178,115.6z"/>
		</g>
	</g>
	<g class="st15">
		<g>
			<path d="M166.5,72.5l5.5-6.2c7.3,3.8,13.6,10.2,19.2,18.9l-9.6,6.7L166.5,72.5z"/>
		</g>
	</g>
	<g class="st2">
		<g>
			<path class="st7" d="M98.7,101c-8,2.5-51,15.7-73.4,38.1c-22.5,22.4-32.7,63.7-2.7,93.7c0,0-11.5-23.7-0.1-62.3
				S98.7,101,98.7,101z"/>
		</g>
	</g>
	<g class="st15">
		<g>
			<path d="M162.1,73.7c5.1,0.7,10,2.5,13.6,6.1c3.9,3.9,5.7,9.2,6.2,14.6c0.8,8.3-1.4,17-4,21.3c-4.2,7.1-21,33.1-23.5,41.1
				c0,0,16.8-43.1,16.5-57.6C170.6,84.6,162.1,73.7,162.1,73.7"/>
		</g>
	</g>
	<g>
		<g>
			<path class="st1" d="M66.1,255.4c-13.4,0-30.6-4-46.4-19.8c-12.9-12.9-19.8-29-19.8-46.4c0-19.1,8.4-38.9,22.5-52.9
				c14.9-14.9,40.7-28.3,74.6-39l0.5-0.1c5.6-1.8,22.5-12.2,32.6-18.4c3.4-2.1,6-3.7,7.7-4.7c5.1-3,15-5.6,24.8-4.4
				c6.6,0.9,11.9,3.3,15.9,7.3c4.2,4.2,6.7,10,7.4,17c0.9,9.5-1.7,18.9-4.5,23.7c-1,1.7-2.6,4.3-4.6,7.6c-5.8,9.4-16.7,27-18.5,32.7
				l-0.1,0.5c-10.7,33.9-24.2,59.6-39,74.5c-12.5,12.4-29.4,20.5-46.5,22.2C70.6,255.2,68.4,255.4,66.1,255.4z M157.5,77.4
				c-6.2,0-12.4,1.7-15.6,3.6c-1.6,1-4.4,2.6-7.6,4.6c-14.7,9-28.3,17.3-34.4,19.2l-0.5,0.1c-32.2,10.1-57.6,23.3-71.3,37
				c-12.6,12.6-20.2,30.3-20.2,47.3c0,15.2,6,29.3,17.4,40.7c16.3,16.3,34.3,18.3,46.5,17.1c15.3-1.5,30.5-8.7,41.6-19.9
				c13.8-13.7,26.9-39,37.1-71.2l0.1-0.5c1.9-6.1,10.2-19.8,19.3-34.5c1.9-3.1,3.6-5.8,4.5-7.4c0,0,0,0,0,0
				c2.2-3.7,4.1-11.6,3.4-18.8c-0.5-5.2-2.2-9.3-5.1-12.1c-2.7-2.7-6.5-4.4-11.3-5C160.2,77.5,158.8,77.4,157.5,77.4z"/>
		</g>
	</g>
	<g>
		<g>
			<path class="st1" d="M181.9,98.4c-0.5,0-0.9-0.1-1.3-0.2c-1.5-0.5-2.5-1.8-2.6-3.4c-0.5-5.2-2.2-9.3-5.1-12.1
				c-2.7-2.7-6.5-4.4-11.3-5c-1.5-0.2-2.8-1.2-3.3-2.7c-0.5-1.4-0.1-3,1-4.1L203.2,27c-2.7-6.7-2.4-13.4,0.9-18.7
				c3.2-5.1,9-8.2,15.1-7.9c6.9,0.3,13.1,4.6,17.1,11.8c6,0.7,11.3,3.5,14.9,8.1c5.1,6.4,6.1,14.9,2.5,21.8
				c-4.1,7.7-13.1,11.7-24.9,11.2l-44.1,44.1C184,98,183,98.4,181.9,98.4z M169.9,71.5c3.3,1.3,6.2,3.1,8.6,5.5
				c2.5,2.5,4.5,5.7,5.8,9.4l40.2-40.2c0.8-0.8,2-1.3,3.2-1.2c9.3,0.8,16.3-1.7,19-6.8c2.1-4,1.5-9.1-1.6-13
				c-4-4.9-10.7-6.5-18.5-4.4c-2.1,0.6-4.3-0.6-4.9-2.7c-0.6-2.1,0.6-4.3,2.7-4.9l2.5-0.8c-2.3-2.5-5-4-7.9-4.1
				c-3.2-0.1-6.3,1.5-8,4.2c-2.3,3.6-2,8.3,0.7,13.4c0.8,1.6,0.5,3.5-0.7,4.7L169.9,71.5z"/>
		</g>
	</g>
	<g>
		<g>
			<path class="st1" d="M29.9,219.9c-1.2,0-2.4-0.6-3.2-1.6c-14-18.6-14.8-37.5-2.4-56.2c1.2-1.8,3.7-2.3,5.5-1.1
				c1.8,1.2,2.3,3.7,1.1,5.5c-10.5,15.8-9.8,31.1,2.1,46.9c1.3,1.8,1,4.3-0.8,5.6C31.5,219.7,30.7,219.9,29.9,219.9z"/>
		</g>
	</g>
	<g>
		<g>
			<path class="st1" d="M189.4,75.5c-1,0-2-0.4-2.8-1.2c-1.6-1.6-1.6-4.1,0-5.7l10.8-10.8c1.6-1.6,4.1-1.6,5.7,0
				c1.6,1.6,1.6,4.1,0,5.7l-10.8,10.8C191.4,75.1,190.4,75.5,189.4,75.5z"/>
		</g>
	</g>
</g>
</svg>
