<?xml version="1.0" encoding="utf-8"?>
<!-- Generator: Adobe Illustrator 22.1.0, SVG Export Plug-In . SVG Version: 6.00 Build 0)  -->
<svg version="1.1" id="Layer_1" xmlns="http://www.w3.org/2000/svg" xmlns:xlink="http://www.w3.org/1999/xlink" x="0px" y="0px"
	 viewBox="0 0 256 256" style="enable-background:new 0 0 256 256;" xml:space="preserve">
<style type="text/css">
	.st0{fill:#F5B31F;}
	.st1{fill:#464646;}
	.st2{opacity:0.15;}
	.st3{fill:#AC6535;}
	.st4{fill:#EB573B;}
	.st5{fill:#90C056;}
	.st6{opacity:0.35;}
	.st7{fill:#FFFFFF;}
	.st8{opacity:0.2;}
	.st9{fill:#F6D67A;}
	.st10{opacity:0.3;}
	.st11{fill:#FFA755;}
	.st12{fill:#8FAE3C;}
	.st13{fill:#BE6BB2;}
	.st14{fill:#B7C536;}
	.st15{opacity:0.1;}
	.st16{fill:#9D5A96;}
	.st17{fill:#EA615D;}
	.st18{opacity:0.4;}
	.st19{fill:#F79932;}
	.st20{fill:#FFEC97;}
	.st21{fill:#FFD11D;}
	.st22{fill:#F7F2D5;}
	.st23{fill:#F6AF72;}
	.st24{fill:#BA6C45;}
	.st25{opacity:0.5;}
	.st26{fill:#E4C074;}
	.st27{fill:#656566;}
	.st28{fill:#FACD1F;}
	.st29{fill:#FFDF66;}
	.st30{fill:#6D6E71;}
	.st31{fill:#E77CAE;}
	.st32{fill:#FFE5C4;}
	.st33{fill:#F68455;}
	.st34{opacity:0.7;}
	.st35{fill:#ADEDFF;}
	.st36{fill:#EC754B;}
	.st37{fill:#4AA5BA;}
	.st38{opacity:0.8;}
	.st39{fill:#92A5AC;}
	.st40{fill:#D06E3C;}
	.st41{fill:#DA4F4B;}
	.st42{fill:#BDF3FF;}
	.st43{fill:#F18BB4;}
	.st44{fill:#F9D97A;}
	.st45{fill:none;}
	.st46{fill:#AF6535;}
	.st47{fill:#B93226;}
	.st48{fill:#FF6050;}
	.st49{fill:#EA7CB1;}
	.st50{fill:#00B0E0;}
	.st51{fill:#EA7DAE;}
	.st52{fill:#BC7532;}
	.st53{fill:#876C6C;}
	.st54{fill:#F9F6CD;}
	.st55{fill:#FFE37B;}
	.st56{fill:#1DDCFF;}
	.st57{fill:#60ACF7;}
	.st58{fill:#C3755A;}
	.st59{fill:#96557A;}
	.st60{fill:#66625D;}
	.st61{fill:#D68032;}
	.st62{fill:#F2A355;}
	.st63{fill:#7E9E6A;}
	.st64{fill:#965A85;}
	.st65{fill:#90CAD3;}
	.st66{fill:#94B57F;}
	.st67{fill:#B2E2E7;}
	.st68{fill:#FFDF8F;}
	.st69{fill:#FFFAEB;}
	.st70{fill:#F88916;}
	.st71{fill:#FFC86E;}
	.st72{fill:#AFA51D;}
	.st73{fill:#968A1C;}
	.st74{fill:#C3556D;}
</style>
<g>
	<g>
		<g>
			<g>
				<path class="st32" d="M216.2,196c-9.7-2.4-5.2-11.3,0-11.8c5.2-0.5,18.1-0.2,16.4-9.7c-1.7-9.5-9.4-15.2-18.5-15.5
					c-9.1-0.2-21.4,9.1-33.6,9.1c-12.2,0-25.2-9.1-25.2-9.1s2,11,20.6,16.2c18.6,5.3,25.8,23.8,19.5,45.7c-2.7,16.7,2.4,16.1,6,18.6
					c8.6,5.6,5.8,12.3-4,12.3c-9.8,0-15.2-12.4-15.9-21.7c-0.7-9.3,4.4-19.9,1.5-30.8c-2.9-10.9-10.4-10.9-16.9-13.8
					c-6.5-2.9-25.7-25.8-25.7-25.8c1.4,13.2,8.8,21.7,17.9,32.9c9.1,11.2,10.4,47.4-4.7,55.1c-15.1,7.7-13.8-4.1-10.3-8.1
					c3.5-3.9,12.8-31.7-0.2-44.6c-13-12.9-15.1-23.7-15.1-23.7s-2.1,10.9-15.1,23.7c-13,12.9-3.7,40.6-0.2,44.6
					c3.5,3.9,4.8,15.8-10.3,8.1s-13.8-43.9-4.7-55.1c9.1-11.2,16.5-19.7,17.9-32.9c0,0-19.2,22.8-25.7,25.7
					c-6.5,2.9-14,2.9-16.9,13.8c-2.9,10.9,2.1,21.5,1.5,30.8c-0.7,9.3-6,21.7-15.9,21.7c-9.8,0-12.6-6.7-4-12.3
					c3.6-2.5,8.7-1.9,6-18.6c-6.3-21.8,0.9-40.4,19.5-45.7c18.6-5.3,20.6-16.2,20.6-16.2s-13,9.1-25.2,9.1
					c-12.2,0-24.5-9.3-33.6-9.1c-9.1,0.2-16.8,5.9-18.5,15.5c-1.7,9.5,11.3,9.3,16.4,9.7s9.7,9.4,0,11.8
					c-17.4,4.7-42.3-15.8-24.2-37.6s38.8-10.8,47-8.1c8.1,2.8,28.5,10.6,28.5-4.7c0-15.3,0-21.8,0-21.8c1.3-25.3,3.9-48.8,9.8-69.7
					C106.6,34.9,115,17.9,128,3.9c0,0,0.1,0,0.1,0.1l0,0c13,13.9,21.4,30.9,26.8,50.1c6,20.9,8.5,44.4,9.8,69.7c0,0,0,6.6,0,21.8
					c0,15.3,20.4,7.5,28.5,4.7c8.1-2.8,28.9-13.8,47,8.1S233.6,200.7,216.2,196z"/>
			</g>
		</g>
	</g>
	<g class="st34">
		<g>
			<g>
				<path class="st7" d="M94.1,149.8l-2.8-4.2l0-21.8c1.3-25.2,3.9-48.8,9.8-69.7C106.6,34.9,115,18,128,4l0,0
					c0.1,0,0.1-0.1,0.1-0.1c3.1,3.3,4.4,4.8,7,8.4C111.6,39.4,102.7,89.7,94.1,149.8z"/>
			</g>
		</g>
	</g>
	<g>
		<g>
			<g>
				<path class="st35" d="M164.8,145.6c0-15.3,0-21.8,0-21.8C181.3,123.8,181.3,145.7,164.8,145.6z"/>
			</g>
		</g>
	</g>
	<g>
		<g>
			<g>
				<path class="st35" d="M91.3,123.8c0,0,0,6.6,0,21.8C74.7,145.6,74.7,123.8,91.3,123.8z"/>
			</g>
		</g>
	</g>
	<g>
		<g>
			<g>
				<path class="st32" d="M128,3.9L128,3.9c-13,14-21.4,31-26.9,50.2c-9.7,2.3-23.8-12.4-13.9-20C98.5,25.5,127.1,4.6,128,3.9
					L128,3.9z"/>
			</g>
		</g>
	</g>
	<g>
		<g>
			<g>
				<path class="st32" d="M155,54.1C149.5,34.9,141.1,18,128.2,4c2.3,1.7,29.7,21.8,40.7,30.1C178.8,41.7,164.7,56.4,155,54.1z"/>
			</g>
		</g>
	</g>
	<g class="st2">
		<g>
			<g>
				<path d="M128,3.9L128,3.9c-13,14-21.4,31-26.9,50.2c-9.7,2.3-1.7-25.7,8.2-33.3C120.6,12.2,127.1,4.6,128,3.9L128,3.9z"/>
			</g>
		</g>
	</g>
	<g class="st2">
		<g>
			<g>
				<path d="M155,54.1C149.5,34.9,141.1,18,128.2,4c2.3,1.7,2.8,5.3,14.3,12.8C154.7,24.8,166.2,56.6,155,54.1z"/>
			</g>
		</g>
	</g>
	<g>
		<g>
			<g>
				<path class="st1" d="M164.8,149.6C164.8,149.6,164.8,149.6,164.8,149.6c-2.2,0-4-1.8-4-4l0-21.8c0-1.1,0.4-2.1,1.2-2.8
					c0.8-0.8,1.8-1.2,2.8-1.2c0,0,0,0,0,0c10.7,0,16.3,7.5,16.3,14.9c0,3.9-1.5,7.6-4.3,10.3C174.8,147.2,171,149.6,164.8,149.6z
					 M168.8,128.5l0,12.4c1.5-0.6,2.7-1.6,3.4-2.9c1.2-2,1.2-4.7,0-6.7C171.5,130.1,170.4,129.1,168.8,128.5z"/>
			</g>
		</g>
	</g>
	<g>
		<g>
			<g>
				<path class="st1" d="M91.3,149.6L91.3,149.6c-6.4,0-11.7-2.8-14.5-7.6c-2.6-4.5-2.6-10.1,0-14.6c2.8-4.8,8.1-7.6,14.5-7.6
					c0,0,0,0,0,0c1.1,0,2.1,0.4,2.8,1.2c0.8,0.8,1.2,1.8,1.2,2.8l0,21.8C95.3,147.9,93.5,149.6,91.3,149.6z M87.3,128.5
					c-1,0.4-1.8,0.9-2.5,1.6c-1.2,1.2-1.9,2.9-1.9,4.7c0,2.5,1.4,5.1,4.4,6.2L87.3,128.5z"/>
			</g>
		</g>
	</g>
	<g>
		<g>
			<g>
				<path class="st1" d="M99.1,58.3c-6.4,0-14.3-4.2-17.9-11.8c-2.8-5.9-1.5-11.7,3.5-15.6c9.5-7.3,31.4-23.3,40.4-29.9l0.5-0.4
					c0.7-0.5,1.5-0.8,2.4-0.8c2.2,0,4,1.8,4,4v0c0,1-0.4,2-1.1,2.7c-11.8,12.6-20.3,28.5-26,48.6c-0.4,1.4-1.5,2.5-2.9,2.8
					C101.1,58.2,100.1,58.3,99.1,58.3z M109.8,22.3c-7.7,5.7-15.4,11.4-20.1,15c-1.3,1-2.7,2.6-1.2,5.8c1.7,3.6,6,6.7,9.6,7.2
					C101.2,39.9,105.1,30.7,109.8,22.3z"/>
			</g>
		</g>
	</g>
	<g>
		<g>
			<g>
				<path class="st1" d="M156.9,58.3c-1,0-1.9-0.1-2.8-0.3c-1.4-0.3-2.6-1.4-3-2.8c-5.7-20-14.2-35.9-25.9-48.5
					c-1.4-1.5-1.4-3.8-0.1-5.4c1.4-1.5,3.7-1.8,5.3-0.6c0.3,0.2,29.3,21.4,40.7,30.2c5,3.8,6.3,9.6,3.6,15.5
					C171.2,54.1,163.3,58.3,156.9,58.3z M146.4,22.4c4.7,8.3,8.5,17.6,11.7,27.9c3.5-0.5,7.8-3.6,9.5-7.2c1.5-3.2,0.2-4.8-1.2-5.8
					C161.7,33.7,153.9,27.9,146.4,22.4z"/>
			</g>
		</g>
	</g>
	<g>
		<g>
			<g>
				<path class="st1" d="M197.5,255.9C197.5,255.9,197.5,255.9,197.5,255.9c-11.7,0-19-13.1-19.9-25.4c-0.3-4.3,0.4-8.6,1.1-12.9
					c1-5.7,1.9-11.6,0.4-17.2c-1.8-6.6-5.1-7.7-10.2-9.5c-1.4-0.5-2.9-1-4.5-1.7c-2.7-1.2-6.9-4.9-11.2-9.2c2,2.7,4.3,5.5,6.7,8.5
					l1.4,1.7c6.7,8.2,9.5,27,6.4,41.8c-2,9.6-6.3,16.3-12.4,19.4c-9.8,5-14.5,2.8-16.6,0c-3.4-4.3-1.3-11.1,1.5-14.3
					c1-1.1,4-8.1,5.1-16.9c0.9-7,0.7-16.4-5.1-22.2c-6-6-9.8-11.6-12.3-16c-2.4,4.5-6.3,10.1-12.3,16c-5.8,5.8-6,15.3-5.1,22.2
					c1.1,8.8,4.1,15.7,5.1,16.9c2.8,3.2,4.9,9.9,1.5,14.3c-2.2,2.8-6.8,5-16.6,0c-6.1-3.1-10.3-9.8-12.4-19.4
					c-3.1-14.8-0.3-33.5,6.4-41.8l1.4-1.7c2.5-3,4.7-5.8,6.7-8.5c-4.3,4.3-8.5,8-11.2,9.2c-1.5,0.7-3,1.2-4.4,1.7
					c-5.1,1.8-8.5,2.9-10.2,9.5c-1.5,5.6-0.5,11.5,0.4,17.1c0.7,4.2,1.4,8.6,1.1,12.9c-0.9,12.3-8.2,25.4-19.9,25.4c0,0,0,0,0,0
					c-6.7,0-11.5-2.7-12.8-7.1c-0.6-2.1-1.2-7.4,6.6-12.5c0.7-0.5,1.5-0.9,2.1-1.2c2.1-1.1,4-2.1,2.2-13.2
					C53,208.8,53.8,196.4,59,187c3.9-7,10.1-12.1,18-14.9c-0.5,0-1,0-1.4,0c0,0,0,0,0,0c-7.2,0-14.3-2.8-20.5-5.3
					c-4.9-2-9.6-3.9-13-3.8c-7.6,0.2-13.3,5-14.6,12.1c-0.3,1.5,0.1,2.1,0.3,2.3c1.6,2,7.7,2.5,10.6,2.7c0.7,0.1,1.4,0.1,2,0.2
					c4.8,0.5,9,4.8,9.3,9.7c0.3,3.7-1.9,8.3-8.7,10c-11.1,3-25-2.7-31.6-13c-6.2-9.7-5-21,3.4-31c18.2-21.9,39.6-13.7,48.7-10.3
					c1,0.4,1.8,0.7,2.6,1l1.3,0.5c4.9,1.7,16.5,5.7,20.4,2.8c0.4-0.3,1.5-1.1,1.5-4.2l0-21.8c0-0.1,0-0.1,0-0.2
					c1.6-30.1,4.6-51.9,10-70.6c6.1-21.3,15.2-38.3,27.9-51.8c1.3-1.4,3.5-1.7,5.2-0.6c0,0,0.1,0.1,0.3,0.2c0.2,0.1,0.4,0.3,0.5,0.5
					c12.6,13.6,21.7,30.5,27.8,51.8c5.3,18.7,8.4,40.4,10,70.6c0,0.1,0,0.1,0,0.2l0,21.8c0,3.2,1.1,3.9,1.5,4.2
					c4,2.8,15.5-1.1,20.4-2.8l1.3-0.5c0.8-0.3,1.6-0.6,2.6-1c9.1-3.5,30.6-11.6,48.7,10.3c8.3,10,9.6,21.4,3.4,31
					c-6.6,10.3-20.5,16-31.6,13c-6.8-1.7-9-6.2-8.7-10c0.3-4.9,4.5-9.2,9.3-9.6c0.6-0.1,1.3-0.1,2-0.2c2.9-0.2,9-0.6,10.6-2.7
					c0.2-0.2,0.6-0.7,0.3-2.3c-1.3-7.2-7-12-14.6-12.1c-3.4-0.1-8.1,1.8-13,3.8c-6.2,2.5-13.2,5.3-20.5,5.3c0,0,0,0,0,0
					c-0.5,0-1,0-1.4,0c7.9,2.7,14.1,7.8,18,14.9c5.2,9.4,6,21.8,2.3,34.9c-1.7,11.1,0.1,12,2.2,13.2c0.6,0.3,1.4,0.7,2.1,1.2
					c7.8,5.1,7.2,10.4,6.6,12.5C209,253.2,204.2,255.9,197.5,255.9z M140.5,155.9c1.2,0,2.3,0.5,3.1,1.4
					c7.7,9.2,20.4,22.9,24.3,24.7c1.2,0.5,2.4,1,3.8,1.4c5.6,1.9,12.5,4.3,15.3,15c2,7.3,0.8,14.3-0.3,20.5c-0.7,4-1.3,7.7-1.1,11
					c0.5,7.3,4.7,18,11.9,18h0c3.5,0,5-1,5.2-1.4c0-0.2-0.4-1.7-3.3-3.6c0,0-0.1,0-0.1-0.1c-0.4-0.3-0.8-0.5-1.3-0.8
					c-5.9-3.1-8.6-7.5-6.4-21.7c0-0.2,0.1-0.3,0.1-0.5c3.2-11.1,2.7-21.5-1.5-29c-3.2-5.7-8.4-9.8-15.2-11.7
					c-8.5-2.4-15-6.2-19.2-11.4c-3.4-4.1-4.1-7.6-4.2-8c-0.3-1.6,0.4-3.2,1.8-4.1c1.4-0.9,3.1-0.8,4.5,0.1
					c0.1,0.1,12.1,8.3,22.9,8.3c0,0,0,0,0,0c5.7,0,11.7-2.4,17.5-4.7c5.7-2.3,11.1-4.4,16.2-4.3c11.4,0.3,20.4,7.8,22.3,18.8
					c0.7,4.2-0.6,7-1.9,8.6c-3.8,4.9-11.3,5.4-16.3,5.7c-0.7,0-1.3,0.1-1.8,0.1c-0.9,0.1-2,1.3-2.1,2.3c-0.1,0.7,1.4,1.3,2.6,1.6
					c0,0,0.1,0,0.1,0c7.8,2.1,18.1-2.2,22.8-9.6c4.3-6.6,3.3-14.3-2.8-21.6c-14.5-17.5-30.3-11.5-39.7-7.9c-1.1,0.4-2,0.8-2.9,1.1
					l-1.3,0.4c-7.6,2.6-20.4,7-27.7,1.8c-2.2-1.6-4.8-4.7-4.8-10.7l0-21.7c-1.5-29.4-4.5-50.6-9.7-68.7
					c-5.3-18.4-12.8-33.3-23.1-45.3C117.8,22,110.2,36.8,105,55.2c-5.2,18-8.2,39.2-9.7,68.7l0,21.7c0,6-2.6,9.1-4.8,10.7
					c-7.3,5.2-20.1,0.8-27.7-1.8l-1.3-0.4c-0.8-0.3-1.8-0.7-2.9-1.1c-9.4-3.6-25.2-9.6-39.7,7.9c-6.1,7.3-7,15-2.8,21.6
					c4.8,7.4,15,11.7,22.8,9.6c0,0,0.1,0,0.1,0c1.3-0.3,2.7-0.9,2.6-1.6c-0.1-0.9-1.2-2.2-2.1-2.3c-0.5,0-1.1-0.1-1.8-0.1
					c-5-0.3-12.5-0.9-16.3-5.7c-1.3-1.6-2.6-4.4-1.9-8.6c1.9-10.9,10.9-18.5,22.3-18.8c5.1-0.1,10.5,2,16.2,4.3
					c5.8,2.3,11.8,4.7,17.5,4.7c10.8,0,22.8-8.3,22.9-8.3c1.3-0.9,3.1-1,4.5-0.1c1.4,0.9,2.1,2.5,1.8,4.1
					c-0.1,0.5-2.7,13.5-23.4,19.4c-6.8,1.9-12,6-15.2,11.7c-4.2,7.6-4.7,17.9-1.5,29c0,0.2,0.1,0.3,0.1,0.5
					c2.3,14.3-0.5,18.7-6.4,21.7c-0.5,0.3-1,0.5-1.3,0.8c0,0-0.1,0-0.1,0.1c-2.9,1.9-3.4,3.4-3.3,3.6c0.1,0.4,1.7,1.4,5.2,1.4
					c7.2,0,11.4-10.7,11.9-18c0.2-3.3-0.4-7-1.1-11c-1-6.2-2.2-13.3-0.3-20.5c2.9-10.7,9.8-13,15.3-15c1.3-0.5,2.6-0.9,3.8-1.4
					c3.9-1.7,16.6-15.5,24.3-24.7c1.1-1.3,3-1.8,4.6-1.1c1.6,0.7,2.6,2.4,2.4,4.1c-1.5,13.7-8.9,22.8-17.4,33.3l-1.4,1.7
					c-4.6,5.6-7.7,21.4-4.8,35.1c1.5,7.1,4.4,12,8.2,13.9c4.3,2.2,6.2,2.2,6.7,2.1c0.2-0.8-0.3-2.9-1.2-4c-4.8-5.5-14.4-35.4,0.4-50
					c11.8-11.7,14-21.6,14-21.7c0.4-1.9,2-3.2,3.9-3.2c0,0,0,0,0,0c1.9,0,3.5,1.4,3.9,3.2c0,0.1,2.2,10,14,21.7
					c14.8,14.7,5.2,44.6,0.4,50c-0.9,1.1-1.4,3.1-1.2,4c0.5,0.1,2.4,0.1,6.7-2.1c3.8-1.9,6.7-6.9,8.2-13.9
					c2.9-13.6-0.2-29.4-4.8-35.1l-1.4-1.7c-8.5-10.5-15.9-19.6-17.4-33.3c-0.2-1.7,0.8-3.4,2.4-4.1
					C139.4,156,139.9,155.9,140.5,155.9z"/>
			</g>
		</g>
	</g>
	<g>
		<g>
			<path class="st1" d="M147.9,137.3c-0.2,0-0.3,0-0.5,0c-2.2-0.3-3.8-2.2-3.5-4.4c3.1-27.4,0.1-53.4-9.1-77.2
				c-0.8-2.1,0.2-4.4,2.3-5.2c2.1-0.8,4.4,0.2,5.2,2.3c9.7,25.1,12.9,52.3,9.6,81C151.7,135.7,149.9,137.3,147.9,137.3z"/>
		</g>
	</g>
</g>
</svg>
