<?xml version="1.0" encoding="utf-8"?>
<!-- Generator: Adobe Illustrator 22.1.0, SVG Export Plug-In . SVG Version: 6.00 Build 0)  -->
<svg version="1.1" id="Layer_1" xmlns="http://www.w3.org/2000/svg" xmlns:xlink="http://www.w3.org/1999/xlink" x="0px" y="0px"
	 viewBox="0 0 256 256" style="enable-background:new 0 0 256 256;" xml:space="preserve">
<style type="text/css">
	.st0{fill:#F5B31F;}
	.st1{fill:#464646;}
	.st2{opacity:0.15;}
	.st3{fill:#AC6535;}
	.st4{fill:#EB573B;}
	.st5{fill:#90C056;}
	.st6{opacity:0.35;}
	.st7{fill:#FFFFFF;}
	.st8{opacity:0.2;}
	.st9{fill:#F6D67A;}
	.st10{opacity:0.3;}
	.st11{fill:#FFA755;}
	.st12{fill:#8FAE3C;}
	.st13{fill:#BE6BB2;}
	.st14{fill:#B7C536;}
	.st15{opacity:0.1;}
	.st16{fill:#9D5A96;}
	.st17{fill:#EA615D;}
	.st18{opacity:0.4;}
	.st19{fill:#F79932;}
	.st20{fill:#FFEC97;}
	.st21{fill:#FFD11D;}
	.st22{fill:#F7F2D5;}
	.st23{fill:#F6AF72;}
	.st24{fill:#BA6C45;}
	.st25{opacity:0.5;}
	.st26{fill:#E4C074;}
	.st27{fill:#656566;}
	.st28{fill:#FACD1F;}
	.st29{fill:#FFDF66;}
	.st30{fill:#6D6E71;}
	.st31{fill:#E77CAE;}
	.st32{fill:#FFE5C4;}
	.st33{fill:#F68455;}
	.st34{opacity:0.7;}
	.st35{fill:#ADEDFF;}
	.st36{fill:#EC754B;}
	.st37{fill:#4AA5BA;}
	.st38{opacity:0.8;}
	.st39{fill:#92A5AC;}
	.st40{fill:#D06E3C;}
	.st41{fill:#DA4F4B;}
	.st42{fill:#BDF3FF;}
	.st43{fill:#F18BB4;}
	.st44{fill:#F9D97A;}
	.st45{fill:none;}
	.st46{fill:#AF6535;}
	.st47{fill:#B93226;}
	.st48{fill:#FF6050;}
	.st49{fill:#EA7CB1;}
	.st50{fill:#00B0E0;}
	.st51{fill:#EA7DAE;}
	.st52{fill:#BC7532;}
	.st53{fill:#876C6C;}
	.st54{fill:#F9F6CD;}
	.st55{fill:#FFE37B;}
	.st56{fill:#1DDCFF;}
	.st57{fill:#60ACF7;}
	.st58{fill:#C3755A;}
	.st59{fill:#96557A;}
	.st60{fill:#66625D;}
	.st61{fill:#D68032;}
	.st62{fill:#F2A355;}
	.st63{fill:#7E9E6A;}
	.st64{fill:#965A85;}
	.st65{fill:#90CAD3;}
	.st66{fill:#94B57F;}
	.st67{fill:#B2E2E7;}
	.st68{fill:#FFDF8F;}
	.st69{fill:#FFFAEB;}
	.st70{fill:#F88916;}
	.st71{fill:#FFC86E;}
	.st72{fill:#AFA51D;}
	.st73{fill:#968A1C;}
	.st74{fill:#C3556D;}
</style>
<g>
	<g>
		<g>
			<g>
				<polygon class="st9" points="241.8,113.9 239.2,125.7 211.2,252.1 185.5,252.1 199.5,141.4 200.7,132 				"/>
			</g>
		</g>
		<g>
			<g>
				<path class="st0" d="M200.7,132l-1.2,9.5l-14,110.7l-28.9,0l4.9-104.6l1.5-31.8c1-0.1,2-0.3,2.9-0.4L200.7,132z"/>
			</g>
		</g>
		<g>
			<g>
				<path class="st9" d="M163,115.7l-1.5,31.8l-4.9,104.6l-30.4,0l1.5-103l0.2-16.3l30.7-16.5l0,0
					C160.1,116.1,161.6,115.9,163,115.7z"/>
			</g>
		</g>
		<g>
			<g>
				<path class="st0" d="M127.9,132.8l-0.2,16.3l-1.5,103l-32.1,0l-4.2-105l-1.3-32c1.2,0.2,2.3,0.4,3.5,0.5L127.9,132.8z"/>
			</g>
		</g>
		<g>
			<g>
				<path class="st9" d="M94.1,252.1l-25.2,0L52.1,140.4l-1.3-8.4l35.9-17.2c0.6,0.1,1.2,0.2,1.8,0.3l1.3,32L94.1,252.1z"/>
			</g>
		</g>
		<g>
			<g>
				<polygon class="st0" points="68.9,252.1 42.8,252.1 16.4,125.6 14,113.9 50.9,132 52.1,140.4 				"/>
			</g>
		</g>
		<g>
			<g>
				<path class="st1" d="M211.2,256.1L211.2,256.1l-25.6,0c-1.1,0-2.2-0.5-3-1.4c-0.8-0.9-1.1-2-1-3.1l15.2-120.1
					c0.2-1.4,1.1-2.6,2.4-3.2l41.1-18.1c1.4-0.6,3-0.4,4.1,0.6c1.2,1,1.7,2.5,1.4,4L215.1,253C214.7,254.8,213,256.1,211.2,256.1z
					 M190.1,248.1l17.9,0l28.3-127.4l-31.8,14l-0.9,7.2L190.1,248.1z"/>
			</g>
		</g>
		<g>
			<g>
				<path class="st1" d="M185.5,256.1L185.5,256.1l-28.9,0c-1.1,0-2.1-0.4-2.9-1.2s-1.2-1.9-1.1-2.9l6.3-136.4
					c0.1-1.9,1.5-3.5,3.4-3.8c1-0.1,2-0.3,2.9-0.4c0.8-0.1,1.6,0,2.3,0.3l34.8,16.7c1.6,0.7,2.5,2.4,2.2,4.1l-1.2,9.5l-14,110.7
					C189.2,254.6,187.5,256.1,185.5,256.1z M160.9,248.1l21.1,0l14.4-113.8l-29.6-14.2L160.9,248.1z"/>
			</g>
		</g>
		<g>
			<g>
				<path class="st1" d="M156.7,256.1L156.7,256.1l-30.4,0c-1.1,0-2.1-0.4-2.8-1.2c-0.8-0.8-1.2-1.8-1.2-2.9l1.7-119.3
					c0-1.5,0.8-2.8,2.1-3.5l30.7-16.5c0.5-0.3,1-0.4,1.5-0.5c1.4-0.2,2.8-0.4,4.2-0.6c1.2-0.2,2.4,0.2,3.3,1c0.9,0.8,1.4,2,1.3,3.1
					l-6.3,136.4C160.6,254.4,158.8,256.1,156.7,256.1z M130.3,248.1l22.6,0l5.9-127.3l-26.9,14.4L130.3,248.1z"/>
			</g>
		</g>
		<g>
			<g>
				<path class="st1" d="M126.2,256.1L126.2,256.1l-32.1,0c-2.1,0-3.9-1.7-4-3.8l-5.5-137c0-1.2,0.4-2.4,1.4-3.2
					c0.9-0.8,2.1-1.1,3.3-0.9c1.1,0.2,2.3,0.4,3.4,0.5c0.4,0.1,0.8,0.2,1.2,0.4l35.8,17.2c1.4,0.7,2.3,2.1,2.3,3.7l-1.7,119.3
					C130.2,254.4,128.4,256.1,126.2,256.1z M98,248.1l24.3,0l1.6-112.8l-31.1-14.9L98,248.1z"/>
			</g>
		</g>
		<g>
			<g>
				<path class="st1" d="M94.1,256.1L94.1,256.1l-25.2,0c-2,0-3.7-1.4-4-3.4L46.9,132.6c-0.3-1.7,0.6-3.4,2.2-4.2L85,111.2
					c0.8-0.4,1.6-0.5,2.4-0.3c0.6,0.1,1.2,0.2,1.7,0.3c1.9,0.3,3.3,1.9,3.4,3.8l5.5,137c0,1.1-0.4,2.1-1.1,2.9
					C96.3,255.7,95.2,256.1,94.1,256.1z M72.4,248.1l17.6,0l-5.2-128l-29.5,14.2l0.8,5.5L72.4,248.1z"/>
			</g>
		</g>
		<g>
			<g>
				<path class="st1" d="M68.9,256.1L68.9,256.1l-26.1,0c-1.9,0-3.5-1.3-3.9-3.2L10.1,114.7c-0.3-1.5,0.3-3,1.5-4
					c1.2-0.9,2.8-1.1,4.2-0.4l36.9,18.1c1.2,0.6,2,1.7,2.2,3l1.3,8.4l16.8,111.7c0.2,1.2-0.2,2.3-0.9,3.2
					C71.2,255.6,70.1,256.1,68.9,256.1z M46.1,248.1l18.2,0L47.2,134.6l-27.6-13.5L46.1,248.1z"/>
			</g>
		</g>
	</g>
	<g>
		<g>
			<path class="st3" d="M251.3,107.9c0,6.4-4.4,12.4-12.1,17.8l2.6-11.8L200.7,132l-34.8-16.7l-2.8-1.4l-4.4,2.4l0,0l-30.7,16.5
				l-35.8-17.2l-3.5-1.7l-1.8,0.9L50.9,132L14,113.9l2.4,11.7c-7.7-5.4-11.9-11.4-11.9-17.7c0-8.6,7.9-16.6,21.5-23.2
				c10.1-4.9,23.3-9.1,38.8-12.2c0,0,0,0,0,0c18.5-3.7,40.1-5.8,63.2-5.8s44.7,2.1,63.2,5.8c0,0,0,0,0,0
				c15.4,3.1,28.7,7.2,38.8,12.2C243.4,91.3,251.3,99.3,251.3,107.9z"/>
		</g>
	</g>
	<g class="st2">
		<g>
			<path class="st7" d="M191.1,72.5c0,0-40.1-5.8-63.2-5.8s-44.7,2.1-63.2,5.8c0,0,0,0,0,0C49.3,75.6,36.1,79.7,26,84.7
				C12.4,91.3,4.5,99.3,4.5,107.9c0,6.3,4.3,12.3,11.9,17.7c0,0-1.6-18,20.7-29.4S191.1,72.5,191.1,72.5z"/>
		</g>
	</g>
	<g>
		<g>
			<path class="st4" d="M231.7,77c0,2.6-0.6,5.2-1.8,7.7c-10.1-4.9-23.3-9.1-38.8-12.2c0,0,0,0,0,0c-18.5-3.7-40.1-5.8-63.2-5.8
				s-44.7,2.1-63.2,5.8c0,0,0,0,0,0C49.3,75.6,36.1,79.7,26,84.7c-1.2-2.5-1.8-5.1-1.8-7.7c0-9.3,7.8-17.9,20.8-24.8
				c18.9-10,49.1-16.4,83-16.4c33.9,0,64,6.5,83,16.4C223.9,59.1,231.7,67.7,231.7,77z"/>
		</g>
	</g>
	<g class="st10">
		<g>
			<path class="st7" d="M210.9,52.2c-18.9-10-49.1-16.4-83-16.4c-33.9,0-64,6.4-83,16.4c-13.1,6.9-20.8,15.5-20.8,24.8
				c0,2.6,0.6,5.2,1.8,7.7c0,0-2-13.5,46.6-29.9S210.9,52.2,210.9,52.2z"/>
		</g>
	</g>
	<g>
		<g>
			<path class="st31" d="M212.1,45.3c0,2.3-0.4,4.6-1.2,6.9c-18.9-10-49.1-16.4-83-16.4c-33.9,0-64,6.4-83,16.4
				c-0.8-2.2-1.2-4.5-1.2-6.9c0-22.7,37.7-41.2,84.1-41.2C174.4,4.1,212.1,22.6,212.1,45.3z"/>
		</g>
	</g>
	<g class="st10">
		<g>
			<path class="st7" d="M182.7,14.1c-14.7-6.2-33.9-9.9-54.8-9.9c-46.5,0-84.1,18.4-84.1,41.2c0,2.3,0.4,4.6,1.2,6.9
				c0,0,10.3-17.1,35.8-28.7S182.7,14.1,182.7,14.1z"/>
		</g>
	</g>
	<g>
		<g>
			<path class="st1" d="M163,119.7c-1,0-1.9-0.4-2.7-1c-0.9-0.8-1.4-2-1.3-3.2l0.1-1.8c0.1-1.3,0.8-2.6,1.9-3.2s2.6-0.8,3.8-0.2
				l2.8,1.4c1.6,0.8,2.5,2.5,2.2,4.2c-0.3,1.7-1.6,3.1-3.4,3.4c-1,0.1-2,0.3-2.9,0.4C163.4,119.7,163.2,119.7,163,119.7z"/>
		</g>
	</g>
	<g>
		<g>
			<path class="st1" d="M158.6,120.3c-1.7,0-3.3-1.1-3.8-2.8c-0.6-1.8,0.2-3.8,1.9-4.7l4.4-2.4c1.3-0.7,2.8-0.6,4,0.1
				c1.2,0.8,1.9,2.1,1.9,3.6l-0.1,1.8c-0.1,1.9-1.5,3.5-3.4,3.8c-1.5,0.2-2.9,0.4-4.4,0.6C159,120.3,158.8,120.3,158.6,120.3z"/>
		</g>
	</g>
	<g>
		<g>
			<path class="st1" d="M92.1,119.6c-0.2,0-0.4,0-0.6,0c-1.2-0.2-2.4-0.4-3.6-0.6c-1.9-0.3-3.3-1.9-3.3-3.8l0-1.2
				c-0.1-1.4,0.6-2.7,1.8-3.5c1.2-0.8,2.7-0.9,3.9-0.3l3.5,1.7c1.8,0.9,2.7,2.9,2.1,4.8C95.4,118.5,93.8,119.6,92.1,119.6z"/>
		</g>
	</g>
	<g>
		<g>
			<path class="st1" d="M88.6,119.1c-0.2,0-0.4,0-0.6,0c-0.6-0.1-1.3-0.2-1.9-0.3c-1.7-0.3-3-1.7-3.3-3.4c-0.2-1.7,0.7-3.4,2.2-4.1
				l1.8-0.9c1.2-0.6,2.6-0.5,3.8,0.2c1.2,0.7,1.9,1.9,1.9,3.3l0,1.2c0,1.2-0.4,2.4-1.3,3.2C90.5,118.7,89.6,119.1,88.6,119.1z"/>
		</g>
	</g>
	<g>
		<g>
			<path class="st1" d="M92.1,119.6c-0.2,0-0.4,0-0.6,0c-1.2-0.2-2.4-0.4-3.6-0.6c-0.6-0.1-1.2-0.2-1.9-0.3c-1.7-0.3-3-1.7-3.3-3.4
				c-0.2-1.7,0.7-3.4,2.2-4.1l1.8-0.9c1.1-0.5,2.4-0.5,3.5,0l3.5,1.7c1.8,0.9,2.7,2.9,2.1,4.8C95.4,118.5,93.8,119.6,92.1,119.6z"/>
		</g>
	</g>
	<g>
		<g>
			<path class="st1" d="M127.9,136.8c-0.6,0-1.2-0.1-1.7-0.4l-37.6-18l-0.1,0l-35.9,17.2c-1.1,0.5-2.4,0.5-3.5,0l-29.5-14.5l0.8,3.7
				c0.3,1.6-0.3,3.3-1.7,4.2c-1.4,0.9-3.2,0.9-4.5-0.1c-9.1-6.3-13.6-13.4-13.6-21c0-6.9,4.1-17.2,23.7-26.8
				c10.5-5.1,23.8-9.3,39.7-12.5c0,0,0.1,0,0.1,0c19.2-3.8,41.3-5.9,63.8-5.9c0,0,0,0,0,0c22.5,0,44.6,2,63.8,5.9c0,0,0.1,0,0.1,0
				c15.9,3.2,29.3,7.4,39.7,12.5c19.6,9.6,23.7,19.9,23.7,26.8v0c0,0,0,0,0,0c0,7.6-4.7,14.7-13.8,21.1c-1.4,0.9-3.1,1-4.5,0
				c-1.4-0.9-2-2.6-1.7-4.2l0.9-4.1l-33.9,14.9c-1.1,0.5-2.3,0.4-3.3-0.1l-35.8-17.2l-2.6,1.4c-0.1,0-0.1,0.1-0.2,0.1l-30.5,16.4
				C129.2,136.6,128.6,136.8,127.9,136.8z M88.6,109.9c0.6,0,1.2,0.1,1.7,0.4l3.5,1.7l34,16.3l28.9-15.5c0.1,0,0.1-0.1,0.2-0.1
				l4.3-2.3c1.1-0.6,2.5-0.6,3.6-0.1l36,17.3l39.4-17.3c1.4-0.6,3-0.4,4.1,0.6c0.8,0.7,1.3,1.6,1.4,2.6c0.9-1.7,1.5-3.6,1.5-5.5v0
				c0-6.6-6.8-13.6-19.2-19.6c-9.7-4.7-22.7-8.8-37.7-11.8c0,0-0.1,0-0.1,0c-18.8-3.7-40.3-5.7-62.4-5.7c0,0,0,0,0,0
				c-22,0-43.6,2-62.4,5.7c0,0-0.1,0-0.1,0c-14.9,3-28,7.1-37.7,11.8c-12.4,6-19.2,13-19.2,19.6c0,1.9,0.6,3.8,1.5,5.5
				c0.1-1,0.7-2,1.5-2.7c1.2-0.9,2.8-1.1,4.2-0.4l35.1,17.2l35.9-17.2C87.4,110,88,109.9,88.6,109.9z"/>
		</g>
	</g>
	<g>
		<g>
			<path class="st1" d="M158.6,120.3c-1.7,0-3.3-1.1-3.8-2.8c-0.6-1.8,0.2-3.8,1.9-4.7l4.4-2.4c1.1-0.6,2.5-0.6,3.6-0.1l2.8,1.4
				c1.6,0.8,2.5,2.5,2.2,4.2c-0.3,1.7-1.6,3.1-3.4,3.4c-1,0.1-2,0.3-2.9,0.4c-1.5,0.2-2.9,0.4-4.4,0.6
				C159,120.3,158.8,120.3,158.6,120.3z"/>
		</g>
	</g>
	<g>
		<g>
			<path class="st1" d="M92.1,119.6c-0.2,0-0.4,0-0.6,0c-1.2-0.2-2.4-0.4-3.6-0.6c-0.6-0.1-1.2-0.2-1.9-0.3c-1.7-0.3-3-1.7-3.3-3.4
				c-0.2-1.7,0.7-3.4,2.2-4.1l1.8-0.9c1.1-0.5,2.4-0.5,3.5,0l3.5,1.7c1.8,0.9,2.7,2.9,2.1,4.8C95.4,118.5,93.8,119.6,92.1,119.6z"/>
		</g>
	</g>
	<g>
		<g>
			<path class="st1" d="M158.6,120.3c-1.7,0-3.3-1.1-3.8-2.8c-0.6-1.8,0.2-3.8,1.9-4.7l4.4-2.4c1.1-0.6,2.5-0.6,3.6-0.1l2.8,1.4
				c1.6,0.8,2.5,2.5,2.2,4.2c-0.3,1.7-1.6,3.1-3.4,3.4c-1,0.1-2,0.3-2.9,0.4c-1.5,0.2-2.9,0.4-4.4,0.6
				C159,120.3,158.8,120.3,158.6,120.3z"/>
		</g>
	</g>
	<g>
		<g>
			<path class="st1" d="M229.9,88.7c-0.6,0-1.2-0.1-1.8-0.4c-9.7-4.7-22.7-8.8-37.7-11.8c0,0-0.1,0-0.1,0
				c-18.8-3.7-40.3-5.7-62.4-5.7c0,0,0,0,0,0c-22,0-43.6,2-62.4,5.7c0,0-0.1,0-0.1,0c-14.9,3-28,7.1-37.7,11.8
				c-1,0.5-2.1,0.5-3.1,0.2c-1-0.3-1.8-1.1-2.3-2c-1.5-3.1-2.2-6.2-2.2-9.5c0-10.6,7.9-20.4,23-28.3c20.4-10.7,51.3-16.9,84.8-16.9
				c0,0,0,0,0,0c33.5,0,64.4,6.2,84.8,16.9c15,7.9,23,17.7,23,28.3v0c0,0,0,0,0,0c0,3.2-0.7,6.4-2.2,9.5c-0.5,1-1.3,1.7-2.3,2
				C230.8,88.6,230.3,88.7,229.9,88.7z M191.8,68.6c0,0,0.1,0,0.1,0c13.9,2.8,25.8,6.3,35.6,10.6c0.1-0.7,0.2-1.5,0.2-2.2v0
				c0-7.3-6.6-14.9-18.7-21.2c-19-10-49.3-16-81.1-16c0,0,0,0,0,0c-31.8,0-62.1,6-81.1,16c-12.1,6.4-18.7,13.9-18.7,21.2
				c0,0.7,0.1,1.5,0.2,2.2c9.8-4.3,21.7-7.8,35.6-10.6c0,0,0.1,0,0.1,0c19.2-3.8,41.3-5.9,63.8-5.9c0,0,0,0,0,0
				C150.4,62.7,172.5,64.7,191.8,68.6z"/>
		</g>
	</g>
	<g>
		<g>
			<path class="st1" d="M210.9,56.2c-0.6,0-1.3-0.2-1.9-0.5c-19-10-49.3-16-81.1-16c0,0,0,0,0,0c-31.8,0-62.1,6-81.1,16
				c-1,0.5-2.2,0.6-3.3,0.2c-1.1-0.4-1.9-1.3-2.3-2.4c-0.9-2.7-1.4-5.4-1.4-8.2c0-12.6,9.5-24.2,26.9-32.7
				c16.4-8,38.2-12.5,61.2-12.5c0,0,0,0,0,0c23.1,0,44.8,4.4,61.2,12.5c17.3,8.5,26.9,20.1,26.9,32.7v0c0,0,0,0,0,0
				c0,2.8-0.5,5.5-1.4,8.2c-0.4,1.1-1.2,2-2.3,2.4C211.9,56.1,211.4,56.2,210.9,56.2z M127.9,31.8C127.9,31.8,127.9,31.8,127.9,31.8
				c31.1,0,59.8,5.3,80.1,14.6c0-0.3,0-0.7,0-1c0,0,0,0,0,0c0-9.3-8.2-18.6-22.4-25.5c-15.4-7.5-35.9-11.7-57.7-11.7c0,0,0,0,0,0
				c-21.9,0-42.4,4.1-57.7,11.7C56,26.7,47.8,36,47.8,45.3c0,0.3,0,0.7,0,1C68.1,37,96.9,31.8,127.9,31.8z"/>
		</g>
	</g>
</g>
</svg>
