<?xml version="1.0" encoding="utf-8"?>
<!-- Generator: Adobe Illustrator 22.1.0, SVG Export Plug-In . SVG Version: 6.00 Build 0)  -->
<svg version="1.1" id="Layer_1" xmlns="http://www.w3.org/2000/svg" xmlns:xlink="http://www.w3.org/1999/xlink" x="0px" y="0px"
	 viewBox="0 0 256 256" style="enable-background:new 0 0 256 256;" xml:space="preserve">
<style type="text/css">
	.st0{fill:#F5B31F;}
	.st1{fill:#464646;}
	.st2{opacity:0.15;}
	.st3{fill:#AC6535;}
	.st4{fill:#EB573B;}
	.st5{fill:#90C056;}
	.st6{opacity:0.35;}
	.st7{fill:#FFFFFF;}
	.st8{opacity:0.2;}
	.st9{fill:#F6D67A;}
	.st10{opacity:0.3;}
	.st11{fill:#FFA755;}
	.st12{fill:#8FAE3C;}
	.st13{fill:#BE6BB2;}
	.st14{fill:#B7C536;}
	.st15{opacity:0.1;}
	.st16{fill:#9D5A96;}
	.st17{fill:#EA615D;}
	.st18{opacity:0.4;}
	.st19{fill:#F79932;}
	.st20{fill:#FFEC97;}
	.st21{fill:#FFD11D;}
	.st22{fill:#F7F2D5;}
	.st23{fill:#F6AF72;}
	.st24{fill:#BA6C45;}
	.st25{opacity:0.5;}
	.st26{fill:#E4C074;}
	.st27{fill:#656566;}
	.st28{fill:#FACD1F;}
	.st29{fill:#FFDF66;}
	.st30{fill:#6D6E71;}
	.st31{fill:#E77CAE;}
	.st32{fill:#FFE5C4;}
	.st33{fill:#F68455;}
	.st34{opacity:0.7;}
	.st35{fill:#ADEDFF;}
	.st36{fill:#EC754B;}
	.st37{fill:#4AA5BA;}
	.st38{opacity:0.8;}
	.st39{fill:#92A5AC;}
	.st40{fill:#D06E3C;}
	.st41{fill:#DA4F4B;}
	.st42{fill:#BDF3FF;}
	.st43{fill:#F18BB4;}
	.st44{fill:#F9D97A;}
	.st45{fill:none;}
	.st46{fill:#AF6535;}
	.st47{fill:#B93226;}
	.st48{fill:#FF6050;}
	.st49{fill:#EA7CB1;}
	.st50{fill:#00B0E0;}
	.st51{fill:#EA7DAE;}
	.st52{fill:#BC7532;}
	.st53{fill:#876C6C;}
	.st54{fill:#F9F6CD;}
	.st55{fill:#FFE37B;}
	.st56{fill:#1DDCFF;}
	.st57{fill:#60ACF7;}
	.st58{fill:#C3755A;}
	.st59{fill:#96557A;}
	.st60{fill:#66625D;}
	.st61{fill:#D68032;}
	.st62{fill:#F2A355;}
	.st63{fill:#7E9E6A;}
	.st64{fill:#965A85;}
	.st65{fill:#90CAD3;}
	.st66{fill:#94B57F;}
	.st67{fill:#B2E2E7;}
	.st68{fill:#FFDF8F;}
	.st69{fill:#FFFAEB;}
	.st70{fill:#F88916;}
	.st71{fill:#FFC86E;}
	.st72{fill:#AFA51D;}
	.st73{fill:#968A1C;}
	.st74{fill:#C3556D;}
</style>
<g>
	<g>
		<g>
			<path class="st74" d="M154.4,116.6c-2.7-2.5-5.6-4.9-8.6-7.2L127,98.6C119.3,117.6,144.5,132.9,154.4,116.6z"/>
		</g>
	</g>
	<g>
		<g>
			<path class="st12" d="M238.5,97.5c-9,9-20.2,19.7-49.6,9.4c-17.6-6.2-33.3-1.9-43.1,2.5c-6.5,2.9-10.4,5.9-10.4,5.9
				c1.4-4.1,2.1-7.9,2-11.7c-0.2-12.8-12.7-23.6-24.1-39c20.3,1.7,31.1,19.8,32.9,36.9c0,0,1.2-1.1,3.2-3c5.4-5,16.8-15.7,28.2-25.6
				c8.5-7.4,17-14.5,22.9-18.6c16.8-11.7,36.5,0.1,22.5,22.5C242.6,73.4,247.4,88.5,238.5,97.5z"/>
		</g>
	</g>
	<g class="st15">
		<g>
			<path d="M200.6,54.4c16.8-11.7,36.5,0.1,22.5,22.5c0,0,2.2-12.6-3.3-18.7S200.6,54.4,200.6,54.4z"/>
		</g>
	</g>
	<g class="st15">
		<g>
			<path d="M223.1,77c19.5-3.6,24.4,11.6,15.4,20.5c-9,9-20.2,19.7-49.6,9.4c0,0,30.5,0.8,42.1-11.3S223.1,77,223.1,77z"/>
		</g>
	</g>
	<g>
		<g>
			<path class="st12" d="M178.4,73c-11.4,9.9-22.8,20.6-28.2,25.6c-2.8-9.1-4.1-17.6-2.1-24.7c-8.1-6.2-10.1-13.6-4.6-22.5
				c-3.7-1.7-26.6-27.8,1.9-44.9c18-10,30.4,9.5,19.8,34.4c15.2-5,13.2,11.9,6.6,19.1C175.2,63.2,177.7,67.6,178.4,73z"/>
		</g>
	</g>
	<g class="st15">
		<g>
			<path d="M149.2,91.4c0.4-0.5,26-25.4,26-25.4l2.9,5l-27,24.2L149.2,91.4z"/>
		</g>
	</g>
	<g class="st15">
		<g>
			<path d="M168.4,60c10.8-7,8.7-22.8-6.5-17.9c0,0,7.4,1,9.5,5.3S168.4,60,168.4,60z"/>
		</g>
	</g>
	<g class="st15">
		<g>
			<path d="M164.5,40.9c10.6-24.9-1.8-44.4-19.8-34.4c0,0,9.8,0.8,15.3,6.5C165.5,18.7,164.5,40.9,164.5,40.9z"/>
		</g>
	</g>
	<g>
		<g>
			<path class="st74" d="M84.5,220.2c-23.7-9-45.3,2.8-45.3,2.8S46,208,33,172.5C3.9,88.7,83.7,54.4,127,97.8
				c-19.4,10.8,22.8,42.2,27.4,18.8C213.7,176,151.8,249.9,84.5,220.2z"/>
		</g>
	</g>
	<g class="st8">
		<g>
			<path class="st7" d="M127,97.8C83.7,54.4,3.9,88.7,33,172.5c0,0-3.5-48.2,25.8-66.8S127,97.8,127,97.8z"/>
		</g>
	</g>
	<g class="st15">
		<g>
			<path d="M131.7,120c8.7,6.3,20.4,8.3,22.7-3.4c59.3,59.3-2.6,133.2-69.8,103.6c-23.7-9-45.3,2.8-45.3,2.8S46,208,33,172.5
				c0,0,36.5,55.3,97.6,29.7S131.7,120,131.7,120z"/>
		</g>
	</g>
	<g>
		<g>
			<path class="st1" d="M115.5,230.9c-10.7,0-21.7-2.3-32.5-7c-21.6-8.2-41.7,2.5-41.9,2.6c-1.5,0.8-3.4,0.6-4.6-0.6
				c-1.3-1.2-1.6-3-0.9-4.6c0-0.1,5.7-14.3-6.4-47.4c-7.1-20.6-8.4-39.3-3.7-55.7c4.2-14.6,12.9-26.5,25.3-34.2
				c24.7-15.5,57.2-11,79.1,10.9c0.9,0.9,1.3,2.1,1.1,3.4c-0.2,1.2-0.9,2.3-2,2.9c-2.7,1.5-3.5,3.2-2.8,5.9
				c1.9,6.7,12.3,14.2,19.1,13.9c1.9-0.1,4.3-0.7,5.2-5.2c0.3-1.5,1.3-2.6,2.8-3.1c1.4-0.4,3,0,4,1c14.1,14.1,22.6,30.2,24.6,46.5
				c1.8,15-1.7,29.5-10.3,41.9C158.8,220.8,138,230.9,115.5,230.9z M65.7,212.8c6.3,0,13.2,1,20.3,3.7c0.1,0,0.1,0,0.2,0.1
				c24.4,10.7,59.4,9.4,78.7-18.8c12.1-17.7,15.6-46-9.2-73.9c-2.3,3.2-5.7,5.1-10.1,5.2c-10.5,0.4-24.2-9.5-27.1-19.8
				c-1.3-4.5-0.4-8.6,2.4-11.7C101.9,81,75.3,78.1,55,90.8c-8.9,5.6-36.5,27.8-18.3,80.4c5.5,15.1,8.3,28.5,8.2,39.9
				c0,2-0.1,3.7-0.3,5.2C49.8,214.6,57.2,212.8,65.7,212.8z"/>
		</g>
	</g>
	<g>
		<g>
			<path class="st1" d="M142.9,127.5c-3.1,0-6.2-0.8-9-2.2c-9.1-4.6-15.6-15.7-10.6-28.2c0.4-1.1,1.3-1.9,2.4-2.3
				c1.1-0.4,2.3-0.3,3.3,0.3l18.8,10.8c0.1,0.1,0.3,0.2,0.4,0.3c3.1,2.4,6.1,4.9,8.9,7.5c1.4,1.3,1.7,3.4,0.7,5
				C154,125,148.4,127.5,142.9,127.5z M129.6,104.7c-0.4,6,3.2,11.1,7.8,13.4c3.5,1.7,8,2.1,11.4-1.1c-1.7-1.5-3.5-2.9-5.3-4.3
				L129.6,104.7z"/>
		</g>
	</g>
	<g>
		<g>
			<path class="st1" d="M135.4,119.3c-0.8,0-1.6-0.3-2.3-0.8c-1.4-1-2-2.9-1.4-4.6c1.3-3.6,1.8-6.9,1.8-10.3
				c-0.1-8.1-6.4-15.7-14.3-25.3c-2.9-3.6-6-7.2-9-11.3c-0.9-1.3-1-3-0.3-4.3c0.8-1.4,2.3-2.2,3.8-2c19.5,1.7,31.2,16.7,35.2,33
				c7-6.5,16.6-15.4,26.1-23.7c10.1-8.8,17.9-15.2,23.2-18.9c9.9-6.9,21.6-7.1,28.6-0.5c5.5,5.2,6.5,13.1,3,21.9
				c7.1,0.3,12.6,3.3,15.3,8.5c3.2,6.1,1.6,13.9-3.9,19.4c-8.6,8.6-21.6,21.6-53.7,10.4c-16.2-5.7-30.8-1.8-40.1,2.4
				c-5.9,2.7-9.5,5.4-9.6,5.4C137.2,119.1,136.3,119.3,135.4,119.3z M170.8,99.8c6.1,0,12.6,0.9,19.4,3.3c27.4,9.6,37,0,45.4-8.5
				c3-3,4-7,2.4-10c-1.9-3.7-7.3-5.1-14.3-3.8c-1.6,0.3-3.1-0.4-4-1.7c-0.9-1.3-0.9-3-0.1-4.4c4.9-7.9,5.5-14.8,1.6-18.4
				c-3.5-3.3-10.9-3.9-18.5,1.3c-5.1,3.5-12.6,9.7-22.5,18.3c-10.5,9.1-21.1,18.9-28.1,25.5l-1.9,1.8
				C156.1,101.3,163.1,99.8,170.8,99.8z M124.2,71.9c0.4,0.5,0.8,0.9,1.1,1.4c8.6,10.4,16,19.4,16.2,30.3c0,1.2,0,2.4-0.1,3.5
				c0.9-0.4,1.8-0.9,2.8-1.4c0.3-0.1,0.5-0.2,0.8-0.3c0,0-0.1,0-0.1,0c-1.4-0.5-2.4-1.8-2.6-3.3C141,90.1,135,77.7,124.2,71.9z"/>
		</g>
	</g>
	<g>
		<g>
			<path class="st1" d="M149.5,102.6c-0.3,0-0.7,0-1-0.1c-1.3-0.4-2.4-1.4-2.8-2.7c-3-9.9-3.9-17.8-2.7-24.3
				c-7.3-6.6-9.1-14.6-5.2-23.1c-4.4-4.4-10.5-13.2-11.1-23.1c-0.5-7.3,2-17.8,16-26.2c0,0,0.1,0,0.1-0.1c8.3-4.6,16.4-4.2,22.4,1.1
				c7.2,6.5,9.1,18.8,5.4,31.9c4.3,0.3,6.6,2.7,7.8,4.4c3.3,5.2,1.7,13.5-2,19.3c2.9,3.6,4.7,8,5.4,12.7c0.2,1.3-0.3,2.7-1.3,3.6
				c-10.5,9.1-21.1,18.9-28.1,25.5C151.4,102.2,150.5,102.6,149.5,102.6z M144.6,47.8c1,0.5,1.8,1.4,2.1,2.4
				c0.3,1.1,0.2,2.3-0.4,3.3c-4.3,6.9-3.2,12.1,3.6,17.3c1.3,1,1.9,2.7,1.4,4.3c-1.2,4.3-1.1,9.5,0.4,16.1
				c6.2-5.8,13.9-12.8,21.7-19.6c-0.8-3.3-2.5-6.3-5-8.6c-1.6-1.5-1.7-4-0.2-5.6c3.4-3.7,4.8-10.3,3.4-12.5c-1-1.5-4.7-0.5-5.8-0.1
				c-1.5,0.5-3.1,0.1-4.2-1.1c-1.1-1.2-1.3-2.8-0.7-4.3c6-14.1,3.6-25-1.1-29.2c-3.2-2.9-7.9-3-13.1-0.1c-8,4.8-12.1,10.7-12.1,17.6
				C134.6,37.2,142.5,46.5,144.6,47.8z M144.5,47.8C144.5,47.8,144.5,47.8,144.5,47.8C144.5,47.8,144.5,47.8,144.5,47.8z"/>
		</g>
	</g>
	<g>
		<g>
			<path class="st1" d="M182.9,94.6c-2.1,0-3.9-1.6-4-3.8c-0.1-2.2,1.6-4.1,3.8-4.2c10.5-0.6,19.7-2.8,28.2-6.7
				c2-0.9,4.4-0.1,5.3,1.9c0.9,2,0.1,4.4-1.9,5.3c-9.4,4.4-19.5,6.8-31.1,7.5C183.1,94.6,183,94.6,182.9,94.6z"/>
		</g>
	</g>
	<g>
		<g>
			<path class="st1" d="M160,72.9c-1.6,0-3.1-1-3.7-2.5c-4.9-12.4-8.3-26.1-10-40.6c-0.3-2.2,1.3-4.2,3.5-4.4
				c2.2-0.3,4.2,1.3,4.4,3.5c1.6,13.8,4.8,26.8,9.5,38.6c0.8,2.1-0.2,4.4-2.3,5.2C161,72.8,160.5,72.9,160,72.9z"/>
		</g>
	</g>
	<g>
		<g>
			<path class="st1" d="M152.8,168.3c-0.2,0-0.4,0-0.6-0.1c-20.4-3.3-43.5-20.7-56.3-42.5c-9.7-16.5-12.2-33.3-7.1-47.4
				c0.8-2.1,3-3.1,5.1-2.4c2.1,0.8,3.1,3.1,2.4,5.1c-4.3,11.8-2,26.2,6.5,40.6c11.7,19.8,32.5,35.7,50.7,38.6
				c2.2,0.3,3.7,2.4,3.3,4.6C156.4,166.9,154.7,168.3,152.8,168.3z"/>
		</g>
	</g>
	<g>
		<g>
			<path class="st1" d="M152.8,200.3c-0.2,0-0.3,0-0.5,0c-17.8-2.3-37.4-12.3-55.1-28.1c-16.8-15.1-30.2-34.1-36.8-52.3
				c-0.8-2.1,0.3-4.4,2.4-5.1c2.1-0.7,4.4,0.3,5.1,2.4c13.2,36.5,52.2,70.9,85.3,75.1c2.2,0.3,3.7,2.3,3.5,4.5
				C156.5,198.8,154.8,200.3,152.8,200.3z"/>
		</g>
	</g>
	<g>
		<g>
			<path class="st1" d="M45.4,148.4c-1.6,0-3.2-1-3.8-2.7c-5.1-14.4-7.7-28.2-8.2-43.4c-0.1-2.2,1.7-4.1,3.9-4.1
				c2.2-0.1,4.1,1.7,4.1,3.9c0.5,14.3,3,27.3,7.8,41c0.7,2.1-0.4,4.4-2.4,5.1C46.3,148.3,45.8,148.4,45.4,148.4z"/>
		</g>
	</g>
	<g>
		<g>
			<path class="st1" d="M146.7,220c-29.6,0-55.7-9.8-75.7-28.5c-1.6-1.5-1.7-4-0.2-5.7c1.5-1.6,4-1.7,5.7-0.2
				c19.7,18.4,45.9,27.5,75.7,26.3c2.2-0.1,4.1,1.6,4.2,3.8c0.1,2.2-1.6,4.1-3.8,4.2C150.5,219.9,148.5,220,146.7,220z"/>
		</g>
	</g>
	<g>
		<g>
			<path class="st1" d="M64.7,213c-0.7,0-1.4-0.2-2.1-0.6c-18.1-11.1-30.4-27.4-36.4-48.4c-0.6-2.1,0.6-4.3,2.7-5
				c2.1-0.6,4.3,0.6,5,2.7c5.5,19.2,16.3,33.6,32.9,43.8c1.9,1.2,2.5,3.6,1.3,5.5C67.4,212.3,66.1,213,64.7,213z"/>
		</g>
	</g>
	<g>
		<g>
			<path class="st1" d="M13.2,255.8c-0.8,0-1.5-0.2-2.2-0.7c-1.8-1.2-2.3-3.7-1.1-5.5c0.2-0.3,5.2-7.6,15.7-12.2
				c3.9-1.7,6.5-6,8-9.7c0.2-2,0.8-4.1,2-6.5c0.9-1.8,2.9-2.7,4.8-2c1.9,0.6,3,2.5,2.7,4.5c0,0.2-0.5,2.6-1.6,5.8
				c0.1,2.4,1.5,4.1,3.3,6.4c1.7,2.1,3.6,4.4,4.3,7.5c0.5,2.2-0.8,4.3-3,4.8c-2.2,0.5-4.3-0.8-4.8-3c-0.3-1.3-1.4-2.7-2.7-4.2
				c-0.6-0.7-1.3-1.6-1.9-2.5c-2,2.6-4.7,5-8,6.5c-8.3,3.5-12.2,9.2-12.2,9.2C15.7,255.2,14.5,255.8,13.2,255.8z"/>
		</g>
	</g>
	<g>
		<g>
			<path class="st1" d="M15.1,239.7c-1.9,0-3.6-1.4-3.9-3.4c-0.3-2.2,1.2-4.2,3.3-4.6c8.6-1.3,15.3-4.9,21.9-11.6
				c1.5-1.6,4.1-1.6,5.7-0.1c1.6,1.5,1.6,4.1,0.1,5.7c-7.7,8-16.1,12.4-26.4,14C15.5,239.7,15.3,239.7,15.1,239.7z"/>
		</g>
	</g>
	<g>
		<g>
			<path class="st1" d="M21.8,226.3c-2,0-3.8-1.5-4-3.6c-0.2-2.2,1.4-4.2,3.6-4.4c10.6-1.1,13.7-8.6,15.3-15.7
				c0.5-2.2,2.6-3.5,4.8-3c2.2,0.5,3.5,2.6,3,4.8c-3.1,13.5-10.4,20.7-22.3,21.9C22.1,226.3,21.9,226.3,21.8,226.3z"/>
		</g>
	</g>
</g>
</svg>
