<?xml version="1.0" encoding="utf-8"?>
<!-- Generator: Adobe Illustrator 22.1.0, SVG Export Plug-In . SVG Version: 6.00 Build 0)  -->
<svg version="1.1" id="Layer_1" xmlns="http://www.w3.org/2000/svg" xmlns:xlink="http://www.w3.org/1999/xlink" x="0px" y="0px"
	 viewBox="0 0 256 256" style="enable-background:new 0 0 256 256;" xml:space="preserve">
<style type="text/css">
	.st0{fill:#F5B31F;}
	.st1{fill:#464646;}
	.st2{opacity:0.15;}
	.st3{fill:#AC6535;}
	.st4{fill:#EB573B;}
	.st5{fill:#90C056;}
	.st6{opacity:0.35;}
	.st7{fill:#FFFFFF;}
	.st8{opacity:0.2;}
	.st9{fill:#F6D67A;}
	.st10{opacity:0.3;}
	.st11{fill:#FFA755;}
	.st12{fill:#8FAE3C;}
	.st13{fill:#BE6BB2;}
	.st14{fill:#B7C536;}
	.st15{opacity:0.1;}
	.st16{fill:#9D5A96;}
	.st17{fill:#EA615D;}
	.st18{opacity:0.4;}
	.st19{fill:#F79932;}
	.st20{fill:#FFEC97;}
	.st21{fill:#FFD11D;}
	.st22{fill:#F7F2D5;}
	.st23{fill:#F6AF72;}
	.st24{fill:#BA6C45;}
	.st25{opacity:0.5;}
	.st26{fill:#E4C074;}
	.st27{fill:#656566;}
	.st28{fill:#FACD1F;}
	.st29{fill:#FFDF66;}
	.st30{fill:#6D6E71;}
	.st31{fill:#E77CAE;}
	.st32{fill:#FFE5C4;}
	.st33{fill:#F68455;}
	.st34{opacity:0.7;}
	.st35{fill:#ADEDFF;}
	.st36{fill:#EC754B;}
	.st37{fill:#4AA5BA;}
	.st38{opacity:0.8;}
	.st39{fill:#92A5AC;}
	.st40{fill:#D06E3C;}
	.st41{fill:#DA4F4B;}
	.st42{fill:#BDF3FF;}
	.st43{fill:#F18BB4;}
	.st44{fill:#F9D97A;}
	.st45{fill:none;}
	.st46{fill:#AF6535;}
	.st47{fill:#B93226;}
	.st48{fill:#FF6050;}
	.st49{fill:#EA7CB1;}
	.st50{fill:#00B0E0;}
	.st51{fill:#EA7DAE;}
	.st52{fill:#BC7532;}
	.st53{fill:#876C6C;}
	.st54{fill:#F9F6CD;}
	.st55{fill:#FFE37B;}
	.st56{fill:#1DDCFF;}
	.st57{fill:#60ACF7;}
	.st58{fill:#C3755A;}
	.st59{fill:#96557A;}
	.st60{fill:#66625D;}
	.st61{fill:#D68032;}
	.st62{fill:#F2A355;}
	.st63{fill:#7E9E6A;}
	.st64{fill:#965A85;}
	.st65{fill:#90CAD3;}
	.st66{fill:#94B57F;}
	.st67{fill:#B2E2E7;}
	.st68{fill:#FFDF8F;}
	.st69{fill:#FFFAEB;}
	.st70{fill:#F88916;}
	.st71{fill:#FFC86E;}
	.st72{fill:#AFA51D;}
	.st73{fill:#968A1C;}
	.st74{fill:#C3556D;}
</style>
<g>
	<g>
		<g>
			<g>
				<g>
					<g>
						<path class="st39" d="M146,82.6c-2.2,6.4-5.4,18.5-9.2,32.8c7.5-36.1-23.5-64.4-32.8-69.3s-19.8-4-27.4-2.6
							c-7.5,1.4-12.8,12.3-21.3,15c-8.5,2.7-14.8,4.8-20.6,7.5c-10.4,4.8-21.5,35.7-17.1,58.3c-10.5-29-14.6-56.2-9-65
							c5.5-8.7,10.9-19,20.7-29.8c9.8-10.8,29.4-26.3,53-25.5c23.6,0.8,31.8,2.4,45.4,16.2C141.5,33.9,153.8,59.3,146,82.6z"/>
					</g>
				</g>
			</g>
		</g>
		<g class="st25">
			<g>
				<g>
					<g>
						<path class="st7" d="M127.9,20.1C114.2,6.3,106.1,4.7,82.4,3.9c-23.6-0.8-43.3,14.7-53,25.5C19.6,40.3,14.2,50.6,8.7,59.3
							c-5.5,8.8-9.5,8.9,0.9,37.9c0,0,3-58,54.8-78.2S127.9,20.1,127.9,20.1L127.9,20.1z"/>
					</g>
				</g>
			</g>
		</g>
		<g class="st15">
			<g>
				<g>
					<g>
						<path d="M141.3,103.8c-3.1,11.6-16.2,29.3-19.8,41.9c1.4-24.8-6.1-65.7-38.7-62.6c-9.4,1.2-11,6.4-20.4,9.1
							c-9.4,2.7-15.9,3.1-20.3,7.6c-9.3,12-19.6,35.8-9.3,60.7c-5.7-9.5-10.9-19.8-15.2-30.2c-1.8-4.3-3.5-8.7-5.1-13
							C8.1,94.7,19.2,63.9,29.6,59c5.7-2.7,12.1-4.8,20.6-7.5s13.8-13.6,21.3-15C79,35.1,96.7,34.2,106,39S148.8,67.7,141.3,103.8z"
							/>
					</g>
				</g>
			</g>
		</g>
		<g>
			<g>
				<g>
					<g>
						<path class="st39" d="M136.9,115.4c-3.1,11.6-6.6,24.6-10.1,37.3c1.4-24.8-6.1-65.7-38.7-62.6c-9.4,1.2-11,6.4-20.4,9.1
							c-9.4,2.7-15.9,3.1-20.3,7.6c-9.3,12-19.6,35.8-9.3,60.7c-5.7-9.5-10.9-19.8-15.2-30.2c-1.8-4.3-3.5-8.7-5.1-13
							c-4.4-22.6,6.6-53.5,17.1-58.3c5.7-2.7,12.1-4.8,20.6-7.5c8.5-2.7,13.8-13.6,21.3-15c7.5-1.4,18.1-2.3,27.4,2.6
							S144.4,79.3,136.9,115.4z"/>
					</g>
				</g>
			</g>
		</g>
		<g class="st25">
			<g>
				<g>
					<g>
						<path class="st7" d="M129,72.6c-8.2-14.1-19.8-23.8-24.9-26.5c-9.3-4.9-19.8-4-27.4-2.6c-7.5,1.4-12.8,12.3-21.3,15
							c-8.5,2.7-14.8,4.8-20.6,7.5c-10.4,4.8-21.5,35.7-17.1,58.3c1.6,4.3,3.3,8.7,5.1,13c0,0,4.5-46.9,13.6-58.8
							C39.1,75,49,68,60.4,67c7.4-0.7,15.9-17.5,24.1-17.2C107,50.6,129,72.6,129,72.6z"/>
					</g>
				</g>
			</g>
		</g>
		<g class="st15">
			<g>
				<g>
					<g>
						<path d="M129.9,127.4c-3.6,12.6-17.2,43.8-20.8,53.7c13.9-42.7-22.9-50.5-30.2-48.8c-7.8,1.8-17.5,7-22.9,28.4
							c-5.4,21.4,31.3,44.9,31.3,44.9c-21.1,0.4-40.7-19-56-44.2c0,0,0,0,0,0c-10.3-24.9,0-48.7,9.3-60.7c4.4-4.5,10.9-4.9,20.3-7.6
							c9.4-2.7,11.1-7,20.4-9.1C113.6,76.7,131.3,101.7,129.9,127.4z"/>
					</g>
				</g>
			</g>
		</g>
		<g>
			<g>
				<g>
					<g>
						<path class="st39" d="M126.7,152.6c-3.6,12.6-7.3,24.7-10.9,34.6c13.9-42.7-22.9-50.5-30.2-48.8c-7.8,1.8-17.5,7-22.9,28.4
							C57.4,188.3,94,211.7,94,211.7c-21.1,0.4-40.7-19-56-44.2c0,0,0,0,0,0c-10.3-24.9,0-48.7,9.3-60.7c4.4-4.5,10.9-4.9,20.3-7.6
							c9.4-2.7,11-7.9,20.4-9.1C120.7,86.9,128.2,127.8,126.7,152.6z"/>
					</g>
				</g>
			</g>
		</g>
		<g class="st25">
			<g>
				<g>
					<g>
						<path class="st7" d="M120.2,110.9c-5.8-12.9-15.8-22.4-32.1-20.8c-9.4,1.2-11,6.4-20.4,9.1c-9.4,2.7-15.9,3.1-20.3,7.6
							c-9.3,12-19.6,35.8-9.3,60.7c0,0,0,0,0,0c0,0,8-48.3,17-53.5c9-5.2,10.2-3.6,18.7-6.8c8.7-3.3,8.8-7.6,18.3-7.7
							C101.7,99.4,120.2,110.9,120.2,110.9z"/>
					</g>
				</g>
			</g>
		</g>
		<g class="st15">
			<g>
				<g>
					<g>
						<path d="M117.3,188.3c17-52-25.7-60.7-34.5-58.6c-9.5,2.2-21.3,8.5-27.9,34.6c-6.6,26.1,36.5,44.9,36.5,44.9L117.3,188.3z"/>
					</g>
				</g>
			</g>
		</g>
		<g>
			<g>
				<g>
					<g>
						<path class="st39" d="M115.9,187.2C115.9,187.3,115.9,187.3,115.9,187.2c-1.3,3.5-2.5,6.8-3.8,9.6c0,0.1-0.1,0.1-0.1,0.2
							c-3.1,7.1-6,12-8.5,13.2c-3.2,1-6.3,1.5-9.4,1.5c0,0-36.7-23.4-31.3-44.9c5.4-21.4,15-26.6,22.9-28.4
							C92.9,136.7,129.8,144.6,115.9,187.2z"/>
					</g>
				</g>
			</g>
		</g>
		<g class="st25">
			<g>
				<g>
					<g>
						<path class="st7" d="M115.8,155.1c-7.4-14.7-25.3-17.8-30.1-16.6c-7.8,1.8-17.5,7-22.9,28.4c-1.8,7,1,14.3,5.5,20.8
							c0,0-1.9-23.2,12.8-36.3S115.8,155.1,115.8,155.1z"/>
					</g>
				</g>
			</g>
		</g>
		<g>
			<g>
				<g>
					<g>
						<path class="st39" d="M22.8,137.3c-2.5-3.7-4.1-8.2-5.1-13L22.8,137.3z"/>
					</g>
				</g>
			</g>
		</g>
		<g>
			<g>
				<g>
					<g>
						<g>
							<path class="st1" d="M17.8,128.3c-1.6,0-3.2-1-3.8-2.6C5.3,101.6-2.2,69.2,5.4,57.1c1.1-1.7,2.1-3.5,3.2-5.3
								c4.6-7.6,9.8-16.1,17.8-25.1C32.3,20.2,53.7-1,82.6-0.1c23.7,0.8,33.3,2.4,48.2,17.4c7.8,7.8,14.4,18.5,18.1,29.2
								c4.5,13,4.9,26,1,37.4c0,0,0,0,0,0c-2.1,6.2-5.3,18.3-9,32.2l-0.1,0.3c-0.6,2.1-2.7,3.4-4.8,2.9c-2.1-0.5-3.4-2.6-3-4.7
								c7-33.5-21.9-60.3-30.7-64.9c-6.5-3.4-14.6-4.1-24.8-2.2C74.8,48,72,50.7,69,53.6c-3.5,3.4-7.4,7.2-12.5,8.8
								c-8.7,2.7-14.7,4.8-20.1,7.3c-8.3,3.9-19,32.5-14.8,53.9c0.4,2.1-0.8,4.1-2.9,4.6C18.5,128.3,18.1,128.3,17.8,128.3z
								 M80.8,7.9c-24.6,0-43.2,18.5-48.4,24.2C24.8,40.5,19.8,48.7,15.4,56c-1.1,1.9-2.2,3.7-3.3,5.4c-2.9,4.6-2.6,18.2,2,37.4
								c2.9-16.7,10.4-32.4,19-36.4c5.7-2.7,12.1-4.8,21-7.6c3.3-1,6.3-4,9.3-6.9c3.7-3.6,7.5-7.3,12.5-8.2
								c12.1-2.3,21.9-1.3,30,2.9c8.6,4.5,27.8,22,34.1,46.1c0.8-2.9,1.6-5.3,2.2-7.3l0,0c7.1-21.1-4-45.1-17.2-58.4
								c-12.6-12.7-19.8-14.3-42.7-15C81.8,7.9,81.3,7.9,80.8,7.9z M146,82.6L146,82.6L146,82.6z"/>
						</g>
					</g>
				</g>
			</g>
			<g>
				<g>
					<g>
						<g>
							<path class="st1" d="M38.1,171.5c-1.4,0-2.7-0.7-3.4-1.9c-5.6-9.3-10.8-19.6-15.5-30.7c-1.8-4.3-3.6-8.8-5.2-13.2
								c-0.1-0.2-0.1-0.4-0.2-0.6c-4.4-22.6,6-56.5,19.3-62.7c5.7-2.7,12.1-4.8,21-7.6c3.3-1,6.3-4,9.3-6.9
								c3.7-3.6,7.5-7.3,12.5-8.2c12.1-2.3,21.9-1.3,30,2.9c11.6,6.1,42.7,36,34.9,73.7c0,0.1,0,0.1-0.1,0.2l-0.3,1.2
								c-3,11.2-6.4,23.9-9.9,36.2c-0.6,2-2.5,3.2-4.5,2.8c-2-0.3-3.4-2.1-3.3-4.2c1-18-2.9-40.9-14.2-51.8
								c-5.4-5.2-12-7.4-20.1-6.6c-4.2,0.5-6.4,2-9.2,3.8c-2.7,1.8-5.7,3.7-10.5,5.1c-2.5,0.7-4.7,1.3-6.8,1.7
								c-5.5,1.3-9.2,2.2-11.6,4.6c-3.8,5-20.1,28.8-8.6,56.6c0.8,1.9,0,4.2-1.9,5.1C39.3,171.3,38.7,171.5,38.1,171.5z M21.6,123.2
								c1.5,4.2,3.2,8.4,4.9,12.5c1.1,2.5,2.2,5,3.3,7.5c0.6-15.4,6.9-29.3,14.4-38.9c0.1-0.1,0.2-0.2,0.3-0.3
								c4.1-4.1,9.4-5.5,15.6-7c2-0.5,4.1-1,6.5-1.7c3.7-1.1,5.9-2.5,8.3-4.1c3.2-2.1,6.6-4.3,12.7-5.1c0,0,0.1,0,0.1,0
								c10.4-1,19.3,2,26.4,8.8c8.3,8,13,20.6,15.2,33.3c1.2-4.4,2.3-8.6,3.4-12.7l0.3-1.1c6.9-33.5-22-60.2-30.8-64.8
								c-6.5-3.4-14.6-4.1-24.8-2.2C74.8,48,72,50.7,69,53.6c-3.5,3.4-7.4,7.2-12.5,8.8c-8.7,2.7-14.7,4.8-20.1,7.3
								C29.1,73.1,17.3,100.6,21.6,123.2z M136.9,115.4L136.9,115.4L136.9,115.4z"/>
						</g>
					</g>
				</g>
			</g>
			<g>
				<g>
					<g>
						<g>
							<path class="st1" d="M93.3,215.7c-14.2,0-35.7-8.2-58.7-46.2c0-0.1-0.1-0.1-0.1-0.2c-0.1-0.1-0.1-0.3-0.2-0.4h0
								c-10.3-25-1.7-49.8,9.8-64.7c0.1-0.1,0.2-0.2,0.3-0.3c4.1-4.1,9.4-5.5,15.6-7c2-0.5,4.1-1,6.5-1.7c3.7-1.1,5.9-2.5,8.3-4.1
								c3.2-2.1,6.6-4.3,12.7-5.1c0,0,0.1,0,0.1,0c10.4-1,19.3,2,26.4,8.8c14,13.5,17.7,39.7,16.6,58c0,0.3-0.1,0.6-0.1,0.9
								c-4.1,14.5-7.7,25.9-11,34.9c-0.7,2.1-3,3.1-5.1,2.4c-2.1-0.7-3.2-2.9-2.5-5c4.9-15,3.7-26.6-3.6-34.5
								c-7.5-8.2-19.2-9.8-21.9-9.1c-6.7,1.6-14.9,5.9-19.9,25.5c-3.9,15.3,20,34.4,29.5,40.5c1.5,0.9,2.2,2.8,1.7,4.5
								c-0.5,1.7-2,2.9-3.8,2.9C93.9,215.7,93.6,215.7,93.3,215.7z M41.7,165.7c11.2,18.4,23.2,31.2,35,37.5
								c-10.3-9.5-21.3-23.5-17.8-37.3c6.1-24.1,17.7-29.4,25.8-31.3c5.6-1.3,20.3,1.4,29.6,11.5c2.6,2.8,5.1,6.6,6.8,11.6
								c0.5-1.8,1.1-3.7,1.6-5.7c1.3-24.7-6.2-43.6-14.2-51.3c-5.4-5.2-12-7.4-20.1-6.6c-4.2,0.5-6.4,2-9.2,3.8
								c-2.7,1.8-5.7,3.7-10.5,5.1c-2.5,0.7-4.7,1.3-6.8,1.7c-5.5,1.3-9.2,2.2-11.6,4.6C46.6,114.3,30.4,138,41.7,165.7z
								 M126.7,152.6L126.7,152.6L126.7,152.6z"/>
						</g>
					</g>
				</g>
			</g>
			<g>
				<g>
					<g>
						<g>
							<path class="st1" d="M94,215.7c-0.8,0-1.5-0.2-2.2-0.6c-1.6-1-39.1-25.3-33-49.2c6.1-24.1,17.7-29.4,25.8-31.3
								c3.1-0.7,8.2-0.2,13.3,1.4c4.5,1.4,11,4.3,16.3,10.1c6.5,7,12.6,20.1,5.3,42.4c0,0.1-0.1,0.2-0.1,0.3c0,0,0,0,0,0
								c-1.4,3.7-2.6,6.9-3.8,9.7v0c0,0.1-0.1,0.1-0.1,0.2c-3.8,8.9-7.1,13.6-10.5,15.2c-0.2,0.1-0.3,0.1-0.5,0.2
								C101.2,215.1,97.7,215.7,94,215.7C94.1,215.7,94.1,215.7,94,215.7z M88,142.2c-0.6,0-1.1,0-1.4,0.1
								c-6.7,1.6-14.9,5.9-19.9,25.5c-3.7,14.7,18.4,33.1,28.5,39.8c2.3-0.1,4.5-0.5,6.8-1.2c0.5-0.4,2.7-2.4,6.4-11h0
								c0-0.1,0.1-0.1,0.1-0.2c1.1-2.7,2.3-5.7,3.7-9.4c0,0,0,0,0-0.1c4.8-14.9,3.6-26.5-3.7-34.4C101.9,144.3,92.1,142.2,88,142.2z
								 M115.9,187.2L115.9,187.2L115.9,187.2z"/>
						</g>
					</g>
				</g>
			</g>
		</g>
	</g>
	<g>
		<g>
			<g>
				<g>
					<g>
						<path class="st39" d="M201.1,221.6C201.1,221.6,201.1,221.6,201.1,221.6c19.1-15,36.1-35.7,48-62.3c3.4-13.8-6.9-17.3-7.4-40
							c-0.2-15.9-23.3-41-46.8-50s-53.6,0-72.6,33.8c-2.3,4-4.7,8.9-7.1,14.3c0,0,0,0.1-0.1,0.2c0,0,0,0.1-0.1,0.1
							c-2.5,6.1-34.3,84.9-12.1,113.8C125.8,261.5,200,222.2,201.1,221.6z M120.8,214.9c-3.2-4.8,6.4-32,6.4-32s7.6-34.2,12.4-40.8
							c4.8-6.6,22.2-30.1,47.7-23.7c25.5,6.4,28.8,25.8,28.9,34.5c0.1,8.7,1.4,23.1-10.8,39.9S138,238.9,120.8,214.9z"/>
					</g>
				</g>
			</g>
		</g>
		<g class="st15">
			<g>
				<g>
					<g>
						<path d="M115.1,117.4c0,0,0,0.1-0.1,0.2c0,0-34.3,85-12.1,114c22.9,29.9,97.1-9.4,98.2-10c0,0,0,0,0,0s-64.3,30.9-88,3.3
							S115.1,117.4,115.1,117.4z"/>
					</g>
				</g>
			</g>
		</g>
		<g>
			<g>
				<g>
					<g>
						<path class="st39" d="M82.9,242.1c26.8,17.6,77.1,11.8,118.2-20.5c-1.1,0.6-75.3,39.9-98.2,10
							c-22.2-28.9,9.6-107.8,12.1-113.8C97,158.1,76.8,230.6,82.9,242.1z"/>
					</g>
				</g>
			</g>
		</g>
		<g>
			<g>
				<g>
					<g>
						<path class="st32" d="M205.5,192.8c12.2-16.8,10.9-31.2,10.8-39.9c-0.1-8.7-3.3-28-28.9-34.5c-25.5-6.4-43,17.1-47.7,23.7
							c-4.8,6.6-12.4,40.8-12.4,40.8s-9.6,27.2-6.4,32C138,238.9,193.3,209.6,205.5,192.8z"/>
					</g>
				</g>
			</g>
		</g>
		<g class="st34">
			<g>
				<g>
					<g>
						<path class="st7" d="M187.4,118.4c-25.5-6.4-43,17.1-47.7,23.7c-4.8,6.6-12.4,40.8-12.4,40.8s-9.6,27.2-6.4,32
							c7.1,9.9,20.8,10.7,35.2,7.1c0,0-14.2-12.4-13.1-39.7C146,138.6,187.4,118.4,187.4,118.4z"/>
					</g>
				</g>
			</g>
		</g>
		<g>
			<g>
				<g>
					<g>
						<path class="st1" d="M130.8,246.7c-12.6,0-24-3.3-31.1-12.7c-10-13.1-11.4-36.2-3.9-68.8c5.4-23.9,13.9-45,15.5-49
							c0-0.1,0-0.1,0.1-0.2c0.1-0.2,0.1-0.3,0.2-0.4c2.5-5.7,5-10.6,7.2-14.6c9.4-16.6,22-28.6,36.6-34.7c13.4-5.6,27.9-5.9,41-0.9
							c25.2,9.6,49.2,35.7,49.4,53.7c0.2,10.6,2.7,16.6,4.8,21.9c2.3,5.7,4.5,11,2.5,19.2c-0.1,0.2-0.1,0.4-0.2,0.7
							c-11.2,25.3-28.2,47.4-49.2,63.8c-0.2,0.2-0.5,0.3-0.8,0.5C199.7,226.8,161.5,246.7,130.8,246.7z M118.6,119.4
							C106.1,150,89.4,207.5,106,229.2c10.5,13.7,34.6,10.3,53,5c20-5.7,37.6-14.8,39.9-16c19.9-15.7,35.5-36,46.3-60.2
							c1.3-5.5-0.1-8.8-2.2-13.9c-2.3-5.6-5.2-12.7-5.4-24.7c0,0,0,0,0,0c-0.2-15.6-24.9-38.9-44.3-46.3c-18.8-7.2-47.9-3.2-67.7,32
							c-2.2,3.8-4.5,8.5-6.9,14c0,0,0,0,0,0c0,0,0,0,0,0c0,0.1,0,0,0,0.1C118.7,119.2,118.6,119.3,118.6,119.4z M249,159.3
							L249,159.3L249,159.3z M118.6,119.4C118.6,119.4,118.6,119.4,118.6,119.4c0-0.1,0.1-0.1,0.1-0.2c0,0,0,0,0,0
							C118.7,119.2,118.6,119.3,118.6,119.4z M118.7,119.2L118.7,119.2C118.7,119.2,118.7,119.2,118.7,119.2z M141.5,228
							c0,0-0.1,0-0.1,0c-10.6,0-18.8-3.7-23.8-10.7c0,0-0.1-0.1-0.1-0.1c-3.5-5.3,1.3-22.1,5.9-35.3c1.4-6.4,8.1-35.2,13-42
							c19.4-26.8,39-28.5,51.9-25.3c28.6,7.2,31.8,29.2,31.9,38.3c0,0.7,0,1.4,0,2.1c0.2,8.8,0.4,23.6-11.6,40.2
							C199.3,208.1,166.3,228,141.5,228z M124.3,212.8c3.5,4.7,9.3,7.1,17.1,7.1c0,0,0.1,0,0.1,0c21.7,0,52.3-17.8,60.7-29.5
							c0,0,0,0,0,0c10.4-14.4,10.2-26.5,10.1-35.4c0-0.8,0-1.5,0-2.2c-0.1-9-3.5-25-25.8-30.6c-10.6-2.7-26.7-1-43.5,22.2
							c-3.1,4.3-8.9,26.4-11.7,39.3c0,0.2-0.1,0.3-0.1,0.5C126.6,196.9,123.5,209.9,124.3,212.8z M124.3,212.9
							C124.3,212.9,124.3,212.9,124.3,212.9L124.3,212.9z"/>
					</g>
				</g>
			</g>
		</g>
		<g>
			<g>
				<g>
					<g>
						<path class="st1" d="M120,255.9c-14.9,0-28.6-3.4-39.3-10.4c-0.6-0.4-1-0.9-1.3-1.5c-3.4-6.4-1.2-24.7,6.7-54.3
							c6.8-25.7,16.5-53.9,25.2-73.6c0.9-2,3.2-2.9,5.2-2.1c2,0.9,3,3.2,2.1,5.2c-1,2.4-9.6,23.8-15.1,47.7
							c-6.8,29.7-5.9,51.2,2.5,62.2c17.3,22.6,73.1-0.3,93.1-11.1c1.8-1,4.1-0.4,5.2,1.3c1.1,1.7,0.8,4.1-0.9,5.3
							C177.8,245,146.8,255.9,120,255.9z M86.1,239.4c12.4,7.7,29.9,10.2,49.4,7.3c-14.4,0.9-27.8-2.1-35.9-12.6
							c-6.1-8-8.5-19.3-8.6-31.7C85.6,225.2,85.3,236,86.1,239.4z"/>
					</g>
				</g>
			</g>
		</g>
		<g>
			<g>
				<g>
					<path class="st1" d="M158.3,208.1c-1.6,0-3.2-1-3.8-2.6c-0.8-2.1,0.3-4.4,2.4-5.1c17.7-6.5,28.5-14,35.1-24.2
						c1.2-1.9,3.7-2.4,5.5-1.2c1.9,1.2,2.4,3.7,1.2,5.5c-9.7,15.2-26,22.6-39,27.4C159.2,208,158.8,208.1,158.3,208.1z"/>
				</g>
			</g>
		</g>
		<g>
			<g>
				<g>
					<path class="st1" d="M197.8,167.5c-1.1,0-2.1-0.4-2.9-1.2c-6.4-6.6-12.8-8.7-20.2-6.5c-2.1,0.6-4.3-0.6-5-2.7
						c-0.6-2.1,0.6-4.3,2.7-5c7.1-2.1,13.8-1.4,20,2c-2-9.9-5.4-16.6-10.6-20.7c-1.7-1.4-2-3.9-0.6-5.6c1.4-1.7,3.9-2,5.6-0.6
						c8.4,6.8,13.2,18.2,14.9,35.9c0.2,1.7-0.8,3.3-2.3,4C198.9,167.4,198.4,167.5,197.8,167.5z"/>
				</g>
			</g>
		</g>
	</g>
</g>
</svg>
