<?xml version="1.0" encoding="utf-8"?>
<!-- Generator: Adobe Illustrator 22.1.0, SVG Export Plug-In . SVG Version: 6.00 Build 0)  -->
<svg version="1.1" id="Layer_1" xmlns="http://www.w3.org/2000/svg" xmlns:xlink="http://www.w3.org/1999/xlink" x="0px" y="0px"
	 viewBox="0 0 256 256" style="enable-background:new 0 0 256 256;" xml:space="preserve">
<style type="text/css">
	.st0{fill:#F5B31F;}
	.st1{fill:#464646;}
	.st2{opacity:0.15;}
	.st3{fill:#AC6535;}
	.st4{fill:#EB573B;}
	.st5{fill:#90C056;}
	.st6{opacity:0.35;}
	.st7{fill:#FFFFFF;}
	.st8{opacity:0.2;}
	.st9{fill:#F6D67A;}
	.st10{opacity:0.3;}
	.st11{fill:#FFA755;}
	.st12{fill:#8FAE3C;}
	.st13{fill:#BE6BB2;}
	.st14{fill:#B7C536;}
	.st15{opacity:0.1;}
	.st16{fill:#9D5A96;}
	.st17{fill:#EA615D;}
	.st18{opacity:0.4;}
	.st19{fill:#F79932;}
	.st20{fill:#FFEC97;}
	.st21{fill:#FFD11D;}
	.st22{fill:#F7F2D5;}
	.st23{fill:#F6AF72;}
	.st24{fill:#BA6C45;}
	.st25{opacity:0.5;}
	.st26{fill:#E4C074;}
	.st27{fill:#656566;}
	.st28{fill:#FACD1F;}
	.st29{fill:#FFDF66;}
	.st30{fill:#6D6E71;}
	.st31{fill:#E77CAE;}
	.st32{fill:#FFE5C4;}
	.st33{fill:#F68455;}
	.st34{opacity:0.7;}
	.st35{fill:#ADEDFF;}
	.st36{fill:#EC754B;}
	.st37{fill:#4AA5BA;}
	.st38{opacity:0.8;}
	.st39{fill:#92A5AC;}
	.st40{fill:#D06E3C;}
	.st41{fill:#DA4F4B;}
	.st42{fill:#BDF3FF;}
	.st43{fill:#F18BB4;}
	.st44{fill:#F9D97A;}
	.st45{fill:none;}
	.st46{fill:#AF6535;}
	.st47{fill:#B93226;}
	.st48{fill:#FF6050;}
	.st49{fill:#EA7CB1;}
	.st50{fill:#00B0E0;}
	.st51{fill:#EA7DAE;}
	.st52{fill:#BC7532;}
	.st53{fill:#876C6C;}
	.st54{fill:#F9F6CD;}
	.st55{fill:#FFE37B;}
	.st56{fill:#1DDCFF;}
	.st57{fill:#60ACF7;}
	.st58{fill:#C3755A;}
	.st59{fill:#96557A;}
	.st60{fill:#66625D;}
	.st61{fill:#D68032;}
	.st62{fill:#F2A355;}
	.st63{fill:#7E9E6A;}
	.st64{fill:#965A85;}
	.st65{fill:#90CAD3;}
	.st66{fill:#94B57F;}
	.st67{fill:#B2E2E7;}
	.st68{fill:#FFDF8F;}
	.st69{fill:#FFFAEB;}
	.st70{fill:#F88916;}
	.st71{fill:#FFC86E;}
	.st72{fill:#AFA51D;}
	.st73{fill:#968A1C;}
	.st74{fill:#C3556D;}
</style>
<g>
	<g>
		<g>
			<path class="st40" d="M233.4,55.3c15,16.6,20.3,35.7,18.1,53.7c-0.3,3-0.9,6-1.7,9c-4.3,16.6-15,31.7-29.9,42
				c-9.3,6.4-20.3,11-32.4,13c-6.3,1-12.9,1.3-19.8,0.8c-2.2-0.2-4.2-0.3-6.2-0.3c-30.7-0.8-39.7,11.3-46.2,25.6
				c-6.6,14.5-10.7,31.4-32.1,39.7c-0.1,0-0.1,0.1-0.2,0.1c-12.6,4.8-24.7,5.3-35.5,2c-15.9-4.7-28.9-17.4-36.5-35.4
				c-5.3-12.7-7.9-28.1-6.9-45.3l0-0.2c0.5-7.7,1.2-14.9,2.3-21.7c2.2-13.8,5.6-26,10.5-37.3c6.8-15.7,16.5-29.3,29.5-42.4
				c6.4-6.4,13.6-12.7,21.7-19c6-4.6,12.3-8.7,18.9-12.3c13.7-7.4,28.7-12.2,44.2-13.7c4.5-0.4,9-0.6,13.5-0.5
				c15.5,0.4,31.3,4.1,47.1,11.8c12,5.8,24,13.9,35.6,24.6C229.6,51.3,231.6,53.3,233.4,55.3z"/>
		</g>
	</g>
	<g>
		<g>
			<path class="st1" d="M61.8,246.9c-5.3,0-10.5-0.7-15.4-2.2c-17.1-5.1-31-18.5-39-37.7c-5.7-13.7-8.2-30-7.2-47.1l0-0.3
				c0.5-7.7,1.3-15.1,2.4-22c2.3-14.2,5.8-26.8,10.8-38.2c6.9-15.8,16.8-30.1,30.3-43.6c6.5-6.5,13.7-12.8,22.1-19.3
				c6.2-4.8,12.7-9,19.4-12.6c14.6-7.8,30-12.6,45.7-14.1c4.7-0.5,9.4-0.6,14-0.5c16.6,0.4,33,4.5,48.7,12.2
				c12.7,6.2,25,14.7,36.6,25.3c2.2,2,4.2,4,6.1,6.1l0,0c14.8,16.3,21.6,36.5,19.2,56.8c-0.4,3.1-1,6.3-1.8,9.5
				c-4.6,17.7-15.8,33.4-31.5,44.2c-10.2,7-21.7,11.6-34.1,13.6c-6.7,1.1-13.7,1.4-20.7,0.9c-1.9-0.1-3.9-0.2-6-0.3
				c-29.1-0.7-36.7,10.6-42.5,23.3c-0.9,2.1-1.8,4.1-2.7,6.3c-5.5,13-11.7,27.7-31.6,35.4l-0.2,0.1
				C76.9,245.4,69.2,246.9,61.8,246.9z M141.8,17c-3.3,0-6.7,0.2-10.1,0.5c-14.6,1.4-29,5.9-42.7,13.2c-6.3,3.4-12.5,7.4-18.3,11.9
				C62.6,49,55.6,55.1,49.4,61.3c-12.8,12.8-22.2,26.3-28.6,41.2c-4.8,10.9-8.1,22.7-10.2,36.3c-1,6.7-1.8,13.8-2.3,21.3l0,0.3
				c-1,15.9,1.3,30.9,6.6,43.5c7.1,16.9,19.1,28.7,33.9,33.1c10.2,3.1,21.6,2.4,32.9-1.9l0.1-0.1c16.8-6.5,21.8-18.5,27.2-31.1
				c0.9-2.2,1.8-4.4,2.8-6.5c6.4-14,16-28.8,50-28c2.2,0.1,4.3,0.2,6.4,0.3c6.4,0.5,12.7,0.2,18.8-0.8c11.2-1.8,21.6-6,30.8-12.3
				c14.1-9.7,24.2-23.8,28.3-39.7c0.7-2.8,1.3-5.6,1.6-8.4c2.2-18.3-3.7-35.7-17.1-50.5c0,0,0,0,0,0c-1.7-1.9-3.6-3.7-5.5-5.6
				c-11-10.1-22.7-18.2-34.7-24c-14.7-7.1-30-11-45.5-11.4C143.8,17,142.8,17,141.8,17z"/>
		</g>
	</g>
	<g>
		<g>
			<path class="st1" d="M83.2,242.7c-1,0-2-0.4-2.8-1.2l-79-78.9c-1.6-1.6-1.6-4.1,0-5.7c1.6-1.6,4.1-1.6,5.7,0l79,78.9
				c1.6,1.6,1.6,4.1,0,5.7C85.2,242.3,84.2,242.7,83.2,242.7z"/>
		</g>
	</g>
	<g>
		<g>
			<path class="st1" d="M115.3,203c-1,0-2-0.4-2.8-1.2l-98.3-98.1c-1.6-1.6-1.6-4.1,0-5.7c1.6-1.6,4.1-1.6,5.7,0l98.3,98.1
				c1.6,1.6,1.6,4.1,0,5.7C117.4,202.6,116.3,203,115.3,203z"/>
		</g>
	</g>
	<g>
		<g>
			<path class="st1" d="M161.6,177.4c-1,0-2-0.4-2.8-1.2L43.7,61.3c-1.6-1.6-1.6-4.1,0-5.7c1.6-1.6,4.1-1.6,5.7,0l115,114.9
				c1.6,1.6,1.6,4.1,0,5.7C163.6,177,162.6,177.4,161.6,177.4z"/>
		</g>
	</g>
	<g>
		<g>
			<path class="st1" d="M219.9,163.9c-1,0-2-0.4-2.8-1.2L84.3,30.1c-1.6-1.6-1.6-4.1,0-5.7c1.6-1.6,4.1-1.6,5.7,0L222.8,157
				c1.6,1.6,1.6,4.1,0,5.7C222,163.5,220.9,163.9,219.9,163.9z"/>
		</g>
	</g>
	<g>
		<g>
			<path class="st1" d="M249.8,121.9c-1,0-2-0.4-2.8-1.2L142,15.9c-1.6-1.6-1.6-4.1,0-5.7c1.6-1.6,4.1-1.6,5.7,0l105,104.8
				c1.6,1.6,1.6,4.1,0,5.7C251.9,121.5,250.8,121.9,249.8,121.9z"/>
		</g>
	</g>
	<g>
		<g>
			<g>
				<path class="st1" d="M187.5,176.8c-1,0-2-0.4-2.8-1.2c-1.6-1.6-1.6-4.1,0-5.7l64-63.9c1.6-1.6,4.1-1.6,5.7,0
					c1.6,1.6,1.6,4.1,0,5.7l-64,63.9C189.5,176.5,188.5,176.8,187.5,176.8z"/>
			</g>
		</g>
		<g>
			<g>
				<path class="st1" d="M47.5,244.8c-1,0-2-0.4-2.8-1.2c-1.6-1.6-1.6-4.1,0-5.7L230.5,52.4c1.6-1.6,4.1-1.6,5.7,0
					c1.6,1.6,1.6,4.1,0,5.7L50.3,243.6C49.6,244.4,48.5,244.8,47.5,244.8z"/>
			</g>
		</g>
		<g>
			<g>
				<path class="st1" d="M11,209.4c-1,0-2-0.4-2.8-1.2c-1.6-1.6-1.6-4.1,0-5.7L189.1,22c1.6-1.6,4.1-1.6,5.7,0
					c1.6,1.6,1.6,4.1,0,5.7L13.9,208.3C13.1,209,12.1,209.4,11,209.4z"/>
			</g>
		</g>
		<g>
			<g>
				<path class="st1" d="M6.5,142.1c-1,0-2-0.4-2.8-1.2c-1.6-1.6-1.6-4.1,0-5.7L128.5,10.7c1.6-1.6,4.1-1.6,5.7,0
					c1.6,1.6,1.6,4.1,0,5.7L9.4,141C8.6,141.7,7.6,142.1,6.5,142.1z"/>
			</g>
		</g>
	</g>
</g>
</svg>
