<?xml version="1.0" encoding="utf-8"?>
<!-- Generator: Adobe Illustrator 22.1.0, SVG Export Plug-In . SVG Version: 6.00 Build 0)  -->
<svg version="1.1" id="Layer_1" xmlns="http://www.w3.org/2000/svg" xmlns:xlink="http://www.w3.org/1999/xlink" x="0px" y="0px"
	 viewBox="0 0 256 256" style="enable-background:new 0 0 256 256;" xml:space="preserve">
<style type="text/css">
	.st0{fill:#F5B31F;}
	.st1{fill:#464646;}
	.st2{opacity:0.15;}
	.st3{fill:#AC6535;}
	.st4{fill:#EB573B;}
	.st5{fill:#90C056;}
	.st6{opacity:0.35;}
	.st7{fill:#FFFFFF;}
	.st8{opacity:0.2;}
	.st9{fill:#F6D67A;}
	.st10{opacity:0.3;}
	.st11{fill:#FFA755;}
	.st12{fill:#8FAE3C;}
	.st13{fill:#BE6BB2;}
	.st14{fill:#B7C536;}
	.st15{opacity:0.1;}
	.st16{fill:#9D5A96;}
	.st17{fill:#EA615D;}
	.st18{opacity:0.4;}
	.st19{fill:#F79932;}
	.st20{fill:#FFEC97;}
	.st21{fill:#FFD11D;}
	.st22{fill:#F7F2D5;}
	.st23{fill:#F6AF72;}
	.st24{fill:#BA6C45;}
	.st25{opacity:0.5;}
	.st26{fill:#E4C074;}
	.st27{fill:#656566;}
	.st28{fill:#FACD1F;}
	.st29{fill:#FFDF66;}
	.st30{fill:#6D6E71;}
	.st31{fill:#E77CAE;}
	.st32{fill:#FFE5C4;}
	.st33{fill:#F68455;}
	.st34{opacity:0.7;}
	.st35{fill:#ADEDFF;}
	.st36{fill:#EC754B;}
	.st37{fill:#4AA5BA;}
	.st38{opacity:0.8;}
	.st39{fill:#92A5AC;}
	.st40{fill:#D06E3C;}
	.st41{fill:#DA4F4B;}
	.st42{fill:#BDF3FF;}
	.st43{fill:#F18BB4;}
	.st44{fill:#F9D97A;}
	.st45{fill:none;}
	.st46{fill:#AF6535;}
	.st47{fill:#B93226;}
	.st48{fill:#FF6050;}
	.st49{fill:#EA7CB1;}
	.st50{fill:#00B0E0;}
	.st51{fill:#EA7DAE;}
	.st52{fill:#BC7532;}
	.st53{fill:#876C6C;}
	.st54{fill:#F9F6CD;}
	.st55{fill:#FFE37B;}
	.st56{fill:#1DDCFF;}
	.st57{fill:#60ACF7;}
	.st58{fill:#C3755A;}
	.st59{fill:#96557A;}
	.st60{fill:#66625D;}
	.st61{fill:#D68032;}
	.st62{fill:#F2A355;}
	.st63{fill:#7E9E6A;}
	.st64{fill:#965A85;}
	.st65{fill:#90CAD3;}
	.st66{fill:#94B57F;}
	.st67{fill:#B2E2E7;}
	.st68{fill:#FFDF8F;}
	.st69{fill:#FFFAEB;}
	.st70{fill:#F88916;}
	.st71{fill:#FFC86E;}
	.st72{fill:#AFA51D;}
	.st73{fill:#968A1C;}
	.st74{fill:#C3556D;}
</style>
<g>
	<g>
		<g>
			<path class="st43" d="M186.6,59.7l0,130.4l-117.6,0l0-130.4C69-14.4,186.6-14.4,186.6,59.7z"/>
		</g>
	</g>
	<g class="st2">
		<g>
			<path class="st1" d="M186.6,59.7l0,130.4l-117.6,0c0,0,92.8-4.1,103.6-15.3C183.4,163.6,186.6,59.7,186.6,59.7z"/>
		</g>
	</g>
	<g class="st8">
		<g>
			<path class="st7" d="M127.8,4.1C98.4,4.1,69,22.7,69,59.7l0,130.4c0,0-3.6-121.2,18.9-153.6S127.8,4.1,127.8,4.1z"/>
		</g>
	</g>
	<g>
		<g>
			<path class="st1" d="M186.6,194.2L186.6,194.2l-117.6,0c-2.2,0-4-1.8-4-4l0-130.4c0-18.4,6.8-33.9,19.8-44.7
				c11.4-9.6,26.7-14.8,43-14.8c0,0,0,0,0,0c16.3,0,31.6,5.3,43,14.8c13,10.9,19.8,26.4,19.8,44.7l0,0l0,0l0,130.4
				c0,1.1-0.4,2.1-1.2,2.8C188.6,193.7,187.6,194.2,186.6,194.2z M73,186.2l109.6,0l0-126.4l0,0c0-16-5.9-29.3-16.9-38.6
				c-9.9-8.4-23.4-13-37.8-13C101.4,8.1,73,24.3,73,59.7L73,186.2z"/>
		</g>
	</g>
	<g>
		<g>
			<path class="st44" d="M138.5,190.2l24.1,0l0,49.7c0,16.4-24.1,16.4-24.1,0L138.5,190.2z"/>
		</g>
	</g>
	<g>
		<g>
			<path class="st44" d="M92.9,190.2l24.1,0l0,49.7c0,16.4-24.1,16.4-24.1,0L92.9,190.2z"/>
		</g>
	</g>
	<g class="st8">
		<g>
			<rect x="138.5" y="190.2" class="st1" width="24.1" height="9.7"/>
		</g>
	</g>
	<g class="st8">
		<g>
			<rect x="92.9" y="190.2" class="st1" width="24.1" height="9.7"/>
		</g>
	</g>
	<g>
		<g>
			<path class="st51" d="M92.2,66.5c0-15.2,24.1-15.2,24.1,0l0,71.3c0,16.4-24.1,16.4-24.1,0L92.2,66.5z"/>
		</g>
	</g>
	<g class="st8">
		<g>
			<path class="st1" d="M92.2,66.5c0-15.2,24.1-15.2,24.1,0C109,59,100,58.3,100,68l0.3,69.5c0,10,10.6,8.8,16,0.3
				c0,16.4-24.1,16.4-24.1,0L92.2,66.5z"/>
		</g>
	</g>
	<g>
		<g>
			<path class="st51" d="M139.2,66.5c0-15.2,24.1-15.2,24.1,0l0,71.3c0,16.4-24.1,16.4-24.1,0L139.2,66.5z"/>
		</g>
	</g>
	<g class="st8">
		<g>
			<path class="st1" d="M139.2,66.5c0-15.2,24.1-15.2,24.1,0C156,59,147,58.3,147,68l0.3,69.5c0,10,10.6,8.8,16,0.3
				c0,16.4-24.1,16.4-24.1,0L139.2,66.5z"/>
		</g>
	</g>
	<g>
		<g>
			<path class="st1" d="M150.6,256.1C150.6,256.1,150.6,256.1,150.6,256.1c-8,0-16.1-5.6-16.1-16.3l0-49.7c0-1.1,0.4-2.1,1.2-2.8
				c0.8-0.8,1.8-1.2,2.8-1.2l0,0l24.1,0c2.2,0,4,1.8,4,4l0,49.7c0,6.3-2.8,10.1-5.1,12.2C158.6,254.7,154.7,256.1,150.6,256.1z
				 M142.5,194.2l0,45.7c0,6.1,4.3,8.3,8.1,8.3c3.7,0,8.1-2.2,8.1-8.3l0-45.7L142.5,194.2z"/>
		</g>
	</g>
	<g>
		<g>
			<path class="st1" d="M105,256.1C105,256.1,105,256.1,105,256.1c-8,0-16.1-5.6-16.1-16.3l0-49.7c0-1.1,0.4-2.1,1.2-2.8
				c0.8-0.8,1.8-1.2,2.8-1.2l0,0l24.1,0c2.2,0,4,1.8,4,4l0,49.7c0,6.3-2.8,10.1-5.1,12.2C113,254.7,109.1,256.1,105,256.1z
				 M96.9,194.2l0,45.7c0,6.1,4.3,8.3,8.1,8.3c3.7,0,8.1-2.2,8.1-8.3l0-45.7L96.9,194.2z"/>
		</g>
	</g>
	<g>
		<g>
			<path class="st1" d="M104.3,154.1C104.3,154.1,104.3,154.1,104.3,154.1c-4.2,0-8.1-1.5-11-4.1c-2.3-2.1-5.1-5.9-5.1-12.2l0-71.3
				h4h-4c0-4.7,1.8-8.8,5.2-11.6c2.9-2.5,6.8-3.8,10.9-3.8c0,0,0,0,0,0c4.1,0,8,1.3,10.9,3.8c3.3,2.8,5.2,7,5.2,11.6l0,71.3
				c0,6.3-2.8,10.1-5.1,12.2C112.3,152.6,108.4,154.1,104.3,154.1z M104.3,59.1c-3.7,0-8.1,1.9-8.1,7.4l0,0l0,71.3
				c0,6.1,4.3,8.3,8.1,8.3c3.7,0,8.1-2.2,8.1-8.3l0-71.3c0-2.3-0.8-4.2-2.3-5.5C108.6,59.8,106.5,59.1,104.3,59.1L104.3,59.1z"/>
		</g>
	</g>
	<g>
		<g>
			<path class="st1" d="M151.3,154.1C151.3,154.1,151.3,154.1,151.3,154.1c-8,0-16.1-5.6-16.1-16.3l0-71.3h4h-4
				c0-4.7,1.8-8.8,5.2-11.6c2.9-2.5,6.8-3.8,10.9-3.8c0,0,0,0,0,0c4.1,0,8,1.3,10.9,3.8c3.3,2.8,5.2,7,5.2,11.6l0,71.3
				C167.3,148.5,159.2,154.1,151.3,154.1z M151.3,59.1c-3.7,0-8.1,1.9-8.1,7.4l0,0l0,71.3c0,6.1,4.3,8.3,8.1,8.3
				c3.7,0,8.1-2.2,8.1-8.3l0-71.3C159.3,61,155,59.1,151.3,59.1L151.3,59.1z"/>
		</g>
	</g>
</g>
</svg>
