<?xml version="1.0" encoding="utf-8"?>
<!-- Generator: Adobe Illustrator 22.1.0, SVG Export Plug-In . SVG Version: 6.00 Build 0)  -->
<svg version="1.1" id="Layer_1" xmlns="http://www.w3.org/2000/svg" xmlns:xlink="http://www.w3.org/1999/xlink" x="0px" y="0px"
	 viewBox="0 0 256 256" style="enable-background:new 0 0 256 256;" xml:space="preserve">
<style type="text/css">
	.st0{fill:#F5B31F;}
	.st1{fill:#464646;}
	.st2{opacity:0.15;}
	.st3{fill:#AC6535;}
	.st4{fill:#EB573B;}
	.st5{fill:#90C056;}
	.st6{opacity:0.35;}
	.st7{fill:#FFFFFF;}
	.st8{opacity:0.2;}
	.st9{fill:#F6D67A;}
	.st10{opacity:0.3;}
	.st11{fill:#FFA755;}
	.st12{fill:#8FAE3C;}
	.st13{fill:#BE6BB2;}
	.st14{fill:#B7C536;}
	.st15{opacity:0.1;}
	.st16{fill:#9D5A96;}
	.st17{fill:#EA615D;}
	.st18{opacity:0.4;}
	.st19{fill:#F79932;}
	.st20{fill:#FFEC97;}
	.st21{fill:#FFD11D;}
	.st22{fill:#F7F2D5;}
	.st23{fill:#F6AF72;}
	.st24{fill:#BA6C45;}
	.st25{opacity:0.5;}
	.st26{fill:#E4C074;}
	.st27{fill:#656566;}
	.st28{fill:#FACD1F;}
	.st29{fill:#FFDF66;}
	.st30{fill:#6D6E71;}
	.st31{fill:#E77CAE;}
	.st32{fill:#FFE5C4;}
	.st33{fill:#F68455;}
	.st34{opacity:0.7;}
	.st35{fill:#ADEDFF;}
	.st36{fill:#EC754B;}
	.st37{fill:#4AA5BA;}
	.st38{opacity:0.8;}
	.st39{fill:#92A5AC;}
	.st40{fill:#D06E3C;}
	.st41{fill:#DA4F4B;}
	.st42{fill:#BDF3FF;}
	.st43{fill:#F18BB4;}
	.st44{fill:#F9D97A;}
	.st45{fill:none;}
	.st46{fill:#AF6535;}
	.st47{fill:#B93226;}
	.st48{fill:#FF6050;}
	.st49{fill:#EA7CB1;}
	.st50{fill:#00B0E0;}
	.st51{fill:#EA7DAE;}
	.st52{fill:#BC7532;}
	.st53{fill:#876C6C;}
	.st54{fill:#F9F6CD;}
	.st55{fill:#FFE37B;}
	.st56{fill:#1DDCFF;}
	.st57{fill:#60ACF7;}
	.st58{fill:#C3755A;}
	.st59{fill:#96557A;}
	.st60{fill:#66625D;}
	.st61{fill:#D68032;}
	.st62{fill:#F2A355;}
	.st63{fill:#7E9E6A;}
	.st64{fill:#965A85;}
	.st65{fill:#90CAD3;}
	.st66{fill:#94B57F;}
	.st67{fill:#B2E2E7;}
	.st68{fill:#FFDF8F;}
	.st69{fill:#FFFAEB;}
	.st70{fill:#F88916;}
	.st71{fill:#FFC86E;}
	.st72{fill:#AFA51D;}
	.st73{fill:#968A1C;}
	.st74{fill:#C3556D;}
</style>
<g>
	<g>
		<g>
			<path class="st47" d="M192.7,68.8c0,7.5-1.3,14.8-3.7,21.5c-0.6-1.1-23.8-45.6-61.1-20.2c0,0-18.8-49.1,40-52.3h0
				C183,29.7,192.7,48.1,192.7,68.8z"/>
		</g>
	</g>
	<g>
		<g>
			<path class="st47" d="M147.3,130.7c-3.8,1.2-7.8,2-11.8,2.5c-2.5,0.3-5,0.4-7.5,0.4c-2.5,0-5.1-0.1-7.5-0.4
				c-16.8-1.9-31.6-10.3-42-22.6c47.9,10.7,49.5-40.5,49.5-40.5S183.2,77.2,147.3,130.7z"/>
		</g>
	</g>
	<g>
		<g>
			<path class="st47" d="M127.9,70.1c0,0-45.9,43.8-62.5-18.2v0c6.9-25.5,28.9-44.8,55.8-47.6C121.2,4.3,78.6,42,127.9,70.1z"/>
		</g>
	</g>
	<g>
		<g>
			<path class="st4" d="M127.9,70.1c0,0-45.9,43.8-62.5-18.2v0c6.9-25.5,28.9-44.8,55.8-47.6C121.2,4.3,78.6,42,127.9,70.1z"/>
		</g>
	</g>
	<g class="st8">
		<g>
			<path class="st7" d="M121.2,4.3C94.3,7.1,72.3,26.4,65.4,51.9v0C68.7,64,73,72.1,78,77.3C72.8,46.3,89.4,22.7,121.2,4.3z"/>
		</g>
	</g>
	<g class="st8">
		<g>
			<path class="st1" d="M107.6,51.3c3.5,6.4,9.8,12.8,20.3,18.8c0,0-14.5,13.9-30.2,15c0,0,11.7-7.1,12.5-15
				C111.1,62.3,107.6,51.3,107.6,51.3z"/>
		</g>
	</g>
	<g>
		<g>
			<path class="st4" d="M192.7,68.8c0,7.5-1.3,14.8-3.7,21.5c-0.6-1.1-23.8-45.6-61.1-20.2c0,0-18.8-49.1,40-52.3h0
				C183,29.7,192.7,48.1,192.7,68.8z"/>
		</g>
	</g>
	<g class="st8">
		<g>
			<path class="st7" d="M167.9,17.8L167.9,17.8c-0.5,0-0.9,0.1-1.4,0.1c-57.1,3.9-38.6,52.2-38.6,52.2c4.5-3.1,8.9-5.1,13-6.4
				c0,0-8.5-5.2-5.4-19S167.9,17.8,167.9,17.8z"/>
		</g>
	</g>
	<g class="st8">
		<g>
			<path class="st1" d="M179.3,76.7c6.1,6.6,9.5,13.1,9.7,13.6c2.4-6.7,3.7-13.9,3.7-21.5c0-20.7-9.7-39.1-24.7-51h0
				c-3.4,0.2-9.5,1.1-12.4,1.5c0,0,14.4,6.2,20.6,27.5C182.3,68.2,179.3,76.7,179.3,76.7z"/>
		</g>
	</g>
	<g>
		<g>
			<path class="st4" d="M147.3,130.7c-3.8,1.2-7.8,2-11.8,2.5c-2.5,0.3-5,0.4-7.5,0.4c-2.5,0-5.1-0.1-7.5-0.4
				c-16.8-1.9-31.6-10.3-42-22.6c47.9,10.7,49.5-40.5,49.5-40.5S183.2,77.2,147.3,130.7z"/>
		</g>
	</g>
	<g class="st8">
		<g>
			<path class="st7" d="M117.1,100.4c-7.2,8.6-19,14.6-38.7,10.3c8.3,9.9,19.6,17.3,32.5,20.8c0,0-8.5-7.3-9-11.9
				C101.4,114.9,117.1,100.4,117.1,100.4z"/>
		</g>
	</g>
	<g class="st8">
		<g>
			<path class="st1" d="M120.4,133.3c2.5,0.3,5,0.4,7.5,0.4c2.5,0,5.1-0.1,7.5-0.4c4.1-0.5,8-1.3,11.8-2.5
				c35.9-53.6-19.4-60.6-19.4-60.6s17.6,11.1,17.9,31.8C146.1,122.6,120.4,133.3,120.4,133.3z"/>
		</g>
	</g>
	<g>
		<g>
			<path class="st9" d="M135.5,133.2l0,112c0,9-15,9-15,0l0-111.9c2.5,0.3,5,0.4,7.5,0.4C130.5,133.7,133,133.5,135.5,133.2z"/>
		</g>
	</g>
	<g class="st8">
		<g>
			<path class="st1" d="M135.5,143.7l0-10.5c-2.5,0.2-5,0.3-7.5,0.3c-2.5,0-5.1-0.1-7.5-0.3l0,10.4L135.5,143.7z"/>
		</g>
	</g>
	<g>
		<g>
			<path class="st45" d="M127.9,70.1c0,0-45.9,43.8-62.5-18.2v0c6.9-25.5,28.9-44.8,55.8-47.6C121.2,4.3,78.6,42,127.9,70.1z"/>
		</g>
	</g>
	<g>
		<g>
			<path class="st7" d="M127.9,70.1C78.6,42,121.2,4.3,121.2,4.3c2.2-0.2,4.4-0.3,6.7-0.3c15.1,0,29,5.2,40,13.9
				C109.2,21,127.9,70.1,127.9,70.1z"/>
		</g>
	</g>
	<g>
		<g>
			<path class="st45" d="M192.7,68.8c0,7.5-1.3,14.8-3.7,21.5c-0.6-1.1-23.8-45.6-61.1-20.2c0,0-18.8-49.1,40-52.3h0
				C183,29.7,192.7,48.1,192.7,68.8z"/>
		</g>
	</g>
	<g>
		<g>
			<path class="st7" d="M189,90.3C189,90.3,189,90.3,189,90.3c-6.7,19.3-22.3,34.3-41.7,40.4c35.9-53.6-19.4-60.6-19.4-60.6
				C165.2,44.7,188.5,89.2,189,90.3z"/>
		</g>
	</g>
	<g>
		<g>
			<path class="st45" d="M147.3,130.7c-3.8,1.2-7.8,2-11.8,2.5c-2.5,0.3-5,0.4-7.5,0.4c-2.5,0-5.1-0.1-7.5-0.4
				c-16.8-1.9-31.6-10.3-42-22.6c47.9,10.7,49.5-40.5,49.5-40.5S183.2,77.2,147.3,130.7z"/>
		</g>
	</g>
	<g>
		<g>
			<path class="st7" d="M127.9,70.1c0,0-1.6,51.2-49.5,40.5c-9.5-11.3-15.3-25.9-15.3-41.8c0-5.8,0.8-11.5,2.2-16.9
				C82.1,114,127.9,70.1,127.9,70.1z"/>
		</g>
	</g>
	<g>
		<g>
			<path class="st7" d="M189,90.3C189,90.3,189,90.3,189,90.3"/>
		</g>
		<g>
			<path class="st1" d="M189,94.3c-1,0-2-0.4-2.8-1.2l0,0c-1.6-1.6-1.6-4.1,0-5.7c1.6-1.6,4.1-1.6,5.7,0c1.6,1.6,1.6,4.1,0,5.7
				C191.1,93.9,190.1,94.3,189,94.3z"/>
		</g>
	</g>
	<g>
		<g>
			<path class="st1" d="M127.9,256C127.9,256,127.9,256,127.9,256c-2.9,0-5.6-0.9-7.7-2.6c-2.5-2-3.9-4.9-3.9-8.2l0-111.9
				c0-1.1,0.5-2.2,1.3-3c0.9-0.8,2-1.1,3.1-1c4.7,0.5,9.5,0.5,14.1,0c1.1-0.1,2.3,0.2,3.1,1c0.9,0.8,1.3,1.8,1.3,3l0,112
				c0,3.3-1.4,6.2-3.9,8.2C133.5,255,130.8,256,127.9,256z M124.4,137.6l0,107.6c0,0.9,0.3,1.5,0.8,1.9c0.6,0.5,1.6,0.8,2.7,0.8
				c0,0,0,0,0,0c1,0,2-0.3,2.7-0.8c0.6-0.5,0.8-1.1,0.8-1.9l0-107.6C129.1,137.7,126.8,137.7,124.4,137.6z"/>
		</g>
	</g>
	<g>
		<g>
			<path class="st1" d="M95.8,89.2c-2.5,0-5.1-0.3-7.6-1c-12.3-3.5-21.3-15.3-26.6-35.2c-0.1-0.3-0.1-0.7-0.1-1c0-0.4,0-0.7,0.1-1
				c7.4-27.3,31.2-47.6,59.3-50.5c1.7-0.2,3.4,0.8,4.1,2.4c0.7,1.6,0.3,3.5-1,4.6c-0.2,0.2-17.4,15.7-15.6,32.9
				c1,9.9,8.3,18.8,21.7,26.5c1.1,0.6,1.8,1.7,2,3c0.2,1.3-0.3,2.5-1.2,3.4C129.9,73.8,113.6,89.2,95.8,89.2z M69.6,51.9
				c4.6,16.3,11.5,25.9,20.8,28.5c11.5,3.2,24.4-4.9,30.8-9.8c-12.7-8.4-19.7-18.3-20.8-29.7c-1.2-12.1,4.6-23.1,10-30.4
				C90.9,16.5,75.3,32,69.6,51.9z"/>
		</g>
	</g>
	<g>
		<g>
			<path class="st1" d="M127.9,74.1c-0.7,0-1.4-0.2-2-0.5c-15.7-9-24.4-20-25.7-32.6C98.1,19.7,117.8,2,118.6,1.3
				c0.6-0.6,1.4-0.9,2.2-1c2.4-0.2,4.8-0.4,7.1-0.4c15.6,0,30.3,5.1,42.5,14.7c1.3,1,1.8,2.8,1.3,4.3c-0.5,1.6-1.9,2.7-3.6,2.8
				c-17.1,0.9-28.7,6-34.6,14.9c-8.7,13.4-1.9,31.8-1.9,32c0.6,1.6,0.1,3.4-1.1,4.5C129.8,73.8,128.9,74.1,127.9,74.1z M123,8.2
				c-3.6,3.5-16.3,17.1-14.7,32c0.8,7.7,5.3,14.7,13.4,21c-1.2-7.9-1.1-19.1,5.2-28.8c5.8-9,15.8-14.8,29.7-17.3
				C146.4,9.6,134.9,7.2,123,8.2z"/>
		</g>
	</g>
	<g>
		<g>
			<path class="st1" d="M189,94.3c-1.5,0-2.9-0.8-3.6-2.2c-0.1-0.2-10.7-20.5-28.1-25c-8.7-2.2-17.8-0.1-27.2,6.3
				c-1,0.7-2.3,0.9-3.4,0.5c-1.2-0.4-2.1-1.2-2.5-2.4c-0.3-0.9-8.3-22.3,2.6-39.1c7.3-11.3,21.1-17.5,40.9-18.6c1,0,1.9,0.3,2.7,0.9
				c16.7,13.2,26.3,32.9,26.3,54.2l0,0l0,0c0,7.8-1.3,15.5-3.9,22.8c-0.5,1.5-1.9,2.6-3.5,2.7C189.2,94.3,189.1,94.3,189,94.3z
				 M150.5,58.3c3,0,5.9,0.4,8.8,1.1c13.2,3.4,22.8,13.7,28.2,21.1c0.7-3.8,1.1-7.7,1.1-11.7l0,0c0-18.3-8-35.3-22.1-46.9
				c-16.3,1.1-27.4,6.1-33.1,14.8c-6,9.2-4.7,20.8-3.2,27.2C137.1,60.2,143.9,58.3,150.5,58.3z"/>
		</g>
	</g>
	<g>
		<g>
			<path class="st1" d="M147.3,134.7c-1.2,0-2.4-0.6-3.2-1.6c-1-1.4-1.1-3.2-0.1-4.6c10.7-15.9,13.9-28.8,9.6-38.2
				c-6.1-13.5-25.9-16.2-26.1-16.2c-1.6-0.2-3-1.4-3.4-3s0.3-3.3,1.6-4.2c11.3-7.7,22.7-10.2,33.7-7.4c20.9,5.3,32.7,28.1,33.2,29.1
				c0.3,0.6,0.4,1.2,0.4,1.8v0c0,0.4-0.1,0.9-0.2,1.3c-7.1,20.4-23.7,36.5-44.3,42.9C148.1,134.7,147.7,134.7,147.3,134.7z
				 M138.8,68.8c7.6,2.7,17.5,8.1,22.1,18.2c4.4,9.7,3.1,21.6-3.9,35.3c12.6-6.9,22.5-18.1,27.7-31.7c-2.8-4.8-12.6-19.8-27.3-23.5
				C151.4,65.6,145.1,66.2,138.8,68.8z"/>
		</g>
	</g>
	<g>
		<g>
			<path class="st1" d="M127.9,137.7c-2.7,0-5.3-0.2-8-0.5c-17.4-2-33.2-10.6-44.6-24c-1.1-1.3-1.2-3.2-0.4-4.6s2.6-2.2,4.3-1.8
				c12.6,2.8,22.7,1.3,30.2-4.5c13.6-10.6,14.4-32,14.4-32.2c0-1.1,0.5-2.2,1.4-2.9c0.9-0.7,2-1.1,3.1-0.9c1,0.1,24.5,3.3,32.4,20.8
				c5.5,12.1,2.1,27.6-10.3,46c-0.5,0.8-1.3,1.3-2.1,1.6c-4.1,1.3-8.4,2.2-12.6,2.7C133.3,137.5,130.6,137.7,127.9,137.7z
				 M147.3,130.7L147.3,130.7L147.3,130.7z M89.6,116.1c8.9,7.3,19.7,11.9,31.2,13.2c4.7,0.5,9.5,0.5,14.1,0c3.3-0.4,6.6-1,9.8-1.9
				c10-15.4,13-27.8,8.8-37c-4.4-9.7-15.9-13.8-22.1-15.4c-1.1,7.9-4.7,24-17.1,33.6C107.6,113.8,99.3,116.3,89.6,116.1z"/>
		</g>
	</g>
	<g>
		<g>
			<path class="st1" d="M90.9,116.1c-4.2,0-8.6-0.5-13.3-1.6c-0.9-0.2-1.6-0.7-2.2-1.3C64.9,100.8,59.2,85,59.2,68.8
				c0-6.1,0.8-12.1,2.4-18c0.5-1.7,2.1-3,3.9-3c0,0,0,0,0,0c1.8,0,3.4,1.2,3.9,3c4.6,17,11.6,26.9,21,29.6c16,4.5,34.7-13,34.8-13.2
				c1.2-1.1,2.9-1.4,4.4-0.8c1.5,0.7,2.4,2.2,2.4,3.8c0,1-1,25.4-17.5,38.3C107.9,113.6,100,116.1,90.9,116.1z M80.6,107
				c11.9,2.4,21.6,0.8,28.8-4.8c7.7-6,11.4-15.6,13-22.7c-8.2,5.6-21.4,12.2-34.3,8.6c-8.7-2.4-15.7-9.1-21-19.8c0,0.1,0,0.3,0,0.4
				C67.2,82.7,72,96.2,80.6,107z"/>
		</g>
	</g>
	<g>
		<g>
			<path class="st1" d="M189,94.3c-1,0-2-0.4-2.8-1.2l0,0c-1.6-1.6-1.6-4.1,0-5.7c1.6-1.6,4.1-1.6,5.7,0c1.6,1.6,1.6,4.1,0,5.7
				C191.1,93.9,190.1,94.3,189,94.3z"/>
		</g>
	</g>
</g>
</svg>
