<?xml version="1.0" encoding="utf-8"?>
<!-- Generator: Adobe Illustrator 22.1.0, SVG Export Plug-In . SVG Version: 6.00 Build 0)  -->
<svg version="1.1" id="Layer_1" xmlns="http://www.w3.org/2000/svg" xmlns:xlink="http://www.w3.org/1999/xlink" x="0px" y="0px"
	 viewBox="0 0 256 256" style="enable-background:new 0 0 256 256;" xml:space="preserve">
<style type="text/css">
	.st0{fill:#F5B31F;}
	.st1{fill:#464646;}
	.st2{opacity:0.15;}
	.st3{fill:#AC6535;}
	.st4{fill:#EB573B;}
	.st5{fill:#90C056;}
	.st6{opacity:0.35;}
	.st7{fill:#FFFFFF;}
	.st8{opacity:0.2;}
	.st9{fill:#F6D67A;}
	.st10{opacity:0.3;}
	.st11{fill:#FFA755;}
	.st12{fill:#8FAE3C;}
	.st13{fill:#BE6BB2;}
	.st14{fill:#B7C536;}
	.st15{opacity:0.1;}
	.st16{fill:#9D5A96;}
	.st17{fill:#EA615D;}
	.st18{opacity:0.4;}
	.st19{fill:#F79932;}
	.st20{fill:#FFEC97;}
	.st21{fill:#FFD11D;}
	.st22{fill:#F7F2D5;}
	.st23{fill:#F6AF72;}
	.st24{fill:#BA6C45;}
	.st25{opacity:0.5;}
	.st26{fill:#E4C074;}
	.st27{fill:#656566;}
	.st28{fill:#FACD1F;}
	.st29{fill:#FFDF66;}
	.st30{fill:#6D6E71;}
	.st31{fill:#E77CAE;}
	.st32{fill:#FFE5C4;}
	.st33{fill:#F68455;}
	.st34{opacity:0.7;}
	.st35{fill:#ADEDFF;}
	.st36{fill:#EC754B;}
	.st37{fill:#4AA5BA;}
	.st38{opacity:0.8;}
	.st39{fill:#92A5AC;}
	.st40{fill:#D06E3C;}
	.st41{fill:#DA4F4B;}
	.st42{fill:#BDF3FF;}
	.st43{fill:#F18BB4;}
	.st44{fill:#F9D97A;}
	.st45{fill:none;}
	.st46{fill:#AF6535;}
	.st47{fill:#B93226;}
	.st48{fill:#FF6050;}
	.st49{fill:#EA7CB1;}
	.st50{fill:#00B0E0;}
	.st51{fill:#EA7DAE;}
	.st52{fill:#BC7532;}
	.st53{fill:#876C6C;}
	.st54{fill:#F9F6CD;}
	.st55{fill:#FFE37B;}
	.st56{fill:#1DDCFF;}
	.st57{fill:#60ACF7;}
	.st58{fill:#C3755A;}
	.st59{fill:#96557A;}
	.st60{fill:#66625D;}
	.st61{fill:#D68032;}
	.st62{fill:#F2A355;}
	.st63{fill:#7E9E6A;}
	.st64{fill:#965A85;}
	.st65{fill:#90CAD3;}
	.st66{fill:#94B57F;}
	.st67{fill:#B2E2E7;}
	.st68{fill:#FFDF8F;}
	.st69{fill:#FFFAEB;}
	.st70{fill:#F88916;}
	.st71{fill:#FFC86E;}
	.st72{fill:#AFA51D;}
	.st73{fill:#968A1C;}
	.st74{fill:#C3556D;}
</style>
<g>
	<g>
		<g>
			<g>
				<path class="st54" d="M252.1,113.6c0,0-15.5,100.4-51.8,100.4l-144.4,0c-36.3,0-51.8-100.4-51.8-100.4L252.1,113.6z"/>
			</g>
		</g>
	</g>
	<g class="st2">
		<g>
			<g>
				<path class="st1" d="M252.1,113.6c0,0-15.5,100.4-51.8,100.4l-144.4,0c0,0,131.2-7,152.1-23.2S252.1,113.6,252.1,113.6z"/>
			</g>
		</g>
	</g>
	<g>
		<g>
			<path class="st21" d="M84.8,76.9c-3.6-0.4-6.1-0.1-6.9,0.8c-1.3,1.6-1.3,9-0.4,19.1C70,94,59.8,91.6,49.9,90.1
				c7.4-18.6,16.1-34.8,19-35C71.2,55,77.6,64.2,84.8,76.9z"/>
		</g>
	</g>
	<g>
		<g>
			<path class="st21" d="M122.9,87.7c-0.9,1.4-1.9,2.9-2.8,4.4c-4.5,7.3-8.6,14.9-11.1,21.5l-21.4,0c1.4-4,1.8-7.3,0.9-9.4
				c-1.1-2.7-5.2-5.2-11-7.4c-0.9-10-0.9-17.5,0.4-19.1c0.8-1,3.3-1.2,6.9-0.8c3.5,0.4,8.1,1.3,13.2,2.6
				C105.6,81.5,114.5,84.4,122.9,87.7z"/>
		</g>
	</g>
	<g>
		<g>
			<path class="st21" d="M160.8,113.5l-51.8,0c2.5-6.5,6.6-14.2,11.1-21.5c0.9-1.5,1.8-2.9,2.8-4.4c3.8-5.8,7.7-11.2,11.1-15.3
				c4.2-5.1,7.6-8.3,9-8c1.2,0.3,3.4,4.6,6,11C152.7,85.2,157.3,99.9,160.8,113.5z"/>
		</g>
	</g>
	<g>
		<g>
			<path class="st21" d="M176.1,108.5c-0.2,0.9,0.2,2.7,1.2,5.1l-16.5,0c-3.4-13.6-8-28.3-11.9-38.1c0.2-2.3,0.6-4.3,1.1-5.7
				c5.6-15,65.3,5.3,67.2,13.1c0.3,1.3-0.5,4.1-2.2,8C197.7,95.4,177.1,104.4,176.1,108.5z"/>
		</g>
	</g>
	<g>
		<g>
			<path class="st21" d="M237.5,113.6l-60.2,0c-0.9-2.4-1.4-4.2-1.2-5.1c1-4.1,21.6-13,39-17.6c11-2.9,20.7-4,23.3-1.1
				C240.9,92.5,240,102.1,237.5,113.6z"/>
		</g>
	</g>
	<g>
		<g>
			<path class="st21" d="M134,72.4c-3.4,4.1-7.3,9.5-11.1,15.3c-8.4-3.3-17.3-6.2-24.9-8.2c2.8-13.7,8.8-37.3,15.6-37.3
				C118.9,42.2,127.4,58,134,72.4z"/>
		</g>
	</g>
	<g>
		<g>
			<g>
				<path class="st1" d="M200.3,217.9C200.3,217.9,200.3,217.9,200.3,217.9l-144.4,0c-17,0-31.5-17.8-43.3-52.9
					c-8.4-25.1-12.3-49.8-12.4-50.9c-0.2-1.2,0.2-2.3,0.9-3.2s1.9-1.4,3-1.4l0,0l248,0c1.2,0,2.3,0.5,3,1.4c0.8,0.9,1.1,2.1,0.9,3.2
					c-0.2,1-4,25.7-12.4,50.9C231.8,200.1,217.2,217.9,200.3,217.9z M8.8,117.5c1.5,8.3,5.2,26.8,11.4,45
					c13.1,39.2,26.7,47.4,35.7,47.4l144.4,0c9,0,22.5-8.2,35.7-47.4c6.1-18.2,9.8-36.7,11.4-45L8.8,117.5z"/>
			</g>
		</g>
	</g>
	<g>
		<g>
			<path class="st1" d="M77.5,100.8c-0.5,0-1-0.1-1.4-0.3C69.4,98,59.8,95.7,49.3,94c-1.2-0.2-2.3-0.9-2.9-2
				c-0.6-1.1-0.7-2.3-0.2-3.5c3.7-9.3,7.8-18.1,11.4-24.8c5.6-10.4,8.3-12.5,11.2-12.7c2.3-0.1,5.9-0.3,19.6,23.8
				c0.7,1.3,0.7,2.9-0.1,4.2s-2.3,1.9-3.8,1.8c-1.6-0.2-2.7-0.2-3.3-0.1c-0.3,2-0.4,6.8,0.4,15.7c0.1,1.4-0.5,2.7-1.6,3.5
				C79.2,100.5,78.4,100.8,77.5,100.8z M55.5,87c6.5,1.2,12.5,2.6,17.6,4.1c-0.7-12.7,0.9-14.8,1.7-15.8c0.8-1,1.9-1.7,3.2-2.1
				C73.7,66,70.8,62,69.1,60.1C66.4,63.7,61.2,73.3,55.5,87z"/>
		</g>
	</g>
	<g>
		<g>
			<path class="st1" d="M109,117.5L109,117.5l-21.4,0c-1.3,0-2.5-0.6-3.2-1.7c-0.8-1-1-2.4-0.5-3.6c1.7-5,1.1-6.5,1-6.6
				c0-0.1-1-2.2-8.7-5.2c-1.4-0.5-2.4-1.9-2.6-3.4c-1.7-18.2,0.3-20.7,1.2-21.9c2.2-2.8,6.5-2.7,10.4-2.3c3.6,0.4,8.3,1.3,13.8,2.7
				c8,2.1,17,5,25.4,8.4c1.1,0.4,2,1.4,2.3,2.5c0.4,1.1,0.2,2.4-0.5,3.4c-0.9,1.3-1.8,2.7-2.7,4.3c-4.8,7.8-8.6,15-10.8,20.8
				C112.1,116.5,110.6,117.5,109,117.5z M92.7,109.5l13.6,0c3-7.1,7.3-14.5,10.4-19.6c0.1-0.1,0.1-0.2,0.2-0.3
				c-6.7-2.5-13.6-4.7-19.9-6.3c-5-1.3-9.4-2.2-12.6-2.5c-1.6-0.2-2.6-0.2-3.3-0.1c-0.2,1.8-0.4,5.9,0.2,13.3
				c6.1,2.6,9.6,5.4,10.9,8.6C93,104.5,93.1,106.8,92.7,109.5z M80.2,80.9L80.2,80.9L80.2,80.9z"/>
		</g>
	</g>
	<g>
		<g>
			<path class="st1" d="M160.8,117.5L160.8,117.5l-51.8,0c-1.3,0-2.6-0.7-3.3-1.7c-0.7-1.1-0.9-2.5-0.4-3.7
				c3.1-7.9,7.9-16.4,11.5-22.1c1-1.6,1.9-3,2.8-4.5c3.8-5.7,7.8-11.3,11.4-15.7c7.2-8.7,10.2-10,13-9.3c2.1,0.5,4.2,1.9,8.7,13.5
				c4,10.2,8.6,24.9,12,38.6c0.3,1.2,0,2.5-0.7,3.4C163.2,117,162,117.5,160.8,117.5z M115,109.5l40.6,0
				c-3.1-11.7-7.1-24.1-10.4-32.6c-1.5-3.7-2.5-6-3.2-7.3c-1,1-2.6,2.6-4.9,5.3c-3.4,4.1-7.3,9.5-10.9,15c-0.9,1.3-1.8,2.7-2.7,4.3
				C120.1,99.7,117.2,104.9,115,109.5z"/>
		</g>
	</g>
	<g>
		<g>
			<path class="st1" d="M177.3,117.6L177.3,117.6l-16.5,0c-1.8,0-3.4-1.2-3.9-3c-3.3-13.1-7.9-27.9-11.7-37.6
				c-0.2-0.6-0.3-1.2-0.3-1.8c0.3-2.8,0.7-5,1.3-6.7c2.2-5.9,9-8.5,20.1-7.9c9.3,0.5,21.8,3.4,33.5,7.8c19.6,7.3,20.8,12,21.2,13.6
				c0.4,1.6,0.4,4-2.3,10.5c-0.5,1.1-1.5,2-2.7,2.3c-16.5,4.3-32.8,11.7-36,14.8c0.1,0.5,0.3,1.3,0.8,2.5c0.5,1.2,0.3,2.6-0.4,3.7
				S178.6,117.6,177.3,117.6z M179.8,110L179.8,110L179.8,110z M163.9,109.5l8.2,0c-0.1-0.7,0-1.4,0.1-2c0,0,0,0,0,0
				c0.4-1.6,1.2-4.9,15.6-11.3c7.3-3.2,16.2-6.4,24.3-8.7c0.8-2,1-3.1,1.1-3.6c-4.2-4.5-36.6-17.2-53.5-15.3c-3.3,0.4-5.5,1.3-6,2.6
				c-0.2,0.6-0.5,1.8-0.8,3.7C156.6,84.3,160.7,97.2,163.9,109.5z"/>
		</g>
	</g>
	<g>
		<g>
			<path class="st1" d="M237.5,117.6L237.5,117.6l-60.2,0c-1.6,0-3.1-1-3.7-2.5c-1.4-3.4-1.8-5.7-1.3-7.5c0.4-1.6,1.2-4.9,15.6-11.4
				c7.9-3.5,17.7-6.9,26.3-9.2c19.7-5.2,25-2.5,27.3,0.1c1.3,1.5,4.9,5.4,0,27.3C241,116.3,239.3,117.6,237.5,117.6z M180.2,109.6
				l54.1,0c2.5-12.6,1.5-16.4,1.2-17.1c-1.2-0.6-6.5-1.1-19.3,2.3C199.7,99.1,183.4,106.5,180.2,109.6
				C180.2,109.5,180.2,109.5,180.2,109.6z M235.5,92.5L235.5,92.5L235.5,92.5z"/>
		</g>
	</g>
	<g>
		<g>
			<path class="st1" d="M122.9,91.7c-0.5,0-1-0.1-1.5-0.3c-8.1-3.2-16.8-6.1-24.4-8.1c-2.1-0.5-3.3-2.6-2.9-4.7
				c7.5-35.9,14.4-40.5,19.6-40.5l0,0c4.7,0,10.9,3.9,24,32.5c0.6,1.4,0.4,3-0.5,4.2c-3.4,4.1-7.3,9.5-10.9,15
				C125.5,91.1,124.2,91.7,122.9,91.7z M102.7,76.7c6,1.7,12.4,3.8,18.6,6.2c2.7-4,5.4-7.7,8-11c-9.9-21-14.6-24.9-15.7-25.5
				C111.7,47.6,107.4,55.3,102.7,76.7z M113.4,46.2L113.4,46.2L113.4,46.2z"/>
		</g>
	</g>
	<g class="st8">
		<g>
			<path class="st1" d="M93.3,113.5L49.9,90.1l3.1-7.4c0,0,8.1,1.3,17,3.5c0.1-5.6,0.5-12.3,1.9-14.4c2.7-3.9,8.4-2.3,8.4-2.3
				l-4.9,18.2c8.8,2.5,17.1,5.7,18.4,9.3C96.9,104.9,93.3,113.5,93.3,113.5z"/>
		</g>
	</g>
	<g>
		<g>
			<path class="st21" d="M87.6,113.5l-68.2,0c-2.7-11.8-4-21.4-2.7-23.4c1.8-3,17.1-2.6,33.2,0c9.9,1.6,20.2,3.9,27.6,6.7
				c5.8,2.2,9.9,4.7,11,7.4C89.4,106.2,88.9,109.5,87.6,113.5z"/>
		</g>
	</g>
	<g>
		<g>
			<path class="st1" d="M87.6,117.5L87.6,117.5l-68.2,0c-1.9,0-3.5-1.3-3.9-3.1c-5-21.9-3.1-25-2.3-26.4c1.8-2.9,6-4.1,14.7-4
				c6.3,0,14.3,0.8,22.6,2.1c11.1,1.7,21.2,4.2,28.4,7c7.5,2.9,11.8,5.9,13.3,9.6c1.2,2.9,0.9,6.9-0.8,12.2
				C90.8,116.4,89.3,117.5,87.6,117.5z M22.6,109.5l62,0c0.6-2.8,0.3-3.8,0.3-3.8c0-0.1-1-2.2-8.7-5.2C69.4,98,59.8,95.7,49.3,94
				c-15.4-2.4-25.8-2.3-29.1-1.4C20.1,94.6,20.5,99.6,22.6,109.5z M20.3,91.7"/>
		</g>
	</g>
	<g class="st8">
		<g>
			<path class="st1" d="M127.2,81.4l3.7-15.5c0,0-10.8,12-11.2,11.8c-6-2.7-12.6-5.1-19.7-7.4l-1.5,10.7l21,8.1L127.2,81.4z"/>
		</g>
	</g>
	<g class="st2">
		<g>
			<path class="st1" d="M103.1,113.5c2.4-9.6,6.4-19.2,11.6-28.9l6,2l-13.1,26.8L103.1,113.5z"/>
		</g>
	</g>
	<g class="st8">
		<g>
			<path class="st1" d="M160.8,113.5l7.2,0c-2.3-15.8-7.4-31.6-14.6-47.4l-5.5,6.9L160.8,113.5z"/>
		</g>
	</g>
	<g class="st8">
		<g>
			<path class="st1" d="M170.6,113.6c0,0-1.6-6.3-0.3-12.2c1.9-8.2,46.7-20.4,47-18.5L170.6,113.6z"/>
		</g>
	</g>
</g>
</svg>
