<?xml version="1.0" encoding="utf-8"?>
<!-- Generator: Adobe Illustrator 22.1.0, SVG Export Plug-In . SVG Version: 6.00 Build 0)  -->
<svg version="1.1" id="Layer_1" xmlns="http://www.w3.org/2000/svg" xmlns:xlink="http://www.w3.org/1999/xlink" x="0px" y="0px"
	 viewBox="0 0 256 256" style="enable-background:new 0 0 256 256;" xml:space="preserve">
<style type="text/css">
	.st0{fill:#F5B31F;}
	.st1{fill:#464646;}
	.st2{opacity:0.15;}
	.st3{fill:#AC6535;}
	.st4{fill:#EB573B;}
	.st5{fill:#90C056;}
	.st6{opacity:0.35;}
	.st7{fill:#FFFFFF;}
	.st8{opacity:0.2;}
	.st9{fill:#F6D67A;}
	.st10{opacity:0.3;}
	.st11{fill:#FFA755;}
	.st12{fill:#8FAE3C;}
	.st13{fill:#BE6BB2;}
	.st14{fill:#B7C536;}
	.st15{opacity:0.1;}
	.st16{fill:#9D5A96;}
	.st17{fill:#EA615D;}
	.st18{opacity:0.4;}
	.st19{fill:#F79932;}
	.st20{fill:#FFEC97;}
	.st21{fill:#FFD11D;}
	.st22{fill:#F7F2D5;}
	.st23{fill:#F6AF72;}
	.st24{fill:#BA6C45;}
	.st25{opacity:0.5;}
	.st26{fill:#E4C074;}
	.st27{fill:#656566;}
	.st28{fill:#FACD1F;}
	.st29{fill:#FFDF66;}
	.st30{fill:#6D6E71;}
	.st31{fill:#E77CAE;}
	.st32{fill:#FFE5C4;}
	.st33{fill:#F68455;}
	.st34{opacity:0.7;}
	.st35{fill:#ADEDFF;}
	.st36{fill:#EC754B;}
	.st37{fill:#4AA5BA;}
	.st38{opacity:0.8;}
	.st39{fill:#92A5AC;}
	.st40{fill:#D06E3C;}
	.st41{fill:#DA4F4B;}
	.st42{fill:#BDF3FF;}
	.st43{fill:#F18BB4;}
	.st44{fill:#F9D97A;}
	.st45{fill:none;}
	.st46{fill:#AF6535;}
	.st47{fill:#B93226;}
	.st48{fill:#FF6050;}
	.st49{fill:#EA7CB1;}
	.st50{fill:#00B0E0;}
	.st51{fill:#EA7DAE;}
	.st52{fill:#BC7532;}
	.st53{fill:#876C6C;}
	.st54{fill:#F9F6CD;}
	.st55{fill:#FFE37B;}
	.st56{fill:#1DDCFF;}
	.st57{fill:#60ACF7;}
	.st58{fill:#C3755A;}
	.st59{fill:#96557A;}
	.st60{fill:#66625D;}
	.st61{fill:#D68032;}
	.st62{fill:#F2A355;}
	.st63{fill:#7E9E6A;}
	.st64{fill:#965A85;}
	.st65{fill:#90CAD3;}
	.st66{fill:#94B57F;}
	.st67{fill:#B2E2E7;}
	.st68{fill:#FFDF8F;}
	.st69{fill:#FFFAEB;}
	.st70{fill:#F88916;}
	.st71{fill:#FFC86E;}
	.st72{fill:#AFA51D;}
	.st73{fill:#968A1C;}
	.st74{fill:#C3556D;}
</style>
<g>
	<g>
		<g>
			<path class="st44" d="M109.2,187.3l37.4,0l0,48.9c0,21-37.5,21-37.4,0L109.2,187.3z"/>
		</g>
	</g>
	<g class="st8">
		<g>
			<path class="st1" d="M146.7,187.3l0,48.9c0,21-37.5,21-37.4,0c0,0,10.7,15.2,24,8.2C146.6,237.5,146.7,187.3,146.7,187.3z"/>
		</g>
	</g>
	<g class="st8">
		<g>
			<rect x="109.2" y="186.4" class="st1" width="37.4" height="10.9"/>
		</g>
	</g>
	<g>
		<g>
			<path class="st1" d="M127.9,256c-4.7,0-9.3-1.1-13.2-3.4c-6.2-3.6-9.5-9.4-9.5-16.4l0-48.9c0-1.1,0.4-2.1,1.2-2.8
				c0.8-0.8,1.8-1.2,2.8-1.2c0,0,0,0,0,0l37.4,0c2.2,0,4,1.8,4,4l0,48.9c0,7-3.4,12.8-9.5,16.4C137.2,254.9,132.6,256,127.9,256z
				 M113.2,191.3l0,44.9c0,4.1,1.9,7.3,5.5,9.4c5.2,3,13.1,3,18.4,0c3.7-2.1,5.5-5.3,5.5-9.4l0-44.9L113.2,191.3z"/>
		</g>
	</g>
	<g>
		<g>
			<path class="st49" d="M185.9,95.7l0,91.7l-115.9,0l0-68.6c0,0,12.8,3.8,14.2-10.8c1.3-14.6,2.3-39,10.1-39
				c7.8,0-2.8,39.7,17.1,39.6c19.9-0.2,9.3-33.6,23-33.6c13.7,0,1.8,62.9,25.6,62.3C183.6,136.6,174.7,95.7,185.9,95.7z"/>
		</g>
	</g>
	<g class="st8">
		<g>
			<path class="st1" d="M185.9,95.7l0,91.7l-70.2,0c0,0,47.6-4.2,56.9-13.5C181.8,164.5,185.9,95.7,185.9,95.7z"/>
		</g>
	</g>
	<g>
		<g>
			<path class="st1" d="M185.9,191.3C185.9,191.3,185.9,191.3,185.9,191.3l-115.9,0c-2.2,0-4-1.8-4-4l0-68.6c0-1.3,0.6-2.5,1.6-3.2
				s2.3-1,3.5-0.6c1,0.3,4.1,0.7,6.2-0.7c1.6-1.1,2.6-3.4,2.9-6.6c0.2-1.7,0.3-3.6,0.5-5.5c1.5-18.3,3-37.2,13.6-37.2c0,0,0,0,0,0
				c6.8,0,7.2,8.2,7.6,16.9c0.7,15,2.3,22.6,9.4,22.6c0,0,0.1,0,0.1,0c6.8-0.1,8.4-5.1,10.3-15.9c1.4-7.9,3.1-17.7,12.7-17.7
				c0,0,0,0,0,0c9.5,0,10.9,13.3,12.4,28.6c1.5,15,3.3,33.7,12.9,33.7c0.1,0,0.1,0,0.2,0c10-0.2,12.5-9.8,14.9-23.3
				c1.6-8.9,3.3-18.2,11.2-18.2c0,0,0,0,0,0c2.2,0,4,1.8,4,4l0,91.7c0,1.1-0.4,2.1-1.2,2.8C187.9,190.9,186.9,191.3,185.9,191.3z
				 M74,183.3l107.9,0l0-68.3c-2.2,11.4-6.4,25.7-21.9,26.1c-17.2,0.5-19.4-22.5-21.3-40.9c-0.7-7.1-2-20.2-4.4-21.4
				c-2.5,0-3.5,3.3-4.8,11.1c-1.6,8.9-3.9,22.4-18.1,22.5c-0.1,0-0.1,0-0.2,0c-5,0-11.5-2-14.8-11.6c-2-5.7-2.3-12.6-2.6-18.7
				c-0.1-2.5-0.3-5.6-0.6-7.7c-0.7,1.4-1.6,3.8-2.4,8.3c-1.1,6-1.7,13.4-2.3,20c-0.2,1.9-0.3,3.8-0.5,5.5c-0.5,5.8-2.7,10-6.4,12.6
				c-2.6,1.8-5.4,2.3-7.8,2.4L74,183.3z"/>
		</g>
	</g>
	<g class="st8">
		<g>
			<path class="st1" d="M185.9,76.2l0,36.9c-11.2,0-2,36.6-25.8,37.2c-23.7,0.6-21-58.2-25.8-58c-4.8,0.2-3,26.7-22.9,26.9
				c-19.9,0.2-19.7-32.9-19-32.6c1,0.6,1,19.7-4.7,32.1c-6.1,13.4-17.7,9.3-17.7,9.3l0-51.9C70,3.2,185.9,3.2,185.9,76.2z"/>
		</g>
	</g>
	<g>
		<g>
			<path class="st46" d="M185.9,58.8l0,36.9c-11.2,0-2.3,40.9-26,41.5c-23.7,0.6-11.8-62.3-25.6-62.3c-13.7,0-3.1,33.4-23,33.6
				c-19.9,0.2-9.3-39.6-17.1-39.6c-7.8,0-8.7,24.3-10.1,39C82.8,122.5,70,118.7,70,118.7l0-60C70-14.3,185.9-14.3,185.9,58.8z"/>
		</g>
	</g>
	<g class="st2">
		<g>
			<path class="st7" d="M113.4,5.5C90,10.7,70,28.4,70,58.8l0,60c0,0,8.7,7,10-7.6c0,0-2.9-50.4,4.2-68.2
				C91.2,25.1,113.4,5.5,113.4,5.5z"/>
		</g>
	</g>
	<g class="st8">
		<g>
			<path class="st1" d="M167.3,17.3c11.1,9.1,18.6,23,18.6,41.5l0,36.9c-11.2,0-2.3,40.9-26,41.5c0,0,13.6-31.5,18.9-61.3
				C184,46.1,167.3,17.3,167.3,17.3z"/>
		</g>
	</g>
	<g>
		<g>
			<path class="st1" d="M159.5,141.2c-16.8,0-19-22.7-20.8-40.9c-0.7-7.1-2-20.2-4.4-21.4c-2.5,0-3.5,3.3-4.8,11.1
				c-1.6,8.9-3.9,22.4-18.1,22.5c-0.1,0-0.1,0-0.2,0c-5,0-11.5-2-14.8-11.6c-2-5.7-2.3-12.6-2.6-18.7c-0.1-2.5-0.3-5.6-0.6-7.7
				c-0.7,1.4-1.6,3.8-2.4,8.3c-1.1,6-1.7,13.4-2.3,20c-0.2,1.9-0.3,3.8-0.5,5.5c-0.5,5.8-2.7,10-6.4,12.6c-5.6,3.8-12.2,2-12.9,1.8
				c-1.7-0.5-2.9-2.1-2.9-3.8l0-60c0-21.8,9.9-39.6,27.9-50C114.2-3,141.6-3,162,8.8c18,10.4,27.9,28.1,27.8,50h-4h4l0,36.9
				c0,1.1-0.4,2.1-1.2,2.8c-0.8,0.8-1.8,1.2-2.8,1.2c0,0,0,0,0,0c-1.4,0.8-2.6,7.6-3.3,11.6c-2.1,11.7-5.3,29.5-22.6,29.9
				C159.8,141.2,159.7,141.2,159.5,141.2z M134.3,70.8C134.3,70.8,134.3,70.8,134.3,70.8c9.6,0,10.9,13.3,12.4,28.6
				c1.9,19.1,4,33.7,12.9,33.7c0.1,0,0.1,0,0.2,0c10-0.2,12.5-9.8,14.9-23.3c1.3-7.2,2.6-14.6,7.2-17.2l0-33.9
				c0-18.9-8.5-34.1-23.8-43c-18-10.4-42.2-10.4-60.2,0C82.5,24.6,74,39.9,74,58.8l0,56.4c1.1-0.1,2.3-0.3,3.3-1
				c1.6-1.1,2.6-3.4,2.9-6.6c0.2-1.7,0.3-3.6,0.5-5.5c1.5-18.3,3-37.2,13.6-37.2c0,0,0,0,0,0c6.8,0,7.2,8.2,7.6,16.9
				c0.7,15,2.3,22.6,9.4,22.6c0,0,0.1,0,0.1,0c6.8-0.1,8.4-5.1,10.3-15.9C123,80.7,124.7,70.8,134.3,70.8z"/>
		</g>
	</g>
	<g>
		<g>
			<path class="st1" d="M84.2,56.2c-1.5,0-2.9-0.8-3.6-2.2c-1-2-0.2-4.4,1.7-5.4l7-3.6c2-1,4.4-0.2,5.4,1.7c1,2,0.2,4.4-1.7,5.4
				l-7,3.6C85.4,56,84.8,56.2,84.2,56.2z"/>
		</g>
	</g>
	<g>
		<g>
			<path class="st1" d="M122.5,32.7c-0.5,0-0.9-0.1-1.4-0.3L112,29c-2.1-0.8-3.1-3.1-2.3-5.2c0.8-2.1,3.1-3.1,5.2-2.3l9.1,3.4
				c2.1,0.8,3.1,3.1,2.3,5.2C125.6,31.7,124.1,32.7,122.5,32.7z"/>
		</g>
	</g>
	<g>
		<g>
			<path class="st1" d="M144.2,38.4c-0.8,0-1.5-0.2-2.2-0.7c-1.8-1.2-2.3-3.7-1.1-5.5l4.9-7.4c1.2-1.8,3.7-2.3,5.5-1.1
				c1.8,1.2,2.3,3.7,1.1,5.5l-4.9,7.4C146.8,37.8,145.5,38.4,144.2,38.4z"/>
		</g>
	</g>
	<g>
		<g>
			<path class="st1" d="M157.3,55.7c-1.6,0-3.2-1-3.8-2.7c-0.7-2.1,0.4-4.4,2.4-5.1l7.8-2.8c2.1-0.7,4.4,0.4,5.1,2.4
				c0.7,2.1-0.4,4.4-2.4,5.1l-7.8,2.8C158.2,55.7,157.8,55.7,157.3,55.7z"/>
		</g>
	</g>
	<g>
		<g>
			<path class="st1" d="M167.3,90.8c-0.1,0-0.3,0-0.4,0c-2.2-0.2-3.8-2.2-3.6-4.4l0.9-9.1c0.2-2.2,2.2-3.8,4.4-3.6
				c2.2,0.2,3.8,2.2,3.6,4.4l-0.9,9.1C171,89.2,169.3,90.8,167.3,90.8z"/>
		</g>
	</g>
	<g>
		<g>
			<path class="st1" d="M115.7,68.5c-0.7,0-1.3-0.2-1.9-0.5c-1.9-1.1-2.6-3.5-1.5-5.4l4.6-8.2c1.1-1.9,3.5-2.6,5.4-1.5
				c1.9,1.1,2.6,3.5,1.5,5.4l-4.6,8.2C118.4,67.8,117.1,68.5,115.7,68.5z"/>
		</g>
	</g>
	<g>
		<g>
			<path class="st1" d="M157.3,115.1c-1.6,0-3.2-1-3.8-2.6c-0.8-2.1,0.3-4.4,2.4-5.1l10.4-3.8c2.1-0.8,4.4,0.3,5.1,2.4
				c0.8,2.1-0.3,4.4-2.4,5.1l-10.4,3.8C158.2,115,157.8,115.1,157.3,115.1z"/>
		</g>
	</g>
	<g class="st8">
		<g>
			<path class="st1" d="M114.3,68c0,0,2.9,1.3,4.6,0.9c1.7-0.4,8.2-8.6,7.5-11.3c-0.7-2.6-4-3.6-4-3.6L114.3,68z"/>
		</g>
	</g>
	<g class="st8">
		<g>
			<path class="st1" d="M113.9,21.9c0,0,12.4,2.1,14.1,4.1s-0.1,5.8-1.8,6.3c-1.7,0.5-5.3-0.6-5.3-0.6"/>
		</g>
	</g>
	<g class="st8">
		<g>
			<path class="st1" d="M142.3,37.2c0,0,5.6,2,8,0.5c2.4-1.5,6.2-6.6,5.5-9.8s-5.3-3.9-5.3-3.9"/>
		</g>
	</g>
	<g class="st8">
		<g>
			<path class="st1" d="M155.5,54.4c0,0,2.1,2.5,5.7,2.8c3.6,0.2,8.8-2.3,9.7-4.8c0.9-2.5-3.1-4.7-3.1-4.7"/>
		</g>
	</g>
	<g class="st8">
		<g>
			<path class="st1" d="M165.6,89.8c0,0,4.4,2.9,5.9,0.9c1.5-2,3.1-12,2.4-14s-4.8-2-4.8-2"/>
		</g>
	</g>
	<g class="st8">
		<g>
			<path class="st1" d="M82.2,54.8c0.1,0.3,4.1,3.6,5.7,2.7c1.6-0.9,7.5-2.7,8-5.3c0.5-2.6-1.9-5.5-1.9-5.5"/>
		</g>
	</g>
	<g class="st8">
		<g>
			<path class="st1" d="M154.5,113.1c0,0,1.3,3.2,4.8,3.2c3.5-0.1,12.1-2.4,13-4.5c0.9-2.1-1.7-5.6-1.7-5.6"/>
		</g>
	</g>
</g>
</svg>
