<?xml version="1.0" encoding="utf-8"?>
<!-- Generator: Adobe Illustrator 22.1.0, SVG Export Plug-In . SVG Version: 6.00 Build 0)  -->
<svg version="1.1" id="Layer_1" xmlns="http://www.w3.org/2000/svg" xmlns:xlink="http://www.w3.org/1999/xlink" x="0px" y="0px"
	 viewBox="0 0 256 256" style="enable-background:new 0 0 256 256;" xml:space="preserve">
<style type="text/css">
	.st0{fill:#F5B31F;}
	.st1{fill:#464646;}
	.st2{opacity:0.15;}
	.st3{fill:#AC6535;}
	.st4{fill:#EB573B;}
	.st5{fill:#90C056;}
	.st6{opacity:0.35;}
	.st7{fill:#FFFFFF;}
	.st8{opacity:0.2;}
	.st9{fill:#F6D67A;}
	.st10{opacity:0.3;}
	.st11{fill:#FFA755;}
	.st12{fill:#8FAE3C;}
	.st13{fill:#BE6BB2;}
	.st14{fill:#B7C536;}
	.st15{opacity:0.1;}
	.st16{fill:#9D5A96;}
	.st17{fill:#EA615D;}
	.st18{opacity:0.4;}
	.st19{fill:#F79932;}
	.st20{fill:#FFEC97;}
	.st21{fill:#FFD11D;}
	.st22{fill:#F7F2D5;}
	.st23{fill:#F6AF72;}
	.st24{fill:#BA6C45;}
	.st25{opacity:0.5;}
	.st26{fill:#E4C074;}
	.st27{fill:#656566;}
	.st28{fill:#FACD1F;}
	.st29{fill:#FFDF66;}
	.st30{fill:#6D6E71;}
	.st31{fill:#E77CAE;}
	.st32{fill:#FFE5C4;}
	.st33{fill:#F68455;}
	.st34{opacity:0.7;}
	.st35{fill:#ADEDFF;}
	.st36{fill:#EC754B;}
	.st37{fill:#4AA5BA;}
	.st38{opacity:0.8;}
	.st39{fill:#92A5AC;}
	.st40{fill:#D06E3C;}
	.st41{fill:#DA4F4B;}
	.st42{fill:#BDF3FF;}
	.st43{fill:#F18BB4;}
	.st44{fill:#F9D97A;}
	.st45{fill:none;}
	.st46{fill:#AF6535;}
	.st47{fill:#B93226;}
	.st48{fill:#FF6050;}
	.st49{fill:#EA7CB1;}
	.st50{fill:#00B0E0;}
	.st51{fill:#EA7DAE;}
	.st52{fill:#BC7532;}
	.st53{fill:#876C6C;}
	.st54{fill:#F9F6CD;}
	.st55{fill:#FFE37B;}
	.st56{fill:#1DDCFF;}
	.st57{fill:#60ACF7;}
	.st58{fill:#C3755A;}
	.st59{fill:#96557A;}
	.st60{fill:#66625D;}
	.st61{fill:#D68032;}
	.st62{fill:#F2A355;}
	.st63{fill:#7E9E6A;}
	.st64{fill:#965A85;}
	.st65{fill:#90CAD3;}
	.st66{fill:#94B57F;}
	.st67{fill:#B2E2E7;}
	.st68{fill:#FFDF8F;}
	.st69{fill:#FFFAEB;}
	.st70{fill:#F88916;}
	.st71{fill:#FFC86E;}
	.st72{fill:#AFA51D;}
	.st73{fill:#968A1C;}
	.st74{fill:#C3556D;}
</style>
<g>
	<g>
		<g>
			<g>
				<path class="st7" d="M120.4,77.2c-38.1,3.8-63.3,45-63.3,81.3c0,36.3,0,59.4,0,59.4s58.3-1.9,97.4-3.1
					c76.7-0.6,97.4-33.6,97.4-90.7c0-36.9,0-53.6,0-53.6S158.5,73.4,120.4,77.2z M197.1,135.4c0,24.9-9,39.4-42.6,39.7
					c-17.1,0.5-42.6,1.3-42.6,1.3s0-10.1,0-26c0-15.9,11-33.9,27.7-35.5c16.6-1.7,57.5-2.9,57.5-2.9S197.1,119.3,197.1,135.4z"/>
			</g>
		</g>
	</g>
	<g class="st15">
		<g>
			<g>
				<path class="st1" d="M251.9,83.6c0-8.9,0-13.1,0-13.1s-93.5,2.9-131.6,6.7c-38.1,3.8-63.3,45-63.3,81.3c0,36.3,0,59.4,0,59.4
					s4.2-0.1,11.2-0.4c0,0,0.9-37.4,1.9-66.2s30.3-60.9,50.6-62.8S251.9,83.6,251.9,83.6z"/>
			</g>
		</g>
	</g>
	<g class="st15">
		<g>
			<g>
				<path class="st1" d="M57.1,218c0,0,58.3-1.9,97.4-3.1c76.7-0.6,97.4-33.6,97.4-90.7c0-36.9,0-53.6,0-53.6s4.5,91.3-46.4,115.3
					S57.1,210.4,57.1,210.4L57.1,218z"/>
			</g>
		</g>
	</g>
	<g>
		<g>
			<g>
				<path class="st12" d="M197.1,112c0,0,0,7.3,0,23.4c0,24.9-9,39.4-42.6,39.7c-17.1,0.5-42.6,1.3-42.6,1.3s0-10.1,0-26
					c0-15.9,11-33.9,27.7-35.5C156.2,113.3,197.1,112,197.1,112z"/>
			</g>
		</g>
	</g>
	<g class="st2">
		<g>
			<g>
				<path class="st1" d="M197.1,112c0,0-40.9,1.3-57.5,2.9c-16.7,1.7-27.7,19.7-27.7,35.5c0,15.9,0,26,0,26s3-28.2,18-44.1
					C145,116.4,197.1,112,197.1,112z"/>
			</g>
		</g>
	</g>
	<g>
		<g>
			<g>
				<path class="st33" d="M251.9,70.5c0,0-93.5,2.9-131.6,6.7c-38.1,3.8-63.3,45-63.3,81.3c0,36.3,0,59.4,0,59.4L3.9,185.9
					c0,0,0-23.1,0-59.4c0-36.3,25.2-77.5,63.3-81.3c38.1-3.8,131.6-6.7,131.6-6.7L251.9,70.5z"/>
			</g>
		</g>
	</g>
	<g class="st2">
		<g>
			<g>
				<path class="st7" d="M215.1,48.2l-16.3-9.8c0,0-93.5,2.9-131.6,6.7c-38.1,3.8-63.3,45-63.3,81.3c0,36.3,0,59.4,0,59.4l12.4,7.5
					c0,0,0.5-45,3.1-74.3s33.9-57.4,50.7-60.3C87,55.9,215.1,48.2,215.1,48.2z"/>
			</g>
		</g>
	</g>
	<g>
		<g>
			<g>
				<path class="st1" d="M57.1,222c-1,0-2-0.4-2.8-1.1c-0.8-0.8-1.2-1.8-1.2-2.9v-59.4c0-19.1,6.6-39.2,18.1-55.2
					c12.7-17.6,30-28.3,48.8-30.1c0,0,0,0,0,0c37.8-3.8,130.9-6.7,131.8-6.7c1.1,0,2.1,0.4,2.9,1.1s1.2,1.8,1.2,2.9v53.6
					c0,32.2-6.7,54.3-21,69.3c-16,16.8-42.3,25.1-80.4,25.4L57.2,222C57.2,222,57.1,222,57.1,222z M120.8,81.2
					c-35.7,3.6-59.7,42.9-59.7,77.4v55.3l93.3-3c77.7-0.6,93.5-35.1,93.6-86.7V74.6C229.5,75.2,153.7,77.9,120.8,81.2L120.8,81.2z
					 M111.9,180.4c-1,0-2-0.4-2.8-1.1c-0.8-0.8-1.2-1.8-1.2-2.9v-26c0-8.8,3-18.1,8.3-25.4c5.9-8.2,14.1-13.2,22.9-14.1
					c16.6-1.6,56.1-2.9,57.8-2.9c1.1,0,2.1,0.4,2.9,1.1c0.8,0.8,1.2,1.8,1.2,2.9v23.4c0,30.3-13.9,43.4-46.5,43.7l-42.5,1.3
					C112,180.4,112,180.4,111.9,180.4z M193.1,116.1c-10.8,0.4-39.9,1.5-53.1,2.8c-14.4,1.4-24.1,17.5-24.1,31.6v21.8l38.5-1.2
					c32.2-0.3,38.7-13.8,38.7-35.7V116.1z"/>
			</g>
		</g>
	</g>
	<g>
		<g>
			<g>
				<path class="st1" d="M111.9,180.4c-1,0-2-0.4-2.8-1.1c-0.8-0.8-1.2-1.8-1.2-2.9l0-26c0-8.8,3-18.1,8.3-25.4
					c5.9-8.2,14.1-13.2,22.9-14.1c16.6-1.6,56.1-2.9,57.8-2.9c1.1,0,2.1,0.4,2.9,1.1c0.8,0.8,1.2,1.8,1.2,2.9l0,23.4
					c0,30.3-13.9,43.4-46.5,43.7l-42.5,1.3C112,180.4,112,180.4,111.9,180.4z M193.1,116.1c-10.8,0.4-39.9,1.5-53.1,2.8
					c-11.6,1.2-24.1,14.1-24.1,31.6l0,21.8l38.5-1.2c32.2-0.3,38.7-13.8,38.7-35.7L193.1,116.1z"/>
			</g>
		</g>
	</g>
	<g>
		<g>
			<g>
				<path class="st1" d="M57.1,222c-0.7,0-1.4-0.2-2.1-0.6L1.9,189.3c-1.2-0.7-1.9-2-1.9-3.4l0-59.4c0-19.1,6.6-39.2,18.1-55.2
					c12.7-17.6,30-28.2,48.8-30.1c37.8-3.8,130.9-6.7,131.8-6.7c0.8,0,1.5,0.2,2.2,0.6L254,67.1c1.5,0.9,2.3,2.7,1.8,4.4
					c-0.4,1.7-2,2.9-3.7,3c-0.9,0-93.8,3-131.3,6.7c-35.7,3.6-59.7,42.9-59.7,77.4l0,59.4c0,1.4-0.8,2.8-2,3.5
					C58.4,221.8,57.8,222,57.1,222z M7.9,183.6l45.2,27.2l0-52.3c0-19.1,6.6-39.2,18.1-55.2c12.7-17.5,30-28.2,48.8-30.1
					c29.1-2.9,91-5.3,118.4-6.3l-40.6-24.5c-10.9,0.4-94.9,3.1-130.1,6.7C31.9,52.7,7.9,92,7.9,126.5L7.9,183.6z"/>
			</g>
		</g>
	</g>
</g>
</svg>
