<?xml version="1.0" encoding="utf-8"?>
<!-- Generator: Adobe Illustrator 22.1.0, SVG Export Plug-In . SVG Version: 6.00 Build 0)  -->
<svg version="1.1" id="Layer_1" xmlns="http://www.w3.org/2000/svg" xmlns:xlink="http://www.w3.org/1999/xlink" x="0px" y="0px"
	 viewBox="0 0 256 256" style="enable-background:new 0 0 256 256;" xml:space="preserve">
<style type="text/css">
	.st0{fill:#F5B31F;}
	.st1{fill:#464646;}
	.st2{opacity:0.15;}
	.st3{fill:#AC6535;}
	.st4{fill:#EB573B;}
	.st5{fill:#90C056;}
	.st6{opacity:0.35;}
	.st7{fill:#FFFFFF;}
	.st8{opacity:0.2;}
	.st9{fill:#F6D67A;}
	.st10{opacity:0.3;}
	.st11{fill:#FFA755;}
	.st12{fill:#8FAE3C;}
	.st13{fill:#BE6BB2;}
	.st14{fill:#B7C536;}
	.st15{opacity:0.1;}
	.st16{fill:#9D5A96;}
	.st17{fill:#EA615D;}
	.st18{opacity:0.4;}
	.st19{fill:#F79932;}
	.st20{fill:#FFEC97;}
	.st21{fill:#FFD11D;}
	.st22{fill:#F7F2D5;}
	.st23{fill:#F6AF72;}
	.st24{fill:#BA6C45;}
	.st25{opacity:0.5;}
	.st26{fill:#E4C074;}
	.st27{fill:#656566;}
	.st28{fill:#FACD1F;}
	.st29{fill:#FFDF66;}
	.st30{fill:#6D6E71;}
	.st31{fill:#E77CAE;}
	.st32{fill:#FFE5C4;}
	.st33{fill:#F68455;}
	.st34{opacity:0.7;}
	.st35{fill:#ADEDFF;}
	.st36{fill:#EC754B;}
	.st37{fill:#4AA5BA;}
	.st38{opacity:0.8;}
	.st39{fill:#92A5AC;}
	.st40{fill:#D06E3C;}
	.st41{fill:#DA4F4B;}
	.st42{fill:#BDF3FF;}
	.st43{fill:#F18BB4;}
	.st44{fill:#F9D97A;}
	.st45{fill:none;}
	.st46{fill:#AF6535;}
	.st47{fill:#B93226;}
	.st48{fill:#FF6050;}
	.st49{fill:#EA7CB1;}
	.st50{fill:#00B0E0;}
	.st51{fill:#EA7DAE;}
	.st52{fill:#BC7532;}
	.st53{fill:#876C6C;}
	.st54{fill:#F9F6CD;}
	.st55{fill:#FFE37B;}
	.st56{fill:#1DDCFF;}
	.st57{fill:#60ACF7;}
	.st58{fill:#C3755A;}
	.st59{fill:#96557A;}
	.st60{fill:#66625D;}
	.st61{fill:#D68032;}
	.st62{fill:#F2A355;}
	.st63{fill:#7E9E6A;}
	.st64{fill:#965A85;}
	.st65{fill:#90CAD3;}
	.st66{fill:#94B57F;}
	.st67{fill:#B2E2E7;}
	.st68{fill:#FFDF8F;}
	.st69{fill:#FFFAEB;}
	.st70{fill:#F88916;}
	.st71{fill:#FFC86E;}
	.st72{fill:#AFA51D;}
	.st73{fill:#968A1C;}
	.st74{fill:#C3556D;}
</style>
<g>
	<g>
		<g>
			<path class="st12" d="M203.9,84.4c5.3,53.9-89.6,195.3-191.6,162.6c4.8-9.1,13-15.8,22.6-21.6c-1.1,1.7-1.7,3.8-1.7,6
				c0,6.3,5.1,11.4,11.4,11.4c6.3,0,11.4-5.1,11.4-11.4c0-6.3-5-11.3-11.3-11.4c7-3.6,14.4-7,21.6-10.7c-0.8,1.8-1.3,3.7-1.3,5.8
				c0,7.6,6.2,13.8,13.8,13.8c7.6,0,13.8-6.2,13.8-13.8c0-7.1-5.4-12.9-12.2-13.7c4.9-3.1,9.5-6.6,13.5-10.5
				c1.1,8.7,8.5,15.4,17.5,15.4c9.8,0,17.7-7.9,17.7-17.7c0-9.8-7.9-17.7-17.7-17.7c-1.1,0-2.2,0.1-3.3,0.3c4-6.4,8-12.5,11.8-18.3
				c-0.2,1.1-0.3,2.2-0.3,3.4c0,10.8,8.8,19.5,19.5,19.5c10.8,0,19.5-8.8,19.5-19.6c0-10.8-8.8-19.5-19.5-19.5
				c-3.9,0-7.6,1.2-10.6,3.2c4.9-7.4,9.6-14.2,14-20.6c0,0.3,0,0.6,0,0.9c0,9.5,7.7,17.2,17.2,17.2c9.5,0,17.2-7.7,17.2-17.3
				c0-9.5-7.7-17.2-17.2-17.2c-2.3,0-4.5,0.5-6.5,1.3c4.2-5.8,8.1-11.1,11.8-15.9c1.5,5.2,6.3,8.9,11.9,8.9
				c6.9,0,12.4-5.6,12.4-12.5c0-6.7-5.3-12.1-11.9-12.4c21.8-27,32.4-34.8,33-35.2C210.3,37.5,203,50.2,203.9,84.4z"/>
		</g>
	</g>
	<g>
		<g>
			<path class="st1" d="M43.4,255.8c-12.3,0-23.1-2.1-32.2-5c-1.1-0.4-2-1.2-2.5-2.3c-0.4-1.1-0.4-2.3,0.2-3.4
				c4.6-8.7,12.2-16.1,24.1-23.2c1.6-1,3.6-0.7,4.9,0.6c1.3,1.3,1.5,3.3,0.6,4.9c-0.7,1.2-1.1,2.5-1.1,3.9c0,2,0.8,3.8,2.2,5.2
				c1.4,1.4,3.3,2.2,5.2,2.2c0,0,0,0,0,0c4.1,0,7.4-3.3,7.4-7.4c0-4-3.3-7.4-7.3-7.4c-1.8,0-3.4-1.3-3.8-3.1
				c-0.4-1.8,0.4-3.6,2.1-4.5c3.6-1.9,7.4-3.7,11-5.5c3.5-1.7,7.1-3.4,10.6-5.2c1.5-0.8,3.4-0.5,4.6,0.7c1.2,1.2,1.6,3,0.9,4.6
				c-0.6,1.3-0.9,2.6-0.9,4.1c0,5.4,4.4,9.8,9.8,9.8c0,0,0,0,0,0c5.4,0,9.8-4.4,9.8-9.8c0-5-3.7-9.2-8.7-9.8
				c-1.7-0.2-3.1-1.4-3.4-3.1c-0.4-1.7,0.3-3.4,1.7-4.3c5.1-3.3,9.3-6.5,12.8-10c1.1-1.1,2.7-1.4,4.1-0.9c1.4,0.5,2.5,1.8,2.7,3.3
				c0.9,6.8,6.7,11.9,13.5,11.9c0,0,0,0,0,0c3.7,0,7.1-1.4,9.7-4c2.6-2.6,4-6,4-9.7c0-7.5-6.1-13.7-13.7-13.7
				c-0.8,0-1.7,0.1-2.5,0.2c-1.6,0.3-3.2-0.3-4.1-1.7s-0.9-3.1-0.1-4.4c3.7-5.9,7.6-11.9,11.8-18.3c1-1.6,3-2.2,4.8-1.5
				c1.8,0.7,2.8,2.5,2.5,4.4c-0.2,0.9-0.2,1.8-0.2,2.7c0,4.2,1.6,8.1,4.6,11c2.9,2.9,6.8,4.5,11,4.5c0,0,0,0,0,0
				c8.6,0,15.5-7,15.5-15.6c0-4.2-1.6-8-4.6-11c-2.9-2.9-6.8-4.5-11-4.5c0,0,0,0,0,0c-3,0-5.9,0.9-8.5,2.5c-1.6,1-3.7,0.8-5-0.5
				c-1.3-1.3-1.5-3.5-0.5-5c4.8-7.2,9.5-14.2,14.1-20.7c1-1.5,2.9-2.1,4.5-1.5c1.7,0.6,2.8,2.1,2.7,3.9c0,0.3,0,0.5,0,0.8
				c0,3.5,1.4,6.9,3.9,9.4c2.5,2.5,5.8,3.9,9.3,3.9c0,0,0,0,0,0c7.3,0,13.2-6,13.2-13.3c0-3.5-1.4-6.9-3.9-9.4
				c-2.5-2.5-5.8-3.9-9.3-3.9c0,0,0,0,0,0c-1.7,0-3.4,0.3-5,1c-1.7,0.7-3.6,0.2-4.7-1.2c-1.1-1.4-1.1-3.4-0.1-4.8
				c4.3-5.9,8.2-11.2,11.9-16c0.9-1.2,2.4-1.8,3.9-1.5c1.5,0.3,2.7,1.4,3.1,2.8c1.1,3.6,4.4,6,8.1,6c0,0,0,0,0,0
				c4.7,0,8.4-3.8,8.4-8.5c0-4.5-3.5-8.2-8-8.4c-1.5-0.1-2.8-1-3.5-2.4c-0.6-1.4-0.4-3,0.5-4.2c22.6-27.9,33.4-35.7,33.8-36
				c1.5-1.1,3.6-1,5,0.3c1.4,1.3,1.7,3.3,0.8,5c-0.3,0.5-7.1,12.6-6.2,45.2c3.1,32.4-28.5,96.8-78.9,137.4
				C96.6,247.7,67.3,255.8,43.4,255.8z M18.6,244.6c24.9,6.6,62.1,5.7,105.5-29.3c38.8-31.3,79.5-93.8,75.9-130.6c0-0.1,0-0.2,0-0.3
				c-0.4-15.4,0.8-26.6,2.3-34.4c-4.5,4.6-10.3,11-17.7,19.9c5.3,2.7,8.9,8.3,8.9,14.6c0,9.1-7.4,16.5-16.4,16.5c0,0,0,0,0,0
				c-4.8,0-9.3-2.2-12.4-5.7c-0.9,1.1-1.7,2.3-2.6,3.5c4.8,0.5,9.3,2.6,12.8,6.1c4,4,6.2,9.3,6.2,15c0,11.7-9.5,21.3-21.2,21.3
				c0,0,0,0,0,0c-0.8,0-1.7,0-2.5-0.1c3.5,4.2,5.4,9.4,5.4,15c0,13-10.5,23.6-23.5,23.6c0,0,0,0,0,0c-3,0-5.9-0.6-8.7-1.6
				c1.7,3.1,2.7,6.6,2.7,10.4c0,5.8-2.2,11.2-6.3,15.3c-4.1,4.1-9.5,6.4-15.3,6.4c0,0,0,0,0,0c-8.5,0-16-5-19.5-12.3
				c-1,0.8-2,1.6-3,2.4c4.7,3.2,7.7,8.6,7.8,14.7c0,9.8-8,17.8-17.8,17.9c0,0,0,0,0,0c-9.4,0-17.1-7.3-17.8-16.5
				c-1.2,0.6-2.5,1.2-3.7,1.8c-1,0.5-2,1-3,1.4c3.4,2.8,5.5,7.1,5.5,11.8c0,8.5-6.9,15.4-15.4,15.4c0,0,0,0,0,0
				c-4.1,0-8-1.6-10.9-4.5c-2.3-2.3-3.8-5.2-4.3-8.4C24.9,237.3,21.3,240.8,18.6,244.6z M115.5,167.1c1.2,0.2,2.3,0.5,3.4,0.9
				c-0.7-1.1-1.2-2.4-1.7-3.6C116.7,165.4,116.1,166.3,115.5,167.1z M139.2,132.6c1.2,0,2.5,0.1,3.7,0.3c-0.9-1.2-1.7-2.5-2.3-3.8
				c-0.8,1.2-1.6,2.3-2.4,3.5C138.6,132.6,138.9,132.6,139.2,132.6z"/>
		</g>
	</g>
	<g class="st15">
		<g>
			<g>
				<path d="M63.3,233.6c0,6.3-5.1,11.4-11.4,11.4c-6.3,0-11.4-5.1-11.4-11.4c0-2.2,0.6-4.2,1.7-6c3.1-1.9,6.4-3.7,9.8-5.4
					C58.3,222.2,63.3,227.3,63.3,233.6z"/>
			</g>
		</g>
		<g>
			<g>
				<path d="M100,217.2c0,7.6-6.2,13.8-13.8,13.8c-7.6,0-13.8-6.2-13.8-13.8c0-2.1,0.4-4,1.3-5.8c4.9-2.5,9.7-5.1,14.2-8
					C94.7,204.3,100,210.1,100,217.2z"/>
			</g>
		</g>
		<g>
			<g>
				<path d="M136.5,190.7c0,9.8-7.9,17.7-17.7,17.7c-9,0-16.4-6.7-17.5-15.4c3-2.9,5.7-6.1,8-9.7c2.1-3.4,4.2-6.7,6.2-9.9
					c1.1-0.2,2.2-0.3,3.3-0.3C128.6,173,136.5,180.9,136.5,190.7z"/>
			</g>
		</g>
		<g>
			<g>
				<path d="M166,158.4c0,10.8-8.7,19.6-19.5,19.6c-10.8,0-19.5-8.7-19.5-19.5c0-1.1,0.1-2.3,0.3-3.4c2.9-4.5,5.8-8.8,8.6-13
					c3.1-2,6.7-3.2,10.6-3.2C157.2,138.9,166,147.6,166,158.4z"/>
			</g>
		</g>
		<g>
			<g>
				<path d="M184.3,122.3c0,9.5-7.7,17.3-17.2,17.3c-9.5,0-17.2-7.7-17.2-17.2c0-0.3,0-0.6,0-0.9c3.7-5.3,7.3-10.4,10.7-15.1
					c2-0.8,4.2-1.3,6.5-1.3C176.6,105,184.3,112.8,184.3,122.3z"/>
			</g>
		</g>
		<g>
			<g>
				<path d="M196.7,86.8c0,6.9-5.6,12.5-12.4,12.5c-5.6,0-10.4-3.7-11.9-8.9c4.5-6,8.7-11.3,12.5-16
					C191.5,74.7,196.7,80.2,196.7,86.8z"/>
			</g>
		</g>
	</g>
	<g>
		<g>
			<path class="st14" d="M56.1,231.3c0,6.3-5.1,11.4-11.4,11.4c-6.3,0-11.4-5.1-11.4-11.4c0-2.2,0.6-4.2,1.7-6
				c3.1-1.9,6.4-3.7,9.8-5.4C51.1,220,56.1,225,56.1,231.3z"/>
		</g>
	</g>
	<g>
		<g>
			<path class="st14" d="M92.8,214.9c0,7.6-6.2,13.8-13.8,13.8c-7.6,0-13.8-6.2-13.8-13.8c0-2.1,0.4-4,1.3-5.8
				c4.9-2.5,9.7-5.1,14.2-8C87.4,202,92.8,207.8,92.8,214.9z"/>
		</g>
	</g>
	<g>
		<g>
			<path class="st14" d="M129.2,188.4c0,9.8-7.9,17.7-17.7,17.7c-9,0-16.4-6.7-17.5-15.4c3-2.9,5.7-6.1,8-9.7
				c2.1-3.4,4.2-6.7,6.2-9.9c1.1-0.2,2.2-0.3,3.3-0.3C121.3,170.8,129.2,178.7,129.2,188.4z"/>
		</g>
	</g>
	<g>
		<g>
			<path class="st14" d="M158.8,156.1c0,10.8-8.7,19.6-19.5,19.6c-10.8,0-19.5-8.7-19.5-19.5c0-1.1,0.1-2.3,0.3-3.4
				c2.9-4.5,5.8-8.8,8.6-13c3.1-2,6.7-3.2,10.6-3.2C150,136.6,158.8,145.3,158.8,156.1z"/>
		</g>
	</g>
	<g>
		<g>
			<path class="st14" d="M177.1,120c0,9.5-7.7,17.3-17.2,17.3c-9.5,0-17.2-7.7-17.2-17.2c0-0.3,0-0.6,0-0.9
				c3.7-5.3,7.3-10.4,10.7-15.1c2-0.8,4.2-1.3,6.5-1.3C169.3,102.8,177.1,110.5,177.1,120z"/>
		</g>
	</g>
	<g>
		<g>
			<path class="st14" d="M189.5,84.6c0,6.9-5.6,12.5-12.4,12.5c-5.6,0-10.4-3.7-11.9-8.9c4.5-6,8.7-11.3,12.5-16
				C184.2,72.4,189.5,77.9,189.5,84.6z"/>
		</g>
	</g>
	<g class="st15">
		<g>
			<path d="M208.2,42.9C208.2,42.9,208.2,42.9,208.2,42.9s-2.4-1.8-2.4-1.8C205.8,41,208.2,42.9,208.2,42.9
				c-0.4,0.3,6.2,2.3-3.6,12.8c-4.8,5.1-10.8,12-18,20.8c-3.8,4.7-8,10-12.5,16c-3.7,4.9-7.6,10.2-11.8,15.9
				c-3.4,4.7-7,9.7-10.7,15.1c-4.5,6.4-9.1,13.3-14,20.6c-2.8,4.2-5.6,8.5-8.6,13c-3.8,5.8-7.7,11.9-11.8,18.3
				c-2,3.2-4.1,6.5-6.2,9.9c-0.5,0.8-1,1.6-1.6,2.3c-1.9,2.7-4.1,5.1-6.4,7.4c-4,3.9-8.6,7.4-13.5,10.5c-4.5,2.9-9.3,5.5-14.2,8
				c-7.2,3.7-14.6,7.1-21.6,10.7c-3.4,1.8-6.7,3.5-9.8,5.4c-9.6,5.8-17.8,12.5-22.6,21.6c-15.4-9.1,17.2-26.7,17.2-26.7
				c5.4-4.3,14.9-8.3,20.8-13c16.5-13.2,47.8-44.4,56.5-53.5c43.5-46,48.9-77.2,71.7-98.7C197.9,49.7,197.6,42.7,208.2,42.9z"/>
		</g>
	</g>
	<g>
		<g>
			<path class="st12" d="M210.7,36.9C210.7,36.9,210.7,36.9,210.7,36.9C210.7,36.9,210.7,36.9,210.7,36.9
				C210.7,36.9,210.7,36.9,210.7,36.9c-0.4,0.3-5.3,3.9-15.1,14.4c-4.8,5.1-10.8,12-18,20.8c-3.8,4.7-8,10-12.5,16
				c-3.7,4.9-7.6,10.2-11.8,15.9c-3.4,4.7-7,9.7-10.7,15.1c-4.5,6.4-9.1,13.3-14,20.6c-2.8,4.2-5.6,8.5-8.6,13
				c-3.8,5.8-7.7,11.9-11.8,18.3c-2,3.2-4.1,6.5-6.2,9.9c-0.5,0.8-1,1.6-1.6,2.3c-1.9,2.7-4.1,5.1-6.4,7.4c-4,3.9-8.6,7.4-13.5,10.5
				c-4.5,2.9-9.3,5.5-14.2,8c-7.2,3.7-14.6,7.1-21.6,10.7c-3.4,1.8-6.7,3.5-9.8,5.4c-9.6,5.8-17.8,12.5-22.6,21.6
				c-15.4-9.1,18.4-35.6,18.4-35.6c5.4-4.3,11.3-8.9,17.1-13.6c16.5-13.2,33.3-27,42.1-36.2c43.5-46,61.2-88.9,84-110.4
				C184.3,41.6,195.6,36.2,210.7,36.9z"/>
		</g>
	</g>
	<g>
		<g>
			<g>
				<path class="st12" d="M174,51.2c-22.8,21.5-40.5,64.4-84,110.4c-8.7,9.1-25.5,23-42.1,36.2c-13.7,0.2-27.4-2.8-40.4-9.8
					c-10.9-9.5,20-25.7,20-25.7c18.9-9.9,43.3-22.8,54.6-30.9C129.1,97.1,149.1,61.1,174,51.2z"/>
			</g>
		</g>
	</g>
	<g class="st15">
		<g>
			<g>
				<path d="M155.1,69.1c-15.1,22.3-36.6,62.4-65.1,92.5c-8.7,9.1-25.5,23-42.1,36.2c-5.1,0.1-7.5,0-12.5-0.9
					C78.5,169.5,118.9,118.1,155.1,69.1z"/>
			</g>
		</g>
	</g>
	<g class="st8">
		<g>
			<g>
				<path class="st7" d="M174,51.2c-24.9,9.8-44.9,45.8-92,80.1c-11.3,8.1-35.7,21-54.6,30.9c0,0-30.9,16.2-20,25.7
					c13.1,7,26.8,10,40.4,9.8c0,0-22.6-5.2-21.9-16.2c0.7-11,61.6-32.6,103.3-82.1C148,79.3,174,51.2,174,51.2z"/>
			</g>
		</g>
	</g>
	<g>
		<g>
			<path class="st1" d="M12.4,251c-0.7,0-1.4-0.2-2-0.6c-4.6-2.7-5.8-6.5-6-9.2c-0.9-12.9,19.8-29.8,23.9-33
				c5.7-4.5,11.3-8.9,17.1-13.5c13.4-10.7,32.3-26,41.7-35.8c23.8-25.2,40.2-49.9,53.3-69.8c10.9-16.5,20.3-30.8,30.9-40.7
				c11.9-11.2,24.5-16.1,39.6-15.5c1,0,2,0.5,2.7,1.2c1.1,1.2,1.4,2.9,0.8,4.3c-0.3,0.7-0.8,1.3-1.4,1.7c-0.4,0.3-5.1,3.8-14.4,13.8
				C193,60,187,66.9,180.7,74.7c-4,4.9-8.2,10.3-12.5,15.9c-3.6,4.8-7.5,10-11.7,15.9c-3.3,4.6-6.9,9.7-10.6,15
				c-4.5,6.5-9.2,13.4-14,20.6c-3.2,4.8-5.9,9-8.5,13c-4.2,6.4-8,12.4-11.7,18.3c-2,3.2-4.1,6.5-6.2,9.9c-0.6,1-1.2,1.8-1.7,2.5
				c-2,2.8-4.2,5.3-6.9,7.9c-3.9,3.8-8.5,7.4-14.1,11c-4,2.6-8.5,5.1-14.5,8.2c-3.6,1.8-7.2,3.6-10.7,5.3c-3.6,1.8-7.3,3.6-10.9,5.4
				c-3.8,2-6.9,3.6-9.6,5.3c-10.5,6.3-17.3,12.7-21.1,20.1c-0.5,1-1.4,1.7-2.4,2C13.1,250.9,12.8,251,12.4,251z M199.3,41.7
				c-8.1,1.6-15.4,5.7-22.6,12.5c-9.8,9.3-19,23.2-29.7,39.3c-13.3,20.1-29.9,45.2-54.2,70.9c-7.4,7.7-20.9,19.4-42.5,36.5
				c-5.8,4.6-11.4,9.1-17.1,13.6c-8.4,6.6-19.7,18.2-20.8,24.9c4.7-6.3,11.3-12,20.5-17.5c2.9-1.7,6.1-3.5,10.1-5.6
				c3.6-1.9,7.4-3.7,11-5.5c3.5-1.7,7.1-3.4,10.6-5.2c5.7-2.9,10-5.3,13.8-7.8c5.1-3.3,9.3-6.5,12.8-10c2.3-2.3,4.2-4.5,6-6.9
				c0.5-0.7,0.9-1.4,1.5-2.1c2.1-3.3,4.2-6.7,6.2-9.9c3.7-5.9,7.6-11.9,11.8-18.3c2.6-4,5.4-8.2,8.6-13c4.8-7.2,9.5-14.2,14.1-20.7
				c3.7-5.4,7.4-10.5,10.7-15.1c4.3-5.9,8.2-11.2,11.9-16c4.3-5.7,8.6-11.1,12.6-16.1c6.4-7.9,12.5-15,18.1-21.1
				C195.2,45.8,197.4,43.6,199.3,41.7z"/>
		</g>
	</g>
	<g>
		<g>
			<path class="st1" d="M44.7,246.7c-4.1,0-8-1.6-10.9-4.5c-2.9-2.9-4.5-6.8-4.5-10.9c0-2.9,0.8-5.7,2.3-8.1c0.3-0.5,0.8-1,1.3-1.3
				c2.9-1.7,6.1-3.5,10.1-5.6c0.6-0.3,1.2-0.4,1.9-0.4c8.4,0.1,15.2,7,15.2,15.4l0,0C60.1,239.8,53.2,246.7,44.7,246.7
				C44.7,246.7,44.7,246.7,44.7,246.7z M38,228.2c-0.4,1-0.7,2-0.7,3.1c0,2,0.8,3.8,2.2,5.2c1.4,1.4,3.3,2.2,5.2,2.2c0,0,0,0,0,0
				c4.1,0,7.4-3.3,7.4-7.4l0,0c0-3.7-2.8-6.9-6.4-7.3C42.7,225.5,40.2,226.9,38,228.2z"/>
		</g>
	</g>
	<g>
		<g>
			<path class="st1" d="M79,232.8c-9.8,0-17.8-8-17.8-17.8c0-2.6,0.5-5.1,1.6-7.4c0.4-0.8,1-1.5,1.8-1.9c5.7-2.9,10-5.3,13.8-7.8
				c0.8-0.5,1.7-0.7,2.6-0.6c9,1,15.8,8.6,15.8,17.7l0,0C96.8,224.8,88.8,232.8,79,232.8C79,232.8,79,232.8,79,232.8z M69.6,212.1
				c-0.3,0.9-0.4,1.9-0.4,2.9c0,5.4,4.4,9.8,9.8,9.8c0,0,0,0,0,0c5.4,0,9.8-4.4,9.8-9.8c0-4.5-3.1-8.4-7.4-9.5
				C78,207.5,74.3,209.6,69.6,212.1z"/>
		</g>
	</g>
	<g>
		<g>
			<path class="st1" d="M111.6,210.2c-10.9,0-20.1-8.1-21.5-18.9c-0.2-1.2,0.3-2.5,1.2-3.4c2.9-2.9,5.4-5.8,7.4-9
				c2.1-3.4,4.2-6.7,6.2-9.9c0.6-0.9,1.5-1.6,2.6-1.8c1.3-0.3,2.7-0.4,4.1-0.4c0,0,0,0,0,0c5.8,0,11.2,2.3,15.3,6.3
				c4.1,4.1,6.4,9.5,6.4,15.3l0,0c0,5.8-2.2,11.2-6.3,15.3C122.8,207.9,117.4,210.1,111.6,210.2
				C111.6,210.2,111.6,210.2,111.6,210.2z M98.4,192c1.6,5.9,7,10.1,13.2,10.1c0,0,0,0,0,0c3.7,0,7.1-1.4,9.7-4c2.6-2.6,4-6,4-9.7
				l0,0c0-3.7-1.4-7.1-4-9.7c-2.6-2.6-6-4-9.7-4c-0.3,0-0.6,0-0.9,0c-1.7,2.7-3.5,5.5-5.2,8.3C103.4,186.3,101.1,189.2,98.4,192z"/>
		</g>
	</g>
	<g>
		<g>
			<path class="st1" d="M139.2,179.7c-6.3,0-12.2-2.4-16.6-6.9c-4.4-4.4-6.9-10.4-6.9-16.6c0-1.4,0.1-2.7,0.4-4.1
				c0.1-0.5,0.3-1,0.6-1.5c2.6-4,5.4-8.2,8.6-13c0.3-0.5,0.7-0.8,1.1-1.1c3.8-2.5,8.2-3.8,12.8-3.8c0,0,0,0,0,0
				c6.3,0,12.2,2.4,16.6,6.9c4.4,4.4,6.9,10.3,6.9,16.6l0,0C162.8,169.1,152.2,179.7,139.2,179.7
				C139.3,179.7,139.2,179.7,139.2,179.7z M123.8,154.3c-0.1,0.6-0.1,1.3-0.1,1.9c0,4.2,1.6,8.1,4.6,11c2.9,2.9,6.8,4.5,11,4.5
				c0,0,0,0,0,0c8.6,0,15.5-7,15.5-15.6l0,0c0-4.2-1.6-8-4.6-11c-2.9-2.9-6.8-4.5-11-4.5c0,0,0,0,0,0c-2.8,0-5.4,0.7-7.8,2.1
				C128.6,147,126.2,150.7,123.8,154.3z"/>
		</g>
	</g>
	<g>
		<g>
			<path class="st1" d="M159.8,141.3c-5.7,0-11-2.2-15-6.2c-4-4-6.2-9.3-6.2-15c0-0.3,0-0.7,0-1c0-0.8,0.3-1.5,0.7-2.2
				c3.7-5.4,7.4-10.5,10.7-15.1c0.4-0.6,1-1.1,1.7-1.4c2.5-1,5.3-1.6,8-1.6c0,0,0,0,0,0c5.7,0,11,2.2,15,6.2c4,4,6.2,9.3,6.2,15
				C181.1,131.7,171.6,141.3,159.8,141.3C159.8,141.3,159.8,141.3,159.8,141.3z M146.6,120.4c0.1,3.4,1.5,6.6,3.9,9
				c2.5,2.5,5.8,3.9,9.3,3.9c0,0,0,0,0,0c7.3,0,13.2-6,13.2-13.3c0-3.5-1.4-6.9-3.9-9.4c-2.5-2.5-5.8-3.9-9.3-3.9
				c-1.4,0-2.7,0.2-4,0.6C152.9,111.5,149.8,115.8,146.6,120.4z"/>
		</g>
	</g>
	<g>
		<g>
			<path class="st1" d="M177,101.1c-7.2,0-13.7-4.8-15.8-11.8c-0.4-1.2-0.1-2.5,0.6-3.6c4.3-5.7,8.6-11.1,12.6-16.1
				c0.8-1,2-1.5,3.3-1.5c8.8,0.4,15.7,7.6,15.7,16.4l0,0C193.5,93.7,186.1,101,177,101.1C177,101.1,177,101.1,177,101.1z
				 M169.7,88.7c1.5,2.6,4.3,4.3,7.4,4.3c0,0,0,0,0,0c4.7,0,8.4-3.8,8.4-8.5l0,0c0-3.9-2.6-7.2-6.2-8.1
				C176.2,80.3,173,84.4,169.7,88.7z"/>
		</g>
	</g>
	<g>
		<g>
			<path class="st1" d="M236.2,41.2c-1,0-1.9-0.1-2.8-0.5c-0.5-0.2-0.9-0.4-1.3-0.7c-0.3-0.3-6.6-5.6-8.5-13
				c-0.6,0.6-1.3,1.2-1.9,1.9c-4.4,4.5-7.4,10-7.5,10c-1.1,1.9-3.5,2.6-5.4,1.6c-1.9-1.1-2.6-3.5-1.6-5.4c0.4-0.8,7.3-13.1,16.9-18
				c2.9-7.3,11.5-13.1,25.7-17c2.1-0.6,4.3,0.6,4.9,2.8c0.6,2.1-0.6,4.3-2.8,4.9c-7.6,2.1-13.4,4.8-16.9,7.7
				c1.1,0.3,2.1,0.6,3.2,1.2c9.4,4.6,10.3,12.1,8.2,17.2C244.6,38.3,240.4,41.2,236.2,41.2z M231,23.1c0.2,4,3.4,8.1,5.5,10
				c0.9-0.1,2-1.1,2.6-2.4c1.1-2.6-0.5-5-4.4-6.9C233.5,23.2,232.3,23,231,23.1z"/>
		</g>
	</g>
	<g>
		<g>
			<g>
				<path class="st1" d="M46.8,201.8c-14.7,0-28.5-3.5-41.2-10.3c-0.3-0.1-0.5-0.3-0.7-0.5c-3.5-3.1-3.9-6.5-3.6-8.9
					c0.6-5.1,4.9-10.4,13.2-16.4c5.6-4,11-6.9,11.2-7c17-8.9,42.7-22.4,54.1-30.6c22.7-16.5,39.3-33.8,52.7-47.7
					C147.3,65,159,52.9,172.5,47.5c1.8-0.7,3.8,0,4.8,1.6c1,1.6,0.8,3.7-0.6,5.1c-9.8,9.3-19,23.2-29.7,39.3
					c-13.3,20.1-29.9,45.2-54.2,70.9c-7.4,7.7-20.9,19.4-42.5,36.5c-0.7,0.6-1.6,0.9-2.4,0.9C47.6,201.8,47.2,201.8,46.8,201.8z
					 M9.8,184.7c11.3,6,23.7,9.1,36.7,9.1c13.3-10.6,31.4-25.4,40.6-34.9c23.8-25.2,40.2-49.9,53.3-69.8c3.9-5.9,7.6-11.5,11.2-16.7
					c-4.3,4.1-8.7,8.7-13.5,13.7c-13.6,14.1-30.6,31.7-53.8,48.6c-11.9,8.5-37.9,22.2-55.1,31.2c-7.8,4.1-19.6,12.4-20.1,17.2
					C9.1,183.4,9.1,183.9,9.8,184.7z"/>
			</g>
		</g>
	</g>
</g>
</svg>
