<?xml version="1.0" standalone="no"?>
<!DOCTYPE svg PUBLIC "-//W3C//DTD SVG 20010904//EN"
 "http://www.w3.org/TR/2001/REC-SVG-20010904/DTD/svg10.dtd">
<svg version="1.0" xmlns="http://www.w3.org/2000/svg"
 width="700.000000pt" height="700.000000pt" viewBox="0 0 700.000000 700.000000"
 preserveAspectRatio="xMidYMid meet">
<metadata>
Created by potrace 1.14, written by Peter Selinger 2001-2017
</metadata>
<g transform="translate(0.000000,700.000000) scale(0.100000,-0.100000)"
fill="#000000" stroke="none">
<path d="M5182 6039 c-146 -37 -228 -108 -324 -279 -14 -25 -51 -89 -82 -142
-31 -54 -81 -142 -112 -195 -31 -54 -68 -118 -82 -143 -13 -25 -91 -160 -172
-300 -229 -398 -230 -400 -236 -521 -5 -106 26 -210 90 -294 120 -161 295
-224 501 -180 39 9 84 17 100 20 17 2 41 7 55 10 14 3 39 8 55 10 17 3 143 28
280 55 138 27 266 52 285 55 19 3 42 8 50 10 8 2 28 6 43 9 36 6 296 57 322
63 11 2 31 6 45 9 61 12 138 38 170 57 153 94 239 246 235 417 -3 157 2 148
-464 800 -197 275 -310 424 -340 448 -121 98 -270 130 -419 91z"/>
<path d="M6085 3974 c-38 -7 -83 -15 -100 -18 -16 -3 -55 -10 -85 -16 -65 -12
-97 -18 -125 -24 -54 -11 -843 -164 -878 -170 -15 -3 -35 -7 -45 -10 -9 -3
-33 -7 -52 -10 -94 -14 -190 -64 -260 -135 -126 -130 -168 -325 -105 -491 36
-94 85 -160 164 -220 47 -35 693 -538 712 -554 15 -12 105 -82 194 -150 22
-17 42 -34 45 -37 14 -16 121 -90 160 -112 173 -94 403 -56 548 92 88 90 98
118 207 591 20 85 47 200 60 255 13 55 26 111 28 125 3 14 13 57 22 95 9 39
18 77 20 85 2 8 11 44 20 80 52 195 10 366 -122 496 -111 111 -254 155 -408
128z"/>
<path d="M710 3674 c-235 -44 -397 -246 -386 -482 4 -80 -3 -60 206 -632 15
-41 55 -151 89 -245 143 -392 161 -425 268 -506 144 -109 340 -126 503 -42 59
30 128 95 760 723 376 374 383 382 416 505 19 71 12 206 -15 274 -45 113 -119
199 -217 252 -46 25 -124 48 -184 54 -30 3 -80 7 -110 10 -30 3 -86 7 -125 10
-38 3 -92 7 -120 10 -27 2 -86 7 -130 10 -44 3 -100 8 -125 10 -25 2 -81 7
-125 10 -44 3 -96 7 -115 10 -19 2 -79 7 -132 10 -54 4 -110 8 -125 10 -16 2
-71 6 -123 10 -52 3 -106 7 -120 9 -14 1 -54 -3 -90 -10z"/>
<path d="M4024 2761 c-160 -45 -289 -173 -329 -326 -15 -56 -20 -179 -11 -265
2 -19 7 -93 10 -165 4 -71 9 -148 11 -170 3 -22 7 -94 10 -160 3 -66 7 -138
10 -160 2 -22 7 -94 10 -160 24 -478 24 -471 71 -572 111 -235 396 -333 629
-216 101 50 355 183 390 203 17 10 109 58 205 108 96 50 209 109 250 131 41
22 99 53 129 68 67 34 157 122 193 189 96 177 68 408 -66 545 -25 26 -100 89
-167 140 -67 52 -127 99 -133 104 -6 6 -60 49 -121 95 -60 47 -117 90 -125 97
-8 7 -85 67 -170 133 -85 66 -162 126 -170 133 -9 7 -54 41 -100 77 -47 35
-87 67 -90 70 -15 19 -105 72 -151 90 -75 29 -204 34 -285 11z"/>
<path d="M2853 2709 c-52 -10 -119 -39 -168 -72 -32 -22 -898 -867 -999 -976
-23 -24 -47 -50 -54 -57 -7 -7 -25 -39 -41 -71 -109 -221 -34 -478 179 -616
22 -14 844 -339 1083 -428 275 -102 559 43 632 322 14 51 14 183 1 359 -3 30
-7 102 -11 160 -8 139 -13 219 -19 315 -3 44 -8 125 -11 180 -3 55 -8 134 -10
175 -3 41 -7 116 -10 165 -11 181 -28 253 -80 335 -99 157 -307 245 -492 209z"/>
</g>
</svg>
